M48
;FILE_FORMAT=2:4
INCH,LZ
FMAT,2
ICI,OFF
;TYPE=PLATED
T1C.012
T2C.02
T3C.02753
T4C.035
T5C.04
T6C.043
T7C.049
T8C.052
T9C.07087
T10C.07874
T11C.11024
T12C.11811
%
M72
G90
G93X0Y0
T1C.012F095S3
X006929Y-014961
X004882Y-010551
X004724Y-009921
X005197Y-007953
X00748Y-007953
X006311Y-003499
X002402Y-003189
X005998Y-002756
X007402Y-001575
X007402Y000079
X006299Y001772
X005847Y002737
X00374Y00374
X013622Y010394
X018425Y009606
X008661Y-01315
X018504Y-013543
X027008Y-017323
X028051Y-014567
X026673Y-014469
X025276Y-012992
X024567Y-012283
X024252Y-011969
X024724Y-011654
X023937Y-011339
X025906Y00126
X026299Y00126
X026499Y010979
X027323Y013307
X032615Y002249
X032604Y-001362
X031615Y-003307
X031615Y-009409
X030236Y-009409
X032913Y-010984
X03063Y-011732
X030866Y-012205
X03126Y-012283
X030394Y-013228
X03248Y-015453
X030217Y-018661
X031201Y-018661
X029213Y-018661
X032185Y-018681
X033465Y-018661
X037402Y-014567
X037402Y-012362
X036339Y-010315
X036339Y-009724
X036339Y-009331
X03315Y-009331
X036339Y-008937
X03315Y-008831
X036339Y-008346
X035669Y-007795
X036457Y-006457
X03685Y-006142
X03685Y-005827
X036378Y-005512
X03685Y-005197
X03685Y-004882
X033864Y-004561
X034864Y-004561
X03685Y-004252
X036378Y-003937
X033364Y-003624
X035115Y-003608
X03685Y-003307
X035115Y-003266
X036457Y-002992
X03685Y-002677
X036378Y-002362
X03685Y-002047
X036614Y-001732
X037051Y-001417
X036614Y-001102
X03685Y-000157
X03685Y000157
X03685Y000472
X037008Y000787
X036693Y001102
X033364Y001187
X03685Y002362
X03685Y002677
X03685Y002992
X035519Y003266
X03685Y003622
X034989Y004186
X03685Y004252
X035519Y004261
X03685Y005197
X035519Y005505
X03685Y005512
X034302Y005623
X03685Y005827
X03685Y006142
X039449Y013307
X040394Y013228
X038819Y00874
X040394Y008661
X039449Y008661
X040079Y008425
X038189Y008268
X039764Y008031
X039134Y007953
X038504Y007953
X040079Y-008031
X038819Y-008031
X039449Y-008031
X038189Y-008031
X040394Y-008346
X038504Y-008583
X039134Y-008583
X039764Y-008583
X04063Y-011732
X043386Y-016929
X044331Y-016929
X043307Y-015591
X043543Y-011024
X045197Y-010809
X043228Y-010709
X045039Y-010497
X042283Y-008346
X041024Y-008268
X041654Y-008268
X044803Y-008268
X044016Y-008031
X045433Y-008031
X040709Y-008031
X041969Y-008031
X041339Y-008031
X044488Y-008031
X043543Y-008031
X043228Y-008031
X043228Y008024
X041339Y008031
X042598Y008031
X041969Y008031
X045118Y008031
X043858Y008031
X044488Y008031
X040709Y008031
X045433Y008346
X044173Y008661
X041654Y008661
X041024Y008661
X042913Y008661
X044803Y008661
X043543Y008661
X042283Y008661
X043228Y010979
X045433Y012598
X047717Y012404
X047874Y010904
X049213Y008661
X050472Y008661
X049843Y008661
X046063Y008583
X046693Y008346
X047638Y008031
X047008Y008031
X045748Y008031
X047953Y008031
X048268Y008031
X046378Y008031
X048583Y008031
X049528Y008031
X050157Y008031
X048898Y008031
X047638Y-008031
X047953Y-008031
X048583Y-008031
X046378Y-008031
X04734Y-00822
X048268Y-008346
X050157Y-008661
X048898Y-008661
X049525Y-009125
X049375Y-009449
X049843Y-010497
X050472Y-013625
X049764Y-01811
X05535Y-014125
X050787Y-008661
X051102Y-008031
X052047Y-008031
X053546Y-006457
X05417Y-005811
X055233Y-005811
X0537Y-0055
X053546Y-005197
X054275Y-005
X054935Y-004749
X054275Y-0045
X053701Y-004252
X054409Y-003937
X053701Y-003622
X054Y-003307
X053701Y-002992
X054275Y-00275
X053701Y-002362
X054275Y-00225
X054275Y-00175
X054275Y-00125
X053701Y-000787
X055225Y-00075
X054275Y-00075
X053858Y-000472
X05405Y-000157
X053701Y000157
X055625Y0005
X0537Y000787
X054173Y001102
X053701Y001417
X053983Y001732
X053701Y002047
X054173Y002362
X053701Y002677
X054173Y002992
X053701Y003307
X054173Y003622
X053701Y003937
X054173Y004252
X053701Y004567
X054094Y004882
X053701Y005197
X053701Y005512
X053701Y006457
X052047Y008031
X051102Y008031
X050787Y008031
X051417Y008031
X052598Y00811
X052205Y010866
X052913Y011181
X052205Y011417
X057717Y013386
X058346Y011941
X055669Y011939
X059764Y011939
X059779Y011446
X058346Y011441
X055669Y011437
X05999Y010945
X055669Y010941
X058346Y010941
X060231Y008569
X057087Y007795
X05811Y007559
X059764Y007559
X056232Y002874
X060231Y001749
X056232Y-00731
X059606Y-008997
X06Y-017
X062126Y-017625
X06125Y-017625
X06255Y-017625
X063Y-017625
X06385Y-017625
X063425Y-017625
X061675Y-017375
X065425Y-00925
X0651Y-008625
X0631Y-008625
X0631Y-004998
X0635Y-003919
X063875Y-002875
X06425Y-0025
X072441Y015827
X072775Y-001125
X068Y-003141
X0675Y-00339
X06685Y-004448
X066125Y-005
X074789Y-01712
X073775Y-016826
X074272Y-016495
X07673Y-004883
X076272Y-004603
X073775Y-002125
X074275Y-00175
X073275Y-001375
X077756Y004572
X075354Y010236
X076614Y010551
X077402Y011274
X07752Y013937
X077165Y013976
X075669Y014488
X076693Y014961
X073307Y015197
X074016Y015748
X075748Y016378
X077795Y016378
X07811Y016457
X076693Y016929
X08Y016929
X078898Y016299
X079291Y015098
X081102Y014961
X081102Y014252
X080157Y013858
X078504Y012283
X079286Y012283
X080079Y011274
X082047Y010236
X083071Y007165
X082913Y006142
X083036Y-000562
X083036Y-001749
X083036Y-002937
X083036Y-004124
X078782Y-005311
X082599Y-005561
X079787Y-005561
X083Y-006498
X079272Y-007498
X081599Y-00831
X078272Y-01353
X082474Y-017994
X085998Y-01213
X0869Y-009362
X0855Y-008989
X083775Y-005998
X087785Y-004561
X086598Y-004561
X087223Y-004561
X084099Y-004124
X084223Y-003561
X087205Y-003189
X086614Y-003189
X085827Y-002992
X084036Y-002937
X084223Y-002374
X084036Y-001749
X084223Y-001187
X084099Y-000591
X084223Y0
X083228Y007795
X083543Y007953
X083858Y008189
X083937Y009055
X087913Y014921
X083228Y016299
X085591Y017165
X09063Y01189
X089685Y011811
X091811Y010866
X092126Y010551
X089449Y002381
X090159Y-000187
X090159Y-001375
X090159Y-002562
X091346Y-003124
X090159Y-003749
X091346Y-004311
X101968Y-017994
X101969Y-017402
X101374Y-015984
X099341Y-01353
X101374Y-012283
X102913Y-002205
X101374Y-001969
X101374Y001575
X102362Y002381
X102902Y011575
X101374Y011811
X102374Y011811
X101374Y015354
X100512Y017756
X101922Y018031
X100512Y019016
X105374Y015354
X103374Y015354
X103386Y011811
X105374Y011811
X106614Y00874
X107874Y008504
X106378Y008425
X107374Y007795
X104374Y007559
X107874Y-005561
X106906Y-005998
X105374Y-007498
X104374Y-007997
X105904Y-011746
X106374Y-015354
X104655Y-017744
X108031Y-017953
X106217Y-018432
X104655Y-018807
X106063Y-019138
X105002Y-019532
X109921Y-019921
X109921Y-019291
X111644Y-019183
X110138Y-017323
X112598Y-010866
X108374Y-010709
X108374Y-006498
X109921Y-004686
X109653Y-003999
X109153Y-003436
X108819Y-002874
X108898Y008425
X108374Y00874
X113307Y011496
X116142Y011496
X116693Y-002283
X113228Y-002283
X114409Y-010866
X11437Y-016772
X115354Y-018622
X11437Y-018622
X113376Y-018622
X117953Y-018941
X119685Y-019134
X12Y-018504
X118819Y-017953
X122689Y-015644
X122689Y-010357
X122689Y-001928
T2C.02F197S55
X005537Y-020217
X003307Y-019088
X001539Y-01732
X001436Y-014822
X001806Y-01235
X004882Y-011142
X00189Y-009055
X005197Y-008504
X003386Y-007638
X005197Y-007141
X003866Y-003429
X003208Y002397
X001436Y00531
X001436Y00781
X001436Y01031
X001436Y01281
X001436Y01531
X001971Y017752
X003739Y01952
X006139Y020217
X006357Y004686
X008699Y00244
X005967Y002187
X008583Y-002283
X009841Y-002362
X007478Y-003125
X009843Y-003701
X009213Y-003701
X008583Y-003701
X007953Y-003701
X010394Y-006693
X006614Y-007323
X006614Y-00874
X009528Y-008976
X006614Y-01
X006142Y-014685
X010537Y-020217
X008037Y-020217
X013037Y-020217
X015537Y-020217
X010787Y-010551
X014803Y-004882
X011732Y-003701
X011102Y-003701
X012362Y-003701
X012992Y-003701
X011104Y-002283
X012362Y-002283
X015591Y002283
X011123Y003533
X011998Y020217
X014498Y020217
X016998Y020217
X019498Y020217
X017402Y-014252
X020537Y-020217
X018037Y-020217
X023037Y-020217
X025537Y-020217
X028037Y-020217
X027638Y-018209
X024724Y-016517
X025236Y-014488
X027559Y-010866
X027559Y-007989
X025197Y002323
X027459Y004017
X027087Y004567
X025669Y004567
X023622Y013386
X023662Y015525
X023662Y018025
X024263Y020217
X026763Y020217
X029263Y020217
X031763Y020217
X029605Y002735
X031947Y001861
X030855Y-000388
X030855Y-002888
X032628Y-003141
X032126Y-005118
X030236Y-00748
X031997Y-009732
X029134Y-010606
X030866Y-015453
X031181Y-015906
X032992Y-018583
X030537Y-020217
X034257Y-020217
X033425Y-019409
X034961Y-016693
X035354Y-014488
X034488Y-007402
X033856Y-005061
X034646Y-001654
X033864Y-000437
X03324Y-000062
X0356Y-000057
X035051Y000472
X035364Y001732
X034743Y002291
X034552Y002812
X034804Y005922
X03378Y008819
X034263Y020217
X036763Y020217
X039263Y020217
X037953Y016693
X04Y01378
X039921Y011496
X038346Y009055
X03685Y006693
X036114Y002812
X036137Y000062
X037402Y-007795
X037874Y-008937
X037874Y-009724
X039764Y-010236
X039173Y-011024
X037559Y-013041
X036535Y-015354
X040371Y-017728
X037087Y-018307
X037087Y-018898
X039606Y-019386
X040356Y-020217
X036757Y-020217
X043071Y-020118
X045039Y-018622
X044016Y-018425
X043386Y-018425
X041615Y-017511
X042047Y-017008
X042835Y-015039
X042835Y-013937
X045079Y-012362
X041496Y-012283
X042244Y-011772
X045079Y-011457
X04126Y-01
X045118Y-01
X04476Y-00882
X044055Y-008281
X044803Y010945
X043238Y011479
X041763Y020217
X044263Y020217
X046763Y020217
X049263Y020217
X04748Y013937
X046202Y01157
X046735Y011434
X047559Y008504
X047126Y-012953
X049134Y-015197
X048031Y-018976
X048504Y-018976
X046515Y-018976
X050315Y-01937
X047835Y-019882
X051723Y-019999
X054223Y-019999
X055048Y-017507
X050945Y-017441
X052165Y-015197
X050907Y-011523
X051339Y-008898
X05252Y-008031
X055591Y-003858
X054961Y005156
X054803Y005906
X055433Y008346
X053386Y011811
X053386Y012441
X055118Y012756
X052546Y012808
X052992Y014016
X051763Y020217
X054263Y020217
X056763Y020217
X059263Y020217
X057008Y014016
X059731Y013542
X057282Y01304
X059669Y012996
X058357Y012996
X056535Y008346
X059213Y00622
X057607Y006123
X059213Y005039
X057607Y004998
X056232Y003374
X05937Y000236
X057717Y-007244
X056296Y-007806
X056929Y-011339
X056233Y-012805
X056233Y-015305
X059975Y-015982
X059975Y-017661
X06045Y-018375
X059223Y-019999
X056723Y-019999
X061723Y-019999
X064223Y-019999
X0648Y-018375
X065201Y-017708
X065225Y-015274
X063563Y-01225
X061675Y-01225
X064625Y-007625
X061024Y000236
X060779Y011273
X061763Y020217
X064263Y020217
X066763Y020217
X069263Y020217
X071763Y020217
X07189Y-007087
X06937Y-007087
X07Y-010551
X071181Y-011181
X068425Y-014556
X073071Y-015906
X071723Y-019999
X066723Y-019999
X069223Y-019999
X074223Y-019999
X076723Y-019999
X076142Y-017638
X077272Y-017402
X075984Y-013543
X075857Y-007141
X077087Y-004094
X074252Y-000787
X075669Y015748
X074263Y020217
X076763Y020217
X079263Y020217
X081763Y020217
X084263Y020217
X085276Y016535
X084724Y002205
X081102Y002205
X080709Y-006772
X082324Y-019999
X084824Y-019999
X079824Y-019999
X087324Y-019999
X089824Y-019999
X086772Y-001575
X088346Y000045
X087894Y001024
X086713Y001024
X087303Y001024
X087303Y002047
X088425Y002756
X088976Y00378
X087874Y00378
X087638Y012598
X087638Y013622
X088051Y015984
X086063Y018031
X086063Y019055
X086763Y020217
X089263Y020217
X091763Y020217
X094263Y020217
X096763Y020217
X095118Y01748
X09622Y01748
X090694Y-009486
X090694Y-014556
X097324Y-019999
X092324Y-019999
X094824Y-019999
X099824Y-019999
X102324Y-019999
X105591Y-018083
X103465Y-016299
X098268Y01622
X101953Y020212
X104453Y020212
X099742Y020217
X106953Y020212
X109453Y020212
X111953Y020212
X112126Y015906
X111374Y009449
X112205Y002205
X112126Y-011575
X110787Y-018307
X108375Y-01861
X108268Y-019291
X110945Y-019685
X112779Y-019999
X116614Y-020236
X115889Y-018563
X120305Y-018108
X113937Y-016063
X114567Y-016063
X11748Y-016063
X118583Y-016063
X118531Y-011575
X118531Y-009486
X11937Y-00874
X116063Y-002283
X116841Y020212
X114341Y020212
X119331Y020217
X121817Y019949
X123584Y018181
X124745Y015967
X122189Y-015492
X121732Y-01811
T3C.02753F197S55
X060269Y-007125
X059481Y-007125
X058694Y-007125
X061056Y-007125
T4C.035F197S55
X001791Y-0014
X002492Y-001
X001791Y-0006
X002492Y-0002
X001791Y0002
X002492Y0006
X001791Y001
X002492Y0014
T5C.04F139S55
X002961Y-015846
X002961Y-014075
X001583Y-011713
X001583Y-009941
X00378Y-002756
X00378Y-001772
X00378Y001772
X00378Y002756
X029429Y00663
X029429Y00563
X029429Y00463
X030209Y-019193
X029209Y-019193
X031209Y-019193
X032209Y-019193
X031004Y003622
X032579Y003622
X031004Y004622
X032579Y004622
X032579Y005622
X031004Y005622
X032579Y006622
X031004Y006622
X032579Y007622
X031004Y007622
X031004Y008622
X032579Y008622
X04782Y-01176
X04626Y-01542
X04506Y-01542
X047402Y-015433
X0489Y-01176
X058098Y-01113
X058098Y-01013
X053465Y-008504
X054465Y-008504
X057228Y002768
X057228Y003768
X060098Y-01013
X059098Y-01013
X063098Y-01013
X062098Y-01013
X061098Y-01013
X059098Y-01113
X062098Y-01113
X060098Y-01113
X061098Y-01113
X063098Y-01113
X065098Y-01113
X064098Y-01113
X067098Y-01113
X066098Y-01113
X065098Y-01013
X067098Y-01013
X064098Y-01013
X066098Y-01013
X072272Y-01013
X075272Y-01013
X074272Y-01013
X073272Y-01013
X077272Y-01013
X076272Y-01013
X073272Y-01113
X072272Y-01113
X077272Y-01113
X074272Y-01113
X076272Y-01113
X075272Y-01113
X080272Y-01113
X079272Y-01113
X078272Y-01113
X081272Y-01113
X080272Y-01013
X078272Y-01013
X079272Y-01013
X081272Y-01013
X100374Y014091
X100374Y013091
X100374Y000311
X100374Y-000689
X100374Y-013469
X100374Y-014469
X102374Y-014469
X101374Y-014469
X105374Y-014469
X103374Y-014469
X104374Y-014469
X101374Y-013469
X105374Y-013469
X103374Y-013469
X104374Y-013469
X102374Y-013469
X102374Y-000689
X101374Y-000689
X105374Y-000689
X103374Y-000689
X104374Y-000689
X101374Y000311
X102374Y000311
X105374Y000311
X103374Y000311
X104374Y000311
X101374Y013091
X102374Y013091
X103374Y013091
X105374Y013091
X104374Y013091
X104374Y014091
X101374Y014091
X105374Y014091
X102374Y014091
X103374Y014091
X106374Y014091
X107374Y014091
X108374Y014091
X109374Y014091
X110374Y014091
X106374Y013091
X108374Y013091
X107374Y013091
X109374Y013091
X110374Y013091
X106374Y000311
X107374Y000311
X110374Y000311
X108374Y000311
X109374Y000311
X106374Y-000689
X110374Y-000689
X108374Y-000689
X109374Y-000689
X107374Y-000689
X106374Y-013469
X107374Y-013469
X109374Y-013469
X110374Y-013469
X108374Y-013469
X106374Y-014469
X107374Y-014469
X110374Y-014469
X109374Y-014469
X108374Y-014469
X112378Y-019193
X113378Y-019193
X114378Y-019193
X115378Y-019193
X111374Y-014469
X112374Y-014469
X115374Y-014469
X113374Y-014469
X114374Y-014469
X111374Y-013469
X115374Y-013469
X113374Y-013469
X112374Y-013469
X114374Y-013469
X112374Y-000689
X111374Y-000689
X115374Y-000689
X113374Y-000689
X114374Y-000689
X115374Y000311
X112374Y000311
X113374Y000311
X114374Y000311
X111374Y000311
X115374Y013091
X113374Y013091
X111374Y013091
X112374Y013091
X114374Y013091
X113374Y014091
X114374Y014091
X115374Y014091
X112374Y014091
X111374Y014091
T6C.043F139S55
X00185Y-007193
X00285Y-007193
X00285Y-006193
X00185Y-006193
T7C.049F139S55
X031209Y-020043
X114378Y-020043
T8C.052F107S55
X003945Y-016339
X003945Y-013583
X002567Y-012205
X002567Y-009449
T9C.07087F081S55
X002362Y-00226
X002362Y00226
T10C.07874F081S55
X00065Y-00315
X00065Y00315
T11C.11024F069S658
X098031Y-01435
X098031Y-000571
X098031Y013209
X117717Y013209
X117717Y-000571
X117717Y-01435
T12C.11811F069S658
X001969Y-019685
X022638Y012244
X001969Y019685
X062992Y0
X124016Y-019685
X124016Y019685
M30
