%
T1C.008F0S0
X53032Y41772
X52402Y41772
X52717Y41772
X53032Y42087
X52402Y42087
X52087Y42087
X52717Y42087
X52402Y42402
X52087Y42402
X53032Y42402
X52717Y42402
X52402Y42717
X52087Y42717
X53032Y42717
X52717Y42717
X52087Y43032
X52402Y43032
X52717Y43032
X53032Y43032
X53032Y43347
X52402Y43347
X52087Y43347
X52717Y43347
X52717Y43976
X52402Y43976
X53032Y43976
X53032Y44291
X52402Y44291
X52717Y44291
X53032Y44606
X52717Y44606
X52402Y44606
X51700Y44687
X53032Y44921
X52402Y44921
X52717Y44921
X52087Y44921
X51800Y44937
X53032Y45236
X52402Y45236
X52717Y45236
X53032Y66496
X52402Y66496
X52717Y66496
X53032Y66811
X52402Y66811
X52087Y66811
X52717Y66811
X52402Y67126
X52087Y67126
X53032Y67126
X52717Y67126
X52402Y67441
X52717Y67441
X52087Y67441
X53032Y67441
X52717Y67756
X53032Y67756
X52087Y67756
X52402Y67756
X53032Y68071
X52402Y68071
X52717Y68071
X52087Y68071
X53032Y68701
X52402Y68701
X52717Y68701
X53032Y69016
X52402Y69016
X52717Y69016
X52402Y69331
X53032Y69331
X52717Y69331
X51700Y69411
X53032Y69646
X52717Y69646
X52402Y69646
X52087Y69646
X51775Y69661
X53032Y69961
X52402Y69961
X52717Y69961
X54606Y69961
X53661Y69961
X54921Y69961
X54291Y69961
X53347Y69961
X55236Y69961
X55551Y69961
X54606Y69646
X53661Y69646
X53347Y69646
X54291Y69646
X54921Y69646
X55236Y69646
X55551Y69646
X54606Y69331
X53661Y69331
X53347Y69331
X54291Y69331
X54921Y69331
X55236Y69331
X55551Y69331
X54606Y69016
X53661Y69016
X54291Y69016
X53347Y69016
X54921Y69016
X55236Y69016
X55551Y69016
X54606Y68701
X53661Y68701
X54921Y68701
X53347Y68701
X54291Y68701
X55236Y68701
X55551Y68701
X54606Y68071
X53661Y68071
X54921Y68071
X54291Y68071
X53347Y68071
X55236Y68071
X55551Y68071
X54606Y67756
X53661Y67756
X54921Y67756
X54291Y67756
X53347Y67756
X55236Y67756
X55551Y67756
X54606Y67441
X53661Y67441
X54921Y67441
X54291Y67441
X53347Y67441
X55236Y67441
X55551Y67441
X54606Y67126
X53661Y67126
X53347Y67126
X54921Y67126
X54291Y67126
X55236Y67126
X55551Y67126
X54606Y66811
X53661Y66811
X54291Y66811
X53347Y66811
X54921Y66811
X55236Y66811
X55551Y66811
X53661Y66496
X54606Y66496
X53347Y66496
X54291Y66496
X54921Y66496
X55236Y66496
X55551Y66496
X54252Y60315
X54882Y60315
X54567Y60315
X53937Y60315
X55197Y60315
X54252Y60000
X54882Y60000
X54567Y60000
X53937Y60000
X53622Y60000
X55197Y60000
X54252Y59685
X54882Y59685
X54567Y59685
X53937Y59685
X53622Y59685
X55197Y59685
X54252Y59370
X54882Y59370
X54567Y59370
X53937Y59370
X53622Y59370
X55197Y59370
X54882Y59055
X54252Y59055
X53937Y59055
X54567Y59055
X53622Y59055
X55197Y59055
X54882Y58740
X54252Y58740
X53937Y58740
X54567Y58740
X53622Y58740
X55197Y58740
X54882Y58110
X54252Y58110
X53937Y58110
X53622Y58110
X54567Y58110
X55197Y58110
X54882Y57795
X54252Y57795
X53937Y57795
X54567Y57795
X55197Y57795
X54882Y57480
X54252Y57480
X53937Y57480
X54567Y57480
X55197Y57480
X53622Y57165
X54252Y57165
X54882Y57165
X53937Y57165
X54567Y57165
X55197Y57165
X54252Y56850
X54882Y56850
X54567Y56850
X53937Y56850
X53622Y56850
X55197Y56850
X53661Y45236
X53347Y45236
X54921Y45236
X55236Y45236
X54606Y45236
X54291Y45236
X55551Y45236
X53661Y44921
X53347Y44921
X55236Y44921
X54921Y44921
X55551Y44921
X54606Y44921
X54291Y44921
X53347Y44606
X55236Y44606
X54921Y44606
X54291Y44606
X55551Y44606
X53661Y44606
X54606Y44606
X55236Y44291
X54921Y44291
X54291Y44291
X55551Y44291
X53347Y44291
X53661Y44291
X54606Y44291
X54291Y43976
X55236Y43976
X53347Y43976
X54921Y43976
X55551Y43976
X54606Y43976
X53661Y43976
X53347Y43347
X55551Y43347
X54291Y43347
X55236Y43347
X54606Y43347
X54921Y43347
X53661Y43347
X55236Y43032
X54921Y43032
X55551Y43032
X54291Y43032
X53347Y43032
X54606Y43032
X53661Y43032
X54921Y42717
X55551Y42717
X53347Y42717
X54606Y42717
X55236Y42717
X54291Y42717
X53661Y42717
X55551Y42402
X53347Y42402
X53661Y42402
X54921Y42402
X54606Y42402
X55236Y42402
X54291Y42402
X55551Y42087
X54291Y42087
X54921Y42087
X55236Y42087
X53347Y42087
X53661Y42087
X54606Y42087
X55551Y41772
X53661Y41772
X55236Y41772
X53347Y41772
X54606Y41772
X54291Y41772
X54921Y41772
X55197Y35591
X54567Y35591
X53937Y35591
X54882Y35591
X54252Y35591
X55197Y35276
X53937Y35276
X54567Y35276
X54252Y35276
X54882Y35276
X53622Y35276
X53622Y34961
X53937Y34961
X55197Y34961
X54882Y34961
X54252Y34961
X54567Y34961
X53622Y34646
X54252Y34646
X54882Y34646
X55197Y34646
X54567Y34646
X53937Y34646
X55197Y34331
X53622Y34331
X53937Y34331
X54567Y34331
X54252Y34331
X54882Y34331
X54882Y34016
X53622Y34016
X55197Y34016
X54252Y34016
X54567Y34016
X53937Y34016
X53622Y33386
X54567Y33386
X54252Y33386
X53937Y33386
X55197Y33386
X54882Y33386
X54567Y33071
X54882Y33071
X54252Y33071
X55197Y33071
X53937Y33071
X53937Y32756
X55197Y32756
X54882Y32756
X54567Y32756
X54252Y32756
X54567Y32441
X54882Y32441
X53937Y32441
X55197Y32441
X54252Y32441
X53622Y32441
X55197Y32126
X53937Y32126
X54252Y32126
X54882Y32126
X53622Y32126
X54567Y32126
X55827Y32126
X56457Y32126
X57087Y32126
X56772Y32126
X56142Y32126
X57725Y32437
X57087Y32441
X56457Y32441
X56142Y32441
X56772Y32441
X55827Y32441
X57402Y32441
X57825Y32687
X55827Y32756
X57087Y32756
X56457Y32756
X56142Y32756
X56772Y32756
X56457Y33071
X57087Y33071
X55827Y33071
X56142Y33071
X56772Y33071
X55827Y33386
X56457Y33386
X57087Y33386
X56142Y33386
X56772Y33386
X57402Y34016
X57087Y34016
X56772Y34016
X56142Y34016
X56457Y34016
X55827Y34016
X56457Y34331
X57087Y34331
X55827Y34331
X56142Y34331
X56772Y34331
X57402Y34331
X56457Y34646
X55827Y34646
X56142Y34646
X57087Y34646
X56772Y34646
X57402Y34646
X55827Y34961
X56457Y34961
X56142Y34961
X57087Y34961
X56772Y34961
X57402Y34961
X55827Y35276
X56457Y35276
X56142Y35276
X57402Y35276
X56772Y35276
X57087Y35276
X56142Y35591
X57087Y35591
X56457Y35591
X55827Y35591
X56772Y35591
X55866Y42087
X55866Y42402
X55866Y42717
X55866Y43032
X55866Y43347
X55866Y43976
X55866Y44921
X55866Y45236
X57087Y56850
X55827Y56850
X56457Y56850
X56772Y56850
X56142Y56850
X57725Y57161
X55827Y57165
X56457Y57165
X57087Y57165
X56142Y57165
X56772Y57165
X57402Y57165
X57825Y57411
X57087Y57480
X56142Y57480
X56772Y57480
X56457Y57480
X55827Y57480
X57087Y57795
X56142Y57795
X56772Y57795
X55827Y57795
X56457Y57795
X56142Y58110
X57087Y58110
X56772Y58110
X55827Y58110
X56457Y58110
X55827Y58740
X57402Y58740
X56772Y58740
X57087Y58740
X56142Y58740
X56457Y58740
X56142Y59055
X56772Y59055
X56457Y59055
X55827Y59055
X57402Y59055
X57087Y59055
X56772Y59370
X57087Y59370
X56457Y59370
X56142Y59370
X55827Y59370
X57402Y59370
X56772Y59685
X56457Y59685
X57087Y59685
X56142Y59685
X57402Y59685
X55827Y59685
X56772Y60000
X56457Y60000
X55827Y60000
X56142Y60000
X57087Y60000
X57402Y60000
X56142Y60315
X57087Y60315
X56772Y60315
X56457Y60315
X55827Y60315
X55866Y66811
X55866Y67126
X55866Y67441
X55866Y67756
X55866Y68071
X55866Y68701
X55866Y69646
X55866Y69961
X60276Y69961
X60591Y69961
X59649Y69661
X60276Y69646
X60591Y69646
X59961Y69646
X59574Y69411
X60276Y69331
X60591Y69331
X60276Y69016
X60591Y69016
X60276Y68701
X60591Y68701
X59961Y68071
X60276Y68071
X60591Y68071
X60276Y67756
X59961Y67756
X60591Y67756
X60276Y67441
X59961Y67441
X60591Y67441
X60276Y67126
X59961Y67126
X60591Y67126
X60276Y66811
X59961Y66811
X60591Y66811
X60276Y66496
X60591Y66496
X60276Y45236
X60591Y45236
X59649Y44937
X60591Y44921
X60276Y44921
X59961Y44921
X59574Y44687
X60591Y44606
X60276Y44606
X60591Y44291
X60276Y44291
X60591Y43976
X60276Y43976
X60591Y43347
X59961Y43347
X60276Y43347
X60591Y43032
X59961Y43032
X60276Y43032
X59961Y42717
X60591Y42717
X60276Y42717
X60276Y42402
X59961Y42402
X60591Y42402
X59961Y42087
X60591Y42087
X60276Y42087
X60591Y41772
X60276Y41772
X62126Y32126
X62756Y32126
X62441Y32126
X63071Y32126
X61811Y32126
X61496Y32126
X62126Y32441
X62441Y32441
X63071Y32441
X62756Y32441
X61811Y32441
X61496Y32441
X62756Y32756
X62126Y32756
X62441Y32756
X63071Y32756
X61811Y32756
X62756Y33071
X62126Y33071
X62441Y33071
X63071Y33071
X61811Y33071
X62756Y33386
X62126Y33386
X61811Y33386
X62441Y33386
X63071Y33386
X61496Y33386
X62756Y34016
X62126Y34016
X61811Y34016
X62441Y34016
X63071Y34016
X61496Y34016
X62756Y34331
X62126Y34331
X63071Y34331
X61811Y34331
X62441Y34331
X61496Y34331
X62126Y34646
X62756Y34646
X62441Y34646
X63071Y34646
X61811Y34646
X61496Y34646
X62756Y34961
X62126Y34961
X62441Y34961
X63071Y34961
X61811Y34961
X61496Y34961
X62756Y35276
X62126Y35276
X63071Y35276
X62441Y35276
X61811Y35276
X61496Y35276
X62126Y35591
X62756Y35591
X62441Y35591
X63071Y35591
X61811Y35591
X62165Y41772
X62795Y41772
X60906Y41772
X63110Y41772
X61221Y41772
X61535Y41772
X62480Y41772
X61221Y42087
X63110Y42087
X62795Y42087
X61535Y42087
X62165Y42087
X60906Y42087
X62480Y42087
X61221Y42402
X62480Y42402
X60906Y42402
X61535Y42402
X63110Y42402
X62795Y42402
X62165Y42402
X62165Y42717
X63110Y42717
X61535Y42717
X60906Y42717
X62480Y42717
X62795Y42717
X61221Y42717
X61535Y43032
X62165Y43032
X63110Y43032
X60906Y43032
X62795Y43032
X62480Y43032
X61221Y43032
X61535Y43347
X62480Y43347
X62795Y43347
X61221Y43347
X63110Y43347
X60906Y43347
X62165Y43347
X62165Y43976
X62480Y43976
X60906Y43976
X61535Y43976
X63110Y43976
X62795Y43976
X61221Y43976
X61221Y44291
X62165Y44291
X62480Y44291
X60906Y44291
X61535Y44291
X62795Y44291
X63110Y44291
X61535Y44606
X63110Y44606
X62795Y44606
X62165Y44606
X62480Y44606
X61221Y44606
X60906Y44606
X62480Y44921
X63110Y44921
X62795Y44921
X62165Y44921
X61535Y44921
X60906Y44921
X61221Y44921
X62165Y45236
X61221Y45236
X61535Y45236
X60906Y45236
X63110Y45236
X62480Y45236
X62795Y45236
X63071Y56850
X61811Y56850
X61496Y56850
X62126Y56850
X62756Y56850
X62441Y56850
X61811Y57165
X62441Y57165
X63071Y57165
X62126Y57165
X62756Y57165
X61496Y57165
X62126Y57480
X62756Y57480
X63071Y57480
X61811Y57480
X62441Y57480
X62126Y57795
X62441Y57795
X61811Y57795
X62756Y57795
X63071Y57795
X62441Y58110
X63071Y58110
X61811Y58110
X61496Y58110
X62756Y58110
X62126Y58110
X62441Y58740
X63071Y58740
X61496Y58740
X62126Y58740
X61811Y58740
X62756Y58740
X61811Y59055
X62441Y59055
X63071Y59055
X61496Y59055
X62756Y59055
X62126Y59055
X62441Y59370
X63071Y59370
X62126Y59370
X62756Y59370
X61496Y59370
X61811Y59370
X62126Y59685
X61811Y59685
X63071Y59685
X62756Y59685
X61496Y59685
X62441Y59685
X63071Y60000
X62756Y60000
X62126Y60000
X61811Y60000
X62441Y60000
X61496Y60000
X61811Y60315
X62126Y60315
X62441Y60315
X62756Y60315
X63071Y60315
X60906Y66496
X62480Y66496
X61221Y66496
X62165Y66496
X62795Y66496
X63110Y66496
X61535Y66496
X62165Y66811
X61221Y66811
X63110Y66811
X61535Y66811
X60906Y66811
X62795Y66811
X62480Y66811
X61221Y67126
X62795Y67126
X62165Y67126
X62480Y67126
X63110Y67126
X61535Y67126
X60906Y67126
X62165Y67441
X62795Y67441
X60906Y67441
X63110Y67441
X61535Y67441
X61221Y67441
X62480Y67441
X62795Y67756
X63110Y67756
X62165Y67756
X61535Y67756
X62480Y67756
X60906Y67756
X61221Y67756
X62165Y68071
X62480Y68071
X61535Y68071
X63110Y68071
X61221Y68071
X62795Y68071
X60906Y68071
X62480Y68701
X60906Y68701
X61535Y68701
X63110Y68701
X62795Y68701
X61221Y68701
X62165Y68701
X62480Y69016
X63110Y69016
X61535Y69016
X60906Y69016
X62165Y69016
X61221Y69016
X62795Y69016
X63110Y69331
X60906Y69331
X62480Y69331
X61221Y69331
X61535Y69331
X62165Y69331
X62795Y69331
X62480Y69646
X61221Y69646
X60906Y69646
X61535Y69646
X62165Y69646
X63110Y69646
X62795Y69646
X61535Y69961
X62795Y69961
X62165Y69961
X61221Y69961
X63110Y69961
X62480Y69961
X60906Y69961
X63425Y69961
X63740Y69961
X63740Y69646
X63425Y69646
X63425Y69331
X63425Y69016
X63425Y68701
X63740Y68701
X63425Y68071
X63740Y68071
X63740Y67756
X63425Y67756
X63740Y67441
X63425Y67441
X63425Y67126
X63740Y67126
X63740Y66811
X63425Y66811
X63425Y66496
X63701Y60315
X64331Y60315
X64961Y60315
X64646Y60315
X64016Y60315
X63701Y60000
X64331Y60000
X64961Y60000
X65276Y60000
X64016Y60000
X64646Y60000
X63701Y59685
X64331Y59685
X65276Y59685
X64961Y59685
X64016Y59685
X64646Y59685
X63701Y59370
X64331Y59370
X65276Y59370
X64961Y59370
X64016Y59370
X64646Y59370
X63701Y59055
X64331Y59055
X65276Y59055
X64961Y59055
X64016Y59055
X64646Y59055
X64331Y58740
X63701Y58740
X65276Y58740
X64961Y58740
X64646Y58740
X64016Y58740
X63701Y58110
X64331Y58110
X64961Y58110
X64016Y58110
X64646Y58110
X63701Y57795
X64331Y57795
X64961Y57795
X64016Y57795
X64646Y57795
X64331Y57480
X64961Y57480
X63701Y57480
X64016Y57480
X64646Y57480
X65699Y57411
X64961Y57165
X64331Y57165
X63701Y57165
X64016Y57165
X64646Y57165
X65276Y57165
X65599Y57161
X63701Y56850
X64961Y56850
X64331Y56850
X64646Y56850
X64016Y56850
X63425Y45236
X63740Y45236
X63425Y44921
X63740Y44921
X63425Y44606
X63425Y44291
X63740Y43976
X63425Y43976
X63425Y43347
X63740Y43347
X63425Y43032
X63740Y43032
X63425Y42717
X63740Y42717
X63740Y42402
X63425Y42402
X63740Y42087
X63425Y42087
X63425Y41772
X64646Y35591
X64016Y35591
X63701Y35591
X64331Y35591
X64961Y35591
X64016Y35276
X64646Y35276
X63701Y35276
X64331Y35276
X65276Y35276
X64961Y35276
X64016Y34961
X64961Y34961
X63701Y34961
X64331Y34961
X64646Y34961
X65276Y34961
X64961Y34646
X63701Y34646
X64016Y34646
X64331Y34646
X64646Y34646
X65276Y34646
X64016Y34331
X64961Y34331
X64646Y34331
X63701Y34331
X64331Y34331
X65276Y34331
X64961Y34016
X64016Y34016
X64646Y34016
X64331Y34016
X63701Y34016
X65276Y34016
X64016Y33386
X64961Y33386
X63701Y33386
X64331Y33386
X64646Y33386
X64646Y33071
X63701Y33071
X64961Y33071
X64331Y33071
X64016Y33071
X64961Y32756
X63701Y32756
X64331Y32756
X64646Y32756
X64016Y32756
X65699Y32687
X64016Y32441
X64961Y32441
X64646Y32441
X64331Y32441
X63701Y32441
X65276Y32441
X65599Y32437
X64646Y32126
X64016Y32126
X64331Y32126
X64961Y32126
X63701Y32126
X68150Y41772
X68150Y42087
X67835Y42087
X68150Y42402
X67835Y42402
X68150Y42717
X67835Y42717
X67835Y43032
X68150Y43032
X67835Y43347
X68150Y43347
X68150Y43976
X68150Y44291
X68150Y44606
X67448Y44687
X68150Y44921
X67835Y44921
X67523Y44937
X68150Y45236
X68150Y66496
X67835Y66811
X68150Y66811
X68150Y67126
X67835Y67126
X67835Y67441
X68150Y67441
X67835Y67756
X68150Y67756
X67835Y68071
X68150Y68071
X68150Y68701
X68150Y69016
X68150Y69331
X67448Y69411
X68150Y69646
X67835Y69646
X67523Y69661
X68150Y69961
X70354Y69961
X69409Y69961
X68780Y69961
X70669Y69961
X70039Y69961
X68465Y69961
X69095Y69961
X70354Y69646
X69409Y69646
X68780Y69646
X69095Y69646
X68465Y69646
X70039Y69646
X70669Y69646
X70354Y69331
X69409Y69331
X68780Y69331
X69095Y69331
X68465Y69331
X70039Y69331
X70669Y69331
X70354Y69016
X69409Y69016
X68780Y69016
X70039Y69016
X69095Y69016
X68465Y69016
X70669Y69016
X70354Y68701
X68780Y68701
X69409Y68701
X70669Y68701
X68465Y68701
X69095Y68701
X70039Y68701
X70354Y68071
X69409Y68071
X68780Y68071
X70669Y68071
X70039Y68071
X69095Y68071
X68465Y68071
X70354Y67756
X69409Y67756
X68780Y67756
X70669Y67756
X70039Y67756
X69095Y67756
X68465Y67756
X70354Y67441
X69409Y67441
X68780Y67441
X70669Y67441
X70039Y67441
X69095Y67441
X68465Y67441
X70354Y67126
X68780Y67126
X69409Y67126
X69095Y67126
X68465Y67126
X70669Y67126
X70039Y67126
X69409Y66811
X68780Y66811
X70354Y66811
X70039Y66811
X69095Y66811
X68465Y66811
X70669Y66811
X69409Y66496
X68780Y66496
X70354Y66496
X68465Y66496
X69095Y66496
X70039Y66496
X70669Y66496
X70000Y60315
X70630Y60315
X69685Y60315
X70315Y60315
X70630Y60000
X70000Y60000
X69685Y60000
X70315Y60000
X69370Y60000
X70630Y59685
X70000Y59685
X69685Y59685
X70315Y59685
X69370Y59685
X70000Y59370
X70630Y59370
X69685Y59370
X70315Y59370
X69370Y59370
X70630Y59055
X70000Y59055
X69685Y59055
X70315Y59055
X69370Y59055
X70630Y58740
X70000Y58740
X69685Y58740
X70315Y58740
X69370Y58740
X70630Y58110
X70000Y58110
X69685Y58110
X70315Y58110
X69370Y58110
X70630Y57795
X70000Y57795
X70315Y57795
X69685Y57795
X70630Y57480
X70000Y57480
X70315Y57480
X69685Y57480
X69370Y57165
X70000Y57165
X70630Y57165
X69685Y57165
X70315Y57165
X70630Y56850
X70000Y56850
X70315Y56850
X69685Y56850
X69370Y56850
X70039Y45236
X70354Y45236
X68780Y45236
X69409Y45236
X68465Y45236
X69095Y45236
X70669Y45236
X70669Y44921
X70354Y44921
X70039Y44921
X69409Y44921
X68780Y44921
X69095Y44921
X68465Y44921
X70669Y44606
X70039Y44606
X69095Y44606
X68465Y44606
X69409Y44606
X70354Y44606
X68780Y44606
X70669Y44291
X69095Y44291
X68465Y44291
X70039Y44291
X68780Y44291
X70354Y44291
X69409Y44291
X68465Y43976
X69095Y43976
X70354Y43976
X68780Y43976
X69409Y43976
X70039Y43976
X70669Y43976
X70039Y43347
X68465Y43347
X69095Y43347
X68780Y43347
X70669Y43347
X70354Y43347
X69409Y43347
X70039Y43032
X68465Y43032
X69095Y43032
X69409Y43032
X68780Y43032
X70669Y43032
X70354Y43032
X70039Y42717
X68465Y42717
X69095Y42717
X70354Y42717
X70669Y42717
X68780Y42717
X69409Y42717
X70669Y42402
X70039Y42402
X68465Y42402
X70354Y42402
X69095Y42402
X68780Y42402
X69409Y42402
X70039Y42087
X69095Y42087
X70669Y42087
X70354Y42087
X69409Y42087
X68465Y42087
X68780Y42087
X69095Y41772
X70039Y41772
X68465Y41772
X70669Y41772
X68780Y41772
X70354Y41772
X69409Y41772
X70630Y35591
X70000Y35591
X69685Y35591
X70315Y35591
X70000Y35276
X69370Y35276
X70315Y35276
X70630Y35276
X69685Y35276
X70315Y34961
X70000Y34961
X70630Y34961
X69370Y34961
X69685Y34961
X70630Y34646
X69370Y34646
X70315Y34646
X69685Y34646
X70000Y34646
X70315Y34331
X69685Y34331
X69370Y34331
X70000Y34331
X70630Y34331
X70315Y34016
X70000Y34016
X70630Y34016
X69685Y34016
X69370Y34016
X69685Y33386
X69370Y33386
X70000Y33386
X70630Y33386
X70315Y33386
X69685Y33071
X70630Y33071
X70315Y33071
X70000Y33071
X69685Y32756
X70315Y32756
X70630Y32756
X70000Y32756
X70630Y32441
X69685Y32441
X69370Y32441
X70000Y32441
X70315Y32441
X70000Y32126
X70630Y32126
X69685Y32126
X69370Y32126
X70315Y32126
X70945Y32126
X71575Y32126
X72205Y32126
X72835Y32126
X72520Y32126
X71890Y32126
X70945Y32441
X72835Y32441
X72205Y32441
X71575Y32441
X71890Y32441
X72520Y32441
X73150Y32441
X70945Y32756
X71575Y32756
X72835Y32756
X72205Y32756
X71890Y32756
X72520Y32756
X72205Y33071
X72835Y33071
X70945Y33071
X71575Y33071
X71890Y33071
X72520Y33071
X71575Y33386
X72205Y33386
X70945Y33386
X72835Y33386
X71890Y33386
X72520Y33386
X73150Y34016
X72835Y34016
X70945Y34016
X72205Y34016
X72520Y34016
X71890Y34016
X71575Y34016
X73150Y34331
X72835Y34331
X72205Y34331
X70945Y34331
X71575Y34331
X71890Y34331
X72520Y34331
X73150Y34646
X72205Y34646
X70945Y34646
X71575Y34646
X71890Y34646
X72835Y34646
X72520Y34646
X72205Y34961
X71575Y34961
X73150Y34961
X71890Y34961
X70945Y34961
X72835Y34961
X72520Y34961
X72205Y35276
X70945Y35276
X71890Y35276
X72835Y35276
X71575Y35276
X73150Y35276
X72520Y35276
X70945Y35591
X72205Y35591
X71890Y35591
X72520Y35591
X71575Y35591
X72835Y35591
X70984Y41772
X71299Y41772
X71299Y42087
X70984Y42087
X71614Y42087
X70984Y42402
X71614Y42402
X71299Y42402
X70984Y42717
X71614Y42717
X71299Y42717
X70984Y43032
X71614Y43032
X71299Y43032
X70984Y43347
X71614Y43347
X71299Y43347
X70984Y43976
X71614Y43976
X71299Y43976
X71299Y44291
X70984Y44291
X70984Y44606
X71299Y44606
X70984Y44921
X71614Y44921
X71299Y44921
X70984Y45236
X71299Y45236
X71614Y45236
X72835Y56850
X72520Y56850
X71890Y56850
X70945Y56850
X71575Y56850
X72205Y56850
X71575Y57165
X72205Y57165
X72835Y57165
X71890Y57165
X72520Y57165
X73150Y57165
X70945Y57165
X71890Y57480
X72520Y57480
X72835Y57480
X70945Y57480
X72205Y57480
X71575Y57480
X71890Y57795
X72520Y57795
X72835Y57795
X71575Y57795
X70945Y57795
X72205Y57795
X71890Y58110
X72835Y58110
X72520Y58110
X70945Y58110
X72205Y58110
X71575Y58110
X72520Y58740
X71890Y58740
X72205Y58740
X70945Y58740
X73150Y58740
X72835Y58740
X71575Y58740
X72835Y59055
X70945Y59055
X71575Y59055
X72205Y59055
X71890Y59055
X73150Y59055
X72520Y59055
X72520Y59370
X71890Y59370
X73150Y59370
X72835Y59370
X71575Y59370
X72205Y59370
X70945Y59370
X72835Y59685
X71575Y59685
X72520Y59685
X73150Y59685
X71890Y59685
X70945Y59685
X72205Y59685
X72835Y60000
X72205Y60000
X72520Y60000
X71575Y60000
X71890Y60000
X73150Y60000
X70945Y60000
X72205Y60315
X72835Y60315
X71575Y60315
X72520Y60315
X71890Y60315
X70945Y60315
X71299Y66496
X70984Y66496
X70984Y66811
X71614Y66811
X71299Y66811
X70984Y67126
X71299Y67126
X71614Y67126
X71299Y67441
X71614Y67441
X70984Y67441
X71299Y67756
X70984Y67756
X71614Y67756
X70984Y68071
X71299Y68071
X71614Y68071
X70984Y68701
X71299Y68701
X71614Y68701
X70984Y69016
X71299Y69016
X71299Y69331
X70984Y69331
X71299Y69646
X71614Y69646
X70984Y69646
X71299Y69961
X70984Y69961
X71614Y69961
X78228Y69961
X76654Y69961
X77284Y69961
X76024Y69961
X77913Y69961
X76339Y69961
X76969Y69961
X75397Y69661
X75709Y69646
X78228Y69646
X77284Y69646
X76654Y69646
X76024Y69646
X76969Y69646
X76339Y69646
X77913Y69646
X75322Y69411
X78228Y69331
X77284Y69331
X76654Y69331
X76024Y69331
X76969Y69331
X76339Y69331
X77913Y69331
X78228Y69016
X77284Y69016
X76654Y69016
X76024Y69016
X77913Y69016
X76969Y69016
X76339Y69016
X78228Y68701
X76654Y68701
X77284Y68701
X76024Y68701
X76339Y68701
X76969Y68701
X77913Y68701
X78228Y68071
X77284Y68071
X76654Y68071
X76024Y68071
X77913Y68071
X76969Y68071
X76339Y68071
X75709Y68071
X78228Y67756
X77284Y67756
X76654Y67756
X76024Y67756
X77913Y67756
X76969Y67756
X76339Y67756
X75709Y67756
X78228Y67441
X77284Y67441
X76654Y67441
X76024Y67441
X77913Y67441
X76969Y67441
X76339Y67441
X75709Y67441
X78228Y67126
X77284Y67126
X76654Y67126
X76024Y67126
X76969Y67126
X76339Y67126
X77913Y67126
X75709Y67126
X78228Y66811
X77284Y66811
X76654Y66811
X76024Y66811
X77913Y66811
X76969Y66811
X76339Y66811
X75709Y66811
X77284Y66496
X76654Y66496
X76024Y66496
X78228Y66496
X76339Y66496
X76969Y66496
X77913Y66496
X77874Y60315
X78189Y60315
X77559Y60315
X77874Y60000
X78189Y60000
X77559Y60000
X77244Y60000
X77874Y59685
X78189Y59685
X77559Y59685
X77244Y59685
X77874Y59370
X78189Y59370
X77559Y59370
X77244Y59370
X77874Y59055
X77559Y59055
X78189Y59055
X77244Y59055
X77874Y58740
X77559Y58740
X78189Y58740
X77244Y58740
X77874Y58110
X77559Y58110
X77244Y58110
X78189Y58110
X77874Y57795
X77559Y57795
X78189Y57795
X77874Y57480
X77559Y57480
X78189Y57480
X73573Y57411
X77874Y57165
X77244Y57165
X78189Y57165
X77559Y57165
X73473Y57161
X78189Y56850
X77874Y56850
X77559Y56850
X77244Y56850
X77913Y45236
X76339Y45236
X76969Y45236
X77284Y45236
X76654Y45236
X76024Y45236
X78228Y45236
X75397Y44937
X77913Y44921
X76969Y44921
X76339Y44921
X78228Y44921
X75709Y44921
X77284Y44921
X76654Y44921
X76024Y44921
X75322Y44687
X77913Y44606
X76969Y44606
X76024Y44606
X77284Y44606
X76654Y44606
X76339Y44606
X78228Y44606
X76969Y44291
X76024Y44291
X77284Y44291
X77913Y44291
X76339Y44291
X76654Y44291
X78228Y44291
X77913Y43976
X76024Y43976
X76969Y43976
X78228Y43976
X76339Y43976
X76654Y43976
X77284Y43976
X76654Y43347
X76969Y43347
X76024Y43347
X77284Y43347
X77913Y43347
X75709Y43347
X78228Y43347
X76339Y43347
X77284Y43032
X76654Y43032
X76969Y43032
X76024Y43032
X77913Y43032
X76339Y43032
X78228Y43032
X75709Y43032
X78228Y42717
X76654Y42717
X77284Y42717
X76024Y42717
X76969Y42717
X77913Y42717
X76339Y42717
X75709Y42717
X76654Y42402
X78228Y42402
X76024Y42402
X77913Y42402
X76339Y42402
X76969Y42402
X75709Y42402
X77284Y42402
X76024Y42087
X78228Y42087
X77913Y42087
X76654Y42087
X76969Y42087
X75709Y42087
X76339Y42087
X77284Y42087
X76339Y41772
X78228Y41772
X76969Y41772
X77913Y41772
X76024Y41772
X77284Y41772
X76654Y41772
X77559Y35591
X78189Y35591
X77874Y35591
X77874Y35276
X77244Y35276
X78189Y35276
X77559Y35276
X77874Y34961
X77244Y34961
X78189Y34961
X77559Y34961
X78189Y34646
X77559Y34646
X77244Y34646
X77874Y34646
X77244Y34331
X77874Y34331
X77559Y34331
X78189Y34331
X77559Y34016
X77874Y34016
X78189Y34016
X77244Y34016
X77874Y33386
X77244Y33386
X77559Y33386
X78189Y33386
X77874Y33071
X78189Y33071
X77559Y33071
X77874Y32756
X77559Y32756
X78189Y32756
X73573Y32687
X77874Y32441
X78189Y32441
X77244Y32441
X77559Y32441
X73473Y32437
X77874Y32126
X77559Y32126
X77244Y32126
X78189Y32126
X78504Y32126
X78819Y32126
X79449Y32126
X80079Y32126
X80709Y32126
X80394Y32126
X79764Y32126
X78504Y32441
X78819Y32441
X79449Y32441
X80079Y32441
X80709Y32441
X79764Y32441
X80394Y32441
X80394Y32756
X78504Y32756
X78819Y32756
X79449Y32756
X80079Y32756
X80709Y32756
X79764Y32756
X80394Y33071
X78504Y33071
X78819Y33071
X79449Y33071
X80079Y33071
X80709Y33071
X79764Y33071
X78504Y33386
X80394Y33386
X78819Y33386
X79449Y33386
X80079Y33386
X80709Y33386
X79764Y33386
X78819Y34016
X78504Y34016
X80079Y34016
X80394Y34016
X79764Y34016
X79449Y34016
X80709Y34016
X78819Y34331
X80394Y34331
X79764Y34331
X80079Y34331
X78504Y34331
X79449Y34331
X80709Y34331
X78819Y34646
X79449Y34646
X80079Y34646
X80394Y34646
X79764Y34646
X80709Y34646
X78504Y34646
X78819Y34961
X80079Y34961
X78504Y34961
X80394Y34961
X79449Y34961
X79764Y34961
X80709Y34961
X80079Y35276
X78819Y35276
X78504Y35276
X79449Y35276
X80394Y35276
X80709Y35276
X79764Y35276
X78504Y35591
X78819Y35591
X79764Y35591
X80079Y35591
X80709Y35591
X80394Y35591
X79449Y35591
X78858Y41772
X78543Y41772
X79173Y41772
X78543Y42087
X78858Y42087
X79488Y42087
X79173Y42087
X78858Y42402
X79488Y42402
X79173Y42402
X78543Y42402
X78543Y42717
X78858Y42717
X79173Y42717
X79488Y42717
X78543Y43032
X79488Y43032
X78858Y43032
X79173Y43032
X79488Y43347
X79173Y43347
X78543Y43347
X78858Y43347
X79488Y43976
X78858Y43976
X78543Y43976
X79173Y43976
X79173Y44291
X78858Y44291
X78543Y44291
X79173Y44606
X78543Y44606
X78858Y44606
X78543Y44921
X79488Y44921
X79173Y44921
X78858Y44921
X78543Y45236
X79173Y45236
X79488Y45236
X78858Y45236
X80709Y56850
X80394Y56850
X79764Y56850
X78819Y56850
X79449Y56850
X80079Y56850
X78504Y56850
X79449Y57165
X80079Y57165
X80709Y57165
X79764Y57165
X80394Y57165
X78819Y57165
X78504Y57165
X79764Y57480
X80709Y57480
X80394Y57480
X78504Y57480
X78819Y57480
X79449Y57480
X80079Y57480
X79764Y57795
X80394Y57795
X78504Y57795
X78819Y57795
X80079Y57795
X79449Y57795
X80709Y57795
X80394Y58110
X78819Y58110
X79764Y58110
X80709Y58110
X80079Y58110
X78504Y58110
X79449Y58110
X80394Y58740
X80709Y58740
X79764Y58740
X78504Y58740
X80079Y58740
X78819Y58740
X79449Y58740
X78504Y59055
X79764Y59055
X80394Y59055
X80079Y59055
X78819Y59055
X80709Y59055
X79449Y59055
X78504Y59370
X79764Y59370
X78819Y59370
X80394Y59370
X80079Y59370
X80709Y59370
X79449Y59370
X79449Y59685
X80394Y59685
X80709Y59685
X79764Y59685
X78819Y59685
X80079Y59685
X78504Y59685
X80709Y60000
X79764Y60000
X79449Y60000
X78819Y60000
X80079Y60000
X80394Y60000
X78504Y60000
X79764Y60315
X78504Y60315
X80394Y60315
X79449Y60315
X78819Y60315
X80079Y60315
X80709Y60315
X79173Y66496
X78543Y66496
X78858Y66496
X79173Y66811
X79488Y66811
X78858Y66811
X78543Y66811
X78543Y67126
X78858Y67126
X79173Y67126
X79488Y67126
X79173Y67441
X78543Y67441
X78858Y67441
X79488Y67441
X78543Y67756
X79173Y67756
X78858Y67756
X79488Y67756
X79488Y68071
X78543Y68071
X78858Y68071
X79173Y68071
X78858Y68701
X78543Y68701
X79173Y68701
X79488Y68701
X78543Y69016
X79173Y69016
X78858Y69016
X78543Y69331
X78858Y69331
X79173Y69331
X79488Y69646
X78543Y69646
X79173Y69646
X78858Y69646
X78858Y69961
X79173Y69961
X78543Y69961
X79488Y69961
X85158Y69961
X84528Y69961
X83898Y69961
X84213Y69961
X84843Y69961
X83271Y69661
X85158Y69646
X84528Y69646
X83898Y69646
X84843Y69646
X84213Y69646
X83583Y69646
X83196Y69411
X85158Y69331
X84528Y69331
X83898Y69331
X84843Y69331
X84213Y69331
X85158Y69016
X84528Y69016
X83898Y69016
X84843Y69016
X84213Y69016
X84528Y68701
X85158Y68701
X83898Y68701
X84213Y68701
X84843Y68701
X85158Y68071
X84528Y68071
X83583Y68071
X83898Y68071
X84843Y68071
X84213Y68071
X85158Y67756
X84528Y67756
X83898Y67756
X83583Y67756
X84843Y67756
X84213Y67756
X85158Y67441
X84528Y67441
X83898Y67441
X83583Y67441
X84843Y67441
X84213Y67441
X84528Y67126
X83898Y67126
X83583Y67126
X85158Y67126
X84843Y67126
X84213Y67126
X83583Y66811
X85158Y66811
X84528Y66811
X83898Y66811
X84843Y66811
X84213Y66811
X85158Y66496
X84528Y66496
X83898Y66496
X84213Y66496
X84843Y66496
X85748Y60315
X85433Y60315
X85748Y60000
X85433Y60000
X85118Y60000
X81024Y60000
X85748Y59685
X85433Y59685
X85118Y59685
X81024Y59685
X85433Y59370
X85118Y59370
X81024Y59370
X85748Y59370
X85433Y59055
X85748Y59055
X85118Y59055
X81024Y59055
X85433Y58740
X85118Y58740
X85748Y58740
X81024Y58740
X85433Y58110
X85118Y58110
X85748Y58110
X85433Y57795
X85748Y57795
X85433Y57480
X85748Y57480
X81447Y57411
X85118Y57165
X85748Y57165
X85433Y57165
X81024Y57165
X81347Y57161
X85748Y56850
X85433Y56850
X85118Y56850
X84528Y45236
X85158Y45236
X83898Y45236
X84213Y45236
X84843Y45236
X83271Y44937
X85158Y44921
X84528Y44921
X83898Y44921
X84843Y44921
X84213Y44921
X83583Y44921
X83196Y44687
X85158Y44606
X84528Y44606
X83898Y44606
X84843Y44606
X84213Y44606
X85158Y44291
X84528Y44291
X83898Y44291
X84843Y44291
X84213Y44291
X84528Y43976
X85158Y43976
X84843Y43976
X83898Y43976
X84213Y43976
X84528Y43347
X83583Y43347
X85158Y43347
X84843Y43347
X84213Y43347
X83898Y43347
X85158Y43032
X84528Y43032
X84213Y43032
X84843Y43032
X83583Y43032
X83898Y43032
X85158Y42717
X84528Y42717
X84213Y42717
X84843Y42717
X83583Y42717
X83898Y42717
X85158Y42402
X84528Y42402
X83583Y42402
X84213Y42402
X83898Y42402
X84843Y42402
X84528Y42087
X83898Y42087
X85158Y42087
X84843Y42087
X84213Y42087
X83583Y42087
X84213Y41772
X84843Y41772
X85158Y41772
X83898Y41772
X84528Y41772
X85433Y35591
X85748Y35591
X85433Y35276
X81024Y35276
X85118Y35276
X85748Y35276
X85433Y34961
X85748Y34961
X81024Y34961
X85118Y34961
X85118Y34646
X85748Y34646
X81024Y34646
X85433Y34646
X81024Y34331
X85118Y34331
X85433Y34331
X85748Y34331
X85748Y34016
X85118Y34016
X85433Y34016
X81024Y34016
X85748Y33386
X85433Y33386
X85118Y33386
X85433Y33071
X85748Y33071
X85748Y32756
X85433Y32756
X81447Y32687
X81024Y32441
X85748Y32441
X85118Y32441
X85433Y32441
X81347Y32437
X85748Y32126
X85433Y32126
X85118Y32126
X86378Y32126
X86063Y32126
X86693Y32126
X87323Y32126
X87953Y32126
X87638Y32126
X86378Y32441
X86063Y32441
X86693Y32441
X87323Y32441
X87638Y32441
X87953Y32441
X86693Y32756
X86063Y32756
X86378Y32756
X87323Y32756
X87953Y32756
X87638Y32756
X86693Y33071
X86063Y33071
X86378Y33071
X87323Y33071
X87953Y33071
X87638Y33071
X86063Y33386
X86378Y33386
X87323Y33386
X87953Y33386
X86693Y33386
X87638Y33386
X87953Y34016
X86378Y34016
X86063Y34016
X87323Y34016
X86693Y34016
X87638Y34016
X86063Y34331
X86378Y34331
X86693Y34331
X87323Y34331
X87953Y34331
X87638Y34331
X86378Y34646
X87323Y34646
X87953Y34646
X86693Y34646
X86063Y34646
X87638Y34646
X86378Y34961
X86693Y34961
X87323Y34961
X87953Y34961
X86063Y34961
X87638Y34961
X86378Y35276
X86693Y35276
X86063Y35276
X87323Y35276
X87953Y35276
X87638Y35276
X86378Y35591
X86693Y35591
X86063Y35591
X87323Y35591
X87953Y35591
X87638Y35591
X86102Y41772
X85787Y41772
X86417Y41772
X87047Y41772
X86732Y41772
X86732Y42087
X86102Y42087
X85787Y42087
X86417Y42087
X87047Y42087
X87362Y42087
X86732Y42402
X86102Y42402
X87362Y42402
X86417Y42402
X85787Y42402
X87047Y42402
X86102Y42717
X86417Y42717
X85787Y42717
X86732Y42717
X87047Y42717
X87362Y42717
X86102Y43032
X87362Y43032
X86417Y43032
X85787Y43032
X86732Y43032
X87047Y43032
X87362Y43347
X87047Y43347
X86417Y43347
X85787Y43347
X86102Y43347
X86732Y43347
X87047Y43976
X86417Y43976
X85787Y43976
X87362Y43976
X86102Y43976
X86732Y43976
X85787Y44291
X86102Y44291
X86732Y44291
X87047Y44291
X86417Y44291
X86102Y44606
X87047Y44606
X86417Y44606
X85787Y44606
X86732Y44606
X86102Y44921
X86732Y44921
X87047Y44921
X86417Y44921
X85787Y44921
X87362Y44921
X86732Y45236
X86102Y45236
X86417Y45236
X87047Y45236
X85787Y45236
X87362Y45236
X86693Y56850
X87638Y56850
X87323Y56850
X87953Y56850
X86378Y56850
X86063Y56850
X87323Y57165
X87638Y57165
X86063Y57165
X87953Y57165
X86693Y57165
X86378Y57165
X87323Y57480
X87953Y57480
X86063Y57480
X87638Y57480
X86378Y57480
X86693Y57480
X87323Y57795
X86693Y57795
X86378Y57795
X87638Y57795
X87953Y57795
X86063Y57795
X87323Y58110
X86693Y58110
X87953Y58110
X86378Y58110
X86063Y58110
X87638Y58110
X87638Y58740
X86378Y58740
X86693Y58740
X87953Y58740
X87323Y58740
X86063Y58740
X87323Y59055
X86378Y59055
X87953Y59055
X86063Y59055
X87638Y59055
X86693Y59055
X86063Y59370
X86693Y59370
X87953Y59370
X87638Y59370
X87323Y59370
X86378Y59370
X87953Y59685
X86063Y59685
X87638Y59685
X87323Y59685
X86378Y59685
X86693Y59685
X87638Y60000
X87323Y60000
X86063Y60000
X86378Y60000
X87953Y60000
X86693Y60000
X86063Y60315
X86693Y60315
X87953Y60315
X87323Y60315
X87638Y60315
X86378Y60315
X87047Y66496
X86102Y66496
X86732Y66496
X85787Y66496
X86417Y66496
X87362Y66811
X87047Y66811
X86417Y66811
X86732Y66811
X85787Y66811
X86102Y66811
X86417Y67126
X86732Y67126
X85787Y67126
X87362Y67126
X86102Y67126
X87047Y67126
X86732Y67441
X87047Y67441
X85787Y67441
X86417Y67441
X87362Y67441
X86102Y67441
X86102Y67756
X87047Y67756
X87362Y67756
X86732Y67756
X86417Y67756
X85787Y67756
X86732Y68071
X87047Y68071
X86417Y68071
X87362Y68071
X85787Y68071
X86102Y68071
X86732Y68701
X86102Y68701
X87047Y68701
X86417Y68701
X85787Y68701
X87362Y68701
X86732Y69016
X85787Y69016
X86102Y69016
X86417Y69016
X87047Y69016
X85787Y69331
X86417Y69331
X86102Y69331
X87047Y69331
X86732Y69331
X85787Y69646
X86417Y69646
X86102Y69646
X86732Y69646
X87047Y69646
X87362Y69646
X86102Y69961
X86417Y69961
X85787Y69961
X87047Y69961
X86732Y69961
X87362Y69961
X88583Y60315
X88268Y60315
X88583Y60000
X88898Y60000
X88268Y60000
X88898Y59685
X88583Y59685
X88268Y59685
X88583Y59370
X88268Y59370
X88898Y59370
X88898Y59055
X88268Y59055
X88583Y59055
X88268Y58740
X88898Y58740
X88583Y58740
X88583Y58110
X88268Y58110
X88583Y57795
X88268Y57795
X88583Y57480
X88268Y57480
X89321Y57411
X88268Y57165
X88583Y57165
X88898Y57165
X89221Y57161
X88583Y56850
X88268Y56850
X88583Y35591
X88268Y35591
X88583Y35276
X88898Y35276
X88268Y35276
X88898Y34961
X88583Y34961
X88268Y34961
X88898Y34646
X88583Y34646
X88268Y34646
X88583Y34331
X88268Y34331
X88898Y34331
X88268Y34016
X88583Y34016
X88898Y34016
X88268Y33386
X88583Y33386
X88583Y33071
X88268Y33071
X88268Y32756
X88583Y32756
X89321Y32687
X88898Y32441
X88268Y32441
X88583Y32441
X89221Y32437
X88268Y32126
X88583Y32126
X92992Y32126
X92992Y32441
X92992Y33386
X92992Y34016
X92992Y34331
X92992Y34646
X92992Y34961
X92992Y35276
X93032Y41772
X92402Y41772
X91772Y41772
X92087Y41772
X92717Y41772
X93032Y42087
X92402Y42087
X91772Y42087
X91457Y42087
X92717Y42087
X92087Y42087
X93032Y42402
X92717Y42402
X92087Y42402
X92402Y42402
X91457Y42402
X91772Y42402
X92402Y42717
X92717Y42717
X92087Y42717
X91457Y42717
X91772Y42717
X93032Y42717
X92717Y43032
X92087Y43032
X91772Y43032
X93032Y43032
X91457Y43032
X92402Y43032
X92087Y43347
X91457Y43347
X92402Y43347
X91772Y43347
X92717Y43347
X93032Y43347
X93032Y43976
X91772Y43976
X92717Y43976
X92402Y43976
X92087Y43976
X92087Y44291
X93032Y44291
X92402Y44291
X91772Y44291
X92717Y44291
X92402Y44606
X91772Y44606
X92717Y44606
X93032Y44606
X92087Y44606
X91070Y44687
X93032Y44921
X91772Y44921
X92717Y44921
X92087Y44921
X91457Y44921
X92402Y44921
X91145Y44937
X91772Y45236
X92402Y45236
X92087Y45236
X92717Y45236
X93032Y45236
X92992Y56850
X92992Y57165
X92992Y58110
X92992Y58740
X92992Y59055
X92992Y59370
X92992Y59685
X92992Y60000
X92087Y66496
X92717Y66496
X92402Y66496
X93032Y66496
X91772Y66496
X92402Y66811
X92717Y66811
X92087Y66811
X91772Y66811
X91457Y66811
X93032Y66811
X92717Y67126
X92402Y67126
X91772Y67126
X93032Y67126
X92087Y67126
X91457Y67126
X92087Y67441
X93032Y67441
X92402Y67441
X92717Y67441
X91772Y67441
X91457Y67441
X92087Y67756
X92717Y67756
X92402Y67756
X93032Y67756
X91772Y67756
X91457Y67756
X93032Y68071
X91457Y68071
X92717Y68071
X91772Y68071
X92087Y68071
X92402Y68071
X92402Y68701
X93032Y68701
X91772Y68701
X92087Y68701
X92717Y68701
X93032Y69016
X92402Y69016
X91772Y69016
X92717Y69016
X92087Y69016
X92402Y69331
X91772Y69331
X93032Y69331
X92717Y69331
X92087Y69331
X91070Y69411
X93032Y69646
X92717Y69646
X91772Y69646
X92087Y69646
X92402Y69646
X91457Y69646
X91145Y69661
X92087Y69961
X93032Y69961
X92402Y69961
X92717Y69961
X91772Y69961
X94606Y69961
X93976Y69961
X94291Y69961
X93661Y69961
X94921Y69961
X95236Y69961
X93976Y69646
X94606Y69646
X93661Y69646
X94291Y69646
X94921Y69646
X95236Y69646
X93976Y69331
X94606Y69331
X93661Y69331
X94291Y69331
X94921Y69331
X93976Y69016
X94606Y69016
X93661Y69016
X94291Y69016
X94921Y69016
X93976Y68701
X94606Y68701
X94921Y68701
X94291Y68701
X93661Y68701
X95236Y68701
X94606Y68071
X93976Y68071
X94921Y68071
X94291Y68071
X93661Y68071
X95236Y68071
X94606Y67756
X93976Y67756
X94921Y67756
X94291Y67756
X93661Y67756
X95236Y67756
X94606Y67441
X93976Y67441
X94921Y67441
X94291Y67441
X93661Y67441
X95236Y67441
X93976Y67126
X94606Y67126
X94291Y67126
X93661Y67126
X94921Y67126
X95236Y67126
X94606Y66811
X93976Y66811
X93661Y66811
X94291Y66811
X94921Y66811
X95236Y66811
X94606Y66496
X93976Y66496
X93661Y66496
X94291Y66496
X94921Y66496
X95197Y60315
X95512Y60315
X93937Y60315
X93622Y60315
X94252Y60315
X93307Y60315
X94567Y60315
X95512Y60000
X95197Y60000
X94567Y60000
X93307Y60000
X94252Y60000
X93622Y60000
X93937Y60000
X95512Y59685
X95197Y59685
X93307Y59685
X94252Y59685
X93622Y59685
X93937Y59685
X94567Y59685
X95197Y59370
X95512Y59370
X93307Y59370
X93937Y59370
X94567Y59370
X93622Y59370
X94252Y59370
X95197Y59055
X95512Y59055
X93937Y59055
X94252Y59055
X94567Y59055
X93307Y59055
X93622Y59055
X95512Y58740
X95197Y58740
X93622Y58740
X94252Y58740
X93307Y58740
X93937Y58740
X94567Y58740
X95512Y58110
X93937Y58110
X94567Y58110
X95197Y58110
X93307Y58110
X94252Y58110
X93622Y58110
X94567Y57795
X95197Y57795
X95512Y57795
X93937Y57795
X93622Y57795
X93307Y57795
X94252Y57795
X94567Y57480
X93937Y57480
X95197Y57480
X95512Y57480
X93622Y57480
X94252Y57480
X93307Y57480
X94567Y57165
X93937Y57165
X93307Y57165
X95512Y57165
X95197Y57165
X93622Y57165
X94252Y57165
X93937Y56850
X95197Y56850
X94567Y56850
X95512Y56850
X93307Y56850
X94252Y56850
X93622Y56850
X94606Y45236
X93976Y45236
X94291Y45236
X94921Y45236
X93661Y45236
X95236Y45236
X94921Y44921
X93976Y44921
X94291Y44921
X93661Y44921
X95236Y44921
X94606Y44921
X93976Y44606
X94921Y44606
X94291Y44606
X93661Y44606
X94606Y44606
X93976Y44291
X94921Y44291
X94606Y44291
X94291Y44291
X93661Y44291
X94606Y43976
X94291Y43976
X93976Y43976
X95236Y43976
X93661Y43976
X94921Y43976
X94606Y43347
X93661Y43347
X94921Y43347
X93976Y43347
X94291Y43347
X95236Y43347
X95236Y43032
X94606Y43032
X93661Y43032
X94921Y43032
X93976Y43032
X94291Y43032
X94606Y42717
X94921Y42717
X93976Y42717
X95236Y42717
X93661Y42717
X94291Y42717
X94921Y42402
X93661Y42402
X93976Y42402
X94606Y42402
X94291Y42402
X95236Y42402
X94921Y42087
X94606Y42087
X93661Y42087
X95236Y42087
X94291Y42087
X93976Y42087
X94606Y41772
X93661Y41772
X94921Y41772
X93976Y41772
X94291Y41772
X95512Y35591
X95197Y35591
X93622Y35591
X94252Y35591
X93937Y35591
X94567Y35591
X93307Y35591
X95512Y35276
X93622Y35276
X93307Y35276
X95197Y35276
X94567Y35276
X93937Y35276
X94252Y35276
X95512Y34961
X94567Y34961
X93622Y34961
X93307Y34961
X93937Y34961
X95197Y34961
X94252Y34961
X93622Y34646
X95512Y34646
X94252Y34646
X93307Y34646
X94567Y34646
X93937Y34646
X95197Y34646
X95512Y34331
X95197Y34331
X93622Y34331
X94567Y34331
X94252Y34331
X93307Y34331
X93937Y34331
X93307Y34016
X95197Y34016
X93937Y34016
X93622Y34016
X94567Y34016
X94252Y34016
X95512Y34016
X94567Y33386
X95197Y33386
X93307Y33386
X95512Y33386
X93622Y33386
X93937Y33386
X94252Y33386
X93937Y33071
X94567Y33071
X95512Y33071
X93307Y33071
X94252Y33071
X93622Y33071
X95197Y33071
X94252Y32756
X93622Y32756
X94567Y32756
X93307Y32756
X95197Y32756
X95512Y32756
X93937Y32756
X94567Y32441
X93307Y32441
X93937Y32441
X93622Y32441
X95197Y32441
X95512Y32441
X94252Y32441
X93307Y32126
X95512Y32126
X93937Y32126
X95197Y32126
X93622Y32126
X94567Y32126
X94252Y32126
X95827Y32126
X96457Y32126
X96142Y32126
X97095Y32437
X96457Y32441
X95827Y32441
X96142Y32441
X96772Y32441
X97195Y32687
X96457Y32756
X95827Y32756
X96142Y32756
X95827Y33071
X96457Y33071
X96142Y33071
X95827Y33386
X96457Y33386
X96142Y33386
X95827Y34016
X96772Y34016
X96457Y34016
X96142Y34016
X96772Y34331
X95827Y34331
X96457Y34331
X96142Y34331
X96772Y34646
X96457Y34646
X95827Y34646
X96142Y34646
X96772Y34961
X96457Y34961
X95827Y34961
X96142Y34961
X96457Y35276
X96772Y35276
X95827Y35276
X96142Y35276
X96457Y35591
X95827Y35591
X96142Y35591
X96457Y56850
X96142Y56850
X95827Y56850
X97095Y57161
X96142Y57165
X95827Y57165
X96457Y57165
X96772Y57165
X97195Y57411
X96457Y57480
X95827Y57480
X96142Y57480
X95827Y57795
X96457Y57795
X96142Y57795
X96142Y58110
X96457Y58110
X95827Y58110
X96457Y58740
X96142Y58740
X96772Y58740
X95827Y58740
X96457Y59055
X96772Y59055
X96142Y59055
X95827Y59055
X96142Y59370
X96772Y59370
X96457Y59370
X95827Y59370
X95827Y59685
X96142Y59685
X96457Y59685
X96772Y59685
X96457Y60000
X96142Y60000
X95827Y60000
X96772Y60000
X96142Y60315
X96457Y60315
X95827Y60315
X99961Y69961
X100591Y69961
X100276Y69961
X99646Y69961
X99019Y69661
X100591Y69646
X99961Y69646
X100276Y69646
X99646Y69646
X99331Y69646
X98944Y69411
X100591Y69331
X99961Y69331
X100276Y69331
X99646Y69331
X100591Y69016
X99961Y69016
X100276Y69016
X99646Y69016
X99961Y68701
X100591Y68701
X100276Y68701
X99646Y68701
X99961Y68071
X100276Y68071
X99331Y68071
X99646Y68071
X100591Y68071
X99961Y67756
X100276Y67756
X99646Y67756
X99331Y67756
X100591Y67756
X100276Y67441
X99961Y67441
X99646Y67441
X99331Y67441
X100591Y67441
X100276Y67126
X99646Y67126
X99961Y67126
X99331Y67126
X100591Y67126
X100276Y66811
X99646Y66811
X99331Y66811
X99961Y66811
X100591Y66811
X99961Y66496
X99646Y66496
X100591Y66496
X100276Y66496
X99646Y45236
X99961Y45236
X100591Y45236
X100276Y45236
X99019Y44937
X99646Y44921
X100591Y44921
X99961Y44921
X99331Y44921
X100276Y44921
X98944Y44687
X100276Y44606
X99646Y44606
X100591Y44606
X99961Y44606
X99646Y44291
X100276Y44291
X100591Y44291
X99961Y44291
X100276Y43976
X99961Y43976
X99646Y43976
X100591Y43976
X99646Y43347
X99961Y43347
X100591Y43347
X100276Y43347
X99331Y43347
X100591Y43032
X99331Y43032
X100276Y43032
X99646Y43032
X99961Y43032
X100591Y42717
X99646Y42717
X99331Y42717
X100276Y42717
X99961Y42717
X99646Y42402
X99961Y42402
X99331Y42402
X100276Y42402
X100591Y42402
X99331Y42087
X99961Y42087
X99646Y42087
X100276Y42087
X100591Y42087
X100591Y41772
X99646Y41772
X100276Y41772
X99961Y41772
X102441Y32126
X101181Y32126
X100866Y32126
X101496Y32126
X103071Y32126
X102126Y32126
X101811Y32126
X101811Y32441
X102441Y32441
X101181Y32441
X100866Y32441
X103071Y32441
X101496Y32441
X102126Y32441
X101181Y32756
X103071Y32756
X102126Y32756
X101496Y32756
X101811Y32756
X102441Y32756
X103071Y33071
X102126Y33071
X101496Y33071
X101181Y33071
X101811Y33071
X102441Y33071
X103071Y33386
X102126Y33386
X101496Y33386
X101181Y33386
X101811Y33386
X102441Y33386
X100866Y33386
X102126Y34016
X103071Y34016
X101496Y34016
X101181Y34016
X101811Y34016
X102441Y34016
X100866Y34016
X101181Y34331
X101811Y34331
X103071Y34331
X102126Y34331
X101496Y34331
X102441Y34331
X100866Y34331
X103071Y34646
X101496Y34646
X102126Y34646
X101181Y34646
X101811Y34646
X102441Y34646
X100866Y34646
X102441Y34961
X102126Y34961
X101496Y34961
X103071Y34961
X101181Y34961
X100866Y34961
X101811Y34961
X102126Y35276
X101496Y35276
X103071Y35276
X101181Y35276
X102441Y35276
X100866Y35276
X101811Y35276
X102441Y35591
X101496Y35591
X102126Y35591
X103071Y35591
X101181Y35591
X101811Y35591
X102480Y41772
X102165Y41772
X101535Y41772
X100906Y41772
X102795Y41772
X101850Y41772
X101535Y42087
X102795Y42087
X102165Y42087
X103110Y42087
X100906Y42087
X102480Y42087
X101850Y42087
X101850Y42402
X102795Y42402
X102165Y42402
X101535Y42402
X100906Y42402
X102480Y42402
X103110Y42402
X101850Y42717
X102165Y42717
X101535Y42717
X100906Y42717
X102795Y42717
X103110Y42717
X102480Y42717
X102165Y43032
X103110Y43032
X102480Y43032
X101535Y43032
X101850Y43032
X102795Y43032
X100906Y43032
X102480Y43347
X101850Y43347
X101535Y43347
X100906Y43347
X103110Y43347
X102795Y43347
X102165Y43347
X102480Y43976
X103110Y43976
X100906Y43976
X102795Y43976
X101850Y43976
X102165Y43976
X101535Y43976
X102795Y44291
X101850Y44291
X102480Y44291
X102165Y44291
X100906Y44291
X101535Y44291
X102795Y44606
X101850Y44606
X102480Y44606
X102165Y44606
X101535Y44606
X100906Y44606
X103110Y44921
X101850Y44921
X102480Y44921
X100906Y44921
X102795Y44921
X102165Y44921
X101535Y44921
X102480Y45236
X101850Y45236
X100906Y45236
X102165Y45236
X102795Y45236
X101535Y45236
X103110Y45236
X102441Y56850
X101811Y56850
X101496Y56850
X103071Y56850
X101181Y56850
X102126Y56850
X100866Y56850
X101496Y57165
X101181Y57165
X102126Y57165
X103071Y57165
X101811Y57165
X100866Y57165
X102441Y57165
X101496Y57480
X102126Y57480
X101181Y57480
X101811Y57480
X102441Y57480
X103071Y57480
X102441Y57795
X101811Y57795
X102126Y57795
X101181Y57795
X103071Y57795
X101496Y57795
X101811Y58110
X100866Y58110
X102126Y58110
X102441Y58110
X101181Y58110
X103071Y58110
X101496Y58110
X103071Y58740
X100866Y58740
X102126Y58740
X101181Y58740
X101811Y58740
X102441Y58740
X101496Y58740
X101811Y59055
X100866Y59055
X101181Y59055
X101496Y59055
X102126Y59055
X103071Y59055
X102441Y59055
X100866Y59370
X101181Y59370
X102441Y59370
X101496Y59370
X103071Y59370
X101811Y59370
X102126Y59370
X101181Y59685
X101496Y59685
X103071Y59685
X100866Y59685
X102441Y59685
X102126Y59685
X101811Y59685
X101496Y60000
X100866Y60000
X101181Y60000
X103071Y60000
X102126Y60000
X102441Y60000
X101811Y60000
X102126Y60315
X101496Y60315
X101181Y60315
X101811Y60315
X102441Y60315
X103071Y60315
X102795Y66496
X101535Y66496
X102165Y66496
X102480Y66496
X100906Y66496
X101850Y66496
X100906Y66811
X102165Y66811
X101535Y66811
X102480Y66811
X103110Y66811
X102795Y66811
X101850Y66811
X102480Y67126
X102165Y67126
X101850Y67126
X102795Y67126
X103110Y67126
X101535Y67126
X100906Y67126
X100906Y67441
X103110Y67441
X102480Y67441
X102165Y67441
X102795Y67441
X101535Y67441
X101850Y67441
X102795Y67756
X102165Y67756
X103110Y67756
X102480Y67756
X100906Y67756
X101535Y67756
X101850Y67756
X100906Y68071
X102795Y68071
X102480Y68071
X102165Y68071
X101850Y68071
X101535Y68071
X103110Y68071
X101535Y68701
X103110Y68701
X101850Y68701
X100906Y68701
X102480Y68701
X102795Y68701
X102165Y68701
X102795Y69016
X102480Y69016
X101850Y69016
X100906Y69016
X102165Y69016
X101535Y69016
X101850Y69331
X102480Y69331
X102795Y69331
X102165Y69331
X100906Y69331
X101535Y69331
X102795Y69646
X102165Y69646
X101850Y69646
X100906Y69646
X101535Y69646
X103110Y69646
X102480Y69646
X101850Y69961
X100906Y69961
X101535Y69961
X102480Y69961
X102795Y69961
X103110Y69961
X102165Y69961
X103386Y60315
X103701Y60315
X104331Y60315
X104016Y60315
X104016Y60000
X103701Y60000
X104331Y60000
X104646Y60000
X103386Y60000
X103701Y59685
X104016Y59685
X104646Y59685
X104331Y59685
X103386Y59685
X103701Y59370
X104646Y59370
X104331Y59370
X104016Y59370
X103386Y59370
X103701Y59055
X103386Y59055
X104016Y59055
X104646Y59055
X104331Y59055
X103701Y58740
X104646Y58740
X104331Y58740
X104016Y58740
X103386Y58740
X104016Y58110
X103386Y58110
X104331Y58110
X103701Y58110
X104016Y57795
X103386Y57795
X103701Y57795
X104331Y57795
X104016Y57480
X104331Y57480
X103701Y57480
X103386Y57480
X105069Y57411
X103386Y57165
X104016Y57165
X103701Y57165
X104331Y57165
X104646Y57165
X104969Y57161
X103701Y56850
X104016Y56850
X104331Y56850
X103386Y56850
X104331Y35591
X103386Y35591
X103701Y35591
X104016Y35591
X104016Y35276
X103386Y35276
X103701Y35276
X104331Y35276
X104646Y35276
X104331Y34961
X103386Y34961
X103701Y34961
X104646Y34961
X104016Y34961
X104331Y34646
X104016Y34646
X103701Y34646
X104646Y34646
X103386Y34646
X103701Y34331
X104016Y34331
X104646Y34331
X103386Y34331
X104331Y34331
X103386Y34016
X104646Y34016
X104331Y34016
X104016Y34016
X103701Y34016
X104331Y33386
X104016Y33386
X103386Y33386
X103701Y33386
X104016Y33071
X103386Y33071
X104331Y33071
X103701Y33071
X103386Y32756
X104016Y32756
X103701Y32756
X104331Y32756
X105069Y32687
X104016Y32441
X103701Y32441
X103386Y32441
X104646Y32441
X104331Y32441
X104969Y32437
X104016Y32126
X104331Y32126
X103386Y32126
X103701Y32126
X107835Y41772
X108150Y41772
X107520Y41772
X107835Y42087
X108150Y42087
X107520Y42087
X107205Y42087
X107835Y42402
X108150Y42402
X107520Y42402
X107205Y42402
X107835Y42717
X108150Y42717
X107520Y42717
X107205Y42717
X107835Y43032
X108150Y43032
X107520Y43032
X107205Y43032
X107835Y43347
X108150Y43347
X107205Y43347
X107520Y43347
X107520Y43976
X107835Y43976
X108150Y43976
X107835Y44291
X108150Y44291
X107520Y44291
X108150Y44606
X107520Y44606
X107835Y44606
X106818Y44687
X107205Y44921
X108150Y44921
X107835Y44921
X107520Y44921
X106893Y44937
X108150Y45236
X107835Y45236
X107520Y45236
X107835Y66496
X108150Y66496
X107520Y66496
X107205Y66811
X107520Y66811
X107835Y66811
X108150Y66811
X107520Y67126
X107205Y67126
X107835Y67126
X108150Y67126
X107205Y67441
X108150Y67441
X107835Y67441
X107520Y67441
X107835Y67756
X108150Y67756
X107205Y67756
X107520Y67756
X107520Y68071
X107205Y68071
X108150Y68071
X107835Y68071
X108150Y68701
X107520Y68701
X107835Y68701
X108150Y69016
X107520Y69016
X107835Y69016
X107520Y69331
X107835Y69331
X108150Y69331
X106818Y69411
X108150Y69646
X107835Y69646
X107520Y69646
X107205Y69646
X106893Y69661
X107520Y69961
X108150Y69961
X107835Y69961
X110354Y69961
X109724Y69961
X108780Y69961
X110039Y69961
X109409Y69961
X108465Y69961
X110669Y69961
X109724Y69646
X110354Y69646
X108780Y69646
X108465Y69646
X109409Y69646
X110039Y69646
X110669Y69646
X109724Y69331
X110354Y69331
X108780Y69331
X108465Y69331
X109409Y69331
X110039Y69331
X110669Y69331
X109724Y69016
X110354Y69016
X108780Y69016
X109409Y69016
X108465Y69016
X110039Y69016
X110669Y69016
X109724Y68701
X108780Y68701
X110354Y68701
X110669Y68701
X110039Y68701
X108465Y68701
X109409Y68701
X110039Y68071
X109409Y68071
X108465Y68071
X110354Y68071
X109724Y68071
X108780Y68071
X110669Y68071
X110669Y67756
X110039Y67756
X109409Y67756
X108465Y67756
X110354Y67756
X109724Y67756
X108780Y67756
X110669Y67441
X110039Y67441
X109409Y67441
X108465Y67441
X109724Y67441
X110354Y67441
X108780Y67441
X108465Y67126
X110354Y67126
X109724Y67126
X110039Y67126
X109409Y67126
X110669Y67126
X108780Y67126
X109409Y66811
X108780Y66811
X110354Y66811
X108465Y66811
X109724Y66811
X110039Y66811
X110669Y66811
X108465Y66496
X109409Y66496
X110039Y66496
X110669Y66496
X110354Y66496
X108780Y66496
X109724Y66496
X109055Y60315
X109370Y60315
X110000Y60315
X109685Y60315
X110315Y60315
X110000Y60000
X109370Y60000
X110315Y60000
X109685Y60000
X109055Y60000
X108740Y60000
X110000Y59685
X109370Y59685
X109685Y59685
X110315Y59685
X109055Y59685
X108740Y59685
X109370Y59370
X110000Y59370
X109685Y59370
X110315Y59370
X109055Y59370
X108740Y59370
X110000Y59055
X109370Y59055
X110315Y59055
X109055Y59055
X109685Y59055
X108740Y59055
X110000Y58740
X109370Y58740
X109055Y58740
X109685Y58740
X110315Y58740
X108740Y58740
X108740Y58110
X109685Y58110
X110315Y58110
X110000Y58110
X109370Y58110
X109055Y58110
X109685Y57795
X110315Y57795
X110000Y57795
X109370Y57795
X109055Y57795
X109685Y57480
X110315Y57480
X110000Y57480
X109370Y57480
X109055Y57480
X109055Y57165
X109370Y57165
X110000Y57165
X108740Y57165
X109685Y57165
X110315Y57165
X110315Y56850
X109055Y56850
X109370Y56850
X108740Y56850
X110000Y56850
X109685Y56850
X108465Y45236
X109724Y45236
X110039Y45236
X109409Y45236
X110669Y45236
X108780Y45236
X110354Y45236
X108465Y44921
X109409Y44921
X109724Y44921
X110354Y44921
X108780Y44921
X110039Y44921
X110669Y44921
X109724Y44606
X108780Y44606
X110669Y44606
X108465Y44606
X110354Y44606
X109409Y44606
X110039Y44606
X108780Y44291
X109724Y44291
X109409Y44291
X110354Y44291
X108465Y44291
X110669Y44291
X110039Y44291
X110669Y43976
X110354Y43976
X109409Y43976
X108465Y43976
X109724Y43976
X108780Y43976
X110039Y43976
X110354Y43347
X110039Y43347
X108780Y43347
X110669Y43347
X109409Y43347
X109724Y43347
X108465Y43347
X110354Y43032
X108780Y43032
X109409Y43032
X108465Y43032
X109724Y43032
X110039Y43032
X110669Y43032
X110669Y42717
X110354Y42717
X108780Y42717
X110039Y42717
X109724Y42717
X109409Y42717
X108465Y42717
X110354Y42402
X109724Y42402
X110669Y42402
X108465Y42402
X108780Y42402
X109409Y42402
X110039Y42402
X108465Y42087
X110669Y42087
X109724Y42087
X109409Y42087
X110039Y42087
X108780Y42087
X110354Y42087
X109409Y41772
X110669Y41772
X108780Y41772
X109724Y41772
X108465Y41772
X110039Y41772
X110354Y41772
X110315Y35591
X109685Y35591
X109055Y35591
X109370Y35591
X110000Y35591
X108740Y35276
X109055Y35276
X110000Y35276
X109685Y35276
X110315Y35276
X109370Y35276
X108740Y34961
X109685Y34961
X109055Y34961
X109370Y34961
X110315Y34961
X110000Y34961
X109685Y34646
X110000Y34646
X110315Y34646
X109055Y34646
X109370Y34646
X108740Y34646
X110000Y34331
X109055Y34331
X110315Y34331
X108740Y34331
X109370Y34331
X109685Y34331
X109370Y34016
X110000Y34016
X110315Y34016
X108740Y34016
X109055Y34016
X109685Y34016
X110000Y33386
X110315Y33386
X109370Y33386
X109055Y33386
X109685Y33386
X108740Y33386
X109055Y33071
X109370Y33071
X110315Y33071
X109685Y33071
X110000Y33071
X109685Y32756
X109055Y32756
X109370Y32756
X110000Y32756
X110315Y32756
X110315Y32441
X110000Y32441
X109370Y32441
X108740Y32441
X109055Y32441
X109685Y32441
X108740Y32126
X109685Y32126
X109370Y32126
X110315Y32126
X110000Y32126
X109055Y32126
X110945Y32126
X112205Y32126
X111575Y32126
X111890Y32126
X111260Y32126
X112843Y32437
X111575Y32441
X110945Y32441
X112205Y32441
X111260Y32441
X111890Y32441
X112520Y32441
X112943Y32687
X111260Y32756
X111890Y32756
X111575Y32756
X112205Y32756
X110945Y32756
X111260Y33071
X111890Y33071
X111575Y33071
X112205Y33071
X110945Y33071
X111575Y33386
X112205Y33386
X111260Y33386
X110945Y33386
X111890Y33386
X110945Y34016
X112205Y34016
X111575Y34016
X111890Y34016
X111260Y34016
X112520Y34016
X112520Y34331
X112205Y34331
X111575Y34331
X110945Y34331
X111260Y34331
X111890Y34331
X111260Y34646
X112520Y34646
X112205Y34646
X111575Y34646
X110945Y34646
X111890Y34646
X111260Y34961
X112520Y34961
X110945Y34961
X111890Y34961
X112205Y34961
X111575Y34961
X112205Y35276
X111575Y35276
X112520Y35276
X110945Y35276
X111260Y35276
X111890Y35276
X111890Y35591
X110945Y35591
X111575Y35591
X111260Y35591
X112205Y35591
X110984Y42087
X110984Y42402
X110984Y42717
X110984Y43032
X110984Y43347
X110984Y43976
X110984Y44921
X110984Y45236
X111575Y56850
X111260Y56850
X111890Y56850
X112205Y56850
X110945Y56850
X112843Y57161
X111890Y57165
X110945Y57165
X111260Y57165
X111575Y57165
X112520Y57165
X112205Y57165
X112943Y57411
X112205Y57480
X111890Y57480
X111260Y57480
X111575Y57480
X110945Y57480
X111890Y57795
X110945Y57795
X111575Y57795
X111260Y57795
X112205Y57795
X111890Y58110
X110945Y58110
X111260Y58110
X111575Y58110
X112205Y58110
X112520Y58740
X110945Y58740
X111575Y58740
X112205Y58740
X111260Y58740
X111890Y58740
X111890Y59055
X112520Y59055
X112205Y59055
X111260Y59055
X110945Y59055
X111575Y59055
X111260Y59370
X110945Y59370
X111575Y59370
X112205Y59370
X111890Y59370
X112520Y59370
X112205Y59685
X111890Y59685
X110945Y59685
X112520Y59685
X111260Y59685
X111575Y59685
X112520Y60000
X111260Y60000
X111890Y60000
X110945Y60000
X112205Y60000
X111575Y60000
X112205Y60315
X110945Y60315
X111260Y60315
X111890Y60315
X111575Y60315
X110984Y66811
X110984Y67126
X110984Y67441
X110984Y67756
X110984Y68071
X110984Y68701
X110984Y69646
X110984Y69961
T2C.012F95S300
X22775Y28475
X23125Y29275
X22650Y29600
X20975Y30250
X20975Y30750
X22200Y30750
X23150Y31025
X20975Y31250
X22085Y31250
X23150Y31425
X20975Y31750
X22150Y31775
X20975Y32250
X21350Y33025
X23150Y33400
X23125Y36250
X21425Y36250
X21425Y36575
X23125Y36575
X21425Y36900
X23125Y36900
X21400Y37250
X23125Y37250
X23125Y38250
X21400Y38250
X21400Y38575
X23133Y38593
X21400Y38900
X23125Y38925
X21400Y39250
X22825Y45375
X21100Y45525
X21075Y45900
X22750Y53250
X22250Y53250
X21750Y53250
X21250Y53250
X20750Y53250
X22750Y53750
X22250Y53750
X21750Y53750
X21250Y53750
X20750Y53750
X22750Y54250
X22250Y54250
X21750Y54250
X21250Y54250
X20750Y54250
X21250Y54750
X22750Y54750
X22250Y54750
X21750Y54750
X20750Y54750
X22750Y55250
X22250Y55250
X21750Y55250
X21250Y55250
X20750Y55250
X22750Y55750
X21750Y55750
X21250Y55750
X22250Y55750
X20750Y55750
X21250Y56250
X22250Y56250
X22750Y56250
X21750Y56250
X20750Y56250
X22750Y56750
X22250Y56750
X21750Y56750
X21250Y56750
X20750Y56750
X22750Y57250
X22250Y57250
X21750Y57250
X21250Y57250
X20750Y57250
X20750Y57750
X21250Y57750
X21750Y57750
X22250Y57750
X22750Y57750
X22750Y58250
X22250Y58250
X21750Y58250
X21250Y58250
X20750Y58250
X20750Y58750
X21250Y58750
X22750Y58750
X22250Y58750
X21750Y58750
X20750Y59250
X22250Y59250
X21750Y59250
X21250Y59250
X22750Y59250
X22250Y59750
X21750Y59750
X22750Y59750
X21250Y59750
X20750Y59750
X21250Y60250
X20750Y60250
X22250Y60250
X21750Y60250
X22750Y60250
X22750Y60750
X22250Y60750
X21750Y60750
X21250Y60750
X20750Y60750
X22750Y61250
X22250Y61250
X21750Y61250
X21250Y61250
X20750Y61250
X22750Y61750
X22250Y61750
X21750Y61750
X21250Y61750
X20750Y61750
X22750Y62250
X22250Y62250
X21750Y62250
X21250Y62250
X20750Y62250
X22750Y62750
X22250Y62750
X20750Y62750
X21250Y62750
X21750Y62750
X22750Y63250
X20750Y63250
X21750Y63250
X21250Y63250
X22250Y63250
X20750Y63750
X21250Y63750
X21750Y63750
X22250Y63750
X22750Y63750
X20750Y64250
X22750Y64250
X21750Y64250
X22250Y64250
X21250Y64250
X22750Y64750
X22250Y64750
X21750Y64750
X21250Y64750
X20750Y64750
X22750Y65250
X22250Y65250
X21750Y65250
X21250Y65250
X20750Y65250
X22750Y65750
X22250Y65750
X21750Y65750
X21250Y65750
X20750Y65750
X22750Y66250
X22250Y66250
X21750Y66250
X21250Y66250
X20750Y66250
X22750Y66750
X22250Y66750
X20750Y66750
X21250Y66750
X21750Y66750
X22750Y67250
X20750Y67250
X21750Y67250
X21250Y67250
X22250Y67250
X20750Y67750
X21250Y67750
X21750Y67750
X22250Y67750
X22750Y67750
X20750Y68250
X22750Y68250
X21750Y68250
X22250Y68250
X21250Y68250
X22750Y68750
X22250Y68750
X21750Y68750
X21250Y68750
X20750Y68750
X22750Y69250
X22250Y69250
X21750Y69250
X21250Y69250
X20750Y69250
X22750Y69750
X22250Y69750
X21750Y69750
X21250Y69750
X20750Y69750
X22750Y70250
X22250Y70250
X21750Y70250
X21250Y70250
X20750Y70250
X22750Y70750
X22250Y70750
X21750Y70750
X20750Y70750
X21250Y70750
X20750Y71250
X21250Y71250
X22750Y71250
X22250Y71250
X21750Y71250
X21250Y71750
X20750Y71750
X22750Y71750
X21750Y71750
X22250Y71750
X21250Y72250
X20750Y72250
X22250Y72250
X21750Y72250
X22750Y72250
X22750Y72750
X22250Y72750
X21750Y72750
X21250Y72750
X20750Y72750
X22750Y73250
X22250Y73250
X21750Y73250
X21250Y73250
X20750Y73250
X22750Y73750
X22250Y73750
X21750Y73750
X21250Y73750
X20750Y73750
X22750Y74250
X22250Y74250
X21750Y74250
X21250Y74250
X20750Y74250
X22750Y74750
X22250Y74750
X20750Y74750
X21250Y74750
X21750Y74750
X22750Y75250
X20750Y75250
X21750Y75250
X21250Y75250
X22250Y75250
X20750Y75750
X21250Y75750
X21750Y75750
X22250Y75750
X22750Y75750
X20750Y76250
X22750Y76250
X21750Y76250
X22250Y76250
X21250Y76250
X22750Y76750
X22250Y76750
X21750Y76750
X21250Y76750
X20750Y76750
X22750Y77250
X22250Y77250
X21750Y77250
X21250Y77250
X20750Y77250
X22750Y77750
X22250Y77750
X21750Y77750
X21250Y77750
X20750Y77750
X22750Y78250
X22250Y78250
X21750Y78250
X21250Y78250
X20750Y78250
X22750Y78750
X22250Y78750
X20750Y78750
X21250Y78750
X21750Y78750
X22750Y79250
X20750Y79250
X21750Y79250
X21250Y79250
X22250Y79250
X20750Y79750
X21250Y79750
X21750Y79750
X22250Y79750
X22750Y79750
X20750Y80250
X22750Y80250
X21750Y80250
X22250Y80250
X21250Y80250
X22750Y80750
X22250Y80750
X21750Y80750
X21250Y80750
X20750Y80750
X22750Y81250
X22250Y81250
X21750Y81250
X21250Y81250
X20750Y81250
X22750Y81750
X22250Y81750
X21750Y81750
X21250Y81750
X20750Y81750
X22750Y82250
X22250Y82250
X21750Y82250
X21250Y82250
X20750Y82250
X22750Y82750
X22250Y82750
X20750Y82750
X21250Y82750
X21750Y82750
X22750Y83250
X20750Y83250
X21750Y83250
X21250Y83250
X22250Y83250
X20750Y83750
X21250Y83750
X21750Y83750
X22250Y83750
X22750Y83750
X20750Y84250
X22750Y84250
X21750Y84250
X22250Y84250
X21250Y84250
X22750Y84750
X22250Y84750
X21750Y84750
X21250Y84750
X20750Y84750
X22750Y85250
X22250Y85250
X21750Y85250
X21250Y85250
X20750Y85250
X22750Y85750
X22250Y85750
X21750Y85750
X21250Y85750
X20750Y85750
X21250Y86250
X22250Y86250
X20750Y86250
X21750Y86250
X22750Y86250
X21250Y86750
X20750Y86750
X22750Y86750
X22250Y86750
X21750Y86750
X22750Y87250
X22250Y87250
X21750Y87250
X21250Y87250
X20750Y87250
X22750Y87750
X22250Y87750
X21750Y87750
X21250Y87750
X20750Y87750
X22750Y88250
X22250Y88250
X21750Y88250
X21250Y88250
X20750Y88250
X20750Y92250
X21250Y92250
X21750Y92250
X22250Y92250
X22750Y92250
X22750Y92750
X22250Y92750
X21750Y92750
X21250Y92750
X20750Y92750
X25250Y92750
X24750Y92750
X24250Y92750
X23750Y92750
X23250Y92750
X23250Y92250
X23750Y92250
X24250Y92250
X24750Y92250
X25250Y92250
X25250Y88250
X24750Y88250
X24250Y88250
X23750Y88250
X23250Y88250
X25250Y87750
X24750Y87750
X24250Y87750
X23750Y87750
X23250Y87750
X25250Y87250
X24750Y87250
X24250Y87250
X23750Y87250
X23250Y87250
X25250Y86750
X24750Y86750
X24250Y86750
X23750Y86750
X23250Y86750
X25250Y86250
X24750Y86250
X24250Y86250
X23750Y86250
X23250Y86250
X25250Y85750
X24750Y85750
X24250Y85750
X23750Y85750
X23250Y85750
X25250Y85250
X24750Y85250
X24250Y85250
X23750Y85250
X23250Y85250
X25250Y84750
X24750Y84750
X24250Y84750
X23750Y84750
X23250Y84750
X25250Y84250
X24750Y84250
X24250Y84250
X23750Y84250
X23250Y84250
X25250Y83750
X24750Y83750
X24250Y83750
X23750Y83750
X23250Y83750
X25250Y83250
X24750Y83250
X24250Y83250
X23750Y83250
X23250Y83250
X25250Y82750
X24750Y82750
X24250Y82750
X23750Y82750
X23250Y82750
X25250Y82250
X24750Y82250
X24250Y82250
X23750Y82250
X23250Y82250
X25250Y81750
X24750Y81750
X24250Y81750
X23750Y81750
X23250Y81750
X25250Y81250
X24750Y81250
X24250Y81250
X23750Y81250
X23250Y81250
X25250Y80750
X24750Y80750
X24250Y80750
X23750Y80750
X23250Y80750
X25250Y80250
X24750Y80250
X24250Y80250
X23750Y80250
X23250Y80250
X25250Y79750
X24750Y79750
X24250Y79750
X23750Y79750
X23250Y79750
X25250Y79250
X24750Y79250
X24250Y79250
X23750Y79250
X23250Y79250
X25250Y78750
X24750Y78750
X24250Y78750
X23750Y78750
X23250Y78750
X25250Y78250
X24750Y78250
X24250Y78250
X23750Y78250
X23250Y78250
X25250Y77750
X24750Y77750
X24250Y77750
X23750Y77750
X23250Y77750
X25250Y77250
X24750Y77250
X24250Y77250
X23750Y77250
X23250Y77250
X25250Y76750
X24750Y76750
X24250Y76750
X23750Y76750
X23250Y76750
X25250Y76250
X24750Y76250
X24250Y76250
X23750Y76250
X23250Y76250
X25250Y75750
X24750Y75750
X24250Y75750
X23750Y75750
X23250Y75750
X25250Y75250
X24750Y75250
X24250Y75250
X23750Y75250
X23250Y75250
X25250Y74750
X24750Y74750
X24250Y74750
X23750Y74750
X23250Y74750
X25250Y74250
X24750Y74250
X24250Y74250
X23750Y74250
X23250Y74250
X25250Y73750
X24750Y73750
X24250Y73750
X23750Y73750
X23250Y73750
X25250Y73250
X24750Y73250
X24250Y73250
X23750Y73250
X23250Y73250
X25250Y72750
X24750Y72750
X24250Y72750
X23750Y72750
X23250Y72750
X25250Y72250
X24750Y72250
X24250Y72250
X23750Y72250
X23250Y72250
X25250Y71750
X24750Y71750
X24250Y71750
X23750Y71750
X23250Y71750
X25250Y71250
X24750Y71250
X24250Y71250
X23750Y71250
X23250Y71250
X25250Y70750
X24750Y70750
X24250Y70750
X23750Y70750
X23250Y70750
X25250Y70250
X24750Y70250
X24250Y70250
X23750Y70250
X23250Y70250
X25250Y69750
X24750Y69750
X24250Y69750
X23750Y69750
X23250Y69750
X25250Y69250
X24750Y69250
X24250Y69250
X23750Y69250
X23250Y69250
X25250Y68750
X24750Y68750
X24250Y68750
X23750Y68750
X23250Y68750
X25250Y68250
X24750Y68250
X24250Y68250
X23750Y68250
X23250Y68250
X25250Y67750
X24750Y67750
X24250Y67750
X23750Y67750
X23250Y67750
X23750Y67250
X23250Y67250
X25250Y67250
X24750Y67250
X24250Y67250
X24750Y66750
X24250Y66750
X23750Y66750
X23250Y66750
X25250Y66750
X25250Y66250
X24750Y66250
X24250Y66250
X23750Y66250
X23250Y66250
X25250Y65750
X24750Y65750
X24250Y65750
X23750Y65750
X23250Y65750
X24750Y65250
X24250Y65250
X25250Y65250
X23750Y65250
X23250Y65250
X23750Y64750
X23250Y64750
X24250Y64750
X24750Y64750
X25250Y64750
X25250Y64250
X24750Y64250
X24250Y64250
X23750Y64250
X23250Y64250
X25250Y63750
X24750Y63750
X24250Y63750
X23750Y63750
X23250Y63750
X23750Y63250
X23250Y63250
X25250Y63250
X24750Y63250
X24250Y63250
X24750Y62750
X24250Y62750
X25250Y62750
X23750Y62750
X23250Y62750
X24250Y62250
X23750Y62250
X23250Y62250
X25250Y62250
X24750Y62250
X25250Y61750
X24750Y61750
X24250Y61750
X23750Y61750
X23250Y61750
X25250Y61250
X24750Y61250
X24250Y61250
X23750Y61250
X23250Y61250
X24250Y60750
X25250Y60750
X23750Y60750
X23250Y60750
X24750Y60750
X25250Y60250
X24750Y60250
X24250Y60250
X23750Y60250
X23250Y60250
X25250Y59750
X24750Y59750
X24250Y59750
X23750Y59750
X23250Y59750
X25250Y59250
X24750Y59250
X24250Y59250
X23750Y59250
X23250Y59250
X25250Y58750
X24750Y58750
X24250Y58750
X23750Y58750
X23250Y58750
X25250Y58250
X24750Y58250
X24250Y58250
X23750Y58250
X23250Y58250
X23250Y57750
X23750Y57750
X24250Y57750
X24750Y57750
X25250Y57750
X23750Y57250
X25250Y57250
X24750Y57250
X24250Y57250
X23250Y57250
X23750Y56750
X23250Y56750
X24750Y56750
X24250Y56750
X25250Y56750
X25250Y56250
X24750Y56250
X24250Y56250
X23750Y56250
X23250Y56250
X25250Y55750
X24750Y55750
X24250Y55750
X23750Y55750
X23250Y55750
X25250Y55250
X24750Y55250
X24250Y55250
X23750Y55250
X23250Y55250
X23750Y54750
X23250Y54750
X25250Y54750
X24750Y54750
X24250Y54750
X25250Y54250
X24750Y54250
X24250Y54250
X23750Y54250
X23250Y54250
X24250Y53750
X23750Y53750
X23250Y53750
X25250Y53750
X24750Y53750
X25250Y53250
X24750Y53250
X24250Y53250
X23750Y53250
X23250Y53250
X24650Y45875
X24950Y45200
X25300Y44100
X25300Y43750
X25300Y43250
X25300Y42750
X25300Y42250
X25300Y41250
X23875Y39725
X23275Y39250
X25275Y38738
X25325Y38250
X23700Y38250
X25325Y37250
X25400Y36250
X23375Y35950
X25400Y35750
X25400Y35350
X25325Y34750
X23950Y34450
X23625Y34325
X23500Y34000
X23500Y33650
X24700Y32800
X24300Y32800
X24875Y32000
X24575Y31625
X24925Y31325
X24250Y30875
X25575Y30000
X25150Y29975
X24450Y29475
X25150Y29325
X25700Y29250
X24850Y28875
X25575Y28500
X25075Y28500
X24625Y28125
X24800Y27725
X25225Y27725
X23800Y27625
X25150Y25250
X27050Y24700
X26200Y24700
X28000Y24900
X27000Y26550
X27725Y26575
X27350Y26575
X26000Y26650
X28025Y26750
X26950Y27700
X26350Y27725
X27925Y28050
X27550Y28050
X27225Y28325
X27050Y28625
X27000Y29000
X26800Y29375
X26500Y29550
X27850Y29650
X28200Y29650
X27825Y31250
X27475Y31325
X26000Y31600
X26325Y31625
X26675Y31650
X26875Y31925
X26475Y32175
X26775Y32425
X27475Y32750
X26475Y32850
X26300Y33950
X27325Y34750
X28075Y34850
X26200Y35100
X27350Y35250
X28175Y35250
X27375Y35750
X28175Y35750
X25900Y35875
X28175Y36100
X28175Y36600
X26075Y36750
X27375Y36750
X27375Y37250
X28200Y37475
X26075Y37750
X27375Y38250
X26075Y38250
X28200Y38375
X26875Y39375
X25750Y39375
X28200Y39575
X26875Y39750
X28200Y39900
X26875Y40125
X28200Y40400
X28200Y40850
X27400Y41250
X27400Y41625
X27400Y42250
X26225Y42375
X28200Y42400
X27375Y42675
X26050Y42975
X27400Y43250
X27500Y44750
X26200Y45600
X25750Y53250
X28000Y53250
X27500Y53250
X26500Y53250
X27000Y53250
X27000Y53750
X28000Y53750
X27500Y53750
X26500Y53750
X25750Y53750
X25750Y54250
X28000Y54250
X27500Y54250
X27000Y54250
X26500Y54250
X28000Y54750
X27500Y54750
X26500Y54750
X27000Y54750
X25750Y54750
X28000Y55250
X26500Y55250
X27000Y55250
X25750Y55250
X27500Y55250
X26500Y55750
X27500Y55750
X27000Y55750
X25750Y55750
X28000Y55750
X26500Y56250
X27500Y56250
X25750Y56250
X27000Y56250
X28000Y56250
X26500Y56750
X25750Y56750
X28000Y56750
X27500Y56750
X27000Y56750
X25750Y57250
X26500Y57250
X28000Y57250
X27500Y57250
X27000Y57250
X28000Y57750
X27500Y57750
X27000Y57750
X25750Y57750
X26500Y57750
X28000Y58250
X27500Y58250
X25750Y58250
X26500Y58250
X27000Y58250
X25750Y58750
X27500Y58750
X26500Y58750
X27000Y58750
X28000Y58750
X28000Y59250
X27000Y59250
X26500Y59250
X27500Y59250
X25750Y59250
X26500Y59750
X27000Y59750
X25750Y59750
X28000Y59750
X27500Y59750
X25750Y60250
X27500Y60250
X27000Y60250
X28000Y60250
X26500Y60250
X27000Y60750
X26500Y60750
X25750Y60750
X27500Y60750
X28000Y60750
X26500Y61250
X25750Y61250
X28000Y61250
X27500Y61250
X27000Y61250
X25750Y61750
X27000Y61750
X28000Y61750
X27500Y61750
X26500Y61750
X25750Y62250
X27000Y62250
X28000Y62250
X27500Y62250
X26500Y62250
X26500Y62750
X25750Y62750
X27000Y62750
X28000Y62750
X27500Y62750
X25750Y63250
X26500Y63250
X28000Y63250
X27500Y63250
X27000Y63250
X25750Y63750
X27500Y63750
X27000Y63750
X26500Y63750
X28000Y63750
X25750Y64250
X27000Y64250
X26500Y64250
X28000Y64250
X27500Y64250
X27000Y64750
X26500Y64750
X25750Y64750
X28000Y64750
X27500Y64750
X26500Y65250
X27000Y65250
X25750Y65250
X28000Y65250
X27500Y65250
X25750Y65750
X27000Y65750
X28000Y65750
X27500Y65750
X26500Y65750
X27000Y66250
X25750Y66250
X28000Y66250
X27500Y66250
X26500Y66250
X25750Y66750
X27250Y67250
X25750Y67250
X25750Y67750
X25750Y68250
X25750Y68750
X27250Y68750
X25750Y69250
X25750Y69750
X25750Y70250
X25750Y70750
X25750Y71250
X25750Y71750
X25750Y72250
X25750Y72750
X25750Y73250
X25750Y73750
X25750Y74250
X25750Y74750
X26750Y74750
X27750Y74750
X26750Y75250
X27750Y75250
X25750Y75250
X26750Y75750
X27750Y75750
X25750Y75750
X26750Y76250
X27750Y76250
X25750Y76250
X26750Y76750
X25750Y76750
X27750Y76750
X26750Y77250
X25750Y77250
X27750Y77250
X25750Y77750
X27750Y77750
X26750Y77750
X25750Y78250
X26750Y78250
X27750Y78250
X26750Y78750
X27750Y78750
X25750Y78750
X27750Y79250
X25750Y79250
X26750Y79250
X26750Y79750
X25750Y79750
X27750Y79750
X26750Y80250
X25750Y80250
X27750Y80250
X26750Y80750
X25750Y80750
X27750Y80750
X26750Y81250
X25750Y81250
X27750Y81250
X25750Y81750
X27750Y81750
X26750Y81750
X25750Y82250
X26750Y82250
X27750Y82250
X26750Y82750
X27750Y82750
X25750Y82750
X27750Y83250
X25750Y83250
X26750Y83250
X26750Y83750
X25750Y83750
X27750Y83750
X26750Y84250
X25750Y84250
X27750Y84250
X26750Y84750
X25750Y84750
X27750Y84750
X25750Y85250
X26750Y85250
X27750Y85250
X25750Y85750
X26750Y86250
X26250Y86250
X25750Y86250
X27750Y86250
X27250Y86250
X26750Y86750
X27750Y86750
X27250Y86750
X25750Y86750
X26250Y86750
X26750Y87250
X26250Y87250
X25750Y87250
X27750Y87250
X27250Y87250
X27750Y87750
X27250Y87750
X25750Y87750
X26250Y87750
X26750Y87750
X25750Y88250
X26750Y88250
X26250Y88250
X27750Y88250
X27250Y88250
X26750Y90750
X26750Y91250
X26750Y91750
X25750Y92250
X26250Y92250
X26750Y92250
X27250Y92250
X27750Y92250
X26750Y92750
X26250Y92750
X25750Y92750
X27750Y92750
X27250Y92750
X30250Y92750
X29750Y92750
X29250Y92750
X28750Y92750
X28250Y92750
X28250Y92250
X28750Y92250
X29250Y92250
X29750Y92250
X30250Y92250
X30250Y88250
X29750Y88250
X29250Y88250
X28750Y88250
X28250Y88250
X30250Y87750
X29750Y87750
X29250Y87750
X28750Y87750
X28250Y87750
X30250Y87250
X29750Y87250
X29250Y87250
X28750Y87250
X28250Y87250
X28750Y86750
X28250Y86750
X28750Y86250
X28250Y86250
X28750Y85250
X28750Y84750
X28750Y84250
X29750Y83750
X28750Y83750
X29750Y83250
X28750Y83250
X29750Y82750
X28750Y82750
X29750Y82250
X28750Y82250
X29750Y81750
X28750Y81750
X29750Y81250
X28750Y81250
X29750Y80750
X28750Y80750
X29750Y80250
X28750Y80250
X29750Y79750
X28750Y79750
X29750Y79250
X28750Y79250
X29750Y78750
X28750Y78750
X29750Y78250
X28750Y78250
X29750Y77750
X28750Y77750
X29750Y77250
X28750Y77250
X29750Y76750
X28750Y76750
X28750Y76250
X28750Y75750
X28750Y75250
X28750Y74750
X28950Y74125
X29250Y73000
X30000Y73000
X29250Y72500
X30000Y72500
X30000Y72000
X29250Y72000
X30000Y71500
X29250Y71500
X30000Y71000
X29250Y71000
X30000Y70500
X29250Y70500
X30000Y70000
X29250Y70000
X30000Y69500
X29250Y69500
X30000Y69075
X29250Y69075
X30000Y63750
X29500Y63750
X29000Y63750
X28500Y63750
X30000Y63250
X29500Y63250
X29000Y63250
X28500Y63250
X29500Y62750
X29000Y62750
X28500Y62750
X29500Y62250
X29000Y62250
X28500Y62250
X29500Y61750
X29000Y61750
X28500Y61750
X29500Y61250
X29000Y61250
X28500Y61250
X28500Y60750
X29000Y60750
X29500Y60750
X29500Y60250
X29000Y60250
X28500Y60250
X30000Y59750
X29000Y59750
X28500Y59750
X29500Y59750
X30000Y59250
X29000Y59250
X28500Y59250
X29500Y59250
X30000Y58750
X29000Y58750
X29500Y58750
X28500Y58750
X30000Y58250
X29000Y58250
X29500Y58250
X28500Y58250
X29500Y57750
X29000Y57750
X28500Y57750
X30000Y57750
X29500Y57250
X30000Y57250
X29000Y57250
X28500Y57250
X30000Y56750
X29500Y56750
X28500Y56750
X29000Y56750
X30000Y56250
X29000Y56250
X29500Y56250
X28500Y56250
X30000Y55750
X29000Y55750
X29500Y55750
X28500Y55750
X29000Y55250
X28500Y55250
X29500Y55250
X30000Y55250
X30500Y55250
X28500Y54750
X29000Y54750
X30000Y54750
X30500Y54750
X29500Y54750
X30500Y54250
X29500Y54250
X28500Y54250
X30000Y54250
X29000Y54250
X30000Y53750
X29000Y53750
X30500Y53750
X29500Y53750
X28500Y53750
X29500Y53250
X28500Y53250
X29000Y53250
X30500Y53250
X30000Y53250
X29200Y45500
X29200Y45150
X29200Y44800
X30325Y43450
X30325Y43000
X30325Y42625
X29525Y42375
X30325Y42125
X29775Y40375
X29750Y40025
X29750Y39700
X30250Y39675
X29750Y38925
X30250Y38750
X30250Y38425
X29750Y38425
X30250Y38100
X29750Y37925
X29750Y37600
X29750Y37100
X30250Y36850
X29725Y36575
X30250Y36300
X29725Y36050
X30250Y35875
X30000Y35250
X29725Y34750
X30150Y34744
X28650Y34425
X30675Y34200
X30100Y33525
X29775Y33300
X29100Y32850
X29025Y32525
X30400Y32500
X28900Y32225
X30375Y31975
X28750Y31550
X28325Y31550
X28800Y31200
X28325Y31200
X30325Y30225
X29250Y29725
X28600Y29650
X28975Y29525
X30550Y29350
X28900Y29150
X28475Y29075
X28500Y28675
X30375Y28275
X29100Y28200
X29325Y27750
X29600Y26700
X28450Y26450
X29900Y26400
X30300Y25500
X29650Y24850
X28725Y24775
X30925Y24875
X32275Y24925
X31850Y25375
X32075Y26473
X31825Y27725
X30900Y28250
X31825Y28250
X31825Y28650
X32050Y29000
X30975Y29325
X31350Y29325
X32825Y29950
X30875Y30225
X31325Y30225
X32850Y30450
X31325Y30725
X32675Y30750
X30825Y30825
X31650Y30825
X32850Y31050
X31700Y31400
X32900Y32500
X31675Y33050
X30850Y33200
X31675Y33650
X32850Y33800
X31350Y34025
X31800Y34950
X33000Y35250
X31800Y35825
X31800Y36225
X32250Y36725
X31950Y37625
X32400Y38075
X32050Y38125
X31975Y38900
X32400Y38900
X31625Y38900
X32500Y39250
X31725Y39625
X32225Y39700
X31725Y40150
X32400Y40250
X31750Y40825
X32250Y41050
X31875Y41350
X31700Y42275
X31700Y42675
X32500Y42900
X32500Y43300
X31675Y43375
X32400Y43650
X31675Y43750
X32450Y44000
X32100Y44000
X30900Y44700
X32165Y45197
X31100Y45250
X32480Y45394
X31000Y53250
X32000Y53250
X33000Y53250
X32500Y53250
X31500Y53250
X31000Y53750
X32000Y53750
X32500Y53750
X33000Y53750
X31500Y53750
X31000Y54250
X32000Y54250
X33000Y54250
X31500Y54250
X32500Y54250
X31000Y54750
X33000Y54750
X32500Y54750
X32000Y54750
X31500Y54750
X33000Y55250
X31000Y55250
X31500Y55250
X32000Y55250
X32500Y55250
X32250Y57750
X32750Y57750
X32750Y58250
X32250Y58250
X31750Y58750
X31250Y58750
X32750Y58750
X32250Y58750
X31750Y59250
X32250Y59250
X32750Y59250
X31250Y59250
X32750Y59750
X32250Y59750
X31750Y59750
X31250Y59750
X32750Y60250
X32250Y60250
X32750Y60675
X32250Y60675
X32250Y61350
X32750Y61350
X32250Y61750
X32750Y61750
X32250Y62250
X32750Y62250
X32250Y62750
X32750Y62750
X32750Y63250
X32250Y63250
X31500Y63250
X31000Y63250
X31000Y63850
X32050Y63900
X32250Y69075
X30750Y69075
X32750Y69075
X31750Y69075
X31250Y69075
X31250Y69500
X32750Y69500
X30750Y69500
X31750Y69500
X32250Y69500
X30750Y70000
X30750Y70500
X30750Y71000
X30750Y71500
X30750Y72000
X31750Y72500
X31250Y72500
X30750Y72500
X32250Y72500
X32750Y72500
X32750Y73000
X30750Y73000
X31250Y73000
X32250Y73000
X31750Y73000
X33150Y74125
X32750Y76750
X31750Y76750
X30750Y76750
X31750Y77250
X32750Y77250
X30750Y77250
X32750Y77750
X31750Y77750
X30750Y77750
X31750Y78250
X30750Y78250
X32750Y78250
X30750Y78750
X32750Y78750
X31750Y78750
X32750Y79250
X30750Y79250
X31750Y79250
X30750Y79750
X32750Y79750
X31750Y79750
X32750Y80250
X30750Y80250
X31750Y80250
X30750Y80750
X31750Y80750
X32750Y80750
X31750Y81250
X32750Y81250
X30750Y81250
X31750Y81750
X30750Y81750
X32750Y81750
X31750Y82250
X30750Y82250
X32750Y82250
X30750Y82750
X32750Y82750
X31750Y82750
X32750Y83250
X31750Y83250
X30750Y83250
X31750Y83750
X30750Y83750
X32750Y83750
X31750Y84250
X30750Y84250
X32750Y84250
X30750Y84750
X31750Y84750
X32750Y84750
X31750Y85250
X30750Y85250
X32750Y85250
X30750Y86250
X32750Y86250
X32250Y86250
X31750Y86250
X31250Y86250
X30750Y86750
X32750Y86750
X32250Y86750
X31750Y86750
X31250Y86750
X30750Y87250
X32750Y87250
X32250Y87250
X31750Y87250
X31250Y87250
X31750Y87750
X31250Y87750
X30750Y87750
X32750Y87750
X32250Y87750
X30750Y88250
X32750Y88250
X32250Y88250
X31750Y88250
X31250Y88250
X32750Y90750
X32750Y91250
X32750Y91750
X30750Y92250
X31250Y92250
X31750Y92250
X32250Y92250
X32750Y92250
X30750Y92750
X32750Y92750
X32250Y92750
X31750Y92750
X31250Y92750
X34750Y92750
X34250Y92750
X33750Y92750
X33250Y92750
X35250Y92750
X33250Y92250
X33750Y92250
X34250Y92250
X34750Y92250
X35250Y92250
X33250Y91750
X33250Y91250
X33250Y90750
X34750Y88250
X34250Y88250
X33750Y88250
X33250Y88250
X35250Y88250
X34750Y87750
X34250Y87750
X33750Y87750
X33250Y87750
X35250Y87750
X34750Y87250
X34250Y87250
X33750Y87250
X33250Y87250
X35250Y87250
X34750Y86750
X34250Y86750
X33750Y86750
X33250Y86750
X34750Y86250
X34250Y86250
X33750Y86250
X33250Y86250
X33750Y85250
X34750Y85250
X33750Y84750
X34750Y84750
X33750Y84250
X34750Y84250
X33750Y83750
X34750Y83750
X33750Y83250
X34750Y83250
X33750Y82750
X34750Y82750
X33750Y82250
X34750Y82250
X33750Y81750
X34750Y81750
X33750Y81250
X34750Y81250
X33750Y80750
X34750Y80750
X33750Y80250
X34750Y80250
X33750Y79750
X34750Y79750
X33750Y79250
X34750Y79250
X33750Y78750
X34750Y78750
X33750Y78250
X34750Y78250
X33750Y77750
X34750Y77750
X33750Y77250
X34750Y77250
X34750Y76750
X33750Y76750
X34750Y76250
X33750Y76250
X33750Y75750
X34750Y75750
X34750Y73000
X34250Y73000
X35250Y73000
X33500Y72800
X34750Y72500
X34250Y72500
X35250Y72500
X34750Y72000
X34250Y72000
X35250Y72000
X34750Y71500
X34250Y71500
X35250Y71500
X34750Y71000
X34250Y71000
X35250Y71000
X34750Y70500
X34250Y70500
X35250Y70500
X34750Y70000
X34250Y70000
X35250Y70000
X34750Y69500
X34250Y69500
X35250Y69500
X33500Y69075
X34250Y69000
X34750Y69000
X35250Y69000
X33325Y67250
X34875Y66725
X34175Y66675
X35250Y66625
X33825Y66250
X33825Y65900
X33825Y65575
X34000Y65200
X34500Y65200
X35550Y64900
X35250Y64900
X34000Y64750
X34500Y64750
X35550Y64550
X35250Y64550
X34000Y64250
X35250Y64200
X35550Y64200
X34625Y64000
X33750Y63250
X33250Y63250
X33750Y62750
X33250Y62750
X33250Y62250
X33750Y62250
X34250Y62250
X35200Y62225
X35025Y61800
X33250Y61750
X34000Y60475
X35500Y60250
X34750Y60125
X35250Y59750
X34750Y59750
X33750Y59750
X34250Y59750
X33250Y59750
X35250Y59250
X34750Y59250
X33750Y59250
X34250Y59250
X33250Y59250
X35250Y58750
X34750Y58750
X33750Y58750
X34250Y58750
X33250Y58750
X35250Y58250
X34750Y58250
X33750Y58250
X34250Y58250
X33250Y58250
X34750Y57750
X33750Y57750
X34250Y57750
X33250Y57750
X35250Y57750
X35500Y55250
X33500Y55250
X34000Y55250
X34500Y55250
X35000Y55250
X35500Y54750
X35000Y54750
X34500Y54750
X33500Y54750
X34000Y54750
X35500Y54250
X35000Y54250
X34500Y54250
X34000Y54250
X33500Y54250
X35500Y53750
X34500Y53750
X34000Y53750
X33500Y53750
X35000Y53750
X35500Y53250
X35000Y53250
X34500Y53250
X34000Y53250
X33500Y53250
X34175Y45400
X33750Y44000
X33450Y43200
X34450Y43100
X34450Y42750
X34450Y42375
X34450Y42050
X34000Y41925
X34450Y41700
X34450Y41250
X34450Y40925
X34450Y40575
X34450Y40100
X35700Y39700
X34450Y39650
X33450Y39225
X34600Y38800
X34475Y36900
X33900Y36600
X33900Y36225
X34150Y35425
X35000Y35300
X33850Y34750
X34550Y33900
X34550Y33506
X33750Y33450
X33750Y33075
X34575Y31750
X33750Y31700
X33750Y31325
X34600Y31075
X33750Y30750
X34750Y30550
X35225Y30050
X34750Y29900
X33750Y29800
X33425Y29450
X35400Y29000
X33400Y29000
X34100Y28800
X33975Y28500
X33425Y28250
X33975Y28125
X33975Y27750
X35550Y27625
X33975Y27375
X35550Y27250
X33425Y26850
X35550Y26850
X35525Y26500
X34100Y26150
X36250Y26050
X37850Y26350
X36600Y26600
X38000Y28250
X36600Y28250
X36550Y29000
X37900Y29000
X37900Y29500
X37375Y29525
X36575Y30223
X35850Y31050
X35850Y31950
X37950Y32350
X35850Y32450
X36550Y32750
X37950Y32750
X37950Y33250
X36050Y33900
X35850Y34750
X35900Y35750
X36300Y35750
X35900Y36100
X36650Y36200
X36050Y36600
X36625Y36725
X37825Y36750
X36300Y36850
X35950Y37100
X37825Y37250
X36250Y37350
X35950Y37650
X36250Y38050
X36600Y38050
X35950Y38150
X36800Y38300
X37750Y38475
X35900Y38800
X37325Y39700
X37875Y40225
X36350Y40625
X36125Y42125
X38050Y42225
X36550Y42450
X35950Y42750
X36550Y42975
X37900Y42975
X38100Y44025
X35950Y44650
X37950Y44650
X36000Y53250
X37000Y53250
X37500Y53250
X36500Y53250
X38000Y53250
X36000Y53750
X37000Y53750
X36500Y53750
X37500Y53750
X38000Y53750
X37000Y54250
X36500Y54250
X38000Y54250
X37500Y54250
X36000Y54250
X37500Y54750
X38000Y54750
X36000Y54750
X36500Y54750
X37000Y54750
X36000Y55250
X37000Y55250
X37500Y55250
X38000Y55250
X36500Y55250
X38000Y57750
X37500Y57750
X36750Y57750
X38000Y58250
X37500Y58250
X36750Y58250
X36250Y58750
X35750Y58750
X36750Y58750
X37500Y58750
X38000Y58750
X36250Y59250
X37500Y59250
X38000Y59250
X35750Y59250
X36750Y59250
X36250Y59750
X35750Y59750
X37500Y59750
X38000Y59750
X36750Y59750
X36750Y60250
X36125Y60450
X37375Y60500
X38000Y60500
X36125Y61800
X36600Y61800
X38000Y62250
X37500Y62250
X36775Y62425
X37175Y62625
X36500Y62725
X36297Y63000
X38075Y63025
X37375Y64000
X35850Y64200
X36750Y64200
X36450Y64200
X36150Y64200
X37750Y64250
X36750Y64550
X36150Y64550
X35850Y64550
X36450Y64550
X37750Y64750
X37250Y64750
X36450Y64900
X36150Y64900
X36750Y64900
X35850Y64900
X37750Y65250
X37250Y65250
X37375Y66275
X36975Y66600
X36000Y66775
X36375Y68075
X36725Y68075
X35750Y68075
X35750Y69000
X37250Y69000
X36250Y69000
X36750Y69000
X36750Y69500
X36250Y69500
X35750Y69500
X37250Y69500
X37250Y70000
X36750Y70000
X36250Y70000
X35750Y70000
X35750Y70500
X37250Y70500
X36750Y70500
X36250Y70500
X37250Y71000
X35750Y71000
X36750Y71000
X36250Y71000
X36750Y71500
X36250Y71500
X35750Y71500
X37250Y71500
X35750Y72000
X37250Y72000
X36750Y72000
X36250Y72000
X35750Y72500
X36250Y72500
X37250Y72500
X36750Y72500
X37250Y73000
X36750Y73000
X36250Y73000
X35750Y73000
X36750Y75750
X37750Y75750
X35750Y75750
X37750Y76250
X35750Y76250
X36750Y76250
X37750Y76750
X35750Y76750
X36750Y76750
X37750Y77250
X35750Y77250
X36750Y77250
X36750Y77750
X37750Y77750
X35750Y77750
X37750Y78250
X35750Y78250
X36750Y78250
X35750Y78750
X37750Y78750
X36750Y78750
X36750Y79250
X37750Y79250
X35750Y79250
X37750Y79750
X35750Y79750
X36750Y79750
X35750Y80250
X37750Y80250
X36750Y80250
X36750Y80750
X37750Y80750
X35750Y80750
X37750Y81250
X35750Y81250
X36750Y81250
X37750Y81750
X36750Y81750
X35750Y81750
X35750Y82250
X36750Y82250
X37750Y82250
X37750Y82750
X35750Y82750
X36750Y82750
X37750Y83250
X36750Y83250
X35750Y83250
X36750Y83750
X35750Y83750
X37750Y83750
X37750Y84250
X36750Y84250
X36750Y84750
X37750Y84750
X37750Y85250
X36750Y85250
X37750Y86250
X37250Y86250
X36750Y86250
X37750Y86750
X37250Y86750
X36750Y86750
X37250Y87250
X37750Y87250
X36750Y87250
X36250Y87250
X35750Y87250
X36750Y87750
X36250Y87750
X35750Y87750
X37750Y87750
X37250Y87750
X37750Y88250
X37250Y88250
X36750Y88250
X36250Y88250
X35750Y88250
X35750Y92250
X36250Y92250
X36750Y92250
X37250Y92250
X37750Y92250
X37750Y92750
X37250Y92750
X36750Y92750
X36250Y92750
X35750Y92750
X38750Y92750
X38250Y92750
X40250Y92750
X39750Y92750
X39250Y92750
X38250Y92250
X38750Y92250
X40250Y92250
X39750Y92250
X39250Y92250
X40250Y91750
X39750Y91750
X39250Y91750
X40250Y91250
X39750Y91250
X39250Y91250
X39250Y90750
X39750Y90750
X40250Y90750
X40250Y89750
X39750Y89750
X39250Y89750
X40250Y89250
X39750Y89250
X39250Y89250
X40250Y88750
X39750Y88750
X39250Y88750
X38750Y88250
X38250Y88250
X40250Y88250
X39750Y88250
X39250Y88250
X38750Y87750
X38250Y87750
X40250Y87750
X39750Y87750
X39250Y87750
X38750Y87250
X38250Y87250
X40250Y87250
X39750Y87250
X39250Y87250
X38750Y86750
X38250Y86750
X40250Y86750
X39750Y86750
X39250Y86750
X38750Y86250
X38250Y86250
X40250Y86250
X39750Y86250
X39250Y86250
X38750Y85250
X39750Y85250
X38750Y84750
X39750Y84750
X38750Y84250
X39750Y84250
X38750Y83750
X39750Y83750
X38750Y83250
X39750Y83250
X38750Y82750
X39750Y82750
X38750Y82250
X39750Y82250
X38750Y81750
X39750Y81750
X38750Y81250
X39750Y81250
X38750Y80750
X39750Y80750
X38750Y80250
X39750Y80250
X38750Y79750
X39750Y79750
X38750Y79250
X39750Y79250
X38750Y78750
X39750Y78750
X38750Y78250
X39750Y78250
X38750Y77750
X39750Y77750
X38750Y77250
X39750Y77250
X38750Y76750
X39750Y76750
X38750Y76250
X38750Y75750
X38875Y74175
X39250Y73000
X39750Y73000
X40250Y73000
X38250Y72800
X40250Y72500
X39750Y72500
X39250Y72500
X39250Y69500
X39750Y69500
X40250Y69500
X38250Y69150
X40250Y69075
X39250Y69075
X39750Y69075
X38575Y67250
X39500Y63750
X39000Y63750
X38500Y63750
X39500Y63250
X38500Y63250
X39000Y63250
X39000Y62750
X39500Y62750
X40000Y62750
X39000Y62250
X39500Y62250
X38500Y62250
X40000Y62250
X39500Y61875
X40000Y61825
X38600Y61675
X40000Y60250
X39500Y60250
X40000Y59750
X39500Y59750
X40500Y59750
X38500Y59750
X39000Y59750
X39500Y59250
X40500Y59250
X39000Y59250
X40000Y59250
X38500Y59250
X39000Y58750
X38500Y58750
X40500Y58750
X40000Y58750
X39500Y58750
X38500Y58250
X39500Y58250
X39000Y58250
X39500Y57750
X39000Y57750
X38500Y57750
X39000Y55250
X38500Y55250
X40500Y55250
X39500Y55250
X40000Y55250
X39000Y54750
X38500Y54750
X40500Y54750
X40000Y54750
X39500Y54750
X39000Y54250
X38500Y54250
X40500Y54250
X40000Y54250
X39500Y54250
X40500Y53750
X40000Y53750
X39500Y53750
X39000Y53750
X38500Y53750
X40500Y53250
X39500Y53250
X40000Y53250
X39000Y53250
X38500Y53250
X40425Y45225
X38550Y45225
X40025Y45225
X40500Y44025
X38600Y44025
X40000Y44025
X39900Y42975
X38600Y42975
X39400Y39700
X38725Y38475
X40300Y38400
X39925Y37513
X38675Y37375
X39875Y36825
X38600Y36250
X39950Y35900
X39550Y35700
X39685Y34200
X39900Y32750
X38600Y32550
X40300Y32250
X38600Y32200
X38500Y31900
X38600Y31600
X38500Y31300
X38600Y31000
X39900Y30750
X38500Y30700
X38600Y30400
X40400Y30300
X39900Y30100
X38600Y30050
X39900Y29000
X38600Y28800
X38350Y28550
X38350Y28200
X38550Y27950
X38300Y27600
X38550Y27350
X38300Y27100
X40225Y26875
X38350Y26650
X39950Y26350
X38350Y26150
X41350Y25750
X43050Y26500
X42250Y26550
X42250Y27050
X42750Y28250
X42250Y28250
X42250Y28750
X42750Y28750
X42750Y29250
X42250Y29250
X42750Y29750
X42250Y29750
X42750Y30250
X42250Y30250
X41600Y30750
X42750Y30750
X42250Y30750
X42750Y31250
X42250Y31250
X42750Y31750
X42250Y31750
X42750Y32250
X41600Y32250
X42250Y32250
X42750Y32750
X42250Y32750
X42750Y33250
X42250Y33250
X42750Y33750
X42250Y33750
X42750Y34250
X42250Y34250
X42750Y34750
X42250Y34750
X42750Y35250
X42250Y35250
X41450Y35900
X40800Y36850
X41450Y37575
X41125Y39200
X41200Y40600
X40950Y42000
X41375Y42100
X41500Y53250
X41000Y53250
X42000Y53750
X41500Y53750
X41000Y53750
X42500Y54250
X42000Y54250
X41500Y54250
X41000Y54250
X43000Y54750
X42500Y54750
X42000Y54750
X41500Y54750
X41000Y54750
X43000Y55250
X41000Y55250
X41500Y55250
X42000Y55250
X42500Y55250
X43000Y55750
X42500Y55750
X43000Y56250
X42500Y56250
X43000Y56750
X42500Y56750
X43000Y57250
X42500Y57250
X43000Y57750
X42000Y57750
X42500Y57750
X43000Y58250
X42500Y58250
X42000Y58250
X43000Y58750
X41000Y58750
X42000Y58750
X42500Y58750
X43000Y59250
X42500Y59250
X42000Y59250
X41000Y59250
X40900Y59750
X42500Y59750
X43000Y59750
X42000Y59750
X41275Y59875
X43000Y60250
X42500Y60250
X42500Y60750
X43000Y60750
X43000Y61250
X42500Y61250
X42500Y61750
X43000Y61750
X42500Y62250
X43000Y62250
X42500Y62750
X43000Y62750
X42000Y63250
X43000Y63250
X42500Y63250
X42500Y63750
X43000Y63750
X42000Y63750
X42500Y69000
X41250Y69075
X41750Y69075
X40750Y69075
X40750Y69500
X41250Y69500
X41750Y69500
X42500Y69500
X41000Y70000
X41750Y70000
X42500Y70000
X41750Y70500
X41000Y70500
X42500Y70500
X41750Y71000
X42500Y71000
X41000Y71000
X41000Y71500
X42500Y71500
X41750Y71500
X41750Y72000
X42500Y72000
X41000Y72000
X41250Y72500
X40750Y72500
X42500Y72500
X41750Y72500
X41250Y73000
X42500Y73000
X41750Y73000
X40750Y73000
X43050Y74175
X42750Y76750
X41750Y76750
X40750Y76750
X40750Y77250
X41750Y77250
X42750Y77250
X41750Y77750
X40750Y77750
X42750Y77750
X41750Y78250
X42750Y78250
X40750Y78250
X40750Y78750
X42750Y78750
X41750Y78750
X40750Y79250
X41750Y79250
X42750Y79250
X42750Y79750
X41750Y79750
X40750Y79750
X42750Y80250
X40750Y80250
X41750Y80250
X42750Y80750
X40750Y80750
X41750Y80750
X40750Y81250
X41750Y81250
X42750Y81250
X40750Y81750
X42750Y81750
X41750Y81750
X42750Y82250
X41750Y82250
X40750Y82250
X41750Y82750
X40750Y82750
X42750Y82750
X40750Y83250
X41750Y83250
X42750Y83250
X40750Y83750
X42750Y83750
X41750Y83750
X40750Y84250
X42750Y84250
X42750Y84750
X40750Y84750
X40750Y85250
X42750Y85250
X42750Y86250
X40750Y86250
X42750Y86750
X40750Y86750
X42750Y87250
X42250Y87250
X41750Y87250
X41250Y87250
X40750Y87250
X41250Y87750
X42250Y87750
X40750Y87750
X41750Y87750
X42750Y87750
X42250Y88250
X41750Y88250
X41250Y88250
X40750Y88250
X42750Y88250
X42750Y88750
X42250Y88750
X41750Y88750
X41250Y88750
X40750Y88750
X42750Y89250
X42250Y89250
X41750Y89250
X41250Y89250
X40750Y89250
X42750Y89750
X42250Y89750
X41750Y89750
X41250Y89750
X40750Y89750
X40750Y90750
X41250Y90750
X41750Y90750
X42250Y90750
X42750Y90750
X42750Y91250
X42250Y91250
X41750Y91250
X41250Y91250
X40750Y91250
X42750Y91750
X42250Y91750
X41750Y91750
X41250Y91750
X40750Y91750
X42750Y92250
X42250Y92250
X41750Y92250
X41250Y92250
X40750Y92250
X42750Y92750
X42250Y92750
X41750Y92750
X41250Y92750
X40750Y92750
X43025Y93425
X42000Y93600
X42500Y94525
X43500Y94525
X44500Y94525
X45500Y94525
X44000Y93700
X45250Y92750
X44750Y92750
X44250Y92750
X43750Y92750
X43250Y92750
X45250Y92250
X44750Y92250
X44250Y92250
X43750Y92250
X43250Y92250
X45250Y91750
X44750Y91750
X44250Y91750
X43750Y91750
X43250Y91750
X45250Y91250
X44750Y91250
X44250Y91250
X43750Y91250
X43250Y91250
X45250Y90750
X43250Y90750
X43750Y90750
X44250Y90750
X44750Y90750
X45250Y90250
X44750Y90250
X45250Y89750
X44750Y89750
X43250Y89750
X45250Y89250
X44750Y89250
X43250Y89250
X45250Y88750
X44750Y88750
X43250Y88750
X45250Y88250
X44750Y88250
X43250Y88250
X45250Y87750
X44750Y87750
X43250Y87750
X45250Y87250
X44750Y87250
X43250Y87250
X45250Y86750
X44750Y86750
X43250Y86750
X45250Y86250
X44750Y86250
X43250Y86250
X45250Y85750
X44750Y85750
X45250Y85250
X43750Y85250
X44750Y85250
X45250Y84750
X43750Y84750
X44750Y84750
X45250Y84250
X43750Y84250
X44750Y84250
X45250Y83750
X43750Y83750
X44750Y83750
X45250Y83250
X43750Y83250
X44750Y83250
X45250Y82750
X43750Y82750
X44750Y82750
X45250Y82250
X43750Y82250
X44750Y82250
X45250Y81750
X43750Y81750
X44750Y81750
X45250Y81250
X43750Y81250
X44750Y81250
X45250Y80750
X43750Y80750
X44750Y80750
X45250Y80250
X43750Y80250
X44750Y80250
X45250Y79750
X43750Y79750
X44750Y79750
X43750Y79250
X45250Y79250
X44750Y79250
X43750Y78750
X45250Y78750
X44750Y78750
X43750Y78250
X45250Y78250
X44750Y78250
X45250Y77750
X43750Y77750
X44750Y77750
X43750Y77250
X45250Y77250
X44750Y77250
X45250Y76750
X44750Y76750
X43750Y76750
X45250Y76250
X44750Y76250
X43750Y76250
X45250Y75750
X44750Y75750
X43750Y75750
X43750Y75250
X44750Y75250
X43750Y74750
X43575Y67550
X43575Y67200
X43500Y66250
X43500Y65750
X43500Y65250
X43500Y64750
X43500Y64250
X43500Y63750
X43500Y63250
X43500Y62750
X43500Y62250
X43500Y61750
X43500Y61250
X43500Y60750
X43500Y60250
X43500Y59750
X43500Y59250
X43500Y58750
X43500Y58250
X43500Y57750
X43500Y57250
X43500Y56750
X43500Y56250
X43500Y55750
X43500Y55250
X43250Y35250
X44750Y35250
X44250Y35250
X43750Y35250
X45250Y35250
X45250Y34750
X44750Y34750
X44250Y34750
X43750Y34750
X43250Y34750
X44250Y34250
X45250Y34250
X44750Y34250
X43750Y34250
X43250Y34250
X45250Y33750
X44750Y33750
X44250Y33750
X43750Y33750
X43250Y33750
X45250Y33250
X44750Y33250
X44250Y33250
X43750Y33250
X43250Y33250
X45250Y32750
X44750Y32750
X44250Y32750
X43750Y32750
X43250Y32750
X45250Y32250
X43750Y32250
X44750Y32250
X43250Y32250
X44250Y32250
X45250Y31750
X44750Y31750
X43750Y31750
X44250Y31750
X43250Y31750
X45250Y31250
X44750Y31250
X44250Y31250
X43750Y31250
X43250Y31250
X43750Y30750
X43250Y30750
X44750Y30750
X44250Y30750
X45250Y30750
X45250Y30250
X44250Y30250
X44750Y30250
X43250Y30250
X43750Y30250
X45250Y29750
X43750Y29750
X44250Y29750
X43250Y29750
X44750Y29750
X44750Y29250
X44250Y29250
X43750Y29250
X45250Y29250
X43250Y29250
X44750Y28750
X43250Y28750
X45250Y28750
X44250Y28750
X43750Y28750
X44750Y28250
X44250Y28250
X43750Y28250
X45250Y28250
X43250Y28250
X44300Y27050
X45700Y26800
X44275Y26500
X45700Y26450
X45700Y26100
X44250Y25500
X45100Y25300
X43250Y25300
X46750Y28250
X46250Y28250
X45750Y28250
X47750Y28250
X47250Y28250
X45750Y28750
X46250Y28750
X46750Y28750
X47250Y28750
X47750Y28750
X46750Y29250
X46250Y29250
X45750Y29250
X47750Y29250
X47250Y29250
X46750Y29750
X46250Y29750
X45750Y29750
X47750Y29750
X47250Y29750
X45750Y30250
X46750Y30250
X46250Y30250
X47750Y30250
X47250Y30250
X47750Y30750
X47250Y30750
X46750Y30750
X46250Y30750
X45750Y30750
X45750Y31250
X47750Y31250
X47250Y31250
X46250Y31250
X46750Y31250
X46750Y31750
X46250Y31750
X47750Y31750
X47250Y31750
X45750Y31750
X47250Y32250
X45750Y32250
X46250Y32250
X47750Y32250
X46750Y32250
X46750Y32750
X46250Y32750
X45750Y32750
X47750Y32750
X47250Y32750
X47750Y33250
X47250Y33250
X46750Y33250
X46250Y33250
X45750Y33250
X47250Y33750
X46750Y33750
X46250Y33750
X45750Y33750
X47750Y33750
X46750Y34250
X46250Y34250
X45750Y34250
X47750Y34250
X47250Y34250
X47750Y34750
X46750Y34750
X46250Y34750
X45750Y34750
X47250Y34750
X46750Y35250
X46250Y35250
X45750Y35250
X47750Y35250
X47250Y35250
X48200Y72750
X45750Y76250
X46250Y76750
X45750Y76750
X46750Y77250
X46250Y77250
X45750Y77250
X47250Y77750
X46750Y77750
X46250Y77750
X45750Y77750
X46250Y78250
X45750Y78250
X47250Y78250
X46750Y78250
X46250Y78750
X45750Y78750
X47250Y78750
X46750Y78750
X46750Y79250
X45750Y79250
X47250Y79250
X46250Y79250
X46250Y79750
X45750Y79750
X46750Y79750
X47250Y79750
X46750Y80250
X46250Y80250
X45750Y80250
X47250Y80250
X46750Y80750
X46250Y80750
X45750Y80750
X47250Y80750
X45750Y81250
X46750Y81250
X47250Y81250
X46250Y81250
X47250Y81750
X45750Y81750
X46250Y81750
X46750Y81750
X47250Y82250
X46750Y82250
X46250Y82250
X45750Y82250
X46750Y82750
X46250Y82750
X45750Y82750
X47250Y82750
X47250Y83250
X46750Y83250
X45750Y83250
X46250Y83250
X45750Y83750
X46250Y83750
X46750Y83750
X47250Y83750
X46250Y84250
X47250Y84250
X45750Y84250
X46750Y84250
X46750Y84750
X46250Y84750
X45750Y84750
X47250Y84750
X47900Y84750
X46750Y85250
X46250Y85250
X45750Y85250
X47250Y85250
X46250Y85750
X45750Y85750
X47250Y85750
X46750Y85750
X47950Y85875
X47250Y86250
X46750Y86250
X46250Y86250
X45750Y86250
X47250Y86750
X46750Y86750
X46250Y86750
X45750Y86750
X45750Y87250
X47250Y87250
X46250Y87250
X46750Y87250
X47250Y87750
X46750Y87750
X46250Y87750
X45750Y87750
X46750Y88250
X46250Y88250
X45750Y88250
X47250Y88250
X46750Y88750
X46250Y88750
X45750Y88750
X47250Y88750
X46750Y89250
X46250Y89250
X45750Y89250
X47250Y89250
X46750Y89750
X46250Y89750
X45750Y89750
X47250Y89750
X46250Y90250
X45750Y90250
X47250Y90250
X46750Y90250
X46250Y90750
X47250Y90750
X46750Y90750
X45750Y90750
X47250Y91250
X45750Y91250
X46750Y91250
X46250Y91250
X46250Y91750
X45750Y91750
X46250Y92250
X45750Y92250
X46250Y92750
X45750Y92750
X46000Y93600
X46500Y94525
X47500Y94525
X48850Y93600
X50425Y93150
X49875Y93125
X50000Y85000
X48800Y83100
X50275Y73675
X49075Y73625
X50500Y73000
X49200Y71650
X50725Y71025
X50450Y35350
X49250Y35250
X48750Y35250
X48250Y35250
X48750Y34750
X48250Y34750
X49250Y34750
X49250Y34250
X48750Y34250
X48250Y34250
X49250Y33750
X48750Y33750
X48250Y33750
X49250Y33250
X48750Y33250
X48250Y33250
X49250Y32750
X48750Y32750
X48250Y32750
X48750Y32250
X48250Y32250
X49250Y32250
X49250Y31750
X48750Y31750
X48250Y31750
X49250Y31250
X48250Y31250
X48750Y31250
X49250Y30750
X48250Y30750
X48750Y30750
X49250Y30250
X48750Y30250
X48250Y30250
X49250Y29750
X48750Y29750
X48250Y29750
X48250Y29250
X48750Y29250
X49250Y29250
X48250Y28750
X48750Y28750
X49250Y28750
X48250Y28250
X48750Y28250
X49250Y28250
X50375Y24500
X50875Y24500
X51375Y24500
X51875Y24500
X52375Y24500
X52875Y24500
X52575Y28100
X51925Y28100
X50950Y28800
X53100Y28937
X51375Y29125
X53100Y29250
X51100Y29825
X52975Y30125
X52450Y30125
X51250Y30250
X52425Y30875
X52450Y31225
X51200Y31450
X51625Y31462
X53225Y31725
X52925Y31875
X52925Y32200
X52350Y32687
X52000Y32687
X51650Y32687
X52850Y33000
X52850Y33350
X50950Y33600
X52850Y33850
X52950Y34250
X52900Y34950
X52900Y35400
X52900Y35700
X52400Y35700
X52000Y35700
X51600Y35700
X51400Y45550
X52975Y45950
X51650Y46025
X51900Y46275
X52350Y47850
X52425Y48400
X52125Y48700
X52350Y49000
X52350Y49500
X51925Y52824
X52575Y52824
X51050Y53625
X53100Y53661
X53100Y54000
X51800Y54500
X52525Y54650
X52950Y55075
X52475Y55350
X51200Y55625
X52495Y55855
X51275Y55975
X51725Y56275
X52200Y56275
X53125Y56486
X52875Y56875
X51650Y57411
X52350Y57411
X52000Y57411
X52850Y57761
X52850Y58111
X51275Y58850
X52650Y58950
X53000Y58950
X52850Y59711
X52850Y60061
X52850Y60411
X52425Y60411
X52025Y60411
X51625Y60411
X51575Y70586
X52975Y70686
X51900Y71011
X51575Y71011
X52350Y72600
X51625Y73000
X52100Y73025
X52375Y73275
X51500Y73525
X51450Y82400
X53000Y82900
X51500Y83200
X52250Y83475
X51475Y83750
X53125Y86250
X51000Y93475
X53275Y84050
X53275Y82425
X54325Y77700
X54825Y77700
X55325Y77700
X54825Y77325
X54325Y77325
X55325Y77325
X54275Y74200
X53650Y74000
X54400Y73486
X54400Y73161
X54400Y72850
X54100Y72750
X54475Y72350
X53775Y72350
X53455Y72345
X55125Y72275
X53375Y71650
X53375Y70975
X54950Y70925
X54600Y70925
X55450Y70850
X54325Y70700
X54800Y70650
X53375Y70650
X53250Y57786
X55100Y56425
X53750Y56411
X54700Y56150
X54050Y55925
X54875Y55875
X54550Y55875
X53725Y55875
X54350Y54550
X55050Y54475
X55700Y54475
X53375Y54252
X55075Y54000
X55400Y54000
X55100Y53661
X53425Y53661
X55100Y53336
X55275Y52700
X54100Y49500
X53750Y49262
X54400Y48762
X54400Y48437
X54400Y48087
X54100Y48000
X53800Y47625
X53475Y47625
X55150Y47550
X53375Y46900
X53375Y46250
X54625Y46225
X54950Y46225
X55450Y46175
X54800Y45950
X53375Y45925
X54325Y45900
X53250Y33062
X53750Y31687
X55125Y31450
X54700Y31425
X54050Y31175
X54875Y31150
X54550Y31150
X53725Y31150
X54350Y29825
X55700Y29750
X55150Y29725
X53375Y29488
X55100Y29250
X55100Y28937
X53425Y28937
X55100Y28612
X55475Y28000
X53850Y28000
X53875Y24875
X53375Y24875
X54375Y24875
X54875Y24875
X55375Y24875
X53375Y24500
X54375Y24500
X54875Y24500
X55375Y24500
X53875Y24500
X55875Y24500
X56375Y24500
X56875Y24500
X57375Y24500
X57875Y24500
X57875Y24875
X56875Y24875
X56375Y24875
X55875Y24875
X57375Y24875
X57075Y28000
X57475Y28000
X55825Y28100
X57775Y28625
X57125Y28875
X57350Y29125
X57125Y29425
X56025Y29750
X56125Y30425
X57625Y31062
X56125Y31125
X57950Y31175
X56575Y31387
X56150Y31450
X57950Y31512
X57425Y41637
X57025Y41637
X56650Y41637
X57825Y41637
X56650Y42037
X56650Y42387
X56350Y43150
X56750Y43200
X56650Y43987
X56181Y44291
X56650Y44337
X57100Y44687
X57450Y44687
X57800Y44687
X56625Y45250
X56378Y45609
X55750Y45687
X57500Y45875
X57900Y45875
X57250Y46125
X55800Y46175
X58075Y46375
X56900Y46525
X56575Y47075
X58225Y47200
X56125Y47837
X56400Y48087
X58213Y48363
X56075Y48437
X56400Y48437
X57575Y49287
X56925Y49287
X57150Y52700
X57550Y52725
X58200Y52775
X55750Y52824
X57600Y53350
X57175Y53600
X57850Y53874
X57450Y53875
X57175Y54225
X56025Y54475
X56125Y55150
X57625Y55786
X57950Y55786
X56125Y55850
X56575Y56111
X56150Y56175
X57950Y56236
X56650Y66361
X57425Y66361
X57025Y66361
X57825Y66361
X56650Y66761
X56650Y67111
X56275Y67874
X56650Y67874
X58200Y67900
X56650Y68711
X56181Y69016
X56650Y69061
X57100Y69411
X57800Y69411
X57450Y69411
X56550Y69975
X56025Y70225
X56550Y70325
X57500Y70625
X57900Y70636
X55775Y70850
X57225Y70900
X58100Y71200
X56850Y71325
X56450Y71750
X56125Y72575
X56400Y72811
X56400Y73161
X56075Y73161
X58125Y73250
X56925Y74011
X57575Y74011
X56825Y77325
X57825Y77325
X55825Y77325
X57325Y77325
X56325Y77325
X56325Y77700
X57325Y77700
X55825Y77700
X57825Y77700
X56825Y77700
X58325Y77700
X60675Y77700
X60175Y77700
X59675Y77700
X59175Y77700
X58325Y77325
X60675Y77325
X59175Y77325
X59675Y77325
X60175Y77325
X60175Y74200
X59550Y73525
X60200Y73275
X59125Y73250
X59975Y72975
X59475Y72975
X58500Y72875
X60200Y72600
X58350Y71950
X59774Y71011
X59449Y71011
X59449Y70586
X60724Y60411
X60299Y60411
X59899Y60411
X59499Y60411
X60724Y60061
X60724Y59711
X60699Y58936
X59325Y58850
X60724Y58111
X60724Y57761
X60224Y57411
X59874Y57411
X59524Y57411
X59350Y56225
X60000Y56200
X59075Y55800
X60375Y55750
X60725Y55075
X59125Y54950
X60325Y54925
X58425Y54125
X59250Y54125
X58450Y53525
X59799Y52824
X60449Y52824
X60225Y49500
X59175Y49275
X59800Y48775
X60225Y48525
X60075Y48200
X59625Y48200
X60225Y47875
X59774Y46287
X59449Y46287
X59449Y45862
X59899Y35687
X60724Y35687
X59499Y35687
X60299Y35687
X60724Y35337
X60724Y34987
X60699Y34212
X59350Y34100
X60724Y33387
X60724Y33037
X59874Y32687
X59524Y32687
X60224Y32687
X59500Y31462
X59075Y31375
X60325Y31325
X59075Y31025
X60350Y30875
X60350Y30175
X59125Y30100
X59150Y29775
X58300Y29650
X59250Y29125
X60450Y28125
X59800Y28125
X58325Y28100
X59750Y24875
X60250Y24875
X59250Y24875
X58375Y24875
X58375Y24500
X59750Y24500
X59250Y24500
X60250Y24500
X62250Y24500
X62750Y24500
X61750Y24500
X61250Y24500
X60750Y24500
X60750Y24875
X61250Y24875
X61750Y24875
X62250Y24875
X62750Y24875
X61750Y27975
X63025Y28075
X61175Y28125
X62974Y28612
X62974Y28937
X61299Y28937
X60974Y28937
X62975Y29250
X60974Y29250
X61225Y29500
X62975Y29725
X62250Y29825
X60775Y30300
X62775Y31150
X62450Y31150
X61925Y31175
X61600Y31175
X62600Y31425
X63025Y31550
X61624Y31687
X61075Y31725
X60775Y31850
X60775Y32200
X61124Y33062
X61050Y34200
X61225Y45925
X62675Y45950
X62225Y45950
X60849Y45962
X62525Y46225
X62850Y46225
X61250Y46250
X61250Y46925
X63055Y47525
X62325Y47625
X61675Y47625
X61350Y47625
X61975Y48000
X62275Y48125
X62274Y48437
X62274Y48762
X61525Y49275
X61950Y49525
X61625Y52750
X61125Y52800
X62974Y53336
X62974Y53661
X61299Y53661
X60974Y53661
X62975Y53975
X60974Y54011
X61249Y54252
X62975Y54450
X62225Y54550
X62775Y55850
X62425Y55850
X61925Y55900
X61600Y55900
X62600Y56150
X63025Y56150
X61624Y56411
X60750Y56450
X61000Y56650
X60775Y56925
X61124Y57786
X61099Y58936
X61225Y70650
X62650Y70650
X60849Y70686
X62200Y70700
X62825Y70925
X62475Y70925
X61250Y70975
X61250Y71625
X63050Y72250
X61350Y72350
X61675Y72350
X62325Y72350
X61975Y72725
X62275Y72825
X62274Y73161
X62274Y73486
X61525Y74000
X62150Y74200
X63175Y77325
X61175Y77325
X61675Y77325
X62675Y77325
X62175Y77325
X62675Y77700
X61175Y77700
X61675Y77700
X62175Y77700
X63175Y77700
X65175Y77700
X64675Y77700
X64175Y77700
X63675Y77700
X65675Y77700
X64675Y77325
X65175Y77325
X65675Y77325
X63675Y77325
X64175Y77325
X64100Y74025
X65449Y74011
X64799Y74011
X63949Y73161
X64274Y73161
X64274Y72825
X63999Y72561
X64350Y71825
X64725Y71300
X63650Y70925
X63325Y70900
X65125Y70900
X65375Y70625
X63624Y70411
X64252Y70325
X64475Y69900
X65674Y69411
X65324Y69411
X64974Y69411
X64524Y69061
X64055Y69016
X64524Y68711
X64149Y67874
X64524Y67874
X64524Y67111
X64524Y66761
X65299Y66361
X64899Y66361
X64524Y66361
X65699Y66361
X64025Y56175
X64449Y56111
X64000Y55850
X65499Y55786
X64000Y55150
X63875Y54475
X63550Y54475
X65025Y54200
X65350Y53875
X65050Y53625
X65350Y53350
X63750Y52825
X65450Y52725
X65025Y52700
X63400Y52700
X64200Y49300
X65450Y49275
X64800Y49275
X64274Y48437
X63949Y48437
X64274Y48125
X63999Y47837
X64400Y47100
X64725Y46550
X63675Y46200
X63350Y46175
X65125Y46150
X65375Y45900
X63624Y45687
X64252Y45609
X64500Y45250
X64974Y44687
X65324Y44687
X65674Y44687
X64524Y44337
X64055Y44291
X64524Y43987
X64300Y43150
X64650Y43150
X64524Y42387
X64524Y42037
X65699Y41637
X65299Y41637
X64524Y41637
X64899Y41637
X64000Y31475
X64449Y31387
X64000Y31125
X65499Y31062
X64000Y30425
X63900Y29750
X63575Y29750
X65000Y29475
X65625Y29150
X65225Y29150
X65025Y28875
X65650Y28625
X63700Y28100
X65475Y28000
X65050Y28000
X63375Y28000
X65250Y24875
X64250Y24875
X63750Y24875
X63250Y24875
X64750Y24875
X64250Y24500
X63250Y24500
X65250Y24500
X64750Y24500
X63750Y24500
X66250Y24500
X65750Y24500
X68125Y24500
X67625Y24500
X67125Y24500
X67125Y24875
X65750Y24875
X66250Y24875
X68125Y24875
X67625Y24875
X67673Y28100
X67000Y28175
X66125Y28950
X67125Y29175
X67000Y29800
X67000Y30150
X68225Y30175
X68225Y30875
X66950Y31025
X65825Y31175
X68225Y31250
X66950Y31400
X67375Y31450
X65824Y31512
X68098Y32687
X67748Y32687
X67398Y32687
X67200Y34100
X67373Y35687
X67773Y35687
X68173Y35687
X66075Y43150
X67323Y45862
X65774Y45912
X67648Y46287
X67323Y46287
X65950Y46475
X68100Y47875
X67800Y48200
X67350Y48200
X66925Y48375
X68100Y48450
X66175Y48475
X67650Y48700
X67000Y49075
X66125Y49325
X68075Y49425
X67475Y49425
X67673Y52824
X66300Y53025
X66950Y53125
X66200Y53425
X66775Y53725
X65775Y53875
X67125Y53900
X66300Y54050
X66975Y55725
X68225Y55750
X65824Y55786
X68025Y56050
X66975Y56100
X67348Y56186
X65824Y56236
X68098Y57411
X67748Y57411
X67398Y57411
X67200Y58850
X68173Y60411
X67773Y60411
X67373Y60411
X66100Y67900
X67323Y70586
X65774Y70636
X67323Y71011
X67648Y71011
X65950Y71150
X66175Y71925
X66075Y72550
X68100Y72600
X66375Y72875
X67775Y72975
X67350Y73075
X66875Y73125
X68023Y73225
X67375Y73475
X67000Y73800
X66275Y74025
X67625Y74150
X68025Y74200
X67050Y77325
X68050Y77325
X67550Y77325
X66175Y77325
X67050Y77700
X68050Y77700
X66175Y77700
X67550Y77700
X69550Y77700
X70050Y77700
X70550Y77700
X68550Y77700
X69050Y77700
X70550Y77325
X70050Y77325
X69550Y77325
X69050Y77325
X68550Y77325
X70025Y74200
X69375Y74000
X70148Y73486
X70148Y73161
X70150Y72825
X69850Y72725
X69225Y72350
X70200Y72350
X69550Y72350
X69125Y71650
X69125Y70975
X70375Y70925
X70700Y70925
X70075Y70775
X68723Y70686
X69100Y70650
X70550Y70650
X68598Y60411
X68598Y60061
X68598Y59711
X68973Y58936
X68573Y58936
X68598Y58111
X68998Y57786
X68598Y57761
X68650Y56950
X68650Y56600
X68950Y56450
X69498Y56411
X70450Y56150
X69775Y55900
X69450Y55900
X70275Y55875
X70625Y55875
X68600Y55100
X68350Y54850
X70100Y54550
X69163Y54188
X68850Y54100
X69188Y53688
X69100Y53075
X68250Y52825
X69500Y52775
X69875Y49525
X69425Y49275
X70148Y48762
X70148Y48437
X70150Y48125
X69850Y48000
X69550Y47625
X70225Y47625
X69225Y47625
X69125Y46925
X69125Y46250
X70675Y46225
X70350Y46225
X68723Y45962
X70525Y45950
X70075Y45925
X69125Y45900
X68598Y35687
X68598Y35337
X68598Y35000
X68973Y34212
X68573Y34212
X68598Y33387
X68998Y33062
X68598Y33037
X68650Y32200
X68650Y31850
X68950Y31725
X69498Y31687
X70450Y31425
X69475Y31175
X69800Y31175
X70300Y31150
X70625Y31150
X68550Y30300
X70100Y29825
X69000Y29525
X68848Y29250
X69173Y28937
X68848Y28937
X68323Y28100
X69025Y28100
X69600Y28000
X69625Y24875
X70625Y24875
X69125Y24875
X70125Y24875
X68625Y24875
X69125Y24500
X70125Y24500
X68625Y24500
X70625Y24500
X69625Y24500
X71125Y24500
X71625Y24500
X72125Y24500
X72625Y24500
X73125Y24500
X71125Y24875
X73125Y24875
X72625Y24875
X72125Y24875
X71625Y24875
X71275Y28000
X72975Y28000
X71600Y28100
X70848Y28612
X72950Y28875
X70848Y28937
X73175Y29150
X70850Y29250
X72900Y29475
X70925Y29725
X71450Y29750
X71775Y29750
X71875Y30425
X71875Y31125
X72323Y31387
X71875Y31475
X70875Y31500
X73173Y41637
X72773Y41637
X72398Y41637
X72398Y42037
X72398Y42387
X72398Y43150
X72023Y43150
X72398Y43987
X71929Y44291
X72398Y44337
X72848Y44687
X73198Y44687
X72375Y45250
X72126Y45609
X71498Y45687
X72975Y46150
X71175Y46175
X71525Y46175
X72550Y46600
X72250Y47075
X70915Y47545
X71873Y47875
X72148Y48125
X71823Y48437
X72148Y48437
X72673Y49287
X72000Y49325
X72975Y52700
X71275Y52700
X71600Y52825
X70900Y53350
X73225Y53350
X72973Y53600
X70848Y53661
X73225Y53875
X70850Y53975
X72900Y54225
X70925Y54450
X71425Y54475
X71775Y54475
X71875Y55200
X71875Y55850
X72323Y56111
X70925Y56150
X71875Y56200
X73173Y66361
X72773Y66361
X72398Y66361
X72398Y66761
X72398Y67111
X72023Y67874
X72398Y67874
X72398Y68711
X71929Y69016
X72398Y69061
X73198Y69411
X72848Y69411
X72375Y69900
X72126Y70300
X71498Y70411
X73000Y70850
X71200Y70911
X71525Y70925
X72650Y71300
X72223Y71799
X70925Y72250
X71873Y72561
X72148Y72825
X71823Y73161
X72148Y73161
X72673Y74011
X72000Y74025
X72550Y77325
X71550Y77325
X71050Y77325
X72050Y77325
X73050Y77325
X72050Y77700
X73050Y77700
X72550Y77700
X71050Y77700
X71550Y77700
X73550Y77700
X74050Y77700
X74925Y77700
X75425Y77700
X74050Y77325
X73550Y77325
X74925Y77325
X75425Y77325
X75475Y74175
X73323Y74011
X74775Y73950
X74050Y73925
X75150Y73525
X74750Y73250
X75600Y73000
X75200Y73000
X74250Y72875
X73900Y72550
X74000Y71825
X73800Y71100
X75522Y71011
X75197Y71011
X75197Y70586
X73650Y70575
X73250Y70575
X73548Y69411
X74000Y67900
X73573Y66361
X75647Y60411
X75247Y60411
X75125Y58850
X75272Y57411
X75622Y57411
X73698Y56236
X75200Y56225
X74825Y56125
X73698Y55786
X73373Y55786
X74800Y55775
X74100Y54100
X74975Y53875
X73625Y53874
X74175Y53475
X74975Y52825
X75547Y52824
X74325Y52800
X73400Y52725
X75525Y49475
X74050Y49325
X73323Y49287
X74875Y49250
X75400Y48750
X74850Y48475
X73950Y48325
X75650Y48225
X75225Y48225
X73800Y46400
X75197Y46287
X75522Y46287
X73648Y45912
X73250Y45900
X75197Y45862
X73548Y44687
X73975Y43150
X73573Y41637
X75247Y35687
X75647Y35687
X75125Y34100
X75622Y32687
X75272Y32687
X73698Y31512
X74825Y31475
X75250Y31462
X73700Y31150
X74825Y31075
X73373Y31062
X74900Y30200
X74900Y29800
X75025Y29150
X73550Y29150
X74000Y29000
X73275Y28625
X75547Y28100
X74875Y28100
X73425Y28025
X74125Y24875
X73625Y24875
X75000Y24875
X75500Y24875
X75500Y24500
X74125Y24500
X73625Y24500
X75000Y24500
X78000Y24500
X77500Y24500
X77000Y24500
X76500Y24500
X76000Y24500
X76500Y24875
X77000Y24875
X77500Y24875
X78000Y24875
X76000Y24875
X77475Y28000
X76197Y28100
X76900Y28100
X77047Y28937
X76722Y28937
X76722Y29250
X76963Y29488
X77975Y29825
X76150Y30150
X76450Y30300
X76075Y30875
X78150Y31150
X77650Y31200
X77325Y31200
X76075Y31250
X77372Y31687
X76825Y31725
X76525Y31825
X76525Y32175
X75972Y32687
X76472Y33037
X76872Y33062
X76472Y33387
X76847Y34212
X76447Y34212
X76472Y34987
X76472Y35337
X76047Y35687
X76472Y35687
X76975Y45925
X77975Y45925
X76597Y45962
X77000Y46250
X77000Y46925
X77425Y47625
X77100Y47625
X78075Y47650
X75975Y47900
X77725Y48000
X78025Y48125
X78022Y48437
X75975Y48500
X78022Y48762
X77275Y49275
X75925Y49500
X77675Y49500
X77375Y52775
X76197Y52824
X76850Y52825
X76722Y53661
X77047Y53661
X76722Y54011
X76997Y54250
X77975Y54550
X76125Y54875
X76450Y55050
X76125Y55600
X78175Y55850
X77650Y55900
X77325Y55900
X76100Y55975
X77372Y56411
X76825Y56450
X76525Y56600
X76575Y56925
X75972Y57411
X76472Y57761
X76872Y57786
X76472Y58111
X76847Y58936
X76447Y58936
X76472Y59711
X76472Y60061
X76472Y60411
X76047Y60411
X78000Y70486
X76975Y70650
X76597Y70686
X78225Y70950
X77000Y70975
X77000Y71675
X77100Y72350
X77425Y72350
X78075Y72350
X75975Y72650
X77725Y72725
X78025Y72838
X78022Y73161
X75897Y73250
X78022Y73486
X77275Y74000
X75875Y74200
X77900Y74200
X77925Y77325
X77425Y77325
X76925Y77325
X75925Y77325
X76425Y77325
X75925Y77700
X76925Y77700
X77925Y77700
X76425Y77700
X77425Y77700
X78925Y77700
X78425Y77700
X79425Y77700
X80425Y77700
X79925Y77700
X78425Y77325
X78925Y77325
X79925Y77325
X80425Y77325
X79425Y77325
X79900Y74025
X80547Y74011
X79697Y73161
X80022Y73161
X80022Y72838
X79747Y72561
X78800Y72250
X80097Y71799
X80500Y71325
X78575Y70950
X79400Y70925
X79075Y70911
X78400Y70650
X79372Y70411
X80000Y70325
X80250Y69975
X80722Y69411
X80272Y69061
X79803Y69016
X80272Y68711
X79897Y67874
X80272Y67874
X80272Y67111
X80272Y66761
X80647Y66361
X80272Y66361
X78700Y56325
X79750Y56200
X78325Y56150
X80197Y56111
X79750Y55850
X78525Y55850
X79750Y55150
X79325Y54475
X79650Y54475
X78800Y54463
X78725Y53988
X78722Y53661
X78722Y53336
X79500Y52825
X78825Y52800
X79175Y52700
X79825Y49375
X80547Y49287
X79697Y48437
X80022Y48437
X80022Y48125
X79747Y47825
X78785Y47545
X80100Y47075
X80500Y46550
X78250Y46225
X78575Y46225
X79400Y46200
X79075Y46187
X78425Y45950
X79372Y45687
X80000Y45609
X80250Y45250
X80722Y44687
X80272Y44337
X79803Y44291
X80272Y43987
X80272Y43150
X79897Y43150
X80272Y42387
X80272Y42037
X80647Y41637
X80272Y41637
X78725Y31575
X79775Y31475
X78300Y31425
X80197Y31387
X78475Y31150
X79750Y31125
X79750Y30400
X79300Y29750
X79625Y29750
X78775Y29725
X78725Y29250
X78722Y28937
X78722Y28612
X79450Y28100
X79100Y28000
X78500Y24875
X79000Y24875
X80000Y24875
X79500Y24875
X80500Y24875
X79000Y24500
X79500Y24500
X80500Y24500
X78500Y24500
X80000Y24500
X82750Y24500
X82000Y24500
X81000Y24500
X81500Y24500
X82750Y24875
X81000Y24875
X81500Y24875
X82000Y24875
X80875Y28000
X81325Y28000
X82775Y28250
X81200Y28650
X80775Y28900
X81950Y29100
X82925Y29125
X81075Y29150
X81500Y29150
X80750Y29475
X82800Y29850
X82775Y30200
X81247Y31062
X82700Y31075
X81575Y31175
X82700Y31475
X83125Y31475
X81572Y31512
X83146Y32687
X82950Y34100
X83121Y35687
X81447Y41637
X81047Y41637
X81825Y43150
X81072Y44687
X81422Y44687
X83071Y45862
X81125Y45900
X81522Y45912
X80850Y46150
X83071Y46287
X81675Y46475
X82700Y48075
X83100Y48250
X82100Y48325
X82875Y49100
X82000Y49275
X81197Y49287
X80825Y52700
X81275Y52725
X82450Y52850
X82000Y52925
X82825Y53000
X81125Y53350
X80847Y53600
X81525Y53874
X81125Y53875
X82850Y53900
X82025Y54000
X80800Y54200
X81247Y55786
X81572Y55786
X82650Y55825
X82700Y56175
X83096Y56186
X81572Y56236
X83146Y57411
X82950Y58850
X83121Y60411
X81447Y66361
X81047Y66361
X81850Y67900
X81072Y69411
X81422Y69411
X83071Y70586
X81125Y70625
X81522Y70636
X80850Y70900
X83071Y71011
X81700Y71150
X81900Y71900
X81775Y72550
X82125Y72875
X83100Y73000
X82625Y73125
X83225Y73450
X81825Y73775
X81197Y74011
X82375Y74125
X82800Y74200
X81425Y77325
X82825Y77325
X81925Y77325
X80925Y77325
X81925Y77700
X82825Y77700
X81425Y77700
X80925Y77700
X83325Y77700
X83825Y77700
X84325Y77700
X84825Y77700
X85325Y77700
X85675Y74100
X85150Y74025
X83775Y73200
X83500Y72950
X85600Y72725
X83875Y72625
X85300Y72350
X84975Y72350
X84875Y71650
X83396Y71011
X84875Y70975
X84471Y70686
X84875Y70650
X84346Y60411
X83921Y60411
X83521Y60411
X84346Y60061
X84346Y59711
X84721Y58936
X84321Y58936
X84346Y58111
X84746Y57786
X84346Y57761
X83846Y57411
X83496Y57411
X84400Y56950
X84400Y56625
X84700Y56450
X85246Y56411
X83925Y56050
X85200Y55900
X85525Y55900
X83950Y55625
X84325Y55050
X84025Y54850
X84871Y54225
X84596Y53975
X84596Y53661
X84921Y53661
X84775Y52825
X84071Y52824
X83421Y52824
X85250Y52775
X83850Y49500
X85575Y49500
X83450Y49475
X85150Y49275
X83350Y48775
X83825Y48525
X83575Y48250
X85600Y48000
X83850Y47925
X85300Y47625
X84975Y47625
X84875Y46900
X83396Y46287
X84875Y46250
X84471Y45962
X84850Y45925
X83521Y35687
X83921Y35687
X84346Y35687
X84346Y35337
X84346Y34987
X84321Y34212
X84721Y34212
X84346Y33387
X84746Y33062
X84346Y33037
X83846Y32687
X83496Y32687
X84400Y32200
X84400Y31850
X84725Y31725
X85246Y31687
X83950Y31225
X85200Y31175
X85525Y31175
X83975Y30875
X84275Y30300
X83975Y30125
X84871Y29488
X84596Y29250
X84921Y28937
X84596Y28937
X84975Y28125
X84625Y28125
X83421Y28100
X84071Y28100
X83750Y24500
X84750Y24500
X85250Y24500
X83250Y24500
X84250Y24500
X86250Y24500
X85750Y24500
X87250Y24500
X87750Y24500
X86750Y24500
X86750Y24875
X87750Y24875
X87250Y24875
X87000Y28000
X87350Y28100
X86596Y28612
X86596Y28937
X86600Y29250
X86650Y29725
X87525Y29750
X87200Y29775
X85850Y29825
X87625Y30425
X87625Y31125
X86025Y31150
X86350Y31150
X88071Y31387
X86175Y31425
X86600Y31475
X87625Y31475
X88146Y41637
X88146Y42037
X88146Y42387
X87771Y43150
X88146Y43150
X88146Y43987
X87677Y44291
X88146Y44337
X88125Y45250
X87874Y45609
X87246Y45687
X85825Y45900
X86275Y45950
X86950Y46175
X87275Y46200
X86450Y46225
X86125Y46225
X88025Y47100
X86665Y47535
X85950Y47625
X87621Y47875
X85900Y48125
X87900Y48125
X87571Y48437
X85896Y48437
X87896Y48437
X85896Y48762
X87725Y49400
X87050Y52700
X86650Y52800
X87350Y52825
X86596Y53336
X86596Y53661
X86600Y53975
X86675Y54450
X87200Y54475
X87525Y54475
X85850Y54550
X87625Y55150
X87625Y55850
X86025Y55875
X86375Y55875
X88071Y56111
X86175Y56150
X87625Y56200
X86625Y56250
X88146Y66361
X88146Y66761
X88146Y67111
X87771Y67874
X88146Y67874
X88146Y68711
X87677Y69016
X88146Y69061
X88125Y70000
X87874Y70333
X87246Y70411
X85850Y70575
X86275Y70650
X86950Y70900
X86125Y70925
X87275Y70925
X86450Y70925
X88000Y71825
X86675Y72250
X85950Y72350
X87621Y72561
X85900Y72813
X87896Y72813
X85896Y73161
X87571Y73161
X87896Y73161
X85896Y73486
X87325Y77325
X86825Y77325
X87825Y77325
X86325Y77325
X85825Y77700
X86825Y77700
X87325Y77700
X86325Y77700
X87825Y77700
X88325Y77700
X88825Y77700
X89325Y77700
X89825Y77700
X90700Y77700
X89825Y77325
X89325Y77325
X88825Y77325
X88325Y77325
X90700Y77325
X89071Y74011
X88421Y74011
X90375Y73125
X90000Y72750
X89625Y72575
X89700Y71975
X88350Y71325
X89600Y71200
X88750Y70900
X89396Y70636
X89000Y70625
X88946Y69411
X89296Y69411
X88596Y69411
X89700Y67900
X89321Y66361
X88921Y66361
X88521Y66361
X89446Y56236
X90575Y56125
X89446Y55786
X89121Y55786
X90575Y55775
X88650Y54100
X90700Y53875
X89400Y53850
X89000Y53850
X89925Y53775
X88675Y53600
X89000Y53350
X89500Y53075
X89850Y52900
X89075Y52700
X88700Y52700
X89800Y49300
X89075Y49275
X88425Y49275
X90600Y48450
X89688Y48450
X88325Y46550
X89550Y46450
X88750Y46175
X89400Y45875
X89000Y45875
X88596Y44687
X88946Y44687
X89296Y44687
X89700Y43150
X89321Y41637
X88921Y41637
X88521Y41637
X89446Y31512
X90550Y31475
X89450Y31150
X90525Y31100
X89121Y31062
X90675Y30150
X90700Y29775
X88650Y29475
X89375Y29150
X88975Y29150
X89800Y28950
X88700Y28900
X89000Y28650
X90675Y28250
X89100Y27975
X88725Y27975
X90625Y24875
X88250Y24875
X89750Y24875
X88750Y24875
X89250Y24875
X90625Y24500
X88750Y24500
X89250Y24500
X89750Y24500
X88250Y24500
X91125Y24500
X93125Y24500
X92625Y24500
X92125Y24500
X91625Y24500
X91125Y24875
X91625Y24875
X92125Y24875
X92625Y24875
X93125Y24875
X93125Y28025
X91295Y28100
X91945Y28100
X92600Y28100
X92795Y28937
X92470Y28937
X92470Y29250
X90775Y29250
X92745Y29500
X91850Y30150
X92200Y30300
X91850Y30875
X93075Y31150
X91825Y31350
X91000Y31475
X93120Y31687
X92575Y31725
X92275Y31850
X92275Y32175
X91020Y32687
X91720Y32687
X91370Y32687
X92220Y33037
X92620Y33062
X92220Y33387
X90825Y34100
X92595Y34212
X92195Y34212
X92220Y34987
X92220Y35337
X92220Y35687
X90995Y35687
X91395Y35687
X91795Y35687
X90945Y45862
X92750Y45900
X92345Y45962
X92750Y46250
X90945Y46287
X91270Y46287
X92750Y46925
X92850Y47625
X93175Y47625
X91725Y47925
X90975Y48250
X91400Y48250
X91650Y48500
X91125Y48750
X90750Y49100
X93050Y49275
X91125Y49475
X91500Y49500
X93125Y52775
X91945Y52824
X91295Y52824
X92575Y52825
X92795Y53661
X92470Y53661
X92470Y53975
X92745Y54250
X91900Y54875
X92250Y55050
X91850Y55625
X93075Y55875
X91800Y56075
X90970Y56186
X93120Y56411
X92600Y56450
X92275Y56575
X92275Y56925
X91020Y57411
X91720Y57411
X91370Y57411
X92220Y57761
X92620Y57786
X92220Y58111
X90875Y58850
X92595Y58936
X92195Y58936
X92220Y59711
X92220Y60061
X90995Y60411
X92220Y60411
X91795Y60411
X91395Y60411
X90945Y70586
X92725Y70650
X92345Y70686
X92750Y70975
X91270Y71011
X90945Y71011
X92750Y71625
X92850Y72350
X93175Y72350
X91725Y72625
X91375Y72950
X90975Y73075
X91645Y73225
X91100Y73475
X93025Y74000
X91500Y74150
X91900Y74200
X91700Y77325
X91200Y77325
X92200Y77325
X92700Y77325
X93200Y77325
X93200Y77700
X92700Y77700
X91700Y77700
X91200Y77700
X92200Y77700
X94700Y77700
X94200Y77700
X93700Y77700
X95700Y77700
X95200Y77700
X94200Y77325
X93700Y77325
X94700Y77325
X95700Y77325
X95200Y77325
X93650Y74200
X93770Y73486
X93770Y73125
X95445Y73125
X93770Y72811
X93450Y72735
X95495Y72561
X93825Y72350
X94550Y72250
X94000Y70925
X94325Y70925
X94825Y70900
X95150Y70900
X94175Y70650
X93725Y70625
X95120Y70411
X95748Y70333
X95551Y69016
X95645Y67874
X94525Y56250
X95525Y56175
X94075Y56150
X94250Y55875
X93925Y55875
X93400Y55875
X95500Y55850
X95500Y55150
X93725Y54550
X95075Y54475
X95400Y54475
X94550Y54450
X94475Y53975
X94470Y53661
X94470Y53336
X95225Y52825
X94900Y52700
X93450Y49500
X95625Y49300
X93770Y48762
X93770Y48437
X95450Y48425
X93770Y48125
X93475Y48000
X95495Y47875
X93825Y47625
X94565Y47525
X94000Y46225
X94325Y46225
X95150Y46200
X94825Y46175
X94175Y45950
X93700Y45925
X95120Y45687
X95748Y45609
X95551Y44291
X95645Y43150
X94475Y31525
X95525Y31450
X94050Y31425
X94225Y31150
X93900Y31150
X93400Y31150
X95500Y31125
X95500Y30425
X93725Y29825
X95075Y29750
X95400Y29750
X94550Y29725
X94475Y29250
X94470Y28937
X94470Y28612
X95225Y28100
X94875Y28000
X93625Y24875
X95625Y24875
X95125Y24875
X94625Y24875
X94125Y24875
X94625Y24500
X94125Y24500
X93625Y24500
X95625Y24500
X95125Y24500
X96125Y24500
X97125Y24500
X96625Y24500
X97625Y24500
X96125Y24875
X97125Y24875
X97625Y24875
X96625Y24875
X96575Y27975
X97000Y28000
X96875Y28650
X96550Y28900
X97675Y28950
X96825Y29150
X97250Y29150
X96525Y29500
X96995Y31062
X97300Y31175
X95945Y31387
X97320Y31512
X96795Y41637
X96020Y41637
X96395Y41637
X97195Y41637
X96020Y42037
X96020Y42387
X97575Y43150
X96020Y43150
X96020Y43987
X96020Y44337
X96470Y44687
X96820Y44687
X97170Y44687
X96000Y45250
X96875Y45875
X97275Y45900
X96600Y46150
X97450Y46450
X96200Y46575
X95875Y47075
X97550Y48000
X95770Y48087
X95770Y48437
X97575Y49275
X96945Y49287
X96295Y49287
X96575Y52725
X97000Y52725
X97700Y52825
X96875Y53350
X97750Y53425
X96575Y53600
X97250Y53874
X96875Y53875
X97750Y53975
X96500Y54200
X96995Y55786
X97320Y55786
X95945Y56111
X97320Y56236
X97195Y66361
X96395Y66361
X96795Y66361
X96020Y66361
X96020Y66761
X96020Y67111
X96020Y67874
X97600Y67900
X96020Y68711
X96020Y69061
X97170Y69411
X96820Y69411
X96470Y69411
X96000Y69975
X96875Y70575
X97250Y70600
X96625Y70850
X97450Y71125
X96250Y71300
X95850Y71825
X97625Y71950
X97500Y72725
X95770Y72811
X97875Y72875
X95770Y73161
X96945Y74011
X96295Y74011
X96200Y77325
X96700Y77325
X97200Y77325
X97700Y77325
X97700Y77700
X96700Y77700
X97200Y77700
X96200Y77700
X98550Y77700
X99050Y77700
X100050Y77700
X100550Y77700
X99550Y77700
X99050Y77325
X98550Y77325
X100550Y77325
X100050Y77325
X99550Y77325
X99750Y74200
X99375Y74125
X98850Y73475
X99519Y73225
X98375Y73125
X98825Y72975
X99275Y72950
X99575Y72625
X100725Y72350
X100625Y71650
X99144Y71011
X98819Y71011
X100625Y70975
X100219Y70686
X100600Y70650
X98819Y70586
X99669Y60411
X99269Y60411
X100094Y60411
X98869Y60411
X100094Y60061
X100094Y59711
X100069Y58936
X100469Y58936
X98750Y58850
X100094Y58111
X100494Y57786
X100094Y57761
X99594Y57411
X99244Y57411
X98894Y57411
X100175Y56925
X100175Y56600
X100450Y56450
X98844Y56186
X98450Y56150
X99700Y56000
X98450Y55800
X99725Y55625
X100025Y55050
X99725Y54875
X100619Y54250
X100344Y54011
X98625Y53900
X100669Y53661
X100344Y53661
X98525Y52825
X100475Y52825
X99169Y52824
X99819Y52824
X99350Y49500
X99000Y49475
X98625Y49075
X99125Y48750
X99575Y48500
X99275Y48250
X98850Y48250
X98425Y48125
X99600Y47900
X100725Y47625
X100625Y46950
X98819Y46287
X99144Y46287
X100625Y46250
X100219Y45962
X100625Y45900
X98819Y45862
X99669Y35687
X98869Y35687
X99269Y35687
X100094Y35687
X100094Y35337
X100094Y34987
X100069Y34212
X100469Y34212
X98750Y34100
X100094Y33387
X100494Y33062
X100094Y33037
X98894Y32687
X99244Y32687
X99594Y32687
X100150Y32200
X100150Y31850
X100450Y31725
X98875Y31475
X98525Y31475
X99675Y31275
X98500Y31100
X99675Y30875
X100050Y30300
X98525Y30175
X99725Y30150
X98525Y29600
X100550Y29500
X98650Y29275
X100344Y29250
X100669Y28937
X100344Y28937
X99819Y28100
X99169Y28100
X100450Y28075
X98675Y28050
X99000Y24875
X98500Y24875
X100500Y24875
X99500Y24875
X100000Y24875
X99500Y24500
X99000Y24500
X100000Y24500
X100500Y24500
X98500Y24500
X103000Y24500
X102000Y24500
X102500Y24500
X101500Y24500
X101000Y24500
X103000Y24875
X102500Y24875
X102000Y24875
X101500Y24875
X101000Y24875
X102750Y28000
X101000Y28025
X103100Y28100
X102344Y28612
X102344Y28937
X102350Y29250
X102375Y29725
X102950Y29750
X101600Y29825
X101800Y31150
X102125Y31150
X101275Y31175
X100950Y31175
X101975Y31425
X102375Y31575
X100994Y31687
X102994Y45687
X101575Y45850
X102025Y45950
X102700Y46175
X103025Y46175
X102200Y46225
X101850Y46225
X102440Y47525
X101700Y47625
X101050Y47625
X101350Y48000
X101650Y48125
X101644Y48437
X101644Y48762
X100875Y49275
X101275Y49400
X102800Y52700
X103100Y52825
X102450Y52825
X102344Y53336
X102344Y53661
X102350Y53975
X102425Y54450
X102950Y54475
X101600Y54550
X102100Y55875
X101775Y55875
X101275Y55875
X100950Y55875
X101950Y56150
X102350Y56250
X100994Y56411
X102994Y70411
X102050Y70650
X101575Y70650
X102700Y70911
X103025Y70925
X102225Y70925
X101900Y70925
X102450Y72250
X101050Y72350
X101725Y72350
X101350Y72725
X101650Y72825
X101644Y73161
X101644Y73486
X100900Y73975
X101525Y74200
X101050Y77325
X102050Y77325
X103050Y77325
X102550Y77325
X101550Y77325
X102550Y77700
X103050Y77700
X101050Y77700
X101550Y77700
X102050Y77700
X104050Y77700
X104550Y77700
X105050Y77700
X105550Y77700
X103550Y77700
X105550Y77325
X105050Y77325
X104550Y77325
X104050Y77325
X103550Y77325
X104819Y74011
X104169Y74011
X103319Y73161
X103644Y73161
X103644Y72825
X103369Y72561
X105350Y72550
X105475Y71975
X103725Y71825
X104100Y71300
X105300Y71225
X104500Y70900
X105150Y70625
X104750Y70625
X103622Y70333
X103875Y69975
X104694Y69411
X105044Y69411
X104344Y69411
X103894Y69061
X103425Y69016
X103894Y68711
X105500Y67900
X103519Y67874
X103894Y67874
X103894Y67111
X103894Y66761
X105069Y66361
X104669Y66361
X103894Y66361
X104269Y66361
X105194Y56236
X103400Y56175
X103819Y56111
X103375Y55850
X105194Y55786
X104869Y55786
X103375Y55150
X103275Y54475
X104400Y54225
X104750Y53875
X105125Y53874
X105600Y53775
X104425Y53600
X104750Y53350
X105250Y53075
X105625Y52925
X104825Y52700
X104425Y52700
X104175Y49275
X104825Y49275
X103644Y48437
X103319Y48437
X105400Y48125
X103644Y48125
X103369Y47875
X103725Y47050
X104100Y46550
X105300Y46450
X104500Y46150
X105150Y45875
X104750Y45875
X103622Y45609
X103875Y45250
X105044Y44687
X104694Y44687
X104344Y44687
X103894Y44337
X103425Y44291
X103894Y43987
X105450Y43150
X103519Y43150
X103894Y43150
X103894Y42387
X103894Y42037
X103894Y41637
X105069Y41637
X104269Y41637
X104669Y41637
X105194Y31512
X103400Y31450
X103819Y31387
X105200Y31175
X103375Y31125
X104869Y31062
X103375Y30425
X103275Y29750
X104425Y29475
X105125Y29150
X104775Y29150
X105575Y28950
X104425Y28900
X104775Y28650
X104850Y28050
X104450Y28025
X105000Y24875
X103500Y24875
X105500Y24875
X104500Y24875
X104000Y24875
X103500Y24500
X104000Y24500
X105500Y24500
X105000Y24500
X104500Y24500
X107500Y24500
X106500Y24500
X108000Y24500
X107000Y24500
X107000Y24875
X106500Y24875
X107500Y24875
X108000Y24875
X106500Y28075
X107043Y28100
X107693Y28100
X108218Y28937
X108218Y29250
X106525Y29275
X106400Y29600
X107625Y30150
X106375Y30225
X107925Y30325
X107600Y30875
X106325Y31100
X107600Y31275
X106750Y31450
X106300Y31475
X108025Y31850
X108025Y32200
X107118Y32687
X107468Y32687
X106768Y32687
X107968Y33037
X107968Y33387
X106625Y34100
X107943Y34212
X107968Y34987
X107968Y35337
X107143Y35687
X107968Y35687
X106743Y35687
X107543Y35687
X106693Y45862
X108093Y45962
X106693Y46287
X107018Y46287
X107475Y47900
X106700Y48250
X107100Y48250
X107400Y48500
X106825Y48750
X106375Y49100
X107375Y49500
X107043Y52824
X107693Y52824
X108218Y53661
X106438Y53875
X108218Y54011
X107625Y54888
X107938Y55025
X107575Y55625
X106275Y55838
X107550Y56000
X106718Y56186
X106325Y56188
X108025Y56600
X108025Y56925
X107468Y57411
X107118Y57411
X106768Y57411
X107968Y57761
X107968Y58111
X106600Y58850
X107943Y58936
X107968Y59711
X107968Y60061
X107968Y60411
X107143Y60411
X106743Y60411
X107543Y60411
X106693Y70586
X108093Y70686
X107018Y71011
X106693Y71011
X107450Y72625
X107125Y72975
X106700Y72975
X107393Y73250
X106750Y73500
X107575Y74200
X107500Y77325
X107000Y77325
X106500Y77325
X108000Y77325
X108000Y77700
X107500Y77700
X106500Y77700
X107000Y77700
X109000Y77700
X108500Y77700
X109500Y77700
X110500Y77700
X110000Y77700
X108500Y77325
X109000Y77325
X109500Y77325
X110000Y77325
X110500Y77325
X109275Y74075
X108775Y73975
X109518Y73500
X109525Y73175
X109525Y72825
X109200Y72750
X108925Y72350
X109575Y72350
X108600Y72350
X110300Y72250
X108500Y71650
X108500Y70975
X110075Y70925
X109750Y70925
X110575Y70911
X108475Y70650
X109900Y70650
X109450Y70625
X108343Y58936
X108368Y57786
X108325Y56450
X108868Y56411
X110250Y56250
X109800Y56150
X109975Y55875
X109650Y55875
X109150Y55875
X108825Y55875
X109475Y54550
X110275Y54450
X108493Y54252
X110225Y53975
X108543Y53661
X110218Y53661
X110218Y53336
X108275Y52850
X108875Y52775
X110675Y52700
X108775Y49275
X109175Y49275
X109518Y48762
X109518Y48437
X109525Y48125
X109225Y48000
X109600Y47625
X108600Y47625
X108925Y47625
X110315Y47525
X108500Y46925
X108500Y46250
X110050Y46225
X109725Y46225
X110575Y46200
X109900Y45950
X109450Y45925
X108475Y45925
X108343Y34212
X108368Y33062
X108325Y31750
X108868Y31687
X110225Y31450
X109825Y31425
X109975Y31150
X109150Y31150
X109650Y31150
X108825Y31150
X109475Y29825
X110300Y29725
X108493Y29488
X110225Y29250
X110218Y28937
X108543Y28937
X110218Y28612
X108375Y28075
X108850Y28050
X110625Y28000
X110375Y24875
X108500Y24875
X109000Y24875
X109500Y24875
X108500Y24500
X109000Y24500
X110000Y24500
X111125Y24500
X112125Y24500
X112625Y24500
X113125Y24500
X111500Y24875
X113125Y24875
X112625Y24875
X112300Y27975
X110975Y28100
X112625Y28650
X112300Y28900
X112650Y29150
X113025Y29150
X112300Y29500
X111125Y29750
X110800Y29750
X111250Y30400
X113068Y31062
X112743Y31062
X111225Y31125
X111693Y31387
X111275Y31450
X113068Y31512
X112543Y41637
X111768Y41637
X112143Y41637
X112943Y41637
X111768Y42037
X111768Y42387
X111768Y43150
X111393Y43150
X111768Y43987
X111299Y44291
X111768Y44337
X112568Y44687
X112218Y44687
X112918Y44687
X111750Y45250
X111496Y45609
X110868Y45687
X112625Y45900
X113025Y45900
X112350Y46175
X110900Y46200
X113175Y46450
X111975Y46575
X111675Y47100
X111250Y47875
X111518Y48125
X111518Y48437
X111193Y48437
X112693Y49287
X112043Y49287
X112225Y52675
X110975Y52825
X112575Y53375
X112275Y53625
X113000Y53874
X112575Y53875
X112275Y54200
X110825Y54475
X111150Y54475
X111250Y55150
X112743Y55786
X113068Y55786
X111250Y55850
X111693Y56111
X111275Y56175
X113068Y56236
X112943Y66361
X112543Y66361
X111768Y66361
X112143Y66361
X111768Y66761
X111768Y67111
X111393Y67874
X111768Y67874
X111768Y68711
X111299Y69016
X111768Y69061
X112218Y69411
X112568Y69411
X112918Y69411
X111750Y70000
X111496Y70333
X110868Y70411
X112625Y70600
X113025Y70625
X112325Y70875
X110900Y70900
X113175Y71125
X111950Y71300
X111600Y71825
X111243Y72561
X111518Y72825
X111518Y73161
X111200Y73175
X112693Y74011
X112043Y74011
X113000Y77325
X112500Y77325
X111500Y77325
X111000Y77325
X112000Y77325
X111000Y77700
X112500Y77700
X112000Y77700
X111500Y77700
X113000Y77700
X115000Y77700
X114500Y77700
X114000Y77700
X113500Y77700
X115500Y77700
X114000Y77325
X113500Y77325
X115500Y77325
X114500Y77325
X115000Y77325
X113275Y72550
X113350Y67900
X113600Y52750
X113400Y49425
X113400Y48450
X113300Y43150
X114100Y31050
X117475Y30450
X115125Y30100
X116500Y29425
X115125Y24875
X113625Y24875
X114125Y24875
X115625Y24875
X114625Y24875
X114625Y24500
X114125Y24500
X115125Y24500
X115625Y24500
X113625Y24500
X116625Y24500
X116125Y24500
X117000Y24500
T3C.04F139S550
X21500Y28000
X21500Y29000
X21750Y35000
X22750Y35000
X21750Y40750
X22750Y40750
X21750Y41750
X22750Y41750
X21750Y42750
X22750Y42750
X21750Y43750
X22750Y43750
X21750Y44750
X22750Y44750
X29750Y86469
X35750Y86469
X35750Y84500
X29750Y84500
X36000Y58156
X31500Y58156
X36000Y56187
X31500Y56187
X37750Y34875
X34250Y25250
X33250Y25250
X38750Y34875
X40500Y56187
X40500Y58156
X41750Y84500
X41750Y86469
X48250Y86500
X49250Y86500
X48250Y87500
X49250Y87500
X48250Y88500
X49250Y88500
X48250Y89500
X49250Y89500
X48250Y90500
X49250Y90500
X51500Y93750
X52500Y93750
X51500Y92750
X52500Y92750
X51500Y91750
X52500Y91750
X51500Y90750
X52500Y90750
X51500Y89750
X52500Y89750
X51500Y88750
X52500Y88750
X51500Y87750
X52500Y87750
X51500Y86750
X52500Y86750
X51500Y85750
X52500Y85750
X51500Y84750
X52500Y84750
T4C.071F81S550
X22000Y89135
X23650Y89135
X25300Y89135
X28200Y89135
X29850Y89135
X25300Y91305
X28200Y91305
X23650Y91305
X29850Y91305
X22000Y91305
X31500Y91305
X34400Y91305
X37700Y91305
X36050Y91305
X31500Y89135
X34400Y89135
X36050Y89135
X37700Y89135
T5C.118F69S658
X22000Y94175
X25300Y94175
X28200Y94175
X31500Y94175
X34400Y94175
X37700Y94175
T6C.132F35S794
X51496Y26437
X51496Y75768
X84567Y75768
X68032Y51102
X84567Y26437
X117638Y26437
X101102Y51102
X117638Y75768
M30
