*
*
G04 PADS 9.2 Build Number: 414666 generated Gerber (RS-274-X) file*
G04 PC Version=2.1*
*
%IN "SC1B_REVD_ARC.pcb"*%
*
%MOIN*%
*
%FSLAX24Y24*%
*
*
*
*
G04 PC Standard Apertures*
*
*
G04 Thermal Relief Aperture macro.*
%AMTER*
1,1,$1,0,0*
1,0,$1-$2,0,0*
21,0,$3,$4,0,0,45*
21,0,$3,$4,0,0,135*
%
*
*
G04 Annular Aperture macro.*
%AMANN*
1,1,$1,0,0*
1,0,$2,0,0*
%
*
*
G04 Odd Aperture macro.*
%AMODD*
1,1,$1,0,0*
1,0,$1-0.005,0,0*
%
*
*
G04 PC Custom Aperture Macros*
*
*
*
*
*
*
G04 PC Aperture Table*
*
%ADD010C,0.001*%
%ADD021R,0.065X0.065*%
%ADD022C,0.065*%
%ADD028C,0.01*%
%ADD029C,0.007*%
%ADD032C,0.005*%
%ADD067C,0.255*%
%ADD069R,0.045X0.043*%
%ADD075R,0.032X0.032*%
%ADD079C,0.08*%
%ADD089R,0.05X0.03*%
%ADD090R,0.035X0.035*%
%ADD162R,0.043X0.045*%
%ADD183R,0.065X0.055*%
%ADD193R,0.03X0.05*%
%ADD240R,0.021X0.023*%
%ADD242R,0.023X0.021*%
%ADD320R,0.029X0.05*%
%ADD321R,0.022X0.05*%
%ADD323R,0.055X0.065*%
%ADD324R,0.02154X0.02862*%
%ADD328R,0.034X0.034*%
%ADD330R,0.029X0.055*%
%ADD331R,0.055X0.029*%
%ADD336R,0.11X0.11*%
%ADD337C,0.11*%
%ADD346C,0.175*%
%ADD347R,0.017X0.047*%
%ADD348R,0.192X0.113*%
%ADD349R,0.064X0.1*%
%ADD350R,0.064X0.046*%
*
*
*
*
G04 PC Circuitry*
G04 Layer Name SC1B_REVD_ARC.pcb - circuitry*
%LPD*%
*
*
G04 PC Custom Flashes*
G04 Layer Name SC1B_REVD_ARC.pcb - flashes*
%LPD*%
*
*
G04 PC Circuitry*
G04 Layer Name SC1B_REVD_ARC.pcb - circuitry*
%LPD*%
*
G54D10*
G54D21*
G01X48250Y90500D03*
X21750Y44750D03*
X29750Y84500D03*
X31500Y56187D03*
X41750Y84500D03*
X40500Y56187D03*
X36000D03*
X35750Y84500D03*
X33250Y25250D03*
X21500Y28000D03*
X21750Y35000D03*
X37750Y34875D03*
X51500Y93750D03*
G54D22*
X49250Y90500D03*
X48250Y89500D03*
X49250D03*
X48250Y88500D03*
X49250D03*
X48250Y87500D03*
X49250D03*
X48250Y86500D03*
X49250D03*
X22750Y44750D03*
X21750Y43750D03*
X22750D03*
X21750Y42750D03*
X22750D03*
X21750Y41750D03*
X22750D03*
X21750Y40750D03*
X22750D03*
X29750Y86468D03*
X31500Y58155D03*
X41750Y86468D03*
X40500Y58155D03*
X36000D03*
X35750Y86468D03*
X34250Y25250D03*
X21500Y29000D03*
X22750Y35000D03*
X38750Y34875D03*
X52500Y93750D03*
X51500Y92750D03*
X52500D03*
X51500Y91750D03*
X52500D03*
X51500Y90750D03*
X52500D03*
X51500Y89750D03*
X52500D03*
X51500Y88750D03*
X52500D03*
X51500Y87750D03*
X52500D03*
X51500Y86750D03*
X52500D03*
X51500Y85750D03*
X52500D03*
X51500Y84750D03*
X52500D03*
G54D28*
X20324Y101614D02*
X20256Y101567D01*
X20256D02*
X20188Y101473D01*
X20188D02*
X20154Y101380D01*
X20120Y101239*
Y101005*
X20154Y100864*
X20188Y100770*
X20188D02*
X20256Y100676D01*
X20256D02*
X20324Y100630D01*
X20324D02*
X20460D01*
X20460D02*
X20529Y100676D01*
X20529D02*
X20597Y100770D01*
X20597D02*
X20631Y100864D01*
X20665Y101005*
Y101239*
X20631Y101380*
X20597Y101473*
X20597D02*
X20529Y101567D01*
X20529D02*
X20460Y101614D01*
X20460D02*
X20324D01*
X20972D02*
Y100630D01*
Y101614D02*
X21279D01*
X21381Y101567*
X21381D02*
X21415Y101520D01*
X21415D02*
X21449Y101426D01*
X21449D02*
Y101333D01*
X21449D02*
X21415Y101239D01*
X21381Y101192*
X21381D02*
X21279Y101145D01*
X20972D02*
X21279D01*
X21279D02*
X21381Y101098D01*
X21381D02*
X21415Y101051D01*
X21415D02*
X21449Y100958D01*
X21449D02*
Y100817D01*
X21449D02*
X21415Y100723D01*
X21415D02*
X21381Y100676D01*
X21381D02*
X21279Y100630D01*
X20972*
X21756Y101614D02*
Y100630D01*
Y101614D02*
X22199D01*
X21756Y101145D02*
X22029D01*
X21756Y100630D02*
X22199D01*
X22506Y101614D02*
Y100630D01*
X22915*
X23222Y101614D02*
Y100630D01*
X24006Y101473D02*
X23938Y101567D01*
X23938D02*
X23835Y101614D01*
X23835D02*
X23699D01*
X23699D02*
X23597Y101567D01*
X23597D02*
X23529Y101473D01*
X23529D02*
Y101380D01*
X23563Y101286*
X23597Y101239*
X23665Y101192*
X23665D02*
X23870Y101098D01*
X23870D02*
X23938Y101051D01*
X23938D02*
X23972Y101005D01*
X24006Y100911*
Y100770*
X24006D02*
X23938Y100676D01*
X23938D02*
X23835Y100630D01*
X23835D02*
X23699D01*
X23699D02*
X23597Y100676D01*
X23597D02*
X23529Y100770D01*
X24313Y101614D02*
Y100630D01*
X24790Y101614D02*
X24313Y100958D01*
X24483Y101192D02*
X24790Y100630D01*
X25881Y101614D02*
Y100630D01*
X26358Y101614D02*
Y100630D01*
X25881Y101145D02*
X26358D01*
X26938Y101614D02*
X26665Y100630D01*
X26938Y101614D02*
X27210Y100630D01*
X26767Y100958D02*
X27108D01*
X27995Y101473D02*
X27926Y101567D01*
X27926D02*
X27824Y101614D01*
X27824D02*
X27688D01*
X27585Y101567*
X27585D02*
X27517Y101473D01*
X27517D02*
Y101380D01*
X27517D02*
X27551Y101286D01*
X27551D02*
X27585Y101239D01*
X27585D02*
X27654Y101192D01*
X27654D02*
X27858Y101098D01*
X27858D02*
X27926Y101051D01*
X27926D02*
X27960Y101005D01*
X27960D02*
X27995Y100911D01*
Y100770*
X27995D02*
X27926Y100676D01*
X27926D02*
X27824Y100630D01*
X27824D02*
X27688D01*
X27585Y100676*
X27585D02*
X27517Y100770D01*
X28301Y101614D02*
Y100630D01*
X28779Y101614D02*
Y100630D01*
X28301Y101145D02*
X28779D01*
X29085Y101614D02*
Y100630D01*
X29392Y101614D02*
Y100630D01*
Y101614D02*
X29870Y100630D01*
Y101614D02*
Y100630D01*
X30688Y101380D02*
X30654Y101473D01*
X30654D02*
X30585Y101567D01*
X30585D02*
X30517Y101614D01*
X30517D02*
X30381D01*
X30313Y101567*
X30313D02*
X30245Y101473D01*
X30245D02*
X30210Y101380D01*
X30210D02*
X30176Y101239D01*
X30176D02*
Y101005D01*
X30176D02*
X30210Y100864D01*
X30210D02*
X30245Y100770D01*
X30245D02*
X30313Y100676D01*
X30313D02*
X30381Y100630D01*
X30517*
X30517D02*
X30585Y100676D01*
X30585D02*
X30654Y100770D01*
X30654D02*
X30688Y100864D01*
Y101005*
X30517D02*
X30688D01*
X31779Y101614D02*
Y100630D01*
Y101614D02*
X32085D01*
X32085D02*
X32188Y101567D01*
X32188D02*
X32222Y101520D01*
X32222D02*
X32256Y101426D01*
X32256D02*
Y101333D01*
X32222Y101239*
X32188Y101192*
X32188D02*
X32085Y101145D01*
X31779D02*
X32085D01*
X32085D02*
X32188Y101098D01*
X32188D02*
X32222Y101051D01*
X32222D02*
X32256Y100958D01*
Y100817*
X32256D02*
X32222Y100723D01*
X32222D02*
X32188Y100676D01*
X32188D02*
X32085Y100630D01*
X32085D02*
X31779D01*
X32767Y101614D02*
X32699Y101567D01*
X32699D02*
X32631Y101473D01*
X32631D02*
X32597Y101380D01*
X32563Y101239*
Y101005*
X32597Y100864*
X32631Y100770*
X32631D02*
X32699Y100676D01*
X32699D02*
X32767Y100630D01*
X32767D02*
X32904D01*
X32972Y100676*
X32972D02*
X33040Y100770D01*
X33040D02*
X33074Y100864D01*
X33074D02*
X33108Y101005D01*
X33108D02*
Y101239D01*
X33108D02*
X33074Y101380D01*
X33074D02*
X33040Y101473D01*
X33040D02*
X32972Y101567D01*
X32972D02*
X32904Y101614D01*
X32767*
X33688D02*
X33415Y100630D01*
X33688Y101614D02*
X33960Y100630D01*
X33517Y100958D02*
X33858D01*
X34267Y101614D02*
Y100630D01*
Y101614D02*
X34574D01*
X34574D02*
X34676Y101567D01*
X34676D02*
X34710Y101520D01*
X34710D02*
X34745Y101426D01*
X34745D02*
Y101333D01*
X34710Y101239*
X34710D02*
X34676Y101192D01*
X34676D02*
X34574Y101145D01*
X34574D02*
X34267D01*
X34506D02*
X34745Y100630D01*
X35051Y101614D02*
Y100630D01*
Y101614D02*
X35290D01*
X35392Y101567*
X35392D02*
X35460Y101473D01*
X35460D02*
X35495Y101380D01*
X35529Y101239*
Y101005*
X35495Y100864*
X35460Y100770*
X35460D02*
X35392Y100676D01*
X35392D02*
X35290Y100630D01*
X35051*
X37131Y101380D02*
X37097Y101473D01*
X37097D02*
X37029Y101567D01*
X37029D02*
X36960Y101614D01*
X36960D02*
X36824D01*
X36824D02*
X36756Y101567D01*
X36756D02*
X36688Y101473D01*
X36688D02*
X36654Y101380D01*
X36620Y101239*
Y101005*
X36654Y100864*
X36688Y100770*
X36688D02*
X36756Y100676D01*
X36756D02*
X36824Y100630D01*
X36824D02*
X36960D01*
X36960D02*
X37029Y100676D01*
X37029D02*
X37097Y100770D01*
X37097D02*
X37131Y100864D01*
Y101005*
X36960D02*
X37131D01*
X37438Y101614D02*
Y100630D01*
Y101614D02*
X37881D01*
X37438Y101145D02*
X37710D01*
X37438Y100630D02*
X37881D01*
X38188Y101614D02*
Y100630D01*
Y101614D02*
X38665Y100630D01*
Y101614D02*
Y100630D01*
X39006Y101380D02*
Y101426D01*
X39006D02*
X39040Y101520D01*
X39040D02*
X39074Y101567D01*
X39074D02*
X39142Y101614D01*
X39142D02*
X39279D01*
X39347Y101567*
X39347D02*
X39381Y101520D01*
X39381D02*
X39415Y101426D01*
X39415D02*
Y101333D01*
X39381Y101239*
X39313Y101098*
X39313D02*
X38972Y100630D01*
X39449*
X40540Y101614D02*
Y100630D01*
Y101614D02*
X40847D01*
X40949Y101567*
X40949D02*
X40983Y101520D01*
X40983D02*
X41017Y101426D01*
X41017D02*
Y101333D01*
X41017D02*
X40983Y101239D01*
X40983D02*
X40949Y101192D01*
X40949D02*
X40847Y101145D01*
X40847D02*
X40540D01*
X40779D02*
X41017Y100630D01*
X41324Y101614D02*
Y100630D01*
Y101614D02*
X41767D01*
X41324Y101145D02*
X41597D01*
X41324Y100630D02*
X41767D01*
X42074Y101614D02*
X42347Y100630D01*
X42620Y101614D02*
X42347Y100630D01*
X43710Y101614D02*
Y100630D01*
Y101614D02*
X43949D01*
X43949D02*
X44051Y101567D01*
X44051D02*
X44120Y101473D01*
X44120D02*
X44154Y101380D01*
X44188Y101239*
Y101005*
X44154Y100864*
X44120Y100770*
X44120D02*
X44051Y100676D01*
X44051D02*
X43949Y100630D01*
X43949D02*
X43710D01*
X20324Y103614D02*
X20256Y103567D01*
X20256D02*
X20188Y103473D01*
X20188D02*
X20154Y103380D01*
X20120Y103239*
Y103005*
X20154Y102864*
X20188Y102770*
X20188D02*
X20256Y102676D01*
X20256D02*
X20324Y102630D01*
X20324D02*
X20460D01*
X20460D02*
X20529Y102676D01*
X20529D02*
X20597Y102770D01*
X20597D02*
X20631Y102864D01*
X20665Y103005*
Y103239*
X20631Y103380*
X20597Y103473*
X20597D02*
X20529Y103567D01*
X20529D02*
X20460Y103614D01*
X20460D02*
X20324D01*
X20972D02*
Y102630D01*
Y103614D02*
X21279D01*
X21381Y103567*
X21381D02*
X21415Y103520D01*
X21415D02*
X21449Y103426D01*
X21449D02*
Y103333D01*
X21449D02*
X21415Y103239D01*
X21381Y103192*
X21381D02*
X21279Y103145D01*
X20972D02*
X21279D01*
X21279D02*
X21381Y103098D01*
X21381D02*
X21415Y103051D01*
X21415D02*
X21449Y102958D01*
X21449D02*
Y102817D01*
X21449D02*
X21415Y102723D01*
X21415D02*
X21381Y102676D01*
X21381D02*
X21279Y102630D01*
X20972*
X21756Y103614D02*
Y102630D01*
Y103614D02*
X22199D01*
X21756Y103145D02*
X22029D01*
X21756Y102630D02*
X22199D01*
X22506Y103614D02*
Y102630D01*
X22915*
X23222Y103614D02*
Y102630D01*
X24006Y103473D02*
X23938Y103567D01*
X23938D02*
X23835Y103614D01*
X23835D02*
X23699D01*
X23699D02*
X23597Y103567D01*
X23597D02*
X23529Y103473D01*
X23529D02*
Y103380D01*
X23563Y103286*
X23597Y103239*
X23665Y103192*
X23665D02*
X23870Y103098D01*
X23870D02*
X23938Y103051D01*
X23938D02*
X23972Y103005D01*
X24006Y102911*
Y102770*
X24006D02*
X23938Y102676D01*
X23938D02*
X23835Y102630D01*
X23835D02*
X23699D01*
X23699D02*
X23597Y102676D01*
X23597D02*
X23529Y102770D01*
X24313Y103614D02*
Y102630D01*
X24790Y103614D02*
X24313Y102958D01*
X24483Y103192D02*
X24790Y102630D01*
X25165Y102676D02*
X25131Y102630D01*
X25097Y102676*
X25097D02*
X25131Y102723D01*
X25131D02*
X25165Y102676D01*
X25165D02*
Y102583D01*
X25131Y102489*
X25097Y102442*
X26256Y103614D02*
Y102630D01*
X26665*
X26972Y103614D02*
Y102630D01*
X27381*
X28199Y103380D02*
X28165Y103473D01*
X28165D02*
X28097Y103567D01*
X28097D02*
X28029Y103614D01*
X27892*
X27892D02*
X27824Y103567D01*
X27824D02*
X27756Y103473D01*
X27756D02*
X27722Y103380D01*
X27688Y103239*
Y103005*
X27722Y102864*
X27756Y102770*
X27756D02*
X27824Y102676D01*
X27824D02*
X27892Y102630D01*
X27892D02*
X28029D01*
X28097Y102676*
X28097D02*
X28165Y102770D01*
X28165D02*
X28199Y102864D01*
X28540Y102723D02*
X28506Y102676D01*
X28506D02*
X28540Y102630D01*
X28574Y102676*
X28574D02*
X28540Y102723D01*
X20557Y99368D02*
X20489Y99462D01*
X20489D02*
X20386Y99509D01*
X20386D02*
X20250D01*
X20148Y99462*
X20148D02*
X20080Y99368D01*
X20080D02*
Y99275D01*
X20114Y99181*
X20148Y99134*
X20216Y99087*
X20216D02*
X20420Y98993D01*
X20420D02*
X20489Y98946D01*
X20489D02*
X20523Y98900D01*
X20557Y98806*
Y98665*
X20557D02*
X20489Y98571D01*
X20489D02*
X20386Y98525D01*
X20386D02*
X20250D01*
X20148Y98571*
X20148D02*
X20080Y98665D01*
X21068Y99509D02*
X21000Y99462D01*
X21000D02*
X20932Y99368D01*
X20932D02*
X20898Y99275D01*
X20864Y99134*
Y98900*
X20898Y98759*
X20932Y98665*
X20932D02*
X21000Y98571D01*
X21000D02*
X21068Y98525D01*
X21068D02*
X21205D01*
X21273Y98571*
X21273D02*
X21341Y98665D01*
X21341D02*
X21375Y98759D01*
X21409Y98900*
X21409D02*
Y99134D01*
X21409D02*
X21375Y99275D01*
X21341Y99368*
X21341D02*
X21273Y99462D01*
X21273D02*
X21205Y99509D01*
X21068*
X21716D02*
Y98525D01*
X22125*
X22432Y99509D02*
Y98525D01*
Y99509D02*
X22670D01*
X22670D02*
X22773Y99462D01*
X22773D02*
X22841Y99368D01*
X22841D02*
X22875Y99275D01*
X22909Y99134*
X22909D02*
Y98900D01*
X22909D02*
X22875Y98759D01*
X22841Y98665*
X22841D02*
X22773Y98571D01*
X22773D02*
X22670Y98525D01*
X22670D02*
X22432D01*
X23216Y99509D02*
Y98525D01*
Y99509D02*
X23659D01*
X23216Y99040D02*
X23489D01*
X23216Y98525D02*
X23659D01*
X23966Y99509D02*
Y98525D01*
Y99509D02*
X24273D01*
X24375Y99462*
X24375D02*
X24409Y99415D01*
X24409D02*
X24443Y99321D01*
X24443D02*
Y99228D01*
X24443D02*
X24409Y99134D01*
X24409D02*
X24375Y99087D01*
X24375D02*
X24273Y99040D01*
X24273D02*
X23966D01*
X24205D02*
X24443Y98525D01*
X25534Y99509D02*
Y98525D01*
Y99509D02*
X25807Y98525D01*
X26080Y99509D02*
X25807Y98525D01*
X26080Y99509D02*
Y98525D01*
X26659Y99509D02*
X26386Y98525D01*
X26659Y99509D02*
X26932Y98525D01*
X26489Y98853D02*
X26830D01*
X27716Y99368D02*
X27648Y99462D01*
X27648D02*
X27545Y99509D01*
X27545D02*
X27409D01*
X27409D02*
X27307Y99462D01*
X27307D02*
X27239Y99368D01*
X27239D02*
Y99275D01*
X27273Y99181*
X27307Y99134*
X27375Y99087*
X27375D02*
X27580Y98993D01*
X27580D02*
X27648Y98946D01*
X27648D02*
X27682Y98900D01*
X27716Y98806*
Y98665*
X27716D02*
X27648Y98571D01*
X27648D02*
X27545Y98525D01*
X27545D02*
X27409D01*
X27409D02*
X27307Y98571D01*
X27307D02*
X27239Y98665D01*
X28023Y99509D02*
Y98525D01*
X28500Y99509D02*
X28023Y98853D01*
X28193Y99087D02*
X28500Y98525D01*
X30068Y99368D02*
X30000Y99462D01*
X30000D02*
X29898Y99509D01*
X29761*
X29761D02*
X29659Y99462D01*
X29659D02*
X29591Y99368D01*
X29591D02*
Y99275D01*
X29625Y99181*
X29659Y99134*
X29659D02*
X29727Y99087D01*
X29727D02*
X29932Y98993D01*
X29932D02*
X30000Y98946D01*
X30000D02*
X30034Y98900D01*
X30034D02*
X30068Y98806D01*
X30068D02*
Y98665D01*
X30068D02*
X30000Y98571D01*
X30000D02*
X29898Y98525D01*
X29761*
X29761D02*
X29659Y98571D01*
X29659D02*
X29591Y98665D01*
X30375Y99509D02*
Y98525D01*
Y99509D02*
X30818D01*
X30375Y99040D02*
X30648D01*
X30375Y98525D02*
X30818D01*
X31636Y99275D02*
X31602Y99368D01*
X31602D02*
X31534Y99462D01*
X31534D02*
X31466Y99509D01*
X31330*
X31261Y99462*
X31261D02*
X31193Y99368D01*
X31193D02*
X31159Y99275D01*
X31159D02*
X31125Y99134D01*
Y98900*
X31159Y98759*
X31159D02*
X31193Y98665D01*
X31193D02*
X31261Y98571D01*
X31261D02*
X31330Y98525D01*
X31466*
X31534Y98571*
X31534D02*
X31602Y98665D01*
X31602D02*
X31636Y98759D01*
X32148Y99509D02*
X32080Y99462D01*
X32080D02*
X32011Y99368D01*
X32011D02*
X31977Y99275D01*
X31977D02*
X31943Y99134D01*
X31943D02*
Y98900D01*
X31943D02*
X31977Y98759D01*
X31977D02*
X32011Y98665D01*
X32011D02*
X32080Y98571D01*
X32080D02*
X32148Y98525D01*
X32284*
X32284D02*
X32352Y98571D01*
X32352D02*
X32420Y98665D01*
X32420D02*
X32455Y98759D01*
X32489Y98900*
Y99134*
X32455Y99275*
X32420Y99368*
X32420D02*
X32352Y99462D01*
X32352D02*
X32284Y99509D01*
X32284D02*
X32148D01*
X32795D02*
Y98525D01*
Y99509D02*
X33273Y98525D01*
Y99509D02*
Y98525D01*
X33580Y99509D02*
Y98525D01*
Y99509D02*
X33818D01*
X33818D02*
X33920Y99462D01*
X33920D02*
X33989Y99368D01*
X33989D02*
X34023Y99275D01*
X34057Y99134*
Y98900*
X34023Y98759*
X33989Y98665*
X33989D02*
X33920Y98571D01*
X33920D02*
X33818Y98525D01*
X33818D02*
X33580D01*
X34636Y99509D02*
X34364Y98525D01*
X34636Y99509D02*
X34909Y98525D01*
X34466Y98853D02*
X34807D01*
X35216Y99509D02*
Y98525D01*
Y99509D02*
X35523D01*
X35625Y99462*
X35625D02*
X35659Y99415D01*
X35659D02*
X35693Y99321D01*
X35693D02*
Y99228D01*
X35693D02*
X35659Y99134D01*
X35659D02*
X35625Y99087D01*
X35625D02*
X35523Y99040D01*
X35523D02*
X35216D01*
X35455D02*
X35693Y98525D01*
X36000Y99509D02*
X36273Y99040D01*
X36273D02*
Y98525D01*
X36545Y99509D02*
X36273Y99040D01*
X38114Y99368D02*
X38045Y99462D01*
X38045D02*
X37943Y99509D01*
X37943D02*
X37807D01*
X37705Y99462*
X37705D02*
X37636Y99368D01*
X37636D02*
Y99275D01*
X37636D02*
X37670Y99181D01*
X37670D02*
X37705Y99134D01*
X37773Y99087*
X37773D02*
X37977Y98993D01*
X37977D02*
X38045Y98946D01*
X38045D02*
X38080Y98900D01*
X38114Y98806*
Y98665*
X38114D02*
X38045Y98571D01*
X38045D02*
X37943Y98525D01*
X37943D02*
X37807D01*
X37705Y98571*
X37705D02*
X37636Y98665D01*
X38420Y99509D02*
Y98525D01*
X38727Y99509D02*
Y98525D01*
Y99509D02*
X38966D01*
X39068Y99462*
X39068D02*
X39136Y99368D01*
X39136D02*
X39170Y99275D01*
X39170D02*
X39205Y99134D01*
Y98900*
X39170Y98759*
X39170D02*
X39136Y98665D01*
X39136D02*
X39068Y98571D01*
X39068D02*
X38966Y98525D01*
X38727*
X39511Y99509D02*
Y98525D01*
Y99509D02*
X39955D01*
X39511Y99040D02*
X39784D01*
X39511Y98525D02*
X39955D01*
X117300Y65200D02*
X50550D01*
Y62050*
X117300*
Y65200*
X117200Y40450D02*
X45050D01*
Y37300*
X117200*
Y40450*
X50550Y65199D02*
X117300D01*
X50550Y65109D02*
X117300D01*
X50550Y65019D02*
X117300D01*
X50550Y64929D02*
X117300D01*
X50550Y64839D02*
X117300D01*
X50550Y64749D02*
X117300D01*
X50550Y64659D02*
X117300D01*
X50550Y64569D02*
X117300D01*
X50550Y64479D02*
X117300D01*
X50550Y64389D02*
X117300D01*
X50550Y64299D02*
X117300D01*
X50550Y64209D02*
X117300D01*
X50550Y64119D02*
X117300D01*
X50550Y64029D02*
X117300D01*
X50550Y63939D02*
X117300D01*
X50550Y63849D02*
X117300D01*
X50550Y63759D02*
X117300D01*
X50550Y63669D02*
X117300D01*
X50550Y63579D02*
X117300D01*
X50550Y63489D02*
X117300D01*
X50550Y63399D02*
X117300D01*
X50550Y63309D02*
X117300D01*
X50550Y63219D02*
X117300D01*
X50550Y63129D02*
X117300D01*
X50550Y63039D02*
X117300D01*
X50550Y62949D02*
X117300D01*
X50550Y62859D02*
X117300D01*
X50550Y62769D02*
X117300D01*
X50550Y62679D02*
X117300D01*
X50550Y62589D02*
X117300D01*
X50550Y62499D02*
X117300D01*
X50550Y62409D02*
X117300D01*
X50550Y62319D02*
X117300D01*
X50550Y62229D02*
X117300D01*
X50550Y62139D02*
X117300D01*
X45050Y40449D02*
X117200D01*
X45050Y40359D02*
X117200D01*
X45050Y40269D02*
X117200D01*
X45050Y40179D02*
X117200D01*
X45050Y40089D02*
X117200D01*
X45050Y39999D02*
X117200D01*
X45050Y39909D02*
X117200D01*
X45050Y39819D02*
X117200D01*
X45050Y39729D02*
X117200D01*
X45050Y39639D02*
X117200D01*
X45050Y39549D02*
X117200D01*
X45050Y39459D02*
X117200D01*
X45050Y39369D02*
X117200D01*
X45050Y39279D02*
X117200D01*
X45050Y39189D02*
X117200D01*
X45050Y39099D02*
X117200D01*
X45050Y39009D02*
X117200D01*
X45050Y38919D02*
X117200D01*
X45050Y38829D02*
X117200D01*
X45050Y38739D02*
X117200D01*
X45050Y38649D02*
X117200D01*
X45050Y38559D02*
X117200D01*
X45050Y38469D02*
X117200D01*
X45050Y38379D02*
X117200D01*
X45050Y38289D02*
X117200D01*
X45050Y38199D02*
X117200D01*
X45050Y38109D02*
X117200D01*
X45050Y38019D02*
X117200D01*
X45050Y37929D02*
X117200D01*
X45050Y37839D02*
X117200D01*
X45050Y37749D02*
X117200D01*
X45050Y37659D02*
X117200D01*
X45050Y37569D02*
X117200D01*
X45050Y37479D02*
X117200D01*
X45050Y37389D02*
X117200D01*
X25000Y20000D02*
X20000D01*
Y25000*
X59250Y80236D02*
X54250D01*
Y85375*
X49242Y95200D02*
X54251D01*
Y90202*
X116570Y80236D02*
X121570D01*
Y75250*
X20000Y90193D02*
Y95200D01*
X24965*
X121570Y25000D02*
Y20000D01*
X116570*
X126750Y99250D02*
G75*
G03X126750I-1000J0D01*
G01X126250D02*
G03X126250I-500J0D01*
G01X125750Y101250D02*
Y97250D01*
X123750Y99250D02*
X127750D01*
X126750Y16000D02*
G03X126750I-1000J0D01*
G01X126250D02*
G03X126250I-500J0D01*
G01X125750Y18000D02*
Y14000D01*
X123750Y16000D02*
X127750D01*
X17000D02*
G03X17000I-1000J0D01*
G01X16500D02*
G03X16500I-500J0D01*
G01X16000Y18000D02*
Y14000D01*
X14000Y16000D02*
X18000D01*
G54D29*
X53500Y30687D02*
Y30187D01*
X86996Y46687D02*
Y47187D01*
X85996Y46687D02*
Y47187D01*
X84496Y46687D02*
Y47187D01*
X83996Y46687D02*
Y47187D01*
X83496Y46687D02*
Y47187D01*
X82996Y46687D02*
Y47187D01*
X84996Y30687D02*
Y30187D01*
X85496Y30687D02*
Y30187D01*
X86496Y30687D02*
Y30187D01*
X87996Y30687D02*
Y30187D01*
X88996Y30687D02*
Y30187D01*
X89496Y30687D02*
Y30187D01*
X94870Y46687D02*
Y47187D01*
X93870Y46687D02*
Y47187D01*
X92370Y46687D02*
Y47187D01*
X91870Y46687D02*
Y47187D01*
X91370Y46687D02*
Y47187D01*
X90870Y46687D02*
Y47187D01*
X93370Y30687D02*
Y30187D01*
X94370Y30687D02*
Y30187D01*
X95870Y30687D02*
Y30187D01*
X96870Y30687D02*
Y30187D01*
X97370Y30687D02*
Y30187D01*
X103244Y46687D02*
Y47187D01*
X101744Y46687D02*
Y47187D01*
X100244Y46687D02*
Y47187D01*
X99744Y46687D02*
Y47187D01*
X99244Y46687D02*
Y47187D01*
X98744Y46687D02*
Y47187D01*
X100744Y30687D02*
Y30187D01*
X102244Y30687D02*
Y30187D01*
X103744Y30687D02*
Y30187D01*
X104744Y30687D02*
Y30187D01*
X105244Y30687D02*
Y30187D01*
X109618Y46687D02*
Y47187D01*
X108118Y46687D02*
Y47187D01*
X107618Y46687D02*
Y47187D01*
X107118Y46687D02*
Y47187D01*
X106618Y46687D02*
Y47187D01*
X110118Y30687D02*
Y30187D01*
X111618Y30687D02*
Y30187D01*
X112618Y30687D02*
Y30187D01*
X113118Y30687D02*
Y30187D01*
X111118Y71411D02*
Y71911D01*
X110618Y71411D02*
Y71911D01*
X110118Y71411D02*
Y71911D01*
X108118Y71411D02*
Y71911D01*
X107618Y71411D02*
Y71911D01*
X107118Y71411D02*
Y71911D01*
X106618Y71411D02*
Y71911D01*
X108618Y55411D02*
Y54911D01*
X109118Y55411D02*
Y54911D01*
X109618Y55411D02*
Y54911D01*
X111618Y55411D02*
Y54911D01*
X112618Y55411D02*
Y54911D01*
X113118Y55411D02*
Y54911D01*
X102744Y71411D02*
Y71911D01*
X102244Y71411D02*
Y71911D01*
X100244Y71411D02*
Y71911D01*
X99744Y71411D02*
Y71911D01*
X99244Y71411D02*
Y71911D01*
X98744Y71411D02*
Y71911D01*
X56000Y46687D02*
Y47187D01*
X55500Y46687D02*
Y47187D01*
X55000Y46687D02*
Y47187D01*
X54500Y46687D02*
Y47187D01*
X53000Y46687D02*
Y47187D01*
X52500Y46687D02*
Y47187D01*
X52000Y46687D02*
Y47187D01*
X51500Y46687D02*
Y47187D01*
X101244Y55411D02*
Y54911D01*
X101744Y55411D02*
Y54911D01*
X103744Y55411D02*
Y54911D01*
X104744Y55411D02*
Y54911D01*
X105244Y55411D02*
Y54911D01*
X95370Y71411D02*
Y71911D01*
X94370Y71411D02*
Y71911D01*
X92370Y71411D02*
Y71911D01*
X91870Y71411D02*
Y71911D01*
X91370Y71411D02*
Y71911D01*
X90870Y71411D02*
Y71911D01*
X92870Y55411D02*
Y54911D01*
X93870Y55411D02*
Y54911D01*
X95870Y55411D02*
Y54911D01*
X96870Y55411D02*
Y54911D01*
X97370Y55411D02*
Y54911D01*
X86496Y71411D02*
Y71911D01*
X84496Y71411D02*
Y71911D01*
X83996Y71411D02*
Y71911D01*
X83496Y71411D02*
Y71911D01*
X82996Y71411D02*
Y71911D01*
X85996Y55411D02*
Y54911D01*
X87996Y55411D02*
Y54911D01*
X88996Y55411D02*
Y54911D01*
X89496Y55411D02*
Y54911D01*
X79622Y71411D02*
Y71911D01*
X79122Y71411D02*
Y71911D01*
X76622Y71411D02*
Y71911D01*
X76122Y71411D02*
Y71911D01*
X75622Y71411D02*
Y71911D01*
X75122Y71411D02*
Y71911D01*
X77122Y55411D02*
Y54911D01*
X77622Y55411D02*
Y54911D01*
X80122Y55411D02*
Y54911D01*
X81122Y55411D02*
Y54911D01*
X81622Y55411D02*
Y54911D01*
X71248Y71411D02*
Y71911D01*
X68748Y71411D02*
Y71911D01*
X68248Y71411D02*
Y71911D01*
X67748Y71411D02*
Y71911D01*
X67248Y71411D02*
Y71911D01*
X69748Y55411D02*
Y54911D01*
X72248Y55411D02*
Y54911D01*
X73248Y55411D02*
Y54911D01*
X73748Y55411D02*
Y54911D01*
X63874Y71411D02*
Y71911D01*
X60874Y71411D02*
Y71911D01*
X60374Y71411D02*
Y71911D01*
X59874Y71411D02*
Y71911D01*
X59374Y71411D02*
Y71911D01*
X54000Y30687D02*
Y30187D01*
X54500Y30687D02*
Y30187D01*
X55000Y30687D02*
Y30187D01*
X56500Y30687D02*
Y30187D01*
X57500Y30687D02*
Y30187D01*
X58000Y30687D02*
Y30187D01*
X61374Y55411D02*
Y54911D01*
X64374Y55411D02*
Y54911D01*
X65374Y55411D02*
Y54911D01*
X65874Y55411D02*
Y54911D01*
X53000Y71411D02*
Y71911D01*
X52500Y71411D02*
Y71911D01*
X52000Y71411D02*
Y71911D01*
X51500Y71411D02*
Y71911D01*
X56500Y55411D02*
Y54911D01*
X57500Y55411D02*
Y54911D01*
X58000Y55411D02*
Y54911D01*
X63374Y46687D02*
Y47187D01*
X62874Y46687D02*
Y47187D01*
X62374Y46687D02*
Y47187D01*
X60874Y46687D02*
Y47187D01*
X60374Y46687D02*
Y47187D01*
X59874Y46687D02*
Y47187D01*
X59374Y46687D02*
Y47187D01*
X61874Y30687D02*
Y30187D01*
X62374Y30687D02*
Y30187D01*
X62874Y30687D02*
Y30187D01*
X64374Y30687D02*
Y30187D01*
X65374Y30687D02*
Y30187D01*
X65874Y30687D02*
Y30187D01*
X71748Y46687D02*
Y47187D01*
X70748Y46687D02*
Y47187D01*
X70248Y46687D02*
Y47187D01*
X68748Y46687D02*
Y47187D01*
X68248Y46687D02*
Y47187D01*
X67748Y46687D02*
Y47187D01*
X67248Y46687D02*
Y47187D01*
X69248Y30687D02*
Y30187D01*
X70248Y30687D02*
Y30187D01*
X70748Y30687D02*
Y30187D01*
X72248Y30687D02*
Y30187D01*
X73248Y30687D02*
Y30187D01*
X73748Y30687D02*
Y30187D01*
X78622Y46687D02*
Y47187D01*
X78122Y46687D02*
Y47187D01*
X76622Y46687D02*
Y47187D01*
X76122Y46687D02*
Y47187D01*
X75622Y46687D02*
Y47187D01*
X75122Y46687D02*
Y47187D01*
X78122Y30687D02*
Y30187D01*
X78622Y30687D02*
Y30187D01*
X80122Y30687D02*
Y30187D01*
X81122Y30687D02*
Y30187D01*
X81622Y30687D02*
Y30187D01*
X87496Y46687D02*
Y47187D01*
G54D32*
X41070Y75867D02*
Y74787D01*
X41450*
Y74457*
X41070*
Y74327*
X39440*
Y74457*
X39050*
Y74787*
X39440*
Y75867*
X41070*
X39050Y74457D02*
Y74787D01*
X39075Y74457D02*
Y74787D01*
X39100Y74457D02*
Y74787D01*
X39125Y74457D02*
Y74787D01*
X39150Y74457D02*
Y74787D01*
X39175Y74457D02*
Y74787D01*
X39200Y74457D02*
Y74787D01*
X39225Y74457D02*
Y74787D01*
X39250Y74457D02*
Y74787D01*
X39275Y74457D02*
Y74787D01*
X39300Y74457D02*
Y74787D01*
X39325Y74457D02*
Y74787D01*
X39350Y74457D02*
Y74787D01*
X39375Y74457D02*
Y74787D01*
X39400Y74457D02*
Y74787D01*
X39425Y74457D02*
Y74787D01*
X39450Y74327D02*
Y75867D01*
X39475Y74327D02*
Y75867D01*
X39500Y74327D02*
Y75867D01*
X39525Y74327D02*
Y75867D01*
X39550Y74327D02*
Y75867D01*
X39575Y74327D02*
Y75867D01*
X39600Y74327D02*
Y75867D01*
X39625Y74327D02*
Y75867D01*
X39650Y74327D02*
Y75867D01*
X39675Y74327D02*
Y75867D01*
X39700Y74327D02*
Y75867D01*
X39725Y74327D02*
Y75867D01*
X39750Y74327D02*
Y75867D01*
X39775Y74327D02*
Y75867D01*
X39800Y74327D02*
Y75867D01*
X39825Y74327D02*
Y75867D01*
X39850Y74327D02*
Y75867D01*
X39875Y74327D02*
Y75867D01*
X39900Y74327D02*
Y75867D01*
X39925Y74327D02*
Y75867D01*
X39950Y74327D02*
Y75867D01*
X39975Y74327D02*
Y75867D01*
X40000Y74327D02*
Y75867D01*
X40025Y74327D02*
Y75867D01*
X40050Y74327D02*
Y75867D01*
X40075Y74327D02*
Y75867D01*
X40100Y74327D02*
Y75867D01*
X40125Y74327D02*
Y75867D01*
X40150Y74327D02*
Y75867D01*
X40175Y74327D02*
Y75867D01*
X40200Y74327D02*
Y75867D01*
X40225Y74327D02*
Y75867D01*
X40250Y74327D02*
Y75867D01*
X40275Y74327D02*
Y75867D01*
X40300Y74327D02*
Y75867D01*
X40325Y74327D02*
Y75867D01*
X40350Y74327D02*
Y75867D01*
X40375Y74327D02*
Y75867D01*
X40400Y74327D02*
Y75867D01*
X40425Y74327D02*
Y75867D01*
X40450Y74327D02*
Y75867D01*
X40475Y74327D02*
Y75867D01*
X40500Y74327D02*
Y75867D01*
X40525Y74327D02*
Y75867D01*
X40550Y74327D02*
Y75867D01*
X40575Y74327D02*
Y75867D01*
X40600Y74327D02*
Y75867D01*
X40625Y74327D02*
Y75867D01*
X40650Y74327D02*
Y75867D01*
X40675Y74327D02*
Y75867D01*
X40700Y74327D02*
Y75867D01*
X40725Y74327D02*
Y75867D01*
X40750Y74327D02*
Y75867D01*
X40775Y74327D02*
Y75867D01*
X40800Y74327D02*
Y75867D01*
X40825Y74327D02*
Y75867D01*
X40850Y74327D02*
Y75867D01*
X40875Y74327D02*
Y75867D01*
X40900Y74327D02*
Y75867D01*
X40925Y74327D02*
Y75867D01*
X40950Y74327D02*
Y75867D01*
X40975Y74327D02*
Y75867D01*
X41000Y74327D02*
Y75867D01*
X41025Y74327D02*
Y75867D01*
X41050Y74327D02*
Y75867D01*
X41075Y74457D02*
Y74787D01*
X41100Y74457D02*
Y74787D01*
X41125Y74457D02*
Y74787D01*
X41150Y74457D02*
Y74787D01*
X41175Y74457D02*
Y74787D01*
X41200Y74457D02*
Y74787D01*
X41225Y74457D02*
Y74787D01*
X41250Y74457D02*
Y74787D01*
X41275Y74457D02*
Y74787D01*
X41300Y74457D02*
Y74787D01*
X41325Y74457D02*
Y74787D01*
X41350Y74457D02*
Y74787D01*
X41375Y74457D02*
Y74787D01*
X41400Y74457D02*
Y74787D01*
X41425Y74457D02*
Y74787D01*
X40180Y70117D02*
X39100D01*
Y69737*
X38770*
Y70117*
X38640*
Y71747*
X38770*
Y72137*
X39100*
Y71747*
X40180*
Y70117*
X38650D02*
Y71747D01*
X38675Y70117D02*
Y71747D01*
X38700Y70117D02*
Y71747D01*
X38725Y70117D02*
Y71747D01*
X38750Y70117D02*
Y71747D01*
X38775Y69737D02*
Y72137D01*
X38800Y69737D02*
Y72137D01*
X38825Y69737D02*
Y72137D01*
X38850Y69737D02*
Y72137D01*
X38875Y69737D02*
Y72137D01*
X38900Y69737D02*
Y72137D01*
X38925Y69737D02*
Y72137D01*
X38950Y69737D02*
Y72137D01*
X38975Y69737D02*
Y72137D01*
X39000Y69737D02*
Y72137D01*
X39025Y69737D02*
Y72137D01*
X39050Y69737D02*
Y72137D01*
X39075Y69737D02*
Y72137D01*
X39100Y70117D02*
Y71747D01*
X39125Y70117D02*
Y71747D01*
X39150Y70117D02*
Y71747D01*
X39175Y70117D02*
Y71747D01*
X39200Y70117D02*
Y71747D01*
X39225Y70117D02*
Y71747D01*
X39250Y70117D02*
Y71747D01*
X39275Y70117D02*
Y71747D01*
X39300Y70117D02*
Y71747D01*
X39325Y70117D02*
Y71747D01*
X39350Y70117D02*
Y71747D01*
X39375Y70117D02*
Y71747D01*
X39400Y70117D02*
Y71747D01*
X39425Y70117D02*
Y71747D01*
X39450Y70117D02*
Y71747D01*
X39475Y70117D02*
Y71747D01*
X39500Y70117D02*
Y71747D01*
X39525Y70117D02*
Y71747D01*
X39550Y70117D02*
Y71747D01*
X39575Y70117D02*
Y71747D01*
X39600Y70117D02*
Y71747D01*
X39625Y70117D02*
Y71747D01*
X39650Y70117D02*
Y71747D01*
X39675Y70117D02*
Y71747D01*
X39700Y70117D02*
Y71747D01*
X39725Y70117D02*
Y71747D01*
X39750Y70117D02*
Y71747D01*
X39775Y70117D02*
Y71747D01*
X39800Y70117D02*
Y71747D01*
X39825Y70117D02*
Y71747D01*
X39850Y70117D02*
Y71747D01*
X39875Y70117D02*
Y71747D01*
X39900Y70117D02*
Y71747D01*
X39925Y70117D02*
Y71747D01*
X39950Y70117D02*
Y71747D01*
X39975Y70117D02*
Y71747D01*
X40000Y70117D02*
Y71747D01*
X40025Y70117D02*
Y71747D01*
X40050Y70117D02*
Y71747D01*
X40075Y70117D02*
Y71747D01*
X40100Y70117D02*
Y71747D01*
X40125Y70117D02*
Y71747D01*
X40150Y70117D02*
Y71747D01*
X40175Y70117D02*
Y71747D01*
X30995Y75880D02*
Y74800D01*
X31375*
Y74470*
X30995*
Y74340*
X29365*
Y74470*
X28975*
Y74800*
X29365*
Y75880*
X30995*
X28975Y74470D02*
Y74800D01*
X29000Y74470D02*
Y74800D01*
X29025Y74470D02*
Y74800D01*
X29050Y74470D02*
Y74800D01*
X29075Y74470D02*
Y74800D01*
X29100Y74470D02*
Y74800D01*
X29125Y74470D02*
Y74800D01*
X29150Y74470D02*
Y74800D01*
X29175Y74470D02*
Y74800D01*
X29200Y74470D02*
Y74800D01*
X29225Y74470D02*
Y74800D01*
X29250Y74470D02*
Y74800D01*
X29275Y74470D02*
Y74800D01*
X29300Y74470D02*
Y74800D01*
X29325Y74470D02*
Y74800D01*
X29350Y74470D02*
Y74800D01*
X29375Y74340D02*
Y75880D01*
X29400Y74340D02*
Y75880D01*
X29425Y74340D02*
Y75880D01*
X29450Y74340D02*
Y75880D01*
X29475Y74340D02*
Y75880D01*
X29500Y74340D02*
Y75880D01*
X29525Y74340D02*
Y75880D01*
X29550Y74340D02*
Y75880D01*
X29575Y74340D02*
Y75880D01*
X29600Y74340D02*
Y75880D01*
X29625Y74340D02*
Y75880D01*
X29650Y74340D02*
Y75880D01*
X29675Y74340D02*
Y75880D01*
X29700Y74340D02*
Y75880D01*
X29725Y74340D02*
Y75880D01*
X29750Y74340D02*
Y75880D01*
X29775Y74340D02*
Y75880D01*
X29800Y74340D02*
Y75880D01*
X29825Y74340D02*
Y75880D01*
X29850Y74340D02*
Y75880D01*
X29875Y74340D02*
Y75880D01*
X29900Y74340D02*
Y75880D01*
X29925Y74340D02*
Y75880D01*
X29950Y74340D02*
Y75880D01*
X29975Y74340D02*
Y75880D01*
X30000Y74340D02*
Y75880D01*
X30025Y74340D02*
Y75880D01*
X30050Y74340D02*
Y75880D01*
X30075Y74340D02*
Y75880D01*
X30100Y74340D02*
Y75880D01*
X30125Y74340D02*
Y75880D01*
X30150Y74340D02*
Y75880D01*
X30175Y74340D02*
Y75880D01*
X30200Y74340D02*
Y75880D01*
X30225Y74340D02*
Y75880D01*
X30250Y74340D02*
Y75880D01*
X30275Y74340D02*
Y75880D01*
X30300Y74340D02*
Y75880D01*
X30325Y74340D02*
Y75880D01*
X30350Y74340D02*
Y75880D01*
X30375Y74340D02*
Y75880D01*
X30400Y74340D02*
Y75880D01*
X30425Y74340D02*
Y75880D01*
X30450Y74340D02*
Y75880D01*
X30475Y74340D02*
Y75880D01*
X30500Y74340D02*
Y75880D01*
X30525Y74340D02*
Y75880D01*
X30550Y74340D02*
Y75880D01*
X30575Y74340D02*
Y75880D01*
X30600Y74340D02*
Y75880D01*
X30625Y74340D02*
Y75880D01*
X30650Y74340D02*
Y75880D01*
X30675Y74340D02*
Y75880D01*
X30700Y74340D02*
Y75880D01*
X30725Y74340D02*
Y75880D01*
X30750Y74340D02*
Y75880D01*
X30775Y74340D02*
Y75880D01*
X30800Y74340D02*
Y75880D01*
X30825Y74340D02*
Y75880D01*
X30850Y74340D02*
Y75880D01*
X30875Y74340D02*
Y75880D01*
X30900Y74340D02*
Y75880D01*
X30925Y74340D02*
Y75880D01*
X30950Y74340D02*
Y75880D01*
X30975Y74340D02*
Y75880D01*
X31000Y74470D02*
Y74800D01*
X31025Y74470D02*
Y74800D01*
X31050Y74470D02*
Y74800D01*
X31075Y74470D02*
Y74800D01*
X31100Y74470D02*
Y74800D01*
X31125Y74470D02*
Y74800D01*
X31150Y74470D02*
Y74800D01*
X31175Y74470D02*
Y74800D01*
X31200Y74470D02*
Y74800D01*
X31225Y74470D02*
Y74800D01*
X31250Y74470D02*
Y74800D01*
X31275Y74470D02*
Y74800D01*
X31300Y74470D02*
Y74800D01*
X31325Y74470D02*
Y74800D01*
X31350Y74470D02*
Y74800D01*
X31570Y71757D02*
X32650D01*
Y72137*
X32980*
Y71757*
X33110*
Y70127*
X32980*
Y69737*
X32650*
Y70127*
X31570*
Y71757*
X31575Y70127D02*
Y71757D01*
X31600Y70127D02*
Y71757D01*
X31625Y70127D02*
Y71757D01*
X31650Y70127D02*
Y71757D01*
X31675Y70127D02*
Y71757D01*
X31700Y70127D02*
Y71757D01*
X31725Y70127D02*
Y71757D01*
X31750Y70127D02*
Y71757D01*
X31775Y70127D02*
Y71757D01*
X31800Y70127D02*
Y71757D01*
X31825Y70127D02*
Y71757D01*
X31850Y70127D02*
Y71757D01*
X31875Y70127D02*
Y71757D01*
X31900Y70127D02*
Y71757D01*
X31925Y70127D02*
Y71757D01*
X31950Y70127D02*
Y71757D01*
X31975Y70127D02*
Y71757D01*
X32000Y70127D02*
Y71757D01*
X32025Y70127D02*
Y71757D01*
X32050Y70127D02*
Y71757D01*
X32075Y70127D02*
Y71757D01*
X32100Y70127D02*
Y71757D01*
X32125Y70127D02*
Y71757D01*
X32150Y70127D02*
Y71757D01*
X32175Y70127D02*
Y71757D01*
X32200Y70127D02*
Y71757D01*
X32225Y70127D02*
Y71757D01*
X32250Y70127D02*
Y71757D01*
X32275Y70127D02*
Y71757D01*
X32300Y70127D02*
Y71757D01*
X32325Y70127D02*
Y71757D01*
X32350Y70127D02*
Y71757D01*
X32375Y70127D02*
Y71757D01*
X32400Y70127D02*
Y71757D01*
X32425Y70127D02*
Y71757D01*
X32450Y70127D02*
Y71757D01*
X32475Y70127D02*
Y71757D01*
X32500Y70127D02*
Y71757D01*
X32525Y70127D02*
Y71757D01*
X32550Y70127D02*
Y71757D01*
X32575Y70127D02*
Y71757D01*
X32600Y70127D02*
Y71757D01*
X32625Y70127D02*
Y71757D01*
X32650Y69737D02*
Y72137D01*
X32675Y69737D02*
Y72137D01*
X32700Y69737D02*
Y72137D01*
X32725Y69737D02*
Y72137D01*
X32750Y69737D02*
Y72137D01*
X32775Y69737D02*
Y72137D01*
X32800Y69737D02*
Y72137D01*
X32825Y69737D02*
Y72137D01*
X32850Y69737D02*
Y72137D01*
X32875Y69737D02*
Y72137D01*
X32900Y69737D02*
Y72137D01*
X32925Y69737D02*
Y72137D01*
X32950Y69737D02*
Y72137D01*
X32975Y69737D02*
Y72137D01*
X33000Y70127D02*
Y71757D01*
X33025Y70127D02*
Y71757D01*
X33050Y70127D02*
Y71757D01*
X33075Y70127D02*
Y71757D01*
X33100Y70127D02*
Y71757D01*
G54D67*
X51496Y26437D03*
X84566Y75767D03*
X117637D03*
X101102Y51102D03*
X68031D03*
X51496Y75767D03*
X84566Y26437D03*
X117637D03*
G54D69*
X34750Y60622D03*
Y61252D03*
G54D75*
X26430Y30000D03*
X26070D03*
X47500Y94054D03*
Y93694D03*
X46500Y94054D03*
Y93694D03*
X45500Y94054D03*
Y93694D03*
X26930Y36750D03*
X26570D03*
Y43250D03*
X26930D03*
Y35750D03*
X26570D03*
X26930Y42250D03*
X26570D03*
X25180Y41750D03*
X24820D03*
X24570Y35750D03*
X24930D03*
X28820Y39625D03*
X29180D03*
Y40375D03*
X28820D03*
X30820Y39625D03*
X31180D03*
X40320Y67812D03*
X40680D03*
X40320Y67187D03*
X40680D03*
X40320Y66562D03*
X40680D03*
Y64687D03*
X40320D03*
X38930Y60187D03*
X38570D03*
X36375Y67617D03*
Y67257D03*
X40320Y63187D03*
X40680D03*
X36750Y61242D03*
Y60882D03*
X32070Y64937D03*
X32430D03*
X32070Y64312D03*
X32430D03*
X37375Y61242D03*
Y60882D03*
X35500D03*
Y61242D03*
X34000D03*
Y60882D03*
X32070Y66187D03*
X32430D03*
X40320Y65312D03*
X40680D03*
X32070Y65562D03*
X32430D03*
X40320Y65937D03*
X40680D03*
X42500Y94054D03*
Y93694D03*
X37070Y44750D03*
X37430D03*
X39070Y44000D03*
X39430D03*
X43500Y94054D03*
Y93694D03*
X44500Y94054D03*
Y93694D03*
X37070Y32000D03*
X37430D03*
Y42250D03*
X37070D03*
Y28250D03*
X37430D03*
X33070Y42000D03*
X33430D03*
X32570Y28250D03*
X32930D03*
X33070Y38063D03*
X33430D03*
X29930Y29000D03*
X29570D03*
X32935Y26456D03*
X32575D03*
X33305Y36625D03*
X32945D03*
X41120Y34200D03*
X41480D03*
X39250Y60895D03*
Y61255D03*
G54D79*
X120000Y77500D03*
Y25000D03*
X22000D03*
G54D89*
X48500Y84376D03*
Y84750D03*
Y85124D03*
X49500D03*
Y84750D03*
Y84376D03*
G54D90*
X53500Y30687D03*
Y30187D03*
X86996Y46687D03*
Y47187D03*
X85996Y46687D03*
Y47187D03*
X84496Y46687D03*
Y47187D03*
X83996Y46687D03*
Y47187D03*
X83496Y46687D03*
Y47187D03*
X82996Y46687D03*
Y47187D03*
X84996Y30687D03*
Y30187D03*
X85496Y30687D03*
Y30187D03*
X86496Y30687D03*
Y30187D03*
X87996Y30687D03*
Y30187D03*
X88996Y30687D03*
Y30187D03*
X89496Y30687D03*
Y30187D03*
X94870Y46687D03*
Y47187D03*
X93870Y46687D03*
Y47187D03*
X92370Y46687D03*
Y47187D03*
X91870Y46687D03*
Y47187D03*
X91370Y46687D03*
Y47187D03*
X90870Y46687D03*
Y47187D03*
X93370Y30687D03*
Y30187D03*
X94370Y30687D03*
Y30187D03*
X95870Y30687D03*
Y30187D03*
X96870Y30687D03*
Y30187D03*
X97370Y30687D03*
Y30187D03*
X103244Y46687D03*
Y47187D03*
X101744Y46687D03*
Y47187D03*
X100244Y46687D03*
Y47187D03*
X99744Y46687D03*
Y47187D03*
X99244Y46687D03*
Y47187D03*
X98744Y46687D03*
Y47187D03*
X100744Y30687D03*
Y30187D03*
X102244Y30687D03*
Y30187D03*
X103744Y30687D03*
Y30187D03*
X104744Y30687D03*
Y30187D03*
X105244Y30687D03*
Y30187D03*
X109618Y46687D03*
Y47187D03*
X108118Y46687D03*
Y47187D03*
X107618Y46687D03*
Y47187D03*
X107118Y46687D03*
Y47187D03*
X106618Y46687D03*
Y47187D03*
X110118Y30687D03*
Y30187D03*
X111618Y30687D03*
Y30187D03*
X112618Y30687D03*
Y30187D03*
X113118Y30687D03*
Y30187D03*
X111118Y71411D03*
Y71911D03*
X110618Y71411D03*
Y71911D03*
X110118Y71411D03*
Y71911D03*
X108118Y71411D03*
Y71911D03*
X107618Y71411D03*
Y71911D03*
X107118Y71411D03*
Y71911D03*
X106618Y71411D03*
Y71911D03*
X108618Y55411D03*
Y54911D03*
X109118Y55411D03*
Y54911D03*
X109618Y55411D03*
Y54911D03*
X111618Y55411D03*
Y54911D03*
X112618Y55411D03*
Y54911D03*
X113118Y55411D03*
Y54911D03*
X102744Y71411D03*
Y71911D03*
X102244Y71411D03*
Y71911D03*
X100244Y71411D03*
Y71911D03*
X99744Y71411D03*
Y71911D03*
X99244Y71411D03*
Y71911D03*
X98744Y71411D03*
Y71911D03*
X56000Y46687D03*
Y47187D03*
X55500Y46687D03*
Y47187D03*
X55000Y46687D03*
Y47187D03*
X54500Y46687D03*
Y47187D03*
X53000Y46687D03*
Y47187D03*
X52500Y46687D03*
Y47187D03*
X52000Y46687D03*
Y47187D03*
X51500Y46687D03*
Y47187D03*
X101244Y55411D03*
Y54911D03*
X101744Y55411D03*
Y54911D03*
X103744Y55411D03*
Y54911D03*
X104744Y55411D03*
Y54911D03*
X105244Y55411D03*
Y54911D03*
X95370Y71411D03*
Y71911D03*
X94370Y71411D03*
Y71911D03*
X92370Y71411D03*
Y71911D03*
X91870Y71411D03*
Y71911D03*
X91370Y71411D03*
Y71911D03*
X90870Y71411D03*
Y71911D03*
X92870Y55411D03*
Y54911D03*
X93870Y55411D03*
Y54911D03*
X95870Y55411D03*
Y54911D03*
X96870Y55411D03*
Y54911D03*
X97370Y55411D03*
Y54911D03*
X86496Y71411D03*
Y71911D03*
X84496Y71411D03*
Y71911D03*
X83996Y71411D03*
Y71911D03*
X83496Y71411D03*
Y71911D03*
X82996Y71411D03*
Y71911D03*
X85996Y55411D03*
Y54911D03*
X87996Y55411D03*
Y54911D03*
X88996Y55411D03*
Y54911D03*
X89496Y55411D03*
Y54911D03*
X79622Y71411D03*
Y71911D03*
X79122Y71411D03*
Y71911D03*
X76622Y71411D03*
Y71911D03*
X76122Y71411D03*
Y71911D03*
X75622Y71411D03*
Y71911D03*
X75122Y71411D03*
Y71911D03*
X77122Y55411D03*
Y54911D03*
X77622Y55411D03*
Y54911D03*
X80122Y55411D03*
Y54911D03*
X81122Y55411D03*
Y54911D03*
X81622Y55411D03*
Y54911D03*
X71248Y71411D03*
Y71911D03*
X68748Y71411D03*
Y71911D03*
X68248Y71411D03*
Y71911D03*
X67748Y71411D03*
Y71911D03*
X67248Y71411D03*
Y71911D03*
X69748Y55411D03*
Y54911D03*
X72248Y55411D03*
Y54911D03*
X73248Y55411D03*
Y54911D03*
X73748Y55411D03*
Y54911D03*
X63874Y71411D03*
Y71911D03*
X60874Y71411D03*
Y71911D03*
X60374Y71411D03*
Y71911D03*
X59874Y71411D03*
Y71911D03*
X59374Y71411D03*
Y71911D03*
X54000Y30687D03*
Y30187D03*
X54500Y30687D03*
Y30187D03*
X55000Y30687D03*
Y30187D03*
X56500Y30687D03*
Y30187D03*
X57500Y30687D03*
Y30187D03*
X58000Y30687D03*
Y30187D03*
X61374Y55411D03*
Y54911D03*
X64374Y55411D03*
Y54911D03*
X65374Y55411D03*
Y54911D03*
X65874Y55411D03*
Y54911D03*
X53000Y71411D03*
Y71911D03*
X52500Y71411D03*
Y71911D03*
X52000Y71411D03*
Y71911D03*
X51500Y71411D03*
Y71911D03*
X56500Y55411D03*
Y54911D03*
X57500Y55411D03*
Y54911D03*
X58000Y55411D03*
Y54911D03*
X63374Y46687D03*
Y47187D03*
X62874Y46687D03*
Y47187D03*
X62374Y46687D03*
Y47187D03*
X60874Y46687D03*
Y47187D03*
X60374Y46687D03*
Y47187D03*
X59874Y46687D03*
Y47187D03*
X59374Y46687D03*
Y47187D03*
X61874Y30687D03*
Y30187D03*
X62374Y30687D03*
Y30187D03*
X62874Y30687D03*
Y30187D03*
X64374Y30687D03*
Y30187D03*
X65374Y30687D03*
Y30187D03*
X65874Y30687D03*
Y30187D03*
X71748Y46687D03*
Y47187D03*
X70748Y46687D03*
Y47187D03*
X70248Y46687D03*
Y47187D03*
X68748Y46687D03*
Y47187D03*
X68248Y46687D03*
Y47187D03*
X67748Y46687D03*
Y47187D03*
X67248Y46687D03*
Y47187D03*
X69248Y30687D03*
Y30187D03*
X70248Y30687D03*
Y30187D03*
X70748Y30687D03*
Y30187D03*
X72248Y30687D03*
Y30187D03*
X73248Y30687D03*
Y30187D03*
X73748Y30687D03*
Y30187D03*
X78622Y46687D03*
Y47187D03*
X78122Y46687D03*
Y47187D03*
X76622Y46687D03*
Y47187D03*
X76122Y46687D03*
Y47187D03*
X75622Y46687D03*
Y47187D03*
X75122Y46687D03*
Y47187D03*
X78122Y30687D03*
Y30187D03*
X78622Y30687D03*
Y30187D03*
X80122Y30687D03*
Y30187D03*
X81122Y30687D03*
Y30187D03*
X81622Y30687D03*
Y30187D03*
X87496Y46687D03*
Y47187D03*
X86496Y46687D03*
Y47187D03*
X85996Y30687D03*
Y30187D03*
X88496Y30687D03*
Y30187D03*
X95370Y46687D03*
Y47187D03*
X94370Y46687D03*
Y47187D03*
X92870Y30687D03*
Y30187D03*
X93870Y30687D03*
Y30187D03*
X96370Y30687D03*
Y30187D03*
X102744Y46687D03*
Y47187D03*
X102244Y46687D03*
Y47187D03*
X101244Y30687D03*
Y30187D03*
X101744Y30687D03*
Y30187D03*
X104244Y30687D03*
Y30187D03*
X111118Y46687D03*
Y47187D03*
X110618Y46687D03*
Y47187D03*
X110118Y46687D03*
Y47187D03*
X108618Y30687D03*
Y30187D03*
X109118Y30687D03*
Y30187D03*
X109618Y30687D03*
Y30187D03*
X112118Y30687D03*
Y30187D03*
X109618Y71411D03*
Y71911D03*
X110118Y55411D03*
Y54911D03*
X112118Y55411D03*
Y54911D03*
X103244Y71411D03*
Y71911D03*
X101744Y71411D03*
Y71911D03*
X100744Y55411D03*
Y54911D03*
X102244Y55411D03*
Y54911D03*
X104244Y55411D03*
Y54911D03*
X94870Y71411D03*
Y71911D03*
X93870Y71411D03*
Y71911D03*
X93370Y55411D03*
Y54911D03*
X94370Y55411D03*
Y54911D03*
X96370Y55411D03*
Y54911D03*
X87496Y71411D03*
Y71911D03*
X86996Y71411D03*
Y71911D03*
X85996Y71411D03*
Y71911D03*
X84996Y55411D03*
Y54911D03*
X85496Y55411D03*
Y54911D03*
X86496Y55411D03*
Y54911D03*
X88496Y55411D03*
Y54911D03*
X78622Y71411D03*
Y71911D03*
X78122Y71411D03*
Y71911D03*
Y55411D03*
Y54911D03*
X78622Y55411D03*
Y54911D03*
X80622Y55411D03*
Y54911D03*
X71748Y71411D03*
Y71911D03*
X70748Y71411D03*
Y71911D03*
X70248Y71411D03*
Y71911D03*
X69248Y55411D03*
Y54911D03*
X70248Y55411D03*
Y54911D03*
X70748Y55411D03*
Y54911D03*
X72748Y55411D03*
Y54911D03*
X63374Y71411D03*
Y71911D03*
X62874Y71411D03*
Y71911D03*
X62374Y71411D03*
Y71911D03*
X57000Y30687D03*
Y30187D03*
X61874Y55411D03*
Y54911D03*
X62374Y55411D03*
Y54911D03*
X62874Y55411D03*
Y54911D03*
X64874Y55411D03*
Y54911D03*
X56000Y71411D03*
Y71911D03*
X55500Y71411D03*
Y71911D03*
X55000Y71411D03*
Y71911D03*
X54500Y71411D03*
Y71911D03*
X53500Y55411D03*
Y54911D03*
X54000Y55411D03*
Y54911D03*
X54500Y55411D03*
Y54911D03*
X55000Y55411D03*
Y54911D03*
X57000Y55411D03*
Y54911D03*
X63874Y46687D03*
Y47187D03*
X61374Y30687D03*
Y30187D03*
X64874Y30687D03*
Y30187D03*
X71248Y46687D03*
Y47187D03*
X69748Y30687D03*
Y30187D03*
X72748Y30687D03*
Y30187D03*
X79622Y46687D03*
Y47187D03*
X79122Y46687D03*
Y47187D03*
X77122Y30687D03*
Y30187D03*
X77622Y30687D03*
Y30187D03*
X80622Y30687D03*
Y30187D03*
G54D162*
X40815Y63937D03*
X40185D03*
G54D183*
X34875Y67287D03*
Y68087D03*
X88750Y43150D03*
Y42350D03*
X83500Y34100D03*
Y34900D03*
X96750Y43150D03*
Y42350D03*
X91500Y34100D03*
Y34900D03*
X104500Y43150D03*
Y42350D03*
X99375Y34100D03*
Y34900D03*
X112500Y43150D03*
Y42350D03*
X107250Y34100D03*
Y34900D03*
X112500Y67900D03*
Y67100D03*
X107250Y58850D03*
Y59650D03*
X104500Y67900D03*
Y67100D03*
X99500Y58850D03*
Y59650D03*
X96750Y67900D03*
Y67100D03*
X91500Y58850D03*
Y59650D03*
X88750Y67900D03*
Y67100D03*
X83750Y58850D03*
Y59650D03*
X81000Y67900D03*
Y67100D03*
X75750Y58850D03*
Y59650D03*
X73000Y67900D03*
Y67100D03*
X68000Y58850D03*
Y59650D03*
X65250Y67900D03*
Y67100D03*
X60000Y58850D03*
Y59650D03*
X57250Y67900D03*
Y67100D03*
X52000Y58850D03*
Y59650D03*
X65250Y43150D03*
Y42350D03*
X60000Y34100D03*
Y34900D03*
X73000Y43150D03*
Y42350D03*
X67750Y34100D03*
Y34900D03*
X81000Y43150D03*
Y42350D03*
X75750Y34100D03*
Y34900D03*
G54D193*
X31549Y25975D03*
X31175D03*
X30801D03*
Y26975D03*
X31175D03*
X31549D03*
G54D240*
X89000Y45505D03*
Y45245D03*
Y48245D03*
Y48505D03*
X83375Y31870D03*
Y32130D03*
Y29130D03*
Y28870D03*
X96875Y45505D03*
Y45245D03*
Y48245D03*
Y48505D03*
X91250Y31870D03*
Y32130D03*
Y29255D03*
Y28995D03*
X104750Y45505D03*
Y45245D03*
Y48245D03*
Y48505D03*
X99125Y31870D03*
Y32130D03*
Y29255D03*
Y28995D03*
X112625Y45505D03*
Y45245D03*
Y48245D03*
Y48505D03*
X107000Y31870D03*
Y32130D03*
Y29255D03*
Y28995D03*
X112625Y70255D03*
Y69995D03*
Y72995D03*
Y73255D03*
X107000Y56620D03*
Y56880D03*
Y53880D03*
Y53620D03*
X104750Y70255D03*
Y69995D03*
Y72995D03*
Y73255D03*
X57500Y45505D03*
Y45245D03*
Y48245D03*
Y48505D03*
X99125Y56620D03*
Y56880D03*
Y53880D03*
Y53620D03*
X96875Y70255D03*
Y69995D03*
Y72995D03*
Y73255D03*
X91250Y56620D03*
Y56880D03*
Y53880D03*
Y53620D03*
X89000Y70255D03*
Y69995D03*
Y72995D03*
Y73255D03*
X83375Y56620D03*
Y56880D03*
Y53880D03*
Y53620D03*
X81125Y70255D03*
Y69995D03*
Y72995D03*
Y73255D03*
X75500Y56620D03*
Y56880D03*
Y53880D03*
Y53620D03*
X73250Y70255D03*
Y69995D03*
Y72995D03*
Y73255D03*
X67625Y56620D03*
Y56880D03*
Y53880D03*
Y53620D03*
X65375Y70255D03*
Y69995D03*
Y72995D03*
Y73255D03*
X51875Y31870D03*
Y32130D03*
Y29130D03*
Y28870D03*
X59750Y56620D03*
Y56880D03*
Y53880D03*
Y53620D03*
X57500Y70255D03*
Y69995D03*
Y72995D03*
Y73255D03*
X52000Y56620D03*
Y56880D03*
Y53880D03*
Y53620D03*
X65375Y45505D03*
Y45245D03*
Y48245D03*
Y48505D03*
X59750Y31870D03*
Y32130D03*
Y29130D03*
Y28870D03*
X73250Y45505D03*
Y45245D03*
Y48245D03*
Y48505D03*
X67625Y31870D03*
Y32130D03*
Y29130D03*
Y28870D03*
X81125Y45505D03*
Y45245D03*
Y48245D03*
Y48505D03*
X75500Y31870D03*
Y32130D03*
Y29130D03*
Y28870D03*
G54D242*
X26380Y29250D03*
X26120D03*
X37120Y37250D03*
X37380D03*
X38380D03*
X38120D03*
X37120Y36250D03*
X37380D03*
X37120Y39000D03*
X37380D03*
X40230Y36350D03*
X39970D03*
X39120Y38375D03*
X39380D03*
X37380Y38500D03*
X37120D03*
X37380Y36750D03*
X37120D03*
X39380Y37875D03*
X39120D03*
X39330Y36350D03*
X39070D03*
X24620Y43250D03*
X24880D03*
X24620Y36750D03*
X24880D03*
X41130Y32250D03*
X40870D03*
X41130Y30750D03*
X40870D03*
X35120Y42125D03*
X35380D03*
X35120Y41750D03*
X35380D03*
X35120Y41000D03*
X35380D03*
X35120Y41375D03*
X35380D03*
X35120Y40250D03*
X35380D03*
X35120Y40625D03*
X35380D03*
X35120Y39500D03*
X35380D03*
X35120Y39875D03*
X35380D03*
X39120Y28375D03*
X39380D03*
X39120Y28000D03*
X39380D03*
X39120Y27250D03*
X39380D03*
X39120Y27625D03*
X39380D03*
X39120Y26500D03*
X39380D03*
X39120Y26875D03*
X39380D03*
X39120Y25750D03*
X39380D03*
X39120Y26125D03*
X39380D03*
X39120Y32250D03*
X39380D03*
X39120Y31875D03*
X39380D03*
X39120Y31125D03*
X39380D03*
X39120Y31500D03*
X39380D03*
X39120Y30375D03*
X39380D03*
X39120Y30750D03*
X39380D03*
X39120Y29625D03*
X39380D03*
X39120Y30000D03*
X39380D03*
X35380Y38300D03*
X35120D03*
X35380Y37950D03*
X35120D03*
X35380Y37600D03*
X35120D03*
X35380Y37250D03*
X35120D03*
X35380Y36900D03*
X35120D03*
X35380Y36550D03*
X35120D03*
X35380Y36200D03*
X35120D03*
X35380Y35850D03*
X35120D03*
X34620Y28500D03*
X34880D03*
X34620Y28125D03*
X34880D03*
X34620Y27375D03*
X34880D03*
X34620Y27750D03*
X34880D03*
X35995Y27250D03*
X36255D03*
X35995Y27625D03*
X36255D03*
X35995Y26500D03*
X36255D03*
X35995Y26875D03*
X36255D03*
G54D320*
X87246Y48053D03*
X86246D03*
Y48820D03*
X87246D03*
X85246Y48053D03*
X84246D03*
Y48820D03*
X85246D03*
Y29320D03*
X86246D03*
Y28553D03*
X85246D03*
X87246Y29320D03*
X88246D03*
Y28553D03*
X87246D03*
X95120Y48053D03*
X94120D03*
Y48820D03*
X95120D03*
X93120Y48053D03*
X92120D03*
Y48820D03*
X93120D03*
Y29320D03*
X94120D03*
Y28553D03*
X93120D03*
X95120Y29320D03*
X96120D03*
Y28553D03*
X95120D03*
X102994Y48053D03*
X101994D03*
Y48820D03*
X102994D03*
X100994Y48053D03*
X99994D03*
Y48820D03*
X100994D03*
Y29320D03*
X101994D03*
Y28553D03*
X100994D03*
X102994Y29320D03*
X103994D03*
Y28553D03*
X102994D03*
X110868Y48053D03*
X109868D03*
Y48820D03*
X110868D03*
X108868Y48053D03*
X107868D03*
Y48820D03*
X108868D03*
Y29320D03*
X109868D03*
Y28553D03*
X108868D03*
X110868Y29320D03*
X111868D03*
Y28553D03*
X110868D03*
Y72777D03*
X109868D03*
Y73545D03*
X110868D03*
X108868Y72777D03*
X107868D03*
Y73545D03*
X108868D03*
Y54045D03*
X109868D03*
Y53277D03*
X108868D03*
X110868Y54045D03*
X111868D03*
Y53277D03*
X110868D03*
X102994Y72777D03*
X101994D03*
Y73545D03*
X102994D03*
X100994Y72777D03*
X99994D03*
Y73545D03*
X100994D03*
X55750Y48053D03*
X54750D03*
Y48820D03*
X55750D03*
X53750Y48053D03*
X52750D03*
Y48820D03*
X53750D03*
X100994Y54045D03*
X101994D03*
Y53277D03*
X100994D03*
X102994Y54045D03*
X103994D03*
Y53277D03*
X102994D03*
X95120Y72777D03*
X94120D03*
Y73545D03*
X95120D03*
X93120Y72777D03*
X92120D03*
Y73545D03*
X93120D03*
Y54045D03*
X94120D03*
Y53277D03*
X93120D03*
X95120Y54045D03*
X96120D03*
Y53277D03*
X95120D03*
X87246Y72777D03*
X86246D03*
Y73545D03*
X87246D03*
X85246Y72777D03*
X84246D03*
Y73545D03*
X85246D03*
Y54045D03*
X86246D03*
Y53277D03*
X85246D03*
X87246Y54045D03*
X88246D03*
Y53277D03*
X87246D03*
X79372Y72777D03*
X78372D03*
Y73545D03*
X79372D03*
X77372Y72777D03*
X76372D03*
Y73545D03*
X77372D03*
Y54045D03*
X78372D03*
Y53277D03*
X77372D03*
X79372Y54045D03*
X80372D03*
Y53277D03*
X79372D03*
X71498Y72777D03*
X70498D03*
Y73545D03*
X71498D03*
X69498Y72777D03*
X68498D03*
Y73545D03*
X69498D03*
Y54045D03*
X70498D03*
Y53277D03*
X69498D03*
X71498Y54045D03*
X72498D03*
Y53277D03*
X71498D03*
X63624Y72777D03*
X62624D03*
Y73545D03*
X63624D03*
X61624Y72777D03*
X60624D03*
Y73545D03*
X61624D03*
X53750Y29320D03*
X54750D03*
Y28553D03*
X53750D03*
X55750Y29320D03*
X56750D03*
Y28553D03*
X55750D03*
X61624Y54045D03*
X62624D03*
Y53277D03*
X61624D03*
X63624Y54045D03*
X64624D03*
Y53277D03*
X63624D03*
X55750Y72777D03*
X54750D03*
Y73545D03*
X55750D03*
X53750Y72777D03*
X52750D03*
Y73545D03*
X53750D03*
Y54045D03*
X54750D03*
Y53277D03*
X53750D03*
X55750Y54045D03*
X56750D03*
Y53277D03*
X55750D03*
X63624Y48053D03*
X62624D03*
Y48820D03*
X63624D03*
X61624Y48053D03*
X60624D03*
Y48820D03*
X61624D03*
Y29320D03*
X62624D03*
Y28553D03*
X61624D03*
X63624Y29320D03*
X64624D03*
Y28553D03*
X63624D03*
X71498Y48053D03*
X70498D03*
Y48820D03*
X71498D03*
X69498Y48053D03*
X68498D03*
Y48820D03*
X69498D03*
Y29320D03*
X70498D03*
Y28553D03*
X69498D03*
X71498Y29320D03*
X72498D03*
Y28553D03*
X71498D03*
X79372Y48053D03*
X78372D03*
Y48820D03*
X79372D03*
X77372Y48053D03*
X76372D03*
Y48820D03*
X77372D03*
Y29320D03*
X78372D03*
Y28553D03*
X77372D03*
X79372Y29320D03*
X80372D03*
Y28553D03*
X79372D03*
G54D321*
X86903Y48053D03*
X86588D03*
Y48820D03*
X86903D03*
X84903Y48053D03*
X84588D03*
Y48820D03*
X84903D03*
X85588Y29320D03*
X85903D03*
Y28553D03*
X85588D03*
X87588Y29320D03*
X87903D03*
Y28553D03*
X87588D03*
X94777Y48053D03*
X94462D03*
Y48820D03*
X94777D03*
X92777Y48053D03*
X92462D03*
Y48820D03*
X92777D03*
X93462Y29320D03*
X93777D03*
Y28553D03*
X93462D03*
X95462Y29320D03*
X95777D03*
Y28553D03*
X95462D03*
X102651Y48053D03*
X102336D03*
Y48820D03*
X102651D03*
X100651Y48053D03*
X100336D03*
Y48820D03*
X100651D03*
X101336Y29320D03*
X101651D03*
Y28553D03*
X101336D03*
X103336Y29320D03*
X103651D03*
Y28553D03*
X103336D03*
X110525Y48053D03*
X110210D03*
Y48820D03*
X110525D03*
X108525Y48053D03*
X108210D03*
Y48820D03*
X108525D03*
X109210Y29320D03*
X109525D03*
Y28553D03*
X109210D03*
X111210Y29320D03*
X111525D03*
Y28553D03*
X111210D03*
X110525Y72777D03*
X110210D03*
Y73545D03*
X110525D03*
X108525Y72777D03*
X108210D03*
Y73545D03*
X108525D03*
X109210Y54045D03*
X109525D03*
Y53277D03*
X109210D03*
X111210Y54045D03*
X111525D03*
Y53277D03*
X111210D03*
X102651Y72777D03*
X102336D03*
Y73545D03*
X102651D03*
X100651Y72777D03*
X100336D03*
Y73545D03*
X100651D03*
X55407Y48053D03*
X55092D03*
Y48820D03*
X55407D03*
X53407Y48053D03*
X53092D03*
Y48820D03*
X53407D03*
X101336Y54045D03*
X101651D03*
Y53277D03*
X101336D03*
X103336Y54045D03*
X103651D03*
Y53277D03*
X103336D03*
X94777Y72777D03*
X94462D03*
Y73545D03*
X94777D03*
X92777Y72777D03*
X92462D03*
Y73545D03*
X92777D03*
X93462Y54045D03*
X93777D03*
Y53277D03*
X93462D03*
X95462Y54045D03*
X95777D03*
Y53277D03*
X95462D03*
X86903Y72777D03*
X86588D03*
Y73545D03*
X86903D03*
X84903Y72777D03*
X84588D03*
Y73545D03*
X84903D03*
X85588Y54045D03*
X85903D03*
Y53277D03*
X85588D03*
X87588Y54045D03*
X87903D03*
Y53277D03*
X87588D03*
X79029Y72777D03*
X78714D03*
Y73545D03*
X79029D03*
X77029Y72777D03*
X76714D03*
Y73545D03*
X77029D03*
X77714Y54045D03*
X78029D03*
Y53277D03*
X77714D03*
X79714Y54045D03*
X80029D03*
Y53277D03*
X79714D03*
X71155Y72777D03*
X70840D03*
Y73545D03*
X71155D03*
X69155Y72777D03*
X68840D03*
Y73545D03*
X69155D03*
X69840Y54045D03*
X70155D03*
Y53277D03*
X69840D03*
X71840Y54045D03*
X72155D03*
Y53277D03*
X71840D03*
X63281Y72777D03*
X62966D03*
Y73545D03*
X63281D03*
X61281Y72777D03*
X60966D03*
Y73545D03*
X61281D03*
X54092Y29320D03*
X54407D03*
Y28553D03*
X54092D03*
X56092Y29320D03*
X56407D03*
Y28553D03*
X56092D03*
X61966Y54045D03*
X62281D03*
Y53277D03*
X61966D03*
X63966Y54045D03*
X64281D03*
Y53277D03*
X63966D03*
X55407Y72777D03*
X55092D03*
Y73545D03*
X55407D03*
X53407Y72777D03*
X53092D03*
Y73545D03*
X53407D03*
X54092Y54045D03*
X54407D03*
Y53277D03*
X54092D03*
X56092Y54045D03*
X56407D03*
Y53277D03*
X56092D03*
X63281Y48053D03*
X62966D03*
Y48820D03*
X63281D03*
X61281Y48053D03*
X60966D03*
Y48820D03*
X61281D03*
X61966Y29320D03*
X62281D03*
Y28553D03*
X61966D03*
X63966Y29320D03*
X64281D03*
Y28553D03*
X63966D03*
X71155Y48053D03*
X70840D03*
Y48820D03*
X71155D03*
X69155Y48053D03*
X68840D03*
Y48820D03*
X69155D03*
X69840Y29320D03*
X70155D03*
Y28553D03*
X69840D03*
X71840Y29320D03*
X72155D03*
Y28553D03*
X71840D03*
X79029Y48053D03*
X78714D03*
Y48820D03*
X79029D03*
X77029Y48053D03*
X76714D03*
Y48820D03*
X77029D03*
X77714Y29320D03*
X78029D03*
Y28553D03*
X77714D03*
X79714Y29320D03*
X80029D03*
Y28553D03*
X79714D03*
G54D323*
X28850Y25500D03*
X29650D03*
X24400Y30050D03*
X23600D03*
G54D324*
X89255Y46501D03*
X89000D03*
X88744D03*
Y47249D03*
X89000D03*
X89255D03*
X83119Y30874D03*
X83375D03*
X83630D03*
Y30126D03*
X83375D03*
X83119D03*
X97130Y46501D03*
X96875D03*
X96619D03*
Y47249D03*
X96875D03*
X97130D03*
X90994Y30874D03*
X91250D03*
X91505D03*
Y30126D03*
X91250D03*
X90994D03*
X105005Y46501D03*
X104750D03*
X104494D03*
Y47249D03*
X104750D03*
X105005D03*
X98869Y30874D03*
X99125D03*
X99380D03*
Y30126D03*
X99125D03*
X98869D03*
X112880Y46501D03*
X112625D03*
X112369D03*
Y47249D03*
X112625D03*
X112880D03*
X106744Y30874D03*
X107000D03*
X107255D03*
Y30126D03*
X107000D03*
X106744D03*
X112880Y71251D03*
X112625D03*
X112369D03*
Y71999D03*
X112625D03*
X112880D03*
X106744Y55624D03*
X107000D03*
X107255D03*
Y54876D03*
X107000D03*
X106744D03*
X105005Y71251D03*
X104750D03*
X104494D03*
Y71999D03*
X104750D03*
X105005D03*
X57755Y46501D03*
X57500D03*
X57244D03*
Y47249D03*
X57500D03*
X57755D03*
X98869Y55624D03*
X99125D03*
X99380D03*
Y54876D03*
X99125D03*
X98869D03*
X97130Y71251D03*
X96875D03*
X96619D03*
Y71999D03*
X96875D03*
X97130D03*
X90994Y55624D03*
X91250D03*
X91505D03*
Y54876D03*
X91250D03*
X90994D03*
X89255Y71251D03*
X89000D03*
X88744D03*
Y71999D03*
X89000D03*
X89255D03*
X83119Y55624D03*
X83375D03*
X83630D03*
Y54876D03*
X83375D03*
X83119D03*
X81380Y71251D03*
X81125D03*
X80869D03*
Y71999D03*
X81125D03*
X81380D03*
X75244Y55624D03*
X75500D03*
X75755D03*
Y54876D03*
X75500D03*
X75244D03*
X73505Y71251D03*
X73250D03*
X72994D03*
Y71999D03*
X73250D03*
X73505D03*
X67369Y55624D03*
X67625D03*
X67880D03*
Y54876D03*
X67625D03*
X67369D03*
X65630Y71251D03*
X65375D03*
X65119D03*
Y71999D03*
X65375D03*
X65630D03*
X51619Y30874D03*
X51875D03*
X52130D03*
Y30126D03*
X51875D03*
X51619D03*
X59494Y55624D03*
X59750D03*
X60005D03*
Y54876D03*
X59750D03*
X59494D03*
X57755Y71251D03*
X57500D03*
X57244D03*
Y71999D03*
X57500D03*
X57755D03*
X51619Y55624D03*
X51875D03*
X52130D03*
Y54876D03*
X51875D03*
X51619D03*
X65630Y46501D03*
X65375D03*
X65119D03*
Y47249D03*
X65375D03*
X65630D03*
X59494Y30874D03*
X59750D03*
X60005D03*
Y30126D03*
X59750D03*
X59494D03*
X73505Y46501D03*
X73250D03*
X72994D03*
Y47249D03*
X73250D03*
X73505D03*
X67369Y30874D03*
X67625D03*
X67880D03*
Y30126D03*
X67625D03*
X67369D03*
X81380Y46501D03*
X81125D03*
X80869D03*
Y47249D03*
X81125D03*
X81380D03*
X75244Y30874D03*
X75500D03*
X75755D03*
Y30126D03*
X75500D03*
X75244D03*
G54D328*
X85672Y43661D03*
X85272D03*
X86807Y33700D03*
X87207D03*
X77798Y43661D03*
X77398D03*
X78933Y33700D03*
X79333D03*
X71059Y58425D03*
X71459D03*
X62050Y68385D03*
X61650D03*
X63185Y58425D03*
X63585D03*
X55311Y33700D03*
X55711D03*
X54176Y68385D03*
X53776D03*
X55311Y58425D03*
X55711D03*
X62050Y43661D03*
X61650D03*
X93546D03*
X93146D03*
X94681Y33700D03*
X95081D03*
X101420Y43661D03*
X101020D03*
X102555Y33700D03*
X102955D03*
X109294Y43661D03*
X108894D03*
X110429Y33700D03*
X110829D03*
X109294Y68385D03*
X108894D03*
X110429Y58425D03*
X110829D03*
X101420Y68385D03*
X101020D03*
X102555Y58425D03*
X102955D03*
X54176Y43661D03*
X53776D03*
X93546Y68385D03*
X93146D03*
X94681Y58425D03*
X95081D03*
X85672Y68385D03*
X85272D03*
X86807Y58425D03*
X87207D03*
X77798Y68385D03*
X77398D03*
X78933Y58425D03*
X79333D03*
X69924Y68385D03*
X69524D03*
X63185Y33700D03*
X63585D03*
X69924Y43661D03*
X69524D03*
X71059Y33700D03*
X71459D03*
X26450Y28500D03*
X26050D03*
X25800Y25250D03*
X26200D03*
X27450D03*
X27050D03*
X31200Y38750D03*
X30800D03*
X31200Y43750D03*
X30800D03*
X38125Y67637D03*
Y67237D03*
X38625Y60875D03*
Y61275D03*
X39875Y60875D03*
Y61275D03*
X40500Y60875D03*
Y61275D03*
X32450Y67250D03*
X32050D03*
X35750Y67637D03*
Y67237D03*
X36125Y61262D03*
Y60862D03*
X38000D03*
Y61262D03*
X39450Y45500D03*
X39050D03*
X54366Y33700D03*
X54766D03*
X53782D03*
X53382D03*
X54609Y31771D03*
X54209D03*
X56217Y33700D03*
X56617D03*
X57122D03*
X57522D03*
X55511Y33192D03*
Y32792D03*
Y32247D03*
Y31847D03*
Y34248D03*
Y34648D03*
Y35193D03*
Y35593D03*
X56814Y31771D03*
X56414D03*
X56729Y35944D03*
X57129D03*
X54609D03*
X54209D03*
X37450Y37875D03*
X37050D03*
X39450Y37375D03*
X39050D03*
X84170Y45590D03*
X84570D03*
X85472Y43113D03*
Y42713D03*
X84766Y43661D03*
X84366D03*
X83861D03*
X83461D03*
X84333Y41417D03*
X83933D03*
X85472Y42168D03*
Y41768D03*
Y45115D03*
Y45515D03*
X86374Y41417D03*
X86774D03*
X86374Y45590D03*
X86774D03*
X86617Y43661D03*
X86217D03*
X85472Y44170D03*
Y44570D03*
X87201Y43661D03*
X87601D03*
X88310Y31771D03*
X87910D03*
X87007Y34248D03*
Y34648D03*
X87713Y33700D03*
X88113D03*
X88618D03*
X89018D03*
X88225Y35944D03*
X88625D03*
X87007Y35193D03*
Y35593D03*
Y32247D03*
Y31847D03*
X86105Y35944D03*
X85705D03*
X86105Y31771D03*
X85705D03*
X85863Y33700D03*
X86263D03*
X87007Y33192D03*
Y32792D03*
X85278Y33700D03*
X84878D03*
X92044Y45590D03*
X92444D03*
X93346Y43113D03*
Y42713D03*
X92640Y43661D03*
X92240D03*
X91735D03*
X91335D03*
X92207Y41417D03*
X91807D03*
X93346Y42168D03*
Y41768D03*
Y45115D03*
Y45515D03*
X94248Y41417D03*
X94648D03*
X94248Y45590D03*
X94648D03*
X94491Y43661D03*
X94091D03*
X93346Y44170D03*
Y44570D03*
X95075Y43661D03*
X95475D03*
X96184Y31771D03*
X95784D03*
X94881Y34248D03*
Y34648D03*
X95587Y33700D03*
X95987D03*
X96492D03*
X96892D03*
X96099Y35944D03*
X96499D03*
X94881Y35193D03*
Y35593D03*
Y32247D03*
Y31847D03*
X93979Y35944D03*
X93579D03*
X93979Y31771D03*
X93579D03*
X93737Y33700D03*
X94137D03*
X94881Y33192D03*
Y32792D03*
X93152Y33700D03*
X92752D03*
X99918Y45590D03*
X100318D03*
X101220Y43113D03*
Y42713D03*
X100515Y43661D03*
X100115D03*
X99609D03*
X99209D03*
X100081Y41417D03*
X99681D03*
X101220Y42168D03*
Y41768D03*
Y45115D03*
Y45515D03*
X102122Y41417D03*
X102522D03*
X102122Y45590D03*
X102522D03*
X102365Y43661D03*
X101965D03*
X101220Y44170D03*
Y44570D03*
X102949Y43661D03*
X103349D03*
X104058Y31771D03*
X103658D03*
X102755Y34248D03*
Y34648D03*
X103461Y33700D03*
X103861D03*
X104366D03*
X104766D03*
X103973Y35944D03*
X104373D03*
X102755Y35193D03*
Y35593D03*
Y32247D03*
Y31847D03*
X101853Y35944D03*
X101453D03*
X101853Y31771D03*
X101453D03*
X101611Y33700D03*
X102011D03*
X102755Y33192D03*
Y32792D03*
X101026Y33700D03*
X100626D03*
X107792Y45590D03*
X108192D03*
X109094Y43113D03*
Y42713D03*
X108389Y43661D03*
X107989D03*
X107483D03*
X107083D03*
X107955Y41417D03*
X107555D03*
X109094Y42168D03*
Y41768D03*
Y45115D03*
Y45515D03*
X109996Y41417D03*
X110396D03*
X109996Y45590D03*
X110396D03*
X110239Y43661D03*
X109839D03*
X109094Y44170D03*
Y44570D03*
X110823Y43661D03*
X111223D03*
X111932Y31771D03*
X111532D03*
X110629Y34248D03*
Y34648D03*
X111335Y33700D03*
X111735D03*
X112240D03*
X112640D03*
X111847Y35944D03*
X112247D03*
X110629Y35193D03*
Y35593D03*
Y32247D03*
Y31847D03*
X109727Y35944D03*
X109327D03*
X109727Y31771D03*
X109327D03*
X109485Y33700D03*
X109885D03*
X110629Y33192D03*
Y32792D03*
X108900Y33700D03*
X108500D03*
X107792Y70315D03*
X108192D03*
X109094Y67837D03*
Y67437D03*
X108389Y68385D03*
X107989D03*
X107483D03*
X107083D03*
X107955Y66141D03*
X107555D03*
X109094Y66892D03*
Y66492D03*
Y69839D03*
Y70239D03*
X109996Y66141D03*
X110396D03*
X109996Y70315D03*
X110396D03*
X110239Y68385D03*
X109839D03*
X109094Y68894D03*
Y69294D03*
X110823Y68385D03*
X111223D03*
X111932Y56496D03*
X111532D03*
X110629Y58973D03*
Y59373D03*
X111335Y58425D03*
X111735D03*
X112240D03*
X112640D03*
X111847Y60669D03*
X112247D03*
X110629Y59918D03*
Y60318D03*
Y56971D03*
Y56571D03*
X109727Y60669D03*
X109327D03*
X109727Y56496D03*
X109327D03*
X109485Y58425D03*
X109885D03*
X110629Y57916D03*
Y57516D03*
X108900Y58425D03*
X108500D03*
X99918Y70315D03*
X100318D03*
X101220Y67837D03*
Y67437D03*
X100515Y68385D03*
X100115D03*
X99609D03*
X99209D03*
X100081Y66141D03*
X99681D03*
X101220Y66892D03*
Y66492D03*
Y69839D03*
Y70239D03*
X102122Y66141D03*
X102522D03*
X102122Y70315D03*
X102522D03*
X52725Y45600D03*
X53125D03*
X102365Y68385D03*
X101965D03*
X101220Y68894D03*
Y69294D03*
X102949Y68385D03*
X103349D03*
X53976Y43113D03*
Y42713D03*
X53270Y43661D03*
X52870D03*
X52365D03*
X51965D03*
X52837Y41417D03*
X52437D03*
X53976Y42168D03*
Y41768D03*
Y45115D03*
Y45515D03*
X54878Y41417D03*
X55278D03*
X54878Y45590D03*
X55278D03*
X55121Y43661D03*
X54721D03*
X104058Y56496D03*
X103658D03*
X102755Y58973D03*
Y59373D03*
X103461Y58425D03*
X103861D03*
X104366D03*
X104766D03*
X103973Y60669D03*
X104373D03*
X102755Y59918D03*
Y60318D03*
Y56971D03*
Y56571D03*
X101853Y60669D03*
X101453D03*
X101853Y56496D03*
X101453D03*
X101611Y58425D03*
X102011D03*
X102755Y57916D03*
Y57516D03*
X101026Y58425D03*
X100626D03*
X53976Y44170D03*
Y44570D03*
X55705Y43661D03*
X56105D03*
X92044Y70315D03*
X92444D03*
X93346Y67837D03*
Y67437D03*
X92640Y68385D03*
X92240D03*
X91735D03*
X91335D03*
X92207Y66141D03*
X91807D03*
X93346Y66892D03*
Y66492D03*
Y69839D03*
Y70239D03*
X94248Y66141D03*
X94648D03*
X94248Y70315D03*
X94648D03*
X94491Y68385D03*
X94091D03*
X93346Y68894D03*
Y69294D03*
X95075Y68385D03*
X95475D03*
X96184Y56496D03*
X95784D03*
X94881Y58973D03*
Y59373D03*
X95587Y58425D03*
X95987D03*
X96492D03*
X96892D03*
X96099Y60669D03*
X96499D03*
X94881Y59918D03*
Y60318D03*
Y56971D03*
Y56571D03*
X93979Y60669D03*
X93579D03*
X93979Y56496D03*
X93579D03*
X93737Y58425D03*
X94137D03*
X94881Y57916D03*
Y57516D03*
X93152Y58425D03*
X92752D03*
X84170Y70315D03*
X84570D03*
X85472Y67837D03*
Y67437D03*
X84766Y68385D03*
X84366D03*
X83861D03*
X83461D03*
X84333Y66141D03*
X83933D03*
X85472Y66892D03*
Y66492D03*
Y69839D03*
Y70239D03*
X86374Y66141D03*
X86774D03*
X86374Y70315D03*
X86774D03*
X86617Y68385D03*
X86217D03*
X85472Y68894D03*
Y69294D03*
X87201Y68385D03*
X87601D03*
X88310Y56496D03*
X87910D03*
X87007Y58973D03*
Y59373D03*
X87713Y58425D03*
X88113D03*
X88618D03*
X89018D03*
X88225Y60669D03*
X88625D03*
X87007Y59918D03*
Y60318D03*
Y56971D03*
Y56571D03*
X86105Y60669D03*
X85705D03*
X86105Y56496D03*
X85705D03*
X85863Y58425D03*
X86263D03*
X87007Y57916D03*
Y57516D03*
X85278Y58425D03*
X84878D03*
X76296Y70315D03*
X76696D03*
X77598Y67837D03*
Y67437D03*
X76892Y68385D03*
X76492D03*
X75987D03*
X75587D03*
X76459Y66141D03*
X76059D03*
X77598Y66892D03*
Y66492D03*
Y69839D03*
Y70239D03*
X78500Y66141D03*
X78900D03*
X78500Y70315D03*
X78900D03*
X78743Y68385D03*
X78343D03*
X77598Y68894D03*
Y69294D03*
X79327Y68385D03*
X79727D03*
X80436Y56496D03*
X80036D03*
X79133Y58973D03*
Y59373D03*
X79839Y58425D03*
X80239D03*
X80744D03*
X81144D03*
X80351Y60669D03*
X80751D03*
X79133Y59918D03*
Y60318D03*
Y56971D03*
Y56571D03*
X78231Y60669D03*
X77831D03*
X78231Y56496D03*
X77831D03*
X77989Y58425D03*
X78389D03*
X79133Y57916D03*
Y57516D03*
X77404Y58425D03*
X77004D03*
X68422Y70315D03*
X68822D03*
X69724Y67837D03*
Y67437D03*
X69018Y68385D03*
X68618D03*
X68113D03*
X67713D03*
X68585Y66141D03*
X68185D03*
X69724Y66892D03*
Y66492D03*
Y69839D03*
Y70239D03*
X70626Y66141D03*
X71026D03*
X70626Y70315D03*
X71026D03*
X70869Y68385D03*
X70469D03*
X69724Y68894D03*
Y69294D03*
X71453Y68385D03*
X71853D03*
X72562Y56496D03*
X72162D03*
X71259Y58973D03*
Y59373D03*
X71965Y58425D03*
X72365D03*
X72870D03*
X73270D03*
X72477Y60669D03*
X72877D03*
X71259Y59918D03*
Y60318D03*
Y56971D03*
Y56571D03*
X70357Y60669D03*
X69957D03*
X70357Y56496D03*
X69957D03*
X70115Y58425D03*
X70515D03*
X71259Y57916D03*
Y57516D03*
X69530Y58425D03*
X69130D03*
X60548Y70315D03*
X60948D03*
X61850Y67837D03*
Y67437D03*
X61144Y68385D03*
X60744D03*
X60239D03*
X59839D03*
X60711Y66141D03*
X60311D03*
X61850Y66892D03*
Y66492D03*
Y69839D03*
Y70239D03*
X62752Y66141D03*
X63152D03*
X62752Y70315D03*
X63152D03*
X62995Y68385D03*
X62595D03*
X61850Y68894D03*
Y69294D03*
X63579Y68385D03*
X63979D03*
X64688Y56496D03*
X64288D03*
X63385Y58973D03*
Y59373D03*
X64091Y58425D03*
X64491D03*
X64996D03*
X65396D03*
X64603Y60669D03*
X65003D03*
X63385Y59918D03*
Y60318D03*
Y56971D03*
Y56571D03*
X62483Y60669D03*
X62083D03*
X62483Y56496D03*
X62083D03*
X62240Y58425D03*
X62640D03*
X63385Y57916D03*
Y57516D03*
X61656Y58425D03*
X61256D03*
X52674Y70315D03*
X53074D03*
X53976Y67837D03*
Y67437D03*
X53270Y68385D03*
X52870D03*
X52365D03*
X51965D03*
X52837Y66141D03*
X52437D03*
X53976Y66892D03*
Y66492D03*
Y69839D03*
Y70239D03*
X54878Y66141D03*
X55278D03*
X54878Y70315D03*
X55278D03*
X55121Y68385D03*
X54721D03*
X53976Y68894D03*
Y69294D03*
X55705Y68385D03*
X56105D03*
X56814Y56496D03*
X56414D03*
X55511Y58973D03*
Y59373D03*
X56217Y58425D03*
X56617D03*
X57122D03*
X57522D03*
X56729Y60669D03*
X57129D03*
X55511Y59918D03*
Y60318D03*
Y56971D03*
Y56571D03*
X54609Y60669D03*
X54209D03*
X54609Y56496D03*
X54209D03*
X54366Y58425D03*
X54766D03*
X55511Y57916D03*
Y57516D03*
X53782Y58425D03*
X53382D03*
X26450Y27250D03*
X26050D03*
X29950Y28250D03*
X29550D03*
X25200Y27250D03*
X24800D03*
X29950Y32500D03*
X29550D03*
X23800Y28125D03*
X24200D03*
X24300Y33250D03*
X24700D03*
X28450Y27250D03*
X28050D03*
X39450Y32750D03*
X39050D03*
X39450Y29000D03*
X39050D03*
X39450Y43000D03*
X39050D03*
X34950Y29000D03*
X34550D03*
X37050Y32750D03*
X37450D03*
X37050Y43000D03*
X37450D03*
X37050Y29000D03*
X37450D03*
X32550D03*
X32950D03*
X35450Y42750D03*
X35050D03*
X33050D03*
X33450D03*
X35450Y38813D03*
X35050D03*
X33050D03*
X33450D03*
X26950Y38250D03*
X26550D03*
X24550D03*
X24950D03*
X25950Y39750D03*
X25550D03*
X26950Y44750D03*
X26550D03*
X24950D03*
X24550D03*
X60548Y45590D03*
X60948D03*
X61850Y43113D03*
Y42713D03*
X61144Y43661D03*
X60744D03*
X60239D03*
X59839D03*
X60711Y41417D03*
X60311D03*
X61850Y42168D03*
Y41768D03*
Y45115D03*
Y45515D03*
X62752Y41417D03*
X63152D03*
X62752Y45590D03*
X63152D03*
X62995Y43661D03*
X62595D03*
X61850Y44170D03*
Y44570D03*
X63579Y43661D03*
X63979D03*
X64688Y31771D03*
X64288D03*
X63385Y34248D03*
Y34648D03*
X64091Y33700D03*
X64491D03*
X64996D03*
X65396D03*
X64603Y35944D03*
X65003D03*
X63385Y35193D03*
Y35593D03*
Y32247D03*
Y31847D03*
X62483Y35944D03*
X62083D03*
X62483Y31771D03*
X62083D03*
X62240Y33700D03*
X62640D03*
X63385Y33192D03*
Y32792D03*
X61656Y33700D03*
X61256D03*
X68422Y45590D03*
X68822D03*
X69724Y43113D03*
Y42713D03*
X69018Y43661D03*
X68618D03*
X68113D03*
X67713D03*
X68585Y41417D03*
X68185D03*
X69724Y42168D03*
Y41768D03*
Y45115D03*
Y45515D03*
X70626Y41417D03*
X71026D03*
X70626Y45590D03*
X71026D03*
X70869Y43661D03*
X70469D03*
X69724Y44170D03*
Y44570D03*
X71453Y43661D03*
X71853D03*
X72562Y31771D03*
X72162D03*
X71259Y34248D03*
Y34648D03*
X71965Y33700D03*
X72365D03*
X72870D03*
X73270D03*
X72477Y35944D03*
X72877D03*
X71259Y35193D03*
Y35593D03*
Y32247D03*
Y31847D03*
X70357Y35944D03*
X69957D03*
X70357Y31771D03*
X69957D03*
X70115Y33700D03*
X70515D03*
X71259Y33192D03*
Y32792D03*
X69530Y33700D03*
X69130D03*
X76296Y45590D03*
X76696D03*
X77598Y43113D03*
Y42713D03*
X76892Y43661D03*
X76492D03*
X75987D03*
X75587D03*
X76459Y41417D03*
X76059D03*
X77598Y42168D03*
Y41768D03*
Y45115D03*
Y45515D03*
X78500Y41417D03*
X78900D03*
X78500Y45590D03*
X78900D03*
X78743Y43661D03*
X78343D03*
X77598Y44170D03*
Y44570D03*
X79327Y43661D03*
X79727D03*
X80436Y31771D03*
X80036D03*
X79133Y34248D03*
Y34648D03*
X79839Y33700D03*
X80239D03*
X80744D03*
X81144D03*
X80351Y35944D03*
X80751D03*
X79133Y35193D03*
Y35593D03*
Y32247D03*
Y31847D03*
X78231Y35944D03*
X77831D03*
X78231Y31771D03*
X77831D03*
X77989Y33700D03*
X78389D03*
X79133Y33192D03*
Y32792D03*
X77404Y33700D03*
X77004D03*
X49200Y83750D03*
X48800D03*
X31300Y28675D03*
X30900D03*
X31300Y29825D03*
X30900D03*
X31300Y27775D03*
X30900D03*
G54D330*
X41000Y73817D03*
X40500D03*
X40000D03*
X39500D03*
Y76057D03*
X40000D03*
X40500D03*
X41000D03*
X30925Y73830D03*
X30425D03*
X29925D03*
X29425D03*
Y76070D03*
X29925D03*
X30425D03*
X30925D03*
G54D331*
X38130Y70187D03*
Y70687D03*
Y71187D03*
Y71687D03*
X40370D03*
Y71187D03*
Y70687D03*
Y70187D03*
X33620Y71687D03*
Y71187D03*
Y70687D03*
Y70187D03*
X31380D03*
Y70687D03*
Y71187D03*
Y71687D03*
G54D336*
X22000Y91305D03*
X28200D03*
X34400D03*
G54D337*
X23650D03*
X25300D03*
X22000Y89135D03*
X23650D03*
X25300D03*
X29850Y91305D03*
X31500D03*
X28200Y89135D03*
X29850D03*
X31500D03*
X36050Y91305D03*
X37700D03*
X34400Y89135D03*
X36050D03*
X37700D03*
G54D346*
X22000Y94175D03*
X25300D03*
X28200D03*
X31500D03*
X34400D03*
X37700D03*
G54D347*
X37772Y63435D03*
X37575D03*
X37378D03*
X37181D03*
X36984D03*
X36787D03*
X36590D03*
X36393D03*
X36196D03*
X36000D03*
X35803D03*
X35606D03*
X35409D03*
X35212D03*
X35015D03*
X34818D03*
X34621D03*
X34424D03*
X34227D03*
Y65689D03*
X34424D03*
X34621D03*
X34818D03*
X35015D03*
X35212D03*
X35409D03*
X35606D03*
X35803D03*
X36000D03*
X36196D03*
X36393D03*
X36590D03*
X36787D03*
X36984D03*
X37181D03*
X37378D03*
X37575D03*
X37772D03*
G54D348*
X36000Y64562D03*
G54D349*
X37250Y67367D03*
X33875D03*
G54D350*
X37250Y68287D03*
X33875D03*
G74*
X0Y0D02*
M02*
