*
*
G04 PADS 9.2 Build Number: 414666 generated Gerber (RS-274-X) file*
G04 PC Version=2.1*
*
%IN "CC1B_080118.pcb"*%
*
%MOIN*%
*
%FSLAX24Y24*%
*
*
*
*
G04 PC Standard Apertures*
*
*
G04 Thermal Relief Aperture macro.*
%AMTER*
1,1,$1,0,0*
1,0,$1-$2,0,0*
21,0,$3,$4,0,0,45*
21,0,$3,$4,0,0,135*
%
*
*
G04 Annular Aperture macro.*
%AMANN*
1,1,$1,0,0*
1,0,$2,0,0*
%
*
*
G04 Odd Aperture macro.*
%AMODD*
1,1,$1,0,0*
1,0,$1-0.005,0,0*
%
*
*
G04 PC Custom Aperture Macros*
*
*
*
*
*
*
G04 PC Aperture Table*
*
%ADD010C,0.001*%
%ADD013R,0.06X0.06*%
%ADD014C,0.06*%
%ADD025C,0.02*%
%ADD028C,0.01*%
%ADD031C,0.015*%
%ADD032C,0.005*%
%ADD035C,0.025*%
%ADD038C,0.019*%
%ADD040C,0.024*%
%ADD063C,0.008*%
%ADD231C,0.0045*%
%ADD330R,0.055X0.055*%
%ADD331C,0.055*%
*
*
*
*
G04 PC Circuitry*
G04 Layer Name CC1B_080118.pcb - circuitry*
%LPD*%
*
*
G04 PC Custom Flashes*
G04 Layer Name CC1B_080118.pcb - flashes*
%LPD*%
*
*
G04 PC Circuitry*
G04 Layer Name CC1B_080118.pcb - circuitry*
%LPD*%
*
G54D10*
G54D13*
G01X60250Y24470D03*
X21500Y37529D03*
Y28279D03*
X23000Y37529D03*
Y28279D03*
X24500D03*
Y37529D03*
G54D14*
X60250Y25470D03*
X21500Y38529D03*
Y29279D03*
X23000Y38529D03*
Y29279D03*
X24500D03*
Y38529D03*
G54D25*
X66700Y26500D02*
X67600Y25600D01*
X68700*
G54D28*
X20145Y51034D02*
Y50050D01*
X20554*
X21133Y51034D02*
X20860Y50050D01*
X21133Y51034D02*
X21406Y50050D01*
X20963Y50378D02*
X21304D01*
X21713Y51034D02*
X21985Y50565D01*
X21985D02*
Y50050D01*
X22258Y51034D02*
X21985Y50565D01*
X22565Y51034D02*
Y50050D01*
Y51034D02*
X23008D01*
X22565Y50565D02*
X22838D01*
X22565Y50050D02*
X23008D01*
X23315Y51034D02*
Y50050D01*
Y51034D02*
X23622D01*
X23724Y50987*
X23724D02*
X23758Y50940D01*
X23758D02*
X23792Y50846D01*
X23792D02*
Y50753D01*
X23792D02*
X23758Y50659D01*
X23758D02*
X23724Y50612D01*
X23724D02*
X23622Y50565D01*
X23622D02*
X23315D01*
X23554D02*
X23792Y50050D01*
X24951Y51034D02*
X25326D01*
X25326D02*
X25122Y50659D01*
X25224*
X25224D02*
X25292Y50612D01*
X25292D02*
X25326Y50565D01*
X25326D02*
X25360Y50425D01*
X25360D02*
Y50331D01*
X25360D02*
X25326Y50190D01*
X25326D02*
X25258Y50096D01*
X25258D02*
X25156Y50050D01*
X25054*
X24951Y50096*
X24951D02*
X24917Y50143D01*
X24917D02*
X24883Y50237D01*
X26451Y51034D02*
Y50050D01*
X26758Y51034D02*
Y50050D01*
Y51034D02*
X27235Y50050D01*
Y51034D02*
Y50050D01*
X27542Y51034D02*
Y50050D01*
Y51034D02*
X28020Y50050D01*
Y51034D02*
Y50050D01*
X28326Y51034D02*
Y50050D01*
Y51034D02*
X28770D01*
X28326Y50565D02*
X28599D01*
X28326Y50050D02*
X28770D01*
X29076Y51034D02*
Y50050D01*
Y51034D02*
X29383D01*
X29383D02*
X29485Y50987D01*
X29485D02*
X29520Y50940D01*
X29520D02*
X29554Y50846D01*
X29554D02*
Y50753D01*
X29520Y50659*
X29485Y50612*
X29485D02*
X29383Y50565D01*
X29383D02*
X29076D01*
X29315D02*
X29554Y50050D01*
X31122Y50893D02*
X31054Y50987D01*
X31054D02*
X30951Y51034D01*
X30951D02*
X30815D01*
X30713Y50987*
X30713D02*
X30645Y50893D01*
X30645D02*
Y50800D01*
X30679Y50706*
X30713Y50659*
X30781Y50612*
X30781D02*
X30985Y50518D01*
X30985D02*
X31054Y50471D01*
X31054D02*
X31088Y50425D01*
X31122Y50331*
Y50190*
X31122D02*
X31054Y50096D01*
X31054D02*
X30951Y50050D01*
X30951D02*
X30815D01*
X30713Y50096*
X30713D02*
X30645Y50190D01*
X31429Y51034D02*
Y50050D01*
X32247Y50800D02*
X32213Y50893D01*
X32213D02*
X32145Y50987D01*
X32145D02*
X32076Y51034D01*
X32076D02*
X31940D01*
X31872Y50987*
X31872D02*
X31804Y50893D01*
X31804D02*
X31770Y50800D01*
X31735Y50659*
X31735D02*
Y50425D01*
X31735D02*
X31770Y50284D01*
X31804Y50190*
X31804D02*
X31872Y50096D01*
X31872D02*
X31940Y50050D01*
X32076*
X32076D02*
X32145Y50096D01*
X32145D02*
X32213Y50190D01*
X32213D02*
X32247Y50284D01*
Y50425*
X32076D02*
X32247D01*
X20511Y53000D02*
X20477Y53093D01*
X20477D02*
X20409Y53187D01*
X20409D02*
X20340Y53234D01*
X20340D02*
X20204D01*
X20204D02*
X20136Y53187D01*
X20136D02*
X20068Y53093D01*
X20068D02*
X20034Y53000D01*
X20000Y52859*
Y52625*
X20034Y52484*
X20068Y52390*
X20068D02*
X20136Y52296D01*
X20136D02*
X20204Y52250D01*
X20204D02*
X20340D01*
X20340D02*
X20409Y52296D01*
X20409D02*
X20477Y52390D01*
X20477D02*
X20511Y52484D01*
X21329Y53000D02*
X21295Y53093D01*
X21295D02*
X21227Y53187D01*
X21227D02*
X21159Y53234D01*
X21022*
X21022D02*
X20954Y53187D01*
X20954D02*
X20886Y53093D01*
X20886D02*
X20852Y53000D01*
X20818Y52859*
Y52625*
X20852Y52484*
X20886Y52390*
X20886D02*
X20954Y52296D01*
X20954D02*
X21022Y52250D01*
X21022D02*
X21159D01*
X21227Y52296*
X21227D02*
X21295Y52390D01*
X21295D02*
X21329Y52484D01*
X21636Y53046D02*
X21704Y53093D01*
X21704D02*
X21806Y53234D01*
X21806D02*
Y52250D01*
X22113Y53234D02*
Y52250D01*
Y53234D02*
X22420D01*
X22522Y53187*
X22522D02*
X22556Y53140D01*
X22556D02*
X22590Y53046D01*
X22590D02*
Y52953D01*
X22590D02*
X22556Y52859D01*
X22556D02*
X22522Y52812D01*
X22522D02*
X22420Y52765D01*
X22113D02*
X22420D01*
X22420D02*
X22522Y52718D01*
X22522D02*
X22556Y52671D01*
X22556D02*
X22590Y52578D01*
X22590D02*
Y52437D01*
X22590D02*
X22556Y52343D01*
X22556D02*
X22522Y52296D01*
X22522D02*
X22420Y52250D01*
X22113*
X24193Y53000D02*
X24159Y53093D01*
X24159D02*
X24090Y53187D01*
X24090D02*
X24022Y53234D01*
X24022D02*
X23886D01*
X23818Y53187*
X23818D02*
X23750Y53093D01*
X23750D02*
X23715Y53000D01*
X23715D02*
X23681Y52859D01*
X23681D02*
Y52625D01*
X23681D02*
X23715Y52484D01*
X23715D02*
X23750Y52390D01*
X23750D02*
X23818Y52296D01*
X23818D02*
X23886Y52250D01*
X24022*
X24022D02*
X24090Y52296D01*
X24090D02*
X24159Y52390D01*
X24159D02*
X24193Y52484D01*
X24704Y53234D02*
X24636Y53187D01*
X24636D02*
X24568Y53093D01*
X24568D02*
X24534Y53000D01*
X24500Y52859*
Y52625*
X24534Y52484*
X24568Y52390*
X24568D02*
X24636Y52296D01*
X24636D02*
X24704Y52250D01*
X24704D02*
X24840D01*
X24840D02*
X24909Y52296D01*
X24909D02*
X24977Y52390D01*
X24977D02*
X25011Y52484D01*
X25045Y52625*
Y52859*
X25011Y53000*
X24977Y53093*
X24977D02*
X24909Y53187D01*
X24909D02*
X24840Y53234D01*
X24840D02*
X24704D01*
X25352D02*
Y52250D01*
Y53234D02*
X25829Y52250D01*
Y53234D02*
Y52250D01*
X26375Y53234D02*
Y52250D01*
X26136Y53234D02*
X26613D01*
X26920D02*
Y52250D01*
Y53234D02*
X27227D01*
X27329Y53187*
X27329D02*
X27363Y53140D01*
X27363D02*
X27397Y53046D01*
X27397D02*
Y52953D01*
X27397D02*
X27363Y52859D01*
X27363D02*
X27329Y52812D01*
X27329D02*
X27227Y52765D01*
X27227D02*
X26920D01*
X27159D02*
X27397Y52250D01*
X27909Y53234D02*
X27840Y53187D01*
X27840D02*
X27772Y53093D01*
X27772D02*
X27738Y53000D01*
X27738D02*
X27704Y52859D01*
X27704D02*
Y52625D01*
X27704D02*
X27738Y52484D01*
X27738D02*
X27772Y52390D01*
X27772D02*
X27840Y52296D01*
X27840D02*
X27909Y52250D01*
X28045*
X28113Y52296*
X28113D02*
X28181Y52390D01*
X28181D02*
X28215Y52484D01*
X28215D02*
X28250Y52625D01*
Y52859*
X28215Y53000*
X28215D02*
X28181Y53093D01*
X28181D02*
X28113Y53187D01*
X28113D02*
X28045Y53234D01*
X27909*
X28556D02*
Y52250D01*
X28556D02*
X28965D01*
X30056Y53234D02*
Y52250D01*
Y53234D02*
X30363D01*
X30363D02*
X30465Y53187D01*
X30465D02*
X30500Y53140D01*
X30500D02*
X30534Y53046D01*
X30534D02*
Y52953D01*
X30500Y52859*
X30465Y52812*
X30465D02*
X30363Y52765D01*
X30056D02*
X30363D01*
X30363D02*
X30465Y52718D01*
X30465D02*
X30500Y52671D01*
X30500D02*
X30534Y52578D01*
Y52437*
X30534D02*
X30500Y52343D01*
X30500D02*
X30465Y52296D01*
X30465D02*
X30363Y52250D01*
X30363D02*
X30056D01*
X31045Y53234D02*
X30977Y53187D01*
X30977D02*
X30909Y53093D01*
X30909D02*
X30875Y53000D01*
X30840Y52859*
X30840D02*
Y52625D01*
X30840D02*
X30875Y52484D01*
X30909Y52390*
X30909D02*
X30977Y52296D01*
X30977D02*
X31045Y52250D01*
X31181*
X31181D02*
X31250Y52296D01*
X31250D02*
X31318Y52390D01*
X31318D02*
X31352Y52484D01*
X31386Y52625*
Y52859*
X31352Y53000*
X31318Y53093*
X31318D02*
X31250Y53187D01*
X31250D02*
X31181Y53234D01*
X31181D02*
X31045D01*
X31965D02*
X31693Y52250D01*
X31965Y53234D02*
X32238Y52250D01*
X31795Y52578D02*
X32136D01*
X32545Y53234D02*
Y52250D01*
Y53234D02*
X32852D01*
X32954Y53187*
X32954D02*
X32988Y53140D01*
X32988D02*
X33022Y53046D01*
X33022D02*
Y52953D01*
X33022D02*
X32988Y52859D01*
X32988D02*
X32954Y52812D01*
X32954D02*
X32852Y52765D01*
X32852D02*
X32545D01*
X32784D02*
X33022Y52250D01*
X33329Y53234D02*
Y52250D01*
Y53234D02*
X33568D01*
X33670Y53187*
X33670D02*
X33738Y53093D01*
X33738D02*
X33772Y53000D01*
X33772D02*
X33806Y52859D01*
X33806D02*
Y52625D01*
X33806D02*
X33772Y52484D01*
X33772D02*
X33738Y52390D01*
X33738D02*
X33670Y52296D01*
X33670D02*
X33568Y52250D01*
X33329*
X34897Y53234D02*
Y52250D01*
Y53234D02*
X35204D01*
X35204D02*
X35306Y53187D01*
X35306D02*
X35340Y53140D01*
X35340D02*
X35375Y53046D01*
X35375D02*
Y52953D01*
X35340Y52859*
X35340D02*
X35306Y52812D01*
X35306D02*
X35204Y52765D01*
X35204D02*
X34897D01*
X35136D02*
X35375Y52250D01*
X35681Y53234D02*
Y52250D01*
Y53234D02*
X36125D01*
X35681Y52765D02*
X35954D01*
X35681Y52250D02*
X36125D01*
X36431Y53234D02*
X36704Y52250D01*
X36977Y53234D02*
X36704Y52250D01*
X38340Y53234D02*
X38068Y52250D01*
X38340Y53234D02*
X38613Y52250D01*
X38170Y52578D02*
X38511D01*
X20204Y55234D02*
X20136Y55187D01*
X20136D02*
X20068Y55093D01*
X20068D02*
X20034Y55000D01*
X20000Y54859*
Y54625*
X20034Y54484*
X20068Y54390*
X20068D02*
X20136Y54296D01*
X20136D02*
X20204Y54250D01*
X20204D02*
X20340D01*
X20340D02*
X20409Y54296D01*
X20409D02*
X20477Y54390D01*
X20477D02*
X20511Y54484D01*
X20545Y54625*
Y54859*
X20511Y55000*
X20477Y55093*
X20477D02*
X20409Y55187D01*
X20409D02*
X20340Y55234D01*
X20340D02*
X20204D01*
X20852D02*
Y54250D01*
Y55234D02*
X21159D01*
X21261Y55187*
X21261D02*
X21295Y55140D01*
X21295D02*
X21329Y55046D01*
X21329D02*
Y54953D01*
X21329D02*
X21295Y54859D01*
X21261Y54812*
X21261D02*
X21159Y54765D01*
X21159D02*
X20852D01*
X21090D02*
X21329Y54250D01*
X22147Y55000D02*
X22113Y55093D01*
X22113D02*
X22045Y55187D01*
X22045D02*
X21977Y55234D01*
X21840*
X21840D02*
X21772Y55187D01*
X21772D02*
X21704Y55093D01*
X21704D02*
X21670Y55000D01*
X21636Y54859*
Y54625*
X21670Y54484*
X21704Y54390*
X21704D02*
X21772Y54296D01*
X21772D02*
X21840Y54250D01*
X21840D02*
X21977D01*
X22045Y54296*
X22045D02*
X22113Y54390D01*
X22113D02*
X22147Y54484D01*
X22454Y55234D02*
Y54250D01*
X22931Y55234D02*
Y54250D01*
X22454Y54765D02*
X22931D01*
X23238Y55234D02*
Y54250D01*
X23545Y55234D02*
Y54250D01*
Y55234D02*
X23784D01*
X23886Y55187*
X23886D02*
X23954Y55093D01*
X23954D02*
X23988Y55000D01*
X23988D02*
X24022Y54859D01*
X24022D02*
Y54625D01*
X24022D02*
X23988Y54484D01*
X23988D02*
X23954Y54390D01*
X23954D02*
X23886Y54296D01*
X23886D02*
X23784Y54250D01*
X23545*
X25352Y55234D02*
Y54250D01*
X25113Y55234D02*
X25590D01*
X25897D02*
Y54250D01*
Y55234D02*
X26340D01*
X25897Y54765D02*
X26170D01*
X25897Y54250D02*
X26340D01*
X27159Y55000D02*
X27125Y55093D01*
X27125D02*
X27056Y55187D01*
X27056D02*
X26988Y55234D01*
X26988D02*
X26852D01*
X26784Y55187*
X26784D02*
X26715Y55093D01*
X26715D02*
X26681Y55000D01*
X26681D02*
X26647Y54859D01*
X26647D02*
Y54625D01*
X26647D02*
X26681Y54484D01*
X26681D02*
X26715Y54390D01*
X26715D02*
X26784Y54296D01*
X26784D02*
X26852Y54250D01*
X26988*
X26988D02*
X27056Y54296D01*
X27056D02*
X27125Y54390D01*
X27125D02*
X27159Y54484D01*
X27465Y55234D02*
Y54250D01*
X27943Y55234D02*
Y54250D01*
X27465Y54765D02*
X27943D01*
X28250Y55234D02*
Y54250D01*
Y55234D02*
X28727Y54250D01*
Y55234D02*
Y54250D01*
X29238Y55234D02*
X29170Y55187D01*
X29170D02*
X29102Y55093D01*
X29102D02*
X29068Y55000D01*
X29034Y54859*
Y54625*
X29068Y54484*
X29102Y54390*
X29102D02*
X29170Y54296D01*
X29170D02*
X29238Y54250D01*
X29238D02*
X29375D01*
X29443Y54296*
X29443D02*
X29511Y54390D01*
X29511D02*
X29545Y54484D01*
X29579Y54625*
X29579D02*
Y54859D01*
X29579D02*
X29545Y55000D01*
X29511Y55093*
X29511D02*
X29443Y55187D01*
X29443D02*
X29375Y55234D01*
X29238*
X29886D02*
Y54250D01*
X30295*
X30806Y55234D02*
X30738Y55187D01*
X30738D02*
X30670Y55093D01*
X30670D02*
X30636Y55000D01*
X30602Y54859*
Y54625*
X30636Y54484*
X30670Y54390*
X30670D02*
X30738Y54296D01*
X30738D02*
X30806Y54250D01*
X30806D02*
X30943D01*
X31011Y54296*
X31011D02*
X31079Y54390D01*
X31079D02*
X31113Y54484D01*
X31113D02*
X31147Y54625D01*
X31147D02*
Y54859D01*
X31147D02*
X31113Y55000D01*
X31113D02*
X31079Y55093D01*
X31079D02*
X31011Y55187D01*
X31011D02*
X30943Y55234D01*
X30806*
X31965Y55000D02*
X31931Y55093D01*
X31931D02*
X31863Y55187D01*
X31863D02*
X31795Y55234D01*
X31659*
X31590Y55187*
X31590D02*
X31522Y55093D01*
X31522D02*
X31488Y55000D01*
X31488D02*
X31454Y54859D01*
X31454D02*
Y54625D01*
X31454D02*
X31488Y54484D01*
X31488D02*
X31522Y54390D01*
X31522D02*
X31590Y54296D01*
X31590D02*
X31659Y54250D01*
X31795*
X31863Y54296*
X31863D02*
X31931Y54390D01*
X31931D02*
X31965Y54484D01*
X31965D02*
Y54625D01*
X31795D02*
X31965D01*
X32272Y55234D02*
Y54250D01*
X32579Y55234D02*
Y54250D01*
Y55234D02*
X33022D01*
X32579Y54765D02*
X32852D01*
X32579Y54250D02*
X33022D01*
X33806Y55093D02*
X33738Y55187D01*
X33738D02*
X33636Y55234D01*
X33500*
X33397Y55187*
X33397D02*
X33329Y55093D01*
X33329D02*
Y55000D01*
X33329D02*
X33363Y54906D01*
X33363D02*
X33397Y54859D01*
X33397D02*
X33465Y54812D01*
X33465D02*
X33670Y54718D01*
X33670D02*
X33738Y54671D01*
X33738D02*
X33772Y54625D01*
X33772D02*
X33806Y54531D01*
X33806D02*
Y54390D01*
X33806D02*
X33738Y54296D01*
X33738D02*
X33636Y54250D01*
X33500*
X33397Y54296*
X33397D02*
X33329Y54390D01*
X34897Y55234D02*
Y54250D01*
Y55234D02*
X35340D01*
X34897Y54765D02*
X35170D01*
X34897Y54250D02*
X35340D01*
X35647Y55234D02*
Y54250D01*
Y55234D02*
X36125Y54250D01*
Y55234D02*
Y54250D01*
X36943Y55000D02*
X36909Y55093D01*
X36909D02*
X36840Y55187D01*
X36840D02*
X36772Y55234D01*
X36772D02*
X36636D01*
X36568Y55187*
X36568D02*
X36500Y55093D01*
X36500D02*
X36465Y55000D01*
X36465D02*
X36431Y54859D01*
X36431D02*
Y54625D01*
X36431D02*
X36465Y54484D01*
X36465D02*
X36500Y54390D01*
X36500D02*
X36568Y54296D01*
X36568D02*
X36636Y54250D01*
X36772*
X36772D02*
X36840Y54296D01*
X36840D02*
X36909Y54390D01*
X36909D02*
X36943Y54484D01*
Y54625*
X36772D02*
X36943D01*
X37250Y55234D02*
Y54250D01*
X37556Y55234D02*
Y54250D01*
Y55234D02*
X38034Y54250D01*
Y55234D02*
Y54250D01*
X38340Y55234D02*
Y54250D01*
Y55234D02*
X38784D01*
X38340Y54765D02*
X38613D01*
X38340Y54250D02*
X38784D01*
X39090Y55234D02*
Y54250D01*
Y55234D02*
X39534D01*
X39090Y54765D02*
X39363D01*
X39090Y54250D02*
X39534D01*
X39840Y55234D02*
Y54250D01*
Y55234D02*
X40147D01*
X40147D02*
X40250Y55187D01*
X40250D02*
X40284Y55140D01*
X40284D02*
X40318Y55046D01*
X40318D02*
Y54953D01*
X40284Y54859*
X40250Y54812*
X40250D02*
X40147Y54765D01*
X40147D02*
X39840D01*
X40079D02*
X40318Y54250D01*
X40625Y55234D02*
Y54250D01*
X40931Y55234D02*
Y54250D01*
Y55234D02*
X41409Y54250D01*
Y55234D02*
Y54250D01*
X42227Y55000D02*
X42193Y55093D01*
X42193D02*
X42125Y55187D01*
X42125D02*
X42056Y55234D01*
X42056D02*
X41920D01*
X41852Y55187*
X41852D02*
X41784Y55093D01*
X41784D02*
X41750Y55000D01*
X41715Y54859*
X41715D02*
Y54625D01*
X41715D02*
X41750Y54484D01*
X41784Y54390*
X41784D02*
X41852Y54296D01*
X41852D02*
X41920Y54250D01*
X42056*
X42056D02*
X42125Y54296D01*
X42125D02*
X42193Y54390D01*
X42193D02*
X42227Y54484D01*
Y54625*
X42056D02*
X42227D01*
X44000Y54812D02*
Y54859D01*
X43965Y54906*
X43965D02*
X43931D01*
X43931D02*
X43897Y54859D01*
X43897D02*
X43863Y54765D01*
X43863D02*
X43795Y54531D01*
X43727Y54390*
X43727D02*
X43659Y54296D01*
X43659D02*
X43590Y54250D01*
X43590D02*
X43454D01*
X43454D02*
X43386Y54296D01*
X43386D02*
X43352Y54343D01*
X43352D02*
X43318Y54437D01*
X43318D02*
Y54531D01*
X43352Y54625*
X43386Y54671*
X43386D02*
X43625Y54859D01*
X43659Y54906*
X43693Y55000*
Y55093*
X43693D02*
X43659Y55187D01*
X43659D02*
X43590Y55234D01*
X43590D02*
X43522Y55187D01*
X43522D02*
X43488Y55093D01*
X43488D02*
Y55000D01*
X43488D02*
X43522Y54859D01*
X43522D02*
X43590Y54718D01*
X43590D02*
X43761Y54390D01*
X43761D02*
X43829Y54296D01*
X43829D02*
X43897Y54250D01*
X43897D02*
X43965D01*
X43965D02*
X44000Y54296D01*
X44000D02*
Y54343D01*
X45602Y55000D02*
X45568Y55093D01*
X45568D02*
X45500Y55187D01*
X45500D02*
X45431Y55234D01*
X45431D02*
X45295D01*
X45227Y55187*
X45227D02*
X45159Y55093D01*
X45159D02*
X45125Y55000D01*
X45090Y54859*
X45090D02*
Y54625D01*
X45090D02*
X45125Y54484D01*
X45159Y54390*
X45159D02*
X45227Y54296D01*
X45227D02*
X45295Y54250D01*
X45431*
X45431D02*
X45500Y54296D01*
X45500D02*
X45568Y54390D01*
X45568D02*
X45602Y54484D01*
X46113Y55234D02*
X46045Y55187D01*
X46045D02*
X45977Y55093D01*
X45977D02*
X45943Y55000D01*
X45909Y54859*
Y54625*
X45943Y54484*
X45977Y54390*
X45977D02*
X46045Y54296D01*
X46045D02*
X46113Y54250D01*
X46113D02*
X46250D01*
X46318Y54296*
X46318D02*
X46386Y54390D01*
X46386D02*
X46420Y54484D01*
X46454Y54625*
X46454D02*
Y54859D01*
X46454D02*
X46420Y55000D01*
X46386Y55093*
X46386D02*
X46318Y55187D01*
X46318D02*
X46250Y55234D01*
X46113*
X46761D02*
Y54250D01*
Y55234D02*
X47238Y54250D01*
Y55234D02*
Y54250D01*
X48022Y55093D02*
X47954Y55187D01*
X47954D02*
X47852Y55234D01*
X47715*
X47715D02*
X47613Y55187D01*
X47613D02*
X47545Y55093D01*
X47545D02*
Y55000D01*
X47579Y54906*
X47579D02*
X47613Y54859D01*
X47613D02*
X47681Y54812D01*
X47681D02*
X47886Y54718D01*
X47886D02*
X47954Y54671D01*
X47954D02*
X47988Y54625D01*
X47988D02*
X48022Y54531D01*
X48022D02*
Y54390D01*
X48022D02*
X47954Y54296D01*
X47954D02*
X47852Y54250D01*
X47715*
X47715D02*
X47613Y54296D01*
X47613D02*
X47545Y54390D01*
X48329Y55234D02*
Y54531D01*
X48329D02*
X48363Y54390D01*
X48363D02*
X48431Y54296D01*
X48431D02*
X48534Y54250D01*
X48602*
X48704Y54296*
X48704D02*
X48772Y54390D01*
X48772D02*
X48806Y54531D01*
X48806D02*
Y55234D01*
X49113D02*
Y54250D01*
X49113D02*
X49522D01*
X50068Y55234D02*
Y54250D01*
X49829Y55234D02*
X50306D01*
X50613D02*
Y54250D01*
X50920Y55234D02*
Y54250D01*
Y55234D02*
X51397Y54250D01*
Y55234D02*
Y54250D01*
X52215Y55000D02*
X52181Y55093D01*
X52181D02*
X52113Y55187D01*
X52113D02*
X52045Y55234D01*
X51909*
X51840Y55187*
X51840D02*
X51772Y55093D01*
X51772D02*
X51738Y55000D01*
X51738D02*
X51704Y54859D01*
X51704D02*
Y54625D01*
X51704D02*
X51738Y54484D01*
X51738D02*
X51772Y54390D01*
X51772D02*
X51840Y54296D01*
X51840D02*
X51909Y54250D01*
X52045*
X52113Y54296*
X52113D02*
X52181Y54390D01*
X52181D02*
X52215Y54484D01*
X52215D02*
Y54625D01*
X52045D02*
X52215D01*
X52590Y54296D02*
X52556Y54250D01*
X52556D02*
X52522Y54296D01*
X52522D02*
X52556Y54343D01*
X52556D02*
X52590Y54296D01*
X52590D02*
Y54203D01*
X52590D02*
X52556Y54109D01*
X52556D02*
X52522Y54062D01*
X53681Y55234D02*
Y54250D01*
X53988Y55234D02*
Y54250D01*
Y55234D02*
X54465Y54250D01*
Y55234D02*
Y54250D01*
X55284Y55000D02*
X55250Y55093D01*
X55250D02*
X55181Y55187D01*
X55181D02*
X55113Y55234D01*
X55113D02*
X54977D01*
X54909Y55187*
X54909D02*
X54840Y55093D01*
X54840D02*
X54806Y55000D01*
X54806D02*
X54772Y54859D01*
X54772D02*
Y54625D01*
X54772D02*
X54806Y54484D01*
X54806D02*
X54840Y54390D01*
X54840D02*
X54909Y54296D01*
X54909D02*
X54977Y54250D01*
X55113*
X55113D02*
X55181Y54296D01*
X55181D02*
X55250Y54390D01*
X55250D02*
X55284Y54484D01*
X55625Y54343D02*
X55590Y54296D01*
X55590D02*
X55625Y54250D01*
X55659Y54296*
X55659D02*
X55625Y54343D01*
X17000Y51500D02*
G75*
G03X17000I-1000J0D01*
G01X16500D02*
G03X16500I-500J0D01*
G01X16000Y53500D02*
Y49500D01*
X14000Y51500D02*
X18000D01*
X96000D02*
G03X96000I-1000J0D01*
G01X95500D02*
G03X95500I-500J0D01*
G01X95000Y53500D02*
Y49500D01*
X93000Y51500D02*
X97000D01*
X96000Y16000D02*
G03X96000I-1000J0D01*
G01X95500D02*
G03X95500I-500J0D01*
G01X95000Y18000D02*
Y14000D01*
X93000Y16000D02*
X97000D01*
X25000Y20000D02*
X20000D01*
Y24750*
Y42750D02*
Y47560D01*
X24750*
X80410Y47559D02*
X84565D01*
Y45985*
X90865*
Y41300*
X80403Y20000D02*
X84568D01*
Y21573*
X90867*
Y26270*
X20000Y27596D02*
Y31614D01*
X22950*
G03X22949Y35940I7J2163*
G01X22950D02*
X20000D01*
Y39956*
G54D31*
X66259Y36220D02*
X66480Y36456D01*
X66480D02*
X66653D01*
X66653D02*
X66850Y36259D01*
X66850D02*
X67519D01*
X67519D02*
X67874Y36614D01*
X68175*
X68610Y37050*
X68610D02*
X69875D01*
X70200Y36750*
G54D32*
X45075Y23700D02*
Y26350D01*
X46250Y27525*
X49450*
X50425Y26550*
X62200*
X63125Y27475*
X66675*
X27000Y31429D02*
X27070D01*
X24500Y29279D02*
X25975D01*
X25975D02*
X26620Y29925D01*
X35495*
X37000Y31429*
X24500Y28279D02*
X25250D01*
X25250D02*
X26625Y26904D01*
X26625D02*
X28450D01*
X28450D02*
X31429Y23925D01*
X31429D02*
X35504D01*
X35504D02*
X37000Y22429D01*
X23000Y29279D02*
X23495Y29775D01*
X25300*
X26475Y30950*
X29950*
X30429Y31429*
X30429D02*
X32000D01*
X23000Y28279D02*
X23504Y27775D01*
X23504D02*
X24800D01*
X26625Y25950*
X28479*
X28479D02*
X32000Y22429D01*
X21500Y29279D02*
X22245Y30025D01*
Y30475*
X22645Y30875*
X25525*
X26079Y31429*
X26079D02*
X27070D01*
X21500Y28279D02*
X22175Y27604D01*
X22175D02*
X24325D01*
X24325D02*
X26254Y25675D01*
X26254D02*
Y23175D01*
X26254D02*
X26925Y22504D01*
X26925D02*
Y22354D01*
X26925D02*
X27000Y22429D01*
X43875Y29775D02*
X45525Y31425D01*
X48825*
X49725Y30525*
X64125*
X64275Y30375*
X46475Y31075D02*
X47975D01*
X49275Y29775*
X55350*
X55450Y29875*
X61700*
X61800Y29775*
X65675*
X65825Y29625*
X66175*
X49500Y26425D02*
X49700Y26225D01*
X61925*
X62850Y25300*
X66225*
X66825Y24700*
X46525Y27100D02*
X49525D01*
X50250Y26375*
X62200*
X63075Y25500*
X66475*
X66825Y25150*
X49100Y26050D02*
X61675D01*
X63250Y24475*
X65425*
X53125Y30175D02*
X53675D01*
X53825Y30325*
X63825*
X64000Y30150*
X61475Y27025D02*
X62000Y27550D01*
X62425*
X62925Y28050*
X65400*
X65575Y27875*
X66475*
X66975Y28375*
X69075*
X61950Y27900D02*
X62375Y28325D01*
X65900*
X66300Y28725*
X69050*
X63650Y29575D02*
X65650D01*
X65825Y29400*
X66400*
X66600Y29600*
X69250*
X69525Y29875*
X71225*
X65875Y24450D02*
X67625D01*
X67825Y24650*
X68500*
X69075Y24075*
X78325*
X81525Y27275*
X83000*
X66925Y29025D02*
X72450D01*
X73225Y29800*
X74050*
X74250Y30000*
X67250Y29250D02*
X72075D01*
X72850Y30025*
X73750*
X62875Y29550D02*
X63050Y29375D01*
X64100*
X64200Y29475*
X65575*
X65800Y29250*
X66575*
X66800Y29475*
X69750*
X63740Y30748D02*
X64242Y31250D01*
X73100*
X73500Y31650*
X75400*
X76200Y32450*
X78050*
X64252Y30748D02*
X64628Y31125D01*
X64628D02*
X73225D01*
X73600Y31500*
X75600*
X75875Y31775*
X77400*
X77450*
X77750Y31475*
X65748Y30748D02*
X73073D01*
X73075Y30750*
X74800*
X75000Y30950*
X78225*
X78450Y31175*
X65236Y30748D02*
X65484Y30500D01*
X75075*
X75250Y30675*
X78500*
X78675Y30850*
X65236Y31850D02*
X65393Y32007D01*
X65393D02*
X66299D01*
X66299D02*
X66417Y31889D01*
X66417D02*
X69050D01*
X69050D02*
X70160Y33000D01*
X75450*
X75600Y33150*
X75900*
X64763Y30748D02*
X65025Y31000D01*
X73350*
X73675Y31325*
X76275*
X76475Y31125*
X77775*
X78250Y31600*
X60250Y25470D02*
X60279D01*
X60279D02*
X61550Y24200D01*
X67725*
X67875Y24350*
X68425*
X60250Y24470D02*
X60979D01*
X60979D02*
X61375Y24075D01*
X68025*
X68150Y23950*
X76650Y26450D02*
X78425Y28225D01*
X78875*
X79200Y28550*
X24500Y38529D02*
X26225D01*
X26225D02*
X26320Y38625D01*
X28525*
X31500Y41600*
X33470*
X37000Y45129*
X24500Y37529D02*
X26125D01*
X26125D02*
X26220Y37625D01*
X35504*
X35504D02*
X37000Y36129D01*
X23000Y38529D02*
X23675D01*
X23675D02*
X24175Y39025D01*
X25125*
X26725Y40625*
X28325*
X30675Y42975*
Y43804*
X30675D02*
X32000Y45129D01*
X23000Y37529D02*
X23629Y36900D01*
X23629D02*
X25775D01*
X26050Y36625*
X29925*
X30420Y36129*
X30420D02*
X32000D01*
X21500Y38529D02*
X21970Y39000D01*
X23325*
X24325Y40000*
X25050*
X26075Y41025*
Y44204*
X26075D02*
X27000Y45129D01*
X21500Y37529D02*
X22354Y36675D01*
X22354D02*
X25284D01*
X25829Y36129*
X25829D02*
X27000D01*
X45650Y34100D02*
X46775D01*
X48025Y32850*
Y34150D02*
X50125Y32075D01*
X50925*
X43875Y37500D02*
X45050Y36325D01*
X54250*
X55575Y35000*
X58905Y38850D02*
X59055Y39000D01*
X65472Y34803D02*
X65590Y34921D01*
X65590D02*
X67716D01*
X67716D02*
X67992Y34645D01*
X67992D02*
X68320D01*
X68320D02*
X69200Y35525D01*
X70582*
X70582D02*
X71400Y36342D01*
Y36675*
X73300Y38575*
X78075*
X79150Y39675*
X79375Y39900*
Y41700*
X79925Y42250*
X83150*
X84650Y40750*
X85250*
X66063Y36378D02*
X66435Y36750D01*
X67303*
X69853Y39300*
X76600*
X76925Y39625*
X77950*
X78625Y40300*
Y42725*
X78900Y43000*
X83850*
X84625Y43775*
X85400*
X85825Y43350*
X63267Y37322D02*
X63425Y37480D01*
X65708*
X65708D02*
X65905Y37283D01*
X65905D02*
X66400D01*
X68375Y39252*
X68897*
X68897D02*
X69645Y40000D01*
X69645D02*
X77550D01*
X77725Y40175*
Y43650*
X77950Y43875*
X66175Y37007D02*
X66232Y36950D01*
X66232D02*
X67107D01*
X70039Y39881*
X70039D02*
X77631D01*
X77631D02*
X77900Y40150D01*
Y41525*
X78100Y41725*
Y43450*
X65800Y35748D02*
X65875Y35823D01*
X66600*
X66800Y35625*
X67600*
X67925Y35950*
X68725*
X69225Y36450*
X70700*
X70775Y36525*
Y38225*
X71600Y39050*
X77600*
X78800Y40250*
Y42225*
X79350Y42775*
X84725*
X85400Y43450*
X65800Y34488D02*
X65886Y34575D01*
X65886D02*
X66325D01*
X66550Y34330*
X66550D02*
X67834D01*
X67834D02*
X67992Y34173D01*
X68267*
X68267D02*
X69519Y35425D01*
X71050*
X72437Y36812*
X72437D02*
X76612D01*
X76612D02*
X79700Y39900D01*
Y41700*
X66456Y33858D02*
X68325D01*
X69425Y34975*
X70750*
X72425Y36650*
X73950*
X74450Y36150*
Y35600*
X76050Y34000*
X76750*
X77850Y32900*
X63267Y34173D02*
X63425Y34330D01*
X66500Y33543D02*
X66675Y33718D01*
X68450*
X69275Y34550*
X71150*
X72300Y35700*
X72550*
X65700Y35118D02*
X65743Y35075D01*
X68425*
X69275Y35950*
X70850*
X71200Y36300*
Y37500*
X72450Y38750*
X78003*
X78003D02*
X79225Y39971D01*
Y41875*
X79500Y42150*
X62598Y37637D02*
X62755Y37480D01*
X62755D02*
X63110D01*
X66100Y35433D02*
X66183Y35350D01*
X66383Y35175*
X68225*
X69100Y36050*
X70700*
X71000Y36350*
Y38225*
X71700Y38925*
X77850*
X79000Y40075*
Y42100*
X79525Y42625*
X83350*
X84475*
X84725Y42375*
X61378Y36378D02*
X61574Y36181D01*
X61574D02*
Y35551D01*
X61574D02*
X62362Y34763D01*
X62362D02*
X65050D01*
X65050D02*
X65089Y34803D01*
X65825Y36063D02*
X65956Y35931D01*
X66675*
X66875Y35750*
X67375*
X67675Y36050*
X68075*
X68575Y36550*
X70350*
X70550Y36750*
Y38250*
X71475Y39175*
X77375*
X77575Y39375*
X61850Y36850D02*
X62025Y37025D01*
X62227*
X62559Y36692*
X61220Y36850D02*
X61378Y36692D01*
X61220Y37165D02*
X61430Y37375D01*
X61722*
X61722D02*
X61775Y37322D01*
X61775D02*
X62325D01*
X66102Y36692D02*
X66259Y36850D01*
X67204*
X70118Y39763*
X70118D02*
X77813D01*
X77813D02*
X78125Y40075D01*
Y41275*
X63897Y33854D02*
X64563Y33189D01*
X64563D02*
X65475D01*
X65475D02*
X65672Y33385D01*
X65672D02*
X65995D01*
X65995D02*
X66181Y33200D01*
X66475*
X66850Y33575*
X68550*
X69425Y34450*
X71323*
X72075Y35225*
X72700*
X62992Y32876D02*
Y33267D01*
X62992D02*
X63110Y33385D01*
X63110D02*
Y33700D01*
X62992Y32876D02*
X63543Y32325D01*
X68543*
X69125*
X69925Y33125*
X75400*
X75650Y33375*
X76475*
X64645Y32126D02*
X65271Y31500D01*
X65271D02*
X68950D01*
X70325Y32875*
X76525*
X76725Y32675*
X78250*
X78710Y32214*
X78710D02*
Y31789D01*
X78710D02*
X79000Y31500D01*
X63897Y34173D02*
X64055Y34330D01*
X63267Y33282D02*
X64025Y32525D01*
X68582*
X68582D02*
X69807Y33750D01*
X69807D02*
X72625D01*
X72775Y33600*
X63425Y33385D02*
X63700Y33110D01*
X63700D02*
X64042D01*
X64527Y32625*
X64527D02*
X68450D01*
X69675Y33850*
X73700*
X74025Y34175*
Y35800*
X59975Y38425D02*
X60919Y37480D01*
X60919D02*
X62204D01*
X62204D02*
X62362Y37637D01*
X61535Y36535D02*
X61692Y36378D01*
X61692D02*
Y35629D01*
X61692D02*
X62204Y35118D01*
X61535Y37165D02*
X62250D01*
X62400Y37007*
X61850Y36535D02*
Y35669D01*
X62086Y35433*
X62637Y37992D02*
X62716Y37913D01*
X62716D02*
X62874D01*
X62913Y37952*
X62962Y39576D02*
X63582Y38956D01*
X63897Y38858D02*
X63976Y38937D01*
Y42401*
X63976D02*
X64015Y42440D01*
X64015D02*
Y42834D01*
X62165Y39055D02*
Y41653D01*
X62165D02*
X62283Y41771D01*
X62283D02*
Y41968D01*
X62283D02*
X62401Y42086D01*
X62165Y39055D02*
X62322Y38897D01*
X62322D02*
Y38779D01*
X62322D02*
X62480Y38622D01*
X62598*
X62795Y38425*
Y39921D02*
Y39448D01*
X62795D02*
X63307Y38937D01*
X62795Y39921D02*
X63110Y40236D01*
Y40511*
X63110D02*
X63503Y40905D01*
X63503D02*
Y42322D01*
X61968Y42165D02*
Y39055D01*
X61968D02*
X62362Y38228D01*
X62480Y38110*
X64842Y37952D02*
X65000Y38110D01*
X63346Y39960D02*
Y39724D01*
X63425Y39645*
X63425D02*
X63503D01*
X63503D02*
X63582Y39724D01*
X63582D02*
Y39803D01*
X63582D02*
X63661Y39881D01*
X63661D02*
X63740D01*
X63740D02*
X63818Y39803D01*
X63346Y39960D02*
X63425Y40039D01*
Y40354*
X63818Y40748*
X63818D02*
Y42480D01*
X63818D02*
X63858Y42519D01*
X64133Y39015D02*
Y42322D01*
X64133D02*
X64173Y42362D01*
X64133Y39015D02*
X64212Y38937D01*
X66338Y37952D02*
X67007Y38622D01*
X67007D02*
Y43818D01*
X65472Y38976D02*
X65669Y39173D01*
X64842Y38582D02*
X65000Y38425D01*
X66181Y38937D02*
X66299D01*
X66535Y39173*
Y39685*
X65157Y38858D02*
Y39212D01*
X65157D02*
X65236Y39291D01*
X65315*
X65354Y39330*
X65472Y38267D02*
X65629Y38110D01*
X64606Y39370D02*
Y40236D01*
X65078Y40708*
X66732Y38858D02*
Y38897D01*
X66732D02*
X66850Y39015D01*
X66732Y38858D02*
X66850Y38740D01*
Y38700*
X66417Y39842D02*
Y39803D01*
X66535Y39685*
X66417Y39842D02*
X66535Y39960D01*
X66535D02*
Y41614D01*
X65433Y38543D02*
Y38622D01*
X65472Y38661*
X65433Y38543D02*
X65472Y38503D01*
X66732Y38582D02*
X66850Y38700D01*
X66220Y39763D02*
Y39881D01*
X66220D02*
X66378Y40039D01*
X66220Y39763D02*
X66378Y39606D01*
Y39291*
X65157Y38582D02*
X65315Y38425D01*
X64921Y39527D02*
Y40078D01*
X64921D02*
X65393Y40551D01*
X64921Y39527D02*
X65000Y39448D01*
X65000D02*
X65078D01*
X65078D02*
X65118Y39488D01*
Y39645*
X65118D02*
X65196Y39724D01*
X65196D02*
X65275D01*
X65275D02*
X65354Y39645D01*
X65354D02*
Y39330D01*
X64763Y39448D02*
Y40157D01*
X64763D02*
X65236Y40629D01*
X64763Y39448D02*
X65000Y39212D01*
X65000D02*
Y38740D01*
X65708Y38976D02*
Y38937D01*
X65708D02*
X65787Y38858D01*
X65708Y38976D02*
X65826Y39094D01*
X65826D02*
Y39252D01*
X65826D02*
X65905Y39330D01*
X65905D02*
Y39448D01*
X62952Y39842D02*
X63267Y40157D01*
X63267D02*
Y40433D01*
X63267D02*
X63661Y40826D01*
X63661D02*
Y42401D01*
X63110Y39685D02*
X63700Y39094D01*
X63700D02*
X63740D01*
X63818Y39173*
X63818D02*
Y39803D01*
X63425Y33700D02*
X63650D01*
X63650D02*
X64625Y32725D01*
X64625D02*
X68300D01*
X69525Y33950*
X73550*
X73850Y34250*
Y35350*
X62795Y33700D02*
Y32738D01*
X62795D02*
X64133Y31400D01*
X64133D02*
X69225D01*
X70500Y32675*
X72925*
X64370Y34330D02*
X64744Y33956D01*
X64744D02*
X65059D01*
X65059D02*
X65157Y33858D01*
X64370Y34015D02*
X64842Y33543D01*
X63740Y34015D02*
Y33794D01*
X64542Y32992*
X65915*
X65915D02*
X66023Y33100D01*
X66023D02*
X66900D01*
X67000Y33200*
X68525*
X69675Y34350*
X72250*
X72925Y35025*
X73225*
X61023Y36338D02*
Y35472D01*
X61023D02*
X61535Y34960D01*
X61535D02*
X62007D01*
X62007D02*
X62322Y34645D01*
X62322D02*
X64921D01*
X64921D02*
X65078Y34488D01*
X61023Y36338D02*
X61220Y36535D01*
X62362Y36692D02*
X62677Y36378D01*
X63225Y33000D02*
X63800Y32425D01*
X68975*
X69825Y33275*
X74075*
X74550Y33750*
X76650*
X77050Y33350*
Y32900*
X63110Y38110D02*
X63267Y38267D01*
X62795Y38110D02*
X62952Y38346D01*
X63110Y38425D02*
X63307Y38622D01*
Y38937*
X62480Y38425D02*
X62637Y38267D01*
X62322Y39212D02*
Y40236D01*
X62322D02*
X62401Y40315D01*
X62401D02*
X62480D01*
X62598Y40433*
X62322Y39212D02*
X62519Y39015D01*
X62519D02*
Y38858D01*
X62519D02*
X62598Y38779D01*
X62598D02*
X62755D01*
X62755D02*
X62795Y38740D01*
X65315D02*
Y39055D01*
X65511Y39252*
X65511D02*
Y39724D01*
X65629Y38740D02*
X65748D01*
X65787Y38779*
X65787D02*
Y38858D01*
X66259Y39173D02*
X66378Y39291D01*
X66259Y38740D02*
X66338D01*
X66338D02*
X66692Y39094D01*
X66692D02*
Y41692D01*
X66023Y39566D02*
X66181D01*
X66181D02*
X66220Y39527D01*
X65944Y38425D02*
Y38937D01*
X65944D02*
X66036Y39028D01*
Y39212*
X66036D02*
X66220Y39409D01*
Y39527*
X65944Y38110D02*
Y38070D01*
X62165Y36535D02*
X62637Y36063D01*
X61535Y36850D02*
X61692Y36692D01*
X62165Y36220D02*
X62637Y35748D01*
X69763Y34763D02*
X70700D01*
X70700D02*
X72424Y36500D01*
X73850*
X74300Y36050*
Y35175*
X75600Y33875*
X76700*
X77450Y33125*
Y32900*
X73225Y36025D02*
X73800D01*
X74025Y35800*
X73225Y35525D02*
X73675D01*
X73850Y35350*
X77925Y35725D02*
X79675D01*
X82575Y38625*
X85050*
X44925Y43475D02*
Y43085D01*
X46200Y41811*
X48425*
X53325Y36929*
X55300*
X55700Y36529*
X59442*
X59442D02*
X59842Y36929D01*
X46500Y43825D02*
X47900D01*
X48525Y43200*
Y42250*
X50025Y40750*
X58275*
X58725Y40300*
Y40000*
X47350Y44125D02*
X47950D01*
X48900Y43175*
Y42300*
X50275Y40925*
X58400*
X59055Y40269*
X59055D02*
Y39000D01*
X65393Y43740D02*
X65590Y43543D01*
X62755Y44015D02*
X63070Y44330D01*
X62913Y43937D02*
X63031Y44055D01*
X63189*
X63267Y44133*
X63267D02*
Y44370D01*
X62480Y40078D02*
Y39291D01*
X62952Y38818*
X62480Y40078D02*
X62755Y40354D01*
X62755D02*
Y42322D01*
X61968Y43740D02*
X62401Y44173D01*
X62559Y44410D02*
X62676Y44292D01*
X62676D02*
X62676D01*
X62676D02*
X62677Y44291D01*
Y44173*
X62559Y44410D02*
Y44488D01*
X62637Y44566*
X62637D02*
X62834D01*
X62834D02*
X62913Y44645D01*
X62913D02*
Y44685D01*
X62283Y43503D02*
X62440Y43661D01*
Y40708D02*
Y40826D01*
X62440D02*
X62598Y40984D01*
X62440Y40708D02*
X62598Y40551D01*
Y40433*
X62283Y43149D02*
X62480Y42952D01*
X62480D02*
Y42874D01*
X62283Y42283D02*
X62401Y42165D01*
X62401D02*
Y42086D01*
X62913Y44960D02*
X63070Y45118D01*
X62834Y43543D02*
Y43464D01*
X62834D02*
X62913Y43385D01*
X62913D02*
Y43307D01*
X62834Y43543D02*
X62913Y43622D01*
Y42519D02*
Y41653D01*
X62913D02*
X62992Y41574D01*
X62992D02*
X63070D01*
X63070D02*
X63189Y41692D01*
X63189D02*
X63267D01*
X63267D02*
X63346Y41614D01*
X62440Y41259D02*
Y41378D01*
X62440D02*
X62598Y41535D01*
X62440Y41259D02*
X62598Y41102D01*
Y40984*
Y43149D02*
Y43110D01*
X62716Y42992*
X62598Y42519D02*
Y42480D01*
X62755Y42322*
X63543Y42519D02*
X63661Y42401D01*
X62952Y41299D02*
Y41141D01*
X62952D02*
X63031Y41063D01*
X63189*
X63267Y40984*
X62952Y41299D02*
X63031Y41378D01*
X63189*
X63346Y41535*
Y41614*
X62637Y40000D02*
Y39370D01*
X62637D02*
X63110Y38897D01*
X63110D02*
Y38740D01*
X62637Y40000D02*
X62952Y40315D01*
X62952D02*
Y40590D01*
X62952D02*
X63267Y40905D01*
X63267D02*
Y40984D01*
X62440Y42401D02*
Y42834D01*
X62440D02*
X62480Y42874D01*
X62440Y42401D02*
X62598Y42244D01*
Y42007*
X63228Y43065D02*
X63543Y42750D01*
X62440Y43937D02*
X62677Y44173D01*
X62126Y42795D02*
Y43661D01*
X62244Y43779*
X62126Y42795D02*
X62283Y42637D01*
X63937Y42992D02*
Y42913D01*
X64015Y42834*
X63937Y42992D02*
X64015Y43070D01*
X64015D02*
Y43149D01*
X63070Y43355D02*
Y42992D01*
X63070D02*
X63228Y42834D01*
X62913Y42677D02*
Y43149D01*
X62598Y42677D02*
Y42716D01*
X62598D02*
X62716Y42834D01*
X62716D02*
Y42992D01*
X63110Y42401D02*
Y41929D01*
X63189Y41850*
X63228*
X63307Y41929*
Y42322*
X63307D02*
X63385Y42401D01*
X63385D02*
X63425D01*
X63425D02*
X63503Y42322D01*
X63110Y42401D02*
X63228Y42519D01*
X64921Y44645D02*
X65000Y44724D01*
Y44842*
X63503Y43385D02*
X63700Y43582D01*
X63700D02*
Y44173D01*
X63779Y43070D02*
X63897Y43189D01*
X63897D02*
X63976D01*
X64015Y43149*
X62480Y41771D02*
Y41889D01*
X62480D02*
X62598Y42007D01*
X62480Y41771D02*
X62598Y41653D01*
X62598D02*
Y41535D01*
X66063Y44606D02*
X66141Y44527D01*
X66141D02*
X66259D01*
X66259D02*
X66417Y44370D01*
X64842Y43858D02*
Y41299D01*
X64842D02*
X64921Y41220D01*
X66417Y42047D02*
Y41968D01*
X66417D02*
X66692Y41692D01*
X66417Y42047D02*
X66535Y42165D01*
X66614*
X66692Y42244*
X66692D02*
Y43425D01*
X65866Y44842D02*
Y45078D01*
X65866D02*
X65944Y45157D01*
X65944D02*
X65984D01*
X66063Y45078*
X65866Y44842D02*
X65905Y44803D01*
X66063Y42795D02*
X66220Y42913D01*
X65748Y43661D02*
X65787Y43700D01*
X65787D02*
Y43858D01*
X65433Y43189D02*
X65472Y43149D01*
Y44252D02*
Y44173D01*
X65787Y43858*
X65472Y44252D02*
X65551Y44330D01*
X65551D02*
X65826D01*
X65826D02*
X65984Y44173D01*
X65866Y41692D02*
Y41653D01*
X65866D02*
X65944Y41574D01*
X65944D02*
X66102D01*
X66102D02*
X66220Y41456D01*
X65866Y41692D02*
X65944Y41771D01*
X65944D02*
Y41850D01*
X66338Y44176D02*
Y44015D01*
X66338D02*
X66378Y43976D01*
X66456*
X66456D02*
X66614Y43858D01*
X66692Y43700*
X66338Y44176D02*
X66417Y44255D01*
Y44370*
X66378Y43622D02*
X66456Y43700D01*
X66574Y44173D02*
X66732Y43976D01*
X66850Y43779*
X66850D02*
Y39015D01*
X65944Y42086D02*
Y42165D01*
X65944D02*
X66023Y42244D01*
X66023D02*
X66141D01*
X66141D02*
X66378Y42480D01*
X65944Y42086D02*
X66102Y41929D01*
Y41811*
X66378Y41535*
Y40039*
X66496Y43346D02*
Y43267D01*
X66496D02*
X66535Y43228D01*
X66496Y43346D02*
X66535Y43385D01*
X66535D02*
Y43543D01*
X65511Y43346D02*
X65669D01*
X65748Y43425*
X65669Y43070D02*
Y43110D01*
X65905Y43346*
X65905D02*
X66259D01*
X66259D02*
X66378Y43464D01*
X65000Y42047D02*
Y43661D01*
X65196Y43858*
X65196D02*
Y43976D01*
X65196D02*
X65275Y44055D01*
X65275D02*
X65354D01*
X65393Y44015*
X65000Y42047D02*
X65078Y41968D01*
X65078D02*
X65118D01*
X65118D02*
X65393Y41692D01*
X65393D02*
Y40551D01*
X64685Y44133D02*
Y41220D01*
X64763Y41141*
X64685Y44133D02*
X64842Y44291D01*
X64842D02*
X65039D01*
X65275Y44527*
X65275D02*
Y44803D01*
X65393Y42165D02*
Y42204D01*
X65393D02*
X65511Y42322D01*
X65511D02*
X65590D01*
X65590D02*
X65748Y42480D01*
X65393Y42165D02*
X65708Y41850D01*
X65708D02*
Y40393D01*
X65944Y43818D02*
Y43740D01*
X65944D02*
X65984Y43700D01*
X65944Y43818D02*
X66023Y43897D01*
X66023D02*
X66141D01*
X66141D02*
X66220Y43818D01*
X66220D02*
X66378D01*
X66378D02*
X66456Y43740D01*
X66456D02*
Y43700D01*
X65433Y40039D02*
Y40118D01*
X65708Y40393*
X65433Y40039D02*
X65669Y39803D01*
Y39173*
X65708Y42204D02*
Y42086D01*
X65708D02*
X65944Y41850D01*
X65708Y42204D02*
X65905Y42401D01*
X65905D02*
X65984D01*
X65984D02*
X66063Y42480D01*
X65000Y41378D02*
Y41614D01*
X65078Y41771*
X65000Y41378D02*
X65078Y41299D01*
X65078D02*
Y40708D01*
X64133Y43346D02*
Y43976D01*
X64133D02*
X64212Y44055D01*
X64212D02*
X64291D01*
X64330Y44015*
X64330D02*
Y43543D01*
X64133Y43346D02*
X64173Y43307D01*
X65433Y43031D02*
X65472Y43070D01*
X65472D02*
Y43149D01*
X66220Y42086D02*
Y42047D01*
X66259Y42007*
X66259D02*
Y41889D01*
X66259D02*
X66535Y41614D01*
X66220Y42086D02*
X66535Y42401D01*
X66535D02*
Y43228D01*
X64291Y42244D02*
Y39133D01*
X64291D02*
X64527Y38897D01*
X64291Y42244D02*
X64527Y42480D01*
X64527D02*
Y44173D01*
X65157Y42283D02*
Y42165D01*
X65551Y41771*
X65157Y42283D02*
X65275Y42401D01*
X65275D02*
X65354D01*
X65354D02*
X65433Y42480D01*
X64606Y40708D02*
X64763Y40866D01*
X64763D02*
Y41141D01*
X64488Y44212D02*
X64527Y44173D01*
X65669Y40118D02*
Y40039D01*
X65708Y40000*
X65708D02*
X65787D01*
X65826Y39960*
X65826D02*
Y39527D01*
X65826D02*
X65905Y39448D01*
X65669Y40118D02*
X65866Y40315D01*
Y41378*
X65866D02*
X65904Y41417D01*
X65904D02*
X66024D01*
X66063Y41378*
X66063D02*
Y40315D01*
X66102Y40275*
X66102D02*
X66181D01*
X66181D02*
X66220Y40315D01*
Y41456*
X64645Y45118D02*
X64842Y44921D01*
X64842D02*
X64921D01*
X65000Y44842*
X65118Y40039D02*
Y39960D01*
X65118D02*
X65196Y39881D01*
X65196D02*
X65354D01*
X65354D02*
X65511Y39724D01*
X65118Y40039D02*
X65551Y40472D01*
Y41771*
X66220Y44803D02*
Y44793D01*
X66220D02*
X66843Y44170D01*
X66843D02*
X67007Y43818D01*
X65118Y44133D02*
X65472Y44488D01*
Y45118*
X65551Y45196*
X65551D02*
X65629D01*
X65629D02*
X65708Y45118D01*
X65708D02*
Y44566D01*
X65708D02*
X65787Y44488D01*
X65905*
X63070Y44803D02*
Y44566D01*
X63070D02*
X63267Y44370D01*
X63385Y44488D02*
X63700Y44173D01*
X63385Y43228D02*
X63503Y43070D01*
X63700Y42913D02*
X63858Y42755D01*
X63070Y43858D02*
X63228Y43700D01*
X65905Y43543D02*
X65984Y43622D01*
Y43700*
X65905Y42913D02*
Y43110D01*
X65905D02*
X65984Y43189D01*
X66299*
X66378Y43110*
X65196Y41496D02*
X65236Y41456D01*
X65236D02*
Y40629D01*
X62598Y43307D02*
Y43543D01*
X62755Y43700*
X64448Y40315D02*
Y39291D01*
X64448D02*
X64685Y39055D01*
X64448Y40315D02*
X64921Y40787D01*
Y41220*
X85450Y41475D02*
X85825Y41850D01*
Y43350*
G54D35*
X73750Y45500D02*
Y44250D01*
X75500Y42500*
G54D38*
X61850Y36850D03*
X61220Y36535D03*
Y36850D03*
Y37165D03*
X63425Y33385D03*
X61535Y36535D03*
Y37165D03*
X61850Y36535D03*
X62795Y38740D03*
X64685Y39055D03*
X63110Y39685D03*
X63425Y33700D03*
X63110D03*
X62795D03*
X64370Y34330D03*
Y34015D03*
X63740D03*
X63425Y34330D03*
X64055D03*
X63110Y37480D03*
X66259Y36220D03*
X63110Y38110D03*
X62795D03*
X62480D03*
X63110Y38425D03*
X62795D03*
X62480D03*
X63110Y38740D03*
X65315Y38425D03*
Y38740D03*
X64685Y38425D03*
X65000Y38740D03*
Y38425D03*
Y38110D03*
X65629D03*
Y38740D03*
X64685D03*
X66259Y39173D03*
Y38740D03*
X66023Y39566D03*
X65944Y38425D03*
Y37795D03*
Y38110D03*
X62165Y36535D03*
X61535Y36850D03*
X62165Y36220D03*
X65905Y44488D03*
X66574Y44173D03*
X65984D03*
X64606Y40708D03*
X64645Y45118D03*
X66220Y44803D03*
X65905D03*
X65275D03*
X63070Y45118D03*
Y44803D03*
X63385Y44488D03*
X62401Y44173D03*
X62244Y43779D03*
X63385Y43228D03*
X63700Y42913D03*
X63070Y43858D03*
X66535Y43543D03*
X65905D03*
X65590D03*
X65078Y41771D03*
X64330Y43543D03*
X66220Y42913D03*
X65905D03*
X63070Y44330D03*
X65196Y41496D03*
G54D40*
X45075Y23700D03*
X68150Y23950D03*
X43875Y29775D03*
X46475Y31075D03*
X49500Y26425D03*
X46525Y27100D03*
X49100Y26050D03*
X53125Y30175D03*
X61475Y27025D03*
X61950Y27900D03*
X64000Y30150D03*
X63650Y29575D03*
X64275Y30375D03*
X66825Y24700D03*
X66700Y26500D03*
X66675Y27475D03*
X66825Y25150D03*
X65425Y24475D03*
X65875Y24450D03*
X66175Y29625D03*
X66925Y29025D03*
X67250Y29250D03*
X62875Y29550D03*
X63740Y30748D03*
X64252D03*
X65748D03*
X65236D03*
Y31850D03*
X64763Y30748D03*
X68700Y25600D03*
X69750Y29475D03*
X69075Y28375D03*
X69050Y28725D03*
X73750Y30025D03*
X74250Y30000D03*
X71225Y29875D03*
X68425Y24350D03*
X83000Y27275D03*
X77750Y31475D03*
X78450Y31175D03*
X78675Y30850D03*
X79000Y31500D03*
X78250Y31600D03*
X79200Y28550D03*
X76650Y26450D03*
X48025Y32850D03*
X50925Y32075D03*
X45650Y34100D03*
X48025Y34150D03*
X43875Y37500D03*
X55575Y35000D03*
X58905Y38850D03*
X59842Y36929D03*
X64645Y32126D03*
X59975Y38425D03*
X63225Y33000D03*
X70200Y36750D03*
X72550Y35700D03*
X72925Y32675D03*
X72775Y33600D03*
X72700Y35225D03*
X69763Y34763D03*
X73225Y36025D03*
Y35025D03*
Y35525D03*
X77575Y39375D03*
X75900Y33150D03*
X76475Y33375D03*
X77450Y32900D03*
X77050D03*
X77850D03*
X78050Y32450D03*
X77925Y35725D03*
X85050Y38625D03*
X44925Y43475D03*
X46500Y43825D03*
X47350Y44125D03*
X58725Y40000D03*
X75500Y42500D03*
X73750Y45500D03*
X78100Y43450D03*
X77950Y43875D03*
X78125Y41275D03*
X79500Y42150D03*
X79700Y41700D03*
X85450Y41475D03*
X84725Y42375D03*
X85250Y40750D03*
X85400Y43450D03*
G54D63*
X20285Y41715D02*
X20745D01*
Y41905*
X20285Y42080D02*
Y42255D01*
X20285D02*
X20460Y42160D01*
X20460D02*
Y42208D01*
X20460D02*
X20482Y42240D01*
X20482D02*
X20504Y42255D01*
X20504D02*
X20570Y42271D01*
X20570D02*
X20613D01*
X20613D02*
X20679Y42255D01*
X20679D02*
X20723Y42224D01*
X20745Y42176*
Y42128*
X20745D02*
X20723Y42080D01*
X20723D02*
X20701Y42065D01*
X20657Y42049*
G54D231*
X61378Y36692D02*
Y36378D01*
X65078Y34488D02*
X65800D01*
X62677Y36378D02*
X66063D01*
X65089Y34803D02*
X65472D01*
X62325Y37322D02*
X63267D01*
X62400Y37007D02*
X66175D01*
X62637Y35748D02*
X65800D01*
X62086Y35433D02*
X66100D01*
X65157Y33858D02*
X66456D01*
X62637Y36063D02*
X65825D01*
X61692Y36692D02*
X62362D01*
Y37637D02*
X62598D01*
X62204Y35118D02*
X65700D01*
X62559Y36692D02*
X66102D01*
X63897Y33854D02*
Y34173D01*
X63267Y33282D02*
Y34173D01*
X64842Y33543D02*
X66500D01*
X62952Y38346D02*
Y38818D01*
X63267Y38267D02*
X63503D01*
X63503D02*
X63582Y38346D01*
X63582D02*
Y38956D01*
X62637Y38267D02*
Y37992D01*
X62913Y37952D02*
X63818D01*
X63818D02*
X63897Y38031D01*
X63897D02*
Y38858D01*
X65472Y38661D02*
Y38976D01*
Y38503D02*
Y38267D01*
X64212Y38031D02*
Y38110D01*
X64212D02*
X64448Y38346D01*
X64212Y38031D02*
X64291Y37952D01*
X64291D02*
X64842D01*
X64606Y39370D02*
X64842Y39133D01*
X64842D02*
Y38897D01*
X65944Y38070D02*
X66023Y37992D01*
X66023D02*
X66043D01*
X66102Y38051*
Y38182*
X66187Y38267*
X66187D02*
X66338D01*
X66338D02*
X66417Y38346D01*
Y38503*
X66417D02*
X66496Y38582D01*
X66496D02*
X66732D01*
X65157D02*
Y38858D01*
X64527Y38897D02*
Y38661D01*
X64527D02*
X64606Y38582D01*
X64606D02*
X64842D01*
X64212Y38937D02*
Y38661D01*
X64212D02*
X64448Y38425D01*
X64448D02*
Y38346D01*
X62952Y39842D02*
Y39586D01*
X62952D02*
X62962Y39576D01*
X64685Y38425D02*
X64803Y38267D01*
X64803D02*
X65078D01*
X65078D02*
X65157Y38189D01*
Y38031*
X65236Y37952*
X65236D02*
X65708D01*
X65708D02*
X65787Y38031D01*
Y38189*
X65866Y38267*
X65866D02*
X66014D01*
X66014D02*
X66102Y38355D01*
Y38858*
X66181Y38937*
X64685Y38740D02*
X64842Y38897D01*
X65944Y37795D02*
X66338Y37952D01*
X62913Y43622D02*
Y43937D01*
X63228Y42519D02*
Y42834D01*
X62283Y43149D02*
Y43503D01*
X62755Y43700D02*
Y44015D01*
X62913Y44685D02*
Y44960D01*
X62598Y43149D02*
Y43307D01*
Y42519D02*
Y42677D01*
X63543Y42750D02*
Y42519D01*
X63228Y43065D02*
Y43307D01*
X63307Y43385*
X63307D02*
X63503D01*
X61968Y42165D02*
Y43740D01*
X63858Y42519D02*
Y42755D01*
X63503Y43070D02*
X63779D01*
X62913Y43307D02*
Y43149D01*
X63070Y43355D02*
X63228Y43513D01*
Y43700*
X62913Y42677D02*
Y42519D01*
X62440Y43661D02*
Y43937D01*
X62283Y42637D02*
Y42283D01*
X64842Y43858D02*
Y44055D01*
X64842D02*
X64921Y44133D01*
X64921D02*
X65118D01*
X65433Y42480D02*
Y43031D01*
X66378Y43110D02*
Y42480D01*
X66063D02*
Y42795D01*
X65433Y43189D02*
Y43267D01*
X65433D02*
X65511Y43346D01*
X65748Y43425D02*
Y43661D01*
X66378Y43464D02*
Y43622D01*
X64173Y42362D02*
Y43307D01*
X66692Y43425D02*
Y43700D01*
X66063Y45078D02*
Y44606D01*
X65669Y43070D02*
X65748Y42992D01*
Y42480*
X65393Y44015D02*
Y43740D01*
X64488Y44212D02*
Y44606D01*
X64527Y44645*
X64527D02*
X64921D01*
G54D330*
X27000Y45129D03*
Y31429D03*
X32000Y45129D03*
Y31429D03*
X37000Y45129D03*
Y31429D03*
G54D331*
X27000Y36129D03*
Y22429D03*
X32000Y36129D03*
Y22429D03*
X37000Y36129D03*
Y22429D03*
G74*
X0Y0D02*
M02*
