*
*
G04 PADS 9.2 Build Number: 414666 generated Gerber (RS-274-X) file*
G04 PC Version=2.1*
*
%IN "CC1B_080118.pcb"*%
*
%MOIN*%
*
%FSLAX24Y24*%
*
*
*
*
G04 PC Standard Apertures*
*
*
G04 Thermal Relief Aperture macro.*
%AMTER*
1,1,$1,0,0*
1,0,$1-$2,0,0*
21,0,$3,$4,0,0,45*
21,0,$3,$4,0,0,135*
%
*
*
G04 Annular Aperture macro.*
%AMANN*
1,1,$1,0,0*
1,0,$2,0,0*
%
*
*
G04 Odd Aperture macro.*
%AMODD*
1,1,$1,0,0*
1,0,$1-0.005,0,0*
%
*
*
G04 PC Custom Aperture Macros*
*
*
*
*
*
*
G04 PC Aperture Table*
*
%ADD010C,0.001*%
%ADD013R,0.06X0.06*%
%ADD014C,0.06*%
%ADD025C,0.02*%
%ADD028C,0.01*%
%ADD031C,0.015*%
%ADD032C,0.005*%
%ADD033C,0.03*%
%ADD037C,0.035*%
%ADD038C,0.019*%
%ADD040C,0.024*%
%ADD063C,0.008*%
%ADD231C,0.0045*%
%ADD331C,0.055*%
*
*
*
*
G04 PC Circuitry*
G04 Layer Name CC1B_080118.pcb - circuitry*
%LPD*%
*
*
G04 PC Custom Flashes*
G04 Layer Name CC1B_080118.pcb - flashes*
%LPD*%
*
*
G04 PC Circuitry*
G04 Layer Name CC1B_080118.pcb - circuitry*
%LPD*%
*
G54D10*
G54D13*
G01X68250Y21029D03*
G54D14*
X80750Y23779D03*
X82750D03*
X74250Y22029D03*
G54D25*
X68825Y26925D02*
X68543Y27206D01*
X68543D02*
Y35669D01*
X68346Y35866*
Y36535*
X68228Y36653*
X68228D02*
X67716D01*
X67716D02*
X67519Y36850D01*
X67519D02*
X65944D01*
X64055Y38110D02*
X64252D01*
X64370Y38228*
Y40275*
X64370D02*
X64173Y40472D01*
Y42322*
X64173D02*
X63897Y42598D01*
X63897D02*
X63937D01*
X64055Y42716*
X64055D02*
Y43779D01*
X64055D02*
X63700Y44133D01*
X63700D02*
Y44842D01*
X63700D02*
X64645Y45787D01*
X64645D02*
X65039D01*
X63779Y40472D02*
X64173D01*
X64960Y45118D02*
X65039D01*
X65236Y45315*
Y45590*
X65236D02*
X65039Y45787D01*
X63700Y42598D02*
X63897D01*
G54D28*
X20145Y51034D02*
Y50050D01*
X20554*
X21133Y51034D02*
X20860Y50050D01*
X21133Y51034D02*
X21406Y50050D01*
X20963Y50378D02*
X21304D01*
X21713Y51034D02*
X21985Y50565D01*
X21985D02*
Y50050D01*
X22258Y51034D02*
X21985Y50565D01*
X22565Y51034D02*
Y50050D01*
Y51034D02*
X23008D01*
X22565Y50565D02*
X22838D01*
X22565Y50050D02*
X23008D01*
X23315Y51034D02*
Y50050D01*
Y51034D02*
X23622D01*
X23724Y50987*
X23724D02*
X23758Y50940D01*
X23758D02*
X23792Y50846D01*
X23792D02*
Y50753D01*
X23792D02*
X23758Y50659D01*
X23758D02*
X23724Y50612D01*
X23724D02*
X23622Y50565D01*
X23622D02*
X23315D01*
X23554D02*
X23792Y50050D01*
X25292Y50893D02*
X25258Y50987D01*
X25258D02*
X25156Y51034D01*
X25088*
X24985Y50987*
X24985D02*
X24917Y50846D01*
X24917D02*
X24883Y50612D01*
X24883D02*
Y50378D01*
X24883D02*
X24917Y50190D01*
X24917D02*
X24985Y50096D01*
X24985D02*
X25088Y50050D01*
X25122*
X25224Y50096*
X25224D02*
X25292Y50190D01*
X25292D02*
X25326Y50331D01*
X25326D02*
Y50378D01*
X25326D02*
X25292Y50518D01*
X25292D02*
X25224Y50612D01*
X25224D02*
X25122Y50659D01*
X25088*
X24985Y50612*
X24985D02*
X24917Y50518D01*
X24917D02*
X24883Y50378D01*
X26417Y51034D02*
Y50050D01*
X26724Y51034D02*
Y50050D01*
Y51034D02*
X27201Y50050D01*
Y51034D02*
Y50050D01*
X27508Y51034D02*
Y50050D01*
Y51034D02*
X27985Y50050D01*
Y51034D02*
Y50050D01*
X28292Y51034D02*
Y50050D01*
Y51034D02*
X28735D01*
X28292Y50565D02*
X28565D01*
X28292Y50050D02*
X28735D01*
X29042Y51034D02*
Y50050D01*
Y51034D02*
X29349D01*
X29349D02*
X29451Y50987D01*
X29451D02*
X29485Y50940D01*
X29485D02*
X29520Y50846D01*
X29520D02*
Y50753D01*
X29485Y50659*
X29485D02*
X29451Y50612D01*
X29451D02*
X29349Y50565D01*
X29349D02*
X29042D01*
X29281D02*
X29520Y50050D01*
X31088Y50893D02*
X31020Y50987D01*
X31020D02*
X30917Y51034D01*
X30917D02*
X30781D01*
X30679Y50987*
X30679D02*
X30610Y50893D01*
X30610D02*
Y50800D01*
X30610D02*
X30645Y50706D01*
X30679Y50659*
X30747Y50612*
X30747D02*
X30951Y50518D01*
X30951D02*
X31020Y50471D01*
X31020D02*
X31054Y50425D01*
X31088Y50331*
Y50190*
X31088D02*
X31020Y50096D01*
X31020D02*
X30917Y50050D01*
X30917D02*
X30781D01*
X30679Y50096*
X30679D02*
X30610Y50190D01*
X31395Y51034D02*
Y50050D01*
X32213Y50800D02*
X32179Y50893D01*
X32179D02*
X32110Y50987D01*
X32110D02*
X32042Y51034D01*
X32042D02*
X31906D01*
X31838Y50987*
X31838D02*
X31770Y50893D01*
X31770D02*
X31735Y50800D01*
X31735D02*
X31701Y50659D01*
X31701D02*
Y50425D01*
X31701D02*
X31735Y50284D01*
X31735D02*
X31770Y50190D01*
X31770D02*
X31838Y50096D01*
X31838D02*
X31906Y50050D01*
X32042*
X32042D02*
X32110Y50096D01*
X32110D02*
X32179Y50190D01*
X32179D02*
X32213Y50284D01*
Y50425*
X32042D02*
X32213D01*
X20511Y53000D02*
X20477Y53093D01*
X20477D02*
X20409Y53187D01*
X20409D02*
X20340Y53234D01*
X20340D02*
X20204D01*
X20204D02*
X20136Y53187D01*
X20136D02*
X20068Y53093D01*
X20068D02*
X20034Y53000D01*
X20000Y52859*
Y52625*
X20034Y52484*
X20068Y52390*
X20068D02*
X20136Y52296D01*
X20136D02*
X20204Y52250D01*
X20204D02*
X20340D01*
X20340D02*
X20409Y52296D01*
X20409D02*
X20477Y52390D01*
X20477D02*
X20511Y52484D01*
X21329Y53000D02*
X21295Y53093D01*
X21295D02*
X21227Y53187D01*
X21227D02*
X21159Y53234D01*
X21022*
X21022D02*
X20954Y53187D01*
X20954D02*
X20886Y53093D01*
X20886D02*
X20852Y53000D01*
X20818Y52859*
Y52625*
X20852Y52484*
X20886Y52390*
X20886D02*
X20954Y52296D01*
X20954D02*
X21022Y52250D01*
X21022D02*
X21159D01*
X21227Y52296*
X21227D02*
X21295Y52390D01*
X21295D02*
X21329Y52484D01*
X21636Y53046D02*
X21704Y53093D01*
X21704D02*
X21806Y53234D01*
X21806D02*
Y52250D01*
X22113Y53234D02*
Y52250D01*
Y53234D02*
X22420D01*
X22522Y53187*
X22522D02*
X22556Y53140D01*
X22556D02*
X22590Y53046D01*
X22590D02*
Y52953D01*
X22590D02*
X22556Y52859D01*
X22556D02*
X22522Y52812D01*
X22522D02*
X22420Y52765D01*
X22113D02*
X22420D01*
X22420D02*
X22522Y52718D01*
X22522D02*
X22556Y52671D01*
X22556D02*
X22590Y52578D01*
X22590D02*
Y52437D01*
X22590D02*
X22556Y52343D01*
X22556D02*
X22522Y52296D01*
X22522D02*
X22420Y52250D01*
X22113*
X24193Y53000D02*
X24159Y53093D01*
X24159D02*
X24090Y53187D01*
X24090D02*
X24022Y53234D01*
X24022D02*
X23886D01*
X23818Y53187*
X23818D02*
X23750Y53093D01*
X23750D02*
X23715Y53000D01*
X23715D02*
X23681Y52859D01*
X23681D02*
Y52625D01*
X23681D02*
X23715Y52484D01*
X23715D02*
X23750Y52390D01*
X23750D02*
X23818Y52296D01*
X23818D02*
X23886Y52250D01*
X24022*
X24022D02*
X24090Y52296D01*
X24090D02*
X24159Y52390D01*
X24159D02*
X24193Y52484D01*
X24704Y53234D02*
X24636Y53187D01*
X24636D02*
X24568Y53093D01*
X24568D02*
X24534Y53000D01*
X24500Y52859*
Y52625*
X24534Y52484*
X24568Y52390*
X24568D02*
X24636Y52296D01*
X24636D02*
X24704Y52250D01*
X24704D02*
X24840D01*
X24840D02*
X24909Y52296D01*
X24909D02*
X24977Y52390D01*
X24977D02*
X25011Y52484D01*
X25045Y52625*
Y52859*
X25011Y53000*
X24977Y53093*
X24977D02*
X24909Y53187D01*
X24909D02*
X24840Y53234D01*
X24840D02*
X24704D01*
X25352D02*
Y52250D01*
Y53234D02*
X25829Y52250D01*
Y53234D02*
Y52250D01*
X26375Y53234D02*
Y52250D01*
X26136Y53234D02*
X26613D01*
X26920D02*
Y52250D01*
Y53234D02*
X27227D01*
X27329Y53187*
X27329D02*
X27363Y53140D01*
X27363D02*
X27397Y53046D01*
X27397D02*
Y52953D01*
X27397D02*
X27363Y52859D01*
X27363D02*
X27329Y52812D01*
X27329D02*
X27227Y52765D01*
X27227D02*
X26920D01*
X27159D02*
X27397Y52250D01*
X27909Y53234D02*
X27840Y53187D01*
X27840D02*
X27772Y53093D01*
X27772D02*
X27738Y53000D01*
X27738D02*
X27704Y52859D01*
X27704D02*
Y52625D01*
X27704D02*
X27738Y52484D01*
X27738D02*
X27772Y52390D01*
X27772D02*
X27840Y52296D01*
X27840D02*
X27909Y52250D01*
X28045*
X28113Y52296*
X28113D02*
X28181Y52390D01*
X28181D02*
X28215Y52484D01*
X28215D02*
X28250Y52625D01*
Y52859*
X28215Y53000*
X28215D02*
X28181Y53093D01*
X28181D02*
X28113Y53187D01*
X28113D02*
X28045Y53234D01*
X27909*
X28556D02*
Y52250D01*
X28556D02*
X28965D01*
X30056Y53234D02*
Y52250D01*
Y53234D02*
X30363D01*
X30363D02*
X30465Y53187D01*
X30465D02*
X30500Y53140D01*
X30500D02*
X30534Y53046D01*
X30534D02*
Y52953D01*
X30500Y52859*
X30465Y52812*
X30465D02*
X30363Y52765D01*
X30056D02*
X30363D01*
X30363D02*
X30465Y52718D01*
X30465D02*
X30500Y52671D01*
X30500D02*
X30534Y52578D01*
Y52437*
X30534D02*
X30500Y52343D01*
X30500D02*
X30465Y52296D01*
X30465D02*
X30363Y52250D01*
X30363D02*
X30056D01*
X31045Y53234D02*
X30977Y53187D01*
X30977D02*
X30909Y53093D01*
X30909D02*
X30875Y53000D01*
X30840Y52859*
X30840D02*
Y52625D01*
X30840D02*
X30875Y52484D01*
X30909Y52390*
X30909D02*
X30977Y52296D01*
X30977D02*
X31045Y52250D01*
X31181*
X31181D02*
X31250Y52296D01*
X31250D02*
X31318Y52390D01*
X31318D02*
X31352Y52484D01*
X31386Y52625*
Y52859*
X31352Y53000*
X31318Y53093*
X31318D02*
X31250Y53187D01*
X31250D02*
X31181Y53234D01*
X31181D02*
X31045D01*
X31965D02*
X31693Y52250D01*
X31965Y53234D02*
X32238Y52250D01*
X31795Y52578D02*
X32136D01*
X32545Y53234D02*
Y52250D01*
Y53234D02*
X32852D01*
X32954Y53187*
X32954D02*
X32988Y53140D01*
X32988D02*
X33022Y53046D01*
X33022D02*
Y52953D01*
X33022D02*
X32988Y52859D01*
X32988D02*
X32954Y52812D01*
X32954D02*
X32852Y52765D01*
X32852D02*
X32545D01*
X32784D02*
X33022Y52250D01*
X33329Y53234D02*
Y52250D01*
Y53234D02*
X33568D01*
X33670Y53187*
X33670D02*
X33738Y53093D01*
X33738D02*
X33772Y53000D01*
X33772D02*
X33806Y52859D01*
X33806D02*
Y52625D01*
X33806D02*
X33772Y52484D01*
X33772D02*
X33738Y52390D01*
X33738D02*
X33670Y52296D01*
X33670D02*
X33568Y52250D01*
X33329*
X34897Y53234D02*
Y52250D01*
Y53234D02*
X35204D01*
X35204D02*
X35306Y53187D01*
X35306D02*
X35340Y53140D01*
X35340D02*
X35375Y53046D01*
X35375D02*
Y52953D01*
X35340Y52859*
X35340D02*
X35306Y52812D01*
X35306D02*
X35204Y52765D01*
X35204D02*
X34897D01*
X35136D02*
X35375Y52250D01*
X35681Y53234D02*
Y52250D01*
Y53234D02*
X36125D01*
X35681Y52765D02*
X35954D01*
X35681Y52250D02*
X36125D01*
X36431Y53234D02*
X36704Y52250D01*
X36977Y53234D02*
X36704Y52250D01*
X38340Y53234D02*
X38068Y52250D01*
X38340Y53234D02*
X38613Y52250D01*
X38170Y52578D02*
X38511D01*
X20204Y55234D02*
X20136Y55187D01*
X20136D02*
X20068Y55093D01*
X20068D02*
X20034Y55000D01*
X20000Y54859*
Y54625*
X20034Y54484*
X20068Y54390*
X20068D02*
X20136Y54296D01*
X20136D02*
X20204Y54250D01*
X20204D02*
X20340D01*
X20340D02*
X20409Y54296D01*
X20409D02*
X20477Y54390D01*
X20477D02*
X20511Y54484D01*
X20545Y54625*
Y54859*
X20511Y55000*
X20477Y55093*
X20477D02*
X20409Y55187D01*
X20409D02*
X20340Y55234D01*
X20340D02*
X20204D01*
X20852D02*
Y54250D01*
Y55234D02*
X21159D01*
X21261Y55187*
X21261D02*
X21295Y55140D01*
X21295D02*
X21329Y55046D01*
X21329D02*
Y54953D01*
X21329D02*
X21295Y54859D01*
X21261Y54812*
X21261D02*
X21159Y54765D01*
X21159D02*
X20852D01*
X21090D02*
X21329Y54250D01*
X22147Y55000D02*
X22113Y55093D01*
X22113D02*
X22045Y55187D01*
X22045D02*
X21977Y55234D01*
X21840*
X21840D02*
X21772Y55187D01*
X21772D02*
X21704Y55093D01*
X21704D02*
X21670Y55000D01*
X21636Y54859*
Y54625*
X21670Y54484*
X21704Y54390*
X21704D02*
X21772Y54296D01*
X21772D02*
X21840Y54250D01*
X21840D02*
X21977D01*
X22045Y54296*
X22045D02*
X22113Y54390D01*
X22113D02*
X22147Y54484D01*
X22454Y55234D02*
Y54250D01*
X22931Y55234D02*
Y54250D01*
X22454Y54765D02*
X22931D01*
X23238Y55234D02*
Y54250D01*
X23545Y55234D02*
Y54250D01*
Y55234D02*
X23784D01*
X23886Y55187*
X23886D02*
X23954Y55093D01*
X23954D02*
X23988Y55000D01*
X23988D02*
X24022Y54859D01*
X24022D02*
Y54625D01*
X24022D02*
X23988Y54484D01*
X23988D02*
X23954Y54390D01*
X23954D02*
X23886Y54296D01*
X23886D02*
X23784Y54250D01*
X23545*
X25352Y55234D02*
Y54250D01*
X25113Y55234D02*
X25590D01*
X25897D02*
Y54250D01*
Y55234D02*
X26340D01*
X25897Y54765D02*
X26170D01*
X25897Y54250D02*
X26340D01*
X27159Y55000D02*
X27125Y55093D01*
X27125D02*
X27056Y55187D01*
X27056D02*
X26988Y55234D01*
X26988D02*
X26852D01*
X26784Y55187*
X26784D02*
X26715Y55093D01*
X26715D02*
X26681Y55000D01*
X26681D02*
X26647Y54859D01*
X26647D02*
Y54625D01*
X26647D02*
X26681Y54484D01*
X26681D02*
X26715Y54390D01*
X26715D02*
X26784Y54296D01*
X26784D02*
X26852Y54250D01*
X26988*
X26988D02*
X27056Y54296D01*
X27056D02*
X27125Y54390D01*
X27125D02*
X27159Y54484D01*
X27465Y55234D02*
Y54250D01*
X27943Y55234D02*
Y54250D01*
X27465Y54765D02*
X27943D01*
X28250Y55234D02*
Y54250D01*
Y55234D02*
X28727Y54250D01*
Y55234D02*
Y54250D01*
X29238Y55234D02*
X29170Y55187D01*
X29170D02*
X29102Y55093D01*
X29102D02*
X29068Y55000D01*
X29034Y54859*
Y54625*
X29068Y54484*
X29102Y54390*
X29102D02*
X29170Y54296D01*
X29170D02*
X29238Y54250D01*
X29238D02*
X29375D01*
X29443Y54296*
X29443D02*
X29511Y54390D01*
X29511D02*
X29545Y54484D01*
X29579Y54625*
X29579D02*
Y54859D01*
X29579D02*
X29545Y55000D01*
X29511Y55093*
X29511D02*
X29443Y55187D01*
X29443D02*
X29375Y55234D01*
X29238*
X29886D02*
Y54250D01*
X30295*
X30806Y55234D02*
X30738Y55187D01*
X30738D02*
X30670Y55093D01*
X30670D02*
X30636Y55000D01*
X30602Y54859*
Y54625*
X30636Y54484*
X30670Y54390*
X30670D02*
X30738Y54296D01*
X30738D02*
X30806Y54250D01*
X30806D02*
X30943D01*
X31011Y54296*
X31011D02*
X31079Y54390D01*
X31079D02*
X31113Y54484D01*
X31113D02*
X31147Y54625D01*
X31147D02*
Y54859D01*
X31147D02*
X31113Y55000D01*
X31113D02*
X31079Y55093D01*
X31079D02*
X31011Y55187D01*
X31011D02*
X30943Y55234D01*
X30806*
X31965Y55000D02*
X31931Y55093D01*
X31931D02*
X31863Y55187D01*
X31863D02*
X31795Y55234D01*
X31659*
X31590Y55187*
X31590D02*
X31522Y55093D01*
X31522D02*
X31488Y55000D01*
X31488D02*
X31454Y54859D01*
X31454D02*
Y54625D01*
X31454D02*
X31488Y54484D01*
X31488D02*
X31522Y54390D01*
X31522D02*
X31590Y54296D01*
X31590D02*
X31659Y54250D01*
X31795*
X31863Y54296*
X31863D02*
X31931Y54390D01*
X31931D02*
X31965Y54484D01*
X31965D02*
Y54625D01*
X31795D02*
X31965D01*
X32272Y55234D02*
Y54250D01*
X32579Y55234D02*
Y54250D01*
Y55234D02*
X33022D01*
X32579Y54765D02*
X32852D01*
X32579Y54250D02*
X33022D01*
X33806Y55093D02*
X33738Y55187D01*
X33738D02*
X33636Y55234D01*
X33500*
X33397Y55187*
X33397D02*
X33329Y55093D01*
X33329D02*
Y55000D01*
X33329D02*
X33363Y54906D01*
X33363D02*
X33397Y54859D01*
X33397D02*
X33465Y54812D01*
X33465D02*
X33670Y54718D01*
X33670D02*
X33738Y54671D01*
X33738D02*
X33772Y54625D01*
X33772D02*
X33806Y54531D01*
X33806D02*
Y54390D01*
X33806D02*
X33738Y54296D01*
X33738D02*
X33636Y54250D01*
X33500*
X33397Y54296*
X33397D02*
X33329Y54390D01*
X34897Y55234D02*
Y54250D01*
Y55234D02*
X35340D01*
X34897Y54765D02*
X35170D01*
X34897Y54250D02*
X35340D01*
X35647Y55234D02*
Y54250D01*
Y55234D02*
X36125Y54250D01*
Y55234D02*
Y54250D01*
X36943Y55000D02*
X36909Y55093D01*
X36909D02*
X36840Y55187D01*
X36840D02*
X36772Y55234D01*
X36772D02*
X36636D01*
X36568Y55187*
X36568D02*
X36500Y55093D01*
X36500D02*
X36465Y55000D01*
X36465D02*
X36431Y54859D01*
X36431D02*
Y54625D01*
X36431D02*
X36465Y54484D01*
X36465D02*
X36500Y54390D01*
X36500D02*
X36568Y54296D01*
X36568D02*
X36636Y54250D01*
X36772*
X36772D02*
X36840Y54296D01*
X36840D02*
X36909Y54390D01*
X36909D02*
X36943Y54484D01*
Y54625*
X36772D02*
X36943D01*
X37250Y55234D02*
Y54250D01*
X37556Y55234D02*
Y54250D01*
Y55234D02*
X38034Y54250D01*
Y55234D02*
Y54250D01*
X38340Y55234D02*
Y54250D01*
Y55234D02*
X38784D01*
X38340Y54765D02*
X38613D01*
X38340Y54250D02*
X38784D01*
X39090Y55234D02*
Y54250D01*
Y55234D02*
X39534D01*
X39090Y54765D02*
X39363D01*
X39090Y54250D02*
X39534D01*
X39840Y55234D02*
Y54250D01*
Y55234D02*
X40147D01*
X40147D02*
X40250Y55187D01*
X40250D02*
X40284Y55140D01*
X40284D02*
X40318Y55046D01*
X40318D02*
Y54953D01*
X40284Y54859*
X40250Y54812*
X40250D02*
X40147Y54765D01*
X40147D02*
X39840D01*
X40079D02*
X40318Y54250D01*
X40625Y55234D02*
Y54250D01*
X40931Y55234D02*
Y54250D01*
Y55234D02*
X41409Y54250D01*
Y55234D02*
Y54250D01*
X42227Y55000D02*
X42193Y55093D01*
X42193D02*
X42125Y55187D01*
X42125D02*
X42056Y55234D01*
X42056D02*
X41920D01*
X41852Y55187*
X41852D02*
X41784Y55093D01*
X41784D02*
X41750Y55000D01*
X41715Y54859*
X41715D02*
Y54625D01*
X41715D02*
X41750Y54484D01*
X41784Y54390*
X41784D02*
X41852Y54296D01*
X41852D02*
X41920Y54250D01*
X42056*
X42056D02*
X42125Y54296D01*
X42125D02*
X42193Y54390D01*
X42193D02*
X42227Y54484D01*
Y54625*
X42056D02*
X42227D01*
X44000Y54812D02*
Y54859D01*
X43965Y54906*
X43965D02*
X43931D01*
X43931D02*
X43897Y54859D01*
X43897D02*
X43863Y54765D01*
X43863D02*
X43795Y54531D01*
X43727Y54390*
X43727D02*
X43659Y54296D01*
X43659D02*
X43590Y54250D01*
X43590D02*
X43454D01*
X43454D02*
X43386Y54296D01*
X43386D02*
X43352Y54343D01*
X43352D02*
X43318Y54437D01*
X43318D02*
Y54531D01*
X43352Y54625*
X43386Y54671*
X43386D02*
X43625Y54859D01*
X43659Y54906*
X43693Y55000*
Y55093*
X43693D02*
X43659Y55187D01*
X43659D02*
X43590Y55234D01*
X43590D02*
X43522Y55187D01*
X43522D02*
X43488Y55093D01*
X43488D02*
Y55000D01*
X43488D02*
X43522Y54859D01*
X43522D02*
X43590Y54718D01*
X43590D02*
X43761Y54390D01*
X43761D02*
X43829Y54296D01*
X43829D02*
X43897Y54250D01*
X43897D02*
X43965D01*
X43965D02*
X44000Y54296D01*
X44000D02*
Y54343D01*
X45602Y55000D02*
X45568Y55093D01*
X45568D02*
X45500Y55187D01*
X45500D02*
X45431Y55234D01*
X45431D02*
X45295D01*
X45227Y55187*
X45227D02*
X45159Y55093D01*
X45159D02*
X45125Y55000D01*
X45090Y54859*
X45090D02*
Y54625D01*
X45090D02*
X45125Y54484D01*
X45159Y54390*
X45159D02*
X45227Y54296D01*
X45227D02*
X45295Y54250D01*
X45431*
X45431D02*
X45500Y54296D01*
X45500D02*
X45568Y54390D01*
X45568D02*
X45602Y54484D01*
X46113Y55234D02*
X46045Y55187D01*
X46045D02*
X45977Y55093D01*
X45977D02*
X45943Y55000D01*
X45909Y54859*
Y54625*
X45943Y54484*
X45977Y54390*
X45977D02*
X46045Y54296D01*
X46045D02*
X46113Y54250D01*
X46113D02*
X46250D01*
X46318Y54296*
X46318D02*
X46386Y54390D01*
X46386D02*
X46420Y54484D01*
X46454Y54625*
X46454D02*
Y54859D01*
X46454D02*
X46420Y55000D01*
X46386Y55093*
X46386D02*
X46318Y55187D01*
X46318D02*
X46250Y55234D01*
X46113*
X46761D02*
Y54250D01*
Y55234D02*
X47238Y54250D01*
Y55234D02*
Y54250D01*
X48022Y55093D02*
X47954Y55187D01*
X47954D02*
X47852Y55234D01*
X47715*
X47715D02*
X47613Y55187D01*
X47613D02*
X47545Y55093D01*
X47545D02*
Y55000D01*
X47579Y54906*
X47579D02*
X47613Y54859D01*
X47613D02*
X47681Y54812D01*
X47681D02*
X47886Y54718D01*
X47886D02*
X47954Y54671D01*
X47954D02*
X47988Y54625D01*
X47988D02*
X48022Y54531D01*
X48022D02*
Y54390D01*
X48022D02*
X47954Y54296D01*
X47954D02*
X47852Y54250D01*
X47715*
X47715D02*
X47613Y54296D01*
X47613D02*
X47545Y54390D01*
X48329Y55234D02*
Y54531D01*
X48329D02*
X48363Y54390D01*
X48363D02*
X48431Y54296D01*
X48431D02*
X48534Y54250D01*
X48602*
X48704Y54296*
X48704D02*
X48772Y54390D01*
X48772D02*
X48806Y54531D01*
X48806D02*
Y55234D01*
X49113D02*
Y54250D01*
X49113D02*
X49522D01*
X50068Y55234D02*
Y54250D01*
X49829Y55234D02*
X50306D01*
X50613D02*
Y54250D01*
X50920Y55234D02*
Y54250D01*
Y55234D02*
X51397Y54250D01*
Y55234D02*
Y54250D01*
X52215Y55000D02*
X52181Y55093D01*
X52181D02*
X52113Y55187D01*
X52113D02*
X52045Y55234D01*
X51909*
X51840Y55187*
X51840D02*
X51772Y55093D01*
X51772D02*
X51738Y55000D01*
X51738D02*
X51704Y54859D01*
X51704D02*
Y54625D01*
X51704D02*
X51738Y54484D01*
X51738D02*
X51772Y54390D01*
X51772D02*
X51840Y54296D01*
X51840D02*
X51909Y54250D01*
X52045*
X52113Y54296*
X52113D02*
X52181Y54390D01*
X52181D02*
X52215Y54484D01*
X52215D02*
Y54625D01*
X52045D02*
X52215D01*
X52590Y54296D02*
X52556Y54250D01*
X52556D02*
X52522Y54296D01*
X52522D02*
X52556Y54343D01*
X52556D02*
X52590Y54296D01*
X52590D02*
Y54203D01*
X52590D02*
X52556Y54109D01*
X52556D02*
X52522Y54062D01*
X53681Y55234D02*
Y54250D01*
X53988Y55234D02*
Y54250D01*
Y55234D02*
X54465Y54250D01*
Y55234D02*
Y54250D01*
X55284Y55000D02*
X55250Y55093D01*
X55250D02*
X55181Y55187D01*
X55181D02*
X55113Y55234D01*
X55113D02*
X54977D01*
X54909Y55187*
X54909D02*
X54840Y55093D01*
X54840D02*
X54806Y55000D01*
X54806D02*
X54772Y54859D01*
X54772D02*
Y54625D01*
X54772D02*
X54806Y54484D01*
X54806D02*
X54840Y54390D01*
X54840D02*
X54909Y54296D01*
X54909D02*
X54977Y54250D01*
X55113*
X55113D02*
X55181Y54296D01*
X55181D02*
X55250Y54390D01*
X55250D02*
X55284Y54484D01*
X55625Y54343D02*
X55590Y54296D01*
X55590D02*
X55625Y54250D01*
X55659Y54296*
X55659D02*
X55625Y54343D01*
X17000Y51500D02*
G75*
G03X17000I-1000J0D01*
G01X16500D02*
G03X16500I-500J0D01*
G01X16000Y53500D02*
Y49500D01*
X14000Y51500D02*
X18000D01*
X96000D02*
G03X96000I-1000J0D01*
G01X95500D02*
G03X95500I-500J0D01*
G01X95000Y53500D02*
Y49500D01*
X93000Y51500D02*
X97000D01*
X96000Y16000D02*
G03X96000I-1000J0D01*
G01X95500D02*
G03X95500I-500J0D01*
G01X95000Y18000D02*
Y14000D01*
X93000Y16000D02*
X97000D01*
X25000Y20000D02*
X20000D01*
Y24750*
Y42750D02*
Y47560D01*
X24750*
X80410Y47559D02*
X84565D01*
Y45985*
X90865*
Y41300*
X80403Y20000D02*
X84568D01*
Y21573*
X90867*
Y26270*
X20000Y27596D02*
Y31614D01*
X22950*
G03X22949Y35940I7J2163*
G01X22950D02*
X20000D01*
Y39956*
G54D31*
X67244Y35669D02*
X66889D01*
X66889D02*
X66653Y35905D01*
X66653D02*
X66259D01*
X66259D02*
X65944Y36220D01*
X67244Y35669D02*
X67322Y35748D01*
X67322D02*
X68070D01*
X66574Y36220D02*
X66259Y36535D01*
X66259D02*
X65944D01*
Y37480D02*
X66181Y37716D01*
X66181D02*
X66771D01*
X66771D02*
X66929Y37874D01*
X70118*
G54D32*
X60000Y22450D02*
X60250Y22700D01*
X66800*
X67225Y23125*
Y27150*
X67075Y27300*
X62600Y23125D02*
X64375D01*
X64975Y23725*
Y24525*
X65525Y25075*
Y28425*
X65925Y28825*
X66000Y23100D02*
X66375Y23475D01*
Y25400*
X66625Y25650*
Y26125*
X66175Y26575*
Y27950*
X66375Y28150*
X65125Y22850D02*
X66225D01*
X66550Y23175*
Y25275*
X66725Y25450*
Y26200*
X66300Y26625*
Y27500*
X66600Y27800*
Y28475*
X65125Y22850D02*
X64875Y23100D01*
X64125Y23425D02*
Y23875D01*
X65425Y25175*
Y28550*
X65550Y28675*
Y29150*
X68150Y23950D02*
X67755Y24344D01*
X67755D02*
Y33228D01*
X67755D02*
X66889Y34094D01*
X66889D02*
Y34645D01*
X70375Y23725D02*
X70125Y23975D01*
X68425*
X67913Y24486*
X67913D02*
Y33228D01*
X67126Y34015*
X67126D02*
Y35039D01*
X66574Y35590*
X74250Y22029D02*
X72904Y23375D01*
X72904D02*
X68348D01*
X67598Y24125*
Y33228*
X66692Y34133*
X66692D02*
Y34527D01*
X66692D02*
X66574Y34645D01*
X68250Y21029D02*
X67440Y21838D01*
X67440D02*
Y33228D01*
X67440D02*
X66496Y34173D01*
Y34409*
X66259Y34645*
X66259D02*
Y35590D01*
X82750Y23779D02*
X80579Y25950D01*
X80579D02*
X76125D01*
X80750Y23779D02*
X80130Y24406D01*
X80130D02*
X79375D01*
X78281Y25500*
X76700*
X33000Y31429D02*
X34045Y32475D01*
X44175*
X28000Y31429D02*
X29170Y32600D01*
X29175*
X29700Y33125*
X45375*
X46500Y29125D02*
Y30150D01*
X44175Y32475*
X44250Y24275D02*
X45325D01*
X45675Y24625*
X44250Y24275D02*
X43175Y25350D01*
Y26375*
X42033Y27516*
X42033D02*
X40883D01*
X40883D02*
X39400Y29000D01*
Y30029*
X39400D02*
X38000Y31429D01*
X44800Y24800D02*
Y30100D01*
X45275Y30575*
X49500Y26425D02*
Y32775D01*
X50125Y33400*
X53125Y30175D02*
Y31125D01*
X48700Y35550*
Y36825*
X45200Y40325*
Y43575*
X45025Y43750*
X44150*
X58650Y28875D02*
X64575D01*
X65050Y29350*
Y29550*
X65500Y30000*
X58650Y28875D02*
X54200Y33325D01*
Y34550*
X50200Y38550*
Y42475*
X61375Y25375D02*
X59275Y27475D01*
X55900*
X53700Y29675*
Y33525*
X52250Y34975*
Y35600*
X62750Y29275D02*
X63625D01*
X64725Y30375*
X62750Y29275D02*
X60825Y31200D01*
X57850*
X57125Y31925*
X63850Y29025D02*
X58800D01*
X55575Y32250*
Y35000*
X63850Y29025D02*
X64300Y29475D01*
X64600*
X65125Y30000*
X62100Y29550D02*
X60800Y30875D01*
X57425*
Y30900*
X56400Y31925*
X66825Y25150D02*
X66975Y25300D01*
Y26800*
X66875Y26900*
Y28592*
X66875D02*
X66692Y28775D01*
X66692D02*
Y32283D01*
X66692D02*
X66378Y32598D01*
Y33267*
X66378D02*
X66259Y33385D01*
X66400Y26075D02*
X66075Y26400D01*
Y28325*
X66500Y28750*
Y30150*
X65425Y24475D02*
X65675Y24725D01*
X65684*
Y28275*
X66159Y28750*
Y29200*
X65950Y29409*
Y31884*
X65950D02*
X64724Y33110D01*
Y33740*
X65000Y34015*
X65000D02*
Y34330D01*
X65875Y24450D02*
X65878Y24975D01*
Y28275*
X66378Y28775*
Y29775*
X66300Y29853*
Y30550*
X66574Y30824*
X66574D02*
Y31732D01*
X66574D02*
X65866Y32440D01*
X65866D02*
Y33189D01*
X66175Y29625D02*
Y29859D01*
X66050Y29984*
Y31990*
X66050D02*
X65629Y32410D01*
X65629D02*
Y33675D01*
X65629D02*
X65787Y33825D01*
X66925Y29025D02*
X66929Y29029D01*
Y29337*
X66929D02*
X66807Y29459D01*
X66807D02*
Y32365D01*
X66807D02*
X66496Y32677D01*
Y33464*
X66496D02*
X66259Y33700D01*
X67250Y29250D02*
X66936Y29563D01*
X66936D02*
Y32511D01*
X66936D02*
X66653Y32795D01*
X66653D02*
Y33622D01*
X66653D02*
X66259Y34015D01*
X64173Y31496D02*
X63700Y31968D01*
X63700D02*
Y33228D01*
X63700D02*
X63897Y33425D01*
X63897D02*
Y33900D01*
X64173Y31496D02*
X65511D01*
X65511D02*
X65748Y31732D01*
X62244D02*
Y33858D01*
X62322Y33937*
X62755Y31732D02*
X62637Y31850D01*
X62637D02*
Y33580D01*
X64409Y31732D02*
Y32086D01*
X64409D02*
X64370Y32126D01*
Y33110*
X64055Y33425*
Y34015*
X69750Y29475D02*
X69763D01*
X69763D02*
Y34763D01*
X73300Y24375D02*
Y24378D01*
X73300D02*
X72953Y24725D01*
X72953D02*
Y27400D01*
X72953D02*
X70078Y30275D01*
X70078D02*
Y34921D01*
X70078D02*
X69763Y35236D01*
X69275Y24775D02*
Y25475D01*
X69370Y25570*
Y35866*
X69763Y36259*
X69650Y24500D02*
Y24900D01*
X69651Y24901*
X69527Y25025*
X69527D02*
Y35488D01*
X69527D02*
X69763Y35725D01*
X69075Y28375D02*
X69250Y28550D01*
Y36925*
X69881Y37559*
X69050Y28725D02*
X69055D01*
Y36417*
X68543Y36925*
X67900*
X73475Y24075D02*
X69074D01*
X69074D02*
X68149Y25000D01*
X68149D02*
Y34409D01*
X73475Y24075D02*
X74000Y24600D01*
X68875Y24775D02*
X68275Y25375D01*
Y34078*
X68275D02*
X68346Y34150D01*
Y35118*
X68075Y35400*
X71225Y29875D02*
X71220Y32322D01*
X71220D02*
X72322Y33425D01*
X72322D02*
Y37825D01*
X72322D02*
X75000Y40500D01*
Y42500*
X68425Y24350D02*
X68031Y24743D01*
X68031D02*
Y34094D01*
X67952Y34173*
X67952D02*
Y34763D01*
X67952D02*
X68070Y34881D01*
X77725Y26350D02*
X78725Y27350D01*
Y28550*
X76650Y27900D02*
Y29725D01*
X77300Y30375*
X80200Y27000D02*
Y28400D01*
X77975Y30625*
Y32075*
X77450Y32600*
Y32900*
X45750Y35375D02*
X44100Y37025D01*
X43550*
X42075Y38500*
X40225*
X38150Y40575*
X36200*
X33150Y43625*
X30550*
X29045Y45129*
X29045D02*
X28000D01*
X45150Y38000D02*
X45750Y38600D01*
Y39500*
X44925Y40325*
Y43475*
X45475Y39375D02*
X44325Y40525D01*
X63897Y34173D02*
X63740Y34330D01*
X65787Y34173D02*
X65629Y34330D01*
X62637Y33858D02*
X62480Y34015D01*
X66605Y37425D02*
X66550Y37480D01*
X66259*
X66605Y37425D02*
X67519D01*
X67519D02*
X67575Y37480D01*
X68464*
X66102Y34173D02*
X65944Y34330D01*
X62322Y34173D02*
X62480Y34330D01*
X67244Y32913D02*
Y33267D01*
X67244D02*
X66338Y34173D01*
X63582Y38818D02*
Y39645D01*
X63582D02*
X62637Y40590D01*
X62637D02*
Y41811D01*
X62637D02*
X62559Y41889D01*
X62559D02*
X62519D01*
X62598Y39724D02*
X62677D01*
X62716Y39763*
X62716D02*
Y39842D01*
X62716D02*
X62322Y40236D01*
X62322D02*
Y40315D01*
X62322D02*
X62362Y40354D01*
X62598Y39724D02*
X61771Y40551D01*
X61771D02*
Y40669D01*
X61771D02*
X61850Y40748D01*
Y40944*
X61850D02*
X62086Y41181D01*
X62086D02*
Y42047D01*
X62086D02*
X61850Y42283D01*
Y42362*
X61968Y42480*
X63031Y39330D02*
X63110D01*
X63110D02*
X63189Y39409D01*
Y39527*
X63189D02*
X63267Y39606D01*
X63031Y39330D02*
X62834Y39527D01*
X62834D02*
Y39606D01*
X62834D02*
X62913Y39685D01*
Y39881*
X62913D02*
X62440Y40354D01*
X62440D02*
X62362D01*
X63267Y38818D02*
X61378Y40708D01*
X61378D02*
Y42440D01*
X61378D02*
X61338Y42480D01*
X62952Y38897D02*
X61220Y40629D01*
X61220D02*
Y42362D01*
X61181Y42401*
X61181D02*
Y42992D01*
X61575Y44350*
X63503Y37952D02*
X63740Y38110D01*
X66417Y39370D02*
X66535Y39488D01*
X66732*
X66968Y39724*
X66968D02*
Y40866D01*
X66968D02*
X66889Y40944D01*
X65472Y38937D02*
X65354Y39055D01*
X65275*
X65275D02*
X65157Y39173D01*
Y39252*
X65000Y39409*
Y40944*
X65000D02*
X65078Y41023D01*
X65078D02*
X65157D01*
X66102Y38582D02*
X66023Y38661D01*
X66023D02*
Y39252D01*
X66023D02*
X66299Y39527D01*
X66299D02*
Y41378D01*
X66220Y41456*
X66220D02*
X66141D01*
X66653Y39803D02*
X66574D01*
X66574D02*
X66496Y39881D01*
X66496D02*
Y41692D01*
X66496D02*
X65748Y42440D01*
X66653Y39803D02*
X66732Y39881D01*
X66732D02*
Y40866D01*
X66811Y40944*
X66811D02*
X66889D01*
X63740Y38425D02*
X63582Y38582D01*
X63582D02*
Y38661D01*
X63425Y38425D02*
Y38897D01*
X63425D02*
X63267Y39055D01*
X63267D02*
Y39173D01*
X63267D02*
X63425Y39330D01*
X63425D02*
Y39527D01*
X63425D02*
X63346Y39606D01*
X63267*
X63740Y38740D02*
X63976Y38976D01*
Y39252*
X63937Y39291*
Y39448*
X63937D02*
X63976Y39488D01*
Y39763*
X63976D02*
X63897Y39842D01*
X63897D02*
X63661D01*
X63661D02*
X63031Y40472D01*
Y40590*
X63031D02*
X63149Y40708D01*
X63149D02*
Y40866D01*
X63149D02*
X62952Y41063D01*
X62952D02*
Y41417D01*
X62952D02*
X63149Y41614D01*
X63149D02*
X63307D01*
X63385Y41692*
X63385D02*
Y42007D01*
X63385D02*
X63307Y42086D01*
X63307D02*
X62952D01*
X62952D02*
X62598Y42440D01*
X62598D02*
Y42480D01*
X64055Y38740D02*
X64133Y38818D01*
X64133D02*
Y39842D01*
X64133D02*
X63976Y40000D01*
X63740*
X63582Y40157*
X63582D02*
Y40275D01*
X63582D02*
X63503Y40354D01*
X63503D02*
X63385D01*
X63385D02*
X63307Y40433D01*
Y40629*
X63307D02*
X63464Y40787D01*
X63464D02*
X63543D01*
X65315Y38110D02*
X65472Y38267D01*
X65629Y38425D02*
X65826Y38622D01*
X65826D02*
Y38937D01*
X65826D02*
X65157Y39606D01*
Y40433*
X65236Y40511*
X65236D02*
X65315D01*
X64685Y38110D02*
X64842Y38267D01*
X66574Y38740D02*
Y39094D01*
X66574D02*
X66771Y39291D01*
X66771D02*
X66929D01*
X67401Y39763*
X67401D02*
Y42047D01*
X67401D02*
X67283Y42165D01*
X67047*
X66259Y38425D02*
X66417Y38582D01*
X66574Y38425D02*
X66771Y38622D01*
X66771D02*
Y38897D01*
X66771D02*
X67559Y39685D01*
Y42637*
X67559D02*
X67480Y42716D01*
X67480D02*
X67401D01*
X66259Y38110D02*
X66102Y38267D01*
X64842Y38858D02*
X64960Y39015D01*
X64960D02*
Y39173D01*
X64960D02*
X64842Y39291D01*
X64842D02*
Y42086D01*
X64842D02*
X64803Y42126D01*
Y44015*
X64803D02*
X65118Y44330D01*
X65118D02*
X65826D01*
X44325Y40354D02*
X41025D01*
X41025D02*
X39750Y41629D01*
X39750D02*
X36500D01*
X36500D02*
X33000Y45129D01*
X44325Y40354D02*
Y40525D01*
X43875Y43475D02*
X44150Y43750D01*
X66063Y44330D02*
X66220D01*
X62283Y42362D02*
X62126Y42519D01*
X63622Y40708D02*
X63740D01*
X63740D02*
X63818Y40787D01*
X63818D02*
Y40944D01*
X63818D02*
X63740Y41023D01*
X63740D02*
X63228D01*
X63228D02*
X63110Y41141D01*
X63110D02*
Y41338D01*
X63110D02*
X63228Y41456D01*
X63228D02*
X63503D01*
X63503D02*
X63582Y41535D01*
X63582D02*
Y42165D01*
X63582D02*
X63503Y42244D01*
X63503D02*
X63070D01*
X63070D02*
X62913Y42401D01*
X62913D02*
Y42480D01*
X63622Y40708D02*
X63543Y40787D01*
X62244Y40551D02*
X62362D01*
X62440Y40629*
X62440D02*
Y41811D01*
X62440D02*
X62519Y41889D01*
X62244Y40551D02*
X62165Y40629D01*
X62165D02*
Y40944D01*
X62165D02*
X62244Y41023D01*
X62244D02*
Y42086D01*
X62244D02*
X62283Y42126D01*
X63228Y42755D02*
Y43110D01*
X62795Y43543*
Y44133*
X62795D02*
X62440Y44488D01*
X62440D02*
Y44803D01*
X62913Y42755D02*
X62598Y43070D01*
X62598D02*
Y43110D01*
Y42755D02*
X62204Y43149D01*
X62204D02*
Y43385D01*
X62204D02*
X62440Y43622D01*
X62440D02*
Y43818D01*
X62440D02*
X62126Y44133D01*
X62126D02*
Y44803D01*
X62598Y43346D02*
Y43858D01*
X61338Y42992D02*
X61696Y43975D01*
X61972Y44252*
X61972D02*
Y44330D01*
X61972D02*
X61618Y44685D01*
Y44763*
X61618D02*
X61653Y44798D01*
X61653D02*
X61806D01*
X61806D02*
X61811Y44803D01*
X61653Y42755D02*
X61496Y42913D01*
X61968Y42755D02*
X61811Y42913D01*
Y41181D02*
X61850D01*
X61929Y41259*
X61929D02*
Y41929D01*
X61614Y42244*
Y42401*
X61614D02*
X61653Y42440D01*
X61811Y41181D02*
X61732Y41259D01*
X61732D02*
Y41850D01*
X61653Y41929*
X61653D02*
X61614D01*
X65590Y40275D02*
X65472D01*
X65472D02*
X65393Y40354D01*
X65393D02*
Y40433D01*
X65393D02*
X65315Y40511D01*
X65590Y40275D02*
X65669Y40354D01*
Y41771*
X65669D02*
X65118Y42322D01*
X65748Y42755D02*
X65590Y42913D01*
X67322Y42992D02*
X67440D01*
X67440D02*
X67519Y43070D01*
X67519D02*
Y43189D01*
X67519D02*
X67598Y43267D01*
X67322Y42992D02*
X67244Y43070D01*
X67244D02*
Y43228D01*
X66732Y43740*
X66417*
X65118Y43700D02*
X65236Y43858D01*
X65551*
X65393Y40708D02*
X65315D01*
X65315D02*
X65236Y40787D01*
Y40944*
X65236D02*
X65157Y41023D01*
X65393Y40708D02*
X65472Y40787D01*
Y41692*
X65472D02*
X64960Y42204D01*
X64960D02*
Y43818D01*
X64960D02*
X65000Y43858D01*
Y43976*
X67126Y42440D02*
X67244D01*
X67244D02*
X67322Y42519D01*
X67322D02*
Y42637D01*
X67322D02*
X67401Y42716D01*
X67126Y42440D02*
X67047Y42519D01*
X67047D02*
Y42992D01*
X66692Y43346*
X66692D02*
X65472D01*
X65275Y43543*
X65905Y40315D02*
X65984D01*
X66063Y40393*
X66063D02*
Y41378D01*
X66141Y41456*
X65905Y40315D02*
X65826Y40393D01*
X65826D02*
Y41889D01*
X65826D02*
X65433Y42283D01*
X66771Y41732D02*
X66850D01*
X66929Y41811*
Y42047*
X67047Y42165*
X66771Y41732D02*
X66692Y41811D01*
X66692D02*
Y42952D01*
X66692D02*
X66456Y43189D01*
X66456D02*
X65315D01*
X65275Y43228*
X65433Y42755D02*
X65275Y42913D01*
X66220Y43543D02*
X66417Y43740D01*
X62952Y40826D02*
X62795Y40984D01*
Y41496*
X63070Y41771*
X63070D02*
Y41850D01*
X63070D02*
X62992Y41929D01*
X62834*
X62834D02*
X62440Y42322D01*
X62440D02*
Y42559D01*
X62440D02*
X62047Y42952D01*
X62047D02*
Y43582D01*
X62047D02*
X61811Y43818D01*
X61653Y40787D02*
X61535Y40905D01*
X61535D02*
Y41850D01*
X61614Y41929*
X63307Y41220D02*
X63661D01*
X63779Y41338*
X63779D02*
Y42244D01*
X63779D02*
X63622Y42401D01*
X63622D02*
X63307D01*
X63307D02*
X63228Y42480D01*
X67992Y40236D02*
Y43031D01*
X67755Y43267*
X67755D02*
X67598D01*
G54D33*
X62025Y27225D02*
X60775Y28475D01*
X58050*
X55125Y31400*
G54D37*
X59325Y33575D02*
X59665D01*
X61050Y34960*
X62025*
Y35446*
X62165Y35586*
Y35590*
X64685Y34650D02*
X62350D01*
X62025Y34960*
X64685Y34650D02*
X64850Y34645D01*
X64850D02*
X65000Y34795D01*
X65000D02*
Y36750D01*
X65100Y36850*
X65315*
X64685Y34330D02*
Y34650D01*
X62165Y35590D02*
Y35905D01*
G54D38*
X65866Y33189D03*
X66259Y33385D03*
Y34015D03*
X65629Y34330D03*
X65944D03*
X66259Y33700D03*
X66889Y34645D03*
X66259Y37480D03*
X65000Y34330D03*
X64055Y34015D03*
X63740Y34330D03*
X62480Y34015D03*
Y34330D03*
X64685D03*
X66574Y34645D03*
Y35590D03*
X66259D03*
X66574Y36220D03*
X65944Y36535D03*
X62165Y35590D03*
Y35905D03*
X65315Y36850D03*
X65944D03*
Y37480D03*
X64055Y38110D03*
X63740D03*
X63425D03*
X65944Y36220D03*
X63740Y38425D03*
X63425D03*
X63740Y38740D03*
X64055D03*
X65315Y38110D03*
X65629Y38425D03*
X64685Y38110D03*
X66574Y38740D03*
X66259Y38425D03*
X66574D03*
X66259Y38110D03*
X65551Y43858D03*
X63779Y40472D03*
X66220Y44330D03*
X61575Y44350D03*
X61811Y44803D03*
X62126D03*
X62440D03*
X64960Y45118D03*
X65000Y43976D03*
X62598Y43858D03*
X61811Y43818D03*
X61496Y42913D03*
X62126Y42519D03*
X61811Y42913D03*
X63700Y42598D03*
X66220Y43543D03*
X65275D03*
X65590Y42913D03*
X65275D03*
Y43228D03*
X62952Y40826D03*
X61653Y40787D03*
X63307Y41220D03*
X67992Y40236D03*
G54D40*
X60000Y22450D03*
X62600Y23125D03*
X66000Y23100D03*
X64125Y23425D03*
X64875Y23100D03*
X68150Y23950D03*
X70375Y23725D03*
X45675Y24625D03*
X46500Y29125D03*
X45275Y30575D03*
X44800Y24800D03*
X49500Y26425D03*
X53125Y30175D03*
X56400Y31925D03*
X57125D03*
X55125Y31400D03*
X61375Y25375D03*
X62025Y27225D03*
X64725Y30375D03*
X62100Y29550D03*
X67075Y27300D03*
X66375Y28150D03*
X65925Y28825D03*
X66825Y25150D03*
X66500Y30150D03*
X65500Y30000D03*
X66400Y26075D03*
X65550Y29150D03*
X65125Y30000D03*
X65425Y24475D03*
X65875Y24450D03*
X66175Y29625D03*
X66925Y29025D03*
X67250Y29250D03*
X66600Y28475D03*
X62244Y31732D03*
X62755D03*
X64409D03*
X65748D03*
X69750Y29475D03*
X73300Y24375D03*
X69275Y24775D03*
X69650Y24500D03*
X69075Y28375D03*
X69050Y28725D03*
X74000Y24600D03*
X68875Y24775D03*
X71225Y29875D03*
X68825Y26925D03*
X68425Y24350D03*
X76700Y25500D03*
X78725Y28550D03*
X77725Y26350D03*
X76650Y27900D03*
X77300Y30375D03*
X76125Y25950D03*
X80200Y27000D03*
X45375Y33125D03*
X45750Y35375D03*
X45150Y38000D03*
X50125Y33400D03*
X45475Y39375D03*
X52250Y35600D03*
X59325Y33575D03*
X55575Y35000D03*
X67244Y32913D03*
X68070Y35748D03*
X70118Y37874D03*
X69763Y34763D03*
Y35236D03*
Y35725D03*
Y36259D03*
X69881Y37559D03*
X68070Y34881D03*
X68149Y34409D03*
X68075Y35400D03*
X68464Y37480D03*
X67900Y36925D03*
X77450Y32900D03*
X44925Y43475D03*
X43875D03*
X50200Y42475D03*
X75000Y42500D03*
G54D63*
X20285Y44915D02*
X20745D01*
Y44724*
X20351Y44390D02*
X20307Y44405D01*
X20307D02*
X20285Y44453D01*
X20285D02*
Y44485D01*
X20285D02*
X20307Y44533D01*
X20307D02*
X20373Y44565D01*
X20482Y44580*
X20482D02*
X20591D01*
X20591D02*
X20679Y44565D01*
X20723Y44533*
X20745Y44485*
Y44469*
X20745D02*
X20723Y44421D01*
X20723D02*
X20679Y44390D01*
X20613Y44374*
X20613D02*
X20591D01*
X20591D02*
X20526Y44390D01*
X20482Y44421*
X20482D02*
X20460Y44469D01*
X20460D02*
Y44485D01*
X20460D02*
X20482Y44533D01*
X20482D02*
X20526Y44565D01*
X20591Y44580*
G54D231*
X63897Y33900D02*
Y34173D01*
X62637Y33580D02*
Y33858D01*
X62322Y33937D02*
Y34173D01*
X65787Y33825D02*
Y34173D01*
X66338D02*
X66102D01*
X63582Y38661D02*
Y38818D01*
X63503Y37952D02*
X63031D01*
X63031D02*
X62952Y38031D01*
X62952D02*
Y38897D01*
X66417Y38582D02*
Y39370D01*
X65472Y38267D02*
Y38937D01*
X64842Y38267D02*
Y38858D01*
X66102Y38267D02*
Y38582D01*
X63425Y38110D02*
X63267Y38267D01*
X63267D02*
Y38818D01*
X62283Y42126D02*
Y42362D01*
X62913Y42480D02*
Y42755D01*
X62598Y43110D02*
Y43346D01*
Y42480D02*
Y42755D01*
X61338Y42480D02*
Y42992D01*
X61653Y42440D02*
Y42755D01*
X63228Y42480D02*
Y42755D01*
X61968Y42480D02*
Y42755D01*
X65748Y42440D02*
Y42755D01*
X65433Y42283D02*
Y42755D01*
X65826Y44330D02*
X66063D01*
X65118Y42322D02*
Y43700D01*
G54D331*
X28000Y45129D03*
Y31429D03*
X33000Y45129D03*
Y31429D03*
X38000D03*
G74*
X0Y0D02*
M02*
