*
*
G04 PADS 9.2 Build Number: 414666 generated Gerber (RS-274-X) file*
G04 PC Version=2.1*
*
%IN "CC1B_080118.pcb"*%
*
%MOIN*%
*
%FSLAX24Y24*%
*
*
*
*
G04 PC Standard Apertures*
*
*
G04 Thermal Relief Aperture macro.*
%AMTER*
1,1,$1,0,0*
1,0,$1-$2,0,0*
21,0,$3,$4,0,0,45*
21,0,$3,$4,0,0,135*
%
*
*
G04 Annular Aperture macro.*
%AMANN*
1,1,$1,0,0*
1,0,$2,0,0*
%
*
*
G04 Odd Aperture macro.*
%AMODD*
1,1,$1,0,0*
1,0,$1-0.005,0,0*
%
*
*
G04 PC Custom Aperture Macros*
*
*
*
*
*
*
G04 PC Aperture Table*
*
%ADD010C,0.001*%
%ADD013R,0.06X0.06*%
%ADD014C,0.06*%
%ADD021R,0.065X0.065*%
%ADD022C,0.065*%
%ADD024R,0.022X0.02*%
%ADD025C,0.02*%
%ADD026C,0.04*%
%ADD028C,0.01*%
%ADD029C,0.007*%
%ADD030C,0.05*%
%ADD031C,0.015*%
%ADD032C,0.005*%
%ADD035C,0.025*%
%ADD038C,0.019*%
%ADD040C,0.024*%
%ADD050R,0.03X0.03*%
%ADD054R,0.02X0.022*%
%ADD063C,0.008*%
%ADD064C,0.012*%
%ADD093R,0.04X0.045*%
%ADD109R,0.028X0.028*%
%ADD148R,0.025X0.045*%
%ADD197R,0.016X0.018*%
%ADD199R,0.018X0.016*%
%ADD231C,0.0045*%
%ADD232C,0.0041*%
%ADD306C,0.075*%
%ADD329C,0.246*%
%ADD330R,0.055X0.055*%
%ADD331C,0.055*%
%ADD332O,0.364X0.246*%
%ADD333C,0.09*%
%ADD334R,0.077X0.124*%
%ADD335R,0.09X0.08*%
*
*
*
*
G04 PC Circuitry*
G04 Layer Name CC1B_080118.pcb - circuitry*
%LPD*%
*
*
G04 PC Custom Flashes*
G04 Layer Name CC1B_080118.pcb - flashes*
%LPD*%
*
*
G04 PC Circuitry*
G04 Layer Name CC1B_080118.pcb - circuitry*
%LPD*%
*
G54D10*
G54D13*
G01X41000Y45000D03*
Y39000D03*
Y31250D03*
Y25250D03*
X62250Y21029D03*
X79750Y22779D03*
X58750Y24500D03*
X73750Y37750D03*
X58500Y45000D03*
X86250Y22779D03*
X60250Y24470D03*
X21500Y37529D03*
Y28279D03*
X23000Y37529D03*
Y28279D03*
X24500D03*
Y37529D03*
X68250Y21029D03*
X89291Y25644D03*
G54D14*
X41000Y44000D03*
Y43000D03*
Y42000D03*
Y38000D03*
Y37000D03*
Y36000D03*
Y30250D03*
Y29250D03*
Y28250D03*
Y24250D03*
Y23250D03*
Y22250D03*
X62250Y22029D03*
X63250Y21029D03*
Y22029D03*
X64250Y21029D03*
Y22029D03*
X65250Y21029D03*
Y22029D03*
X66250Y21029D03*
Y22029D03*
X79750Y23779D03*
X80750Y22779D03*
Y23779D03*
X81750Y22779D03*
Y23779D03*
X82750Y22779D03*
Y23779D03*
X58750Y25500D03*
X74750Y37750D03*
X58500Y46000D03*
X86250Y23779D03*
X60250Y25470D03*
X21500Y38529D03*
Y39529D03*
Y29279D03*
Y30279D03*
X23000Y38529D03*
Y39529D03*
Y29279D03*
Y30279D03*
X24500Y29279D03*
Y30279D03*
Y38529D03*
Y39529D03*
X68250Y22029D03*
X69250Y21029D03*
Y22029D03*
X70250Y21029D03*
Y22029D03*
X71250Y21029D03*
Y22029D03*
X72250Y21029D03*
Y22029D03*
X73250Y21029D03*
Y22029D03*
X74250Y21029D03*
Y22029D03*
X75250Y21029D03*
Y22029D03*
X76250Y21029D03*
Y22029D03*
X77250Y21029D03*
Y22029D03*
X89291Y27414D03*
G54D21*
X88750Y41529D03*
Y43779D03*
G54D22*
Y40529D03*
X87750Y41529D03*
Y40529D03*
X88750Y42779D03*
X87750Y43779D03*
Y42779D03*
X21925Y20725D02*
X38175Y20775D01*
X39525Y22125*
Y25150*
X40500Y26125*
X42325*
X21925Y20725D02*
Y20736D01*
X21610Y21050*
X21610D02*
Y21639D01*
X21610D02*
X21600Y21650D01*
X21575*
Y23185*
X42325Y25200D02*
Y26125D01*
G54D24*
X79700Y25735D03*
Y25415D03*
X64250Y25090D03*
Y25410D03*
X64500Y28910D03*
Y28590D03*
X24650Y20990D03*
Y21310D03*
Y22385D03*
Y22065D03*
X43250Y44840D03*
Y45160D03*
Y38840D03*
Y39160D03*
Y31090D03*
Y31410D03*
Y22410D03*
Y22090D03*
X76000Y45410D03*
Y45090D03*
X75500Y45410D03*
Y45090D03*
X75000Y45410D03*
Y45090D03*
X64370Y38388D03*
Y38068D03*
Y36892D03*
Y36572D03*
X65000Y36892D03*
Y36572D03*
X63740Y36892D03*
Y36572D03*
Y36183D03*
Y35863D03*
X64370Y35233D03*
Y35553D03*
X63110Y35233D03*
Y35553D03*
X63740Y35233D03*
Y35553D03*
X63110Y36183D03*
Y35863D03*
X64370D03*
Y36183D03*
X65000Y35233D03*
Y35553D03*
X63110Y36892D03*
Y36572D03*
X62480Y36223D03*
Y35903D03*
X65629Y39840D03*
Y40160D03*
X61653Y39840D03*
Y40160D03*
X62480Y36572D03*
Y36892D03*
X62795Y37797D03*
Y37477D03*
X65629Y35632D03*
Y35312D03*
X61750Y32910D03*
Y32590D03*
X64250Y32910D03*
Y32590D03*
X66500Y32910D03*
Y32590D03*
X65629Y36852D03*
Y36532D03*
X65000Y36183D03*
Y35863D03*
X65275Y45115D03*
Y45435D03*
X61181Y45115D03*
Y45435D03*
X64645Y43230D03*
Y42910D03*
X63700Y43501D03*
Y43821D03*
X64775Y41976D03*
Y41656D03*
X61456Y43225D03*
Y43545D03*
X61771Y42005D03*
Y42325D03*
X77500Y35410D03*
Y35090D03*
X78500Y35410D03*
Y35090D03*
G54D25*
X87250Y31529D03*
Y36029D03*
X24650Y20725D02*
Y20990D01*
X21535Y23250D02*
Y22850D01*
X20725*
X55000Y22700D02*
X54375Y23325D01*
X61425Y21525D02*
X62745D01*
X63250Y22029*
X64250Y25090D02*
Y24750D01*
X65850*
X67400Y26300*
Y26925*
X64250Y24750D02*
X63475D01*
X62025Y26200*
Y26750*
X67400Y26925D02*
X68825D01*
X62025Y26750D02*
Y27225D01*
X66525Y26925D02*
X66450Y27000D01*
X66160*
X66525Y26925D02*
X67400D01*
X66160Y26500D02*
X66700D01*
X84975Y25750D02*
Y26350D01*
X85175Y26550*
Y27525*
X85500Y27850*
X73500Y39921D02*
X70118D01*
X69566Y40472*
X69566D02*
X63779D01*
X73500Y39921D02*
X75750Y42112D01*
X76000*
X80375Y35800D02*
Y35400D01*
X78975*
X80375Y34900D02*
Y35400D01*
X79225Y34000D02*
X79475Y34250D01*
X80150*
X80375Y32775D02*
Y33675D01*
X80150Y33900*
Y34250*
Y34675*
X80375Y34900*
X76400Y42100D02*
X76388Y42112D01*
X76000*
G54D26*
X89000Y44750D03*
Y23000D03*
X22250Y44750D03*
X60975Y27775D02*
X57775D01*
X56550Y29000*
X56500*
G54D28*
X20145Y51034D02*
Y50050D01*
X20554*
X21133Y51034D02*
X20860Y50050D01*
X21133Y51034D02*
X21406Y50050D01*
X20963Y50378D02*
X21304D01*
X21713Y51034D02*
X21985Y50565D01*
X21985D02*
Y50050D01*
X22258Y51034D02*
X21985Y50565D01*
X22565Y51034D02*
Y50050D01*
Y51034D02*
X23008D01*
X22565Y50565D02*
X22838D01*
X22565Y50050D02*
X23008D01*
X23315Y51034D02*
Y50050D01*
Y51034D02*
X23622D01*
X23724Y50987*
X23724D02*
X23758Y50940D01*
X23758D02*
X23792Y50846D01*
X23792D02*
Y50753D01*
X23792D02*
X23758Y50659D01*
X23758D02*
X23724Y50612D01*
X23724D02*
X23622Y50565D01*
X23622D02*
X23315D01*
X23554D02*
X23792Y50050D01*
X25054Y51034D02*
X24951Y50987D01*
X24951D02*
X24917Y50893D01*
X24917D02*
Y50800D01*
X24917D02*
X24951Y50706D01*
X24951D02*
X25020Y50659D01*
X25156Y50612*
X25156D02*
X25258Y50565D01*
X25258D02*
X25326Y50471D01*
X25326D02*
X25360Y50378D01*
X25360D02*
Y50237D01*
X25360D02*
X25326Y50143D01*
X25326D02*
X25292Y50096D01*
X25292D02*
X25190Y50050D01*
X25054*
X24951Y50096*
X24951D02*
X24917Y50143D01*
X24917D02*
X24883Y50237D01*
X24883D02*
Y50378D01*
X24883D02*
X24917Y50471D01*
X24917D02*
X24985Y50565D01*
X24985D02*
X25088Y50612D01*
X25088D02*
X25224Y50659D01*
X25224D02*
X25292Y50706D01*
X25292D02*
X25326Y50800D01*
X25326D02*
Y50893D01*
X25326D02*
X25292Y50987D01*
X25292D02*
X25190Y51034D01*
X25054*
X26929Y50893D02*
X26860Y50987D01*
X26860D02*
X26758Y51034D01*
X26758D02*
X26622D01*
X26520Y50987*
X26520D02*
X26451Y50893D01*
X26451D02*
Y50800D01*
X26451D02*
X26485Y50706D01*
X26485D02*
X26520Y50659D01*
X26588Y50612*
X26588D02*
X26792Y50518D01*
X26792D02*
X26860Y50471D01*
X26860D02*
X26895Y50425D01*
X26929Y50331*
Y50190*
X26929D02*
X26860Y50096D01*
X26860D02*
X26758Y50050D01*
X26758D02*
X26622D01*
X26520Y50096*
X26520D02*
X26451Y50190D01*
X27235Y51034D02*
Y50050D01*
Y51034D02*
X27679D01*
X27235Y50565D02*
X27508D01*
X27235Y50050D02*
X27679D01*
X28497Y50800D02*
X28463Y50893D01*
X28463D02*
X28395Y50987D01*
X28395D02*
X28326Y51034D01*
X28326D02*
X28190D01*
X28122Y50987*
X28122D02*
X28054Y50893D01*
X28054D02*
X28020Y50800D01*
X27985Y50659*
X27985D02*
Y50425D01*
X27985D02*
X28020Y50284D01*
X28054Y50190*
X28054D02*
X28122Y50096D01*
X28122D02*
X28190Y50050D01*
X28326*
X28326D02*
X28395Y50096D01*
X28395D02*
X28463Y50190D01*
X28463D02*
X28497Y50284D01*
X29008Y51034D02*
X28940Y50987D01*
X28940D02*
X28872Y50893D01*
X28872D02*
X28838Y50800D01*
X28804Y50659*
Y50425*
X28838Y50284*
X28872Y50190*
X28872D02*
X28940Y50096D01*
X28940D02*
X29008Y50050D01*
X29008D02*
X29145D01*
X29213Y50096*
X29213D02*
X29281Y50190D01*
X29281D02*
X29315Y50284D01*
X29349Y50425*
X29349D02*
Y50659D01*
X29349D02*
X29315Y50800D01*
X29281Y50893*
X29281D02*
X29213Y50987D01*
X29213D02*
X29145Y51034D01*
X29008*
X29656D02*
Y50050D01*
Y51034D02*
X30133Y50050D01*
Y51034D02*
Y50050D01*
X30440Y51034D02*
Y50050D01*
Y51034D02*
X30679D01*
X30781Y50987*
X30781D02*
X30849Y50893D01*
X30849D02*
X30883Y50800D01*
X30883D02*
X30917Y50659D01*
X30917D02*
Y50425D01*
X30917D02*
X30883Y50284D01*
X30883D02*
X30849Y50190D01*
X30849D02*
X30781Y50096D01*
X30781D02*
X30679Y50050D01*
X30440*
X31497Y51034D02*
X31224Y50050D01*
X31497Y51034D02*
X31770Y50050D01*
X31326Y50378D02*
X31667D01*
X32076Y51034D02*
Y50050D01*
Y51034D02*
X32383D01*
X32383D02*
X32485Y50987D01*
X32485D02*
X32520Y50940D01*
X32520D02*
X32554Y50846D01*
X32554D02*
Y50753D01*
X32520Y50659*
X32485Y50612*
X32485D02*
X32383Y50565D01*
X32383D02*
X32076D01*
X32315D02*
X32554Y50050D01*
X32860Y51034D02*
X33133Y50565D01*
X33133D02*
Y50050D01*
X33406Y51034D02*
X33133Y50565D01*
X34974Y50893D02*
X34906Y50987D01*
X34906D02*
X34804Y51034D01*
X34667*
X34667D02*
X34565Y50987D01*
X34565D02*
X34497Y50893D01*
X34497D02*
Y50800D01*
X34531Y50706*
X34565Y50659*
X34633Y50612*
X34633D02*
X34838Y50518D01*
X34838D02*
X34906Y50471D01*
X34906D02*
X34940Y50425D01*
X34974Y50331*
X34974D02*
Y50190D01*
X34974D02*
X34906Y50096D01*
X34906D02*
X34804Y50050D01*
X34667*
X34667D02*
X34565Y50096D01*
X34565D02*
X34497Y50190D01*
X35281Y51034D02*
Y50050D01*
X35588Y51034D02*
Y50050D01*
Y51034D02*
X35826D01*
X35826D02*
X35929Y50987D01*
X35929D02*
X35997Y50893D01*
X35997D02*
X36031Y50800D01*
X36065Y50659*
Y50425*
X36031Y50284*
X35997Y50190*
X35997D02*
X35929Y50096D01*
X35929D02*
X35826Y50050D01*
X35826D02*
X35588D01*
X36372Y51034D02*
Y50050D01*
Y51034D02*
X36815D01*
X36372Y50565D02*
X36645D01*
X36372Y50050D02*
X36815D01*
X20511Y53000D02*
X20477Y53093D01*
X20477D02*
X20409Y53187D01*
X20409D02*
X20340Y53234D01*
X20340D02*
X20204D01*
X20204D02*
X20136Y53187D01*
X20136D02*
X20068Y53093D01*
X20068D02*
X20034Y53000D01*
X20000Y52859*
Y52625*
X20034Y52484*
X20068Y52390*
X20068D02*
X20136Y52296D01*
X20136D02*
X20204Y52250D01*
X20204D02*
X20340D01*
X20340D02*
X20409Y52296D01*
X20409D02*
X20477Y52390D01*
X20477D02*
X20511Y52484D01*
X21329Y53000D02*
X21295Y53093D01*
X21295D02*
X21227Y53187D01*
X21227D02*
X21159Y53234D01*
X21022*
X21022D02*
X20954Y53187D01*
X20954D02*
X20886Y53093D01*
X20886D02*
X20852Y53000D01*
X20818Y52859*
Y52625*
X20852Y52484*
X20886Y52390*
X20886D02*
X20954Y52296D01*
X20954D02*
X21022Y52250D01*
X21022D02*
X21159D01*
X21227Y52296*
X21227D02*
X21295Y52390D01*
X21295D02*
X21329Y52484D01*
X21636Y53046D02*
X21704Y53093D01*
X21704D02*
X21806Y53234D01*
X21806D02*
Y52250D01*
X22113Y53234D02*
Y52250D01*
Y53234D02*
X22420D01*
X22522Y53187*
X22522D02*
X22556Y53140D01*
X22556D02*
X22590Y53046D01*
X22590D02*
Y52953D01*
X22590D02*
X22556Y52859D01*
X22556D02*
X22522Y52812D01*
X22522D02*
X22420Y52765D01*
X22113D02*
X22420D01*
X22420D02*
X22522Y52718D01*
X22522D02*
X22556Y52671D01*
X22556D02*
X22590Y52578D01*
X22590D02*
Y52437D01*
X22590D02*
X22556Y52343D01*
X22556D02*
X22522Y52296D01*
X22522D02*
X22420Y52250D01*
X22113*
X24193Y53000D02*
X24159Y53093D01*
X24159D02*
X24090Y53187D01*
X24090D02*
X24022Y53234D01*
X24022D02*
X23886D01*
X23818Y53187*
X23818D02*
X23750Y53093D01*
X23750D02*
X23715Y53000D01*
X23715D02*
X23681Y52859D01*
X23681D02*
Y52625D01*
X23681D02*
X23715Y52484D01*
X23715D02*
X23750Y52390D01*
X23750D02*
X23818Y52296D01*
X23818D02*
X23886Y52250D01*
X24022*
X24022D02*
X24090Y52296D01*
X24090D02*
X24159Y52390D01*
X24159D02*
X24193Y52484D01*
X24704Y53234D02*
X24636Y53187D01*
X24636D02*
X24568Y53093D01*
X24568D02*
X24534Y53000D01*
X24500Y52859*
Y52625*
X24534Y52484*
X24568Y52390*
X24568D02*
X24636Y52296D01*
X24636D02*
X24704Y52250D01*
X24704D02*
X24840D01*
X24840D02*
X24909Y52296D01*
X24909D02*
X24977Y52390D01*
X24977D02*
X25011Y52484D01*
X25045Y52625*
Y52859*
X25011Y53000*
X24977Y53093*
X24977D02*
X24909Y53187D01*
X24909D02*
X24840Y53234D01*
X24840D02*
X24704D01*
X25352D02*
Y52250D01*
Y53234D02*
X25829Y52250D01*
Y53234D02*
Y52250D01*
X26375Y53234D02*
Y52250D01*
X26136Y53234D02*
X26613D01*
X26920D02*
Y52250D01*
Y53234D02*
X27227D01*
X27329Y53187*
X27329D02*
X27363Y53140D01*
X27363D02*
X27397Y53046D01*
X27397D02*
Y52953D01*
X27397D02*
X27363Y52859D01*
X27363D02*
X27329Y52812D01*
X27329D02*
X27227Y52765D01*
X27227D02*
X26920D01*
X27159D02*
X27397Y52250D01*
X27909Y53234D02*
X27840Y53187D01*
X27840D02*
X27772Y53093D01*
X27772D02*
X27738Y53000D01*
X27738D02*
X27704Y52859D01*
X27704D02*
Y52625D01*
X27704D02*
X27738Y52484D01*
X27738D02*
X27772Y52390D01*
X27772D02*
X27840Y52296D01*
X27840D02*
X27909Y52250D01*
X28045*
X28113Y52296*
X28113D02*
X28181Y52390D01*
X28181D02*
X28215Y52484D01*
X28215D02*
X28250Y52625D01*
Y52859*
X28215Y53000*
X28215D02*
X28181Y53093D01*
X28181D02*
X28113Y53187D01*
X28113D02*
X28045Y53234D01*
X27909*
X28556D02*
Y52250D01*
X28556D02*
X28965D01*
X30056Y53234D02*
Y52250D01*
Y53234D02*
X30363D01*
X30363D02*
X30465Y53187D01*
X30465D02*
X30500Y53140D01*
X30500D02*
X30534Y53046D01*
X30534D02*
Y52953D01*
X30500Y52859*
X30465Y52812*
X30465D02*
X30363Y52765D01*
X30056D02*
X30363D01*
X30363D02*
X30465Y52718D01*
X30465D02*
X30500Y52671D01*
X30500D02*
X30534Y52578D01*
Y52437*
X30534D02*
X30500Y52343D01*
X30500D02*
X30465Y52296D01*
X30465D02*
X30363Y52250D01*
X30363D02*
X30056D01*
X31045Y53234D02*
X30977Y53187D01*
X30977D02*
X30909Y53093D01*
X30909D02*
X30875Y53000D01*
X30840Y52859*
X30840D02*
Y52625D01*
X30840D02*
X30875Y52484D01*
X30909Y52390*
X30909D02*
X30977Y52296D01*
X30977D02*
X31045Y52250D01*
X31181*
X31181D02*
X31250Y52296D01*
X31250D02*
X31318Y52390D01*
X31318D02*
X31352Y52484D01*
X31386Y52625*
Y52859*
X31352Y53000*
X31318Y53093*
X31318D02*
X31250Y53187D01*
X31250D02*
X31181Y53234D01*
X31181D02*
X31045D01*
X31965D02*
X31693Y52250D01*
X31965Y53234D02*
X32238Y52250D01*
X31795Y52578D02*
X32136D01*
X32545Y53234D02*
Y52250D01*
Y53234D02*
X32852D01*
X32954Y53187*
X32954D02*
X32988Y53140D01*
X32988D02*
X33022Y53046D01*
X33022D02*
Y52953D01*
X33022D02*
X32988Y52859D01*
X32988D02*
X32954Y52812D01*
X32954D02*
X32852Y52765D01*
X32852D02*
X32545D01*
X32784D02*
X33022Y52250D01*
X33329Y53234D02*
Y52250D01*
Y53234D02*
X33568D01*
X33670Y53187*
X33670D02*
X33738Y53093D01*
X33738D02*
X33772Y53000D01*
X33772D02*
X33806Y52859D01*
X33806D02*
Y52625D01*
X33806D02*
X33772Y52484D01*
X33772D02*
X33738Y52390D01*
X33738D02*
X33670Y52296D01*
X33670D02*
X33568Y52250D01*
X33329*
X34897Y53234D02*
Y52250D01*
Y53234D02*
X35204D01*
X35204D02*
X35306Y53187D01*
X35306D02*
X35340Y53140D01*
X35340D02*
X35375Y53046D01*
X35375D02*
Y52953D01*
X35340Y52859*
X35340D02*
X35306Y52812D01*
X35306D02*
X35204Y52765D01*
X35204D02*
X34897D01*
X35136D02*
X35375Y52250D01*
X35681Y53234D02*
Y52250D01*
Y53234D02*
X36125D01*
X35681Y52765D02*
X35954D01*
X35681Y52250D02*
X36125D01*
X36431Y53234D02*
X36704Y52250D01*
X36977Y53234D02*
X36704Y52250D01*
X38340Y53234D02*
X38068Y52250D01*
X38340Y53234D02*
X38613Y52250D01*
X38170Y52578D02*
X38511D01*
X20204Y55234D02*
X20136Y55187D01*
X20136D02*
X20068Y55093D01*
X20068D02*
X20034Y55000D01*
X20000Y54859*
Y54625*
X20034Y54484*
X20068Y54390*
X20068D02*
X20136Y54296D01*
X20136D02*
X20204Y54250D01*
X20204D02*
X20340D01*
X20340D02*
X20409Y54296D01*
X20409D02*
X20477Y54390D01*
X20477D02*
X20511Y54484D01*
X20545Y54625*
Y54859*
X20511Y55000*
X20477Y55093*
X20477D02*
X20409Y55187D01*
X20409D02*
X20340Y55234D01*
X20340D02*
X20204D01*
X20852D02*
Y54250D01*
Y55234D02*
X21159D01*
X21261Y55187*
X21261D02*
X21295Y55140D01*
X21295D02*
X21329Y55046D01*
X21329D02*
Y54953D01*
X21329D02*
X21295Y54859D01*
X21261Y54812*
X21261D02*
X21159Y54765D01*
X21159D02*
X20852D01*
X21090D02*
X21329Y54250D01*
X22147Y55000D02*
X22113Y55093D01*
X22113D02*
X22045Y55187D01*
X22045D02*
X21977Y55234D01*
X21840*
X21840D02*
X21772Y55187D01*
X21772D02*
X21704Y55093D01*
X21704D02*
X21670Y55000D01*
X21636Y54859*
Y54625*
X21670Y54484*
X21704Y54390*
X21704D02*
X21772Y54296D01*
X21772D02*
X21840Y54250D01*
X21840D02*
X21977D01*
X22045Y54296*
X22045D02*
X22113Y54390D01*
X22113D02*
X22147Y54484D01*
X22454Y55234D02*
Y54250D01*
X22931Y55234D02*
Y54250D01*
X22454Y54765D02*
X22931D01*
X23238Y55234D02*
Y54250D01*
X23545Y55234D02*
Y54250D01*
Y55234D02*
X23784D01*
X23886Y55187*
X23886D02*
X23954Y55093D01*
X23954D02*
X23988Y55000D01*
X23988D02*
X24022Y54859D01*
X24022D02*
Y54625D01*
X24022D02*
X23988Y54484D01*
X23988D02*
X23954Y54390D01*
X23954D02*
X23886Y54296D01*
X23886D02*
X23784Y54250D01*
X23545*
X25352Y55234D02*
Y54250D01*
X25113Y55234D02*
X25590D01*
X25897D02*
Y54250D01*
Y55234D02*
X26340D01*
X25897Y54765D02*
X26170D01*
X25897Y54250D02*
X26340D01*
X27159Y55000D02*
X27125Y55093D01*
X27125D02*
X27056Y55187D01*
X27056D02*
X26988Y55234D01*
X26988D02*
X26852D01*
X26784Y55187*
X26784D02*
X26715Y55093D01*
X26715D02*
X26681Y55000D01*
X26681D02*
X26647Y54859D01*
X26647D02*
Y54625D01*
X26647D02*
X26681Y54484D01*
X26681D02*
X26715Y54390D01*
X26715D02*
X26784Y54296D01*
X26784D02*
X26852Y54250D01*
X26988*
X26988D02*
X27056Y54296D01*
X27056D02*
X27125Y54390D01*
X27125D02*
X27159Y54484D01*
X27465Y55234D02*
Y54250D01*
X27943Y55234D02*
Y54250D01*
X27465Y54765D02*
X27943D01*
X28250Y55234D02*
Y54250D01*
Y55234D02*
X28727Y54250D01*
Y55234D02*
Y54250D01*
X29238Y55234D02*
X29170Y55187D01*
X29170D02*
X29102Y55093D01*
X29102D02*
X29068Y55000D01*
X29034Y54859*
Y54625*
X29068Y54484*
X29102Y54390*
X29102D02*
X29170Y54296D01*
X29170D02*
X29238Y54250D01*
X29238D02*
X29375D01*
X29443Y54296*
X29443D02*
X29511Y54390D01*
X29511D02*
X29545Y54484D01*
X29579Y54625*
X29579D02*
Y54859D01*
X29579D02*
X29545Y55000D01*
X29511Y55093*
X29511D02*
X29443Y55187D01*
X29443D02*
X29375Y55234D01*
X29238*
X29886D02*
Y54250D01*
X30295*
X30806Y55234D02*
X30738Y55187D01*
X30738D02*
X30670Y55093D01*
X30670D02*
X30636Y55000D01*
X30602Y54859*
Y54625*
X30636Y54484*
X30670Y54390*
X30670D02*
X30738Y54296D01*
X30738D02*
X30806Y54250D01*
X30806D02*
X30943D01*
X31011Y54296*
X31011D02*
X31079Y54390D01*
X31079D02*
X31113Y54484D01*
X31113D02*
X31147Y54625D01*
X31147D02*
Y54859D01*
X31147D02*
X31113Y55000D01*
X31113D02*
X31079Y55093D01*
X31079D02*
X31011Y55187D01*
X31011D02*
X30943Y55234D01*
X30806*
X31965Y55000D02*
X31931Y55093D01*
X31931D02*
X31863Y55187D01*
X31863D02*
X31795Y55234D01*
X31659*
X31590Y55187*
X31590D02*
X31522Y55093D01*
X31522D02*
X31488Y55000D01*
X31488D02*
X31454Y54859D01*
X31454D02*
Y54625D01*
X31454D02*
X31488Y54484D01*
X31488D02*
X31522Y54390D01*
X31522D02*
X31590Y54296D01*
X31590D02*
X31659Y54250D01*
X31795*
X31863Y54296*
X31863D02*
X31931Y54390D01*
X31931D02*
X31965Y54484D01*
X31965D02*
Y54625D01*
X31795D02*
X31965D01*
X32272Y55234D02*
Y54250D01*
X32579Y55234D02*
Y54250D01*
Y55234D02*
X33022D01*
X32579Y54765D02*
X32852D01*
X32579Y54250D02*
X33022D01*
X33806Y55093D02*
X33738Y55187D01*
X33738D02*
X33636Y55234D01*
X33500*
X33397Y55187*
X33397D02*
X33329Y55093D01*
X33329D02*
Y55000D01*
X33329D02*
X33363Y54906D01*
X33363D02*
X33397Y54859D01*
X33397D02*
X33465Y54812D01*
X33465D02*
X33670Y54718D01*
X33670D02*
X33738Y54671D01*
X33738D02*
X33772Y54625D01*
X33772D02*
X33806Y54531D01*
X33806D02*
Y54390D01*
X33806D02*
X33738Y54296D01*
X33738D02*
X33636Y54250D01*
X33500*
X33397Y54296*
X33397D02*
X33329Y54390D01*
X34897Y55234D02*
Y54250D01*
Y55234D02*
X35340D01*
X34897Y54765D02*
X35170D01*
X34897Y54250D02*
X35340D01*
X35647Y55234D02*
Y54250D01*
Y55234D02*
X36125Y54250D01*
Y55234D02*
Y54250D01*
X36943Y55000D02*
X36909Y55093D01*
X36909D02*
X36840Y55187D01*
X36840D02*
X36772Y55234D01*
X36772D02*
X36636D01*
X36568Y55187*
X36568D02*
X36500Y55093D01*
X36500D02*
X36465Y55000D01*
X36465D02*
X36431Y54859D01*
X36431D02*
Y54625D01*
X36431D02*
X36465Y54484D01*
X36465D02*
X36500Y54390D01*
X36500D02*
X36568Y54296D01*
X36568D02*
X36636Y54250D01*
X36772*
X36772D02*
X36840Y54296D01*
X36840D02*
X36909Y54390D01*
X36909D02*
X36943Y54484D01*
Y54625*
X36772D02*
X36943D01*
X37250Y55234D02*
Y54250D01*
X37556Y55234D02*
Y54250D01*
Y55234D02*
X38034Y54250D01*
Y55234D02*
Y54250D01*
X38340Y55234D02*
Y54250D01*
Y55234D02*
X38784D01*
X38340Y54765D02*
X38613D01*
X38340Y54250D02*
X38784D01*
X39090Y55234D02*
Y54250D01*
Y55234D02*
X39534D01*
X39090Y54765D02*
X39363D01*
X39090Y54250D02*
X39534D01*
X39840Y55234D02*
Y54250D01*
Y55234D02*
X40147D01*
X40147D02*
X40250Y55187D01*
X40250D02*
X40284Y55140D01*
X40284D02*
X40318Y55046D01*
X40318D02*
Y54953D01*
X40284Y54859*
X40250Y54812*
X40250D02*
X40147Y54765D01*
X40147D02*
X39840D01*
X40079D02*
X40318Y54250D01*
X40625Y55234D02*
Y54250D01*
X40931Y55234D02*
Y54250D01*
Y55234D02*
X41409Y54250D01*
Y55234D02*
Y54250D01*
X42227Y55000D02*
X42193Y55093D01*
X42193D02*
X42125Y55187D01*
X42125D02*
X42056Y55234D01*
X42056D02*
X41920D01*
X41852Y55187*
X41852D02*
X41784Y55093D01*
X41784D02*
X41750Y55000D01*
X41715Y54859*
X41715D02*
Y54625D01*
X41715D02*
X41750Y54484D01*
X41784Y54390*
X41784D02*
X41852Y54296D01*
X41852D02*
X41920Y54250D01*
X42056*
X42056D02*
X42125Y54296D01*
X42125D02*
X42193Y54390D01*
X42193D02*
X42227Y54484D01*
Y54625*
X42056D02*
X42227D01*
X44000Y54812D02*
Y54859D01*
X43965Y54906*
X43965D02*
X43931D01*
X43931D02*
X43897Y54859D01*
X43897D02*
X43863Y54765D01*
X43863D02*
X43795Y54531D01*
X43727Y54390*
X43727D02*
X43659Y54296D01*
X43659D02*
X43590Y54250D01*
X43590D02*
X43454D01*
X43454D02*
X43386Y54296D01*
X43386D02*
X43352Y54343D01*
X43352D02*
X43318Y54437D01*
X43318D02*
Y54531D01*
X43352Y54625*
X43386Y54671*
X43386D02*
X43625Y54859D01*
X43659Y54906*
X43693Y55000*
Y55093*
X43693D02*
X43659Y55187D01*
X43659D02*
X43590Y55234D01*
X43590D02*
X43522Y55187D01*
X43522D02*
X43488Y55093D01*
X43488D02*
Y55000D01*
X43488D02*
X43522Y54859D01*
X43522D02*
X43590Y54718D01*
X43590D02*
X43761Y54390D01*
X43761D02*
X43829Y54296D01*
X43829D02*
X43897Y54250D01*
X43897D02*
X43965D01*
X43965D02*
X44000Y54296D01*
X44000D02*
Y54343D01*
X45602Y55000D02*
X45568Y55093D01*
X45568D02*
X45500Y55187D01*
X45500D02*
X45431Y55234D01*
X45431D02*
X45295D01*
X45227Y55187*
X45227D02*
X45159Y55093D01*
X45159D02*
X45125Y55000D01*
X45090Y54859*
X45090D02*
Y54625D01*
X45090D02*
X45125Y54484D01*
X45159Y54390*
X45159D02*
X45227Y54296D01*
X45227D02*
X45295Y54250D01*
X45431*
X45431D02*
X45500Y54296D01*
X45500D02*
X45568Y54390D01*
X45568D02*
X45602Y54484D01*
X46113Y55234D02*
X46045Y55187D01*
X46045D02*
X45977Y55093D01*
X45977D02*
X45943Y55000D01*
X45909Y54859*
Y54625*
X45943Y54484*
X45977Y54390*
X45977D02*
X46045Y54296D01*
X46045D02*
X46113Y54250D01*
X46113D02*
X46250D01*
X46318Y54296*
X46318D02*
X46386Y54390D01*
X46386D02*
X46420Y54484D01*
X46454Y54625*
X46454D02*
Y54859D01*
X46454D02*
X46420Y55000D01*
X46386Y55093*
X46386D02*
X46318Y55187D01*
X46318D02*
X46250Y55234D01*
X46113*
X46761D02*
Y54250D01*
Y55234D02*
X47238Y54250D01*
Y55234D02*
Y54250D01*
X48022Y55093D02*
X47954Y55187D01*
X47954D02*
X47852Y55234D01*
X47715*
X47715D02*
X47613Y55187D01*
X47613D02*
X47545Y55093D01*
X47545D02*
Y55000D01*
X47579Y54906*
X47579D02*
X47613Y54859D01*
X47613D02*
X47681Y54812D01*
X47681D02*
X47886Y54718D01*
X47886D02*
X47954Y54671D01*
X47954D02*
X47988Y54625D01*
X47988D02*
X48022Y54531D01*
X48022D02*
Y54390D01*
X48022D02*
X47954Y54296D01*
X47954D02*
X47852Y54250D01*
X47715*
X47715D02*
X47613Y54296D01*
X47613D02*
X47545Y54390D01*
X48329Y55234D02*
Y54531D01*
X48329D02*
X48363Y54390D01*
X48363D02*
X48431Y54296D01*
X48431D02*
X48534Y54250D01*
X48602*
X48704Y54296*
X48704D02*
X48772Y54390D01*
X48772D02*
X48806Y54531D01*
X48806D02*
Y55234D01*
X49113D02*
Y54250D01*
X49113D02*
X49522D01*
X50068Y55234D02*
Y54250D01*
X49829Y55234D02*
X50306D01*
X50613D02*
Y54250D01*
X50920Y55234D02*
Y54250D01*
Y55234D02*
X51397Y54250D01*
Y55234D02*
Y54250D01*
X52215Y55000D02*
X52181Y55093D01*
X52181D02*
X52113Y55187D01*
X52113D02*
X52045Y55234D01*
X51909*
X51840Y55187*
X51840D02*
X51772Y55093D01*
X51772D02*
X51738Y55000D01*
X51738D02*
X51704Y54859D01*
X51704D02*
Y54625D01*
X51704D02*
X51738Y54484D01*
X51738D02*
X51772Y54390D01*
X51772D02*
X51840Y54296D01*
X51840D02*
X51909Y54250D01*
X52045*
X52113Y54296*
X52113D02*
X52181Y54390D01*
X52181D02*
X52215Y54484D01*
X52215D02*
Y54625D01*
X52045D02*
X52215D01*
X52590Y54296D02*
X52556Y54250D01*
X52556D02*
X52522Y54296D01*
X52522D02*
X52556Y54343D01*
X52556D02*
X52590Y54296D01*
X52590D02*
Y54203D01*
X52590D02*
X52556Y54109D01*
X52556D02*
X52522Y54062D01*
X53681Y55234D02*
Y54250D01*
X53988Y55234D02*
Y54250D01*
Y55234D02*
X54465Y54250D01*
Y55234D02*
Y54250D01*
X55284Y55000D02*
X55250Y55093D01*
X55250D02*
X55181Y55187D01*
X55181D02*
X55113Y55234D01*
X55113D02*
X54977D01*
X54909Y55187*
X54909D02*
X54840Y55093D01*
X54840D02*
X54806Y55000D01*
X54806D02*
X54772Y54859D01*
X54772D02*
Y54625D01*
X54772D02*
X54806Y54484D01*
X54806D02*
X54840Y54390D01*
X54840D02*
X54909Y54296D01*
X54909D02*
X54977Y54250D01*
X55113*
X55113D02*
X55181Y54296D01*
X55181D02*
X55250Y54390D01*
X55250D02*
X55284Y54484D01*
X55625Y54343D02*
X55590Y54296D01*
X55590D02*
X55625Y54250D01*
X55659Y54296*
X55659D02*
X55625Y54343D01*
X64775Y41656D02*
X64499Y41659D01*
X68375Y46950D02*
Y41800D01*
X69450*
Y42270*
X69450D02*
X70450Y43270D01*
X70450D02*
Y45800D01*
X72300*
Y45075*
X73950*
Y46950*
X68375*
X70800Y45450D02*
X71950D01*
Y44700*
X75950*
Y43300*
X74450*
Y41300*
X72925*
Y42395*
X72925D02*
X72020Y43300D01*
X72020D02*
X70800D01*
Y45450*
X20650Y23750D02*
Y22725D01*
X21500*
Y23750*
X20650*
X23525Y21333D02*
X23533Y21325D01*
X24600*
Y21975*
X23525*
Y21333*
X68375Y46929D02*
X73950D01*
X68375Y46839D02*
X73950D01*
X68375Y46749D02*
X73950D01*
X68375Y46659D02*
X73950D01*
X68375Y46569D02*
X73950D01*
X68375Y46479D02*
X73950D01*
X68375Y46389D02*
X73950D01*
X68375Y46299D02*
X73950D01*
X68375Y46209D02*
X73950D01*
X68375Y46119D02*
X73950D01*
X68375Y46029D02*
X73950D01*
X68375Y45939D02*
X73950D01*
X68375Y45849D02*
X73950D01*
X72300Y45759D02*
X73950D01*
X72300Y45669D02*
X73950D01*
X72300Y45579D02*
X73950D01*
X72300Y45489D02*
X73950D01*
X72300Y45399D02*
X73950D01*
X72300Y45309D02*
X73950D01*
X72300Y45219D02*
X73950D01*
X72300Y45129D02*
X73950D01*
X68375Y45759D02*
X70450D01*
X68375Y45669D02*
X70450D01*
X68375Y45579D02*
X70450D01*
X68375Y45489D02*
X70450D01*
X68375Y45399D02*
X70450D01*
X68375Y45309D02*
X70450D01*
X68375Y45219D02*
X70450D01*
X68375Y45129D02*
X70450D01*
X68375Y45039D02*
X70450D01*
X68375Y44949D02*
X70450D01*
X68375Y44859D02*
X70450D01*
X68375Y44769D02*
X70450D01*
X68375Y44679D02*
X70450D01*
X68375Y44589D02*
X70450D01*
X68375Y44499D02*
X70450D01*
X68375Y44409D02*
X70450D01*
X68375Y44319D02*
X70450D01*
X68375Y44229D02*
X70450D01*
X68375Y44139D02*
X70450D01*
X68375Y44049D02*
X70450D01*
X68375Y43959D02*
X70450D01*
X68375Y43869D02*
X70450D01*
X68375Y43779D02*
X70450D01*
X68375Y43689D02*
X70450D01*
X68375Y43599D02*
X70450D01*
X68375Y43509D02*
X70450D01*
X68375Y43419D02*
X70450D01*
X68375Y43329D02*
X70450D01*
X68375Y43239D02*
X70419D01*
X68375Y43149D02*
X70329D01*
X68375Y43059D02*
X70239D01*
X68375Y42969D02*
X70149D01*
X68375Y42879D02*
X70059D01*
X68375Y42789D02*
X69969D01*
X68375Y42699D02*
X69879D01*
X68375Y42609D02*
X69789D01*
X68375Y42519D02*
X69699D01*
X68375Y42429D02*
X69609D01*
X68375Y42339D02*
X69519D01*
X68375Y42249D02*
X69450D01*
X68375Y42159D02*
X69450D01*
X68375Y42069D02*
X69450D01*
X68375Y41979D02*
X69450D01*
X68375Y41889D02*
X69450D01*
X70800Y44629D02*
X75950D01*
X70800Y44539D02*
X75950D01*
X70800Y44449D02*
X75950D01*
X70800Y44359D02*
X75950D01*
X70800Y44269D02*
X75950D01*
X70800Y44179D02*
X75950D01*
X70800Y44089D02*
X75950D01*
X70800Y43999D02*
X75950D01*
X70800Y43909D02*
X75950D01*
X70800Y43819D02*
X75950D01*
X70800Y43729D02*
X75950D01*
X70800Y43639D02*
X75950D01*
X70800Y43549D02*
X75950D01*
X70800Y43459D02*
X75950D01*
X70800Y43369D02*
X75950D01*
X72040Y43279D02*
X74450D01*
X72130Y43189D02*
X74450D01*
X72220Y43099D02*
X74450D01*
X72310Y43009D02*
X74450D01*
X72400Y42919D02*
X74450D01*
X72490Y42829D02*
X74450D01*
X72580Y42739D02*
X74450D01*
X72670Y42649D02*
X74450D01*
X72760Y42559D02*
X74450D01*
X72850Y42469D02*
X74450D01*
X72925Y42379D02*
X74450D01*
X72925Y42289D02*
X74450D01*
X72925Y42199D02*
X74450D01*
X72925Y42109D02*
X74450D01*
X72925Y42019D02*
X74450D01*
X72925Y41929D02*
X74450D01*
X72925Y41839D02*
X74450D01*
X72925Y41749D02*
X74450D01*
X72925Y41659D02*
X74450D01*
X72925Y41569D02*
X74450D01*
X72925Y41479D02*
X74450D01*
X72925Y41389D02*
X74450D01*
X70800Y45439D02*
X71950D01*
X70800Y45349D02*
X71950D01*
X70800Y45259D02*
X71950D01*
X70800Y45169D02*
X71950D01*
X70800Y45079D02*
X71950D01*
X70800Y44989D02*
X71950D01*
X70800Y44899D02*
X71950D01*
X70800Y44809D02*
X71950D01*
X70800Y44719D02*
X71950D01*
X20650Y23714D02*
X21500D01*
X20650Y23624D02*
X21500D01*
X20650Y23534D02*
X21500D01*
X20650Y23444D02*
X21500D01*
X20650Y23354D02*
X21500D01*
X20650Y23264D02*
X21500D01*
X20650Y23174D02*
X21500D01*
X20650Y23084D02*
X21500D01*
X20650Y22994D02*
X21500D01*
X20650Y22904D02*
X21500D01*
X20650Y22814D02*
X21500D01*
X23525Y21954D02*
X24600D01*
X23525Y21864D02*
X24600D01*
X23525Y21774D02*
X24600D01*
X23525Y21684D02*
X24600D01*
X23525Y21594D02*
X24600D01*
X23525Y21504D02*
X24600D01*
X23525Y21414D02*
X24600D01*
X17000Y51500D02*
G75*
G03X17000I-1000J0D01*
G01X16500D02*
G03X16500I-500J0D01*
G01X16000Y53500D02*
Y49500D01*
X14000Y51500D02*
X18000D01*
X96000D02*
G03X96000I-1000J0D01*
G01X95500D02*
G03X95500I-500J0D01*
G01X95000Y53500D02*
Y49500D01*
X93000Y51500D02*
X97000D01*
X96000Y16000D02*
G03X96000I-1000J0D01*
G01X95500D02*
G03X95500I-500J0D01*
G01X95000Y18000D02*
Y14000D01*
X93000Y16000D02*
X97000D01*
X25000Y20000D02*
X20000D01*
Y24750*
Y42750D02*
Y47560D01*
X24750*
X80410Y47559D02*
X84565D01*
Y45985*
X90865*
Y41300*
X80403Y20000D02*
X84568D01*
Y21573*
X90867*
Y26270*
X20000Y27596D02*
Y31614D01*
X22950*
G03X22949Y35940I7J2163*
G01X22950D02*
X20000D01*
Y39956*
G54D29*
X25853Y46965D02*
X25882Y47006D01*
X25882D02*
X25927Y47026D01*
X25927D02*
X25986D01*
X25986D02*
X26030Y47006D01*
X26060Y46965*
X26060D02*
Y46925D01*
X26045Y46884*
X26030Y46864*
X26000Y46843*
X26000D02*
X25912Y46803D01*
X25882Y46782*
X25882D02*
X25868Y46762D01*
X25868D02*
X25853Y46721D01*
X25853D02*
Y46660D01*
X25853D02*
X25882Y46620D01*
X25882D02*
X25927Y46600D01*
X25986*
X26030Y46620*
X26060Y46660*
X25720Y47026D02*
Y46600D01*
Y47026D02*
X25528D01*
X25720Y46823D02*
X25602D01*
X25720Y46600D02*
X25528D01*
X25173Y46925D02*
X25188Y46965D01*
X25188D02*
X25218Y47006D01*
X25247Y47026*
X25247D02*
X25306D01*
X25306D02*
X25336Y47006D01*
X25365Y46965*
X25365D02*
X25380Y46925D01*
X25395Y46864*
Y46762*
X25395D02*
X25380Y46701D01*
X25380D02*
X25365Y46660D01*
X25365D02*
X25336Y46620D01*
X25306Y46600*
X25306D02*
X25247D01*
X25247D02*
X25218Y46620D01*
X25188Y46660*
X25188D02*
X25173Y46701D01*
X24952Y47026D02*
X24981Y47006D01*
X24981D02*
X25011Y46965D01*
X25011D02*
X25025Y46925D01*
X25025D02*
X25040Y46864D01*
X25040D02*
Y46762D01*
X25040D02*
X25025Y46701D01*
X25025D02*
X25011Y46660D01*
X25011D02*
X24981Y46620D01*
X24981D02*
X24952Y46600D01*
X24893*
X24863Y46620*
X24833Y46660*
X24833D02*
X24819Y46701D01*
X24819D02*
X24804Y46762D01*
X24804D02*
Y46864D01*
X24819Y46925*
X24833Y46965*
X24833D02*
X24863Y47006D01*
X24893Y47026*
X24893D02*
X24952D01*
X24671D02*
Y46600D01*
Y47026D02*
X24464Y46600D01*
Y47026D02*
Y46600D01*
X24331Y47026D02*
Y46600D01*
Y47026D02*
X24228D01*
X24228D02*
X24183Y47006D01*
X24183D02*
X24154Y46965D01*
X24154D02*
X24139Y46925D01*
X24139D02*
X24124Y46864D01*
X24124D02*
Y46762D01*
X24124D02*
X24139Y46701D01*
X24139D02*
X24154Y46660D01*
X24154D02*
X24183Y46620D01*
X24183D02*
X24228Y46600D01*
X24331*
X23873Y47026D02*
X23991Y46600D01*
X23873Y47026D02*
X23755Y46600D01*
X23947Y46742D02*
X23799D01*
X23622Y47026D02*
Y46600D01*
Y47026D02*
X23489D01*
X23489D02*
X23445Y47006D01*
X23430Y46985*
X23430D02*
X23415Y46945D01*
X23415D02*
Y46904D01*
X23415D02*
X23430Y46864D01*
X23445Y46843*
X23445D02*
X23489Y46823D01*
X23489D02*
X23622D01*
X23519D02*
X23415Y46600D01*
X23282Y47026D02*
X23164Y46823D01*
X23164D02*
Y46600D01*
X23046Y47026D02*
X23164Y46823D01*
X22366Y46965D02*
X22396Y47006D01*
X22440Y47026*
X22440D02*
X22499D01*
X22499D02*
X22544Y47006D01*
X22573Y46965*
X22573D02*
Y46925D01*
X22573D02*
X22558Y46884D01*
X22558D02*
X22544Y46864D01*
X22514Y46843*
X22514D02*
X22425Y46803D01*
X22425D02*
X22396Y46782D01*
X22396D02*
X22381Y46762D01*
X22381D02*
X22366Y46721D01*
X22366D02*
Y46660D01*
X22366D02*
X22396Y46620D01*
X22440Y46600*
X22440D02*
X22499D01*
X22499D02*
X22544Y46620D01*
X22573Y46660*
X22233Y47026D02*
Y46600D01*
X22100Y47026D02*
Y46600D01*
Y47026D02*
X21997D01*
X21997D02*
X21953Y47006D01*
X21923Y46965*
X21923D02*
X21908Y46925D01*
X21908D02*
X21894Y46864D01*
Y46762*
X21894D02*
X21908Y46701D01*
X21908D02*
X21923Y46660D01*
X21923D02*
X21953Y46620D01*
X21997Y46600*
X21997D02*
X22100D01*
X21761Y47026D02*
Y46600D01*
Y47026D02*
X21569D01*
X21761Y46823D02*
X21643D01*
X21761Y46600D02*
X21569D01*
G54D30*
X21575Y23185D02*
X21535Y23250D01*
X42325Y26125D02*
Y26150D01*
Y25200D02*
Y25675D01*
G54D31*
X24650Y21700D02*
Y22065D01*
X23400Y21650D02*
Y21850D01*
X24150*
X24650Y22385D02*
X25025Y22750D01*
X25475*
X24650Y21310D02*
Y21700D01*
X43250Y22090D02*
X43260Y22100D01*
X43475*
X43625Y22250*
X43840*
X43250Y22090D02*
X42660D01*
X42650Y22100*
X43250Y22862D02*
Y22410D01*
X42650*
Y22425*
X47000Y22250D02*
X47340D01*
X44500D02*
X44910D01*
X47660D02*
X48025D01*
X44160D02*
X44150Y22265D01*
Y22625*
X44250Y22725*
Y23250*
X44160Y22250D02*
X44500D01*
X63750Y23775D02*
X64500D01*
X65250*
X42750Y24500D02*
X42888Y24638D01*
X43250*
X42475Y28850D02*
Y28862D01*
X43250*
Y30638D02*
Y31090D01*
Y31410D02*
Y31900D01*
Y31090D02*
X42660D01*
X42650Y31100*
X43840Y28225D02*
Y28250D01*
X44500D02*
X44910D01*
X43850Y27625D02*
X43840Y27635D01*
Y28250*
X45250Y29825D02*
X44375D01*
X44250Y29925*
Y30250*
X47000D02*
X47340D01*
X47000Y26250D02*
X47340D01*
X47000Y24250D02*
X47340D01*
X47000Y28250D02*
X47340D01*
X44250Y24250D02*
Y24625D01*
X44425Y24800*
X51750Y31138D02*
X51513Y31375D01*
X51250*
X47660Y24250D02*
X48025D01*
X47660Y28250D02*
X48025D01*
X47660Y26250D02*
X48025D01*
X47660Y30250D02*
X48025D01*
X44160Y28250D02*
X44150Y28260D01*
Y28725*
X44250Y28825*
Y29250*
X44160Y28250D02*
X44500D01*
X62025Y27225D02*
X62315D01*
X62340Y27250*
X63500Y26750D02*
X62660D01*
X63500Y27250D02*
X62660D01*
X64500Y27750D02*
Y28590D01*
X62755Y30708D02*
X62519Y30944D01*
X62519D02*
X62500D01*
X62500D02*
Y31112D01*
X65840Y26500D02*
X65250D01*
X65000Y26750*
X64500Y28910D02*
Y29225D01*
X62340Y26750D02*
X62025D01*
X64250Y25410D02*
Y25975D01*
X64025Y26200*
Y26225*
X64000Y26250*
X65840Y27000D02*
X65250D01*
X65000Y27250*
X73875Y28750D02*
X73910Y28785D01*
Y29175*
X73590D02*
X73250D01*
X79700Y24950D02*
Y25415D01*
X76410Y29500D02*
Y29860D01*
X76425Y29875*
X76090Y29500D02*
Y29890D01*
X76100Y29900*
X79700Y25735D02*
Y26200D01*
X84775Y27250D02*
X84410D01*
X84090D02*
Y27635D01*
X84000Y27725*
X42725Y36600D02*
X42737Y36612D01*
X43250*
Y38388D02*
Y38840D01*
Y39160D02*
Y39650D01*
Y38840D02*
X42660D01*
X42650Y38850*
X45150Y37525D02*
X44375D01*
X44250Y37650*
Y38000*
X44500Y36000D02*
X44910D01*
X44450Y35625D02*
X44040D01*
X43865Y35800*
X43840*
Y36000*
X47000Y39000D02*
X47340D01*
X47000Y37000D02*
X47340D01*
X47000Y35000D02*
X47340D01*
X47000Y32250D02*
X47340D01*
X47660Y39000D02*
X48025D01*
X47660Y32250D02*
X48025D01*
X47660Y37000D02*
X48025D01*
X47660Y35000D02*
X48025D01*
X44160Y36000D02*
X44150Y36010D01*
Y36425*
X44250Y36525*
Y37000*
X44160Y36000D02*
X44500D01*
X58025Y37410D02*
X58060Y37375D01*
X58112Y37427*
X52250Y36000D02*
X52112Y36138D01*
X51750*
X57200Y34750D02*
X57612D01*
X57725Y39625D02*
X58112D01*
X56625Y37375D02*
X56987D01*
X56625Y39225D02*
X56987Y39250D01*
X57675Y37400D02*
X57685Y37410D01*
X58025*
X58112Y38250D02*
X57725D01*
X57650Y38325*
X58112Y38875D02*
X58100D01*
X57900Y39075*
X57725*
X58112Y37875D02*
X57725D01*
X58612Y35750D02*
X58385D01*
X58385D02*
Y35759D01*
X58385D02*
X57992Y36153D01*
X52750Y33638D02*
X52262D01*
X52250Y33650*
X62480Y37480D02*
Y37742D01*
X62480D02*
X62534Y37797D01*
X62559*
X62559D02*
X62560D01*
X62560D02*
X62795D01*
X62480Y37480D02*
X62475Y37519D01*
X62474*
X62474D02*
X62167D01*
X60725Y38925D02*
X60715D01*
Y39250*
X59960Y35984D02*
X59976Y36000D01*
X60340*
X60669Y36889D02*
X60660D01*
X60660D02*
Y37250D01*
X59875Y34725D02*
X60175D01*
X60331Y34881*
X60331D02*
X60351D01*
X60078Y33307D02*
X60351Y33580D01*
X60351D02*
Y33582D01*
X61023D02*
X60671D01*
X64094Y32126D02*
X64250Y32283D01*
Y32590*
X61732Y32283D02*
X61750Y32301D01*
Y32590*
X66496Y32126D02*
X66500D01*
Y32590*
X67086Y37244D02*
X67359D01*
X61338Y35588D02*
X61223D01*
X61220Y35590*
X61338Y35588D02*
X61378D01*
X61532Y35743*
X61532D02*
Y35748D01*
X67362Y34606D02*
X67359Y34608D01*
X67359D02*
Y34921D01*
X67362Y35393D02*
X67359Y35396D01*
X67359D02*
Y35708D01*
X67677Y35393D02*
X67679Y35396D01*
X67679D02*
Y35708D01*
X67677Y34606D02*
X67679Y34608D01*
X67679D02*
Y34921D01*
X62797Y37795D02*
X62795Y37797D01*
X64370Y35275D02*
X64685D01*
X64055Y35590D02*
X63779D01*
X63779D02*
X63425D01*
X64370D02*
X64685D01*
X64015Y35866D02*
Y35905D01*
X64015D02*
X63740D01*
X64015Y35866D02*
X64055Y35905D01*
X64370Y36892D02*
Y36850D01*
X64055*
X64370D02*
X64958D01*
X65000Y36892*
X67047Y35944D02*
X66262D01*
X63425Y34015D02*
X63112D01*
X64685Y36220D02*
X64370D01*
X64055*
X65315Y34015D02*
X65002D01*
X61535Y33700D02*
X61532Y33703D01*
X61532D02*
Y34015D01*
X61850Y34330D02*
X62162Y34643D01*
X62162D02*
Y34645D01*
X63110Y34330D02*
X63112Y34333D01*
X63112D02*
Y34645D01*
X63110Y34960D02*
Y35233D01*
X61220Y36220D02*
X61532D01*
X60354Y36889D02*
X60340D01*
X60340D02*
Y37250D01*
X64370Y36572D02*
X64351Y36535D01*
X64351D02*
X64685D01*
X63737Y36850D02*
X63740Y36892D01*
X62480Y35275D02*
X62167D01*
X66299Y37162D02*
X66572D01*
X66572D02*
X66574Y37165D01*
X66299Y37162D02*
X66262Y37165D01*
X65315Y34645D02*
X65002D01*
X66259Y34330D02*
X66262Y34333D01*
Y34606*
X65944Y35275D02*
X65666D01*
X65666D02*
X65629Y35312D01*
X64055Y35275D02*
X64370D01*
X65315Y34960D02*
X65627D01*
X66574Y36220D02*
X67244D01*
Y36223*
X67359Y36338*
X66975Y36500D02*
X66892Y36538D01*
Y36850*
X62795Y35590D02*
X62792D01*
X62792D02*
X62480Y35903D01*
X64055Y35590D02*
X64370D01*
X64055Y36535D02*
X63740D01*
Y36572*
X64055Y36535D02*
X64351D01*
X64685D02*
X64963D01*
X65000Y36572*
X64055Y36850D02*
X63737D01*
X63737D02*
X63737D01*
X64685D02*
X64370D01*
X62165Y35590D02*
X62151Y35604D01*
X62151D02*
X62022D01*
X61878Y35748*
X61878D02*
X61852D01*
X62165Y35905D02*
X62126Y35942D01*
X61852Y36220*
X62795D02*
X62482D01*
X62482D02*
X62480Y36223D01*
X63425Y36850D02*
X63737D01*
X63737D02*
X63737D01*
X62795Y37165D02*
Y37477D01*
X63425Y35905D02*
X63740D01*
X61063Y38937D02*
Y39222D01*
X61035Y39250*
X63425Y37165D02*
X63383Y37207D01*
Y37480*
X63425Y36535D02*
X63703D01*
X63740Y36572*
X63425Y36535D02*
X63147D01*
X63110Y36572*
X62480Y37480D02*
X62480D01*
X62480D02*
X62480D01*
X64330Y38388D02*
X64370D01*
X64685Y37165D02*
X64721Y37204D01*
X64721D02*
Y37480D01*
X65629Y36220D02*
X65315D01*
Y36850D02*
X65317Y36852D01*
X65317D02*
X65629D01*
X65944Y36850D02*
X66572D01*
X65629Y37165D02*
X65942D01*
X64370D02*
Y37477D01*
X64370D02*
X64372Y37480D01*
X64370Y37795D02*
Y38068D01*
X67007Y37637D02*
X67015Y37644D01*
X67015D02*
Y37950D01*
X65000Y36183D02*
Y36220D01*
X65315*
X65942Y35944D02*
X65905D01*
X65905D02*
X65629Y36220D01*
X64682Y34015D02*
X64685Y34330D01*
X65629Y36532D02*
X65317D01*
X65317D02*
X65315Y36535D01*
X67679Y37244D02*
Y37250D01*
X67679D02*
X68225D01*
X60660Y36000D02*
Y36329D01*
X60669Y36338*
X60671Y34881D02*
Y35233D01*
X60671D02*
X60669Y35236D01*
X66500Y32910D02*
X66145D01*
X66141Y32913*
X64250Y32910D02*
X63940D01*
X63937Y32913*
X61750Y32910D02*
Y33267D01*
X61750D02*
X61732D01*
X65629Y35632D02*
Y35905D01*
X61847Y35275D02*
X61651D01*
X61651D02*
X61338Y35588D01*
X64682Y34645D02*
Y34958D01*
X64682D02*
X64685Y34960D01*
X65947D02*
Y35273D01*
X65944Y35275*
X61847Y37126D02*
Y37519D01*
X62167Y37126D02*
X62207Y37165D01*
X62480*
X61847Y37519D02*
Y37792D01*
X61847D02*
X61850Y37795D01*
X67640Y33700D02*
Y34133D01*
X67640D02*
X67637D01*
X67320Y33700D02*
Y34133D01*
X67320D02*
X67322D01*
X64372Y34645D02*
Y34958D01*
X64372D02*
X64370Y34960D01*
X64052Y34645D02*
Y34958D01*
X64052D02*
X64055Y34960D01*
X61653Y39840D02*
X61259D01*
X61259D02*
Y39842D01*
X65629Y39840D02*
X66023D01*
X66023D02*
Y39842D01*
X65041Y37480D02*
Y37753D01*
X65041D02*
X65000Y37795D01*
X65671Y37480D02*
X65629D01*
X65629D02*
Y37795D01*
X65351Y37480D02*
X65315D01*
Y37795*
X63703Y37480D02*
X63740Y37556D01*
X63740D02*
Y37795D01*
X64372Y37480D02*
Y37792D01*
X64372D02*
X64370Y37795D01*
X64052Y37480D02*
X64055Y37482D01*
X64055D02*
Y37795D01*
X63422Y34645D02*
Y34958D01*
X63422D02*
X63425Y34960D01*
X63742Y34645D02*
Y34958D01*
X63742D02*
X63740Y34960D01*
X65942Y34606D02*
X65669D01*
X65629Y34645*
X62482D02*
Y34958D01*
X62482D02*
X62480Y34960D01*
X63110Y36892D02*
Y37165D01*
X67359Y36338D02*
Y36478D01*
X67359D02*
X67556Y36675D01*
X67556D02*
X68044D01*
X68525Y37155*
X68525D02*
X70100Y38750D01*
X66577Y36496D02*
X66971D01*
X66975Y36500*
X66257Y36496D02*
X65984D01*
X65944Y36535*
X61852Y34015D02*
X62165Y34330D01*
X62792Y34645D02*
Y34958D01*
X62792D02*
X62795Y34960D01*
X61847Y33622D02*
X61614D01*
X61535Y33700*
X62167Y33622D02*
Y34013D01*
X62167D02*
X62165Y34015D01*
X62792D02*
Y34328D01*
X62792D02*
X62795Y34330D01*
X65000Y35553D02*
X64963Y35590D01*
X64963D02*
X64685D01*
X65000Y35553D02*
Y35863D01*
Y35233D02*
X64958Y35275D01*
X64958D02*
X64685D01*
X64370Y36183D02*
Y36220D01*
Y35863D02*
X64372Y35905D01*
X64372D02*
X64685D01*
X63110Y35863D02*
Y35905D01*
X63110D02*
X63425D01*
X63110Y36183D02*
X63112Y36220D01*
X63112D02*
X63425D01*
X63740Y35553D02*
X63777Y35590D01*
X63777D02*
X63779D01*
X63740Y35233D02*
X63782Y35275D01*
X63782D02*
X64055D01*
X63110Y35553D02*
Y35590D01*
X63110D02*
X63425D01*
X63110Y35233D02*
X63068Y35275D01*
X63068D02*
X62834D01*
X64370Y35553D02*
Y35590D01*
Y35233D02*
Y35275D01*
X63740Y35863D02*
Y35905D01*
Y36183D02*
Y36220D01*
X63425*
X63740Y36892D02*
Y37165D01*
X65000Y36892D02*
Y37165D01*
X67335Y37950D02*
X67510Y38125D01*
X67625*
X69015Y35000D02*
X68858Y35157D01*
X66378*
X65944Y35590*
X69015Y35000D02*
X70450D01*
X70675Y35225*
X68070Y35748D02*
X69252D01*
X69503Y36000*
X69503D02*
X69875D01*
X69725Y38750D02*
X69475Y39000D01*
X69410*
X68725D02*
X69090D01*
X70150Y35725D02*
X69875Y36000D01*
X68031Y36338D02*
X67679D01*
X69112Y36250D02*
X68800D01*
X68625Y36275*
X77300Y35700D02*
Y36350D01*
X77450Y36500*
X76250Y34250D02*
X76590D01*
X78260Y34760D02*
Y34850D01*
X78500Y35090*
X78250Y34750D02*
X78260Y34760D01*
X77250Y34750D02*
Y34840D01*
X77500Y35090*
X77250Y34250D02*
X76910D01*
X78975Y35400D02*
X78500D01*
Y35410*
X81500Y33675D02*
X81505Y33680D01*
Y34075*
X81330Y34250*
X78612Y34750D02*
X78270D01*
X78260Y34760*
X78590Y34000D02*
X78350Y34240D01*
X78260*
X78250Y34250*
X78910Y34000D02*
X79225D01*
X77500Y35410D02*
X77490D01*
X77300Y35600*
Y35700*
X80670Y34250D02*
X80150D01*
X42700Y42600D02*
X42712Y42612D01*
X43250*
Y44388D02*
Y44840D01*
Y45160D02*
Y45650D01*
Y44840D02*
X42685D01*
X42675Y44850*
X51500Y40525D02*
Y40862D01*
X44500Y42000D02*
X44910D01*
X43975Y41690D02*
X43840Y41825D01*
Y42000*
X43975Y41690D02*
X44315D01*
X44325Y41700*
X47000Y45000D02*
X47340D01*
X47000Y43000D02*
X47340D01*
X47000Y41000D02*
X47340D01*
X51000Y41700D02*
X51200Y41900D01*
X44250Y44000D02*
Y44300D01*
X44500Y44550*
X51000Y43138D02*
Y43550D01*
X51500Y43138D02*
Y43525D01*
Y41888D02*
X51488Y41900D01*
X51200*
X47660Y45000D02*
X48025D01*
X47660Y43000D02*
X48025D01*
X47660Y41000D02*
X48025D01*
X44500Y42000D02*
X44160D01*
Y42485*
X44250Y42575*
Y43000*
X50500Y43138D02*
Y43550D01*
X64133Y45748D02*
X64446D01*
X64488Y41929D02*
X64490D01*
X64490D02*
X64534Y41972D01*
X64534D02*
X64771D01*
X64771D02*
X64775Y41976D01*
X61811Y45433D02*
Y45745D01*
X61811D02*
X61808Y45748D01*
X61496Y45433D02*
X61183D01*
X61183D02*
X61181Y45435D01*
X62755Y44803D02*
Y45115D01*
X62755D02*
X62758Y45118D01*
X62126Y45433D02*
Y45745D01*
X62126D02*
X62128Y45748D01*
X62755Y45433D02*
X62637Y45551D01*
X62637D02*
Y45745D01*
X62637D02*
X62635Y45748D01*
X63070Y45433D02*
X62952Y45551D01*
X62952D02*
Y45745D01*
X62952D02*
X62955Y45748D01*
X63385Y45433D02*
Y45745D01*
X63385D02*
X63383Y45748D01*
X63700Y45433D02*
Y45745D01*
X63700D02*
X63703Y45748D01*
X64330Y44803D02*
X64333Y44805D01*
X64333D02*
Y45118D01*
X64015Y44803D02*
X64013Y44805D01*
X64013D02*
Y45118D01*
X64960Y45433D02*
X64763Y45629D01*
X64763D02*
Y45745D01*
X64763D02*
X64766Y45748D01*
X64960Y45433D02*
X64963Y45435D01*
X64963D02*
X65275D01*
X66535Y45433D02*
X66614Y45511D01*
X66614D02*
Y45784D01*
X66614D02*
X66616Y45787D01*
X65905Y45433D02*
Y45784D01*
X65905D02*
X65908Y45787D01*
X66220Y45433D02*
X66299Y45511D01*
X66299D02*
Y45784D01*
X66299D02*
X66296Y45787D01*
X65590Y45433D02*
Y45784D01*
X65590D02*
X65588Y45787D01*
X60472Y42598D02*
X60863D01*
X61811Y43543D02*
X61808Y43545D01*
X61808D02*
X61456D01*
X62440Y43228D02*
X62438Y43230D01*
X62438D02*
Y43543D01*
X62755Y43228D02*
X62758Y43230D01*
X62758D02*
Y43543D01*
X63700Y43228D02*
Y43501D01*
X61496Y42598D02*
X61183D01*
X63385D02*
X63383Y42600D01*
X64330Y43228D02*
X64333Y43230D01*
X64333D02*
X64645D01*
X61259Y40157D02*
X61262Y40160D01*
X61653*
X66023Y40118D02*
X65981Y40160D01*
X65981D02*
X65629D01*
X64133Y40177D02*
Y40196D01*
X64133D02*
X63779D01*
X62674Y42283D02*
Y42519D01*
X62674D02*
X62677D01*
X62677D02*
X62755Y42598D01*
X62994Y42283D02*
Y42522D01*
X62994D02*
X63070Y42598D01*
X61771Y42325D02*
Y42519D01*
X61771D02*
X61811Y42598D01*
X61771Y42005D02*
X61889D01*
X61889D02*
X62047Y42165D01*
X62086Y42204*
X61456Y43225D02*
X61808D01*
X61808D02*
X61811Y43228D01*
X62438Y45118D02*
Y45430D01*
X62438D02*
X62440Y45433D01*
X63700Y43821D02*
X64052Y44173D01*
X64052D02*
X64055D01*
X65273Y42283D02*
Y42595D01*
X65273D02*
X65275Y42598D01*
X65593Y42283D02*
Y42595D01*
X65593D02*
X65590Y42598D01*
X65981Y42283D02*
Y42522D01*
X65981D02*
X65905Y42598D01*
X66301Y42283D02*
X66299Y42286D01*
Y42519*
X66299D02*
X66220Y42598D01*
X64645Y42910D02*
X64333D01*
X64333D02*
X64330Y42913D01*
X64018Y44488D02*
X64015Y44490D01*
X64015D02*
Y44803D01*
X63698Y44488D02*
Y44490D01*
X63698D02*
X63385Y44803D01*
X61181Y45115D02*
X61183Y45118D01*
X61183D02*
X61496D01*
X65275Y45115D02*
X64960D01*
X64960D02*
Y45118D01*
X63383Y42283D02*
Y42595D01*
X63383D02*
X63385Y42598D01*
X63703Y42283D02*
Y42595D01*
X63703D02*
X63700Y42598D01*
X75500Y45775D02*
Y46000D01*
X75750Y46250*
X75000Y44625D02*
Y45090D01*
X75500Y44625D02*
Y45090D01*
X75000Y45410D02*
Y45925D01*
X75500Y45410D02*
Y45775D01*
X80700Y43500D02*
X80388D01*
X80700Y44000D02*
X80388D01*
X80775Y42000D02*
X80388D01*
X80775Y40750D02*
X80388D01*
X80775Y41500D02*
X80388D01*
X77750Y45875D02*
X76750D01*
X76375Y46250*
X75750*
X75875Y44625D02*
X76000Y44750D01*
Y45090*
Y45410D02*
Y45950D01*
Y42388D02*
X76262Y42650D01*
X76450*
G54D32*
X33000Y22429D02*
X35545Y24975D01*
X38225*
X40025Y26775*
X28000Y22429D02*
X29495Y23925D01*
X33525*
X35525Y25925*
X38350*
X39500Y27075*
X44975*
X45700Y27800*
Y29010*
X46500Y29810*
X43250Y23138D02*
X42150D01*
X42038Y23250*
X41000*
X43250Y23888D02*
X43775D01*
X43875Y23988*
Y24249*
X43876Y24250*
X43250Y23612D02*
X42975D01*
X42875Y23712*
Y24275*
X42975Y24375*
X43250Y23138D02*
Y23612D01*
X45425Y21625D02*
X46300D01*
X46485Y21810*
X46500*
X45150Y21850D02*
X42550D01*
X42150Y22250*
X41000*
X45150Y21850D02*
X45275Y21975D01*
Y22235*
X45290Y22250*
X46500Y22189D02*
X46501D01*
Y22474*
X46651Y22624*
X47001*
X46500Y22189D02*
Y22190D01*
X45936Y21899D02*
X46226Y22189D01*
X46500*
X47500Y23362D02*
X47362Y23500D01*
Y23750*
X47500Y23362D02*
X48200D01*
X48688Y23850*
X57900*
X45949Y23876D02*
X46239Y24166D01*
X46514*
X47362Y21750D02*
X46550D01*
Y21760*
X46500Y21810*
X47638Y21750D02*
X47900D01*
X48025Y21875*
X47362Y23750D02*
X46500D01*
Y23810*
X47638Y23750D02*
X47900D01*
X48025Y23875*
X45290Y22250D02*
X45275Y22265D01*
Y22865*
X44890Y23250*
X44624*
X43876D02*
Y23617D01*
X43876D02*
X43958Y23700D01*
X45075*
X53475Y21800D02*
X54125D01*
X54625Y22300*
X55000*
X56379Y21525D02*
X49825D01*
X48350Y23000*
X46500*
X56379Y21525D02*
X56804Y21950D01*
X57850*
X59250Y20600D02*
Y21060D01*
X58500Y20600D02*
Y21060D01*
X58189Y23622D02*
X57961Y23850D01*
X57900*
X58500Y21440D02*
Y22475D01*
X59250Y21440D02*
Y22450D01*
X60000Y20600D02*
Y21060D01*
X60750Y20600D02*
Y21112D01*
X60000Y21440D02*
Y22450D01*
X60750Y21388D02*
Y22625D01*
X60175Y23200*
X58800*
X81750Y23779D02*
X81179Y24350D01*
X81179D02*
X79350D01*
X78925Y24775*
Y26025*
X77675Y27275*
Y28375*
X81750Y22779D02*
X81204Y23325D01*
X81204D02*
X79125D01*
X78700Y23750*
Y25975*
X76975Y27700*
Y28225*
X43250Y24362D02*
X43237Y24375D01*
X42975*
X43250Y29612D02*
Y29138D01*
X43213Y29175*
X42675*
X42600Y29250*
X41000*
X43250Y29888D02*
X43600D01*
X43925Y30213*
X43913*
X43876Y30250*
X43250Y29612D02*
X43025D01*
X42862Y29775*
Y30250*
X42987Y30375*
X43250Y30362D02*
X43237Y30375D01*
X42987*
X45525Y25535D02*
X46225D01*
X46500Y25810*
X45525Y25535D02*
X44275Y26775D01*
X40025*
X51275Y30850D02*
X51738D01*
X51750Y30862*
X45275Y30575D02*
Y32325D01*
X46100Y33150*
X44750Y27375D02*
X41875D01*
X41000Y28250*
X44750Y27375D02*
X45275Y27900D01*
Y28235*
X45290Y28250*
X45949Y31876D02*
X45959D01*
X46249Y32166*
X46524*
X45949Y29876D02*
X45959D01*
X46249Y30166*
X46524D02*
X46249D01*
X46524*
X46249D02*
X46500Y30190D01*
X46524Y30166D02*
Y30451D01*
X46674Y30600*
X47000*
X46514Y24166D02*
X46239D01*
X46500Y24190*
X46514Y24166D02*
Y24451D01*
X46664Y24601*
X47014*
X46514Y26166D02*
X46239D01*
X46500Y26190*
X46514Y26166D02*
Y26451D01*
X46664Y26601*
X47014*
X45949Y25876D02*
X46239Y26166D01*
X46514*
X49100Y26050D02*
Y26750D01*
X48575Y27275*
X47500*
X47350Y27425*
Y27738*
X47362Y27750*
X45925Y27900D02*
X45935D01*
X46225Y28190*
X46500*
X47362Y25750D02*
X46500D01*
Y25810*
X47638Y25750D02*
X47900D01*
X48025Y25875*
X47362Y27750D02*
X46500D01*
Y27810*
X47638Y27750D02*
X47900D01*
X48025Y27875*
X47362Y29750D02*
X46475D01*
X46500Y29775*
Y29810*
X47638Y29750D02*
X47900D01*
X48025Y29875*
X47362Y31750D02*
X47302Y31775D01*
X46500*
Y31810*
X47638Y31750D02*
X47900D01*
X48025Y31875*
X46500Y28190D02*
Y28475D01*
X46650Y28625*
X47000*
X45290Y28250D02*
X45275Y28265D01*
Y28875*
X44900Y29250*
X44624*
Y24250D02*
Y24625D01*
X44625*
X44800Y24800*
X43876Y29250D02*
Y29774D01*
X43875Y29775*
X44624Y30250D02*
X44950D01*
X45275Y30575*
X59650Y29175D02*
X63700D01*
X64075Y29550*
X59650Y29175D02*
X59350Y29475D01*
X49300*
X47350Y31425*
Y31738*
X47362Y31750*
X56400Y31925D02*
X52650Y35675D01*
Y41400*
X53050Y41800*
X57125Y31925D02*
X55250Y33800D01*
Y35425*
X52950Y37725*
Y41075*
X53325Y41450*
Y42350*
X56150Y29900D02*
X63189D01*
X63976Y30687*
Y30984*
X65500Y32507*
X65500D02*
Y33515D01*
X65500D02*
X65315Y33700D01*
X56150Y29900D02*
X53700Y32350D01*
X49200*
X48400Y33150*
X46100*
X56850Y30100D02*
X63025D01*
X63500Y30575*
Y32800*
X64085Y33385*
X64085D02*
X65000D01*
X56850Y30100D02*
X48962Y37987D01*
X48962D02*
X45837D01*
X45837D02*
X45150Y38675D01*
X55750Y29800D02*
X65645D01*
X65645D02*
X66520Y30675D01*
X66520D02*
Y31775D01*
X66520D02*
X65695Y32600D01*
X65695D02*
Y33601D01*
X65695D02*
X65472Y33825D01*
X55750Y29800D02*
X53500Y32075D01*
X50925*
X63700Y29350D02*
X59875D01*
X59575Y29650*
X49375*
X48250Y30775*
Y32625*
X48025Y32850*
X63700Y29350D02*
X64025Y29675D01*
X65725*
X66820Y30770*
X66820D02*
Y33100D01*
X66820D02*
X66378Y33543D01*
X65925Y29425D02*
X66325D01*
X66950Y30050*
Y32950*
X67100Y33100*
Y33408*
X66650Y33858*
X65925Y29425D02*
X65800Y29550D01*
X64075*
X63897Y29921D02*
X64724D01*
X65472Y30669*
Y30944*
X65472D02*
X66259Y31732D01*
X63897Y29921D02*
X63818Y30000D01*
X63818D02*
X63622D01*
X62750Y30275D02*
X56975D01*
X49000Y38250*
X47450*
X47375Y38325*
Y38487*
X47362Y38500*
X62750Y30275D02*
X63025Y30550D01*
Y32499*
X64226Y33700*
X64226D02*
X65000D01*
X62500Y31388D02*
X62480D01*
Y33700*
X84925Y29400D02*
X82900Y31425D01*
Y35100*
X81825Y36175*
X78425*
X33604Y35525D02*
X38475D01*
X39325Y36375*
Y38510*
X40975Y40160*
X46100*
X46500Y40560*
X33604Y35525D02*
X33000Y36129D01*
X28950Y35210D02*
X45150D01*
X46500Y36560*
X28950Y35210D02*
X28030Y36129D01*
X28030D02*
X28000D01*
X42400Y36875D02*
X42275Y37000D01*
X41000*
X42400Y36875D02*
X43237D01*
X43250Y36888*
X41650Y35350D02*
X44925D01*
X45290Y35715*
X45290D02*
Y36000D01*
X45290D02*
X45290D01*
X41650Y35350D02*
X41000Y36000D01*
X38000Y36129D02*
X38700Y36829D01*
X38700D02*
Y38450D01*
X41125Y40875*
X45200*
X46500Y42175*
Y42560*
X43250Y36888D02*
Y37362D01*
Y37638D02*
X43600D01*
X43875Y37913*
Y37999*
X43876Y38000*
X43250Y37362D02*
X43237Y37375D01*
X43000*
X42875Y37500*
Y38012*
X42975Y38112*
X43250*
X46524Y38916D02*
X46249D01*
X46500Y38940*
X46524Y38916D02*
Y39201D01*
X46674Y39350*
X47000*
X45949Y38626D02*
X45959D01*
X46249Y38916*
X46524*
Y36916D02*
X46249D01*
X46500Y36940*
X46524Y36916D02*
Y37201D01*
X46674Y37350*
X47000*
X45949Y36626D02*
X45959D01*
X46249Y36916*
X46524*
X45925Y34650D02*
X45935D01*
X46225Y34940*
X46500*
X46524Y32166D02*
X46249D01*
X46500Y32190*
X46524Y32166D02*
Y32451D01*
X46674Y32600*
X47000*
X50125Y33400D02*
X51550D01*
X46500Y36475D02*
X47302D01*
X47362Y36500*
X46500Y36475D02*
Y36560D01*
X48025Y34150D02*
X47475D01*
X47350Y34300*
Y34488*
X47362Y34500*
Y38500D02*
X46525D01*
Y38535*
X46500Y38560*
X47638Y38500D02*
X47900D01*
X48025Y38625*
X47638Y36500D02*
X47900D01*
X48025Y36625*
X47362Y34500D02*
X47302Y34525D01*
X46500*
Y34560*
X47638Y34500D02*
X47900D01*
X48025Y34625*
X46500Y34940D02*
Y35225D01*
X46650Y35375*
X47000*
X45290Y36000D02*
X45275Y36010D01*
Y36725*
X45000Y37000*
X44624*
X43876D02*
X43875Y37001D01*
Y37500*
X44624Y38000D02*
X45150D01*
X59500Y34375D02*
X60779D01*
X61050Y34645*
X61050D02*
X61850D01*
X58440Y37375D02*
X58850D01*
X59175Y37696*
X61298*
X61298D02*
X61555Y37952D01*
X61555D02*
X61692D01*
X52250Y35600D02*
Y35612D01*
X52000Y35862*
X51750*
X58905Y38850D02*
X58740Y39015D01*
X58740D02*
X58625D01*
X58625D02*
X58390Y39250D01*
X58390D02*
X58388D01*
X58897Y35720D02*
Y35750D01*
X58897D02*
X58888D01*
X58897Y35720D02*
X59252D01*
X57874Y34421D02*
Y34736D01*
X57888Y34750*
X57500Y37000D02*
X58315D01*
X58440Y37125*
Y37375*
X57500Y37000D02*
X57275Y37225D01*
Y37363*
X57263Y37375*
X58940Y35250D02*
X58897D01*
X58897D02*
Y35720D01*
X58388Y38250D02*
X58782D01*
X58900Y38367*
X58900D02*
Y38375D01*
X58388Y37875D02*
X61181D01*
X61417Y38110*
X61850*
X57263Y39250D02*
Y39300D01*
X58112*
Y39250D02*
Y39300D01*
X58888Y34750D02*
X59450D01*
X60325Y35629*
X60325D02*
X60315D01*
X58612Y34750D02*
Y35198D01*
X58560Y35250*
X57888Y34750D02*
X58612D01*
X52750Y33362D02*
Y33400D01*
X53125*
X61968Y38267D02*
X62007D01*
X65472Y34175D02*
X65315Y34330D01*
X60944Y36614D02*
X60157D01*
X59842Y36929*
X60944Y36614D02*
X61023Y36692D01*
X66110Y33858D02*
X65953Y34015D01*
X65953D02*
X65944D01*
X66100Y33543D02*
X65629Y34015D01*
X60826Y38228D02*
X59648D01*
X59648D02*
X59252Y38625D01*
X58638*
X58388Y38875*
X60826Y38228D02*
X60866D01*
X61063Y38425*
X61850*
X60984Y38031D02*
X59252D01*
X58908Y38375*
X58900*
X60984Y38031D02*
X61220Y38267D01*
X61220D02*
X61732D01*
X60629Y38425D02*
X60205Y38850D01*
X58905*
X61850Y38740D02*
Y39025D01*
X61375Y39500*
X58524*
X58524D02*
X58400Y39625D01*
X58388*
X62165Y37795D02*
X62007Y37952D01*
X62165Y38110D02*
X62007Y38267D01*
X64055Y38425D02*
X64252Y38622D01*
Y38937*
X64133Y39055*
X64133D02*
Y39901D01*
X69388Y36250D02*
X69753D01*
X69753D02*
X69763Y36259D01*
X78250Y36000D02*
X78425Y36175D01*
X78888Y34750D02*
X79025D01*
X79225Y34950*
X89179Y35269D02*
Y37900D01*
X88204Y38875*
X88200*
X43250Y43362D02*
Y42888D01*
X42312*
X42200Y43000*
X41000*
X43250Y43638D02*
X43600D01*
X43875Y43913*
Y43999*
X43876Y44000*
X43250Y43362D02*
X43025D01*
X42925Y43462*
Y44025*
X43025Y44125*
X43237*
X43250Y44112*
X51025Y42575D02*
Y42862D01*
X51000*
X45015Y41475D02*
X41525D01*
X41000Y42000*
X45015Y41475D02*
X45290Y41750D01*
Y42000*
X44925Y43475D02*
X44749D01*
X44624Y43600*
Y44000*
X46524Y44916D02*
X46249D01*
X46500Y44940*
X46524Y44916D02*
Y45201D01*
X46674Y45350*
X47000*
X45949Y44626D02*
X45959D01*
X46249Y44916*
X46524*
Y42916D02*
X46249D01*
X46500Y42940*
X46524Y42916D02*
Y43200D01*
X46700Y43375*
X47000*
X45949Y42626D02*
X45959D01*
X46249Y42916*
X46524*
Y40916D02*
X46249D01*
X46500Y40940*
X46524Y40916D02*
Y41201D01*
X46674Y41350*
X47000*
X45949Y40626D02*
X45959D01*
X46249Y40916*
X46524*
X47350Y44125D02*
X47362Y44137D01*
Y44500*
Y42500D02*
X46525D01*
Y42535*
X46500Y42560*
X47638Y42500D02*
X47900D01*
X48025Y42625*
X47362Y44500D02*
X46500D01*
Y44560*
X47638Y44500D02*
X47900D01*
X48025Y44625*
X47362Y40500D02*
X46500D01*
Y40560*
X47638Y40500D02*
X47900D01*
X48025Y40625*
X45290Y42000D02*
Y42675D01*
X44990Y42975*
X44624*
Y43000*
X43876D02*
X43875Y43001D01*
Y43475*
X51500Y42862D02*
X51000D01*
X50500*
X51500Y41138D02*
X51488Y41150D01*
X51100*
X51500Y41138D02*
Y41612D01*
X66732Y45275D02*
X67262D01*
X67262D02*
X68112Y46125D01*
X66328Y43858D02*
X68095D01*
X68112Y43875*
X66692Y44015D02*
X67716D01*
X67716D02*
X67913Y44212D01*
X67913D02*
X68110D01*
X68110D02*
X68112Y44250D01*
X66456Y43070D02*
X66929Y42598D01*
X67960*
X68112Y42750*
X65118Y42047D02*
X66929D01*
X67007Y42126*
X65118Y42047D02*
X64921Y42244D01*
X64330Y42598*
X67755Y41653D02*
X66929D01*
X66929D02*
X66811Y41771D01*
X66811D02*
X65078D01*
X67755Y41653D02*
X68102Y42000D01*
X68112*
X65433Y42755D02*
X65275Y42913D01*
X66850Y42362D02*
X68085D01*
X68112Y42375*
X66850Y42362D02*
X66456Y42755D01*
X62086Y42204D02*
X62126Y42244D01*
X65551Y43858D02*
X66114D01*
X65905Y44488D02*
X66063Y44645D01*
X66653Y44330D02*
X67716D01*
X67716D02*
X67784Y44398D01*
X67885*
X68112Y44625*
X65984Y44173D02*
Y44330D01*
X65984D02*
X66299Y44645D01*
X66299D02*
X67440D01*
X67440D02*
X67795Y45000D01*
X68112*
X66220Y44330D02*
X66378Y44488D01*
X67637*
X67637D02*
X67755Y44606D01*
X65905Y44803D02*
Y45000D01*
X65905D02*
X66023Y45118D01*
X66023D02*
X67362D01*
X67952Y45708*
X67952D02*
X68070D01*
X68070D02*
X68112Y45750D01*
X65000Y43976D02*
X65209D01*
X65551Y44318*
Y44921*
X65866Y45236*
X65275Y43543D02*
X65433Y43700D01*
X64330Y43543D02*
X65000D01*
X65511Y44055*
X65511D02*
X65748D01*
X65905Y42913D02*
X66063Y43070D01*
X65590Y42913D02*
X65905Y43228D01*
X65275D02*
X65629D01*
X65629D02*
X65787Y43385D01*
X67750Y42007D02*
X67559D01*
X67559D02*
X67440Y42126D01*
X67440D02*
X67007D01*
X67716Y42834D02*
X66968D01*
X66968D02*
X66574Y43228D01*
X66574D02*
X65905D01*
X66771Y43385D02*
X67086Y43070D01*
X67086D02*
X68057D01*
X68057D02*
X68112Y43125D01*
X65787Y44015D02*
X65748Y44055D01*
X66299Y44960D02*
X67480D01*
X67480D02*
X67874Y45354D01*
X68091*
X68112Y45375*
X65236Y44271D02*
X65206Y44340D01*
X65206D02*
X65108D01*
X64960Y44488*
X68112Y43500D02*
X68108Y43503D01*
X68108D02*
X67007D01*
X67007D02*
X66811Y43700D01*
X80100Y40425D02*
Y40738D01*
X80112Y40750*
X79600Y43950D02*
X80112D01*
Y44000*
Y43500D02*
X79625D01*
X80100Y41150D02*
Y41488D01*
X80112Y41500*
X79700Y41700D02*
X79975Y41975D01*
X80112*
Y42000*
G54D35*
X21535Y22850D02*
Y23250D01*
X21925Y20725D02*
X24650D01*
X63750Y23775D02*
X66875D01*
X68700Y25600*
X63750Y23775D02*
X60975Y26550D01*
Y27775*
X61796Y28596*
X61796D02*
X63622D01*
X63622D02*
X64252Y29225D01*
X64500*
G54D38*
X61850Y36850D03*
X61220Y36535D03*
Y36850D03*
Y37165D03*
X60725Y38925D03*
X67625Y38125D03*
X63425Y33385D03*
X62480Y33700D03*
X65000Y33385D03*
X66889D03*
X65866Y33189D03*
X66259Y33385D03*
Y34015D03*
X65944D03*
X65629Y34330D03*
X65944D03*
X66259Y33700D03*
X66889Y34645D03*
X66259Y37480D03*
X67086Y37244D03*
X61535Y36535D03*
Y37165D03*
X61850Y36535D03*
X62795Y38740D03*
X64685Y39055D03*
X63110Y39685D03*
X63425Y34015D03*
X65315D03*
X63425Y33700D03*
X63110D03*
X62795D03*
X65315D03*
X65000D03*
X64370Y34330D03*
X65629Y34015D03*
X65315Y34330D03*
X65000D03*
X64370Y34015D03*
X64055D03*
X63740D03*
X63425Y34330D03*
X63740D03*
X62480Y34015D03*
Y34330D03*
X61535Y33700D03*
X61850Y34330D03*
X64055D03*
X62480Y34960D03*
X62795D03*
X62165Y34015D03*
Y34330D03*
X62795D03*
X63110D03*
X64685D03*
X63740Y34960D03*
X61850Y37795D03*
Y34645D03*
X63110Y34960D03*
X63425Y35275D03*
X62834D03*
X63425Y34960D03*
X61220Y36220D03*
Y35590D03*
X62165Y36850D03*
X66023Y39842D03*
X62480Y35275D03*
X64370Y34960D03*
X65315Y34645D03*
X66259Y34330D03*
X65944Y35275D03*
X66574Y34645D03*
Y35590D03*
X66259D03*
X65629Y34645D03*
X64055Y34960D03*
Y35275D03*
X64685Y34960D03*
X65315D03*
X64685Y35275D03*
X65315Y35590D03*
X66574Y36220D03*
X66975Y36500D03*
X66574Y37165D03*
X65315Y36220D03*
X65944Y36535D03*
X64685Y35590D03*
X62795D03*
X63425D03*
X64055D03*
Y35905D03*
Y36535D03*
X64685Y35905D03*
Y36220D03*
Y36535D03*
X64055Y36850D03*
X64685D03*
X65629Y37795D03*
X62165Y35590D03*
Y35905D03*
X62795D03*
Y36220D03*
Y36850D03*
Y36535D03*
X63425Y36850D03*
X63740Y37165D03*
X64055D03*
Y36220D03*
X63425D03*
X63110Y37165D03*
X62795D03*
X63425Y35905D03*
X62480Y37165D03*
X60629Y38425D03*
X61063Y38937D03*
X63425Y37165D03*
X61850Y38740D03*
X63425Y36535D03*
X63110Y37480D03*
X62480D03*
X63740Y37795D03*
X64055D03*
X64685D03*
X65000D03*
X65315D03*
Y37165D03*
X65000D03*
X64685D03*
X65315Y35275D03*
Y35905D03*
X65629D03*
Y36220D03*
X65944Y35590D03*
X66259Y36220D03*
X65315Y36850D03*
X65944D03*
X65315Y36535D03*
X65629Y37165D03*
X65944Y37480D03*
X64370Y37165D03*
X64055Y38110D03*
X63740D03*
X63425D03*
X63110D03*
X62795D03*
X62480D03*
X62165Y37795D03*
X61850Y38110D03*
X65944Y36220D03*
X61850Y38425D03*
X63740D03*
X63425D03*
X63110D03*
X62795D03*
X62480D03*
X62165Y38110D03*
X63110Y38740D03*
X63740D03*
X64055D03*
Y38425D03*
X65315D03*
Y38740D03*
X64685Y38425D03*
X65000Y38740D03*
Y38425D03*
Y38110D03*
X65315D03*
X65629Y38425D03*
Y38110D03*
Y38740D03*
X64370Y37795D03*
X64685Y38110D03*
Y38740D03*
X66259Y39173D03*
X66574Y38740D03*
X66259D03*
Y38425D03*
X66574D03*
X62480Y35590D03*
X66259Y38110D03*
X67007Y37637D03*
X66023Y39566D03*
X65944Y38425D03*
X67244Y39094D03*
X65944Y37795D03*
Y38110D03*
X62165Y36535D03*
X61535Y36850D03*
X62165Y36220D03*
X78250Y34750D03*
X77750D03*
X77250D03*
Y34250D03*
Y33750D03*
X78250Y34250D03*
Y33750D03*
X77750Y34250D03*
Y33750D03*
X82000Y34725D03*
X81500Y32775D03*
Y34900D03*
Y33675D03*
Y35800D03*
X63385Y43858D03*
X64645Y44803D03*
X64055Y44173D03*
X65551Y43858D03*
X65905Y44488D03*
X66574Y44173D03*
X63779Y40472D03*
X65984Y44173D03*
X67204Y41929D03*
X64606Y40708D03*
X64133Y45748D03*
X64499Y41659D03*
X64488Y41929D03*
X64645Y45118D03*
X66220Y44330D03*
Y44803D03*
X65905D03*
X65275D03*
X61811Y45433D03*
X61496D03*
Y45118D03*
X61575Y44350D03*
X61811Y44803D03*
X62126D03*
X63070Y45118D03*
Y44803D03*
X63385Y44488D03*
X62401Y44173D03*
X62440Y44803D03*
X62755D03*
X63385D03*
X62126Y45433D03*
X62440D03*
X62755D03*
X63070D03*
X63385D03*
X63700D03*
X64330Y44803D03*
X64015D03*
X64960Y45433D03*
X66535D03*
X65905D03*
X64960Y45118D03*
Y44488D03*
X65000Y43976D03*
X66220Y45433D03*
X65590D03*
X64330Y44488D03*
X64645D03*
X62244Y43779D03*
X63385Y43228D03*
X63700Y42913D03*
X63385Y43543D03*
X63070Y43582D03*
Y43858D03*
X62598D03*
X61811Y43818D03*
X61496Y42913D03*
X62126Y42519D03*
X61811Y42913D03*
Y43543D03*
Y43228D03*
X62440D03*
X62755D03*
X63700D03*
X61496Y42598D03*
X61811D03*
X62126Y42244D03*
X62755Y42598D03*
X63070D03*
X63385D03*
X63700D03*
X66535Y43543D03*
X66220D03*
X65905D03*
X65590D03*
X65275D03*
X65078Y41771D03*
X64330Y43543D03*
X66220Y42913D03*
X65905D03*
X65590D03*
X65275D03*
X64330D03*
Y43228D03*
X65275D03*
X66220Y42598D03*
X62952Y40826D03*
X63070Y44330D03*
X61653Y40787D03*
X65275Y42598D03*
X65590D03*
X65905D03*
X65196Y41496D03*
X63779Y40196D03*
X66023Y40118D03*
X63307Y41220D03*
X64566Y40984D03*
X64475Y41300D03*
X64330Y42598D03*
X63385Y45118D03*
X67992Y40236D03*
G54D40*
X20725Y23575D03*
X24150Y21850D03*
Y21500D03*
X25475Y22750D03*
X20725Y22850D03*
Y23200D03*
X24650Y21700D03*
X42650Y22100D03*
Y22425D03*
X45425Y21625D03*
X48025Y21875D03*
X45936Y21899D03*
X48025Y23875D03*
X47001Y22624D03*
X48025Y22250D03*
X47000D03*
X49625Y22200D03*
X46500Y23000D03*
X48675Y23250D03*
X45075Y23700D03*
X45949Y23876D03*
X44500Y22250D03*
X52875Y22500D03*
X52500D03*
X52125D03*
Y23000D03*
X52500D03*
X52875D03*
Y23500D03*
X52500D03*
X52125D03*
X53475Y21800D03*
X54375Y23325D03*
X57850Y21950D03*
X59250Y20600D03*
X58500D03*
X58800Y23200D03*
X58500Y22475D03*
X59250Y22450D03*
X58189Y23622D03*
X60000Y22450D03*
X62600Y23125D03*
X66000Y23100D03*
X63000Y23775D03*
X60000Y20600D03*
X60750D03*
X61425Y21525D03*
X63750Y23775D03*
X65250D03*
X64125Y23425D03*
X64875Y23100D03*
X64500Y23775D03*
X75250Y23750D03*
X73750D03*
X73000D03*
X71500Y23725D03*
X69250D03*
X68150Y23950D03*
X70375Y23725D03*
X70000D03*
X70750D03*
X74500Y23750D03*
X77500D03*
X76750D03*
X76000D03*
X83950Y23025D03*
X42325Y25675D03*
Y26150D03*
X43250Y31900D03*
X42325Y25200D03*
X42650Y31100D03*
X42750Y24500D03*
X42475Y28850D03*
X45675Y24625D03*
X46500Y29125D03*
X51275Y30850D03*
X50250Y30050D03*
X51250Y31375D03*
X45275Y30575D03*
X44500Y28250D03*
X43850Y27625D03*
X45250Y29825D03*
X44425Y24800D03*
X44800D03*
X48025Y29875D03*
Y31875D03*
X45949Y31876D03*
X47000Y30600D03*
X45949Y29876D03*
X48025Y25875D03*
X47014Y24601D03*
Y26601D03*
X48025Y30250D03*
X47000D03*
X48025Y24250D03*
X45949Y25876D03*
X43875Y29775D03*
X46475Y31075D03*
X47000Y26250D03*
X49500Y26425D03*
X46525Y27100D03*
X48025Y27875D03*
Y28250D03*
X49100Y26050D03*
X47000Y28625D03*
X50500Y27125D03*
X45925Y27900D03*
X47000Y24250D03*
X48025Y26250D03*
X47000Y28250D03*
X53125Y30175D03*
X55250Y24250D03*
X56500D03*
X55625D03*
X56125D03*
Y25250D03*
X55250D03*
X56125Y25750D03*
X56500Y25250D03*
X55250Y25750D03*
X56400Y31925D03*
X57125D03*
X55125Y31400D03*
X52275Y31000D03*
X54250Y30025D03*
X55625Y26850D03*
X56600D03*
X56500Y29000D03*
X55200Y26850D03*
X56125Y24750D03*
X55625D03*
X56500D03*
X55250D03*
X56500Y25750D03*
X55625D03*
X56125Y26850D03*
X55625Y25250D03*
X61375Y25375D03*
X61475Y27025D03*
X62025Y27225D03*
X64250Y24750D03*
X61950Y27900D03*
X62025Y26750D03*
X64500Y29225D03*
X64000Y30150D03*
X63650Y29575D03*
X64725Y30375D03*
X64275D03*
X62100Y29550D03*
X66825Y24700D03*
X66525Y26925D03*
X66700Y26500D03*
X66675Y27475D03*
X67075Y27300D03*
X66375Y28150D03*
X65925Y28825D03*
X63500Y26750D03*
Y27250D03*
Y27750D03*
X64000D03*
Y27250D03*
Y26750D03*
X63500Y26250D03*
X64000D03*
X64500D03*
Y26750D03*
Y27250D03*
X67200Y28100D03*
X66825Y25150D03*
X66500Y30150D03*
X65500Y30000D03*
X66400Y26075D03*
X65550Y29150D03*
X60325Y29550D03*
X65125Y30000D03*
X65425Y24475D03*
X67175Y31675D03*
X65875Y24450D03*
X66175Y29625D03*
X66925Y29025D03*
X67250Y29250D03*
X67200Y29800D03*
X62875Y29550D03*
X65000Y27250D03*
Y26750D03*
X64500Y27750D03*
X65000D03*
X66600Y28475D03*
X65000Y26250D03*
X62244Y30708D03*
X62755D03*
X61732D03*
X62244Y31732D03*
X62755D03*
X64409D03*
X63267Y30748D03*
X63740D03*
X64252D03*
X65748Y31732D03*
Y30748D03*
X65236D03*
Y31850D03*
X63622Y30000D03*
X64763Y30748D03*
X66259Y31732D03*
X60750Y31725D03*
X74250Y26550D03*
X73750D03*
X68700Y25600D03*
X69750Y29475D03*
X73300Y24375D03*
X69275Y24775D03*
X69650Y24500D03*
X69075Y28375D03*
X69050Y28725D03*
X74000Y24600D03*
X68875Y24775D03*
X73750Y30025D03*
X73875Y28750D03*
X73750Y31000D03*
X69125Y26400D03*
X74250Y31000D03*
Y30000D03*
X73250Y29175D03*
X71225Y29875D03*
X68825Y26925D03*
X74675Y31950D03*
X74200D03*
X68425Y24350D03*
X78300Y27250D03*
X79700Y24950D03*
X76700Y25500D03*
X83000Y27275D03*
X78725Y28550D03*
X77725Y26350D03*
X76650Y27900D03*
X77300Y30375D03*
X76100Y29900D03*
X76425Y29875D03*
X77250Y31475D03*
X77750D03*
X78450Y31175D03*
X78675Y30850D03*
X79000Y31500D03*
X78250Y31600D03*
X76750Y31475D03*
X77525Y24850D03*
X82025Y31675D03*
X80575Y31175D03*
X76125Y25950D03*
X79200Y28550D03*
X77675Y28375D03*
X76650Y26450D03*
X79700Y26200D03*
X82200Y29975D03*
X76975Y28225D03*
X80200Y27000D03*
X85500Y27850D03*
X84975Y25750D03*
X86025Y25775D03*
X85500Y27425D03*
X84875Y26750D03*
X84775Y27250D03*
X86500Y27550D03*
X84000Y27725D03*
X85950Y26750D03*
X84000Y26725D03*
X84925Y29400D03*
X85500Y28700D03*
X88875Y29100D03*
X89500Y28950D03*
X43250Y39650D03*
X42725Y36600D03*
X42650Y38850D03*
X45375Y33125D03*
X45750Y35375D03*
X48025Y32850D03*
X51125Y34150D03*
X50750Y32750D03*
X51550Y33400D03*
X45150Y37525D03*
X44500Y36000D03*
X44450Y35625D03*
X45150Y38000D03*
X50925Y32075D03*
X45150Y38675D03*
X48025Y36625D03*
Y38625D03*
X47000Y39350D03*
X45949Y38626D03*
X47000Y37350D03*
X45949Y36626D03*
X45925Y34650D03*
X48025Y34625D03*
X47000Y35375D03*
Y32600D03*
X48025Y39000D03*
X47000D03*
X48025Y37000D03*
X47000D03*
X48025Y35000D03*
X47000D03*
X48025Y32250D03*
X47000D03*
X50125Y33400D03*
X50250Y35050D03*
X45475Y39375D03*
X45650Y34100D03*
X48025Y34150D03*
X43875Y37500D03*
X53375Y38625D03*
X54625D03*
X53250Y38250D03*
X58900Y38375D03*
X57725Y38650D03*
X57650Y38325D03*
X59500Y34375D03*
X53125Y33400D03*
X59252Y35720D03*
X55250Y38250D03*
X53750D03*
X54250D03*
X54750D03*
X55250Y35875D03*
X54875Y33900D03*
X54250Y35050D03*
X52250Y33350D03*
Y33650D03*
Y35600D03*
Y36000D03*
X59325Y33575D03*
X54900Y33100D03*
X55575Y35000D03*
X57725Y37875D03*
X57175Y36875D03*
X57275Y32500D03*
X58905Y38850D03*
X57992Y36153D03*
X58700Y34421D03*
X57874D03*
X57200Y34750D03*
X56625Y37875D03*
X56600Y38375D03*
X57725Y39625D03*
Y39075D03*
X56625Y37375D03*
X59300Y36850D03*
X57275Y33500D03*
X56625Y39225D03*
X57675Y37400D03*
X59842Y36929D03*
X64645Y32126D03*
X59960Y35984D03*
X60669Y36889D03*
Y35236D03*
X59875Y34725D03*
X60078Y33307D03*
X61023Y33582D03*
X61732Y33267D03*
X64094Y32126D03*
X60669Y36338D03*
X63937Y32913D03*
X61732Y32283D03*
X66141Y32913D03*
X66496Y32126D03*
X67322Y34133D03*
X67244Y32913D03*
X67637Y34133D03*
X59975Y38425D03*
X67362Y34606D03*
Y35393D03*
X67677D03*
Y34606D03*
X61259Y39842D03*
X67047Y35944D03*
X60315Y35629D03*
X60354Y36889D03*
X63225Y33000D03*
X73450Y32625D03*
X68070Y35748D03*
X70200Y36750D03*
X72550Y35700D03*
X72925Y32675D03*
X72775Y33600D03*
X69725Y38750D03*
X68725Y39000D03*
X72700Y35225D03*
X68450Y39500D03*
X70675Y35225D03*
X71925Y38700D03*
X70150Y35725D03*
X71925Y37750D03*
Y34725D03*
X69775Y36750D03*
X70118Y37874D03*
X69763Y34763D03*
Y35236D03*
X70100Y38750D03*
X70525Y39500D03*
X69763Y35725D03*
X71925Y36750D03*
X68625Y36275D03*
X69763Y36259D03*
X73225Y36025D03*
X68225Y37250D03*
X73225Y35025D03*
Y35525D03*
X73550Y36275D03*
Y34775D03*
X69881Y37559D03*
X73550Y35275D03*
Y34275D03*
X75375Y33525D03*
X73550Y35775D03*
X73775Y33525D03*
X68031Y36338D03*
X68070Y34881D03*
X68149Y34409D03*
X68075Y35400D03*
X68464Y37480D03*
X67900Y36925D03*
X71975Y35700D03*
X77100Y39400D03*
X77575Y39375D03*
X75900Y33150D03*
X76475Y33375D03*
X79400Y38350D03*
Y37575D03*
X79050Y36500D03*
X77450D03*
X79400Y37900D03*
X77300Y35700D03*
X77450Y32900D03*
X77050D03*
X77850D03*
X78050Y32450D03*
X76250Y34250D03*
X79225Y34950D03*
X77925Y35725D03*
X78975Y35400D03*
X78250Y36000D03*
X82450Y32400D03*
Y34090D03*
X80375Y34900D03*
X79225Y34000D03*
X80375Y32775D03*
Y33675D03*
Y35800D03*
X80150Y34250D03*
X83850Y39500D03*
X88125Y37625D03*
X89250Y39000D03*
X88200Y38875D03*
X85500Y38025D03*
X85050Y38625D03*
X43250Y45650D03*
X42675Y44850D03*
X42700Y42600D03*
X49750Y45750D03*
X49250D03*
X49750Y45125D03*
X48750Y45750D03*
Y44000D03*
X49250Y45125D03*
Y44500D03*
X49750D03*
Y44000D03*
X49250D03*
Y43500D03*
X48750Y44500D03*
X51500Y40525D03*
X51000Y43550D03*
X50500D03*
X51025Y42575D03*
X51500Y43525D03*
X49750Y43500D03*
X44500Y44550D03*
X44325Y41700D03*
X44500Y42000D03*
X44925Y43475D03*
X48750Y45125D03*
X46500Y43825D03*
X48025Y40625D03*
Y42625D03*
Y44625D03*
X47000Y45350D03*
X45949Y44626D03*
X47000Y43375D03*
X45949Y42626D03*
X47000Y41350D03*
X45949Y40626D03*
X48025Y45000D03*
X47000D03*
X48025Y43000D03*
X47000D03*
X48025Y41000D03*
X47000D03*
X43875Y43475D03*
X50200Y42475D03*
X51000Y41700D03*
X51100Y41150D03*
X51800Y42350D03*
Y41650D03*
X47350Y44125D03*
X51800Y42000D03*
X55750Y42750D03*
X56250Y45750D03*
Y45250D03*
X54625D03*
X53375D03*
X53250Y45750D03*
X56250Y44750D03*
X55750Y43250D03*
X56250D03*
Y44250D03*
Y43750D03*
X55750D03*
X54250Y42750D03*
Y41250D03*
X55250Y41750D03*
X54750Y42250D03*
X55250D03*
X53875Y43250D03*
X54375D03*
X54750D03*
X55250D03*
Y42750D03*
X54750Y41750D03*
Y41250D03*
X55250D03*
X56250Y42750D03*
X56625Y41125D03*
X57675D03*
X57725Y40500D03*
X56600Y40000D03*
X57675Y41750D03*
X53325Y42350D03*
X53050Y41800D03*
X55250Y45750D03*
X54250D03*
X54750D03*
X53750D03*
X55350Y40300D03*
X54875D03*
X54400D03*
X53925D03*
X54375Y43750D03*
X54750D03*
X55250D03*
X53875D03*
X54750Y42750D03*
X52200Y42350D03*
Y42000D03*
Y41650D03*
X54250Y42250D03*
Y41750D03*
X57250Y42750D03*
X56625Y41750D03*
X56575Y40500D03*
X59250Y42750D03*
X58725Y40000D03*
X67755Y44606D03*
X60075Y41025D03*
X60775Y41250D03*
X60472Y42598D03*
X60787Y40708D03*
X61000Y41000D03*
X61025Y41525D03*
X67204Y41299D03*
X61259Y40157D03*
X67750Y42007D03*
X67716Y42834D03*
X74975Y46625D03*
X73000Y42500D03*
X75000Y45925D03*
Y42500D03*
X75500Y45775D03*
X73500Y41500D03*
X74000D03*
X73000Y43000D03*
X74000Y43500D03*
Y43000D03*
Y42500D03*
Y42000D03*
X73500D03*
Y42500D03*
Y43000D03*
X70750Y46000D03*
X71250D03*
X71750D03*
X75000Y44625D03*
Y44250D03*
Y43875D03*
X75500D03*
Y44250D03*
Y44625D03*
X74625Y43875D03*
Y44250D03*
Y44625D03*
X72500Y43000D03*
X71500Y45000D03*
Y44500D03*
Y44000D03*
Y43500D03*
X72000D03*
X73250Y44000D03*
X72500Y43500D03*
X73500D03*
X75500Y42500D03*
X73000Y43500D03*
X72250Y46000D03*
X72750D03*
X73750D03*
X73250D03*
Y45500D03*
X70000Y44500D03*
X73750Y45500D03*
X69500Y46000D03*
Y45500D03*
Y45000D03*
Y44500D03*
Y44000D03*
Y43500D03*
Y43000D03*
X69000Y42000D03*
Y42500D03*
Y43000D03*
Y43500D03*
Y44000D03*
Y44500D03*
X70000Y46000D03*
Y43500D03*
X69000Y45500D03*
X70000Y45000D03*
X69000D03*
X70000Y45500D03*
Y44000D03*
X69000Y46000D03*
X77000Y43000D03*
Y41825D03*
X83800Y44300D03*
X83799Y42400D03*
X80700Y43500D03*
Y44000D03*
X80775Y42000D03*
X80100Y40425D03*
X79600Y43950D03*
X80775Y40750D03*
X78100Y43450D03*
X77950Y43875D03*
X80775Y41500D03*
X78050Y44700D03*
X79625Y43500D03*
X77750Y45875D03*
X78125Y41275D03*
X80100Y41150D03*
X79500Y42150D03*
X76875Y46300D03*
Y46700D03*
X76400Y42100D03*
X76450Y42650D03*
X75875Y44625D03*
Y44250D03*
Y43875D03*
X76000Y45950D03*
X79700Y41700D03*
X85450Y41475D03*
X84725Y42375D03*
X85000Y41475D03*
X85250Y40750D03*
X85000Y43500D03*
X85400Y43450D03*
X85525Y44225D03*
X85500Y42250D03*
G54D50*
X55000Y22300D03*
Y22700D03*
G54D54*
X76090Y29500D03*
X76410D03*
X44160Y42000D03*
X43840D03*
X44160Y36000D03*
X43840D03*
X44160Y28250D03*
X43840D03*
X44160Y22250D03*
X43840D03*
X47660Y35000D03*
X47340D03*
X47660Y37000D03*
X47340D03*
X47660Y32250D03*
X47340D03*
X47660Y30250D03*
X47340D03*
X47660Y39000D03*
X47340D03*
X47660Y41000D03*
X47340D03*
X47660Y26250D03*
X47340D03*
X47660Y28250D03*
X47340D03*
X47660Y24250D03*
X47340D03*
X47660Y22250D03*
X47340D03*
X47660Y43000D03*
X47340D03*
X47660Y45000D03*
X47340D03*
X73590Y29175D03*
X73910D03*
X66160Y27000D03*
X65840D03*
X62340Y27250D03*
X62660D03*
X62340Y26750D03*
X62660D03*
X66160Y26500D03*
X65840D03*
X67335Y37950D03*
X67015D03*
X69090Y39000D03*
X69410D03*
X60715Y39250D03*
X61035D03*
X62792Y34015D03*
X63112D03*
X62167Y33622D03*
X61847D03*
X63112Y34645D03*
X62792D03*
X61852Y34015D03*
X61532D03*
X66257Y36496D03*
X66577D03*
X67359Y36338D03*
X67679D03*
X62482Y34645D03*
X62162D03*
X65942Y37165D03*
X66262D03*
X65942Y34606D03*
X66262D03*
X63742Y34645D03*
X63422D03*
X64052Y37480D03*
X64372D03*
X63703D03*
X63383D03*
X65351D03*
X65671D03*
X65041D03*
X64721D03*
X64052Y34645D03*
X64372D03*
X67320Y33700D03*
X67640D03*
X62167Y37519D03*
X61847D03*
X62167Y37126D03*
X61847D03*
X65627Y34960D03*
X65947D03*
X64682Y34645D03*
X65002D03*
X60671Y33582D03*
X60351D03*
X62167Y35275D03*
X61847D03*
X67359Y34921D03*
X67679D03*
X60671Y34881D03*
X60351D03*
X60660Y36000D03*
X60340D03*
X60660Y37250D03*
X60340D03*
X67359Y37244D03*
X67679D03*
X67359Y35708D03*
X67679D03*
X64682Y34015D03*
X65002D03*
X61852Y36220D03*
X61532D03*
X61852Y35748D03*
X61532D03*
X65942Y35944D03*
X66262D03*
X66572Y36850D03*
X66892D03*
X63703Y42283D03*
X63383D03*
X62635Y45748D03*
X62955D03*
X63698Y44488D03*
X64018D03*
X66301Y42283D03*
X65981D03*
X65593D03*
X65273D03*
X62438Y43543D03*
X62758D03*
X62438Y45118D03*
X62758D03*
X62128Y45748D03*
X61808D03*
X63703D03*
X63383D03*
X61183Y42598D03*
X60863D03*
X62994Y42283D03*
X62674D03*
X64333Y45118D03*
X64013D03*
X64446Y45748D03*
X64766D03*
X66296Y45787D03*
X66616D03*
X65588D03*
X65908D03*
X70465Y44125D03*
X70785D03*
X70465Y45375D03*
X70785D03*
X70465Y43500D03*
X70785D03*
X70465Y44750D03*
X70785D03*
X84090Y27250D03*
X84410D03*
X78910Y34000D03*
X78590D03*
X76590Y34250D03*
X76910D03*
G54D63*
X20285Y46615D02*
X20745D01*
Y46424*
X20285Y46201D02*
X20307Y46249D01*
X20307D02*
X20351Y46265D01*
X20395*
X20438Y46249*
X20438D02*
X20460Y46217D01*
X20460D02*
X20482Y46153D01*
X20482D02*
X20504Y46105D01*
X20504D02*
X20548Y46074D01*
X20591Y46058*
X20591D02*
X20657D01*
X20657D02*
X20701Y46074D01*
X20723Y46090*
X20745Y46137*
X20745D02*
Y46201D01*
X20723Y46249*
X20701Y46265*
X20657Y46280*
X20657D02*
X20591D01*
X20591D02*
X20548Y46265D01*
X20504Y46233*
X20482Y46185*
X20482D02*
X20460Y46121D01*
X20460D02*
X20438Y46090D01*
X20438D02*
X20395Y46074D01*
X20351*
X20307Y46090*
X20307D02*
X20285Y46137D01*
X20285D02*
Y46201D01*
G54D64*
X64055Y38110D02*
X64330Y38388D01*
X62480Y36892D02*
X62522D01*
X62795Y37165*
X62480Y36572D02*
X62517D01*
X62795Y36850*
X65236Y44547D02*
X64980Y44803D01*
X64980D02*
X64645D01*
G54D93*
X80670Y34250D03*
X81330D03*
G54D109*
X44910Y42000D03*
X45290D03*
X44910Y36000D03*
X45290D03*
X44910Y28250D03*
X45290D03*
X44910Y22250D03*
X45290D03*
X58940Y35250D03*
X58560D03*
X60000Y21060D03*
Y21440D03*
X59250Y21060D03*
Y21440D03*
X58500Y21060D03*
Y21440D03*
X46500Y34940D03*
Y34560D03*
Y36940D03*
Y36560D03*
Y32190D03*
Y31810D03*
Y30190D03*
Y29810D03*
Y38940D03*
Y38560D03*
Y40940D03*
Y40560D03*
Y28190D03*
Y27810D03*
Y26190D03*
Y25810D03*
Y24190D03*
Y23810D03*
Y22190D03*
Y21810D03*
Y44940D03*
Y44560D03*
Y42940D03*
Y42560D03*
X58060Y37375D03*
X58440D03*
G54D148*
X43876Y44000D03*
X44250D03*
X44624D03*
Y43000D03*
X44250D03*
X43876D03*
Y38000D03*
X44250D03*
X44624D03*
Y37000D03*
X44250D03*
X43876D03*
Y30250D03*
X44250D03*
X44624D03*
Y29250D03*
X44250D03*
X43876D03*
Y24250D03*
X44250D03*
X44624D03*
Y23250D03*
X44250D03*
X43876D03*
G54D197*
X76000Y42112D03*
Y42388D03*
X50500Y43138D03*
Y42862D03*
X52750Y33362D03*
Y33638D03*
X43250Y44388D03*
Y44112D03*
Y38388D03*
Y38112D03*
Y30638D03*
Y30362D03*
Y22862D03*
Y23138D03*
Y43362D03*
Y43638D03*
Y37362D03*
Y37638D03*
Y29612D03*
Y29888D03*
Y23612D03*
Y23888D03*
Y42888D03*
Y42612D03*
Y36888D03*
Y36612D03*
Y29138D03*
Y28862D03*
Y24362D03*
Y24638D03*
X60750Y21112D03*
Y21388D03*
X51500Y41888D03*
Y41612D03*
Y42862D03*
Y43138D03*
Y41138D03*
Y40862D03*
X51000Y43138D03*
Y42862D03*
X51750Y31138D03*
Y30862D03*
Y35862D03*
Y36138D03*
X64133Y39901D03*
Y40177D03*
X62500Y31388D03*
Y31112D03*
X65236Y44271D03*
Y44547D03*
G54D199*
X57888Y34750D03*
X57612D03*
X58888Y35750D03*
X58612D03*
Y34750D03*
X58888D03*
X69112Y36250D03*
X69388D03*
X58388Y39250D03*
X58112D03*
X56987D03*
X57263D03*
X58112Y37875D03*
X58388D03*
X58112Y38875D03*
X58388D03*
X58112Y39625D03*
X58388D03*
X58112Y38250D03*
X58388D03*
X80388Y42000D03*
X80112D03*
X64350Y44212D03*
X64626D03*
X68112Y45375D03*
X68388D03*
X68112Y45750D03*
X68388D03*
X68112Y42750D03*
X68388D03*
X68112Y43500D03*
X68388D03*
X68112Y46125D03*
X68388D03*
X68112Y45000D03*
X68388D03*
X68112Y44250D03*
X68388D03*
X68112Y42375D03*
X68388D03*
X68112Y43875D03*
X68388D03*
X68112Y42000D03*
X68388D03*
X68112Y44625D03*
X68388D03*
X68112Y43125D03*
X68388D03*
X78888Y34750D03*
X78612D03*
X47638Y34500D03*
X47362D03*
X47638Y36500D03*
X47362D03*
X47638Y31750D03*
X47362D03*
X47638Y29750D03*
X47362D03*
X47638Y38500D03*
X47362D03*
X47638Y40500D03*
X47362D03*
X47638Y27750D03*
X47362D03*
X47638Y25750D03*
X47362D03*
X47638Y23750D03*
X47362D03*
X47638Y21750D03*
X47362D03*
X47638Y44500D03*
X47362D03*
X47638Y42500D03*
X47362D03*
X80388Y43500D03*
X80112D03*
X80388Y44000D03*
X80112D03*
X80388Y40750D03*
X80112D03*
X80388Y41500D03*
X80112D03*
X56987Y37375D03*
X57263D03*
G54D231*
X61732Y38267D02*
X61968D01*
X66650Y33858D02*
X66110D01*
X66378Y33543D02*
X66100D01*
X65472Y33825D02*
Y34175D01*
X61023Y36692D02*
X62007D01*
X62007D02*
X62165Y36850D01*
X61692Y37952D02*
X62007D01*
X65433Y43700D02*
X66171D01*
X66171D02*
X66328Y43858D01*
X66114D02*
X66272Y44015D01*
X66272D02*
X66692D01*
X65866Y45236D02*
X65905Y45275D01*
X65905D02*
X66732D01*
X66063Y44645D02*
Y44881D01*
X66063D02*
X66141Y44960D01*
X66141D02*
X66299D01*
X65787Y43385D02*
X66771D01*
X66220Y43543D02*
X66378Y43700D01*
X66378D02*
X66811D01*
X66456Y42755D02*
X65433D01*
X66063Y43070D02*
X66456D01*
X65787Y44015D02*
X66063D01*
X66063D02*
X66220Y44173D01*
X66338*
X66338D02*
X66496Y44330D01*
X66496D02*
X66653D01*
G54D232*
X61000Y41000D02*
X61175Y41175D01*
X62550*
X62875Y41500*
Y41775*
X62725Y41925*
X62525*
X62450Y42000*
Y42675*
X62600Y42825*
X63025*
X63200Y43000*
Y43350*
X63385Y43543*
X62475Y41325D02*
X61250D01*
X61025Y41525*
X62475Y41325D02*
X62725Y41575D01*
Y41700*
X62650Y41775*
X62450*
X62300Y41925*
Y42750*
X62525Y42975*
X62950*
X63050Y43075*
Y43561*
X63050D02*
X63070Y43582D01*
X64566Y40984D02*
X64575Y40992D01*
Y41000*
X64675Y41100*
Y41400*
X64600Y41475*
X64325*
X64150Y41650*
Y42450*
X64075Y42525*
Y43675*
X64175Y43775*
X64325*
X64450Y43900*
Y43975*
X64500Y44025*
X64625*
X64675Y44075*
Y44212*
X64675D02*
X64626D01*
X64475Y41300D02*
X64467Y41307D01*
X64467D02*
X64442D01*
X64442D02*
X64425Y41325D01*
X64250*
X64000Y41575*
Y42375*
X63925Y42450*
Y43750*
X64100Y43925*
X64250*
X64300Y43975*
Y44162*
X64350Y44212*
X64626D02*
X64650D01*
X64650D02*
Y44468D01*
X64650D02*
X64645Y44488D01*
X64350Y44212D02*
Y44468D01*
X64350D02*
X64330Y44488D01*
G54D306*
X88311Y25154D03*
Y27904D03*
X23465Y23250D02*
X24245D01*
X26425Y25429*
X26425D02*
X27000D01*
X26425Y28425D02*
X27000D01*
Y28429*
X26425Y28425D02*
X26025Y28825D01*
Y38725*
X26425Y39125*
X27000Y39129*
Y25429D02*
Y26429D01*
X27000D02*
Y27429D01*
X27000D02*
Y28429D01*
X28000Y25429D02*
X27000D01*
X28000Y26429D02*
X27000D01*
X28000Y27429D02*
X27000D01*
X28000Y28429D02*
X27000D01*
X86049Y30718D02*
Y30809D01*
X85958Y30900*
X85958D02*
Y36750D01*
X85958D02*
X86049Y36840D01*
X27000Y40129D02*
Y39129D01*
X27000D02*
X28000D01*
X27000Y40129D02*
Y41129D01*
X27000D02*
Y42129D01*
X28000Y40129D02*
X27000D01*
X28000Y41129D02*
X27000D01*
X28000Y42129D02*
X27000D01*
G54D329*
X71181Y25905D03*
Y41653D03*
G54D330*
X27000Y45129D03*
Y31429D03*
X32000Y45129D03*
Y31429D03*
X37000Y45129D03*
Y31429D03*
X84750Y32029D03*
G54D331*
X28000Y45129D03*
X27000Y44129D03*
X28000D03*
X27000Y43129D03*
X28000D03*
X27000Y42129D03*
X28000D03*
X27000Y41129D03*
X28000D03*
X27000Y40129D03*
X28000D03*
X27000Y39129D03*
X28000D03*
X27000Y38129D03*
X28000D03*
X27000Y37129D03*
X28000D03*
X27000Y36129D03*
X28000D03*
Y31429D03*
X27000Y30429D03*
X28000D03*
X27000Y29429D03*
X28000D03*
X27000Y28429D03*
X28000D03*
X27000Y27429D03*
X28000D03*
X27000Y26429D03*
X28000D03*
X27000Y25429D03*
X28000D03*
X27000Y24429D03*
X28000D03*
X27000Y23429D03*
X28000D03*
X27000Y22429D03*
X28000D03*
X33000Y45129D03*
X32000Y44129D03*
X33000D03*
X32000Y43129D03*
X33000D03*
X32000Y42129D03*
X33000D03*
X32000Y41129D03*
X33000D03*
X32000Y40129D03*
X33000D03*
X32000Y39129D03*
X33000D03*
X32000Y38129D03*
X33000D03*
X32000Y37129D03*
X33000D03*
X32000Y36129D03*
X33000D03*
Y31429D03*
X32000Y30429D03*
X33000D03*
X32000Y29429D03*
X33000D03*
X32000Y28429D03*
X33000D03*
X32000Y27429D03*
X33000D03*
X32000Y26429D03*
X33000D03*
X32000Y25429D03*
X33000D03*
X32000Y24429D03*
X33000D03*
X32000Y23429D03*
X33000D03*
X32000Y22429D03*
X33000D03*
X38000Y45129D03*
X37000Y44129D03*
X38000D03*
X37000Y43129D03*
X38000D03*
X37000Y42129D03*
X38000D03*
X37000Y41129D03*
X38000D03*
X37000Y40129D03*
X38000D03*
X37000Y39129D03*
X38000D03*
X37000Y38129D03*
X38000D03*
X37000Y37129D03*
X38000D03*
X37000Y36129D03*
X38000D03*
Y31429D03*
X37000Y30429D03*
X38000D03*
X37000Y29429D03*
X38000D03*
X37000Y28429D03*
X38000D03*
X37000Y27429D03*
X38000D03*
X37000Y26429D03*
X38000D03*
X37000Y25429D03*
X38000D03*
X37000Y24429D03*
X38000D03*
X37000Y23429D03*
X38000D03*
X37000Y22429D03*
X38000D03*
X83750Y32529D03*
X84750Y33029D03*
X83750Y33529D03*
X84750Y34029D03*
X83750Y34529D03*
X84750Y35029D03*
X83750Y35529D03*
X89179Y31289D03*
X88580Y32289D03*
X89179Y35269D03*
X88580Y36269D03*
G54D332*
X22952Y41653D03*
Y25905D03*
G54D333*
X86049Y30718D03*
Y36840D03*
G54D334*
X23465Y23250D03*
X21535D03*
G54D335*
X21600Y21650D03*
X23400D03*
G74*
X0Y0D02*
M02*
