*
*
G04 PADS 9.2 Build Number: 414666 generated Gerber (RS-274-X) file*
G04 PC Version=2.1*
*
%IN "CC1B_080118.pcb"*%
*
%MOIN*%
*
%FSLAX24Y24*%
*
*
*
*
G04 PC Standard Apertures*
*
*
G04 Thermal Relief Aperture macro.*
%AMTER*
1,1,$1,0,0*
1,0,$1-$2,0,0*
21,0,$3,$4,0,0,45*
21,0,$3,$4,0,0,135*
%
*
*
G04 Annular Aperture macro.*
%AMANN*
1,1,$1,0,0*
1,0,$2,0,0*
%
*
*
G04 Odd Aperture macro.*
%AMODD*
1,1,$1,0,0*
1,0,$1-0.005,0,0*
%
*
*
G04 PC Custom Aperture Macros*
*
*
*
*
*
*
G04 PC Aperture Table*
*
%ADD010C,0.001*%
%ADD013R,0.06X0.06*%
%ADD014C,0.06*%
%ADD021R,0.065X0.065*%
%ADD022C,0.065*%
%ADD028C,0.01*%
%ADD073R,0.07X0.07*%
%ADD074C,0.07*%
%ADD076R,0.027X0.025*%
%ADD079C,0.08*%
%ADD090R,0.035X0.035*%
%ADD094R,0.025X0.027*%
%ADD155R,0.033X0.033*%
%ADD193R,0.03X0.05*%
%ADD240R,0.021X0.023*%
%ADD242R,0.023X0.021*%
%ADD337R,0.045X0.05*%
%ADD356C,0.251*%
%ADD357O,0.369X0.251*%
%ADD358C,0.095*%
%ADD359C,0.175*%
%ADD360R,0.082X0.129*%
%ADD361R,0.095X0.085*%
*
*
*
*
G04 PC Circuitry*
G04 Layer Name CC1B_080118.pcb - circuitry*
%LPD*%
*
*
G04 PC Custom Flashes*
G04 Layer Name CC1B_080118.pcb - flashes*
%LPD*%
*
*
G04 PC Circuitry*
G04 Layer Name CC1B_080118.pcb - circuitry*
%LPD*%
*
G54D10*
G54D13*
G01X27000Y45129D03*
Y31429D03*
X32000Y45129D03*
Y31429D03*
X37000Y45129D03*
Y31429D03*
X84750Y32029D03*
G54D14*
X28000Y45129D03*
X27000Y44129D03*
X28000D03*
X27000Y43129D03*
X28000D03*
X27000Y42129D03*
X28000D03*
X27000Y41129D03*
X28000D03*
X27000Y40129D03*
X28000D03*
X27000Y39129D03*
X28000D03*
X27000Y38129D03*
X28000D03*
X27000Y37129D03*
X28000D03*
X27000Y36129D03*
X28000D03*
Y31429D03*
X27000Y30429D03*
X28000D03*
X27000Y29429D03*
X28000D03*
X27000Y28429D03*
X28000D03*
X27000Y27429D03*
X28000D03*
X27000Y26429D03*
X28000D03*
X27000Y25429D03*
X28000D03*
X27000Y24429D03*
X28000D03*
X27000Y23429D03*
X28000D03*
X27000Y22429D03*
X28000D03*
X33000Y45129D03*
X32000Y44129D03*
X33000D03*
X32000Y43129D03*
X33000D03*
X32000Y42129D03*
X33000D03*
X32000Y41129D03*
X33000D03*
X32000Y40129D03*
X33000D03*
X32000Y39129D03*
X33000D03*
X32000Y38129D03*
X33000D03*
X32000Y37129D03*
X33000D03*
X32000Y36129D03*
X33000D03*
Y31429D03*
X32000Y30429D03*
X33000D03*
X32000Y29429D03*
X33000D03*
X32000Y28429D03*
X33000D03*
X32000Y27429D03*
X33000D03*
X32000Y26429D03*
X33000D03*
X32000Y25429D03*
X33000D03*
X32000Y24429D03*
X33000D03*
X32000Y23429D03*
X33000D03*
X32000Y22429D03*
X33000D03*
X38000Y45129D03*
X37000Y44129D03*
X38000D03*
X37000Y43129D03*
X38000D03*
X37000Y42129D03*
X38000D03*
X37000Y41129D03*
X38000D03*
X37000Y40129D03*
X38000D03*
X37000Y39129D03*
X38000D03*
X37000Y38129D03*
X38000D03*
X37000Y37129D03*
X38000D03*
X37000Y36129D03*
X38000D03*
Y31429D03*
X37000Y30429D03*
X38000D03*
X37000Y29429D03*
X38000D03*
X37000Y28429D03*
X38000D03*
X37000Y27429D03*
X38000D03*
X37000Y26429D03*
X38000D03*
X37000Y25429D03*
X38000D03*
X37000Y24429D03*
X38000D03*
X37000Y23429D03*
X38000D03*
X37000Y22429D03*
X38000D03*
X83750Y32529D03*
X84750Y33029D03*
X83750Y33529D03*
X84750Y34029D03*
X83750Y34529D03*
X84750Y35029D03*
X83750Y35529D03*
X89179Y31289D03*
X88580Y32289D03*
X89179Y35269D03*
X88580Y36269D03*
G54D21*
X41000Y45000D03*
Y39000D03*
Y31250D03*
Y25250D03*
X62250Y21029D03*
X79750Y22779D03*
X58750Y24500D03*
X73750Y37750D03*
X58500Y45000D03*
X86250Y22779D03*
X60250Y24470D03*
X21500Y37529D03*
Y28279D03*
X23000Y37529D03*
Y28279D03*
X24500D03*
Y37529D03*
X68250Y21029D03*
X89291Y25644D03*
G54D22*
X41000Y44000D03*
Y43000D03*
Y42000D03*
Y38000D03*
Y37000D03*
Y36000D03*
Y30250D03*
Y29250D03*
Y28250D03*
Y24250D03*
Y23250D03*
Y22250D03*
X62250Y22029D03*
X63250Y21029D03*
Y22029D03*
X64250Y21029D03*
Y22029D03*
X65250Y21029D03*
Y22029D03*
X66250Y21029D03*
Y22029D03*
X79750Y23779D03*
X80750Y22779D03*
Y23779D03*
X81750Y22779D03*
Y23779D03*
X82750Y22779D03*
Y23779D03*
X58750Y25500D03*
X74750Y37750D03*
X58500Y46000D03*
X86250Y23779D03*
X60250Y25470D03*
X21500Y38529D03*
Y39529D03*
Y29279D03*
Y30279D03*
X23000Y38529D03*
Y39529D03*
Y29279D03*
Y30279D03*
X24500Y29279D03*
Y30279D03*
Y38529D03*
Y39529D03*
X68250Y22029D03*
X69250Y21029D03*
Y22029D03*
X70250Y21029D03*
Y22029D03*
X71250Y21029D03*
Y22029D03*
X72250Y21029D03*
Y22029D03*
X73250Y21029D03*
Y22029D03*
X74250Y21029D03*
Y22029D03*
X75250Y21029D03*
Y22029D03*
X76250Y21029D03*
Y22029D03*
X77250Y21029D03*
Y22029D03*
X89291Y27414D03*
G54D28*
X20472Y50843D02*
X20404Y50937D01*
X20404D02*
X20301Y50984D01*
X20301D02*
X20165D01*
X20063Y50937*
X20063D02*
X19995Y50843D01*
X19995D02*
Y50750D01*
X20029Y50656*
X20063Y50609*
X20131Y50562*
X20131D02*
X20335Y50468D01*
X20335D02*
X20404Y50421D01*
X20404D02*
X20438Y50375D01*
X20472Y50281*
Y50140*
X20472D02*
X20404Y50046D01*
X20404D02*
X20301Y50000D01*
X20301D02*
X20165D01*
X20063Y50046*
X20063D02*
X19995Y50140D01*
X20983Y50984D02*
X20915Y50937D01*
X20915D02*
X20847Y50843D01*
X20847D02*
X20813Y50750D01*
X20779Y50609*
Y50375*
X20813Y50234*
X20847Y50140*
X20847D02*
X20915Y50046D01*
X20915D02*
X20983Y50000D01*
X20983D02*
X21120D01*
X21188Y50046*
X21188D02*
X21256Y50140D01*
X21256D02*
X21290Y50234D01*
X21324Y50375*
X21324D02*
Y50609D01*
X21324D02*
X21290Y50750D01*
X21256Y50843*
X21256D02*
X21188Y50937D01*
X21188D02*
X21120Y50984D01*
X20983*
X21631D02*
Y50000D01*
X22040*
X22347Y50984D02*
Y50000D01*
Y50984D02*
X22585D01*
X22585D02*
X22688Y50937D01*
X22688D02*
X22756Y50843D01*
X22756D02*
X22790Y50750D01*
X22824Y50609*
X22824D02*
Y50375D01*
X22824D02*
X22790Y50234D01*
X22756Y50140*
X22756D02*
X22688Y50046D01*
X22688D02*
X22585Y50000D01*
X22585D02*
X22347D01*
X23131Y50984D02*
Y50000D01*
Y50984D02*
X23574D01*
X23131Y50515D02*
X23404D01*
X23131Y50000D02*
X23574D01*
X23881Y50984D02*
Y50000D01*
Y50984D02*
X24188D01*
X24290Y50937*
X24290D02*
X24324Y50890D01*
X24324D02*
X24358Y50796D01*
X24358D02*
Y50703D01*
X24358D02*
X24324Y50609D01*
X24324D02*
X24290Y50562D01*
X24290D02*
X24188Y50515D01*
X24188D02*
X23881D01*
X24120D02*
X24358Y50000D01*
X25449Y50984D02*
Y50000D01*
Y50984D02*
X25722Y50000D01*
X25995Y50984D02*
X25722Y50000D01*
X25995Y50984D02*
Y50000D01*
X26574Y50984D02*
X26301Y50000D01*
X26574Y50984D02*
X26847Y50000D01*
X26404Y50328D02*
X26745D01*
X27631Y50843D02*
X27563Y50937D01*
X27563D02*
X27460Y50984D01*
X27460D02*
X27324D01*
X27324D02*
X27222Y50937D01*
X27222D02*
X27154Y50843D01*
X27154D02*
Y50750D01*
X27188Y50656*
X27222Y50609*
X27290Y50562*
X27290D02*
X27495Y50468D01*
X27495D02*
X27563Y50421D01*
X27563D02*
X27597Y50375D01*
X27631Y50281*
Y50140*
X27631D02*
X27563Y50046D01*
X27563D02*
X27460Y50000D01*
X27460D02*
X27324D01*
X27324D02*
X27222Y50046D01*
X27222D02*
X27154Y50140D01*
X27938Y50984D02*
Y50000D01*
X28415Y50984D02*
X27938Y50328D01*
X28108Y50562D02*
X28415Y50000D01*
X29983Y50843D02*
X29915Y50937D01*
X29915D02*
X29813Y50984D01*
X29676*
X29676D02*
X29574Y50937D01*
X29574D02*
X29506Y50843D01*
X29506D02*
Y50750D01*
X29540Y50656*
X29574Y50609*
X29574D02*
X29642Y50562D01*
X29642D02*
X29847Y50468D01*
X29847D02*
X29915Y50421D01*
X29915D02*
X29949Y50375D01*
X29949D02*
X29983Y50281D01*
X29983D02*
Y50140D01*
X29983D02*
X29915Y50046D01*
X29915D02*
X29813Y50000D01*
X29676*
X29676D02*
X29574Y50046D01*
X29574D02*
X29506Y50140D01*
X30290Y50984D02*
Y50000D01*
Y50984D02*
X30733D01*
X30290Y50515D02*
X30563D01*
X30290Y50000D02*
X30733D01*
X31551Y50750D02*
X31517Y50843D01*
X31517D02*
X31449Y50937D01*
X31449D02*
X31381Y50984D01*
X31245*
X31176Y50937*
X31176D02*
X31108Y50843D01*
X31108D02*
X31074Y50750D01*
X31074D02*
X31040Y50609D01*
Y50375*
X31074Y50234*
X31074D02*
X31108Y50140D01*
X31108D02*
X31176Y50046D01*
X31176D02*
X31245Y50000D01*
X31381*
X31449Y50046*
X31449D02*
X31517Y50140D01*
X31517D02*
X31551Y50234D01*
X32063Y50984D02*
X31995Y50937D01*
X31995D02*
X31926Y50843D01*
X31926D02*
X31892Y50750D01*
X31892D02*
X31858Y50609D01*
X31858D02*
Y50375D01*
X31858D02*
X31892Y50234D01*
X31892D02*
X31926Y50140D01*
X31926D02*
X31995Y50046D01*
X31995D02*
X32063Y50000D01*
X32199*
X32199D02*
X32267Y50046D01*
X32267D02*
X32335Y50140D01*
X32335D02*
X32370Y50234D01*
X32404Y50375*
Y50609*
X32370Y50750*
X32335Y50843*
X32335D02*
X32267Y50937D01*
X32267D02*
X32199Y50984D01*
X32199D02*
X32063D01*
X32710D02*
Y50000D01*
Y50984D02*
X33188Y50000D01*
Y50984D02*
Y50000D01*
X33495Y50984D02*
Y50000D01*
Y50984D02*
X33733D01*
X33733D02*
X33835Y50937D01*
X33835D02*
X33904Y50843D01*
X33904D02*
X33938Y50750D01*
X33972Y50609*
Y50375*
X33938Y50234*
X33904Y50140*
X33904D02*
X33835Y50046D01*
X33835D02*
X33733Y50000D01*
X33733D02*
X33495D01*
X34551Y50984D02*
X34279Y50000D01*
X34551Y50984D02*
X34824Y50000D01*
X34381Y50328D02*
X34722D01*
X35131Y50984D02*
Y50000D01*
Y50984D02*
X35438D01*
X35540Y50937*
X35540D02*
X35574Y50890D01*
X35574D02*
X35608Y50796D01*
X35608D02*
Y50703D01*
X35608D02*
X35574Y50609D01*
X35574D02*
X35540Y50562D01*
X35540D02*
X35438Y50515D01*
X35438D02*
X35131D01*
X35370D02*
X35608Y50000D01*
X35915Y50984D02*
X36188Y50515D01*
X36188D02*
Y50000D01*
X36460Y50984D02*
X36188Y50515D01*
X38029Y50843D02*
X37960Y50937D01*
X37960D02*
X37858Y50984D01*
X37858D02*
X37722D01*
X37620Y50937*
X37620D02*
X37551Y50843D01*
X37551D02*
Y50750D01*
X37551D02*
X37585Y50656D01*
X37585D02*
X37620Y50609D01*
X37688Y50562*
X37688D02*
X37892Y50468D01*
X37892D02*
X37960Y50421D01*
X37960D02*
X37995Y50375D01*
X38029Y50281*
Y50140*
X38029D02*
X37960Y50046D01*
X37960D02*
X37858Y50000D01*
X37858D02*
X37722D01*
X37620Y50046*
X37620D02*
X37551Y50140D01*
X38335Y50984D02*
Y50000D01*
X38642Y50984D02*
Y50000D01*
Y50984D02*
X38881D01*
X38983Y50937*
X38983D02*
X39051Y50843D01*
X39051D02*
X39085Y50750D01*
X39085D02*
X39120Y50609D01*
Y50375*
X39085Y50234*
X39085D02*
X39051Y50140D01*
X39051D02*
X38983Y50046D01*
X38983D02*
X38881Y50000D01*
X38642*
X39426Y50984D02*
Y50000D01*
Y50984D02*
X39870D01*
X39426Y50515D02*
X39699D01*
X39426Y50000D02*
X39870D01*
X20511Y53000D02*
X20477Y53093D01*
X20477D02*
X20409Y53187D01*
X20409D02*
X20340Y53234D01*
X20340D02*
X20204D01*
X20204D02*
X20136Y53187D01*
X20136D02*
X20068Y53093D01*
X20068D02*
X20034Y53000D01*
X20000Y52859*
Y52625*
X20034Y52484*
X20068Y52390*
X20068D02*
X20136Y52296D01*
X20136D02*
X20204Y52250D01*
X20204D02*
X20340D01*
X20340D02*
X20409Y52296D01*
X20409D02*
X20477Y52390D01*
X20477D02*
X20511Y52484D01*
X21329Y53000D02*
X21295Y53093D01*
X21295D02*
X21227Y53187D01*
X21227D02*
X21159Y53234D01*
X21022*
X21022D02*
X20954Y53187D01*
X20954D02*
X20886Y53093D01*
X20886D02*
X20852Y53000D01*
X20818Y52859*
Y52625*
X20852Y52484*
X20886Y52390*
X20886D02*
X20954Y52296D01*
X20954D02*
X21022Y52250D01*
X21022D02*
X21159D01*
X21227Y52296*
X21227D02*
X21295Y52390D01*
X21295D02*
X21329Y52484D01*
X21636Y53046D02*
X21704Y53093D01*
X21704D02*
X21806Y53234D01*
X21806D02*
Y52250D01*
X22113Y53234D02*
Y52250D01*
Y53234D02*
X22420D01*
X22522Y53187*
X22522D02*
X22556Y53140D01*
X22556D02*
X22590Y53046D01*
X22590D02*
Y52953D01*
X22590D02*
X22556Y52859D01*
X22556D02*
X22522Y52812D01*
X22522D02*
X22420Y52765D01*
X22113D02*
X22420D01*
X22420D02*
X22522Y52718D01*
X22522D02*
X22556Y52671D01*
X22556D02*
X22590Y52578D01*
X22590D02*
Y52437D01*
X22590D02*
X22556Y52343D01*
X22556D02*
X22522Y52296D01*
X22522D02*
X22420Y52250D01*
X22113*
X24193Y53000D02*
X24159Y53093D01*
X24159D02*
X24090Y53187D01*
X24090D02*
X24022Y53234D01*
X24022D02*
X23886D01*
X23818Y53187*
X23818D02*
X23750Y53093D01*
X23750D02*
X23715Y53000D01*
X23715D02*
X23681Y52859D01*
X23681D02*
Y52625D01*
X23681D02*
X23715Y52484D01*
X23715D02*
X23750Y52390D01*
X23750D02*
X23818Y52296D01*
X23818D02*
X23886Y52250D01*
X24022*
X24022D02*
X24090Y52296D01*
X24090D02*
X24159Y52390D01*
X24159D02*
X24193Y52484D01*
X24704Y53234D02*
X24636Y53187D01*
X24636D02*
X24568Y53093D01*
X24568D02*
X24534Y53000D01*
X24500Y52859*
Y52625*
X24534Y52484*
X24568Y52390*
X24568D02*
X24636Y52296D01*
X24636D02*
X24704Y52250D01*
X24704D02*
X24840D01*
X24840D02*
X24909Y52296D01*
X24909D02*
X24977Y52390D01*
X24977D02*
X25011Y52484D01*
X25045Y52625*
Y52859*
X25011Y53000*
X24977Y53093*
X24977D02*
X24909Y53187D01*
X24909D02*
X24840Y53234D01*
X24840D02*
X24704D01*
X25352D02*
Y52250D01*
Y53234D02*
X25829Y52250D01*
Y53234D02*
Y52250D01*
X26375Y53234D02*
Y52250D01*
X26136Y53234D02*
X26613D01*
X26920D02*
Y52250D01*
Y53234D02*
X27227D01*
X27329Y53187*
X27329D02*
X27363Y53140D01*
X27363D02*
X27397Y53046D01*
X27397D02*
Y52953D01*
X27397D02*
X27363Y52859D01*
X27363D02*
X27329Y52812D01*
X27329D02*
X27227Y52765D01*
X27227D02*
X26920D01*
X27159D02*
X27397Y52250D01*
X27909Y53234D02*
X27840Y53187D01*
X27840D02*
X27772Y53093D01*
X27772D02*
X27738Y53000D01*
X27738D02*
X27704Y52859D01*
X27704D02*
Y52625D01*
X27704D02*
X27738Y52484D01*
X27738D02*
X27772Y52390D01*
X27772D02*
X27840Y52296D01*
X27840D02*
X27909Y52250D01*
X28045*
X28113Y52296*
X28113D02*
X28181Y52390D01*
X28181D02*
X28215Y52484D01*
X28215D02*
X28250Y52625D01*
Y52859*
X28215Y53000*
X28215D02*
X28181Y53093D01*
X28181D02*
X28113Y53187D01*
X28113D02*
X28045Y53234D01*
X27909*
X28556D02*
Y52250D01*
X28556D02*
X28965D01*
X30056Y53234D02*
Y52250D01*
Y53234D02*
X30363D01*
X30363D02*
X30465Y53187D01*
X30465D02*
X30500Y53140D01*
X30500D02*
X30534Y53046D01*
X30534D02*
Y52953D01*
X30500Y52859*
X30465Y52812*
X30465D02*
X30363Y52765D01*
X30056D02*
X30363D01*
X30363D02*
X30465Y52718D01*
X30465D02*
X30500Y52671D01*
X30500D02*
X30534Y52578D01*
Y52437*
X30534D02*
X30500Y52343D01*
X30500D02*
X30465Y52296D01*
X30465D02*
X30363Y52250D01*
X30363D02*
X30056D01*
X31045Y53234D02*
X30977Y53187D01*
X30977D02*
X30909Y53093D01*
X30909D02*
X30875Y53000D01*
X30840Y52859*
X30840D02*
Y52625D01*
X30840D02*
X30875Y52484D01*
X30909Y52390*
X30909D02*
X30977Y52296D01*
X30977D02*
X31045Y52250D01*
X31181*
X31181D02*
X31250Y52296D01*
X31250D02*
X31318Y52390D01*
X31318D02*
X31352Y52484D01*
X31386Y52625*
Y52859*
X31352Y53000*
X31318Y53093*
X31318D02*
X31250Y53187D01*
X31250D02*
X31181Y53234D01*
X31181D02*
X31045D01*
X31965D02*
X31693Y52250D01*
X31965Y53234D02*
X32238Y52250D01*
X31795Y52578D02*
X32136D01*
X32545Y53234D02*
Y52250D01*
Y53234D02*
X32852D01*
X32954Y53187*
X32954D02*
X32988Y53140D01*
X32988D02*
X33022Y53046D01*
X33022D02*
Y52953D01*
X33022D02*
X32988Y52859D01*
X32988D02*
X32954Y52812D01*
X32954D02*
X32852Y52765D01*
X32852D02*
X32545D01*
X32784D02*
X33022Y52250D01*
X33329Y53234D02*
Y52250D01*
Y53234D02*
X33568D01*
X33670Y53187*
X33670D02*
X33738Y53093D01*
X33738D02*
X33772Y53000D01*
X33772D02*
X33806Y52859D01*
X33806D02*
Y52625D01*
X33806D02*
X33772Y52484D01*
X33772D02*
X33738Y52390D01*
X33738D02*
X33670Y52296D01*
X33670D02*
X33568Y52250D01*
X33329*
X34897Y53234D02*
Y52250D01*
Y53234D02*
X35204D01*
X35204D02*
X35306Y53187D01*
X35306D02*
X35340Y53140D01*
X35340D02*
X35375Y53046D01*
X35375D02*
Y52953D01*
X35340Y52859*
X35340D02*
X35306Y52812D01*
X35306D02*
X35204Y52765D01*
X35204D02*
X34897D01*
X35136D02*
X35375Y52250D01*
X35681Y53234D02*
Y52250D01*
Y53234D02*
X36125D01*
X35681Y52765D02*
X35954D01*
X35681Y52250D02*
X36125D01*
X36431Y53234D02*
X36704Y52250D01*
X36977Y53234D02*
X36704Y52250D01*
X38340Y53234D02*
X38068Y52250D01*
X38340Y53234D02*
X38613Y52250D01*
X38170Y52578D02*
X38511D01*
X20204Y55234D02*
X20136Y55187D01*
X20136D02*
X20068Y55093D01*
X20068D02*
X20034Y55000D01*
X20000Y54859*
Y54625*
X20034Y54484*
X20068Y54390*
X20068D02*
X20136Y54296D01*
X20136D02*
X20204Y54250D01*
X20204D02*
X20340D01*
X20340D02*
X20409Y54296D01*
X20409D02*
X20477Y54390D01*
X20477D02*
X20511Y54484D01*
X20545Y54625*
Y54859*
X20511Y55000*
X20477Y55093*
X20477D02*
X20409Y55187D01*
X20409D02*
X20340Y55234D01*
X20340D02*
X20204D01*
X20852D02*
Y54250D01*
Y55234D02*
X21159D01*
X21261Y55187*
X21261D02*
X21295Y55140D01*
X21295D02*
X21329Y55046D01*
X21329D02*
Y54953D01*
X21329D02*
X21295Y54859D01*
X21261Y54812*
X21261D02*
X21159Y54765D01*
X21159D02*
X20852D01*
X21090D02*
X21329Y54250D01*
X22147Y55000D02*
X22113Y55093D01*
X22113D02*
X22045Y55187D01*
X22045D02*
X21977Y55234D01*
X21840*
X21840D02*
X21772Y55187D01*
X21772D02*
X21704Y55093D01*
X21704D02*
X21670Y55000D01*
X21636Y54859*
Y54625*
X21670Y54484*
X21704Y54390*
X21704D02*
X21772Y54296D01*
X21772D02*
X21840Y54250D01*
X21840D02*
X21977D01*
X22045Y54296*
X22045D02*
X22113Y54390D01*
X22113D02*
X22147Y54484D01*
X22454Y55234D02*
Y54250D01*
X22931Y55234D02*
Y54250D01*
X22454Y54765D02*
X22931D01*
X23238Y55234D02*
Y54250D01*
X23545Y55234D02*
Y54250D01*
Y55234D02*
X23784D01*
X23886Y55187*
X23886D02*
X23954Y55093D01*
X23954D02*
X23988Y55000D01*
X23988D02*
X24022Y54859D01*
X24022D02*
Y54625D01*
X24022D02*
X23988Y54484D01*
X23988D02*
X23954Y54390D01*
X23954D02*
X23886Y54296D01*
X23886D02*
X23784Y54250D01*
X23545*
X25352Y55234D02*
Y54250D01*
X25113Y55234D02*
X25590D01*
X25897D02*
Y54250D01*
Y55234D02*
X26340D01*
X25897Y54765D02*
X26170D01*
X25897Y54250D02*
X26340D01*
X27159Y55000D02*
X27125Y55093D01*
X27125D02*
X27056Y55187D01*
X27056D02*
X26988Y55234D01*
X26988D02*
X26852D01*
X26784Y55187*
X26784D02*
X26715Y55093D01*
X26715D02*
X26681Y55000D01*
X26681D02*
X26647Y54859D01*
X26647D02*
Y54625D01*
X26647D02*
X26681Y54484D01*
X26681D02*
X26715Y54390D01*
X26715D02*
X26784Y54296D01*
X26784D02*
X26852Y54250D01*
X26988*
X26988D02*
X27056Y54296D01*
X27056D02*
X27125Y54390D01*
X27125D02*
X27159Y54484D01*
X27465Y55234D02*
Y54250D01*
X27943Y55234D02*
Y54250D01*
X27465Y54765D02*
X27943D01*
X28250Y55234D02*
Y54250D01*
Y55234D02*
X28727Y54250D01*
Y55234D02*
Y54250D01*
X29238Y55234D02*
X29170Y55187D01*
X29170D02*
X29102Y55093D01*
X29102D02*
X29068Y55000D01*
X29034Y54859*
Y54625*
X29068Y54484*
X29102Y54390*
X29102D02*
X29170Y54296D01*
X29170D02*
X29238Y54250D01*
X29238D02*
X29375D01*
X29443Y54296*
X29443D02*
X29511Y54390D01*
X29511D02*
X29545Y54484D01*
X29579Y54625*
X29579D02*
Y54859D01*
X29579D02*
X29545Y55000D01*
X29511Y55093*
X29511D02*
X29443Y55187D01*
X29443D02*
X29375Y55234D01*
X29238*
X29886D02*
Y54250D01*
X30295*
X30806Y55234D02*
X30738Y55187D01*
X30738D02*
X30670Y55093D01*
X30670D02*
X30636Y55000D01*
X30602Y54859*
Y54625*
X30636Y54484*
X30670Y54390*
X30670D02*
X30738Y54296D01*
X30738D02*
X30806Y54250D01*
X30806D02*
X30943D01*
X31011Y54296*
X31011D02*
X31079Y54390D01*
X31079D02*
X31113Y54484D01*
X31113D02*
X31147Y54625D01*
X31147D02*
Y54859D01*
X31147D02*
X31113Y55000D01*
X31113D02*
X31079Y55093D01*
X31079D02*
X31011Y55187D01*
X31011D02*
X30943Y55234D01*
X30806*
X31965Y55000D02*
X31931Y55093D01*
X31931D02*
X31863Y55187D01*
X31863D02*
X31795Y55234D01*
X31659*
X31590Y55187*
X31590D02*
X31522Y55093D01*
X31522D02*
X31488Y55000D01*
X31488D02*
X31454Y54859D01*
X31454D02*
Y54625D01*
X31454D02*
X31488Y54484D01*
X31488D02*
X31522Y54390D01*
X31522D02*
X31590Y54296D01*
X31590D02*
X31659Y54250D01*
X31795*
X31863Y54296*
X31863D02*
X31931Y54390D01*
X31931D02*
X31965Y54484D01*
X31965D02*
Y54625D01*
X31795D02*
X31965D01*
X32272Y55234D02*
Y54250D01*
X32579Y55234D02*
Y54250D01*
Y55234D02*
X33022D01*
X32579Y54765D02*
X32852D01*
X32579Y54250D02*
X33022D01*
X33806Y55093D02*
X33738Y55187D01*
X33738D02*
X33636Y55234D01*
X33500*
X33397Y55187*
X33397D02*
X33329Y55093D01*
X33329D02*
Y55000D01*
X33329D02*
X33363Y54906D01*
X33363D02*
X33397Y54859D01*
X33397D02*
X33465Y54812D01*
X33465D02*
X33670Y54718D01*
X33670D02*
X33738Y54671D01*
X33738D02*
X33772Y54625D01*
X33772D02*
X33806Y54531D01*
X33806D02*
Y54390D01*
X33806D02*
X33738Y54296D01*
X33738D02*
X33636Y54250D01*
X33500*
X33397Y54296*
X33397D02*
X33329Y54390D01*
X34897Y55234D02*
Y54250D01*
Y55234D02*
X35340D01*
X34897Y54765D02*
X35170D01*
X34897Y54250D02*
X35340D01*
X35647Y55234D02*
Y54250D01*
Y55234D02*
X36125Y54250D01*
Y55234D02*
Y54250D01*
X36943Y55000D02*
X36909Y55093D01*
X36909D02*
X36840Y55187D01*
X36840D02*
X36772Y55234D01*
X36772D02*
X36636D01*
X36568Y55187*
X36568D02*
X36500Y55093D01*
X36500D02*
X36465Y55000D01*
X36465D02*
X36431Y54859D01*
X36431D02*
Y54625D01*
X36431D02*
X36465Y54484D01*
X36465D02*
X36500Y54390D01*
X36500D02*
X36568Y54296D01*
X36568D02*
X36636Y54250D01*
X36772*
X36772D02*
X36840Y54296D01*
X36840D02*
X36909Y54390D01*
X36909D02*
X36943Y54484D01*
Y54625*
X36772D02*
X36943D01*
X37250Y55234D02*
Y54250D01*
X37556Y55234D02*
Y54250D01*
Y55234D02*
X38034Y54250D01*
Y55234D02*
Y54250D01*
X38340Y55234D02*
Y54250D01*
Y55234D02*
X38784D01*
X38340Y54765D02*
X38613D01*
X38340Y54250D02*
X38784D01*
X39090Y55234D02*
Y54250D01*
Y55234D02*
X39534D01*
X39090Y54765D02*
X39363D01*
X39090Y54250D02*
X39534D01*
X39840Y55234D02*
Y54250D01*
Y55234D02*
X40147D01*
X40147D02*
X40250Y55187D01*
X40250D02*
X40284Y55140D01*
X40284D02*
X40318Y55046D01*
X40318D02*
Y54953D01*
X40284Y54859*
X40250Y54812*
X40250D02*
X40147Y54765D01*
X40147D02*
X39840D01*
X40079D02*
X40318Y54250D01*
X40625Y55234D02*
Y54250D01*
X40931Y55234D02*
Y54250D01*
Y55234D02*
X41409Y54250D01*
Y55234D02*
Y54250D01*
X42227Y55000D02*
X42193Y55093D01*
X42193D02*
X42125Y55187D01*
X42125D02*
X42056Y55234D01*
X42056D02*
X41920D01*
X41852Y55187*
X41852D02*
X41784Y55093D01*
X41784D02*
X41750Y55000D01*
X41715Y54859*
X41715D02*
Y54625D01*
X41715D02*
X41750Y54484D01*
X41784Y54390*
X41784D02*
X41852Y54296D01*
X41852D02*
X41920Y54250D01*
X42056*
X42056D02*
X42125Y54296D01*
X42125D02*
X42193Y54390D01*
X42193D02*
X42227Y54484D01*
Y54625*
X42056D02*
X42227D01*
X44000Y54812D02*
Y54859D01*
X43965Y54906*
X43965D02*
X43931D01*
X43931D02*
X43897Y54859D01*
X43897D02*
X43863Y54765D01*
X43863D02*
X43795Y54531D01*
X43727Y54390*
X43727D02*
X43659Y54296D01*
X43659D02*
X43590Y54250D01*
X43590D02*
X43454D01*
X43454D02*
X43386Y54296D01*
X43386D02*
X43352Y54343D01*
X43352D02*
X43318Y54437D01*
X43318D02*
Y54531D01*
X43352Y54625*
X43386Y54671*
X43386D02*
X43625Y54859D01*
X43659Y54906*
X43693Y55000*
Y55093*
X43693D02*
X43659Y55187D01*
X43659D02*
X43590Y55234D01*
X43590D02*
X43522Y55187D01*
X43522D02*
X43488Y55093D01*
X43488D02*
Y55000D01*
X43488D02*
X43522Y54859D01*
X43522D02*
X43590Y54718D01*
X43590D02*
X43761Y54390D01*
X43761D02*
X43829Y54296D01*
X43829D02*
X43897Y54250D01*
X43897D02*
X43965D01*
X43965D02*
X44000Y54296D01*
X44000D02*
Y54343D01*
X45602Y55000D02*
X45568Y55093D01*
X45568D02*
X45500Y55187D01*
X45500D02*
X45431Y55234D01*
X45431D02*
X45295D01*
X45227Y55187*
X45227D02*
X45159Y55093D01*
X45159D02*
X45125Y55000D01*
X45090Y54859*
X45090D02*
Y54625D01*
X45090D02*
X45125Y54484D01*
X45159Y54390*
X45159D02*
X45227Y54296D01*
X45227D02*
X45295Y54250D01*
X45431*
X45431D02*
X45500Y54296D01*
X45500D02*
X45568Y54390D01*
X45568D02*
X45602Y54484D01*
X46113Y55234D02*
X46045Y55187D01*
X46045D02*
X45977Y55093D01*
X45977D02*
X45943Y55000D01*
X45909Y54859*
Y54625*
X45943Y54484*
X45977Y54390*
X45977D02*
X46045Y54296D01*
X46045D02*
X46113Y54250D01*
X46113D02*
X46250D01*
X46318Y54296*
X46318D02*
X46386Y54390D01*
X46386D02*
X46420Y54484D01*
X46454Y54625*
X46454D02*
Y54859D01*
X46454D02*
X46420Y55000D01*
X46386Y55093*
X46386D02*
X46318Y55187D01*
X46318D02*
X46250Y55234D01*
X46113*
X46761D02*
Y54250D01*
Y55234D02*
X47238Y54250D01*
Y55234D02*
Y54250D01*
X48022Y55093D02*
X47954Y55187D01*
X47954D02*
X47852Y55234D01*
X47715*
X47715D02*
X47613Y55187D01*
X47613D02*
X47545Y55093D01*
X47545D02*
Y55000D01*
X47579Y54906*
X47579D02*
X47613Y54859D01*
X47613D02*
X47681Y54812D01*
X47681D02*
X47886Y54718D01*
X47886D02*
X47954Y54671D01*
X47954D02*
X47988Y54625D01*
X47988D02*
X48022Y54531D01*
X48022D02*
Y54390D01*
X48022D02*
X47954Y54296D01*
X47954D02*
X47852Y54250D01*
X47715*
X47715D02*
X47613Y54296D01*
X47613D02*
X47545Y54390D01*
X48329Y55234D02*
Y54531D01*
X48329D02*
X48363Y54390D01*
X48363D02*
X48431Y54296D01*
X48431D02*
X48534Y54250D01*
X48602*
X48704Y54296*
X48704D02*
X48772Y54390D01*
X48772D02*
X48806Y54531D01*
X48806D02*
Y55234D01*
X49113D02*
Y54250D01*
X49113D02*
X49522D01*
X50068Y55234D02*
Y54250D01*
X49829Y55234D02*
X50306D01*
X50613D02*
Y54250D01*
X50920Y55234D02*
Y54250D01*
Y55234D02*
X51397Y54250D01*
Y55234D02*
Y54250D01*
X52215Y55000D02*
X52181Y55093D01*
X52181D02*
X52113Y55187D01*
X52113D02*
X52045Y55234D01*
X51909*
X51840Y55187*
X51840D02*
X51772Y55093D01*
X51772D02*
X51738Y55000D01*
X51738D02*
X51704Y54859D01*
X51704D02*
Y54625D01*
X51704D02*
X51738Y54484D01*
X51738D02*
X51772Y54390D01*
X51772D02*
X51840Y54296D01*
X51840D02*
X51909Y54250D01*
X52045*
X52113Y54296*
X52113D02*
X52181Y54390D01*
X52181D02*
X52215Y54484D01*
X52215D02*
Y54625D01*
X52045D02*
X52215D01*
X52590Y54296D02*
X52556Y54250D01*
X52556D02*
X52522Y54296D01*
X52522D02*
X52556Y54343D01*
X52556D02*
X52590Y54296D01*
X52590D02*
Y54203D01*
X52590D02*
X52556Y54109D01*
X52556D02*
X52522Y54062D01*
X53681Y55234D02*
Y54250D01*
X53988Y55234D02*
Y54250D01*
Y55234D02*
X54465Y54250D01*
Y55234D02*
Y54250D01*
X55284Y55000D02*
X55250Y55093D01*
X55250D02*
X55181Y55187D01*
X55181D02*
X55113Y55234D01*
X55113D02*
X54977D01*
X54909Y55187*
X54909D02*
X54840Y55093D01*
X54840D02*
X54806Y55000D01*
X54806D02*
X54772Y54859D01*
X54772D02*
Y54625D01*
X54772D02*
X54806Y54484D01*
X54806D02*
X54840Y54390D01*
X54840D02*
X54909Y54296D01*
X54909D02*
X54977Y54250D01*
X55113*
X55113D02*
X55181Y54296D01*
X55181D02*
X55250Y54390D01*
X55250D02*
X55284Y54484D01*
X55625Y54343D02*
X55590Y54296D01*
X55590D02*
X55625Y54250D01*
X55659Y54296*
X55659D02*
X55625Y54343D01*
X17000Y51500D02*
G75*
G03X17000I-1000J0D01*
G01X16500D02*
G03X16500I-500J0D01*
G01X16000Y53500D02*
Y49500D01*
X14000Y51500D02*
X18000D01*
X96000D02*
G03X96000I-1000J0D01*
G01X95500D02*
G03X95500I-500J0D01*
G01X95000Y53500D02*
Y49500D01*
X93000Y51500D02*
X97000D01*
X96000Y16000D02*
G03X96000I-1000J0D01*
G01X95500D02*
G03X95500I-500J0D01*
G01X95000Y18000D02*
Y14000D01*
X93000Y16000D02*
X97000D01*
X25000Y20000D02*
X20000D01*
Y24750*
Y42750D02*
Y47560D01*
X24750*
X80410Y47559D02*
X84565D01*
Y45985*
X90865*
Y41300*
X80403Y20000D02*
X84568D01*
Y21573*
X90867*
Y26270*
X20000Y27596D02*
Y31614D01*
X22950*
G03X22949Y35940I7J2163*
G01X22950D02*
X20000D01*
Y39956*
G54D73*
X88750Y41529D03*
Y43779D03*
G54D74*
Y40529D03*
X87750Y41529D03*
Y40529D03*
X88750Y42779D03*
X87750Y43779D03*
Y42779D03*
G54D76*
X79700Y25735D03*
Y25415D03*
X64250Y25090D03*
Y25410D03*
X64500Y28910D03*
Y28590D03*
X24650Y20990D03*
Y21310D03*
Y22385D03*
Y22065D03*
X43250Y44840D03*
Y45160D03*
Y38840D03*
Y39160D03*
Y31090D03*
Y31410D03*
Y22410D03*
Y22090D03*
X76000Y45410D03*
Y45090D03*
X75500Y45410D03*
Y45090D03*
X75000Y45410D03*
Y45090D03*
X64370Y38388D03*
Y38068D03*
Y36892D03*
Y36572D03*
X65000Y36892D03*
Y36572D03*
X63740Y36892D03*
Y36572D03*
Y36183D03*
Y35863D03*
X64370Y35233D03*
Y35553D03*
X63110Y35233D03*
Y35553D03*
X63740Y35233D03*
Y35553D03*
X63110Y36183D03*
Y35863D03*
X64370D03*
Y36183D03*
X65000Y35233D03*
Y35553D03*
X63110Y36892D03*
Y36572D03*
X62480Y36223D03*
Y35903D03*
X65629Y39840D03*
Y40160D03*
X61653Y39840D03*
Y40160D03*
X62480Y36572D03*
Y36892D03*
X62795Y37797D03*
Y37477D03*
X65629Y35632D03*
Y35312D03*
X61750Y32910D03*
Y32590D03*
X64250Y32910D03*
Y32590D03*
X66500Y32910D03*
Y32590D03*
X65629Y36852D03*
Y36532D03*
X65000Y36183D03*
Y35863D03*
X65275Y45115D03*
Y45435D03*
X61181Y45115D03*
Y45435D03*
X64645Y43230D03*
Y42910D03*
X63700Y43501D03*
Y43821D03*
X64775Y41976D03*
Y41656D03*
X61456Y43225D03*
Y43545D03*
X61771Y42005D03*
Y42325D03*
X77500Y35410D03*
Y35090D03*
X78500Y35410D03*
Y35090D03*
G54D79*
X88311Y25154D03*
Y27904D03*
X89000Y44750D03*
Y23000D03*
X22250Y44750D03*
G54D90*
X55000Y22300D03*
Y22700D03*
G54D94*
X76090Y29500D03*
X76410D03*
X44160Y42000D03*
X43840D03*
X44160Y36000D03*
X43840D03*
X44160Y28250D03*
X43840D03*
X44160Y22250D03*
X43840D03*
X47660Y35000D03*
X47340D03*
X47660Y37000D03*
X47340D03*
X47660Y32250D03*
X47340D03*
X47660Y30250D03*
X47340D03*
X47660Y39000D03*
X47340D03*
X47660Y41000D03*
X47340D03*
X47660Y26250D03*
X47340D03*
X47660Y28250D03*
X47340D03*
X47660Y24250D03*
X47340D03*
X47660Y22250D03*
X47340D03*
X47660Y43000D03*
X47340D03*
X47660Y45000D03*
X47340D03*
X73590Y29175D03*
X73910D03*
X66160Y27000D03*
X65840D03*
X62340Y27250D03*
X62660D03*
X62340Y26750D03*
X62660D03*
X66160Y26500D03*
X65840D03*
X67335Y37950D03*
X67015D03*
X69090Y39000D03*
X69410D03*
X60715Y39250D03*
X61035D03*
X62792Y34015D03*
X63112D03*
X62167Y33622D03*
X61847D03*
X63112Y34645D03*
X62792D03*
X61852Y34015D03*
X61532D03*
X66257Y36496D03*
X66577D03*
X67359Y36338D03*
X67679D03*
X62482Y34645D03*
X62162D03*
X65942Y37165D03*
X66262D03*
X65942Y34606D03*
X66262D03*
X63742Y34645D03*
X63422D03*
X64052Y37480D03*
X64372D03*
X63703D03*
X63383D03*
X65351D03*
X65671D03*
X65041D03*
X64721D03*
X64052Y34645D03*
X64372D03*
X67320Y33700D03*
X67640D03*
X62167Y37519D03*
X61847D03*
X62167Y37126D03*
X61847D03*
X65627Y34960D03*
X65947D03*
X64682Y34645D03*
X65002D03*
X60671Y33582D03*
X60351D03*
X62167Y35275D03*
X61847D03*
X67359Y34921D03*
X67679D03*
X60671Y34881D03*
X60351D03*
X60660Y36000D03*
X60340D03*
X60660Y37250D03*
X60340D03*
X67359Y37244D03*
X67679D03*
X67359Y35708D03*
X67679D03*
X64682Y34015D03*
X65002D03*
X61852Y36220D03*
X61532D03*
X61852Y35748D03*
X61532D03*
X65942Y35944D03*
X66262D03*
X66572Y36850D03*
X66892D03*
X63703Y42283D03*
X63383D03*
X62635Y45748D03*
X62955D03*
X63698Y44488D03*
X64018D03*
X66301Y42283D03*
X65981D03*
X65593D03*
X65273D03*
X62438Y43543D03*
X62758D03*
X62438Y45118D03*
X62758D03*
X62128Y45748D03*
X61808D03*
X63703D03*
X63383D03*
X61183Y42598D03*
X60863D03*
X62994Y42283D03*
X62674D03*
X64333Y45118D03*
X64013D03*
X64446Y45748D03*
X64766D03*
X66296Y45787D03*
X66616D03*
X65588D03*
X65908D03*
X70465Y44125D03*
X70785D03*
X70465Y45375D03*
X70785D03*
X70465Y43500D03*
X70785D03*
X70465Y44750D03*
X70785D03*
X84090Y27250D03*
X84410D03*
X78910Y34000D03*
X78590D03*
X76590Y34250D03*
X76910D03*
G54D155*
X44910Y42000D03*
X45290D03*
X44910Y36000D03*
X45290D03*
X44910Y28250D03*
X45290D03*
X44910Y22250D03*
X45290D03*
X58940Y35250D03*
X58560D03*
X60000Y21060D03*
Y21440D03*
X59250Y21060D03*
Y21440D03*
X58500Y21060D03*
Y21440D03*
X46500Y34940D03*
Y34560D03*
Y36940D03*
Y36560D03*
Y32190D03*
Y31810D03*
Y30190D03*
Y29810D03*
Y38940D03*
Y38560D03*
Y40940D03*
Y40560D03*
Y28190D03*
Y27810D03*
Y26190D03*
Y25810D03*
Y24190D03*
Y23810D03*
Y22190D03*
Y21810D03*
Y44940D03*
Y44560D03*
Y42940D03*
Y42560D03*
X58060Y37375D03*
X58440D03*
G54D193*
X43876Y44000D03*
X44250D03*
X44624D03*
Y43000D03*
X44250D03*
X43876D03*
Y38000D03*
X44250D03*
X44624D03*
Y37000D03*
X44250D03*
X43876D03*
Y30250D03*
X44250D03*
X44624D03*
Y29250D03*
X44250D03*
X43876D03*
Y24250D03*
X44250D03*
X44624D03*
Y23250D03*
X44250D03*
X43876D03*
G54D240*
X76000Y42112D03*
Y42388D03*
X50500Y43138D03*
Y42862D03*
X52750Y33362D03*
Y33638D03*
X43250Y44388D03*
Y44112D03*
Y38388D03*
Y38112D03*
Y30638D03*
Y30362D03*
Y22862D03*
Y23138D03*
Y43362D03*
Y43638D03*
Y37362D03*
Y37638D03*
Y29612D03*
Y29888D03*
Y23612D03*
Y23888D03*
Y42888D03*
Y42612D03*
Y36888D03*
Y36612D03*
Y29138D03*
Y28862D03*
Y24362D03*
Y24638D03*
X60750Y21112D03*
Y21388D03*
X51500Y41888D03*
Y41612D03*
Y42862D03*
Y43138D03*
Y41138D03*
Y40862D03*
X51000Y43138D03*
Y42862D03*
X51750Y31138D03*
Y30862D03*
Y35862D03*
Y36138D03*
X64133Y39901D03*
Y40177D03*
X62500Y31388D03*
Y31112D03*
X65236Y44271D03*
Y44547D03*
G54D242*
X57888Y34750D03*
X57612D03*
X58888Y35750D03*
X58612D03*
Y34750D03*
X58888D03*
X69112Y36250D03*
X69388D03*
X58388Y39250D03*
X58112D03*
X56987D03*
X57263D03*
X58112Y37875D03*
X58388D03*
X58112Y38875D03*
X58388D03*
X58112Y39625D03*
X58388D03*
X58112Y38250D03*
X58388D03*
X80388Y42000D03*
X80112D03*
X64350Y44212D03*
X64626D03*
X68112Y45375D03*
X68388D03*
X68112Y45750D03*
X68388D03*
X68112Y42750D03*
X68388D03*
X68112Y43500D03*
X68388D03*
X68112Y46125D03*
X68388D03*
X68112Y45000D03*
X68388D03*
X68112Y44250D03*
X68388D03*
X68112Y42375D03*
X68388D03*
X68112Y43875D03*
X68388D03*
X68112Y42000D03*
X68388D03*
X68112Y44625D03*
X68388D03*
X68112Y43125D03*
X68388D03*
X78888Y34750D03*
X78612D03*
X47638Y34500D03*
X47362D03*
X47638Y36500D03*
X47362D03*
X47638Y31750D03*
X47362D03*
X47638Y29750D03*
X47362D03*
X47638Y38500D03*
X47362D03*
X47638Y40500D03*
X47362D03*
X47638Y27750D03*
X47362D03*
X47638Y25750D03*
X47362D03*
X47638Y23750D03*
X47362D03*
X47638Y21750D03*
X47362D03*
X47638Y44500D03*
X47362D03*
X47638Y42500D03*
X47362D03*
X80388Y43500D03*
X80112D03*
X80388Y44000D03*
X80112D03*
X80388Y40750D03*
X80112D03*
X80388Y41500D03*
X80112D03*
X56987Y37375D03*
X57263D03*
G54D337*
X80670Y34250D03*
X81330D03*
G54D356*
X71181Y25905D03*
Y41653D03*
G54D357*
X22952D03*
Y25905D03*
G54D358*
X86049Y30718D03*
Y36840D03*
G54D359*
X87250Y31529D03*
Y36029D03*
G54D360*
X23465Y23250D03*
X21535D03*
G54D361*
X21600Y21650D03*
X23400D03*
G74*
X0Y0D02*
M02*
