*
*
G04 PADS 9.2 Build Number: 414666 generated Gerber (RS-274-X) file*
G04 PC Version=2.1*
*
%IN "CC1B_080118.pcb"*%
*
%MOIN*%
*
%FSLAX24Y24*%
*
*
*
*
G04 PC Standard Apertures*
*
*
G04 Thermal Relief Aperture macro.*
%AMTER*
1,1,$1,0,0*
1,0,$1-$2,0,0*
21,0,$3,$4,0,0,45*
21,0,$3,$4,0,0,135*
%
*
*
G04 Annular Aperture macro.*
%AMANN*
1,1,$1,0,0*
1,0,$2,0,0*
%
*
*
G04 Odd Aperture macro.*
%AMODD*
1,1,$1,0,0*
1,0,$1-0.005,0,0*
%
*
*
G04 PC Custom Aperture Macros*
*
*
*
*
*
*
G04 PC Aperture Table*
*
%ADD010C,0.001*%
%ADD013R,0.06X0.06*%
%ADD014C,0.06*%
%ADD021R,0.065X0.065*%
%ADD022C,0.065*%
%ADD028C,0.01*%
%ADD032C,0.005*%
%ADD033C,0.03*%
%ADD073R,0.07X0.07*%
%ADD074C,0.07*%
%ADD076R,0.027X0.025*%
%ADD079C,0.08*%
%ADD083R,0.037X0.029*%
%ADD084R,0.014X0.05*%
%ADD085R,0.05X0.014*%
%ADD086R,0.22X0.22*%
%ADD089R,0.05X0.03*%
%ADD090R,0.035X0.035*%
%ADD092C,0.021*%
%ADD093R,0.04X0.045*%
%ADD094R,0.025X0.027*%
%ADD155R,0.033X0.033*%
%ADD183R,0.065X0.055*%
%ADD189R,0.095X0.125*%
%ADD193R,0.03X0.05*%
%ADD240R,0.021X0.023*%
%ADD242R,0.023X0.021*%
%ADD245R,0.057X0.046*%
%ADD246R,0.08374X0.03256*%
%ADD247R,0.10736X0.06406*%
%ADD248R,0.10736X0.04437*%
%ADD249R,0.05224X0.05224*%
%ADD250R,0.06012X0.1113*%
%ADD251R,0.029X0.075*%
%ADD252R,0.155X0.105*%
%ADD336R,0.016X0.023*%
%ADD337R,0.045X0.05*%
%ADD338R,0.055X0.065*%
%ADD339R,0.07X0.055*%
%ADD340R,0.065X0.068*%
%ADD341R,0.044X0.04*%
%ADD342R,0.02X0.075*%
%ADD343R,0.064X0.036*%
%ADD344R,0.108X0.143*%
%ADD345R,0.039X0.017*%
%ADD346R,0.07X0.1*%
%ADD347R,0.025X0.015*%
%ADD348R,0.0325X0.056*%
%ADD349R,0.014X0.03*%
%ADD350R,0.03X0.014*%
%ADD351R,0.14X0.14*%
%ADD352R,0.125X0.095*%
%ADD353R,0.02154X0.02862*%
%ADD354R,0.045X0.033*%
%ADD355R,0.131X0.084*%
%ADD356C,0.251*%
%ADD357O,0.369X0.251*%
%ADD358C,0.095*%
%ADD359C,0.175*%
*
*
*
*
G04 PC Circuitry*
G04 Layer Name CC1B_080118.pcb - circuitry*
%LPD*%
*
*
G04 PC Custom Flashes*
G04 Layer Name CC1B_080118.pcb - flashes*
%LPD*%
*
*
G04 PC Circuitry*
G04 Layer Name CC1B_080118.pcb - circuitry*
%LPD*%
*
G54D10*
G54D13*
G01X27000Y45129D03*
Y31429D03*
X32000Y45129D03*
Y31429D03*
X37000Y45129D03*
Y31429D03*
X84750Y32029D03*
G54D14*
X28000Y45129D03*
X27000Y44129D03*
X28000D03*
X27000Y43129D03*
X28000D03*
X27000Y42129D03*
X28000D03*
X27000Y41129D03*
X28000D03*
X27000Y40129D03*
X28000D03*
X27000Y39129D03*
X28000D03*
X27000Y38129D03*
X28000D03*
X27000Y37129D03*
X28000D03*
X27000Y36129D03*
X28000D03*
Y31429D03*
X27000Y30429D03*
X28000D03*
X27000Y29429D03*
X28000D03*
X27000Y28429D03*
X28000D03*
X27000Y27429D03*
X28000D03*
X27000Y26429D03*
X28000D03*
X27000Y25429D03*
X28000D03*
X27000Y24429D03*
X28000D03*
X27000Y23429D03*
X28000D03*
X27000Y22429D03*
X28000D03*
X33000Y45129D03*
X32000Y44129D03*
X33000D03*
X32000Y43129D03*
X33000D03*
X32000Y42129D03*
X33000D03*
X32000Y41129D03*
X33000D03*
X32000Y40129D03*
X33000D03*
X32000Y39129D03*
X33000D03*
X32000Y38129D03*
X33000D03*
X32000Y37129D03*
X33000D03*
X32000Y36129D03*
X33000D03*
Y31429D03*
X32000Y30429D03*
X33000D03*
X32000Y29429D03*
X33000D03*
X32000Y28429D03*
X33000D03*
X32000Y27429D03*
X33000D03*
X32000Y26429D03*
X33000D03*
X32000Y25429D03*
X33000D03*
X32000Y24429D03*
X33000D03*
X32000Y23429D03*
X33000D03*
X32000Y22429D03*
X33000D03*
X38000Y45129D03*
X37000Y44129D03*
X38000D03*
X37000Y43129D03*
X38000D03*
X37000Y42129D03*
X38000D03*
X37000Y41129D03*
X38000D03*
X37000Y40129D03*
X38000D03*
X37000Y39129D03*
X38000D03*
X37000Y38129D03*
X38000D03*
X37000Y37129D03*
X38000D03*
X37000Y36129D03*
X38000D03*
Y31429D03*
X37000Y30429D03*
X38000D03*
X37000Y29429D03*
X38000D03*
X37000Y28429D03*
X38000D03*
X37000Y27429D03*
X38000D03*
X37000Y26429D03*
X38000D03*
X37000Y25429D03*
X38000D03*
X37000Y24429D03*
X38000D03*
X37000Y23429D03*
X38000D03*
X37000Y22429D03*
X38000D03*
X83750Y32529D03*
X84750Y33029D03*
X83750Y33529D03*
X84750Y34029D03*
X83750Y34529D03*
X84750Y35029D03*
X83750Y35529D03*
X89179Y31289D03*
X88580Y32289D03*
X89179Y35269D03*
X88580Y36269D03*
G54D21*
X41000Y45000D03*
Y39000D03*
Y31250D03*
Y25250D03*
X62250Y21029D03*
X79750Y22779D03*
X58750Y24500D03*
X73750Y37750D03*
X58500Y45000D03*
X86250Y22779D03*
X60250Y24470D03*
X21500Y37529D03*
Y28279D03*
X23000Y37529D03*
Y28279D03*
X24500D03*
Y37529D03*
X68250Y21029D03*
X89291Y25644D03*
G54D22*
X41000Y44000D03*
Y43000D03*
Y42000D03*
Y38000D03*
Y37000D03*
Y36000D03*
Y30250D03*
Y29250D03*
Y28250D03*
Y24250D03*
Y23250D03*
Y22250D03*
X62250Y22029D03*
X63250Y21029D03*
Y22029D03*
X64250Y21029D03*
Y22029D03*
X65250Y21029D03*
Y22029D03*
X66250Y21029D03*
Y22029D03*
X79750Y23779D03*
X80750Y22779D03*
Y23779D03*
X81750Y22779D03*
Y23779D03*
X82750Y22779D03*
Y23779D03*
X58750Y25500D03*
X74750Y37750D03*
X58500Y46000D03*
X86250Y23779D03*
X60250Y25470D03*
X21500Y38529D03*
Y39529D03*
Y29279D03*
Y30279D03*
X23000Y38529D03*
Y39529D03*
Y29279D03*
Y30279D03*
X24500Y29279D03*
Y30279D03*
Y38529D03*
Y39529D03*
X68250Y22029D03*
X69250Y21029D03*
Y22029D03*
X70250Y21029D03*
Y22029D03*
X71250Y21029D03*
Y22029D03*
X72250Y21029D03*
Y22029D03*
X73250Y21029D03*
Y22029D03*
X74250Y21029D03*
Y22029D03*
X75250Y21029D03*
Y22029D03*
X76250Y21029D03*
Y22029D03*
X77250Y21029D03*
Y22029D03*
X89291Y27414D03*
G54D28*
X51505Y44435D02*
Y44110D01*
X51710Y43905*
X51710D02*
X52789D01*
X52789D02*
X52995Y44110D01*
Y44435*
X52720*
X52720D02*
X52507Y44212D01*
X52507D02*
X52489Y44205D01*
X52010*
X52010D02*
X51992Y44212D01*
X51992D02*
X51779Y44435D01*
X51505*
X51550Y44065D02*
Y44435D01*
X51600Y44015D02*
Y44435D01*
X51650Y43965D02*
Y44435D01*
X51700Y43915D02*
Y44435D01*
X51750Y43905D02*
Y44435D01*
X51800Y43905D02*
Y44413D01*
X51850Y43905D02*
Y44361D01*
X51900Y43905D02*
Y44309D01*
X51950Y43905D02*
Y44257D01*
X52000Y43905D02*
Y44209D01*
X52050Y43905D02*
Y44205D01*
X52100Y43905D02*
Y44205D01*
X52150Y43905D02*
Y44205D01*
X52200Y43905D02*
Y44205D01*
X52250Y43905D02*
Y44205D01*
X52300Y43905D02*
Y44205D01*
X52350Y43905D02*
Y44205D01*
X52400Y43905D02*
Y44205D01*
X52450Y43905D02*
Y44205D01*
X52500Y43905D02*
Y44209D01*
X52550Y43905D02*
Y44257D01*
X52600Y43905D02*
Y44309D01*
X52650Y43905D02*
Y44361D01*
X52700Y43905D02*
Y44413D01*
X52750Y43905D02*
Y44435D01*
X52800Y43915D02*
Y44435D01*
X52850Y43965D02*
Y44435D01*
X52900Y44015D02*
Y44435D01*
X52950Y44065D02*
Y44435D01*
X51710Y45595D02*
X51505Y45389D01*
X51505D02*
Y45065D01*
X51779*
X51992Y45287*
X51992D02*
X52010Y45295D01*
X52010D02*
X52489D01*
X52507Y45287*
X52720Y45065*
X52720D02*
X52995D01*
Y45389*
X52995D02*
X52789Y45595D01*
X52789D02*
X51710D01*
X51550Y45065D02*
Y45434D01*
X51600Y45065D02*
Y45484D01*
X51650Y45065D02*
Y45534D01*
X51700Y45065D02*
Y45584D01*
X51750Y45065D02*
Y45595D01*
X51800Y45086D02*
Y45595D01*
X51850Y45138D02*
Y45595D01*
X51900Y45190D02*
Y45595D01*
X51950Y45242D02*
Y45595D01*
X52000Y45290D02*
Y45595D01*
X52050Y45295D02*
Y45595D01*
X52100Y45295D02*
Y45595D01*
X52150Y45295D02*
Y45595D01*
X52200Y45295D02*
Y45595D01*
X52250Y45295D02*
Y45595D01*
X52300Y45295D02*
Y45595D01*
X52350Y45295D02*
Y45595D01*
X52400Y45295D02*
Y45595D01*
X52450Y45295D02*
Y45595D01*
X52500Y45290D02*
Y45595D01*
X52550Y45242D02*
Y45595D01*
X52600Y45190D02*
Y45595D01*
X52650Y45138D02*
Y45595D01*
X52700Y45086D02*
Y45595D01*
X52750Y45065D02*
Y45595D01*
X52800Y45065D02*
Y45584D01*
X52850Y45065D02*
Y45534D01*
X52900Y45065D02*
Y45484D01*
X52950Y45065D02*
Y45434D01*
X51505Y38935D02*
Y38610D01*
X51710Y38405*
X51710D02*
X52789D01*
X52789D02*
X52995Y38610D01*
Y38935*
X52720*
X52720D02*
X52507Y38712D01*
X52507D02*
X52489Y38705D01*
X52010*
X52010D02*
X51992Y38712D01*
X51992D02*
X51779Y38935D01*
X51505*
X51550Y38565D02*
Y38935D01*
X51600Y38515D02*
Y38935D01*
X51650Y38465D02*
Y38935D01*
X51700Y38415D02*
Y38935D01*
X51750Y38405D02*
Y38935D01*
X51800Y38405D02*
Y38913D01*
X51850Y38405D02*
Y38861D01*
X51900Y38405D02*
Y38809D01*
X51950Y38405D02*
Y38757D01*
X52000Y38405D02*
Y38709D01*
X52050Y38405D02*
Y38705D01*
X52100Y38405D02*
Y38705D01*
X52150Y38405D02*
Y38705D01*
X52200Y38405D02*
Y38705D01*
X52250Y38405D02*
Y38705D01*
X52300Y38405D02*
Y38705D01*
X52350Y38405D02*
Y38705D01*
X52400Y38405D02*
Y38705D01*
X52450Y38405D02*
Y38705D01*
X52500Y38405D02*
Y38709D01*
X52550Y38405D02*
Y38757D01*
X52600Y38405D02*
Y38809D01*
X52650Y38405D02*
Y38861D01*
X52700Y38405D02*
Y38913D01*
X52750Y38405D02*
Y38935D01*
X52800Y38415D02*
Y38935D01*
X52850Y38465D02*
Y38935D01*
X52900Y38515D02*
Y38935D01*
X52950Y38565D02*
Y38935D01*
X51710Y40095D02*
X51505Y39889D01*
X51505D02*
Y39565D01*
X51779*
X51992Y39787*
X51992D02*
X52010Y39795D01*
X52010D02*
X52489D01*
X52507Y39787*
X52720Y39565*
X52720D02*
X52995D01*
Y39889*
X52995D02*
X52789Y40095D01*
X52789D02*
X51710D01*
X51550Y39565D02*
Y39934D01*
X51600Y39565D02*
Y39984D01*
X51650Y39565D02*
Y40034D01*
X51700Y39565D02*
Y40084D01*
X51750Y39565D02*
Y40095D01*
X51800Y39586D02*
Y40095D01*
X51850Y39638D02*
Y40095D01*
X51900Y39690D02*
Y40095D01*
X51950Y39742D02*
Y40095D01*
X52000Y39790D02*
Y40095D01*
X52050Y39795D02*
Y40095D01*
X52100Y39795D02*
Y40095D01*
X52150Y39795D02*
Y40095D01*
X52200Y39795D02*
Y40095D01*
X52250Y39795D02*
Y40095D01*
X52300Y39795D02*
Y40095D01*
X52350Y39795D02*
Y40095D01*
X52400Y39795D02*
Y40095D01*
X52450Y39795D02*
Y40095D01*
X52500Y39790D02*
Y40095D01*
X52550Y39742D02*
Y40095D01*
X52600Y39690D02*
Y40095D01*
X52650Y39638D02*
Y40095D01*
X52700Y39586D02*
Y40095D01*
X52750Y39565D02*
Y40095D01*
X52800Y39565D02*
Y40084D01*
X52850Y39565D02*
Y40034D01*
X52900Y39565D02*
Y39984D01*
X52950Y39565D02*
Y39934D01*
X20472Y50843D02*
X20404Y50937D01*
X20404D02*
X20301Y50984D01*
X20301D02*
X20165D01*
X20063Y50937*
X20063D02*
X19995Y50843D01*
X19995D02*
Y50750D01*
X20029Y50656*
X20063Y50609*
X20131Y50562*
X20131D02*
X20335Y50468D01*
X20335D02*
X20404Y50421D01*
X20404D02*
X20438Y50375D01*
X20472Y50281*
Y50140*
X20472D02*
X20404Y50046D01*
X20404D02*
X20301Y50000D01*
X20301D02*
X20165D01*
X20063Y50046*
X20063D02*
X19995Y50140D01*
X20983Y50984D02*
X20915Y50937D01*
X20915D02*
X20847Y50843D01*
X20847D02*
X20813Y50750D01*
X20779Y50609*
Y50375*
X20813Y50234*
X20847Y50140*
X20847D02*
X20915Y50046D01*
X20915D02*
X20983Y50000D01*
X20983D02*
X21120D01*
X21188Y50046*
X21188D02*
X21256Y50140D01*
X21256D02*
X21290Y50234D01*
X21324Y50375*
X21324D02*
Y50609D01*
X21324D02*
X21290Y50750D01*
X21256Y50843*
X21256D02*
X21188Y50937D01*
X21188D02*
X21120Y50984D01*
X20983*
X21631D02*
Y50000D01*
X22040*
X22347Y50984D02*
Y50000D01*
Y50984D02*
X22585D01*
X22585D02*
X22688Y50937D01*
X22688D02*
X22756Y50843D01*
X22756D02*
X22790Y50750D01*
X22824Y50609*
X22824D02*
Y50375D01*
X22824D02*
X22790Y50234D01*
X22756Y50140*
X22756D02*
X22688Y50046D01*
X22688D02*
X22585Y50000D01*
X22585D02*
X22347D01*
X23131Y50984D02*
Y50000D01*
Y50984D02*
X23574D01*
X23131Y50515D02*
X23404D01*
X23131Y50000D02*
X23574D01*
X23881Y50984D02*
Y50000D01*
Y50984D02*
X24188D01*
X24290Y50937*
X24290D02*
X24324Y50890D01*
X24324D02*
X24358Y50796D01*
X24358D02*
Y50703D01*
X24358D02*
X24324Y50609D01*
X24324D02*
X24290Y50562D01*
X24290D02*
X24188Y50515D01*
X24188D02*
X23881D01*
X24120D02*
X24358Y50000D01*
X25449Y50984D02*
Y50000D01*
Y50984D02*
X25722Y50000D01*
X25995Y50984D02*
X25722Y50000D01*
X25995Y50984D02*
Y50000D01*
X26574Y50984D02*
X26301Y50000D01*
X26574Y50984D02*
X26847Y50000D01*
X26404Y50328D02*
X26745D01*
X27631Y50843D02*
X27563Y50937D01*
X27563D02*
X27460Y50984D01*
X27460D02*
X27324D01*
X27324D02*
X27222Y50937D01*
X27222D02*
X27154Y50843D01*
X27154D02*
Y50750D01*
X27188Y50656*
X27222Y50609*
X27290Y50562*
X27290D02*
X27495Y50468D01*
X27495D02*
X27563Y50421D01*
X27563D02*
X27597Y50375D01*
X27631Y50281*
Y50140*
X27631D02*
X27563Y50046D01*
X27563D02*
X27460Y50000D01*
X27460D02*
X27324D01*
X27324D02*
X27222Y50046D01*
X27222D02*
X27154Y50140D01*
X27938Y50984D02*
Y50000D01*
X28415Y50984D02*
X27938Y50328D01*
X28108Y50562D02*
X28415Y50000D01*
X29506Y50984D02*
Y50000D01*
Y50984D02*
X29813D01*
X29915Y50937*
X29915D02*
X29949Y50890D01*
X29949D02*
X29983Y50796D01*
X29983D02*
Y50656D01*
X29983D02*
X29949Y50562D01*
X29949D02*
X29915Y50515D01*
X29915D02*
X29813Y50468D01*
X29813D02*
X29506D01*
X30290Y50984D02*
Y50000D01*
Y50984D02*
X30597D01*
X30699Y50937*
X30699D02*
X30733Y50890D01*
X30733D02*
X30767Y50796D01*
X30767D02*
Y50703D01*
X30767D02*
X30733Y50609D01*
X30733D02*
X30699Y50562D01*
X30699D02*
X30597Y50515D01*
X30597D02*
X30290D01*
X30529D02*
X30767Y50000D01*
X31074Y50984D02*
Y50000D01*
X31381Y50984D02*
Y50000D01*
Y50984D02*
X31654Y50000D01*
X31926Y50984D02*
X31654Y50000D01*
X31926Y50984D02*
Y50000D01*
X32506Y50984D02*
X32233Y50000D01*
X32506Y50984D02*
X32779Y50000D01*
X32335Y50328D02*
X32676D01*
X33085Y50984D02*
Y50000D01*
Y50984D02*
X33392D01*
X33392D02*
X33495Y50937D01*
X33495D02*
X33529Y50890D01*
X33529D02*
X33563Y50796D01*
X33563D02*
Y50703D01*
X33529Y50609*
X33495Y50562*
X33495D02*
X33392Y50515D01*
X33392D02*
X33085D01*
X33324D02*
X33563Y50000D01*
X33870Y50984D02*
X34142Y50515D01*
X34142D02*
Y50000D01*
X34415Y50984D02*
X34142Y50515D01*
X35983Y50843D02*
X35915Y50937D01*
X35915D02*
X35813Y50984D01*
X35676*
X35676D02*
X35574Y50937D01*
X35574D02*
X35506Y50843D01*
X35506D02*
Y50750D01*
X35540Y50656*
X35574Y50609*
X35574D02*
X35642Y50562D01*
X35642D02*
X35847Y50468D01*
X35847D02*
X35915Y50421D01*
X35915D02*
X35949Y50375D01*
X35949D02*
X35983Y50281D01*
X35983D02*
Y50140D01*
X35983D02*
X35915Y50046D01*
X35915D02*
X35813Y50000D01*
X35676*
X35676D02*
X35574Y50046D01*
X35574D02*
X35506Y50140D01*
X36290Y50984D02*
Y50000D01*
X36597Y50984D02*
Y50000D01*
Y50984D02*
X36835D01*
X36835D02*
X36938Y50937D01*
X36938D02*
X37006Y50843D01*
X37006D02*
X37040Y50750D01*
X37074Y50609*
X37074D02*
Y50375D01*
X37074D02*
X37040Y50234D01*
X37006Y50140*
X37006D02*
X36938Y50046D01*
X36938D02*
X36835Y50000D01*
X36835D02*
X36597D01*
X37381Y50984D02*
Y50000D01*
Y50984D02*
X37824D01*
X37381Y50515D02*
X37654D01*
X37381Y50000D02*
X37824D01*
X20511Y53000D02*
X20477Y53093D01*
X20477D02*
X20409Y53187D01*
X20409D02*
X20340Y53234D01*
X20340D02*
X20204D01*
X20204D02*
X20136Y53187D01*
X20136D02*
X20068Y53093D01*
X20068D02*
X20034Y53000D01*
X20000Y52859*
Y52625*
X20034Y52484*
X20068Y52390*
X20068D02*
X20136Y52296D01*
X20136D02*
X20204Y52250D01*
X20204D02*
X20340D01*
X20340D02*
X20409Y52296D01*
X20409D02*
X20477Y52390D01*
X20477D02*
X20511Y52484D01*
X21329Y53000D02*
X21295Y53093D01*
X21295D02*
X21227Y53187D01*
X21227D02*
X21159Y53234D01*
X21022*
X21022D02*
X20954Y53187D01*
X20954D02*
X20886Y53093D01*
X20886D02*
X20852Y53000D01*
X20818Y52859*
Y52625*
X20852Y52484*
X20886Y52390*
X20886D02*
X20954Y52296D01*
X20954D02*
X21022Y52250D01*
X21022D02*
X21159D01*
X21227Y52296*
X21227D02*
X21295Y52390D01*
X21295D02*
X21329Y52484D01*
X21636Y53046D02*
X21704Y53093D01*
X21704D02*
X21806Y53234D01*
X21806D02*
Y52250D01*
X22113Y53234D02*
Y52250D01*
Y53234D02*
X22420D01*
X22522Y53187*
X22522D02*
X22556Y53140D01*
X22556D02*
X22590Y53046D01*
X22590D02*
Y52953D01*
X22590D02*
X22556Y52859D01*
X22556D02*
X22522Y52812D01*
X22522D02*
X22420Y52765D01*
X22113D02*
X22420D01*
X22420D02*
X22522Y52718D01*
X22522D02*
X22556Y52671D01*
X22556D02*
X22590Y52578D01*
X22590D02*
Y52437D01*
X22590D02*
X22556Y52343D01*
X22556D02*
X22522Y52296D01*
X22522D02*
X22420Y52250D01*
X22113*
X24193Y53000D02*
X24159Y53093D01*
X24159D02*
X24090Y53187D01*
X24090D02*
X24022Y53234D01*
X24022D02*
X23886D01*
X23818Y53187*
X23818D02*
X23750Y53093D01*
X23750D02*
X23715Y53000D01*
X23715D02*
X23681Y52859D01*
X23681D02*
Y52625D01*
X23681D02*
X23715Y52484D01*
X23715D02*
X23750Y52390D01*
X23750D02*
X23818Y52296D01*
X23818D02*
X23886Y52250D01*
X24022*
X24022D02*
X24090Y52296D01*
X24090D02*
X24159Y52390D01*
X24159D02*
X24193Y52484D01*
X24704Y53234D02*
X24636Y53187D01*
X24636D02*
X24568Y53093D01*
X24568D02*
X24534Y53000D01*
X24500Y52859*
Y52625*
X24534Y52484*
X24568Y52390*
X24568D02*
X24636Y52296D01*
X24636D02*
X24704Y52250D01*
X24704D02*
X24840D01*
X24840D02*
X24909Y52296D01*
X24909D02*
X24977Y52390D01*
X24977D02*
X25011Y52484D01*
X25045Y52625*
Y52859*
X25011Y53000*
X24977Y53093*
X24977D02*
X24909Y53187D01*
X24909D02*
X24840Y53234D01*
X24840D02*
X24704D01*
X25352D02*
Y52250D01*
Y53234D02*
X25829Y52250D01*
Y53234D02*
Y52250D01*
X26375Y53234D02*
Y52250D01*
X26136Y53234D02*
X26613D01*
X26920D02*
Y52250D01*
Y53234D02*
X27227D01*
X27329Y53187*
X27329D02*
X27363Y53140D01*
X27363D02*
X27397Y53046D01*
X27397D02*
Y52953D01*
X27397D02*
X27363Y52859D01*
X27363D02*
X27329Y52812D01*
X27329D02*
X27227Y52765D01*
X27227D02*
X26920D01*
X27159D02*
X27397Y52250D01*
X27909Y53234D02*
X27840Y53187D01*
X27840D02*
X27772Y53093D01*
X27772D02*
X27738Y53000D01*
X27738D02*
X27704Y52859D01*
X27704D02*
Y52625D01*
X27704D02*
X27738Y52484D01*
X27738D02*
X27772Y52390D01*
X27772D02*
X27840Y52296D01*
X27840D02*
X27909Y52250D01*
X28045*
X28113Y52296*
X28113D02*
X28181Y52390D01*
X28181D02*
X28215Y52484D01*
X28215D02*
X28250Y52625D01*
Y52859*
X28215Y53000*
X28215D02*
X28181Y53093D01*
X28181D02*
X28113Y53187D01*
X28113D02*
X28045Y53234D01*
X27909*
X28556D02*
Y52250D01*
X28556D02*
X28965D01*
X30056Y53234D02*
Y52250D01*
Y53234D02*
X30363D01*
X30363D02*
X30465Y53187D01*
X30465D02*
X30500Y53140D01*
X30500D02*
X30534Y53046D01*
X30534D02*
Y52953D01*
X30500Y52859*
X30465Y52812*
X30465D02*
X30363Y52765D01*
X30056D02*
X30363D01*
X30363D02*
X30465Y52718D01*
X30465D02*
X30500Y52671D01*
X30500D02*
X30534Y52578D01*
Y52437*
X30534D02*
X30500Y52343D01*
X30500D02*
X30465Y52296D01*
X30465D02*
X30363Y52250D01*
X30363D02*
X30056D01*
X31045Y53234D02*
X30977Y53187D01*
X30977D02*
X30909Y53093D01*
X30909D02*
X30875Y53000D01*
X30840Y52859*
X30840D02*
Y52625D01*
X30840D02*
X30875Y52484D01*
X30909Y52390*
X30909D02*
X30977Y52296D01*
X30977D02*
X31045Y52250D01*
X31181*
X31181D02*
X31250Y52296D01*
X31250D02*
X31318Y52390D01*
X31318D02*
X31352Y52484D01*
X31386Y52625*
Y52859*
X31352Y53000*
X31318Y53093*
X31318D02*
X31250Y53187D01*
X31250D02*
X31181Y53234D01*
X31181D02*
X31045D01*
X31965D02*
X31693Y52250D01*
X31965Y53234D02*
X32238Y52250D01*
X31795Y52578D02*
X32136D01*
X32545Y53234D02*
Y52250D01*
Y53234D02*
X32852D01*
X32954Y53187*
X32954D02*
X32988Y53140D01*
X32988D02*
X33022Y53046D01*
X33022D02*
Y52953D01*
X33022D02*
X32988Y52859D01*
X32988D02*
X32954Y52812D01*
X32954D02*
X32852Y52765D01*
X32852D02*
X32545D01*
X32784D02*
X33022Y52250D01*
X33329Y53234D02*
Y52250D01*
Y53234D02*
X33568D01*
X33670Y53187*
X33670D02*
X33738Y53093D01*
X33738D02*
X33772Y53000D01*
X33772D02*
X33806Y52859D01*
X33806D02*
Y52625D01*
X33806D02*
X33772Y52484D01*
X33772D02*
X33738Y52390D01*
X33738D02*
X33670Y52296D01*
X33670D02*
X33568Y52250D01*
X33329*
X34897Y53234D02*
Y52250D01*
Y53234D02*
X35204D01*
X35204D02*
X35306Y53187D01*
X35306D02*
X35340Y53140D01*
X35340D02*
X35375Y53046D01*
X35375D02*
Y52953D01*
X35340Y52859*
X35340D02*
X35306Y52812D01*
X35306D02*
X35204Y52765D01*
X35204D02*
X34897D01*
X35136D02*
X35375Y52250D01*
X35681Y53234D02*
Y52250D01*
Y53234D02*
X36125D01*
X35681Y52765D02*
X35954D01*
X35681Y52250D02*
X36125D01*
X36431Y53234D02*
X36704Y52250D01*
X36977Y53234D02*
X36704Y52250D01*
X38340Y53234D02*
X38068Y52250D01*
X38340Y53234D02*
X38613Y52250D01*
X38170Y52578D02*
X38511D01*
X20204Y55234D02*
X20136Y55187D01*
X20136D02*
X20068Y55093D01*
X20068D02*
X20034Y55000D01*
X20000Y54859*
Y54625*
X20034Y54484*
X20068Y54390*
X20068D02*
X20136Y54296D01*
X20136D02*
X20204Y54250D01*
X20204D02*
X20340D01*
X20340D02*
X20409Y54296D01*
X20409D02*
X20477Y54390D01*
X20477D02*
X20511Y54484D01*
X20545Y54625*
Y54859*
X20511Y55000*
X20477Y55093*
X20477D02*
X20409Y55187D01*
X20409D02*
X20340Y55234D01*
X20340D02*
X20204D01*
X20852D02*
Y54250D01*
Y55234D02*
X21159D01*
X21261Y55187*
X21261D02*
X21295Y55140D01*
X21295D02*
X21329Y55046D01*
X21329D02*
Y54953D01*
X21329D02*
X21295Y54859D01*
X21261Y54812*
X21261D02*
X21159Y54765D01*
X21159D02*
X20852D01*
X21090D02*
X21329Y54250D01*
X22147Y55000D02*
X22113Y55093D01*
X22113D02*
X22045Y55187D01*
X22045D02*
X21977Y55234D01*
X21840*
X21840D02*
X21772Y55187D01*
X21772D02*
X21704Y55093D01*
X21704D02*
X21670Y55000D01*
X21636Y54859*
Y54625*
X21670Y54484*
X21704Y54390*
X21704D02*
X21772Y54296D01*
X21772D02*
X21840Y54250D01*
X21840D02*
X21977D01*
X22045Y54296*
X22045D02*
X22113Y54390D01*
X22113D02*
X22147Y54484D01*
X22454Y55234D02*
Y54250D01*
X22931Y55234D02*
Y54250D01*
X22454Y54765D02*
X22931D01*
X23238Y55234D02*
Y54250D01*
X23545Y55234D02*
Y54250D01*
Y55234D02*
X23784D01*
X23886Y55187*
X23886D02*
X23954Y55093D01*
X23954D02*
X23988Y55000D01*
X23988D02*
X24022Y54859D01*
X24022D02*
Y54625D01*
X24022D02*
X23988Y54484D01*
X23988D02*
X23954Y54390D01*
X23954D02*
X23886Y54296D01*
X23886D02*
X23784Y54250D01*
X23545*
X25352Y55234D02*
Y54250D01*
X25113Y55234D02*
X25590D01*
X25897D02*
Y54250D01*
Y55234D02*
X26340D01*
X25897Y54765D02*
X26170D01*
X25897Y54250D02*
X26340D01*
X27159Y55000D02*
X27125Y55093D01*
X27125D02*
X27056Y55187D01*
X27056D02*
X26988Y55234D01*
X26988D02*
X26852D01*
X26784Y55187*
X26784D02*
X26715Y55093D01*
X26715D02*
X26681Y55000D01*
X26681D02*
X26647Y54859D01*
X26647D02*
Y54625D01*
X26647D02*
X26681Y54484D01*
X26681D02*
X26715Y54390D01*
X26715D02*
X26784Y54296D01*
X26784D02*
X26852Y54250D01*
X26988*
X26988D02*
X27056Y54296D01*
X27056D02*
X27125Y54390D01*
X27125D02*
X27159Y54484D01*
X27465Y55234D02*
Y54250D01*
X27943Y55234D02*
Y54250D01*
X27465Y54765D02*
X27943D01*
X28250Y55234D02*
Y54250D01*
Y55234D02*
X28727Y54250D01*
Y55234D02*
Y54250D01*
X29238Y55234D02*
X29170Y55187D01*
X29170D02*
X29102Y55093D01*
X29102D02*
X29068Y55000D01*
X29034Y54859*
Y54625*
X29068Y54484*
X29102Y54390*
X29102D02*
X29170Y54296D01*
X29170D02*
X29238Y54250D01*
X29238D02*
X29375D01*
X29443Y54296*
X29443D02*
X29511Y54390D01*
X29511D02*
X29545Y54484D01*
X29579Y54625*
X29579D02*
Y54859D01*
X29579D02*
X29545Y55000D01*
X29511Y55093*
X29511D02*
X29443Y55187D01*
X29443D02*
X29375Y55234D01*
X29238*
X29886D02*
Y54250D01*
X30295*
X30806Y55234D02*
X30738Y55187D01*
X30738D02*
X30670Y55093D01*
X30670D02*
X30636Y55000D01*
X30602Y54859*
Y54625*
X30636Y54484*
X30670Y54390*
X30670D02*
X30738Y54296D01*
X30738D02*
X30806Y54250D01*
X30806D02*
X30943D01*
X31011Y54296*
X31011D02*
X31079Y54390D01*
X31079D02*
X31113Y54484D01*
X31113D02*
X31147Y54625D01*
X31147D02*
Y54859D01*
X31147D02*
X31113Y55000D01*
X31113D02*
X31079Y55093D01*
X31079D02*
X31011Y55187D01*
X31011D02*
X30943Y55234D01*
X30806*
X31965Y55000D02*
X31931Y55093D01*
X31931D02*
X31863Y55187D01*
X31863D02*
X31795Y55234D01*
X31659*
X31590Y55187*
X31590D02*
X31522Y55093D01*
X31522D02*
X31488Y55000D01*
X31488D02*
X31454Y54859D01*
X31454D02*
Y54625D01*
X31454D02*
X31488Y54484D01*
X31488D02*
X31522Y54390D01*
X31522D02*
X31590Y54296D01*
X31590D02*
X31659Y54250D01*
X31795*
X31863Y54296*
X31863D02*
X31931Y54390D01*
X31931D02*
X31965Y54484D01*
X31965D02*
Y54625D01*
X31795D02*
X31965D01*
X32272Y55234D02*
Y54250D01*
X32579Y55234D02*
Y54250D01*
Y55234D02*
X33022D01*
X32579Y54765D02*
X32852D01*
X32579Y54250D02*
X33022D01*
X33806Y55093D02*
X33738Y55187D01*
X33738D02*
X33636Y55234D01*
X33500*
X33397Y55187*
X33397D02*
X33329Y55093D01*
X33329D02*
Y55000D01*
X33329D02*
X33363Y54906D01*
X33363D02*
X33397Y54859D01*
X33397D02*
X33465Y54812D01*
X33465D02*
X33670Y54718D01*
X33670D02*
X33738Y54671D01*
X33738D02*
X33772Y54625D01*
X33772D02*
X33806Y54531D01*
X33806D02*
Y54390D01*
X33806D02*
X33738Y54296D01*
X33738D02*
X33636Y54250D01*
X33500*
X33397Y54296*
X33397D02*
X33329Y54390D01*
X34897Y55234D02*
Y54250D01*
Y55234D02*
X35340D01*
X34897Y54765D02*
X35170D01*
X34897Y54250D02*
X35340D01*
X35647Y55234D02*
Y54250D01*
Y55234D02*
X36125Y54250D01*
Y55234D02*
Y54250D01*
X36943Y55000D02*
X36909Y55093D01*
X36909D02*
X36840Y55187D01*
X36840D02*
X36772Y55234D01*
X36772D02*
X36636D01*
X36568Y55187*
X36568D02*
X36500Y55093D01*
X36500D02*
X36465Y55000D01*
X36465D02*
X36431Y54859D01*
X36431D02*
Y54625D01*
X36431D02*
X36465Y54484D01*
X36465D02*
X36500Y54390D01*
X36500D02*
X36568Y54296D01*
X36568D02*
X36636Y54250D01*
X36772*
X36772D02*
X36840Y54296D01*
X36840D02*
X36909Y54390D01*
X36909D02*
X36943Y54484D01*
Y54625*
X36772D02*
X36943D01*
X37250Y55234D02*
Y54250D01*
X37556Y55234D02*
Y54250D01*
Y55234D02*
X38034Y54250D01*
Y55234D02*
Y54250D01*
X38340Y55234D02*
Y54250D01*
Y55234D02*
X38784D01*
X38340Y54765D02*
X38613D01*
X38340Y54250D02*
X38784D01*
X39090Y55234D02*
Y54250D01*
Y55234D02*
X39534D01*
X39090Y54765D02*
X39363D01*
X39090Y54250D02*
X39534D01*
X39840Y55234D02*
Y54250D01*
Y55234D02*
X40147D01*
X40147D02*
X40250Y55187D01*
X40250D02*
X40284Y55140D01*
X40284D02*
X40318Y55046D01*
X40318D02*
Y54953D01*
X40284Y54859*
X40250Y54812*
X40250D02*
X40147Y54765D01*
X40147D02*
X39840D01*
X40079D02*
X40318Y54250D01*
X40625Y55234D02*
Y54250D01*
X40931Y55234D02*
Y54250D01*
Y55234D02*
X41409Y54250D01*
Y55234D02*
Y54250D01*
X42227Y55000D02*
X42193Y55093D01*
X42193D02*
X42125Y55187D01*
X42125D02*
X42056Y55234D01*
X42056D02*
X41920D01*
X41852Y55187*
X41852D02*
X41784Y55093D01*
X41784D02*
X41750Y55000D01*
X41715Y54859*
X41715D02*
Y54625D01*
X41715D02*
X41750Y54484D01*
X41784Y54390*
X41784D02*
X41852Y54296D01*
X41852D02*
X41920Y54250D01*
X42056*
X42056D02*
X42125Y54296D01*
X42125D02*
X42193Y54390D01*
X42193D02*
X42227Y54484D01*
Y54625*
X42056D02*
X42227D01*
X44000Y54812D02*
Y54859D01*
X43965Y54906*
X43965D02*
X43931D01*
X43931D02*
X43897Y54859D01*
X43897D02*
X43863Y54765D01*
X43863D02*
X43795Y54531D01*
X43727Y54390*
X43727D02*
X43659Y54296D01*
X43659D02*
X43590Y54250D01*
X43590D02*
X43454D01*
X43454D02*
X43386Y54296D01*
X43386D02*
X43352Y54343D01*
X43352D02*
X43318Y54437D01*
X43318D02*
Y54531D01*
X43352Y54625*
X43386Y54671*
X43386D02*
X43625Y54859D01*
X43659Y54906*
X43693Y55000*
Y55093*
X43693D02*
X43659Y55187D01*
X43659D02*
X43590Y55234D01*
X43590D02*
X43522Y55187D01*
X43522D02*
X43488Y55093D01*
X43488D02*
Y55000D01*
X43488D02*
X43522Y54859D01*
X43522D02*
X43590Y54718D01*
X43590D02*
X43761Y54390D01*
X43761D02*
X43829Y54296D01*
X43829D02*
X43897Y54250D01*
X43897D02*
X43965D01*
X43965D02*
X44000Y54296D01*
X44000D02*
Y54343D01*
X45602Y55000D02*
X45568Y55093D01*
X45568D02*
X45500Y55187D01*
X45500D02*
X45431Y55234D01*
X45431D02*
X45295D01*
X45227Y55187*
X45227D02*
X45159Y55093D01*
X45159D02*
X45125Y55000D01*
X45090Y54859*
X45090D02*
Y54625D01*
X45090D02*
X45125Y54484D01*
X45159Y54390*
X45159D02*
X45227Y54296D01*
X45227D02*
X45295Y54250D01*
X45431*
X45431D02*
X45500Y54296D01*
X45500D02*
X45568Y54390D01*
X45568D02*
X45602Y54484D01*
X46113Y55234D02*
X46045Y55187D01*
X46045D02*
X45977Y55093D01*
X45977D02*
X45943Y55000D01*
X45909Y54859*
Y54625*
X45943Y54484*
X45977Y54390*
X45977D02*
X46045Y54296D01*
X46045D02*
X46113Y54250D01*
X46113D02*
X46250D01*
X46318Y54296*
X46318D02*
X46386Y54390D01*
X46386D02*
X46420Y54484D01*
X46454Y54625*
X46454D02*
Y54859D01*
X46454D02*
X46420Y55000D01*
X46386Y55093*
X46386D02*
X46318Y55187D01*
X46318D02*
X46250Y55234D01*
X46113*
X46761D02*
Y54250D01*
Y55234D02*
X47238Y54250D01*
Y55234D02*
Y54250D01*
X48022Y55093D02*
X47954Y55187D01*
X47954D02*
X47852Y55234D01*
X47715*
X47715D02*
X47613Y55187D01*
X47613D02*
X47545Y55093D01*
X47545D02*
Y55000D01*
X47579Y54906*
X47579D02*
X47613Y54859D01*
X47613D02*
X47681Y54812D01*
X47681D02*
X47886Y54718D01*
X47886D02*
X47954Y54671D01*
X47954D02*
X47988Y54625D01*
X47988D02*
X48022Y54531D01*
X48022D02*
Y54390D01*
X48022D02*
X47954Y54296D01*
X47954D02*
X47852Y54250D01*
X47715*
X47715D02*
X47613Y54296D01*
X47613D02*
X47545Y54390D01*
X48329Y55234D02*
Y54531D01*
X48329D02*
X48363Y54390D01*
X48363D02*
X48431Y54296D01*
X48431D02*
X48534Y54250D01*
X48602*
X48704Y54296*
X48704D02*
X48772Y54390D01*
X48772D02*
X48806Y54531D01*
X48806D02*
Y55234D01*
X49113D02*
Y54250D01*
X49113D02*
X49522D01*
X50068Y55234D02*
Y54250D01*
X49829Y55234D02*
X50306D01*
X50613D02*
Y54250D01*
X50920Y55234D02*
Y54250D01*
Y55234D02*
X51397Y54250D01*
Y55234D02*
Y54250D01*
X52215Y55000D02*
X52181Y55093D01*
X52181D02*
X52113Y55187D01*
X52113D02*
X52045Y55234D01*
X51909*
X51840Y55187*
X51840D02*
X51772Y55093D01*
X51772D02*
X51738Y55000D01*
X51738D02*
X51704Y54859D01*
X51704D02*
Y54625D01*
X51704D02*
X51738Y54484D01*
X51738D02*
X51772Y54390D01*
X51772D02*
X51840Y54296D01*
X51840D02*
X51909Y54250D01*
X52045*
X52113Y54296*
X52113D02*
X52181Y54390D01*
X52181D02*
X52215Y54484D01*
X52215D02*
Y54625D01*
X52045D02*
X52215D01*
X52590Y54296D02*
X52556Y54250D01*
X52556D02*
X52522Y54296D01*
X52522D02*
X52556Y54343D01*
X52556D02*
X52590Y54296D01*
X52590D02*
Y54203D01*
X52590D02*
X52556Y54109D01*
X52556D02*
X52522Y54062D01*
X53681Y55234D02*
Y54250D01*
X53988Y55234D02*
Y54250D01*
Y55234D02*
X54465Y54250D01*
Y55234D02*
Y54250D01*
X55284Y55000D02*
X55250Y55093D01*
X55250D02*
X55181Y55187D01*
X55181D02*
X55113Y55234D01*
X55113D02*
X54977D01*
X54909Y55187*
X54909D02*
X54840Y55093D01*
X54840D02*
X54806Y55000D01*
X54806D02*
X54772Y54859D01*
X54772D02*
Y54625D01*
X54772D02*
X54806Y54484D01*
X54806D02*
X54840Y54390D01*
X54840D02*
X54909Y54296D01*
X54909D02*
X54977Y54250D01*
X55113*
X55113D02*
X55181Y54296D01*
X55181D02*
X55250Y54390D01*
X55250D02*
X55284Y54484D01*
X55625Y54343D02*
X55590Y54296D01*
X55590D02*
X55625Y54250D01*
X55659Y54296*
X55659D02*
X55625Y54343D01*
X17000Y51500D02*
G75*
G03X17000I-1000J0D01*
G01X16500D02*
G03X16500I-500J0D01*
G01X16000Y53500D02*
Y49500D01*
X14000Y51500D02*
X18000D01*
X96000D02*
G03X96000I-1000J0D01*
G01X95500D02*
G03X95500I-500J0D01*
G01X95000Y53500D02*
Y49500D01*
X93000Y51500D02*
X97000D01*
X96000Y16000D02*
G03X96000I-1000J0D01*
G01X95500D02*
G03X95500I-500J0D01*
G01X95000Y18000D02*
Y14000D01*
X93000Y16000D02*
X97000D01*
X25000Y20000D02*
X20000D01*
Y24750*
Y42750D02*
Y47560D01*
X24750*
X80410Y47559D02*
X84565D01*
Y45985*
X90865*
Y41300*
X80403Y20000D02*
X84568D01*
Y21573*
X90867*
Y26270*
X20000Y27596D02*
Y31614D01*
X22950*
G03X22949Y35940I7J2163*
G01X22950D02*
X20000D01*
Y39956*
G54D32*
X85445Y26370D02*
X85555D01*
Y26650*
X85695*
Y26850*
X85305*
Y26650*
X85445*
Y26370*
X85325Y26650D02*
Y26850D01*
X85350Y26650D02*
Y26850D01*
X85375Y26650D02*
Y26850D01*
X85400Y26650D02*
Y26850D01*
X85425Y26650D02*
Y26850D01*
X85450Y26370D02*
Y26850D01*
X85475Y26370D02*
Y26850D01*
X85500Y26370D02*
Y26850D01*
X85525Y26370D02*
Y26850D01*
X85550Y26370D02*
Y26850D01*
X85575Y26650D02*
Y26850D01*
X85600Y26650D02*
Y26850D01*
X85625Y26650D02*
Y26850D01*
X85650Y26650D02*
Y26850D01*
X85675Y26650D02*
Y26850D01*
X51846Y42740D02*
Y41260D01*
X51846D02*
X51956D01*
X51956D02*
Y41633D01*
X51956D02*
X52043D01*
X52043D02*
Y41260D01*
X52153*
X52153D02*
Y42740D01*
X52153D02*
X52043D01*
Y42326*
X52043D02*
X51956D01*
X51956D02*
Y42740D01*
X51956D02*
X51846D01*
X51850Y41260D02*
Y42740D01*
X51875Y41260D02*
Y42740D01*
X51900Y41260D02*
Y42740D01*
X51925Y41260D02*
Y42740D01*
X51950Y41260D02*
Y42740D01*
X51975Y41633D02*
Y42326D01*
X52000Y41633D02*
Y42326D01*
X52025Y41633D02*
Y42326D01*
X52050Y41260D02*
Y42740D01*
X52075Y41260D02*
Y42740D01*
X52100Y41260D02*
Y42740D01*
X52125Y41260D02*
Y42740D01*
X52150Y41260D02*
Y42740D01*
G54D33*
X52250Y44050D03*
Y45450D03*
Y38550D03*
Y39950D03*
G54D73*
X88750Y41529D03*
Y43779D03*
G54D74*
Y40529D03*
X87750Y41529D03*
Y40529D03*
X88750Y42779D03*
X87750Y43779D03*
Y42779D03*
G54D76*
X76000Y23090D03*
Y23410D03*
X50750Y33840D03*
Y34160D03*
X79000Y37565D03*
Y37885D03*
X82025Y32410D03*
Y32090D03*
X82000Y34090D03*
Y34410D03*
X77000Y42290D03*
Y42610D03*
G54D79*
X88311Y25154D03*
Y27904D03*
X60669Y32834D03*
X67440Y39606D03*
X67283Y45984D03*
X60748Y42047D03*
X62500Y28750D03*
X66000Y25250D03*
X89000Y44750D03*
Y23000D03*
X22250Y44750D03*
G54D83*
X60750Y20970D03*
Y21530D03*
X60000Y20970D03*
Y21530D03*
X59250Y20970D03*
Y21530D03*
X58500Y20970D03*
Y21530D03*
G54D84*
X65431Y28685D03*
X65273D03*
X65116D03*
X64958D03*
X64801D03*
X64643D03*
X64486D03*
X64328D03*
X64171D03*
X64013D03*
X63856D03*
X63698D03*
X63541D03*
X63383D03*
X63226D03*
X63068D03*
Y25315D03*
X63226D03*
X63383D03*
X63541D03*
X63698D03*
X63856D03*
X64013D03*
X64171D03*
X64328D03*
X64486D03*
X64643D03*
X64801D03*
X64958D03*
X65116D03*
X65273D03*
X65431D03*
G54D85*
X65935Y25818D03*
Y25976D03*
Y26133D03*
Y26291D03*
Y26448D03*
Y26606D03*
Y26763D03*
Y26921D03*
Y27078D03*
Y27236D03*
Y27393D03*
Y27551D03*
Y27708D03*
Y27866D03*
Y28023D03*
Y28181D03*
X62565D03*
Y28023D03*
Y27866D03*
Y27708D03*
Y27551D03*
Y27393D03*
Y27236D03*
Y27078D03*
Y26921D03*
Y26763D03*
Y26606D03*
Y26448D03*
Y26291D03*
Y26133D03*
Y25976D03*
Y25818D03*
G54D86*
X64250Y27000D03*
G54D89*
X46500Y35374D03*
Y35000D03*
Y34626D03*
X47500D03*
Y35000D03*
Y35374D03*
X46500Y37374D03*
Y37000D03*
Y36626D03*
X47500D03*
Y37000D03*
Y37374D03*
X46500Y32624D03*
Y32250D03*
Y31876D03*
X47500D03*
Y32250D03*
Y32624D03*
X46500Y30624D03*
Y30250D03*
Y29876D03*
X47500D03*
Y30250D03*
Y30624D03*
X46500Y39374D03*
Y39000D03*
Y38626D03*
X47500D03*
Y39000D03*
Y39374D03*
X46500Y41374D03*
Y41000D03*
Y40626D03*
X47500D03*
Y41000D03*
Y41374D03*
X46500Y26624D03*
Y26250D03*
Y25876D03*
X47500D03*
Y26250D03*
Y26624D03*
X46500Y28624D03*
Y28250D03*
Y27876D03*
X47500D03*
Y28250D03*
Y28624D03*
X46500Y24624D03*
Y24250D03*
Y23876D03*
X47500D03*
Y24250D03*
Y24624D03*
X46500Y22624D03*
Y22250D03*
Y21876D03*
X47500D03*
Y22250D03*
Y22624D03*
X46500Y43374D03*
Y43000D03*
Y42626D03*
X47500D03*
Y43000D03*
Y43374D03*
X46500Y45374D03*
Y45000D03*
Y44626D03*
X47500D03*
Y45000D03*
Y45374D03*
G54D90*
X50450Y23250D03*
X50050D03*
X67000Y26250D03*
Y27750D03*
Y28500D03*
X66692Y40236D03*
X67250Y32500D03*
X59500Y34000D03*
X60250Y35250D03*
Y34500D03*
Y33750D03*
X66500Y32500D03*
X65000D03*
X68250Y39000D03*
X59566Y38700D03*
X61500Y28500D03*
X59500Y34750D03*
Y32750D03*
Y32000D03*
G54D92*
X66732Y38897D03*
Y38582D03*
Y38267D03*
Y37952D03*
Y37637D03*
Y37322D03*
Y37007D03*
Y36692D03*
Y36378D03*
Y36063D03*
Y35748D03*
Y35433D03*
Y35118D03*
Y34803D03*
Y34488D03*
Y34173D03*
Y33858D03*
Y33543D03*
X66417Y38897D03*
Y38582D03*
Y38267D03*
Y37952D03*
Y37637D03*
Y37322D03*
Y37007D03*
Y36692D03*
Y36378D03*
Y36063D03*
Y35748D03*
Y35433D03*
Y35118D03*
Y34803D03*
Y34488D03*
Y34173D03*
Y33858D03*
Y33543D03*
X66102Y38897D03*
Y38582D03*
Y38267D03*
Y37952D03*
Y37637D03*
Y37322D03*
Y37007D03*
Y36692D03*
Y36378D03*
Y36063D03*
Y35748D03*
Y35433D03*
Y35118D03*
Y34803D03*
Y34488D03*
Y34173D03*
Y33858D03*
Y33543D03*
X65787Y38897D03*
Y38582D03*
Y38267D03*
Y37952D03*
Y37637D03*
Y37322D03*
Y37007D03*
Y36692D03*
Y36378D03*
Y36063D03*
Y35748D03*
Y35433D03*
Y35118D03*
Y34803D03*
Y34488D03*
Y34173D03*
Y33858D03*
Y33543D03*
X65472Y38897D03*
Y38582D03*
Y38267D03*
Y37952D03*
Y37637D03*
Y37322D03*
Y37007D03*
Y36692D03*
Y36378D03*
Y36063D03*
Y35748D03*
Y35433D03*
Y35118D03*
Y34803D03*
Y34488D03*
Y34173D03*
Y33858D03*
Y33543D03*
X65157Y38897D03*
Y38582D03*
Y38267D03*
Y37952D03*
Y37637D03*
Y37322D03*
Y37007D03*
Y36692D03*
Y36378D03*
Y36063D03*
Y35748D03*
Y35433D03*
Y35118D03*
Y34803D03*
Y34488D03*
Y34173D03*
Y33858D03*
Y33543D03*
X64842Y38897D03*
Y38582D03*
Y38267D03*
Y37952D03*
Y37637D03*
Y37322D03*
Y37007D03*
Y36692D03*
Y36378D03*
Y36063D03*
Y35748D03*
Y35433D03*
Y35118D03*
Y34803D03*
Y34488D03*
Y34173D03*
Y33858D03*
Y33543D03*
X64527Y38897D03*
Y38582D03*
Y38267D03*
Y37952D03*
Y37637D03*
Y37322D03*
Y37007D03*
Y36692D03*
Y36378D03*
Y36063D03*
Y35748D03*
Y35433D03*
Y35118D03*
Y34803D03*
Y34488D03*
Y34173D03*
Y33858D03*
Y33543D03*
X64212Y38897D03*
Y38582D03*
Y38267D03*
Y37952D03*
Y37637D03*
Y37322D03*
Y37007D03*
Y36692D03*
Y36378D03*
Y36063D03*
Y35748D03*
Y35433D03*
Y35118D03*
Y34803D03*
Y34488D03*
Y34173D03*
Y33858D03*
Y33543D03*
X63897Y38897D03*
Y38582D03*
Y38267D03*
Y37952D03*
Y37637D03*
Y37322D03*
Y37007D03*
Y36692D03*
Y36378D03*
Y36063D03*
Y35748D03*
Y35433D03*
Y35118D03*
Y34803D03*
Y34488D03*
Y34173D03*
Y33858D03*
Y33543D03*
X63582Y38897D03*
Y38582D03*
Y38267D03*
Y37952D03*
Y37637D03*
Y37322D03*
Y37007D03*
Y36692D03*
Y36378D03*
Y36063D03*
Y35748D03*
Y35433D03*
Y35118D03*
Y34803D03*
Y34488D03*
Y34173D03*
Y33858D03*
Y33543D03*
X63267Y38897D03*
Y38582D03*
Y38267D03*
Y37952D03*
Y37637D03*
Y37322D03*
Y37007D03*
Y36692D03*
Y36378D03*
Y36063D03*
Y35748D03*
Y35433D03*
Y35118D03*
Y34803D03*
Y34488D03*
Y34173D03*
Y33858D03*
Y33543D03*
X62952Y38897D03*
Y38582D03*
Y38267D03*
Y37952D03*
Y37637D03*
Y37322D03*
Y37007D03*
Y36692D03*
Y36378D03*
Y36063D03*
Y35748D03*
Y35433D03*
Y35118D03*
Y34803D03*
Y34488D03*
Y34173D03*
Y33858D03*
Y33543D03*
X62637Y38897D03*
Y38582D03*
Y38267D03*
Y37952D03*
Y37637D03*
Y37322D03*
Y37007D03*
Y36692D03*
Y36378D03*
Y36063D03*
Y35748D03*
Y35433D03*
Y35118D03*
Y34803D03*
Y34488D03*
Y34173D03*
Y33858D03*
Y33543D03*
X62322Y38897D03*
Y38582D03*
Y38267D03*
Y37952D03*
Y37637D03*
Y37322D03*
Y37007D03*
Y36692D03*
Y36378D03*
Y36063D03*
Y35748D03*
Y35433D03*
Y35118D03*
Y34803D03*
Y34488D03*
Y34173D03*
Y33858D03*
Y33543D03*
X62007Y38897D03*
Y38582D03*
Y38267D03*
Y37952D03*
Y37637D03*
Y37322D03*
Y37007D03*
Y36692D03*
Y36378D03*
Y36063D03*
Y35748D03*
Y35433D03*
Y35118D03*
Y34803D03*
Y34488D03*
Y34173D03*
Y33858D03*
Y33543D03*
X61692Y38897D03*
Y38582D03*
Y38267D03*
Y37952D03*
Y37637D03*
Y37322D03*
Y37007D03*
Y36692D03*
Y36378D03*
Y36063D03*
Y35748D03*
Y35433D03*
Y35118D03*
Y34803D03*
Y34488D03*
Y34173D03*
Y33858D03*
Y33543D03*
X61378Y38897D03*
Y38582D03*
Y38267D03*
Y37952D03*
Y37637D03*
Y37322D03*
Y37007D03*
Y36692D03*
Y36378D03*
Y36063D03*
Y35748D03*
Y35433D03*
Y35118D03*
Y34803D03*
Y34488D03*
Y34173D03*
Y33858D03*
Y33543D03*
X61653Y42755D03*
Y43070D03*
Y43385D03*
Y44645D03*
Y44960D03*
Y45275D03*
X61968Y42755D03*
Y43070D03*
Y43385D03*
Y44645D03*
Y44960D03*
Y45275D03*
X62283Y42755D03*
Y43070D03*
Y43385D03*
Y44645D03*
Y44960D03*
Y45275D03*
X62598Y42755D03*
Y43070D03*
Y43385D03*
Y44645D03*
Y44960D03*
Y45275D03*
X62913Y42755D03*
Y43070D03*
Y43385D03*
Y44645D03*
Y44960D03*
Y45275D03*
X63228Y42755D03*
Y43070D03*
Y43385D03*
Y44645D03*
Y44960D03*
Y45275D03*
X63543Y42755D03*
Y43070D03*
Y43385D03*
Y44645D03*
Y44960D03*
Y45275D03*
X63858Y42755D03*
Y43070D03*
Y43385D03*
Y44645D03*
Y44960D03*
Y45275D03*
X64173Y42755D03*
Y43070D03*
Y43385D03*
Y44645D03*
Y44960D03*
Y45275D03*
X64488Y43070D03*
Y43385D03*
Y44645D03*
Y44960D03*
Y45275D03*
X64803Y42755D03*
Y43070D03*
Y43385D03*
Y44645D03*
Y44960D03*
X65118Y43070D03*
Y43385D03*
Y44645D03*
Y44960D03*
Y45275D03*
X65433Y42755D03*
Y43070D03*
Y43385D03*
Y44645D03*
Y44960D03*
X65748Y43070D03*
Y43385D03*
Y44645D03*
Y44960D03*
Y45275D03*
X66063Y42755D03*
Y43070D03*
Y43385D03*
Y44645D03*
Y44960D03*
X64488Y42755D03*
X65118D03*
X65748D03*
X64803Y45275D03*
X65433D03*
X66063D03*
X66378Y42755D03*
Y43070D03*
Y43385D03*
Y44645D03*
Y44960D03*
Y45275D03*
G54D93*
X87380Y38100D03*
X88120D03*
X87750Y38900D03*
X87630Y29100D03*
X88370D03*
X88000Y29900D03*
X68620Y26400D03*
X67880D03*
X68250Y25600D03*
G54D94*
X68410Y27000D03*
X68090D03*
X50410Y22000D03*
X50090D03*
X60065Y40725D03*
X60385D03*
X70465Y43500D03*
X70785D03*
X70465Y44125D03*
X70785D03*
X70465Y44750D03*
X70785D03*
X70465Y45375D03*
X70785D03*
X85340Y25750D03*
X85660D03*
G54D155*
X69440Y37250D03*
X69060D03*
X78200Y25490D03*
Y25110D03*
X58060Y40500D03*
X58440D03*
X58060Y38375D03*
X58440D03*
X58060Y41750D03*
X58440D03*
X58060Y41125D03*
X58440D03*
G54D183*
X55250Y28150D03*
Y27350D03*
X56500Y28150D03*
Y27350D03*
X72650Y45250D03*
Y44450D03*
X54000Y45150D03*
Y44350D03*
X55250Y45150D03*
Y44350D03*
Y38850D03*
Y39650D03*
X54000Y38850D03*
Y39650D03*
X49275Y42100D03*
Y42900D03*
X54250Y33900D03*
Y33100D03*
X50250Y31400D03*
Y30600D03*
X54250Y31400D03*
Y30600D03*
X50250Y36400D03*
Y35600D03*
X54250Y36400D03*
Y35600D03*
X60750Y31150D03*
Y30350D03*
X67250Y31150D03*
Y30350D03*
X77000Y41250D03*
Y40450D03*
G54D189*
X21543Y22750D03*
X24456D03*
G54D193*
X83626Y26250D03*
X84000D03*
X84374D03*
Y27250D03*
X84000D03*
X83626D03*
G54D240*
X81189Y33391D03*
Y33667D03*
Y33042D03*
Y32766D03*
Y35516D03*
Y35792D03*
Y35167D03*
Y34891D03*
X76250Y30362D03*
Y30638D03*
X80561Y30858D03*
Y30582D03*
X77525Y25237D03*
Y25513D03*
X76750Y30638D03*
Y30362D03*
X83950Y23512D03*
Y23788D03*
X77500Y23388D03*
Y23112D03*
X76750Y23388D03*
Y23112D03*
X74500Y23388D03*
Y23112D03*
X70000Y23388D03*
Y23112D03*
X70750Y23388D03*
Y23112D03*
X71500Y23388D03*
Y23112D03*
X75250Y23388D03*
Y23112D03*
X69250D03*
Y23388D03*
X73750D03*
Y23112D03*
X73000D03*
Y23388D03*
X72250D03*
Y23112D03*
X74250Y30638D03*
Y30362D03*
X73750Y30638D03*
Y30362D03*
X65250Y23112D03*
Y23388D03*
X64500Y23112D03*
Y23388D03*
X63750Y23112D03*
Y23388D03*
X63000Y23112D03*
Y23388D03*
X69500Y28138D03*
Y27862D03*
X53750Y42388D03*
Y42112D03*
Y41362D03*
Y41638D03*
X50750Y33388D03*
Y33112D03*
X66250Y31112D03*
Y31388D03*
X63250Y31112D03*
Y31388D03*
X76750Y31862D03*
Y32138D03*
X64250Y31388D03*
Y31112D03*
X63750Y31388D03*
Y31112D03*
X64750Y31388D03*
Y31112D03*
X65750Y31388D03*
Y31112D03*
X65250Y31388D03*
Y31112D03*
X62750Y31388D03*
Y31112D03*
X61750Y31388D03*
Y31112D03*
X62250Y31388D03*
Y31112D03*
X66574Y41594D03*
Y41318D03*
X86500Y27138D03*
Y26862D03*
Y26388D03*
Y26112D03*
X85500Y29112D03*
Y29388D03*
Y38362D03*
Y38638D03*
X80689Y33667D03*
Y33391D03*
Y32766D03*
Y33042D03*
Y35792D03*
Y35516D03*
Y34891D03*
Y35167D03*
X77750Y31862D03*
Y32138D03*
X89250Y38362D03*
Y38638D03*
X89500Y29638D03*
Y29362D03*
X86250Y38638D03*
Y38362D03*
Y29388D03*
Y29112D03*
X79000Y38638D03*
Y38362D03*
X77000Y36638D03*
Y36362D03*
X76500Y36638D03*
Y36362D03*
X79000Y31862D03*
Y32138D03*
X77250D03*
Y31862D03*
G54D242*
X49862Y27125D03*
X50138D03*
X50112Y22500D03*
X50388D03*
X50138Y27625D03*
X49862D03*
X49388Y23250D03*
X49112D03*
X69112Y35250D03*
X69388D03*
X69112Y35750D03*
X69388D03*
Y34750D03*
X69112D03*
X69388Y36250D03*
X69112D03*
X69388Y37750D03*
X69112D03*
X69388Y38250D03*
X69112D03*
X69388Y38750D03*
X69112D03*
X58388Y40000D03*
X58112D03*
X69388Y36750D03*
X69112D03*
X58112Y39250D03*
X58388D03*
X58112Y39625D03*
X58388D03*
X56987Y37875D03*
X57263D03*
X56987Y38375D03*
X57263D03*
X58112Y37875D03*
X58388D03*
X58112Y38875D03*
X58388D03*
X56987Y40000D03*
X57263D03*
X56987Y40500D03*
X57263D03*
X56987Y41750D03*
X57263D03*
X68112Y43875D03*
X68388D03*
X68112Y43500D03*
X68388D03*
X68112Y42750D03*
X68388D03*
X68112Y45375D03*
X68388D03*
X68112Y42375D03*
X68388D03*
X68112Y45000D03*
X68388D03*
X68112Y43125D03*
X68388D03*
X68112Y44625D03*
X68388D03*
X68112Y45750D03*
X68388D03*
X68112Y44250D03*
X68388D03*
X68112Y46125D03*
X68388D03*
X68112Y42000D03*
X68388D03*
X86638D03*
X86362D03*
X86638Y41000D03*
X86362D03*
X86638Y44500D03*
X86362D03*
X86638Y43000D03*
X86362D03*
X74202Y32279D03*
X73926D03*
X74676D03*
X74952D03*
X73926Y34779D03*
X74202D03*
X73926Y34279D03*
X74202D03*
X73926Y35279D03*
X74202D03*
X73926Y35779D03*
X74202D03*
X73926Y36279D03*
X74202D03*
X73926Y32779D03*
X74202D03*
X74676Y34279D03*
X74952D03*
X74676Y34779D03*
X74952D03*
X74676Y35279D03*
X74952D03*
X74676Y35779D03*
X74952D03*
X74676Y36279D03*
X74952D03*
X74676Y32779D03*
X74952D03*
X56987Y41125D03*
X57263D03*
G54D245*
X58705Y35620D03*
X57795D03*
Y34880D03*
X58705D03*
G54D246*
X78799Y40850D03*
Y41283D03*
Y41716D03*
Y42149D03*
Y42582D03*
Y43015D03*
Y43448D03*
Y43881D03*
G54D247*
X78996Y39452D03*
G54D248*
Y44708D03*
G54D249*
X83838Y40200D03*
G54D250*
X83799Y41401D03*
Y43330D03*
G54D251*
X74500Y43300D03*
X75000D03*
X75500D03*
X76000D03*
Y45200D03*
X75500D03*
X75000D03*
X74500D03*
X79200Y25575D03*
X79700D03*
X80200D03*
X80700D03*
X81200D03*
X81700D03*
X82200D03*
X82700D03*
Y29275D03*
X82200D03*
X81700D03*
X81200D03*
X80700D03*
X80200D03*
X79700D03*
X79200D03*
G54D252*
X75250Y44250D03*
G54D336*
X85300Y26460D03*
X85500D03*
X85700D03*
Y27040D03*
X85500D03*
X85300D03*
G54D337*
X71330Y38750D03*
X70670D03*
X58580Y32500D03*
X57920D03*
X80670Y34250D03*
X81330D03*
X70670Y34750D03*
X71330D03*
X70670Y35750D03*
X71330D03*
X70670Y37750D03*
X71330D03*
X70670Y36750D03*
X71330D03*
X77920Y36500D03*
X78580D03*
X74894Y33529D03*
X74234D03*
G54D338*
X75500Y46500D03*
X76300D03*
X75650Y41750D03*
X74850D03*
X69100Y39500D03*
X69900D03*
X58650Y36875D03*
X57850D03*
X58650Y42750D03*
X57850D03*
X58650Y33500D03*
X57850D03*
G54D339*
X56500Y22350D03*
Y23650D03*
X55250Y22350D03*
Y23650D03*
G54D340*
X78000Y38450D03*
X77000D03*
Y37550D03*
X78000D03*
G54D341*
X68570Y28240D03*
X67930D03*
Y27760D03*
X68570D03*
G54D342*
X76125Y27250D03*
X76375D03*
X76625D03*
X76875D03*
X77125D03*
X77375D03*
X77625D03*
X77875D03*
Y29250D03*
X77625D03*
X77375D03*
X77125D03*
X76875D03*
X76625D03*
X76375D03*
X76125D03*
X73616Y27162D03*
X73872D03*
X74128D03*
X74383D03*
Y29337D03*
X74128D03*
X73872D03*
X73616D03*
G54D343*
X53480Y22250D03*
Y22750D03*
Y23250D03*
Y23750D03*
X51520D03*
Y23250D03*
Y22750D03*
Y22250D03*
G54D344*
X52500Y23000D03*
G54D345*
X51420Y42393D03*
Y42196D03*
Y42000D03*
Y41803D03*
Y41606D03*
X52580D03*
Y41803D03*
Y42000D03*
Y42196D03*
Y42393D03*
G54D346*
X52000Y42000D03*
G54D347*
X51875Y33795D03*
Y33598D03*
Y33401D03*
Y33204D03*
X52624D03*
Y33401D03*
Y33598D03*
Y33795D03*
G54D348*
X52250Y33500D03*
G54D349*
X78439Y35175D03*
X78242D03*
X78045D03*
X77848D03*
X77651D03*
X77454D03*
X77257D03*
X77061D03*
Y33325D03*
X77257D03*
X77454D03*
X77651D03*
X77848D03*
X78045D03*
X78242D03*
X78439D03*
G54D350*
X76825Y34939D03*
Y34742D03*
Y34545D03*
Y34348D03*
Y34151D03*
Y33954D03*
Y33757D03*
Y33561D03*
X78675D03*
Y33757D03*
Y33954D03*
Y34151D03*
Y34348D03*
Y34545D03*
Y34742D03*
Y34939D03*
G54D351*
X77750Y34250D03*
G54D352*
X43500Y42043D03*
Y44956D03*
Y36043D03*
Y38956D03*
Y28293D03*
Y31206D03*
Y25206D03*
Y22293D03*
G54D353*
X84994Y41126D03*
X85250D03*
X85505D03*
Y41874D03*
X85250D03*
X84994D03*
Y43126D03*
X85250D03*
X85505D03*
Y43874D03*
X85250D03*
X84994D03*
G54D354*
X51780Y31374D03*
Y31000D03*
Y30626D03*
X52720D03*
Y31374D03*
X51780Y36374D03*
Y36000D03*
Y35626D03*
X52720D03*
Y36374D03*
G54D355*
X52500Y25215D03*
Y28285D03*
G54D356*
X71181Y25905D03*
Y41653D03*
G54D357*
X22952D03*
Y25905D03*
G54D358*
X86049Y30718D03*
Y36840D03*
G54D359*
X87250Y31529D03*
Y36029D03*
G74*
X0Y0D02*
M02*
