%
T1C.01F95S300
X61220Y35591
X61535Y33701
X61850Y34331
X61850Y34646
X62165Y34016
X62165Y34331
X62165Y35591
X62480Y34016
X62480Y34331
X62480Y33701
X62480Y34961
X62480Y35276
X62480Y35591
X62795Y33701
X62795Y34961
X62795Y34331
X62795Y35591
X62835Y35276
X63110Y34331
X63110Y34961
X63110Y33701
X63425Y34331
X63425Y33386
X63425Y33701
X63425Y35276
X63425Y34016
X63425Y34961
X63425Y35591
X63740Y34331
X63740Y34961
X63740Y34016
X64055Y34331
X64055Y34016
X64055Y34961
X64055Y35276
X64055Y35591
X64370Y34016
X64370Y34961
X64370Y34331
X64685Y34331
X64685Y34961
X64685Y35276
X64685Y35591
X65000Y33701
X65000Y33386
X65000Y34331
X65315Y34646
X65315Y34331
X65315Y33701
X65315Y34961
X65315Y35591
X65315Y34016
X65315Y35276
X65630Y34646
X65630Y34331
X65630Y34016
X65866Y33189
X65945Y34331
X65945Y34016
X65945Y35276
X65945Y35591
X66260Y34016
X66260Y35591
X66260Y34331
X66260Y33386
X66260Y33701
X66575Y35591
X66575Y34646
X66890Y33386
X66890Y34646
X77250Y34750
X77250Y34250
X77250Y33750
X77750Y34750
X77750Y34250
X77750Y33750
X78250Y34250
X78250Y33750
X78250Y34750
X81500Y32775
X81500Y34900
X81500Y33675
X82000Y34725
X81500Y35800
X67087Y37244
X67008Y37638
X66975Y36500
X66575Y36220
X66575Y37165
X66260Y36220
X66260Y37480
X65945Y36850
X65945Y37480
X65945Y36220
X65945Y37795
X65945Y36535
X65630Y35906
X65630Y36220
X65630Y37165
X65630Y37795
X65315Y37795
X65315Y37165
X65315Y35906
X65315Y36850
X65315Y36535
X65315Y36220
X65000Y37795
X65000Y37165
X64685Y37795
X64685Y37165
X64685Y35906
X64685Y36535
X64685Y36850
X64685Y36220
X64370Y37165
X64370Y37795
X64055Y37165
X64055Y36220
X64055Y36850
X64055Y37795
X64055Y35906
X64055Y36535
X63740Y37165
X63740Y37795
X63425Y36535
X63425Y36850
X63425Y36220
X63425Y35906
X63425Y37165
X63110Y37480
X63110Y37165
X62795Y36850
X62795Y36535
X62795Y36220
X62795Y37165
X62795Y35906
X62480Y37480
X62480Y37165
X62165Y36220
X62165Y37795
X62165Y35906
X62165Y36535
X62165Y36850
X61850Y37795
X61850Y36850
X61850Y36535
X61535Y37165
X61535Y36850
X61535Y36535
X61220Y36220
X61220Y37165
X61220Y36535
X61220Y36850
X60630Y38425
X60725Y38925
X61063Y38937
X61850Y38740
X61850Y38110
X61850Y38425
X62165Y38110
X62480Y38425
X62480Y38110
X62795Y38740
X62795Y38110
X62795Y38425
X63110Y39685
X63110Y38110
X63110Y38740
X63110Y38425
X63425Y38110
X63425Y38425
X63740Y38740
X63740Y38110
X63740Y38425
X63780Y40472
X63780Y40197
X64055Y38110
X64055Y38740
X64055Y38425
X64685Y38740
X64685Y38425
X64685Y39055
X64685Y38110
X65000Y38740
X65000Y38425
X65000Y38110
X65315Y38740
X65315Y38110
X65315Y38425
X65630Y38425
X65630Y38110
X65630Y38740
X65945Y38110
X65945Y38425
X66024Y39567
X66024Y39843
X66024Y40118
X66260Y38110
X66260Y39173
X66260Y38740
X66260Y38425
X66575Y38740
X66575Y38425
X67244Y39094
X67625Y38125
X67992Y40236
X67205Y41929
X66220Y42913
X66220Y42598
X65906Y42913
X65906Y42598
X65591Y42913
X65591Y42598
X65276Y42913
X65276Y42598
X65197Y41496
X65079Y41772
X64606Y40709
X64567Y40984
X64499Y41659
X64488Y41929
X64475Y41300
X64331Y42913
X64331Y42598
X63701Y42913
X63701Y42598
X63386Y42598
X63307Y41220
X63071Y42598
X62953Y40827
X62756Y42598
X62126Y42520
X62126Y42244
X61811Y42598
X61811Y42913
X61654Y40787
X61496Y42913
X61496Y42598
X61496Y45433
X61496Y45118
X61575Y44350
X61811Y43819
X61811Y43543
X61811Y43228
X61811Y45433
X61811Y44803
X62126Y44803
X62126Y45433
X62244Y43780
X62402Y44173
X62441Y43228
X62441Y44803
X62441Y45433
X62598Y43858
X62756Y43228
X62756Y44803
X62756Y45433
X63071Y45118
X63071Y44803
X63071Y44331
X63071Y43583
X63071Y43858
X63071Y45433
X63386Y43543
X63386Y44488
X63386Y43858
X63386Y44803
X63386Y43228
X63386Y45433
X63386Y45118
X63701Y45433
X63701Y43228
X64016Y44803
X64055Y44173
X64331Y43543
X64331Y44803
X64331Y43228
X64331Y44488
X64646Y44488
X64646Y44803
X64646Y45118
X64961Y45118
X64961Y44488
X64961Y45433
X65000Y43976
X65276Y43228
X65276Y43543
X65276Y44803
X65551Y43858
X65591Y43543
X65591Y45433
X65906Y44488
X65906Y43543
X65906Y45433
X65906Y44803
X65984Y44173
X66220Y43543
X66220Y44331
X66220Y44803
X66220Y45433
X66535Y45433
X66535Y43543
X66575Y44173
X64134Y45748
T2C.013F95S300
X20725Y22850
X24150Y21500
X24150Y21850
X24650Y21700
X25475Y22750
X42650Y22100
X42650Y22425
X44500Y22250
X45425Y21625
X45936Y21899
X46500Y23000
X47000Y22250
X47001Y22624
X48025Y22250
X48025Y21875
X49625Y22200
X52125Y22500
X52125Y23000
X52500Y22500
X52500Y23000
X52875Y22500
X52875Y23000
X53475Y21800
X57850Y21950
X58500Y20600
X58500Y22475
X59250Y20600
X59250Y22450
X60000Y22450
X60000Y20600
X60750Y20600
X61425Y21525
X83950Y23025
X79700Y24950
X77525Y24850
X77500Y23750
X76750Y23750
X76700Y25500
X76000Y23750
X75250Y23750
X74500Y23750
X74000Y24600
X73750Y23750
X73300Y24375
X73000Y23750
X71500Y23725
X70750Y23725
X70375Y23725
X70000Y23725
X69650Y24500
X69275Y24775
X69250Y23725
X68875Y24775
X68425Y24350
X68150Y23950
X66825Y24700
X66825Y25150
X66000Y23100
X65875Y24450
X65425Y24475
X65250Y23775
X64875Y23100
X64500Y23775
X64250Y24750
X64125Y23425
X63750Y23775
X63000Y23775
X62600Y23125
X61375Y25375
X58800Y23200
X58189Y23622
X56500Y24250
X56500Y25250
X56500Y24750
X56125Y24250
X56125Y25250
X56125Y24750
X55625Y24250
X55625Y24750
X55625Y25250
X55250Y24250
X55250Y24750
X55250Y25250
X54375Y23325
X52875Y23500
X52500Y23500
X52125Y23500
X48675Y23250
X48025Y24250
X48025Y23875
X47014Y24601
X47000Y24250
X45949Y23876
X45675Y24625
X45075Y23700
X44800Y24800
X44425Y24800
X42750Y24500
X42325Y25200
X20725Y23200
X20725Y23575
X42325Y25675
X42325Y26150
X43850Y27625
X45925Y27900
X45949Y25876
X46525Y27100
X47000Y26250
X47014Y26601
X48025Y27875
X48025Y25875
X48025Y26250
X49100Y26050
X49500Y26425
X50500Y27125
X55200Y26850
X55250Y25750
X55625Y26850
X55625Y25750
X56125Y26850
X56125Y25750
X56500Y25750
X56600Y26850
X61475Y27025
X61950Y27900
X62025Y27225
X62025Y26750
X63500Y26250
X63500Y27250
X63500Y27750
X63500Y26750
X64000Y26250
X64000Y27250
X64000Y26750
X64000Y27750
X64500Y26250
X64500Y27750
X64500Y26750
X64500Y27250
X65000Y27250
X65000Y26750
X65000Y27750
X65000Y26250
X66400Y26075
X66525Y26925
X66675Y27475
X66700Y26500
X67075Y27300
X68700Y25600
X68825Y26925
X69125Y26400
X73750Y26550
X74250Y26550
X76125Y25950
X76650Y27900
X76650Y26450
X77725Y26350
X78300Y27250
X79700Y26200
X80200Y27000
X83000Y27275
X84000Y27725
X84000Y26725
X84775Y27250
X84875Y26750
X84975Y25750
X85500Y27850
X85500Y27425
X85950Y26750
X86025Y25775
X86500Y27550
X89500Y28950
X88875Y29100
X85500Y28700
X84925Y29400
X82200Y29975
X79200Y28550
X78725Y28550
X77675Y28375
X77300Y30375
X76975Y28225
X76425Y29875
X76100Y29900
X74250Y30000
X73875Y28750
X73750Y30025
X73250Y29175
X71225Y29875
X69750Y29475
X69075Y28375
X69050Y28725
X67250Y29250
X67200Y29800
X67200Y28100
X66925Y29025
X66600Y28475
X66500Y30150
X66375Y28150
X66175Y29625
X65925Y28825
X65550Y29150
X65500Y30000
X65125Y30000
X64725Y30375
X64500Y29225
X64275Y30375
X64000Y30150
X63650Y29575
X63622Y30000
X62875Y29550
X62100Y29550
X60325Y29550
X56500Y29000
X54250Y30025
X53125Y30175
X50250Y30050
X48025Y29875
X48025Y30250
X48025Y28250
X47000Y28625
X47000Y28250
X47000Y30250
X46500Y29125
X45949Y29876
X45275Y30575
X45250Y29825
X44500Y28250
X43875Y29775
X42475Y28850
X42650Y31100
X43250Y31900
X45949Y31876
X46475Y31075
X47000Y30600
X47000Y32600
X47000Y32250
X48025Y31875
X48025Y32850
X48025Y32250
X50750Y32750
X50925Y32075
X51250Y31375
X51275Y30850
X52275Y31000
X55125Y31400
X56400Y31925
X57125Y31925
X57275Y32500
X60750Y31725
X61732Y30709
X61732Y32283
X62244Y30709
X62244Y31732
X62756Y31732
X62756Y30709
X63225Y33000
X63268Y30748
X63740Y30748
X63937Y32913
X64094Y32126
X64252Y30748
X64409Y31732
X64646Y32126
X64764Y30748
X65236Y30748
X65236Y31850
X65748Y30748
X65748Y31732
X66142Y32913
X66260Y31732
X66496Y32126
X67175Y31675
X67244Y32913
X72925Y32675
X73450Y32625
X73750Y31000
X74200Y31950
X74250Y31000
X74675Y31950
X76750Y31475
X77050Y32900
X77250Y31475
X77450Y32900
X77750Y31475
X77850Y32900
X78050Y32450
X78250Y31600
X78450Y31175
X78675Y30850
X79000Y31500
X80375Y32775
X80575Y31175
X82025Y31675
X82450Y32400
X82450Y34090
X80375Y34900
X80375Y33675
X80150Y34250
X79225Y34950
X79225Y34000
X78975Y35400
X76475Y33375
X76250Y34250
X75900Y33150
X75375Y33525
X73775Y33525
X73550Y34775
X73550Y35275
X73550Y34275
X73225Y35025
X73225Y35525
X72775Y33600
X72700Y35225
X71925Y34725
X70675Y35225
X69764Y34764
X69764Y35236
X68150Y34409
X68075Y35400
X68071Y34882
X67677Y35394
X67677Y34606
X67638Y34134
X67362Y34606
X67362Y35394
X67323Y34134
X61732Y33268
X61024Y33583
X60669Y35236
X60079Y33307
X59875Y34725
X59500Y34375
X59325Y33575
X58701Y34421
X57874Y34421
X57275Y33500
X57200Y34750
X55575Y35000
X54900Y33100
X54875Y33900
X54250Y35050
X53125Y33400
X52250Y33650
X52250Y33350
X51550Y33400
X51125Y34150
X50250Y35050
X50125Y33400
X48025Y34150
X48025Y34625
X48025Y35000
X47000Y35375
X47000Y35000
X45925Y34650
X45750Y35375
X45650Y34100
X45375Y33125
X42725Y36600
X43875Y37500
X44450Y35625
X44500Y36000
X45150Y38000
X45150Y37525
X45949Y36626
X47000Y37350
X47000Y37000
X48025Y36625
X48025Y37000
X52250Y36000
X52250Y35600
X55250Y35875
X56625Y37875
X56625Y37375
X57175Y36875
X57675Y37400
X57725Y37875
X57992Y36154
X59252Y35720
X59300Y36850
X59843Y36929
X59961Y35984
X60315Y35630
X60354Y36890
X60669Y36339
X60669Y36890
X67047Y35945
X67900Y36925
X68031Y36339
X68071Y35748
X68225Y37250
X68465Y37480
X68625Y36275
X69764Y36260
X69764Y35725
X69775Y36750
X69882Y37559
X70118Y37874
X70150Y35725
X70200Y36750
X71925Y36750
X71925Y37750
X71975Y35700
X72550Y35700
X73225Y36025
X73550Y36275
X73550Y35775
X77300Y35700
X77450Y36500
X77925Y35725
X78250Y36000
X79050Y36500
X79400Y37575
X79400Y37900
X80375Y35800
X85500Y38025
X88125Y37625
X89250Y39000
X88200Y38875
X85050Y38625
X83850Y39500
X80100Y40425
X79400Y38350
X77575Y39375
X77100Y39400
X71925Y38700
X70525Y39500
X70100Y38750
X69725Y38750
X68725Y39000
X68450Y39500
X61260Y39843
X61260Y40157
X59975Y38425
X58906Y38850
X58900Y38375
X58725Y40000
X57725Y38650
X57725Y39625
X57725Y39075
X57725Y40500
X57650Y38325
X56625Y39225
X56600Y38375
X56600Y40000
X56575Y40500
X55350Y40300
X55250Y38250
X54875Y40300
X54750Y38250
X54625Y38625
X54400Y40300
X54250Y38250
X53925Y40300
X53750Y38250
X53375Y38625
X53250Y38250
X51500Y40525
X48025Y38625
X48025Y39000
X47000Y39350
X47000Y39000
X45949Y38626
X45475Y39375
X45150Y38675
X43250Y39650
X42650Y38850
X42700Y42600
X44325Y41700
X44500Y42000
X45949Y42626
X45949Y40626
X47000Y41350
X47000Y43000
X47000Y41000
X48025Y43000
X48025Y40625
X48025Y41000
X48025Y42625
X50200Y42475
X51000Y41700
X51025Y42575
X51100Y41150
X51800Y41650
X51800Y42000
X51800Y42350
X52200Y42350
X52200Y42000
X52200Y41650
X53050Y41800
X53325Y42350
X54250Y42750
X54250Y41250
X54250Y42250
X54250Y41750
X54750Y42250
X54750Y42750
X54750Y41750
X54750Y41250
X55250Y42250
X55250Y42750
X55250Y41750
X55250Y41250
X55750Y42750
X56250Y42750
X56625Y41125
X56625Y41750
X57250Y42750
X57675Y41125
X57675Y41750
X59250Y42750
X60075Y41025
X60472Y42598
X60775Y41250
X60787Y40709
X61000Y41000
X61025Y41525
X67205Y41299
X67717Y42835
X67750Y42008
X69000Y42000
X69000Y42500
X69000Y43000
X69500Y43000
X72500Y43000
X73000Y43000
X73000Y42500
X73500Y42000
X73500Y42500
X73500Y43000
X73500Y41500
X74000Y43000
X74000Y41500
X74000Y42500
X74000Y42000
X75000Y42500
X75500Y42500
X76400Y42100
X76450Y42650
X77000Y43000
X77000Y41825
X78125Y41275
X79500Y42150
X79700Y41700
X80100Y41150
X80775Y41500
X80775Y42000
X80775Y40750
X83799Y42400
X84725Y42375
X85000Y41475
X85250Y40750
X85450Y41475
X85500Y42250
X85525Y44225
X85400Y43450
X85000Y43500
X83800Y44300
X80700Y43500
X80700Y44000
X79625Y43500
X79600Y43950
X78100Y43450
X78050Y44700
X77950Y43875
X75875Y44625
X75875Y44250
X75875Y43875
X75500Y43875
X75500Y44250
X75500Y44625
X75000Y44625
X75000Y44250
X75000Y43875
X74625Y43875
X74625Y44250
X74625Y44625
X74000Y43500
X73750Y45500
X73500Y43500
X73250Y44000
X73250Y45500
X73000Y43500
X72500Y43500
X72000Y43500
X71500Y45000
X71500Y44500
X71500Y44000
X71500Y43500
X70000Y44500
X70000Y43500
X70000Y45000
X70000Y45500
X70000Y44000
X69500Y45500
X69500Y45000
X69500Y44500
X69500Y44000
X69500Y43500
X69000Y43500
X69000Y44000
X69000Y44500
X69000Y45500
X69000Y45000
X67756Y44606
X56250Y44750
X56250Y44250
X56250Y43250
X56250Y43750
X56250Y45250
X55750Y43250
X55750Y43750
X55250Y43250
X55250Y43750
X54750Y43250
X54750Y43750
X54625Y45250
X54375Y43250
X54375Y43750
X53875Y43250
X53875Y43750
X53375Y45250
X51500Y43525
X51000Y43550
X50500Y43550
X49750Y44500
X49750Y43500
X49750Y44000
X49750Y45125
X49250Y44000
X49250Y45125
X49250Y44500
X49250Y43500
X48750Y44000
X48750Y44500
X48750Y45125
X48025Y45000
X48025Y44625
X47350Y44125
X47000Y45350
X47000Y43375
X47000Y45000
X46500Y43825
X45949Y44626
X44925Y43475
X44500Y44550
X43875Y43475
X42675Y44850
X43250Y45650
X48750Y45750
X49250Y45750
X49750Y45750
X53250Y45750
X53750Y45750
X54250Y45750
X54750Y45750
X55250Y45750
X56250Y45750
X69000Y46000
X69500Y46000
X70000Y46000
X70750Y46000
X71250Y46000
X71750Y46000
X72250Y46000
X72750Y46000
X73250Y46000
X73750Y46000
X74975Y46625
X75000Y45925
X75500Y45775
X76000Y45950
X76875Y46300
X76875Y46700
X77750Y45875
T3C.035F197S550
X27000Y22430
X27000Y25430
X27000Y24430
X27000Y23430
X28000Y22430
X28000Y25430
X28000Y24430
X28000Y23430
X32000Y22430
X32000Y25430
X32000Y24430
X32000Y23430
X33000Y25430
X33000Y22430
X33000Y24430
X33000Y23430
X37000Y22430
X37000Y25430
X37000Y24430
X37000Y23430
X38000Y22430
X38000Y24430
X38000Y25430
X38000Y23430
X38000Y27430
X38000Y26430
X38000Y30430
X38000Y29430
X38000Y28430
X37000Y27430
X37000Y26430
X37000Y30430
X37000Y29430
X37000Y28430
X33000Y30430
X33000Y29430
X33000Y28430
X33000Y26430
X33000Y27430
X32000Y28430
X32000Y30430
X32000Y26430
X32000Y29430
X32000Y27430
X28000Y28430
X28000Y27430
X28000Y26430
X28000Y29430
X28000Y30430
X27000Y28430
X27000Y27430
X27000Y26430
X27000Y30430
X27000Y29430
X27000Y31430
X28000Y31430
X32000Y31430
X33000Y31430
X37000Y31430
X38000Y31430
X83750Y32530
X83750Y33530
X83750Y34530
X83750Y35530
X84750Y32030
X84750Y34030
X84750Y33030
X84750Y35030
X88581Y32289
X89179Y31289
X89179Y35270
X88581Y36270
X38000Y37130
X38000Y36130
X38000Y40130
X38000Y39130
X38000Y38130
X37000Y40130
X37000Y39130
X37000Y36130
X37000Y38130
X37000Y37130
X33000Y36130
X33000Y37130
X33000Y40130
X33000Y39130
X33000Y38130
X32000Y36130
X32000Y40130
X32000Y37130
X32000Y39130
X32000Y38130
X28000Y38130
X28000Y36130
X28000Y39130
X28000Y37130
X28000Y40130
X27000Y36130
X27000Y38130
X27000Y37130
X27000Y40130
X27000Y39130
X27000Y42130
X27000Y41130
X27000Y43130
X27000Y44130
X27000Y45130
X28000Y42130
X28000Y41130
X28000Y43130
X28000Y44130
X28000Y45130
X32000Y41130
X32000Y42130
X32000Y45130
X32000Y44130
X32000Y43130
X33000Y42130
X33000Y43130
X33000Y45130
X33000Y44130
X33000Y41130
X37000Y45130
X37000Y44130
X37000Y42130
X37000Y41130
X37000Y43130
X38000Y43130
X38000Y45130
X38000Y41130
X38000Y42130
X38000Y44130
T4C.04F139S550
X41000Y22250
X62250Y21030
X62250Y22030
X63250Y21030
X63250Y22030
X64250Y21030
X64250Y22030
X65250Y21030
X65250Y22030
X66250Y21030
X66250Y22030
X68250Y21030
X68250Y22030
X69250Y21030
X69250Y22030
X70250Y21030
X70250Y22030
X71250Y21030
X71250Y22030
X72250Y21030
X72250Y22030
X73250Y21030
X73250Y22030
X74250Y21030
X74250Y22030
X75250Y21030
X75250Y22030
X76250Y21030
X76250Y22030
X77250Y21030
X77250Y22030
X79750Y22780
X80750Y22780
X81750Y22780
X82750Y22780
X86250Y22780
X89291Y25645
X89291Y27415
X86250Y23780
X82750Y23780
X81750Y23780
X80750Y23780
X79750Y23780
X60250Y25470
X60250Y24470
X58750Y24500
X58750Y25500
X41000Y24250
X41000Y25250
X41000Y23250
X21500Y28280
X21500Y29280
X21500Y30280
X23000Y28280
X23000Y29280
X23000Y30280
X24500Y28280
X24500Y29280
X24500Y30280
X41000Y30250
X41000Y29250
X41000Y28250
X41000Y31250
X74750Y37750
X73750Y37750
X41000Y36000
X41000Y37000
X41000Y38000
X41000Y39000
X24500Y37530
X24500Y38530
X24500Y39530
X23000Y39530
X23000Y37530
X23000Y38530
X21500Y39530
X21500Y37530
X21500Y38530
X41000Y42000
X41000Y43000
X41000Y44000
X41000Y45000
X58500Y45000
X58500Y46000
T5C.043F139S550
X87750Y40530
X87750Y41530
X87750Y42780
X88750Y41530
X88750Y42780
X88750Y40530
X88750Y43780
X87750Y43780
T6C.051F107S550
X88311Y25155
X88311Y27905
T7C.059F107S550
X86049Y30719
X86049Y36841
T8C.128F35S794
X87250Y31530
X87250Y36030
T9C.138F35S794
X71181Y25906
X71181Y41654
X22363Y41654G85X23543Y41654
X22363Y25906G85X23543Y25906
M30
