*
*
G04 PADS 9.2 Build Number: 414666 generated Gerber (RS-274-X) file*
G04 PC Version=2.1*
*
%IN "CC1B_080118.pcb"*%
*
%MOIN*%
*
%FSLAX24Y24*%
*
*
*
*
G04 PC Standard Apertures*
*
*
G04 Thermal Relief Aperture macro.*
%AMTER*
1,1,$1,0,0*
1,0,$1-$2,0,0*
21,0,$3,$4,0,0,45*
21,0,$3,$4,0,0,135*
%
*
*
G04 Annular Aperture macro.*
%AMANN*
1,1,$1,0,0*
1,0,$2,0,0*
%
*
*
G04 Odd Aperture macro.*
%AMODD*
1,1,$1,0,0*
1,0,$1-0.005,0,0*
%
*
*
G04 PC Custom Aperture Macros*
*
*
*
*
*
*
G04 PC Aperture Table*
*
%ADD010C,0.001*%
%ADD024R,0.022X0.02*%
%ADD026C,0.04*%
%ADD028C,0.01*%
%ADD050R,0.03X0.03*%
%ADD054R,0.02X0.022*%
%ADD093R,0.04X0.045*%
%ADD109R,0.028X0.028*%
%ADD148R,0.025X0.045*%
%ADD197R,0.016X0.018*%
%ADD199R,0.018X0.016*%
%ADD334R,0.077X0.124*%
%ADD335R,0.09X0.08*%
*
*
*
*
G04 PC Circuitry*
G04 Layer Name CC1B_080118.pcb - circuitry*
%LPD*%
*
*
G04 PC Custom Flashes*
G04 Layer Name CC1B_080118.pcb - flashes*
%LPD*%
*
*
G04 PC Circuitry*
G04 Layer Name CC1B_080118.pcb - circuitry*
%LPD*%
*
G54D10*
G54D24*
G01X61870Y25735D03*
Y25415D03*
X77320Y25090D03*
Y25410D03*
X77070Y28910D03*
Y28590D03*
X116920Y20990D03*
Y21310D03*
Y22385D03*
Y22065D03*
X98320Y44840D03*
Y45160D03*
Y38840D03*
Y39160D03*
Y31090D03*
Y31410D03*
Y22410D03*
Y22090D03*
X65570Y45410D03*
Y45090D03*
X66070Y45410D03*
Y45090D03*
X66570Y45410D03*
Y45090D03*
X77199Y38388D03*
Y38068D03*
Y36892D03*
Y36572D03*
X76570Y36892D03*
Y36572D03*
X77829Y36892D03*
Y36572D03*
Y36183D03*
Y35863D03*
X77199Y35233D03*
Y35553D03*
X78459Y35233D03*
Y35553D03*
X77829Y35233D03*
Y35553D03*
X78459Y36183D03*
Y35863D03*
X77199D03*
Y36183D03*
X76570Y35233D03*
Y35553D03*
X78459Y36892D03*
Y36572D03*
X79089Y36223D03*
Y35903D03*
X75940Y39840D03*
Y40160D03*
X79916Y39840D03*
Y40160D03*
X79089Y36572D03*
Y36892D03*
X78774Y37797D03*
Y37477D03*
X75940Y35632D03*
Y35312D03*
X79820Y32910D03*
Y32590D03*
X77320Y32910D03*
Y32590D03*
X75070Y32910D03*
Y32590D03*
X75940Y36852D03*
Y36532D03*
X76570Y36183D03*
Y35863D03*
X76294Y45115D03*
Y45435D03*
X80388Y45115D03*
Y45435D03*
X76924Y43230D03*
Y42910D03*
X77869Y43501D03*
Y43821D03*
X76794Y41976D03*
Y41656D03*
X80113Y43225D03*
Y43545D03*
X79798Y42005D03*
Y42325D03*
X64070Y35410D03*
Y35090D03*
X63070Y35410D03*
Y35090D03*
G54D26*
X52570Y44750D03*
Y23000D03*
X119320Y44750D03*
G54D28*
X81964Y49447D02*
X81908Y49525D01*
X81823Y49563*
X81823D02*
X81710D01*
X81710D02*
X81626Y49525D01*
X81570Y49447*
X81570D02*
Y49370D01*
X81598Y49292*
X81598D02*
X81626Y49253D01*
X81626D02*
X81682Y49215D01*
X81682D02*
X81851Y49137D01*
X81851D02*
X81908Y49098D01*
X81908D02*
X81936Y49060D01*
X81964Y48982*
X81964D02*
Y48866D01*
X81964D02*
X81908Y48788D01*
X81908D02*
X81823Y48750D01*
X81823D02*
X81710D01*
X81710D02*
X81626Y48788D01*
X81626D02*
X81570Y48866D01*
X82387Y49563D02*
X82330Y49525D01*
X82330D02*
X82274Y49447D01*
X82274D02*
X82246Y49370D01*
X82218Y49253*
X82218D02*
Y49060D01*
X82246Y48943*
X82246D02*
X82274Y48866D01*
X82274D02*
X82330Y48788D01*
X82330D02*
X82387Y48750D01*
X82500*
X82556Y48788*
X82556D02*
X82612Y48866D01*
X82612D02*
X82640Y48943D01*
X82640D02*
X82669Y49060D01*
Y49253*
X82669D02*
X82640Y49370D01*
X82640D02*
X82612Y49447D01*
X82612D02*
X82556Y49525D01*
X82500Y49563*
X82500D02*
X82387D01*
X82471Y48905D02*
X82640Y48672D01*
X82922Y49563D02*
Y48982D01*
X82922D02*
X82950Y48866D01*
X82950D02*
X83007Y48788D01*
X83007D02*
X83091Y48750D01*
X83091D02*
X83148D01*
X83232Y48788*
X83232D02*
X83289Y48866D01*
X83317Y48982*
X83317D02*
Y49563D01*
X83570D02*
Y48750D01*
Y49563D02*
X83937D01*
X83570Y49176D02*
X83796D01*
X83570Y48750D02*
X83937D01*
X84190Y49563D02*
Y48750D01*
Y49563D02*
X84557D01*
X84190Y49176D02*
X84416D01*
X84190Y48750D02*
X84557D01*
X85233Y49370D02*
X85205Y49447D01*
X85205D02*
X85149Y49525D01*
X85092Y49563*
X85092D02*
X84980D01*
X84980D02*
X84923Y49525D01*
X84923D02*
X84867Y49447D01*
X84867D02*
X84839Y49370D01*
X84810Y49253*
X84810D02*
Y49060D01*
X84810D02*
X84839Y48943D01*
X84839D02*
X84867Y48866D01*
X84923Y48788*
X84923D02*
X84980Y48750D01*
X85092*
X85092D02*
X85149Y48788D01*
X85149D02*
X85205Y48866D01*
X85233Y48943*
X85233D02*
Y49060D01*
X85092D02*
X85233D01*
X85487Y49563D02*
Y48750D01*
Y49563D02*
X85853D01*
X85487Y49176D02*
X85712D01*
X85487Y48750D02*
X85853D01*
X86107Y49563D02*
Y48750D01*
Y49563D02*
X86473D01*
X86107Y49176D02*
X86332D01*
X86107Y48750D02*
X86473D01*
X87770Y49447D02*
X87713Y49525D01*
X87713D02*
X87629Y49563D01*
X87629D02*
X87516D01*
X87516D02*
X87431Y49525D01*
X87431D02*
X87375Y49447D01*
X87375D02*
Y49370D01*
X87403Y49292*
X87403D02*
X87431Y49253D01*
X87431D02*
X87488Y49215D01*
X87657Y49137*
X87657D02*
X87713Y49098D01*
X87713D02*
X87741Y49060D01*
X87741D02*
X87770Y48982D01*
X87770D02*
Y48866D01*
X87713Y48788*
X87713D02*
X87629Y48750D01*
X87516*
X87431Y48788*
X87431D02*
X87375Y48866D01*
X88023Y49563D02*
Y48750D01*
X88277Y49563D02*
Y48750D01*
Y49563D02*
X88474D01*
X88474D02*
X88559Y49525D01*
X88615Y49447*
X88615D02*
X88643Y49370D01*
X88643D02*
X88671Y49253D01*
X88671D02*
Y49060D01*
X88671D02*
X88643Y48943D01*
X88643D02*
X88615Y48866D01*
X88559Y48788*
X88559D02*
X88474Y48750D01*
X88474D02*
X88277D01*
X88925Y49563D02*
Y48750D01*
Y49563D02*
X89291D01*
X88925Y49176D02*
X89150D01*
X88925Y48750D02*
X89291D01*
X121425Y51034D02*
Y50050D01*
Y51034D02*
X121118D01*
X121015Y50987*
X121015D02*
X120981Y50940D01*
X120981D02*
X120947Y50846D01*
X120947D02*
Y50706D01*
X120947D02*
X120981Y50612D01*
X120981D02*
X121015Y50565D01*
X121015D02*
X121118Y50518D01*
X121118D02*
X121425D01*
X120368Y51034D02*
X120640Y50050D01*
X120368Y51034D02*
X120095Y50050D01*
X120538Y50378D02*
X120197D01*
X119311Y50893D02*
X119379Y50987D01*
X119379D02*
X119481Y51034D01*
X119481D02*
X119618D01*
X119720Y50987*
X119720D02*
X119788Y50893D01*
X119788D02*
Y50800D01*
X119788D02*
X119754Y50706D01*
X119754D02*
X119720Y50659D01*
X119652Y50612*
X119652D02*
X119447Y50518D01*
X119447D02*
X119379Y50471D01*
X119379D02*
X119345Y50425D01*
X119311Y50331*
Y50190*
X119311D02*
X119379Y50096D01*
X119379D02*
X119481Y50050D01*
X119481D02*
X119618D01*
X119720Y50096*
X119720D02*
X119788Y50190D01*
X118765Y51034D02*
Y50050D01*
X119004Y51034D02*
X118527D01*
X118220D02*
Y50050D01*
Y51034D02*
X117777D01*
X118220Y50565D02*
X117947D01*
X118220Y50050D02*
X117777D01*
X116686Y51034D02*
Y50050D01*
Y51034D02*
X116413Y50050D01*
X116140Y51034D02*
X116413Y50050D01*
X116140Y51034D02*
Y50050D01*
X115561Y51034D02*
X115834Y50050D01*
X115561Y51034D02*
X115288Y50050D01*
X115731Y50378D02*
X115390D01*
X114504Y50893D02*
X114572Y50987D01*
X114572D02*
X114675Y51034D01*
X114811*
X114913Y50987*
X114913D02*
X114981Y50893D01*
X114981D02*
Y50800D01*
X114981D02*
X114947Y50706D01*
X114947D02*
X114913Y50659D01*
X114913D02*
X114845Y50612D01*
X114845D02*
X114640Y50518D01*
X114640D02*
X114572Y50471D01*
X114572D02*
X114538Y50425D01*
X114538D02*
X114504Y50331D01*
X114504D02*
Y50190D01*
X114504D02*
X114572Y50096D01*
X114572D02*
X114675Y50050D01*
X114811*
X114913Y50096*
X114913D02*
X114981Y50190D01*
X114197Y51034D02*
Y50050D01*
X113720Y51034D02*
X114197Y50378D01*
X114027Y50612D02*
X113720Y50050D01*
X112152Y50893D02*
X112220Y50987D01*
X112220D02*
X112322Y51034D01*
X112322D02*
X112459D01*
X112561Y50987*
X112561D02*
X112629Y50893D01*
X112629D02*
Y50800D01*
X112629D02*
X112595Y50706D01*
X112561Y50659*
X112493Y50612*
X112493D02*
X112288Y50518D01*
X112288D02*
X112220Y50471D01*
X112220D02*
X112186Y50425D01*
X112152Y50331*
Y50190*
X112152D02*
X112220Y50096D01*
X112220D02*
X112322Y50050D01*
X112322D02*
X112459D01*
X112561Y50096*
X112561D02*
X112629Y50190D01*
X111845Y51034D02*
Y50050D01*
Y51034D02*
X111402D01*
X111845Y50565D02*
X111572D01*
X111845Y50050D02*
X111402D01*
X110584Y50800D02*
X110618Y50893D01*
X110618D02*
X110686Y50987D01*
X110686D02*
X110754Y51034D01*
X110754D02*
X110890D01*
X110890D02*
X110959Y50987D01*
X110959D02*
X111027Y50893D01*
X111027D02*
X111061Y50800D01*
X111095Y50659*
Y50425*
X111061Y50284*
X111027Y50190*
X111027D02*
X110959Y50096D01*
X110959D02*
X110890Y50050D01*
X110890D02*
X110754D01*
X110754D02*
X110686Y50096D01*
X110686D02*
X110618Y50190D01*
X110618D02*
X110584Y50284D01*
X110072Y51034D02*
X110140Y50987D01*
X110140D02*
X110209Y50893D01*
X110209D02*
X110243Y50800D01*
X110277Y50659*
Y50425*
X110243Y50284*
X110209Y50190*
X110209D02*
X110140Y50096D01*
X110140D02*
X110072Y50050D01*
X110072D02*
X109936D01*
X109868Y50096*
X109868D02*
X109800Y50190D01*
X109800D02*
X109765Y50284D01*
X109765D02*
X109731Y50425D01*
X109731D02*
Y50659D01*
X109731D02*
X109765Y50800D01*
X109765D02*
X109800Y50893D01*
X109800D02*
X109868Y50987D01*
X109868D02*
X109936Y51034D01*
X110072*
X109425D02*
Y50050D01*
Y51034D02*
X108947Y50050D01*
Y51034D02*
Y50050D01*
X108640Y51034D02*
Y50050D01*
Y51034D02*
X108402D01*
X108300Y50987*
X108300D02*
X108231Y50893D01*
X108231D02*
X108197Y50800D01*
X108197D02*
X108163Y50659D01*
X108163D02*
Y50425D01*
X108163D02*
X108197Y50284D01*
X108197D02*
X108231Y50190D01*
X108231D02*
X108300Y50096D01*
X108300D02*
X108402Y50050D01*
X108640*
X107584Y51034D02*
X107856Y50050D01*
X107584Y51034D02*
X107311Y50050D01*
X107754Y50378D02*
X107413D01*
X107004Y51034D02*
Y50050D01*
Y51034D02*
X106697D01*
X106697D02*
X106595Y50987D01*
X106595D02*
X106561Y50940D01*
X106561D02*
X106527Y50846D01*
X106527D02*
Y50753D01*
X106561Y50659*
X106595Y50612*
X106595D02*
X106697Y50565D01*
X106697D02*
X107004D01*
X106765D02*
X106527Y50050D01*
X106220Y51034D02*
X105947Y50565D01*
X105947D02*
Y50050D01*
X105675Y51034D02*
X105947Y50565D01*
X104106Y50893D02*
X104175Y50987D01*
X104175D02*
X104277Y51034D01*
X104413*
X104413D02*
X104515Y50987D01*
X104515D02*
X104584Y50893D01*
X104584D02*
Y50800D01*
X104550Y50706*
X104515Y50659*
X104515D02*
X104447Y50612D01*
X104447D02*
X104243Y50518D01*
X104243D02*
X104175Y50471D01*
X104175D02*
X104140Y50425D01*
X104140D02*
X104106Y50331D01*
X104106D02*
Y50190D01*
X104106D02*
X104175Y50096D01*
X104175D02*
X104277Y50050D01*
X104413*
X104413D02*
X104515Y50096D01*
X104515D02*
X104584Y50190D01*
X103800Y51034D02*
Y50050D01*
X103493Y51034D02*
Y50050D01*
Y51034D02*
X103254D01*
X103254D02*
X103152Y50987D01*
X103152D02*
X103084Y50893D01*
X103084D02*
X103050Y50800D01*
X103015Y50659*
X103015D02*
Y50425D01*
X103015D02*
X103050Y50284D01*
X103084Y50190*
X103084D02*
X103152Y50096D01*
X103152D02*
X103254Y50050D01*
X103254D02*
X103493D01*
X102709Y51034D02*
Y50050D01*
Y51034D02*
X102265D01*
X102709Y50565D02*
X102436D01*
X102709Y50050D02*
X102265D01*
X121058Y53000D02*
X121092Y53093D01*
X121092D02*
X121160Y53187D01*
X121160D02*
X121229Y53234D01*
X121365*
X121433Y53187*
X121433D02*
X121501Y53093D01*
X121501D02*
X121535Y53000D01*
X121535D02*
X121570Y52859D01*
Y52625*
X121535Y52484*
X121535D02*
X121501Y52390D01*
X121501D02*
X121433Y52296D01*
X121433D02*
X121365Y52250D01*
X121229*
X121160Y52296*
X121160D02*
X121092Y52390D01*
X121092D02*
X121058Y52484D01*
X120240Y53000D02*
X120274Y53093D01*
X120274D02*
X120342Y53187D01*
X120342D02*
X120410Y53234D01*
X120410D02*
X120547D01*
X120615Y53187*
X120615D02*
X120683Y53093D01*
X120683D02*
X120717Y53000D01*
X120717D02*
X120751Y52859D01*
X120751D02*
Y52625D01*
X120751D02*
X120717Y52484D01*
X120717D02*
X120683Y52390D01*
X120683D02*
X120615Y52296D01*
X120615D02*
X120547Y52250D01*
X120410*
X120410D02*
X120342Y52296D01*
X120342D02*
X120274Y52390D01*
X120274D02*
X120240Y52484D01*
X119933Y53046D02*
X119865Y53093D01*
X119865D02*
X119763Y53234D01*
Y52250*
X119456Y53234D02*
Y52250D01*
Y53234D02*
X119149D01*
X119149D02*
X119047Y53187D01*
X119047D02*
X119013Y53140D01*
X119013D02*
X118979Y53046D01*
X118979D02*
Y52953D01*
X119013Y52859*
X119047Y52812*
X119047D02*
X119149Y52765D01*
X119456D02*
X119149D01*
X119149D02*
X119047Y52718D01*
X119047D02*
X119013Y52671D01*
X119013D02*
X118979Y52578D01*
Y52437*
X118979D02*
X119013Y52343D01*
X119013D02*
X119047Y52296D01*
X119047D02*
X119149Y52250D01*
X119149D02*
X119456D01*
X117376Y53000D02*
X117410Y53093D01*
X117410D02*
X117479Y53187D01*
X117479D02*
X117547Y53234D01*
X117683*
X117683D02*
X117751Y53187D01*
X117751D02*
X117820Y53093D01*
X117820D02*
X117854Y53000D01*
X117888Y52859*
Y52625*
X117854Y52484*
X117820Y52390*
X117820D02*
X117751Y52296D01*
X117751D02*
X117683Y52250D01*
X117683D02*
X117547D01*
X117479Y52296*
X117479D02*
X117410Y52390D01*
X117410D02*
X117376Y52484D01*
X116865Y53234D02*
X116933Y53187D01*
X116933D02*
X117001Y53093D01*
X117001D02*
X117035Y53000D01*
X117035D02*
X117070Y52859D01*
Y52625*
X117035Y52484*
X117035D02*
X117001Y52390D01*
X117001D02*
X116933Y52296D01*
X116933D02*
X116865Y52250D01*
X116729*
X116660Y52296*
X116660D02*
X116592Y52390D01*
X116592D02*
X116558Y52484D01*
X116558D02*
X116524Y52625D01*
X116524D02*
Y52859D01*
X116524D02*
X116558Y53000D01*
X116558D02*
X116592Y53093D01*
X116592D02*
X116660Y53187D01*
X116660D02*
X116729Y53234D01*
X116865*
X116217D02*
Y52250D01*
Y53234D02*
X115740Y52250D01*
Y53234D02*
Y52250D01*
X115195Y53234D02*
Y52250D01*
X115433Y53234D02*
X114956D01*
X114649D02*
Y52250D01*
Y53234D02*
X114342D01*
X114342D02*
X114240Y53187D01*
X114240D02*
X114206Y53140D01*
X114206D02*
X114172Y53046D01*
X114172D02*
Y52953D01*
X114206Y52859*
X114240Y52812*
X114240D02*
X114342Y52765D01*
X114342D02*
X114649D01*
X114410D02*
X114172Y52250D01*
X113660Y53234D02*
X113729Y53187D01*
X113729D02*
X113797Y53093D01*
X113797D02*
X113831Y53000D01*
X113865Y52859*
Y52625*
X113831Y52484*
X113797Y52390*
X113797D02*
X113729Y52296D01*
X113729D02*
X113660Y52250D01*
X113660D02*
X113524D01*
X113524D02*
X113456Y52296D01*
X113456D02*
X113388Y52390D01*
X113388D02*
X113354Y52484D01*
X113320Y52625*
Y52859*
X113354Y53000*
X113388Y53093*
X113388D02*
X113456Y53187D01*
X113456D02*
X113524Y53234D01*
X113524D02*
X113660D01*
X113013D02*
Y52250D01*
X112604*
X111513Y53234D02*
Y52250D01*
Y53234D02*
X111206D01*
X111104Y53187*
X111104D02*
X111070Y53140D01*
X111070D02*
X111035Y53046D01*
X111035D02*
Y52953D01*
X111035D02*
X111070Y52859D01*
X111104Y52812*
X111104D02*
X111206Y52765D01*
X111513D02*
X111206D01*
X111206D02*
X111104Y52718D01*
X111104D02*
X111070Y52671D01*
X111070D02*
X111035Y52578D01*
X111035D02*
Y52437D01*
X111035D02*
X111070Y52343D01*
X111070D02*
X111104Y52296D01*
X111104D02*
X111206Y52250D01*
X111513*
X110524Y53234D02*
X110592Y53187D01*
X110592D02*
X110660Y53093D01*
X110660D02*
X110695Y53000D01*
X110729Y52859*
Y52625*
X110695Y52484*
X110660Y52390*
X110660D02*
X110592Y52296D01*
X110592D02*
X110524Y52250D01*
X110524D02*
X110388D01*
X110320Y52296*
X110320D02*
X110251Y52390D01*
X110251D02*
X110217Y52484D01*
X110217D02*
X110183Y52625D01*
X110183D02*
Y52859D01*
X110183D02*
X110217Y53000D01*
X110217D02*
X110251Y53093D01*
X110251D02*
X110320Y53187D01*
X110320D02*
X110388Y53234D01*
X110524*
X109604D02*
X109876Y52250D01*
X109604Y53234D02*
X109331Y52250D01*
X109774Y52578D02*
X109433D01*
X109024Y53234D02*
Y52250D01*
Y53234D02*
X108717D01*
X108717D02*
X108615Y53187D01*
X108615D02*
X108581Y53140D01*
X108581D02*
X108547Y53046D01*
X108547D02*
Y52953D01*
X108581Y52859*
X108615Y52812*
X108615D02*
X108717Y52765D01*
X108717D02*
X109024D01*
X108785D02*
X108547Y52250D01*
X108240Y53234D02*
Y52250D01*
Y53234D02*
X108001D01*
X108001D02*
X107899Y53187D01*
X107899D02*
X107831Y53093D01*
X107831D02*
X107797Y53000D01*
X107763Y52859*
Y52625*
X107797Y52484*
X107831Y52390*
X107831D02*
X107899Y52296D01*
X107899D02*
X108001Y52250D01*
X108001D02*
X108240D01*
X106672Y53234D02*
Y52250D01*
Y53234D02*
X106365D01*
X106263Y53187*
X106263D02*
X106229Y53140D01*
X106229D02*
X106195Y53046D01*
X106195D02*
Y52953D01*
X106229Y52859*
X106263Y52812*
X106263D02*
X106365Y52765D01*
X106365D02*
X106672D01*
X106433D02*
X106195Y52250D01*
X105888Y53234D02*
Y52250D01*
Y53234D02*
X105445D01*
X105888Y52765D02*
X105615D01*
X105888Y52250D02*
X105445D01*
X105138Y53234D02*
X104865Y52250D01*
X104592Y53234D02*
X104865Y52250D01*
X103229Y53234D02*
X103501Y52250D01*
X103229Y53234D02*
X102956Y52250D01*
X103399Y52578D02*
X103058D01*
X121365Y55234D02*
X121433Y55187D01*
X121433D02*
X121501Y55093D01*
X121501D02*
X121535Y55000D01*
X121535D02*
X121570Y54859D01*
Y54625*
X121535Y54484*
X121535D02*
X121501Y54390D01*
X121501D02*
X121433Y54296D01*
X121433D02*
X121365Y54250D01*
X121229*
X121160Y54296*
X121160D02*
X121092Y54390D01*
X121092D02*
X121058Y54484D01*
X121058D02*
X121024Y54625D01*
X121024D02*
Y54859D01*
X121024D02*
X121058Y55000D01*
X121058D02*
X121092Y55093D01*
X121092D02*
X121160Y55187D01*
X121160D02*
X121229Y55234D01*
X121365*
X120717D02*
Y54250D01*
Y55234D02*
X120410D01*
X120410D02*
X120308Y55187D01*
X120308D02*
X120274Y55140D01*
X120274D02*
X120240Y55046D01*
X120240D02*
Y54953D01*
X120274Y54859*
X120274D02*
X120308Y54812D01*
X120308D02*
X120410Y54765D01*
X120410D02*
X120717D01*
X120479D02*
X120240Y54250D01*
X119422Y55000D02*
X119456Y55093D01*
X119456D02*
X119524Y55187D01*
X119524D02*
X119592Y55234D01*
X119592D02*
X119729D01*
X119797Y55187*
X119797D02*
X119865Y55093D01*
X119865D02*
X119899Y55000D01*
X119899D02*
X119933Y54859D01*
X119933D02*
Y54625D01*
X119933D02*
X119899Y54484D01*
X119899D02*
X119865Y54390D01*
X119865D02*
X119797Y54296D01*
X119797D02*
X119729Y54250D01*
X119592*
X119592D02*
X119524Y54296D01*
X119524D02*
X119456Y54390D01*
X119456D02*
X119422Y54484D01*
X119115Y55234D02*
Y54250D01*
X118638Y55234D02*
Y54250D01*
X119115Y54765D02*
X118638D01*
X118331Y55234D02*
Y54250D01*
X118024Y55234D02*
Y54250D01*
Y55234D02*
X117785D01*
X117785D02*
X117683Y55187D01*
X117683D02*
X117615Y55093D01*
X117615D02*
X117581Y55000D01*
X117547Y54859*
Y54625*
X117581Y54484*
X117615Y54390*
X117615D02*
X117683Y54296D01*
X117683D02*
X117785Y54250D01*
X117785D02*
X118024D01*
X116217Y55234D02*
Y54250D01*
X116456Y55234D02*
X115979D01*
X115672D02*
Y54250D01*
Y55234D02*
X115229D01*
X115672Y54765D02*
X115399D01*
X115672Y54250D02*
X115229D01*
X114410Y55000D02*
X114445Y55093D01*
X114445D02*
X114513Y55187D01*
X114513D02*
X114581Y55234D01*
X114717*
X114717D02*
X114785Y55187D01*
X114785D02*
X114854Y55093D01*
X114854D02*
X114888Y55000D01*
X114922Y54859*
Y54625*
X114888Y54484*
X114854Y54390*
X114854D02*
X114785Y54296D01*
X114785D02*
X114717Y54250D01*
X114717D02*
X114581D01*
X114513Y54296*
X114513D02*
X114445Y54390D01*
X114445D02*
X114410Y54484D01*
X114104Y55234D02*
Y54250D01*
X113626Y55234D02*
Y54250D01*
X114104Y54765D02*
X113626D01*
X113320Y55234D02*
Y54250D01*
Y55234D02*
X112842Y54250D01*
Y55234D02*
Y54250D01*
X112331Y55234D02*
X112399Y55187D01*
X112399D02*
X112467Y55093D01*
X112467D02*
X112501Y55000D01*
X112501D02*
X112535Y54859D01*
X112535D02*
Y54625D01*
X112535D02*
X112501Y54484D01*
X112501D02*
X112467Y54390D01*
X112467D02*
X112399Y54296D01*
X112399D02*
X112331Y54250D01*
X112195*
X112126Y54296*
X112126D02*
X112058Y54390D01*
X112058D02*
X112024Y54484D01*
X112024D02*
X111990Y54625D01*
Y54859*
X112024Y55000*
X112024D02*
X112058Y55093D01*
X112058D02*
X112126Y55187D01*
X112126D02*
X112195Y55234D01*
X112331*
X111683D02*
Y54250D01*
X111683D02*
X111274D01*
X110763Y55234D02*
X110831Y55187D01*
X110831D02*
X110899Y55093D01*
X110899D02*
X110933Y55000D01*
X110933D02*
X110967Y54859D01*
X110967D02*
Y54625D01*
X110967D02*
X110933Y54484D01*
X110933D02*
X110899Y54390D01*
X110899D02*
X110831Y54296D01*
X110831D02*
X110763Y54250D01*
X110626*
X110626D02*
X110558Y54296D01*
X110558D02*
X110490Y54390D01*
X110490D02*
X110456Y54484D01*
X110422Y54625*
Y54859*
X110456Y55000*
X110490Y55093*
X110490D02*
X110558Y55187D01*
X110558D02*
X110626Y55234D01*
X110626D02*
X110763D01*
X109604Y55000D02*
X109638Y55093D01*
X109638D02*
X109706Y55187D01*
X109706D02*
X109774Y55234D01*
X109774D02*
X109910D01*
X109910D02*
X109979Y55187D01*
X109979D02*
X110047Y55093D01*
X110047D02*
X110081Y55000D01*
X110115Y54859*
Y54625*
X110081Y54484*
X110047Y54390*
X110047D02*
X109979Y54296D01*
X109979D02*
X109910Y54250D01*
X109910D02*
X109774D01*
X109774D02*
X109706Y54296D01*
X109706D02*
X109638Y54390D01*
X109638D02*
X109604Y54484D01*
Y54625*
X109774D02*
X109604D01*
X109297Y55234D02*
Y54250D01*
X108990Y55234D02*
Y54250D01*
Y55234D02*
X108547D01*
X108990Y54765D02*
X108717D01*
X108990Y54250D02*
X108547D01*
X107763Y55093D02*
X107831Y55187D01*
X107831D02*
X107933Y55234D01*
X107933D02*
X108070D01*
X108172Y55187*
X108172D02*
X108240Y55093D01*
X108240D02*
Y55000D01*
X108206Y54906*
X108172Y54859*
X108104Y54812*
X108104D02*
X107899Y54718D01*
X107899D02*
X107831Y54671D01*
X107831D02*
X107797Y54625D01*
X107763Y54531*
Y54390*
X107763D02*
X107831Y54296D01*
X107831D02*
X107933Y54250D01*
X107933D02*
X108070D01*
X108172Y54296*
X108172D02*
X108240Y54390D01*
X106672Y55234D02*
Y54250D01*
Y55234D02*
X106229D01*
X106672Y54765D02*
X106399D01*
X106672Y54250D02*
X106229D01*
X105922Y55234D02*
Y54250D01*
Y55234D02*
X105445Y54250D01*
Y55234D02*
Y54250D01*
X104626Y55000D02*
X104660Y55093D01*
X104660D02*
X104729Y55187D01*
X104729D02*
X104797Y55234D01*
X104933*
X104933D02*
X105001Y55187D01*
X105001D02*
X105070Y55093D01*
X105070D02*
X105104Y55000D01*
X105138Y54859*
Y54625*
X105104Y54484*
X105070Y54390*
X105070D02*
X105001Y54296D01*
X105001D02*
X104933Y54250D01*
X104933D02*
X104797D01*
X104729Y54296*
X104729D02*
X104660Y54390D01*
X104660D02*
X104626Y54484D01*
X104626D02*
Y54625D01*
X104797D02*
X104626D01*
X104320Y55234D02*
Y54250D01*
X104013Y55234D02*
Y54250D01*
Y55234D02*
X103535Y54250D01*
Y55234D02*
Y54250D01*
X103229Y55234D02*
Y54250D01*
Y55234D02*
X102785D01*
X103229Y54765D02*
X102956D01*
X103229Y54250D02*
X102785D01*
X102479Y55234D02*
Y54250D01*
Y55234D02*
X102035D01*
X102479Y54765D02*
X102206D01*
X102479Y54250D02*
X102035D01*
X101729Y55234D02*
Y54250D01*
Y55234D02*
X101422D01*
X101320Y55187*
X101320D02*
X101285Y55140D01*
X101285D02*
X101251Y55046D01*
X101251D02*
Y54953D01*
X101251D02*
X101285Y54859D01*
X101285D02*
X101320Y54812D01*
X101320D02*
X101422Y54765D01*
X101422D02*
X101729D01*
X101490D02*
X101251Y54250D01*
X100945Y55234D02*
Y54250D01*
X100638Y55234D02*
Y54250D01*
Y55234D02*
X100160Y54250D01*
Y55234D02*
Y54250D01*
X99342Y55000D02*
X99376Y55093D01*
X99376D02*
X99445Y55187D01*
X99445D02*
X99513Y55234D01*
X99649*
X99649D02*
X99717Y55187D01*
X99717D02*
X99785Y55093D01*
X99785D02*
X99820Y55000D01*
X99854Y54859*
Y54625*
X99820Y54484*
X99785Y54390*
X99785D02*
X99717Y54296D01*
X99717D02*
X99649Y54250D01*
X99649D02*
X99513D01*
X99445Y54296*
X99445D02*
X99376Y54390D01*
X99376D02*
X99342Y54484D01*
X99342D02*
Y54625D01*
X99513D02*
X99342D01*
X97570Y54812D02*
Y54859D01*
X97604Y54906*
X97638*
X97672Y54859*
X97706Y54765*
X97706D02*
X97774Y54531D01*
X97774D02*
X97842Y54390D01*
X97842D02*
X97910Y54296D01*
X97910D02*
X97979Y54250D01*
X98115*
X98183Y54296*
X98183D02*
X98217Y54343D01*
X98217D02*
X98251Y54437D01*
X98251D02*
Y54531D01*
X98251D02*
X98217Y54625D01*
X98217D02*
X98183Y54671D01*
X98183D02*
X97945Y54859D01*
X97910Y54906*
X97910D02*
X97876Y55000D01*
X97876D02*
Y55093D01*
X97876D02*
X97910Y55187D01*
X97910D02*
X97979Y55234D01*
X98047Y55187*
X98047D02*
X98081Y55093D01*
X98081D02*
Y55000D01*
X98047Y54859*
X97979Y54718*
X97979D02*
X97808Y54390D01*
X97808D02*
X97740Y54296D01*
X97740D02*
X97672Y54250D01*
X97604*
X97570Y54296*
X97570D02*
Y54343D01*
X95967Y55000D02*
X96001Y55093D01*
X96001D02*
X96070Y55187D01*
X96070D02*
X96138Y55234D01*
X96274*
X96274D02*
X96342Y55187D01*
X96342D02*
X96410Y55093D01*
X96410D02*
X96445Y55000D01*
X96479Y54859*
Y54625*
X96445Y54484*
X96410Y54390*
X96410D02*
X96342Y54296D01*
X96342D02*
X96274Y54250D01*
X96274D02*
X96138D01*
X96070Y54296*
X96070D02*
X96001Y54390D01*
X96001D02*
X95967Y54484D01*
X95456Y55234D02*
X95524Y55187D01*
X95524D02*
X95592Y55093D01*
X95592D02*
X95626Y55000D01*
X95626D02*
X95660Y54859D01*
X95660D02*
Y54625D01*
X95660D02*
X95626Y54484D01*
X95626D02*
X95592Y54390D01*
X95592D02*
X95524Y54296D01*
X95524D02*
X95456Y54250D01*
X95320*
X95251Y54296*
X95251D02*
X95183Y54390D01*
X95183D02*
X95149Y54484D01*
X95149D02*
X95115Y54625D01*
Y54859*
X95149Y55000*
X95149D02*
X95183Y55093D01*
X95183D02*
X95251Y55187D01*
X95251D02*
X95320Y55234D01*
X95456*
X94808D02*
Y54250D01*
Y55234D02*
X94331Y54250D01*
Y55234D02*
Y54250D01*
X93547Y55093D02*
X93615Y55187D01*
X93615D02*
X93717Y55234D01*
X93717D02*
X93854D01*
X93956Y55187*
X93956D02*
X94024Y55093D01*
X94024D02*
Y55000D01*
X94024D02*
X93990Y54906D01*
X93956Y54859*
X93888Y54812*
X93888D02*
X93683Y54718D01*
X93683D02*
X93615Y54671D01*
X93615D02*
X93581Y54625D01*
X93547Y54531*
Y54390*
X93547D02*
X93615Y54296D01*
X93615D02*
X93717Y54250D01*
X93717D02*
X93854D01*
X93956Y54296*
X93956D02*
X94024Y54390D01*
X93240Y55234D02*
Y54531D01*
X93206Y54390*
X93206D02*
X93138Y54296D01*
X93138D02*
X93035Y54250D01*
X93035D02*
X92967D01*
X92967D02*
X92865Y54296D01*
X92865D02*
X92797Y54390D01*
X92797D02*
X92763Y54531D01*
Y55234*
X92456D02*
Y54250D01*
X92047*
X91501Y55234D02*
Y54250D01*
X91740Y55234D02*
X91263D01*
X90956D02*
Y54250D01*
X90649Y55234D02*
Y54250D01*
Y55234D02*
X90172Y54250D01*
Y55234D02*
Y54250D01*
X89354Y55000D02*
X89388Y55093D01*
X89388D02*
X89456Y55187D01*
X89456D02*
X89524Y55234D01*
X89524D02*
X89660D01*
X89660D02*
X89729Y55187D01*
X89729D02*
X89797Y55093D01*
X89797D02*
X89831Y55000D01*
X89865Y54859*
Y54625*
X89831Y54484*
X89797Y54390*
X89797D02*
X89729Y54296D01*
X89729D02*
X89660Y54250D01*
X89660D02*
X89524D01*
X89524D02*
X89456Y54296D01*
X89456D02*
X89388Y54390D01*
X89388D02*
X89354Y54484D01*
Y54625*
X89524D02*
X89354D01*
X88979Y54296D02*
X89013Y54250D01*
X89047Y54296*
X89047D02*
X89013Y54343D01*
X89013D02*
X88979Y54296D01*
X88979D02*
Y54203D01*
X89013Y54109*
X89047Y54062*
X87888Y55234D02*
Y54250D01*
X87581Y55234D02*
Y54250D01*
Y55234D02*
X87104Y54250D01*
Y55234D02*
Y54250D01*
X86285Y55000D02*
X86320Y55093D01*
X86320D02*
X86388Y55187D01*
X86388D02*
X86456Y55234D01*
X86592*
X86592D02*
X86660Y55187D01*
X86660D02*
X86729Y55093D01*
X86729D02*
X86763Y55000D01*
X86797Y54859*
Y54625*
X86763Y54484*
X86729Y54390*
X86729D02*
X86660Y54296D01*
X86660D02*
X86592Y54250D01*
X86592D02*
X86456D01*
X86388Y54296*
X86388D02*
X86320Y54390D01*
X86320D02*
X86285Y54484D01*
X85945Y54343D02*
X85979Y54296D01*
X85979D02*
X85945Y54250D01*
X85910Y54296*
X85910D02*
X85945Y54343D01*
X126570Y51500D02*
G75*
G03X126570I-1000J0D01*
G01X126070D02*
G03X126070I-500J0D01*
G01X125570Y53500D02*
Y49500D01*
X127570Y51500D02*
X123570D01*
X47570D02*
G03X47570I-1000J0D01*
G01X47070D02*
G03X47070I-500J0D01*
G01X46570Y53500D02*
Y49500D01*
X48570Y51500D02*
X44570D01*
X47570Y16000D02*
G03X47570I-1000J0D01*
G01X47070D02*
G03X47070I-500J0D01*
G01X46570Y18000D02*
Y14000D01*
X48570Y16000D02*
X44570D01*
X116570Y20000D02*
X121570D01*
Y24750*
Y42750D02*
Y47560D01*
X116820*
X61160Y47559D02*
X57005D01*
Y45985*
X50705*
Y41300*
X61167Y20000D02*
X57002D01*
Y21573*
X50703*
Y26270*
X121570Y27596D02*
Y31614D01*
X118620*
Y35940D02*
G03Y31614I-7J-2162D01*
G01Y35940D02*
X121570D01*
Y39956*
G54D50*
X86570Y22300D03*
Y22700D03*
G54D54*
X65480Y29500D03*
X65160D03*
X97410Y42000D03*
X97730D03*
X97410Y36000D03*
X97730D03*
X97410Y28250D03*
X97730D03*
X97410Y22250D03*
X97730D03*
X93910Y35000D03*
X94230D03*
X93910Y37000D03*
X94230D03*
X93910Y32250D03*
X94230D03*
X93910Y30250D03*
X94230D03*
X93910Y39000D03*
X94230D03*
X93910Y41000D03*
X94230D03*
X93910Y26250D03*
X94230D03*
X93910Y28250D03*
X94230D03*
X93910Y24250D03*
X94230D03*
X93910Y22250D03*
X94230D03*
X93910Y43000D03*
X94230D03*
X93910Y45000D03*
X94230D03*
X67980Y29175D03*
X67660D03*
X75410Y27000D03*
X75730D03*
X79230Y27250D03*
X78910D03*
X79230Y26750D03*
X78910D03*
X75410Y26500D03*
X75730D03*
X74235Y37950D03*
X74555D03*
X72480Y39000D03*
X72160D03*
X80855Y39250D03*
X80535D03*
X78777Y34015D03*
X78457D03*
X79402Y33622D03*
X79722D03*
X78457Y34645D03*
X78777D03*
X79717Y34015D03*
X80037D03*
X75312Y36496D03*
X74992D03*
X74210Y36338D03*
X73890D03*
X79087Y34645D03*
X79407D03*
X75627Y37165D03*
X75307D03*
X75627Y34606D03*
X75307D03*
X77827Y34645D03*
X78147D03*
X77517Y37480D03*
X77197D03*
X77866D03*
X78186D03*
X76218D03*
X75898D03*
X76528D03*
X76848D03*
X77517Y34645D03*
X77197D03*
X74249Y33700D03*
X73929D03*
X79402Y37519D03*
X79722D03*
X79402Y37126D03*
X79722D03*
X75942Y34960D03*
X75622D03*
X76887Y34645D03*
X76567D03*
X80898Y33582D03*
X81218D03*
X79402Y35275D03*
X79722D03*
X74210Y34921D03*
X73890D03*
X80898Y34881D03*
X81218D03*
X80910Y36000D03*
X81230D03*
X80910Y37250D03*
X81230D03*
X74210Y37244D03*
X73890D03*
X74210Y35708D03*
X73890D03*
X76887Y34015D03*
X76567D03*
X79717Y36220D03*
X80037D03*
X79717Y35748D03*
X80037D03*
X75627Y35944D03*
X75307D03*
X74997Y36850D03*
X74677D03*
X77866Y42283D03*
X78186D03*
X78934Y45748D03*
X78614D03*
X77871Y44488D03*
X77551D03*
X75268Y42283D03*
X75588D03*
X75976D03*
X76296D03*
X79131Y43543D03*
X78811D03*
X79131Y45118D03*
X78811D03*
X79441Y45748D03*
X79761D03*
X77866D03*
X78186D03*
X80386Y42598D03*
X80706D03*
X78575Y42283D03*
X78895D03*
X77236Y45118D03*
X77556D03*
X77123Y45748D03*
X76803D03*
X75273Y45787D03*
X74953D03*
X75982D03*
X75662D03*
X71105Y44125D03*
X70785D03*
X71105Y45375D03*
X70785D03*
X71105Y43500D03*
X70785D03*
X71105Y44750D03*
X70785D03*
X57480Y27250D03*
X57160D03*
X62660Y34000D03*
X62980D03*
X64980Y34250D03*
X64660D03*
G54D93*
X60900D03*
X60240D03*
G54D109*
X96660Y42000D03*
X96280D03*
X96660Y36000D03*
X96280D03*
X96660Y28250D03*
X96280D03*
X96660Y22250D03*
X96280D03*
X82630Y35250D03*
X83010D03*
X81570Y21060D03*
Y21440D03*
X82320Y21060D03*
Y21440D03*
X83070Y21060D03*
Y21440D03*
X95070Y34940D03*
Y34560D03*
Y36940D03*
Y36560D03*
Y32190D03*
Y31810D03*
Y30190D03*
Y29810D03*
Y38940D03*
Y38560D03*
Y40940D03*
Y40560D03*
Y28190D03*
Y27810D03*
Y26190D03*
Y25810D03*
Y24190D03*
Y23810D03*
Y22190D03*
Y21810D03*
Y44940D03*
Y44560D03*
Y42940D03*
Y42560D03*
X83510Y37375D03*
X83130D03*
G54D148*
X97694Y44000D03*
X97320D03*
X96946D03*
Y43000D03*
X97320D03*
X97694D03*
Y38000D03*
X97320D03*
X96946D03*
Y37000D03*
X97320D03*
X97694D03*
Y30250D03*
X97320D03*
X96946D03*
Y29250D03*
X97320D03*
X97694D03*
Y24250D03*
X97320D03*
X96946D03*
Y23250D03*
X97320D03*
X97694D03*
G54D197*
X65570Y42112D03*
Y42388D03*
X91070Y43138D03*
Y42862D03*
X88820Y33362D03*
Y33638D03*
X98320Y44388D03*
Y44112D03*
Y38388D03*
Y38112D03*
Y30638D03*
Y30362D03*
Y22862D03*
Y23138D03*
Y43362D03*
Y43638D03*
Y37362D03*
Y37638D03*
Y29612D03*
Y29888D03*
Y23612D03*
Y23888D03*
Y42888D03*
Y42612D03*
Y36888D03*
Y36612D03*
Y29138D03*
Y28862D03*
Y24362D03*
Y24638D03*
X80820Y21112D03*
Y21388D03*
X90070Y41888D03*
Y41612D03*
Y42862D03*
Y43138D03*
Y41138D03*
Y40862D03*
X90570Y43138D03*
Y42862D03*
X89820Y31138D03*
Y30862D03*
Y35862D03*
Y36138D03*
X77436Y39901D03*
Y40177D03*
X79070Y31388D03*
Y31112D03*
X76333Y44271D03*
Y44547D03*
G54D199*
X83682Y34750D03*
X83958D03*
X82682Y35750D03*
X82958D03*
Y34750D03*
X82682D03*
X72458Y36250D03*
X72182D03*
X83182Y39250D03*
X83458D03*
X84583D03*
X84307D03*
X83458Y37875D03*
X83182D03*
X83458Y38875D03*
X83182D03*
X83458Y39625D03*
X83182D03*
X83458Y38250D03*
X83182D03*
X61182Y42000D03*
X61458D03*
X77219Y44212D03*
X76943D03*
X73458Y45375D03*
X73182D03*
X73458Y45750D03*
X73182D03*
X73458Y42750D03*
X73182D03*
X73458Y43500D03*
X73182D03*
X73458Y46125D03*
X73182D03*
X73458Y45000D03*
X73182D03*
X73458Y44250D03*
X73182D03*
X73458Y42375D03*
X73182D03*
X73458Y43875D03*
X73182D03*
X73458Y42000D03*
X73182D03*
X73458Y44625D03*
X73182D03*
X73458Y43125D03*
X73182D03*
X62682Y34750D03*
X62958D03*
X93932Y34500D03*
X94208D03*
X93932Y36500D03*
X94208D03*
X93932Y31750D03*
X94208D03*
X93932Y29750D03*
X94208D03*
X93932Y38500D03*
X94208D03*
X93932Y40500D03*
X94208D03*
X93932Y27750D03*
X94208D03*
X93932Y25750D03*
X94208D03*
X93932Y23750D03*
X94208D03*
X93932Y21750D03*
X94208D03*
X93932Y44500D03*
X94208D03*
X93932Y42500D03*
X94208D03*
X61182Y43500D03*
X61458D03*
X61182Y44000D03*
X61458D03*
X61182Y40750D03*
X61458D03*
X61182Y41500D03*
X61458D03*
X84583Y37375D03*
X84307D03*
G54D334*
X118105Y23250D03*
X120035D03*
G54D335*
X119970Y21650D03*
X118170D03*
G74*
X0Y0D02*
M02*
