*
*
G04 PADS 9.2 Build Number: 414666 generated Gerber (RS-274-X) file*
G04 PC Version=2.1*
*
%IN "SC1B_REVD_ARC.pcb"*%
*
%MOIN*%
*
%FSLAX24Y24*%
*
*
*
*
G04 PC Standard Apertures*
*
*
G04 Thermal Relief Aperture macro.*
%AMTER*
1,1,$1,0,0*
1,0,$1-$2,0,0*
21,0,$3,$4,0,0,45*
21,0,$3,$4,0,0,135*
%
*
*
G04 Annular Aperture macro.*
%AMANN*
1,1,$1,0,0*
1,0,$2,0,0*
%
*
*
G04 Odd Aperture macro.*
%AMODD*
1,1,$1,0,0*
1,0,$1-0.005,0,0*
%
*
*
G04 PC Custom Aperture Macros*
*
*
*
*
*
*
G04 PC Aperture Table*
*
%ADD010C,0.001*%
%ADD013R,0.06X0.06*%
%ADD017R,0.04X0.038*%
%ADD019R,0.07X0.015*%
%ADD020R,0.07X0.024*%
%ADD023R,0.027X0.027*%
%ADD026C,0.04*%
%ADD028C,0.01*%
%ADD032C,0.005*%
%ADD043R,0.032X0.024*%
%ADD048R,0.04X0.024*%
%ADD049R,0.045X0.025*%
%ADD050R,0.03X0.03*%
%ADD053R,0.035X0.04*%
%ADD063C,0.008*%
%ADD137R,0.012X0.022*%
%ADD138R,0.06X0.05*%
%ADD169R,0.017X0.045*%
%ADD190R,0.045X0.017*%
%ADD197R,0.016X0.018*%
%ADD199R,0.018X0.016*%
%ADD212R,0.048X0.058*%
%ADD234C,0.013*%
%ADD286R,0.11X0.07*%
%ADD287R,0.024X0.045*%
%ADD289R,0.05X0.06*%
%ADD290R,0.01654X0.02362*%
%ADD291R,0.045X0.024*%
%ADD293R,0.029X0.029*%
%ADD294R,0.063X0.09*%
%ADD295R,0.024X0.05*%
%ADD296R,0.05X0.024*%
%ADD297R,0.02362X0.01654*%
%ADD298R,0.06X0.024*%
%ADD299R,0.011X0.048*%
%ADD300R,0.048X0.011*%
%ADD303R,0.07X0.11*%
%ADD304R,0.02X0.012*%
%ADD305R,0.039X0.063*%
%ADD306R,0.026X0.012*%
%ADD307R,0.04X0.068*%
%ADD308R,0.472X0.117*%
%ADD309R,0.077X0.124*%
%ADD310R,0.012X0.01*%
%ADD351R,0.028X0.04*%
%ADD352R,0.04X0.028*%
*
*
*
*
G04 PC Circuitry*
G04 Layer Name SC1B_REVD_ARC.pcb - circuitry*
%LPD*%
*
*
G04 PC Custom Flashes*
G04 Layer Name SC1B_REVD_ARC.pcb - flashes*
%LPD*%
*
*
G04 PC Circuitry*
G04 Layer Name SC1B_REVD_ARC.pcb - circuitry*
%LPD*%
*
G54D10*
G54D13*
G01X36750Y73762D03*
Y75112D03*
X38250Y73762D03*
Y75112D03*
X40575Y61500D03*
X41925D03*
X40575Y62650D03*
X41925D03*
X35250Y73762D03*
Y75112D03*
X33750Y73762D03*
Y75112D03*
X31475Y62650D03*
X30125D03*
X31475Y61500D03*
X30125D03*
X32250Y33850D03*
Y32500D03*
Y31425D03*
Y30075D03*
X38925Y39000D03*
X37575D03*
X31475Y60350D03*
X30125D03*
X40575D03*
X41925D03*
G54D17*
X27250Y67685D03*
Y68315D03*
X44250Y67185D03*
Y67815D03*
G54D19*
X28950Y38907D03*
Y38651D03*
Y38395D03*
Y38139D03*
Y37883D03*
Y37627D03*
Y37372D03*
Y37116D03*
Y36860D03*
Y36604D03*
Y36348D03*
Y36092D03*
X31050D03*
Y36348D03*
Y36604D03*
Y36860D03*
Y37116D03*
Y37372D03*
Y37627D03*
Y37883D03*
Y38139D03*
Y38395D03*
Y38651D03*
Y38907D03*
X28950Y43657D03*
Y43401D03*
Y43145D03*
Y42889D03*
Y42633D03*
Y42377D03*
Y42122D03*
Y41866D03*
Y41610D03*
Y41354D03*
Y41098D03*
Y40842D03*
X31050D03*
Y41098D03*
Y41354D03*
Y41610D03*
Y41866D03*
Y42122D03*
Y42377D03*
Y42633D03*
Y42889D03*
Y43145D03*
Y43401D03*
Y43657D03*
X37200Y32907D03*
Y32651D03*
Y32395D03*
Y32139D03*
Y31883D03*
Y31627D03*
Y31372D03*
Y31116D03*
Y30860D03*
Y30604D03*
Y30348D03*
Y30092D03*
X39300D03*
Y30348D03*
Y30604D03*
Y30860D03*
Y31116D03*
Y31372D03*
Y31627D03*
Y31883D03*
Y32139D03*
Y32395D03*
Y32651D03*
Y32907D03*
X37200Y42907D03*
Y42651D03*
Y42395D03*
Y42139D03*
Y41883D03*
Y41627D03*
Y41372D03*
Y41116D03*
Y40860D03*
Y40604D03*
Y40348D03*
Y40092D03*
X39300D03*
Y40348D03*
Y40604D03*
Y40860D03*
Y41116D03*
Y41372D03*
Y41627D03*
Y41883D03*
Y42139D03*
Y42395D03*
Y42651D03*
Y42907D03*
X37200Y29157D03*
Y28901D03*
Y28645D03*
Y28389D03*
Y28133D03*
Y27877D03*
Y27622D03*
Y27366D03*
Y27110D03*
Y26854D03*
Y26598D03*
Y26342D03*
X39300D03*
Y26598D03*
Y26854D03*
Y27110D03*
Y27366D03*
Y27622D03*
Y27877D03*
Y28133D03*
Y28389D03*
Y28645D03*
Y28901D03*
Y29157D03*
X33200Y42907D03*
Y42651D03*
Y42395D03*
Y42139D03*
Y41883D03*
Y41627D03*
Y41372D03*
Y41116D03*
Y40860D03*
Y40604D03*
Y40348D03*
Y40092D03*
X35300D03*
Y40348D03*
Y40604D03*
Y40860D03*
Y41116D03*
Y41372D03*
Y41627D03*
Y41883D03*
Y42139D03*
Y42395D03*
Y42651D03*
Y42907D03*
X32700Y29157D03*
Y28901D03*
Y28645D03*
Y28389D03*
Y28133D03*
Y27877D03*
Y27622D03*
Y27366D03*
Y27110D03*
Y26854D03*
Y26598D03*
Y26342D03*
X34800D03*
Y26598D03*
Y26854D03*
Y27110D03*
Y27366D03*
Y27622D03*
Y27877D03*
Y28133D03*
Y28389D03*
Y28645D03*
Y28901D03*
Y29157D03*
X33200Y38907D03*
Y38651D03*
Y38395D03*
Y38139D03*
Y37883D03*
Y37627D03*
Y37372D03*
Y37116D03*
Y36860D03*
Y36604D03*
Y36348D03*
Y36092D03*
X35300D03*
Y36348D03*
Y36604D03*
Y36860D03*
Y37116D03*
Y37372D03*
Y37627D03*
Y37883D03*
Y38139D03*
Y38395D03*
Y38651D03*
Y38907D03*
G54D20*
X37250Y37750D03*
Y37250D03*
Y36750D03*
Y36250D03*
X39250D03*
Y36750D03*
Y37250D03*
Y37750D03*
X37250Y45500D03*
Y45000D03*
Y44500D03*
Y44000D03*
X39250D03*
Y44500D03*
Y45000D03*
Y45500D03*
G54D23*
X28000Y25320D03*
Y25680D03*
X48820Y84000D03*
X49180D03*
X59555Y30625D03*
X59195D03*
X51680D03*
X51320D03*
X67430D03*
X67070D03*
X75305D03*
X74945D03*
X83180D03*
X82820D03*
X91055D03*
X90695D03*
X98930D03*
X98570D03*
X106805D03*
X106445D03*
X106805Y55375D03*
X106445D03*
X98930D03*
X98570D03*
X91055D03*
X90695D03*
X83180D03*
X82820D03*
X75305D03*
X74945D03*
X67430D03*
X67070D03*
X59555D03*
X59195D03*
X51880Y54900D03*
X51520D03*
X51880Y55625D03*
X51520D03*
X35070Y45500D03*
X35430D03*
X35070Y44000D03*
X35430D03*
X28750Y45430D03*
Y45070D03*
G54D26*
X82972Y41161D03*
X87972Y46161D03*
X89507Y36200D03*
X84507Y31200D03*
X90846Y41161D03*
X95846Y46161D03*
X97381Y36200D03*
X92381Y31200D03*
X98720Y41161D03*
X103720Y46161D03*
X105255Y36200D03*
X100255Y31200D03*
X106594Y41161D03*
X111594Y46161D03*
X113129Y36200D03*
X108129Y31200D03*
X106594Y65885D03*
X111594Y70885D03*
X113129Y60925D03*
X108129Y55925D03*
X98720Y65885D03*
X103720Y70885D03*
X51476Y41161D03*
X56476Y46161D03*
X105255Y60925D03*
X100255Y55925D03*
X90846Y65885D03*
X95846Y70885D03*
X97381Y60925D03*
X92381Y55925D03*
X82972Y65885D03*
X87972Y70885D03*
X89507Y60925D03*
X84507Y55925D03*
X75098Y65885D03*
X80098Y70885D03*
X81633Y60925D03*
X76633Y55925D03*
X67224Y65885D03*
X72224Y70885D03*
X73759Y60925D03*
X68759Y55925D03*
X59350Y65885D03*
X64350Y70885D03*
X58011Y36200D03*
X53011Y31200D03*
X65885Y60925D03*
X60885Y55925D03*
X51476Y65885D03*
X56476Y70885D03*
X58011Y60925D03*
X53011Y55925D03*
X59350Y41161D03*
X64350Y46161D03*
X65885Y36200D03*
X60885Y31200D03*
X67224Y41161D03*
X72224Y46161D03*
X73759Y36200D03*
X68759Y31200D03*
X75098Y41161D03*
X80098Y46161D03*
X81633Y36200D03*
X76633Y31200D03*
X120000Y77500D03*
Y25000D03*
X22000D03*
G54D28*
X78227Y85843D02*
X78159Y85937D01*
X78159D02*
X78056Y85984D01*
X78056D02*
X77920D01*
X77818Y85937*
X77818D02*
X77750Y85843D01*
X77750D02*
Y85750D01*
X77784Y85656*
X77818Y85609*
X77886Y85562*
X77886D02*
X78090Y85468D01*
X78090D02*
X78159Y85421D01*
X78159D02*
X78193Y85375D01*
X78227Y85281*
Y85140*
X78227D02*
X78159Y85046D01*
X78159D02*
X78056Y85000D01*
X78056D02*
X77920D01*
X77818Y85046*
X77818D02*
X77750Y85140D01*
X78738Y85984D02*
X78670Y85937D01*
X78670D02*
X78602Y85843D01*
X78602D02*
X78568Y85750D01*
X78534Y85609*
Y85375*
X78568Y85234*
X78602Y85140*
X78602D02*
X78670Y85046D01*
X78670D02*
X78738Y85000D01*
X78738D02*
X78875D01*
X78943Y85046*
X78943D02*
X79011Y85140D01*
X79011D02*
X79045Y85234D01*
X79079Y85375*
X79079D02*
Y85609D01*
X79079D02*
X79045Y85750D01*
X79011Y85843*
X79011D02*
X78943Y85937D01*
X78943D02*
X78875Y85984D01*
X78738*
X78840Y85187D02*
X79045Y84906D01*
X79386Y85984D02*
Y85281D01*
X79420Y85140*
X79420D02*
X79488Y85046D01*
X79488D02*
X79590Y85000D01*
X79590D02*
X79659D01*
X79761Y85046*
X79761D02*
X79829Y85140D01*
X79829D02*
X79863Y85281D01*
X79863D02*
Y85984D01*
X80170D02*
Y85000D01*
Y85984D02*
X80613D01*
X80170Y85515D02*
X80443D01*
X80170Y85000D02*
X80613D01*
X80920Y85984D02*
Y85000D01*
Y85984D02*
X81363D01*
X80920Y85515D02*
X81193D01*
X80920Y85000D02*
X81363D01*
X82181Y85750D02*
X82147Y85843D01*
X82147D02*
X82079Y85937D01*
X82079D02*
X82011Y85984D01*
X81875*
X81806Y85937*
X81806D02*
X81738Y85843D01*
X81738D02*
X81704Y85750D01*
X81704D02*
X81670Y85609D01*
Y85375*
X81704Y85234*
X81704D02*
X81738Y85140D01*
X81738D02*
X81806Y85046D01*
X81806D02*
X81875Y85000D01*
X82011*
X82079Y85046*
X82079D02*
X82147Y85140D01*
X82147D02*
X82181Y85234D01*
X82181D02*
Y85375D01*
X82011D02*
X82181D01*
X82488Y85984D02*
Y85000D01*
Y85984D02*
X82931D01*
X82488Y85515D02*
X82761D01*
X82488Y85000D02*
X82931D01*
X83238Y85984D02*
Y85000D01*
Y85984D02*
X83681D01*
X83238Y85515D02*
X83511D01*
X83238Y85000D02*
X83681D01*
X85250Y85843D02*
X85181Y85937D01*
X85181D02*
X85079Y85984D01*
X85079D02*
X84943D01*
X84840Y85937*
X84840D02*
X84772Y85843D01*
X84772D02*
Y85750D01*
X84772D02*
X84806Y85656D01*
X84806D02*
X84840Y85609D01*
X84840D02*
X84909Y85562D01*
X84909D02*
X85113Y85468D01*
X85113D02*
X85181Y85421D01*
X85181D02*
X85215Y85375D01*
X85215D02*
X85250Y85281D01*
Y85140*
X85250D02*
X85181Y85046D01*
X85181D02*
X85079Y85000D01*
X85079D02*
X84943D01*
X84840Y85046*
X84840D02*
X84772Y85140D01*
X85556Y85984D02*
Y85000D01*
X85863Y85984D02*
Y85000D01*
Y85984D02*
X86102D01*
X86204Y85937*
X86204D02*
X86272Y85843D01*
X86272D02*
X86306Y85750D01*
X86306D02*
X86340Y85609D01*
X86340D02*
Y85375D01*
X86340D02*
X86306Y85234D01*
X86306D02*
X86272Y85140D01*
X86272D02*
X86204Y85046D01*
X86204D02*
X86102Y85000D01*
X85863*
X86647Y85984D02*
Y85000D01*
Y85984D02*
X87090D01*
X86647Y85515D02*
X86920D01*
X86647Y85000D02*
X87090D01*
X20324Y101614D02*
X20256Y101567D01*
X20256D02*
X20188Y101473D01*
X20188D02*
X20154Y101380D01*
X20120Y101239*
Y101005*
X20154Y100864*
X20188Y100770*
X20188D02*
X20256Y100676D01*
X20256D02*
X20324Y100630D01*
X20324D02*
X20460D01*
X20460D02*
X20529Y100676D01*
X20529D02*
X20597Y100770D01*
X20597D02*
X20631Y100864D01*
X20665Y101005*
Y101239*
X20631Y101380*
X20597Y101473*
X20597D02*
X20529Y101567D01*
X20529D02*
X20460Y101614D01*
X20460D02*
X20324D01*
X20972D02*
Y100630D01*
Y101614D02*
X21279D01*
X21381Y101567*
X21381D02*
X21415Y101520D01*
X21415D02*
X21449Y101426D01*
X21449D02*
Y101333D01*
X21449D02*
X21415Y101239D01*
X21381Y101192*
X21381D02*
X21279Y101145D01*
X20972D02*
X21279D01*
X21279D02*
X21381Y101098D01*
X21381D02*
X21415Y101051D01*
X21415D02*
X21449Y100958D01*
X21449D02*
Y100817D01*
X21449D02*
X21415Y100723D01*
X21415D02*
X21381Y100676D01*
X21381D02*
X21279Y100630D01*
X20972*
X21756Y101614D02*
Y100630D01*
Y101614D02*
X22199D01*
X21756Y101145D02*
X22029D01*
X21756Y100630D02*
X22199D01*
X22506Y101614D02*
Y100630D01*
X22915*
X23222Y101614D02*
Y100630D01*
X24006Y101473D02*
X23938Y101567D01*
X23938D02*
X23835Y101614D01*
X23835D02*
X23699D01*
X23699D02*
X23597Y101567D01*
X23597D02*
X23529Y101473D01*
X23529D02*
Y101380D01*
X23563Y101286*
X23597Y101239*
X23665Y101192*
X23665D02*
X23870Y101098D01*
X23870D02*
X23938Y101051D01*
X23938D02*
X23972Y101005D01*
X24006Y100911*
Y100770*
X24006D02*
X23938Y100676D01*
X23938D02*
X23835Y100630D01*
X23835D02*
X23699D01*
X23699D02*
X23597Y100676D01*
X23597D02*
X23529Y100770D01*
X24313Y101614D02*
Y100630D01*
X24790Y101614D02*
X24313Y100958D01*
X24483Y101192D02*
X24790Y100630D01*
X25881Y101614D02*
Y100630D01*
X26358Y101614D02*
Y100630D01*
X25881Y101145D02*
X26358D01*
X26938Y101614D02*
X26665Y100630D01*
X26938Y101614D02*
X27210Y100630D01*
X26767Y100958D02*
X27108D01*
X27995Y101473D02*
X27926Y101567D01*
X27926D02*
X27824Y101614D01*
X27824D02*
X27688D01*
X27585Y101567*
X27585D02*
X27517Y101473D01*
X27517D02*
Y101380D01*
X27517D02*
X27551Y101286D01*
X27551D02*
X27585Y101239D01*
X27585D02*
X27654Y101192D01*
X27654D02*
X27858Y101098D01*
X27858D02*
X27926Y101051D01*
X27926D02*
X27960Y101005D01*
X27960D02*
X27995Y100911D01*
Y100770*
X27995D02*
X27926Y100676D01*
X27926D02*
X27824Y100630D01*
X27824D02*
X27688D01*
X27585Y100676*
X27585D02*
X27517Y100770D01*
X28301Y101614D02*
Y100630D01*
X28779Y101614D02*
Y100630D01*
X28301Y101145D02*
X28779D01*
X29085Y101614D02*
Y100630D01*
X29392Y101614D02*
Y100630D01*
Y101614D02*
X29870Y100630D01*
Y101614D02*
Y100630D01*
X30688Y101380D02*
X30654Y101473D01*
X30654D02*
X30585Y101567D01*
X30585D02*
X30517Y101614D01*
X30517D02*
X30381D01*
X30313Y101567*
X30313D02*
X30245Y101473D01*
X30245D02*
X30210Y101380D01*
X30210D02*
X30176Y101239D01*
X30176D02*
Y101005D01*
X30176D02*
X30210Y100864D01*
X30210D02*
X30245Y100770D01*
X30245D02*
X30313Y100676D01*
X30313D02*
X30381Y100630D01*
X30517*
X30517D02*
X30585Y100676D01*
X30585D02*
X30654Y100770D01*
X30654D02*
X30688Y100864D01*
Y101005*
X30517D02*
X30688D01*
X31779Y101614D02*
Y100630D01*
Y101614D02*
X32085D01*
X32085D02*
X32188Y101567D01*
X32188D02*
X32222Y101520D01*
X32222D02*
X32256Y101426D01*
X32256D02*
Y101333D01*
X32222Y101239*
X32188Y101192*
X32188D02*
X32085Y101145D01*
X31779D02*
X32085D01*
X32085D02*
X32188Y101098D01*
X32188D02*
X32222Y101051D01*
X32222D02*
X32256Y100958D01*
Y100817*
X32256D02*
X32222Y100723D01*
X32222D02*
X32188Y100676D01*
X32188D02*
X32085Y100630D01*
X32085D02*
X31779D01*
X32767Y101614D02*
X32699Y101567D01*
X32699D02*
X32631Y101473D01*
X32631D02*
X32597Y101380D01*
X32563Y101239*
Y101005*
X32597Y100864*
X32631Y100770*
X32631D02*
X32699Y100676D01*
X32699D02*
X32767Y100630D01*
X32767D02*
X32904D01*
X32972Y100676*
X32972D02*
X33040Y100770D01*
X33040D02*
X33074Y100864D01*
X33074D02*
X33108Y101005D01*
X33108D02*
Y101239D01*
X33108D02*
X33074Y101380D01*
X33074D02*
X33040Y101473D01*
X33040D02*
X32972Y101567D01*
X32972D02*
X32904Y101614D01*
X32767*
X33688D02*
X33415Y100630D01*
X33688Y101614D02*
X33960Y100630D01*
X33517Y100958D02*
X33858D01*
X34267Y101614D02*
Y100630D01*
Y101614D02*
X34574D01*
X34574D02*
X34676Y101567D01*
X34676D02*
X34710Y101520D01*
X34710D02*
X34745Y101426D01*
X34745D02*
Y101333D01*
X34710Y101239*
X34710D02*
X34676Y101192D01*
X34676D02*
X34574Y101145D01*
X34574D02*
X34267D01*
X34506D02*
X34745Y100630D01*
X35051Y101614D02*
Y100630D01*
Y101614D02*
X35290D01*
X35392Y101567*
X35392D02*
X35460Y101473D01*
X35460D02*
X35495Y101380D01*
X35529Y101239*
Y101005*
X35495Y100864*
X35460Y100770*
X35460D02*
X35392Y100676D01*
X35392D02*
X35290Y100630D01*
X35051*
X37131Y101380D02*
X37097Y101473D01*
X37097D02*
X37029Y101567D01*
X37029D02*
X36960Y101614D01*
X36960D02*
X36824D01*
X36824D02*
X36756Y101567D01*
X36756D02*
X36688Y101473D01*
X36688D02*
X36654Y101380D01*
X36620Y101239*
Y101005*
X36654Y100864*
X36688Y100770*
X36688D02*
X36756Y100676D01*
X36756D02*
X36824Y100630D01*
X36824D02*
X36960D01*
X36960D02*
X37029Y100676D01*
X37029D02*
X37097Y100770D01*
X37097D02*
X37131Y100864D01*
Y101005*
X36960D02*
X37131D01*
X37438Y101614D02*
Y100630D01*
Y101614D02*
X37881D01*
X37438Y101145D02*
X37710D01*
X37438Y100630D02*
X37881D01*
X38188Y101614D02*
Y100630D01*
Y101614D02*
X38665Y100630D01*
Y101614D02*
Y100630D01*
X39006Y101380D02*
Y101426D01*
X39006D02*
X39040Y101520D01*
X39040D02*
X39074Y101567D01*
X39074D02*
X39142Y101614D01*
X39142D02*
X39279D01*
X39347Y101567*
X39347D02*
X39381Y101520D01*
X39381D02*
X39415Y101426D01*
X39415D02*
Y101333D01*
X39381Y101239*
X39313Y101098*
X39313D02*
X38972Y100630D01*
X39449*
X40540Y101614D02*
Y100630D01*
Y101614D02*
X40847D01*
X40949Y101567*
X40949D02*
X40983Y101520D01*
X40983D02*
X41017Y101426D01*
X41017D02*
Y101333D01*
X41017D02*
X40983Y101239D01*
X40983D02*
X40949Y101192D01*
X40949D02*
X40847Y101145D01*
X40847D02*
X40540D01*
X40779D02*
X41017Y100630D01*
X41324Y101614D02*
Y100630D01*
Y101614D02*
X41767D01*
X41324Y101145D02*
X41597D01*
X41324Y100630D02*
X41767D01*
X42074Y101614D02*
X42347Y100630D01*
X42620Y101614D02*
X42347Y100630D01*
X43710Y101614D02*
Y100630D01*
Y101614D02*
X43949D01*
X43949D02*
X44051Y101567D01*
X44051D02*
X44120Y101473D01*
X44120D02*
X44154Y101380D01*
X44188Y101239*
Y101005*
X44154Y100864*
X44120Y100770*
X44120D02*
X44051Y100676D01*
X44051D02*
X43949Y100630D01*
X43949D02*
X43710D01*
X20230Y99559D02*
Y98575D01*
Y99559D02*
X20536D01*
X20536D02*
X20639Y99512D01*
X20639D02*
X20673Y99465D01*
X20673D02*
X20707Y99371D01*
X20707D02*
Y99231D01*
X20673Y99137*
X20673D02*
X20639Y99090D01*
X20639D02*
X20536Y99043D01*
X20536D02*
X20230D01*
X21286Y99559D02*
X21014Y98575D01*
X21286Y99559D02*
X21559Y98575D01*
X21116Y98903D02*
X21457D01*
X22343Y99418D02*
X22275Y99512D01*
X22275D02*
X22173Y99559D01*
X22036*
X22036D02*
X21934Y99512D01*
X21934D02*
X21866Y99418D01*
X21866D02*
Y99325D01*
X21900Y99231*
X21934Y99184*
X21934D02*
X22002Y99137D01*
X22002D02*
X22207Y99043D01*
X22207D02*
X22275Y98996D01*
X22275D02*
X22309Y98950D01*
X22309D02*
X22343Y98856D01*
X22343D02*
Y98715D01*
X22343D02*
X22275Y98621D01*
X22275D02*
X22173Y98575D01*
X22036*
X22036D02*
X21934Y98621D01*
X21934D02*
X21866Y98715D01*
X22889Y99559D02*
Y98575D01*
X22650Y99559D02*
X23127D01*
X23434D02*
Y98575D01*
Y99559D02*
X23877D01*
X23434Y99090D02*
X23707D01*
X23434Y98575D02*
X23877D01*
X24968Y99559D02*
Y98575D01*
Y99559D02*
X25241Y98575D01*
X25514Y99559D02*
X25241Y98575D01*
X25514Y99559D02*
Y98575D01*
X26093Y99559D02*
X25820Y98575D01*
X26093Y99559D02*
X26366Y98575D01*
X25923Y98903D02*
X26264D01*
X27150Y99418D02*
X27082Y99512D01*
X27082D02*
X26980Y99559D01*
X26843*
X26843D02*
X26741Y99512D01*
X26741D02*
X26673Y99418D01*
X26673D02*
Y99325D01*
X26707Y99231*
X26741Y99184*
X26809Y99137*
X26809D02*
X27014Y99043D01*
X27014D02*
X27082Y98996D01*
X27082D02*
X27116Y98950D01*
X27150Y98856*
Y98715*
X27150D02*
X27082Y98621D01*
X27082D02*
X26980Y98575D01*
X26843*
X26843D02*
X26741Y98621D01*
X26741D02*
X26673Y98715D01*
X27457Y99559D02*
Y98575D01*
X27934Y99559D02*
X27457Y98903D01*
X27627Y99137D02*
X27934Y98575D01*
X29025Y99559D02*
Y98575D01*
Y99559D02*
X29332D01*
X29434Y99512*
X29434D02*
X29468Y99465D01*
X29468D02*
X29502Y99371D01*
X29502D02*
Y99231D01*
X29502D02*
X29468Y99137D01*
X29468D02*
X29434Y99090D01*
X29434D02*
X29332Y99043D01*
X29332D02*
X29025D01*
X29809Y99559D02*
Y98575D01*
Y99559D02*
X30116D01*
X30218Y99512*
X30218D02*
X30252Y99465D01*
X30252D02*
X30286Y99371D01*
X30286D02*
Y99278D01*
X30286D02*
X30252Y99184D01*
X30252D02*
X30218Y99137D01*
X30218D02*
X30116Y99090D01*
X30116D02*
X29809D01*
X30048D02*
X30286Y98575D01*
X30593Y99559D02*
Y98575D01*
X30900Y99559D02*
Y98575D01*
Y99559D02*
X31173Y98575D01*
X31445Y99559D02*
X31173Y98575D01*
X31445Y99559D02*
Y98575D01*
X32025Y99559D02*
X31752Y98575D01*
X32025Y99559D02*
X32298Y98575D01*
X31855Y98903D02*
X32195D01*
X32605Y99559D02*
Y98575D01*
Y99559D02*
X32911D01*
X32911D02*
X33014Y99512D01*
X33014D02*
X33048Y99465D01*
X33048D02*
X33082Y99371D01*
X33082D02*
Y99278D01*
X33048Y99184*
X33014Y99137*
X33014D02*
X32911Y99090D01*
X32911D02*
X32605D01*
X32843D02*
X33082Y98575D01*
X33389Y99559D02*
X33661Y99090D01*
X33661D02*
Y98575D01*
X33934Y99559D02*
X33661Y99090D01*
X35502Y99418D02*
X35434Y99512D01*
X35434D02*
X35332Y99559D01*
X35195*
X35195D02*
X35093Y99512D01*
X35093D02*
X35025Y99418D01*
X35025D02*
Y99325D01*
X35059Y99231*
X35059D02*
X35093Y99184D01*
X35093D02*
X35161Y99137D01*
X35161D02*
X35366Y99043D01*
X35366D02*
X35434Y98996D01*
X35434D02*
X35468Y98950D01*
X35468D02*
X35502Y98856D01*
X35502D02*
Y98715D01*
X35502D02*
X35434Y98621D01*
X35434D02*
X35332Y98575D01*
X35195*
X35195D02*
X35093Y98621D01*
X35093D02*
X35025Y98715D01*
X35809Y99559D02*
Y98575D01*
X36116Y99559D02*
Y98575D01*
Y99559D02*
X36355D01*
X36457Y99512*
X36457D02*
X36525Y99418D01*
X36525D02*
X36559Y99325D01*
X36559D02*
X36593Y99184D01*
X36593D02*
Y98950D01*
X36593D02*
X36559Y98809D01*
X36559D02*
X36525Y98715D01*
X36525D02*
X36457Y98621D01*
X36457D02*
X36355Y98575D01*
X36116*
X36900Y99559D02*
Y98575D01*
Y99559D02*
X37343D01*
X36900Y99090D02*
X37173D01*
X36900Y98575D02*
X37343D01*
X20324Y103614D02*
X20256Y103567D01*
X20256D02*
X20188Y103473D01*
X20188D02*
X20154Y103380D01*
X20120Y103239*
Y103005*
X20154Y102864*
X20188Y102770*
X20188D02*
X20256Y102676D01*
X20256D02*
X20324Y102630D01*
X20324D02*
X20460D01*
X20460D02*
X20529Y102676D01*
X20529D02*
X20597Y102770D01*
X20597D02*
X20631Y102864D01*
X20665Y103005*
Y103239*
X20631Y103380*
X20597Y103473*
X20597D02*
X20529Y103567D01*
X20529D02*
X20460Y103614D01*
X20460D02*
X20324D01*
X20972D02*
Y102630D01*
Y103614D02*
X21279D01*
X21381Y103567*
X21381D02*
X21415Y103520D01*
X21415D02*
X21449Y103426D01*
X21449D02*
Y103333D01*
X21449D02*
X21415Y103239D01*
X21381Y103192*
X21381D02*
X21279Y103145D01*
X20972D02*
X21279D01*
X21279D02*
X21381Y103098D01*
X21381D02*
X21415Y103051D01*
X21415D02*
X21449Y102958D01*
X21449D02*
Y102817D01*
X21449D02*
X21415Y102723D01*
X21415D02*
X21381Y102676D01*
X21381D02*
X21279Y102630D01*
X20972*
X21756Y103614D02*
Y102630D01*
Y103614D02*
X22199D01*
X21756Y103145D02*
X22029D01*
X21756Y102630D02*
X22199D01*
X22506Y103614D02*
Y102630D01*
X22915*
X23222Y103614D02*
Y102630D01*
X24006Y103473D02*
X23938Y103567D01*
X23938D02*
X23835Y103614D01*
X23835D02*
X23699D01*
X23699D02*
X23597Y103567D01*
X23597D02*
X23529Y103473D01*
X23529D02*
Y103380D01*
X23563Y103286*
X23597Y103239*
X23665Y103192*
X23665D02*
X23870Y103098D01*
X23870D02*
X23938Y103051D01*
X23938D02*
X23972Y103005D01*
X24006Y102911*
Y102770*
X24006D02*
X23938Y102676D01*
X23938D02*
X23835Y102630D01*
X23835D02*
X23699D01*
X23699D02*
X23597Y102676D01*
X23597D02*
X23529Y102770D01*
X24313Y103614D02*
Y102630D01*
X24790Y103614D02*
X24313Y102958D01*
X24483Y103192D02*
X24790Y102630D01*
X25165Y102676D02*
X25131Y102630D01*
X25097Y102676*
X25097D02*
X25131Y102723D01*
X25131D02*
X25165Y102676D01*
X25165D02*
Y102583D01*
X25131Y102489*
X25097Y102442*
X26256Y103614D02*
Y102630D01*
X26665*
X26972Y103614D02*
Y102630D01*
X27381*
X28199Y103380D02*
X28165Y103473D01*
X28165D02*
X28097Y103567D01*
X28097D02*
X28029Y103614D01*
X27892*
X27892D02*
X27824Y103567D01*
X27824D02*
X27756Y103473D01*
X27756D02*
X27722Y103380D01*
X27688Y103239*
Y103005*
X27722Y102864*
X27756Y102770*
X27756D02*
X27824Y102676D01*
X27824D02*
X27892Y102630D01*
X27892D02*
X28029D01*
X28097Y102676*
X28097D02*
X28165Y102770D01*
X28165D02*
X28199Y102864D01*
X28540Y102723D02*
X28506Y102676D01*
X28506D02*
X28540Y102630D01*
X28574Y102676*
X28574D02*
X28540Y102723D01*
X25000Y20000D02*
X20000D01*
Y25000*
X59250Y80236D02*
X54250D01*
Y85375*
X49242Y95200D02*
X54251D01*
Y90202*
X116570Y80236D02*
X121570D01*
Y75250*
X20000Y90193D02*
Y95200D01*
X24965*
X121570Y25000D02*
Y20000D01*
X116570*
X126750Y99250D02*
G75*
G03X126750I-1000J0D01*
G01X126250D02*
G03X126250I-500J0D01*
G01X125750Y101250D02*
Y97250D01*
X123750Y99250D02*
X127750D01*
X126750Y16000D02*
G03X126750I-1000J0D01*
G01X126250D02*
G03X126250I-500J0D01*
G01X125750Y18000D02*
Y14000D01*
X123750Y16000D02*
X127750D01*
X17000D02*
G03X17000I-1000J0D01*
G01X16500D02*
G03X16500I-500J0D01*
G01X16000Y18000D02*
Y14000D01*
X14000Y16000D02*
X18000D01*
G54D32*
X42975Y74775D02*
X42599D01*
X42599D02*
X42585Y74789D01*
X42585D02*
Y75855D01*
X41005*
Y74789*
X41005D02*
X40990Y74775D01*
X40625*
Y74495*
X40990*
X41005Y74480*
Y74365*
X42585*
Y74480*
X42599Y74495*
X42599D02*
X42975D01*
Y74775*
X40625Y74495D02*
Y74775D01*
X40650Y74495D02*
Y74775D01*
X40675Y74495D02*
Y74775D01*
X40700Y74495D02*
Y74775D01*
X40725Y74495D02*
Y74775D01*
X40750Y74495D02*
Y74775D01*
X40775Y74495D02*
Y74775D01*
X40800Y74495D02*
Y74775D01*
X40825Y74495D02*
Y74775D01*
X40850Y74495D02*
Y74775D01*
X40875Y74495D02*
Y74775D01*
X40900Y74495D02*
Y74775D01*
X40925Y74495D02*
Y74775D01*
X40950Y74495D02*
Y74775D01*
X40975Y74495D02*
Y74775D01*
X41000Y74485D02*
Y74784D01*
X41025Y74365D02*
Y75855D01*
X41050Y74365D02*
Y75855D01*
X41075Y74365D02*
Y75855D01*
X41100Y74365D02*
Y75855D01*
X41125Y74365D02*
Y75855D01*
X41150Y74365D02*
Y75855D01*
X41175Y74365D02*
Y75855D01*
X41200Y74365D02*
Y75855D01*
X41225Y74365D02*
Y75855D01*
X41250Y74365D02*
Y75855D01*
X41275Y74365D02*
Y75855D01*
X41300Y74365D02*
Y75855D01*
X41325Y74365D02*
Y75855D01*
X41350Y74365D02*
Y75855D01*
X41375Y74365D02*
Y75855D01*
X41400Y74365D02*
Y75855D01*
X41425Y74365D02*
Y75855D01*
X41450Y74365D02*
Y75855D01*
X41475Y74365D02*
Y75855D01*
X41500Y74365D02*
Y75855D01*
X41525Y74365D02*
Y75855D01*
X41550Y74365D02*
Y75855D01*
X41575Y74365D02*
Y75855D01*
X41600Y74365D02*
Y75855D01*
X41625Y74365D02*
Y75855D01*
X41650Y74365D02*
Y75855D01*
X41675Y74365D02*
Y75855D01*
X41700Y74365D02*
Y75855D01*
X41725Y74365D02*
Y75855D01*
X41750Y74365D02*
Y75855D01*
X41775Y74365D02*
Y75855D01*
X41800Y74365D02*
Y75855D01*
X41825Y74365D02*
Y75855D01*
X41850Y74365D02*
Y75855D01*
X41875Y74365D02*
Y75855D01*
X41900Y74365D02*
Y75855D01*
X41925Y74365D02*
Y75855D01*
X41950Y74365D02*
Y75855D01*
X41975Y74365D02*
Y75855D01*
X42000Y74365D02*
Y75855D01*
X42025Y74365D02*
Y75855D01*
X42050Y74365D02*
Y75855D01*
X42075Y74365D02*
Y75855D01*
X42100Y74365D02*
Y75855D01*
X42125Y74365D02*
Y75855D01*
X42150Y74365D02*
Y75855D01*
X42175Y74365D02*
Y75855D01*
X42200Y74365D02*
Y75855D01*
X42225Y74365D02*
Y75855D01*
X42250Y74365D02*
Y75855D01*
X42275Y74365D02*
Y75855D01*
X42300Y74365D02*
Y75855D01*
X42325Y74365D02*
Y75855D01*
X42350Y74365D02*
Y75855D01*
X42375Y74365D02*
Y75855D01*
X42400Y74365D02*
Y75855D01*
X42425Y74365D02*
Y75855D01*
X42450Y74365D02*
Y75855D01*
X42475Y74365D02*
Y75855D01*
X42500Y74365D02*
Y75855D01*
X42525Y74365D02*
Y75855D01*
X42550Y74365D02*
Y75855D01*
X42575Y74365D02*
Y75855D01*
X42600Y74495D02*
Y74775D01*
X42625Y74495D02*
Y74775D01*
X42650Y74495D02*
Y74775D01*
X42675Y74495D02*
Y74775D01*
X42700Y74495D02*
Y74775D01*
X42725Y74495D02*
Y74775D01*
X42750Y74495D02*
Y74775D01*
X42775Y74495D02*
Y74775D01*
X42800Y74495D02*
Y74775D01*
X42825Y74495D02*
Y74775D01*
X42850Y74495D02*
Y74775D01*
X42875Y74495D02*
Y74775D01*
X42900Y74495D02*
Y74775D01*
X42925Y74495D02*
Y74775D01*
X42950Y74495D02*
Y74775D01*
X39075Y69762D02*
Y70137D01*
X39089Y70152*
X39089D02*
X40155D01*
Y71732*
X39089*
X39089D02*
X39075Y71746D01*
X39075D02*
Y72112D01*
X38795*
Y71746*
X38795D02*
X38780Y71732D01*
X38665*
Y70152*
X38780*
X38795Y70137*
Y69762*
X39075*
X38675Y70152D02*
Y71732D01*
X38700Y70152D02*
Y71732D01*
X38725Y70152D02*
Y71732D01*
X38750Y70152D02*
Y71732D01*
X38775Y70152D02*
Y71732D01*
X38800Y69762D02*
Y72112D01*
X38825Y69762D02*
Y72112D01*
X38850Y69762D02*
Y72112D01*
X38875Y69762D02*
Y72112D01*
X38900Y69762D02*
Y72112D01*
X38925Y69762D02*
Y72112D01*
X38950Y69762D02*
Y72112D01*
X38975Y69762D02*
Y72112D01*
X39000Y69762D02*
Y72112D01*
X39025Y69762D02*
Y72112D01*
X39050Y69762D02*
Y72112D01*
X39075Y70137D02*
Y71746D01*
X39100Y70152D02*
Y71732D01*
X39125Y70152D02*
Y71732D01*
X39150Y70152D02*
Y71732D01*
X39175Y70152D02*
Y71732D01*
X39200Y70152D02*
Y71732D01*
X39225Y70152D02*
Y71732D01*
X39250Y70152D02*
Y71732D01*
X39275Y70152D02*
Y71732D01*
X39300Y70152D02*
Y71732D01*
X39325Y70152D02*
Y71732D01*
X39350Y70152D02*
Y71732D01*
X39375Y70152D02*
Y71732D01*
X39400Y70152D02*
Y71732D01*
X39425Y70152D02*
Y71732D01*
X39450Y70152D02*
Y71732D01*
X39475Y70152D02*
Y71732D01*
X39500Y70152D02*
Y71732D01*
X39525Y70152D02*
Y71732D01*
X39550Y70152D02*
Y71732D01*
X39575Y70152D02*
Y71732D01*
X39600Y70152D02*
Y71732D01*
X39625Y70152D02*
Y71732D01*
X39650Y70152D02*
Y71732D01*
X39675Y70152D02*
Y71732D01*
X39700Y70152D02*
Y71732D01*
X39725Y70152D02*
Y71732D01*
X39750Y70152D02*
Y71732D01*
X39775Y70152D02*
Y71732D01*
X39800Y70152D02*
Y71732D01*
X39825Y70152D02*
Y71732D01*
X39850Y70152D02*
Y71732D01*
X39875Y70152D02*
Y71732D01*
X39900Y70152D02*
Y71732D01*
X39925Y70152D02*
Y71732D01*
X39950Y70152D02*
Y71732D01*
X39975Y70152D02*
Y71732D01*
X40000Y70152D02*
Y71732D01*
X40025Y70152D02*
Y71732D01*
X40050Y70152D02*
Y71732D01*
X40075Y70152D02*
Y71732D01*
X40100Y70152D02*
Y71732D01*
X40125Y70152D02*
Y71732D01*
X40150Y70152D02*
Y71732D01*
X32925Y74762D02*
X32549D01*
X32549D02*
X32535Y74776D01*
X32535D02*
Y75842D01*
X30955*
Y74776*
X30955D02*
X30940Y74762D01*
X30575*
Y74482*
X30940*
X30955Y74467*
Y74352*
X32535*
Y74467*
X32549Y74482*
X32549D02*
X32925D01*
Y74762*
X30575Y74482D02*
Y74762D01*
X30600Y74482D02*
Y74762D01*
X30625Y74482D02*
Y74762D01*
X30650Y74482D02*
Y74762D01*
X30675Y74482D02*
Y74762D01*
X30700Y74482D02*
Y74762D01*
X30725Y74482D02*
Y74762D01*
X30750Y74482D02*
Y74762D01*
X30775Y74482D02*
Y74762D01*
X30800Y74482D02*
Y74762D01*
X30825Y74482D02*
Y74762D01*
X30850Y74482D02*
Y74762D01*
X30875Y74482D02*
Y74762D01*
X30900Y74482D02*
Y74762D01*
X30925Y74482D02*
Y74762D01*
X30950Y74472D02*
Y74771D01*
X30975Y74352D02*
Y75842D01*
X31000Y74352D02*
Y75842D01*
X31025Y74352D02*
Y75842D01*
X31050Y74352D02*
Y75842D01*
X31075Y74352D02*
Y75842D01*
X31100Y74352D02*
Y75842D01*
X31125Y74352D02*
Y75842D01*
X31150Y74352D02*
Y75842D01*
X31175Y74352D02*
Y75842D01*
X31200Y74352D02*
Y75842D01*
X31225Y74352D02*
Y75842D01*
X31250Y74352D02*
Y75842D01*
X31275Y74352D02*
Y75842D01*
X31300Y74352D02*
Y75842D01*
X31325Y74352D02*
Y75842D01*
X31350Y74352D02*
Y75842D01*
X31375Y74352D02*
Y75842D01*
X31400Y74352D02*
Y75842D01*
X31425Y74352D02*
Y75842D01*
X31450Y74352D02*
Y75842D01*
X31475Y74352D02*
Y75842D01*
X31500Y74352D02*
Y75842D01*
X31525Y74352D02*
Y75842D01*
X31550Y74352D02*
Y75842D01*
X31575Y74352D02*
Y75842D01*
X31600Y74352D02*
Y75842D01*
X31625Y74352D02*
Y75842D01*
X31650Y74352D02*
Y75842D01*
X31675Y74352D02*
Y75842D01*
X31700Y74352D02*
Y75842D01*
X31725Y74352D02*
Y75842D01*
X31750Y74352D02*
Y75842D01*
X31775Y74352D02*
Y75842D01*
X31800Y74352D02*
Y75842D01*
X31825Y74352D02*
Y75842D01*
X31850Y74352D02*
Y75842D01*
X31875Y74352D02*
Y75842D01*
X31900Y74352D02*
Y75842D01*
X31925Y74352D02*
Y75842D01*
X31950Y74352D02*
Y75842D01*
X31975Y74352D02*
Y75842D01*
X32000Y74352D02*
Y75842D01*
X32025Y74352D02*
Y75842D01*
X32050Y74352D02*
Y75842D01*
X32075Y74352D02*
Y75842D01*
X32100Y74352D02*
Y75842D01*
X32125Y74352D02*
Y75842D01*
X32150Y74352D02*
Y75842D01*
X32175Y74352D02*
Y75842D01*
X32200Y74352D02*
Y75842D01*
X32225Y74352D02*
Y75842D01*
X32250Y74352D02*
Y75842D01*
X32275Y74352D02*
Y75842D01*
X32300Y74352D02*
Y75842D01*
X32325Y74352D02*
Y75842D01*
X32350Y74352D02*
Y75842D01*
X32375Y74352D02*
Y75842D01*
X32400Y74352D02*
Y75842D01*
X32425Y74352D02*
Y75842D01*
X32450Y74352D02*
Y75842D01*
X32475Y74352D02*
Y75842D01*
X32500Y74352D02*
Y75842D01*
X32525Y74352D02*
Y75842D01*
X32550Y74482D02*
Y74762D01*
X32575Y74482D02*
Y74762D01*
X32600Y74482D02*
Y74762D01*
X32625Y74482D02*
Y74762D01*
X32650Y74482D02*
Y74762D01*
X32675Y74482D02*
Y74762D01*
X32700Y74482D02*
Y74762D01*
X32725Y74482D02*
Y74762D01*
X32750Y74482D02*
Y74762D01*
X32775Y74482D02*
Y74762D01*
X32800Y74482D02*
Y74762D01*
X32825Y74482D02*
Y74762D01*
X32850Y74482D02*
Y74762D01*
X32875Y74482D02*
Y74762D01*
X32900Y74482D02*
Y74762D01*
X32675Y72112D02*
Y71736D01*
X32675D02*
X32660Y71722D01*
X31595*
Y70142*
X32660*
X32675Y70127*
Y69762*
X32955*
Y70127*
X32969Y70142*
X32969D02*
X33085D01*
Y71722*
X32969*
X32969D02*
X32955Y71736D01*
X32955D02*
Y72112D01*
X32675*
X31600Y70142D02*
Y71722D01*
X31625Y70142D02*
Y71722D01*
X31650Y70142D02*
Y71722D01*
X31675Y70142D02*
Y71722D01*
X31700Y70142D02*
Y71722D01*
X31725Y70142D02*
Y71722D01*
X31750Y70142D02*
Y71722D01*
X31775Y70142D02*
Y71722D01*
X31800Y70142D02*
Y71722D01*
X31825Y70142D02*
Y71722D01*
X31850Y70142D02*
Y71722D01*
X31875Y70142D02*
Y71722D01*
X31900Y70142D02*
Y71722D01*
X31925Y70142D02*
Y71722D01*
X31950Y70142D02*
Y71722D01*
X31975Y70142D02*
Y71722D01*
X32000Y70142D02*
Y71722D01*
X32025Y70142D02*
Y71722D01*
X32050Y70142D02*
Y71722D01*
X32075Y70142D02*
Y71722D01*
X32100Y70142D02*
Y71722D01*
X32125Y70142D02*
Y71722D01*
X32150Y70142D02*
Y71722D01*
X32175Y70142D02*
Y71722D01*
X32200Y70142D02*
Y71722D01*
X32225Y70142D02*
Y71722D01*
X32250Y70142D02*
Y71722D01*
X32275Y70142D02*
Y71722D01*
X32300Y70142D02*
Y71722D01*
X32325Y70142D02*
Y71722D01*
X32350Y70142D02*
Y71722D01*
X32375Y70142D02*
Y71722D01*
X32400Y70142D02*
Y71722D01*
X32425Y70142D02*
Y71722D01*
X32450Y70142D02*
Y71722D01*
X32475Y70142D02*
Y71722D01*
X32500Y70142D02*
Y71722D01*
X32525Y70142D02*
Y71722D01*
X32550Y70142D02*
Y71722D01*
X32575Y70142D02*
Y71722D01*
X32600Y70142D02*
Y71722D01*
X32625Y70142D02*
Y71722D01*
X32650Y70142D02*
Y71722D01*
X32675Y69762D02*
Y72112D01*
X32700Y69762D02*
Y72112D01*
X32725Y69762D02*
Y72112D01*
X32750Y69762D02*
Y72112D01*
X32775Y69762D02*
Y72112D01*
X32800Y69762D02*
Y72112D01*
X32825Y69762D02*
Y72112D01*
X32850Y69762D02*
Y72112D01*
X32875Y69762D02*
Y72112D01*
X32900Y69762D02*
Y72112D01*
X32925Y69762D02*
Y72112D01*
X32950Y69762D02*
Y72112D01*
X32975Y70142D02*
Y71722D01*
X33000Y70142D02*
Y71722D01*
X33025Y70142D02*
Y71722D01*
X33050Y70142D02*
Y71722D01*
X33075Y70142D02*
Y71722D01*
G54D43*
X47500Y94154D03*
Y93594D03*
X46500Y94154D03*
Y93594D03*
X45500Y94154D03*
Y93594D03*
X44500Y94154D03*
Y93594D03*
X43500Y94154D03*
Y93594D03*
X42500Y94154D03*
Y93594D03*
G54D48*
X117140Y30099D03*
Y29725D03*
Y29351D03*
X118160D03*
Y30099D03*
X48990Y73124D03*
Y72750D03*
Y72376D03*
X50010D03*
Y73124D03*
G54D49*
X25250Y40124D03*
Y39750D03*
Y39376D03*
X26250D03*
Y39750D03*
Y40124D03*
G54D50*
X83746Y46187D03*
X87746Y44687D03*
X88746Y31187D03*
X84621Y32562D03*
X91620Y46187D03*
X95620Y44687D03*
X96620Y31187D03*
X92495Y32562D03*
X99494Y46187D03*
X103494Y44687D03*
X104494Y31187D03*
X100369Y32562D03*
X107368Y46187D03*
X111368Y44687D03*
X112368Y31187D03*
X108243Y32562D03*
X107368Y70911D03*
X111368Y69411D03*
X112368Y55911D03*
X108243Y57286D03*
X99494Y70911D03*
X103494Y69411D03*
X52250Y46187D03*
X56250Y44687D03*
X104494Y55911D03*
X100369Y57286D03*
X91620Y70911D03*
X95620Y69411D03*
X96620Y55911D03*
X92495Y57286D03*
X83746Y70911D03*
X87746Y69411D03*
X88746Y55911D03*
X84621Y57286D03*
X75872Y70911D03*
X79872Y69411D03*
X80872Y55911D03*
X76747Y57286D03*
X67998Y70911D03*
X71998Y69411D03*
X72998Y55911D03*
X68873Y57286D03*
X60124Y70911D03*
X64124Y69411D03*
X57250Y31187D03*
X53125Y32562D03*
X65124Y55911D03*
X60999Y57286D03*
X52250Y70911D03*
X56250Y69411D03*
X57250Y55911D03*
X53125Y57286D03*
X60124Y46187D03*
X64124Y44687D03*
X65124Y31187D03*
X60999Y32562D03*
X67998Y46187D03*
X71998Y44687D03*
X72998Y31187D03*
X68873Y32562D03*
X75872Y46187D03*
X79872Y44687D03*
X80872Y31187D03*
X76747Y32562D03*
X22750Y27937D03*
X23750Y26187D03*
X24750D03*
G54D53*
X33620Y45650D03*
X32880D03*
X33250Y44850D03*
G54D63*
X32485Y67365D02*
Y67960D01*
X29015*
Y67365*
X32485*
X29030D02*
Y67960D01*
X29070Y67365D02*
Y67960D01*
X29110Y67365D02*
Y67960D01*
X29150Y67365D02*
Y67960D01*
X29190Y67365D02*
Y67960D01*
X29230Y67365D02*
Y67960D01*
X29270Y67365D02*
Y67960D01*
X29310Y67365D02*
Y67960D01*
X29350Y67365D02*
Y67960D01*
X29390Y67365D02*
Y67960D01*
X29430Y67365D02*
Y67960D01*
X29470Y67365D02*
Y67960D01*
X29510Y67365D02*
Y67960D01*
X29550Y67365D02*
Y67960D01*
X29590Y67365D02*
Y67960D01*
X29630Y67365D02*
Y67960D01*
X29670Y67365D02*
Y67960D01*
X29710Y67365D02*
Y67960D01*
X29750Y67365D02*
Y67960D01*
X29790Y67365D02*
Y67960D01*
X29830Y67365D02*
Y67960D01*
X29870Y67365D02*
Y67960D01*
X29910Y67365D02*
Y67960D01*
X29950Y67365D02*
Y67960D01*
X29990Y67365D02*
Y67960D01*
X30030Y67365D02*
Y67960D01*
X30070Y67365D02*
Y67960D01*
X30110Y67365D02*
Y67960D01*
X30150Y67365D02*
Y67960D01*
X30190Y67365D02*
Y67960D01*
X30230Y67365D02*
Y67960D01*
X30270Y67365D02*
Y67960D01*
X30310Y67365D02*
Y67960D01*
X30350Y67365D02*
Y67960D01*
X30390Y67365D02*
Y67960D01*
X30430Y67365D02*
Y67960D01*
X30470Y67365D02*
Y67960D01*
X30510Y67365D02*
Y67960D01*
X30550Y67365D02*
Y67960D01*
X30590Y67365D02*
Y67960D01*
X30630Y67365D02*
Y67960D01*
X30670Y67365D02*
Y67960D01*
X30710Y67365D02*
Y67960D01*
X30750Y67365D02*
Y67960D01*
X30790Y67365D02*
Y67960D01*
X30830Y67365D02*
Y67960D01*
X30870Y67365D02*
Y67960D01*
X30910Y67365D02*
Y67960D01*
X30950Y67365D02*
Y67960D01*
X30990Y67365D02*
Y67960D01*
X31030Y67365D02*
Y67960D01*
X31070Y67365D02*
Y67960D01*
X31110Y67365D02*
Y67960D01*
X31150Y67365D02*
Y67960D01*
X31190Y67365D02*
Y67960D01*
X31230Y67365D02*
Y67960D01*
X31270Y67365D02*
Y67960D01*
X31310Y67365D02*
Y67960D01*
X31350Y67365D02*
Y67960D01*
X31390Y67365D02*
Y67960D01*
X31430Y67365D02*
Y67960D01*
X31470Y67365D02*
Y67960D01*
X31510Y67365D02*
Y67960D01*
X31550Y67365D02*
Y67960D01*
X31590Y67365D02*
Y67960D01*
X31630Y67365D02*
Y67960D01*
X31670Y67365D02*
Y67960D01*
X31710Y67365D02*
Y67960D01*
X31750Y67365D02*
Y67960D01*
X31790Y67365D02*
Y67960D01*
X31830Y67365D02*
Y67960D01*
X31870Y67365D02*
Y67960D01*
X31910Y67365D02*
Y67960D01*
X31950Y67365D02*
Y67960D01*
X31990Y67365D02*
Y67960D01*
X32030Y67365D02*
Y67960D01*
X32070Y67365D02*
Y67960D01*
X32110Y67365D02*
Y67960D01*
X32150Y67365D02*
Y67960D01*
X32190Y67365D02*
Y67960D01*
X32230Y67365D02*
Y67960D01*
X32270Y67365D02*
Y67960D01*
X32310Y67365D02*
Y67960D01*
X32350Y67365D02*
Y67960D01*
X32390Y67365D02*
Y67960D01*
X32430Y67365D02*
Y67960D01*
X32470Y67365D02*
Y67960D01*
X32485Y65140D02*
Y65635D01*
X29015*
Y65140*
X32485*
X29030D02*
Y65635D01*
X29070Y65140D02*
Y65635D01*
X29110Y65140D02*
Y65635D01*
X29150Y65140D02*
Y65635D01*
X29190Y65140D02*
Y65635D01*
X29230Y65140D02*
Y65635D01*
X29270Y65140D02*
Y65635D01*
X29310Y65140D02*
Y65635D01*
X29350Y65140D02*
Y65635D01*
X29390Y65140D02*
Y65635D01*
X29430Y65140D02*
Y65635D01*
X29470Y65140D02*
Y65635D01*
X29510Y65140D02*
Y65635D01*
X29550Y65140D02*
Y65635D01*
X29590Y65140D02*
Y65635D01*
X29630Y65140D02*
Y65635D01*
X29670Y65140D02*
Y65635D01*
X29710Y65140D02*
Y65635D01*
X29750Y65140D02*
Y65635D01*
X29790Y65140D02*
Y65635D01*
X29830Y65140D02*
Y65635D01*
X29870Y65140D02*
Y65635D01*
X29910Y65140D02*
Y65635D01*
X29950Y65140D02*
Y65635D01*
X29990Y65140D02*
Y65635D01*
X30030Y65140D02*
Y65635D01*
X30070Y65140D02*
Y65635D01*
X30110Y65140D02*
Y65635D01*
X30150Y65140D02*
Y65635D01*
X30190Y65140D02*
Y65635D01*
X30230Y65140D02*
Y65635D01*
X30270Y65140D02*
Y65635D01*
X30310Y65140D02*
Y65635D01*
X30350Y65140D02*
Y65635D01*
X30390Y65140D02*
Y65635D01*
X30430Y65140D02*
Y65635D01*
X30470Y65140D02*
Y65635D01*
X30510Y65140D02*
Y65635D01*
X30550Y65140D02*
Y65635D01*
X30590Y65140D02*
Y65635D01*
X30630Y65140D02*
Y65635D01*
X30670Y65140D02*
Y65635D01*
X30710Y65140D02*
Y65635D01*
X30750Y65140D02*
Y65635D01*
X30790Y65140D02*
Y65635D01*
X30830Y65140D02*
Y65635D01*
X30870Y65140D02*
Y65635D01*
X30910Y65140D02*
Y65635D01*
X30950Y65140D02*
Y65635D01*
X30990Y65140D02*
Y65635D01*
X31030Y65140D02*
Y65635D01*
X31070Y65140D02*
Y65635D01*
X31110Y65140D02*
Y65635D01*
X31150Y65140D02*
Y65635D01*
X31190Y65140D02*
Y65635D01*
X31230Y65140D02*
Y65635D01*
X31270Y65140D02*
Y65635D01*
X31310Y65140D02*
Y65635D01*
X31350Y65140D02*
Y65635D01*
X31390Y65140D02*
Y65635D01*
X31430Y65140D02*
Y65635D01*
X31470Y65140D02*
Y65635D01*
X31510Y65140D02*
Y65635D01*
X31550Y65140D02*
Y65635D01*
X31590Y65140D02*
Y65635D01*
X31630Y65140D02*
Y65635D01*
X31670Y65140D02*
Y65635D01*
X31710Y65140D02*
Y65635D01*
X31750Y65140D02*
Y65635D01*
X31790Y65140D02*
Y65635D01*
X31830Y65140D02*
Y65635D01*
X31870Y65140D02*
Y65635D01*
X31910Y65140D02*
Y65635D01*
X31950Y65140D02*
Y65635D01*
X31990Y65140D02*
Y65635D01*
X32030Y65140D02*
Y65635D01*
X32070Y65140D02*
Y65635D01*
X32110Y65140D02*
Y65635D01*
X32150Y65140D02*
Y65635D01*
X32190Y65140D02*
Y65635D01*
X32230Y65140D02*
Y65635D01*
X32270Y65140D02*
Y65635D01*
X32310Y65140D02*
Y65635D01*
X32350Y65140D02*
Y65635D01*
X32390Y65140D02*
Y65635D01*
X32430Y65140D02*
Y65635D01*
X32470Y65140D02*
Y65635D01*
X42610Y67365D02*
Y67960D01*
X39140*
Y67365*
X42610*
X39155D02*
Y67960D01*
X39195Y67365D02*
Y67960D01*
X39235Y67365D02*
Y67960D01*
X39275Y67365D02*
Y67960D01*
X39315Y67365D02*
Y67960D01*
X39355Y67365D02*
Y67960D01*
X39395Y67365D02*
Y67960D01*
X39435Y67365D02*
Y67960D01*
X39475Y67365D02*
Y67960D01*
X39515Y67365D02*
Y67960D01*
X39555Y67365D02*
Y67960D01*
X39595Y67365D02*
Y67960D01*
X39635Y67365D02*
Y67960D01*
X39675Y67365D02*
Y67960D01*
X39715Y67365D02*
Y67960D01*
X39755Y67365D02*
Y67960D01*
X39795Y67365D02*
Y67960D01*
X39835Y67365D02*
Y67960D01*
X39875Y67365D02*
Y67960D01*
X39915Y67365D02*
Y67960D01*
X39955Y67365D02*
Y67960D01*
X39995Y67365D02*
Y67960D01*
X40035Y67365D02*
Y67960D01*
X40075Y67365D02*
Y67960D01*
X40115Y67365D02*
Y67960D01*
X40155Y67365D02*
Y67960D01*
X40195Y67365D02*
Y67960D01*
X40235Y67365D02*
Y67960D01*
X40275Y67365D02*
Y67960D01*
X40315Y67365D02*
Y67960D01*
X40355Y67365D02*
Y67960D01*
X40395Y67365D02*
Y67960D01*
X40435Y67365D02*
Y67960D01*
X40475Y67365D02*
Y67960D01*
X40515Y67365D02*
Y67960D01*
X40555Y67365D02*
Y67960D01*
X40595Y67365D02*
Y67960D01*
X40635Y67365D02*
Y67960D01*
X40675Y67365D02*
Y67960D01*
X40715Y67365D02*
Y67960D01*
X40755Y67365D02*
Y67960D01*
X40795Y67365D02*
Y67960D01*
X40835Y67365D02*
Y67960D01*
X40875Y67365D02*
Y67960D01*
X40915Y67365D02*
Y67960D01*
X40955Y67365D02*
Y67960D01*
X40995Y67365D02*
Y67960D01*
X41035Y67365D02*
Y67960D01*
X41075Y67365D02*
Y67960D01*
X41115Y67365D02*
Y67960D01*
X41155Y67365D02*
Y67960D01*
X41195Y67365D02*
Y67960D01*
X41235Y67365D02*
Y67960D01*
X41275Y67365D02*
Y67960D01*
X41315Y67365D02*
Y67960D01*
X41355Y67365D02*
Y67960D01*
X41395Y67365D02*
Y67960D01*
X41435Y67365D02*
Y67960D01*
X41475Y67365D02*
Y67960D01*
X41515Y67365D02*
Y67960D01*
X41555Y67365D02*
Y67960D01*
X41595Y67365D02*
Y67960D01*
X41635Y67365D02*
Y67960D01*
X41675Y67365D02*
Y67960D01*
X41715Y67365D02*
Y67960D01*
X41755Y67365D02*
Y67960D01*
X41795Y67365D02*
Y67960D01*
X41835Y67365D02*
Y67960D01*
X41875Y67365D02*
Y67960D01*
X41915Y67365D02*
Y67960D01*
X41955Y67365D02*
Y67960D01*
X41995Y67365D02*
Y67960D01*
X42035Y67365D02*
Y67960D01*
X42075Y67365D02*
Y67960D01*
X42115Y67365D02*
Y67960D01*
X42155Y67365D02*
Y67960D01*
X42195Y67365D02*
Y67960D01*
X42235Y67365D02*
Y67960D01*
X42275Y67365D02*
Y67960D01*
X42315Y67365D02*
Y67960D01*
X42355Y67365D02*
Y67960D01*
X42395Y67365D02*
Y67960D01*
X42435Y67365D02*
Y67960D01*
X42475Y67365D02*
Y67960D01*
X42515Y67365D02*
Y67960D01*
X42555Y67365D02*
Y67960D01*
X42595Y67365D02*
Y67960D01*
X42610Y65140D02*
Y65635D01*
X39140*
Y65140*
X42610*
X39155D02*
Y65635D01*
X39195Y65140D02*
Y65635D01*
X39235Y65140D02*
Y65635D01*
X39275Y65140D02*
Y65635D01*
X39315Y65140D02*
Y65635D01*
X39355Y65140D02*
Y65635D01*
X39395Y65140D02*
Y65635D01*
X39435Y65140D02*
Y65635D01*
X39475Y65140D02*
Y65635D01*
X39515Y65140D02*
Y65635D01*
X39555Y65140D02*
Y65635D01*
X39595Y65140D02*
Y65635D01*
X39635Y65140D02*
Y65635D01*
X39675Y65140D02*
Y65635D01*
X39715Y65140D02*
Y65635D01*
X39755Y65140D02*
Y65635D01*
X39795Y65140D02*
Y65635D01*
X39835Y65140D02*
Y65635D01*
X39875Y65140D02*
Y65635D01*
X39915Y65140D02*
Y65635D01*
X39955Y65140D02*
Y65635D01*
X39995Y65140D02*
Y65635D01*
X40035Y65140D02*
Y65635D01*
X40075Y65140D02*
Y65635D01*
X40115Y65140D02*
Y65635D01*
X40155Y65140D02*
Y65635D01*
X40195Y65140D02*
Y65635D01*
X40235Y65140D02*
Y65635D01*
X40275Y65140D02*
Y65635D01*
X40315Y65140D02*
Y65635D01*
X40355Y65140D02*
Y65635D01*
X40395Y65140D02*
Y65635D01*
X40435Y65140D02*
Y65635D01*
X40475Y65140D02*
Y65635D01*
X40515Y65140D02*
Y65635D01*
X40555Y65140D02*
Y65635D01*
X40595Y65140D02*
Y65635D01*
X40635Y65140D02*
Y65635D01*
X40675Y65140D02*
Y65635D01*
X40715Y65140D02*
Y65635D01*
X40755Y65140D02*
Y65635D01*
X40795Y65140D02*
Y65635D01*
X40835Y65140D02*
Y65635D01*
X40875Y65140D02*
Y65635D01*
X40915Y65140D02*
Y65635D01*
X40955Y65140D02*
Y65635D01*
X40995Y65140D02*
Y65635D01*
X41035Y65140D02*
Y65635D01*
X41075Y65140D02*
Y65635D01*
X41115Y65140D02*
Y65635D01*
X41155Y65140D02*
Y65635D01*
X41195Y65140D02*
Y65635D01*
X41235Y65140D02*
Y65635D01*
X41275Y65140D02*
Y65635D01*
X41315Y65140D02*
Y65635D01*
X41355Y65140D02*
Y65635D01*
X41395Y65140D02*
Y65635D01*
X41435Y65140D02*
Y65635D01*
X41475Y65140D02*
Y65635D01*
X41515Y65140D02*
Y65635D01*
X41555Y65140D02*
Y65635D01*
X41595Y65140D02*
Y65635D01*
X41635Y65140D02*
Y65635D01*
X41675Y65140D02*
Y65635D01*
X41715Y65140D02*
Y65635D01*
X41755Y65140D02*
Y65635D01*
X41795Y65140D02*
Y65635D01*
X41835Y65140D02*
Y65635D01*
X41875Y65140D02*
Y65635D01*
X41915Y65140D02*
Y65635D01*
X41955Y65140D02*
Y65635D01*
X41995Y65140D02*
Y65635D01*
X42035Y65140D02*
Y65635D01*
X42075Y65140D02*
Y65635D01*
X42115Y65140D02*
Y65635D01*
X42155Y65140D02*
Y65635D01*
X42195Y65140D02*
Y65635D01*
X42235Y65140D02*
Y65635D01*
X42275Y65140D02*
Y65635D01*
X42315Y65140D02*
Y65635D01*
X42355Y65140D02*
Y65635D01*
X42395Y65140D02*
Y65635D01*
X42435Y65140D02*
Y65635D01*
X42475Y65140D02*
Y65635D01*
X42515Y65140D02*
Y65635D01*
X42555Y65140D02*
Y65635D01*
X42595Y65140D02*
Y65635D01*
G54D137*
X55954Y53401D03*
X56151D03*
X56348D03*
X56545D03*
Y53921D03*
X56348D03*
X56151D03*
X55954D03*
X85041Y48697D03*
X84844D03*
X84647D03*
X84450D03*
Y48177D03*
X84647D03*
X84844D03*
X85041D03*
X87450Y28677D03*
X87647D03*
X87844D03*
X88041D03*
Y29197D03*
X87844D03*
X87647D03*
X87450D03*
X92915Y48697D03*
X92718D03*
X92521D03*
X92324D03*
Y48177D03*
X92521D03*
X92718D03*
X92915D03*
X95324Y28677D03*
X95521D03*
X95718D03*
X95915D03*
Y29197D03*
X95718D03*
X95521D03*
X95324D03*
X100789Y48697D03*
X100592D03*
X100395D03*
X100198D03*
Y48177D03*
X100395D03*
X100592D03*
X100789D03*
X103198Y28677D03*
X103395D03*
X103592D03*
X103789D03*
Y29197D03*
X103592D03*
X103395D03*
X103198D03*
X108663Y48697D03*
X108466D03*
X108269D03*
X108072D03*
Y48177D03*
X108269D03*
X108466D03*
X108663D03*
X111072Y28677D03*
X111269D03*
X111466D03*
X111663D03*
Y29197D03*
X111466D03*
X111269D03*
X111072D03*
X108663Y73421D03*
X108466D03*
X108269D03*
X108072D03*
Y72901D03*
X108269D03*
X108466D03*
X108663D03*
X111072Y53401D03*
X111269D03*
X111466D03*
X111663D03*
Y53921D03*
X111466D03*
X111269D03*
X111072D03*
X100789Y73421D03*
X100592D03*
X100395D03*
X100198D03*
Y72901D03*
X100395D03*
X100592D03*
X100789D03*
X103198Y53401D03*
X103395D03*
X103592D03*
X103789D03*
Y53921D03*
X103592D03*
X103395D03*
X103198D03*
X53545Y48697D03*
X53348D03*
X53151D03*
X52954D03*
Y48177D03*
X53151D03*
X53348D03*
X53545D03*
X92915Y73421D03*
X92718D03*
X92521D03*
X92324D03*
Y72901D03*
X92521D03*
X92718D03*
X92915D03*
X95324Y53401D03*
X95521D03*
X95718D03*
X95915D03*
Y53921D03*
X95718D03*
X95521D03*
X95324D03*
X85041Y73421D03*
X84844D03*
X84647D03*
X84450D03*
Y72901D03*
X84647D03*
X84844D03*
X85041D03*
X87450Y53401D03*
X87647D03*
X87844D03*
X88041D03*
Y53921D03*
X87844D03*
X87647D03*
X87450D03*
X77167Y73421D03*
X76970D03*
X76773D03*
X76576D03*
Y72901D03*
X76773D03*
X76970D03*
X77167D03*
X79576Y53401D03*
X79773D03*
X79970D03*
X80167D03*
Y53921D03*
X79970D03*
X79773D03*
X79576D03*
X69293Y73421D03*
X69096D03*
X68899D03*
X68702D03*
Y72901D03*
X68899D03*
X69096D03*
X69293D03*
X71702Y53401D03*
X71899D03*
X72096D03*
X72293D03*
Y53921D03*
X72096D03*
X71899D03*
X71702D03*
X61419Y73421D03*
X61222D03*
X61025D03*
X60828D03*
Y72901D03*
X61025D03*
X61222D03*
X61419D03*
X63828Y53401D03*
X64025D03*
X64222D03*
X64419D03*
Y53921D03*
X64222D03*
X64025D03*
X63828D03*
X55954Y28677D03*
X56151D03*
X56348D03*
X56545D03*
Y29197D03*
X56348D03*
X56151D03*
X55954D03*
X53545Y73421D03*
X53348D03*
X53151D03*
X52954D03*
Y72901D03*
X53151D03*
X53348D03*
X53545D03*
X61419Y48697D03*
X61222D03*
X61025D03*
X60828D03*
Y48177D03*
X61025D03*
X61222D03*
X61419D03*
X63828Y28677D03*
X64025D03*
X64222D03*
X64419D03*
Y29197D03*
X64222D03*
X64025D03*
X63828D03*
X69293Y48697D03*
X69096D03*
X68899D03*
X68702D03*
Y48177D03*
X68899D03*
X69096D03*
X69293D03*
X71702Y28677D03*
X71899D03*
X72096D03*
X72293D03*
Y29197D03*
X72096D03*
X71899D03*
X71702D03*
X77167Y48697D03*
X76970D03*
X76773D03*
X76576D03*
Y48177D03*
X76773D03*
X76970D03*
X77167D03*
X79576Y28677D03*
X79773D03*
X79970D03*
X80167D03*
Y29197D03*
X79970D03*
X79773D03*
X79576D03*
G54D138*
X83246Y47712D03*
Y46912D03*
X89246Y29662D03*
Y30462D03*
X91120Y47712D03*
Y46912D03*
X97120Y29662D03*
Y30462D03*
X98994Y47712D03*
Y46912D03*
X104994Y29662D03*
Y30462D03*
X106868Y47712D03*
Y46912D03*
X112868Y29662D03*
Y30462D03*
X106868Y72436D03*
Y71636D03*
X112868Y54386D03*
Y55186D03*
X98994Y72436D03*
Y71636D03*
X104994Y54386D03*
Y55186D03*
X51750Y47712D03*
Y46912D03*
X91120Y72436D03*
Y71636D03*
X97120Y54386D03*
Y55186D03*
X83246Y72436D03*
Y71636D03*
X89246Y54386D03*
Y55186D03*
X75372Y72436D03*
Y71636D03*
X81372Y54386D03*
Y55186D03*
X67498Y72436D03*
Y71636D03*
X73498Y54386D03*
Y55186D03*
X59624Y72436D03*
Y71636D03*
X65624Y54386D03*
Y55186D03*
X57750Y29662D03*
Y30462D03*
X51750Y72436D03*
Y71636D03*
X57750Y54386D03*
Y55186D03*
X59624Y47712D03*
Y46912D03*
X65624Y29662D03*
Y30462D03*
X67498Y47712D03*
Y46912D03*
X73498Y29662D03*
Y30462D03*
X75372Y47712D03*
Y46912D03*
X81372Y29662D03*
Y30462D03*
X35250Y33100D03*
Y33900D03*
Y31900D03*
Y31100D03*
G54D169*
X88903Y48820D03*
X88588D03*
Y48053D03*
X88903D03*
X83588Y28553D03*
X83903D03*
Y29320D03*
X83588D03*
X96777Y48820D03*
X96462D03*
Y48053D03*
X96777D03*
X91462Y28553D03*
X91777D03*
Y29320D03*
X91462D03*
X104651Y48820D03*
X104336D03*
Y48053D03*
X104651D03*
X99336Y28553D03*
X99651D03*
Y29320D03*
X99336D03*
X112525Y48820D03*
X112210D03*
Y48053D03*
X112525D03*
X107210Y28553D03*
X107525D03*
Y29320D03*
X107210D03*
X112525Y73545D03*
X112210D03*
Y72777D03*
X112525D03*
X107210Y53277D03*
X107525D03*
Y54045D03*
X107210D03*
X104651Y73545D03*
X104336D03*
Y72777D03*
X104651D03*
X57407Y48820D03*
X57092D03*
Y48053D03*
X57407D03*
X99336Y53277D03*
X99651D03*
Y54045D03*
X99336D03*
X96777Y73545D03*
X96462D03*
Y72777D03*
X96777D03*
X91462Y53277D03*
X91777D03*
Y54045D03*
X91462D03*
X88903Y73545D03*
X88588D03*
Y72777D03*
X88903D03*
X83588Y53277D03*
X83903D03*
Y54045D03*
X83588D03*
X81029Y73545D03*
X80714D03*
Y72777D03*
X81029D03*
X75714Y53277D03*
X76029D03*
Y54045D03*
X75714D03*
X73155Y73545D03*
X72840D03*
Y72777D03*
X73155D03*
X67840Y53277D03*
X68155D03*
Y54045D03*
X67840D03*
X65281Y73545D03*
X64966D03*
Y72777D03*
X65281D03*
X52092Y28553D03*
X52407D03*
Y29320D03*
X52092D03*
X59966Y53277D03*
X60281D03*
Y54045D03*
X59966D03*
X57407Y73545D03*
X57092D03*
Y72777D03*
X57407D03*
X52092Y53291D03*
X52407D03*
Y54058D03*
X52092D03*
X65281Y48820D03*
X64966D03*
Y48053D03*
X65281D03*
X59966Y28553D03*
X60281D03*
Y29320D03*
X59966D03*
X73155Y48820D03*
X72840D03*
Y48053D03*
X73155D03*
X67840Y28553D03*
X68155D03*
Y29320D03*
X67840D03*
X81029Y48820D03*
X80714D03*
Y48053D03*
X81029D03*
X75714Y28553D03*
X76029D03*
Y29320D03*
X75714D03*
G54D190*
X21866Y36907D03*
Y36592D03*
X22633D03*
Y36907D03*
X21866Y38907D03*
Y38592D03*
X22633D03*
Y38907D03*
G54D197*
X87650Y47055D03*
Y46795D03*
X84850Y30295D03*
Y30555D03*
X95525Y47055D03*
Y46795D03*
X92725Y30295D03*
Y30555D03*
X103400Y47055D03*
Y46795D03*
X100600Y30295D03*
Y30555D03*
X111275Y47055D03*
Y46795D03*
X108475Y30295D03*
Y30555D03*
X111275Y71780D03*
Y71520D03*
X108475Y55020D03*
Y55280D03*
X103400Y71780D03*
Y71520D03*
X56150Y47055D03*
Y46795D03*
X100600Y55020D03*
Y55280D03*
X95525Y71780D03*
Y71520D03*
X92725Y55020D03*
Y55280D03*
X87650Y71780D03*
Y71520D03*
X84850Y55020D03*
Y55280D03*
X79775Y71780D03*
Y71520D03*
X76975Y55020D03*
Y55280D03*
X71900Y71780D03*
Y71520D03*
X69100Y55020D03*
Y55280D03*
X64000Y71780D03*
Y71520D03*
X53350Y30295D03*
Y30555D03*
X61225Y55020D03*
Y55280D03*
X56125Y71755D03*
Y71495D03*
X53375Y55045D03*
Y55305D03*
X64025Y47055D03*
Y46795D03*
X61225Y30295D03*
Y30555D03*
X71900Y47055D03*
Y46795D03*
X69100Y30295D03*
Y30555D03*
X79775Y47055D03*
Y46795D03*
X76975Y30295D03*
Y30555D03*
X83871Y46807D03*
Y47067D03*
X86900Y47055D03*
Y46795D03*
X88621Y30567D03*
Y30307D03*
X85600Y30295D03*
Y30555D03*
X91745Y46807D03*
Y47067D03*
X94775Y47055D03*
Y46795D03*
X96495Y30567D03*
Y30307D03*
X93475Y30295D03*
Y30555D03*
X99619Y46807D03*
Y47067D03*
X102650Y47055D03*
Y46795D03*
X104369Y30567D03*
Y30307D03*
X101350Y30295D03*
Y30555D03*
X107493Y46807D03*
Y47067D03*
X110525Y47055D03*
Y46795D03*
X112243Y30567D03*
Y30307D03*
X109225Y30295D03*
Y30555D03*
X107493Y71531D03*
Y71791D03*
X110525Y71780D03*
Y71520D03*
X112243Y55291D03*
Y55031D03*
X109225Y55020D03*
Y55280D03*
X99619Y71531D03*
Y71791D03*
X102650Y71780D03*
Y71520D03*
X52375Y46807D03*
Y47067D03*
X55400Y47055D03*
Y46795D03*
X104369Y55291D03*
Y55031D03*
X101350Y55020D03*
Y55280D03*
X91745Y71531D03*
Y71791D03*
X94775Y71780D03*
Y71520D03*
X96495Y55291D03*
Y55031D03*
X93475Y55020D03*
Y55280D03*
X83871Y71531D03*
Y71791D03*
X86900Y71780D03*
Y71520D03*
X88621Y55291D03*
Y55031D03*
X85600Y55020D03*
Y55280D03*
X75997Y71531D03*
Y71791D03*
X79000Y71780D03*
Y71520D03*
X80747Y55291D03*
Y55031D03*
X77725Y55020D03*
Y55280D03*
X68123Y71531D03*
Y71791D03*
X71150Y71780D03*
Y71520D03*
X72873Y55291D03*
Y55031D03*
X69850Y55020D03*
Y55280D03*
X60249Y71531D03*
Y71791D03*
X63250Y71780D03*
Y71520D03*
X57125Y30567D03*
Y30307D03*
X54100Y30295D03*
Y30555D03*
X64999Y55291D03*
Y55031D03*
X61975Y55020D03*
Y55280D03*
X52375Y71531D03*
Y71791D03*
X55375Y71755D03*
Y71495D03*
X57125Y55291D03*
Y55031D03*
X54125Y55045D03*
Y55305D03*
X60249Y46807D03*
Y47067D03*
X63275Y47055D03*
Y46795D03*
X64999Y30567D03*
Y30307D03*
X61975Y30295D03*
Y30555D03*
X68123Y46807D03*
Y47067D03*
X71150Y47055D03*
Y46795D03*
X72873Y30567D03*
Y30307D03*
X69850Y30295D03*
Y30555D03*
X75997Y46807D03*
Y47067D03*
X79025Y47055D03*
Y46795D03*
X80747Y30567D03*
Y30307D03*
X77725Y30295D03*
Y30555D03*
X85496Y48307D03*
Y48567D03*
X86996Y29067D03*
Y28807D03*
X93370Y48307D03*
Y48567D03*
X94870Y29067D03*
Y28807D03*
X101244Y48307D03*
Y48567D03*
X102744Y29067D03*
Y28807D03*
X109118Y48307D03*
Y48567D03*
X110618Y29067D03*
Y28807D03*
X109118Y73031D03*
Y73291D03*
X110618Y53791D03*
Y53531D03*
X101244Y73031D03*
Y73291D03*
X54000Y48307D03*
Y48567D03*
X102744Y53791D03*
Y53531D03*
X93370Y73031D03*
Y73291D03*
X94870Y53791D03*
Y53531D03*
X85496Y73031D03*
Y73291D03*
X86996Y53791D03*
Y53531D03*
X77622Y73031D03*
Y73291D03*
X79122Y53791D03*
Y53531D03*
X69748Y73031D03*
Y73291D03*
X71248Y53791D03*
Y53531D03*
X61874Y73031D03*
Y73291D03*
X55500Y29067D03*
Y28807D03*
X63374Y53791D03*
Y53531D03*
X54000Y73031D03*
Y73291D03*
X55500Y53655D03*
Y53395D03*
X61874Y48307D03*
Y48567D03*
X63374Y29067D03*
Y28807D03*
X69748Y48307D03*
Y48567D03*
X71248Y29067D03*
Y28807D03*
X77622Y48307D03*
Y48567D03*
X79122Y29067D03*
Y28807D03*
G54D199*
X21630Y30250D03*
X21370D03*
X21630Y31750D03*
X21370D03*
X21630Y30750D03*
X21370D03*
X21630Y31250D03*
X21370D03*
X21630Y32250D03*
X21370D03*
X33120Y44000D03*
X33380D03*
X48870Y83500D03*
X49130D03*
X41380Y42500D03*
X41120D03*
X41380Y41000D03*
X41120D03*
X40245Y42500D03*
X40505D03*
X40245Y42125D03*
X40505D03*
X40245Y41375D03*
X40505D03*
X40245Y41750D03*
X40505D03*
X40245Y40625D03*
X40505D03*
X40245Y41000D03*
X40505D03*
X40245Y39875D03*
X40505D03*
X40245Y40250D03*
X40505D03*
X22745Y45875D03*
X23005D03*
X23870D03*
X24130D03*
G54D212*
X28910Y25500D03*
X29590D03*
G54D234*
X83740Y41929D03*
Y42244D03*
Y42559D03*
Y42874D03*
Y43189D03*
Y43503D03*
Y43818D03*
Y44133D03*
Y44448D03*
Y44763D03*
Y45078D03*
Y45393D03*
X84055Y41929D03*
Y42244D03*
Y42559D03*
Y42874D03*
Y43189D03*
Y43503D03*
Y43818D03*
Y44133D03*
Y44448D03*
Y44763D03*
Y45078D03*
Y45393D03*
X84370Y41929D03*
Y42244D03*
Y42559D03*
Y42874D03*
Y43189D03*
Y43503D03*
Y43818D03*
Y44133D03*
Y44448D03*
Y44763D03*
Y45078D03*
Y45393D03*
X84685Y41929D03*
Y42244D03*
Y42559D03*
Y42874D03*
Y43189D03*
Y43503D03*
Y43818D03*
Y44133D03*
Y44448D03*
Y44763D03*
Y45078D03*
Y45393D03*
X85000Y41929D03*
Y42244D03*
Y42559D03*
Y42874D03*
Y43189D03*
Y43503D03*
Y43818D03*
Y44133D03*
Y44448D03*
Y44763D03*
Y45078D03*
Y45393D03*
X85314Y41929D03*
Y42244D03*
Y42559D03*
Y42874D03*
Y43189D03*
Y43503D03*
Y43818D03*
Y44133D03*
Y44448D03*
Y44763D03*
Y45078D03*
Y45393D03*
X85629Y41929D03*
Y42244D03*
Y42559D03*
Y42874D03*
Y43189D03*
Y43503D03*
Y43818D03*
Y44133D03*
Y44448D03*
Y44763D03*
Y45078D03*
Y45393D03*
X85944Y41929D03*
Y42244D03*
Y42559D03*
Y42874D03*
Y43189D03*
Y43503D03*
Y43818D03*
Y44133D03*
Y44448D03*
Y44763D03*
Y45078D03*
Y45393D03*
X86259Y41929D03*
Y42244D03*
Y42559D03*
Y42874D03*
Y43189D03*
Y43503D03*
Y43818D03*
Y44133D03*
Y44448D03*
Y44763D03*
Y45078D03*
Y45393D03*
X86574Y41929D03*
Y42244D03*
Y42559D03*
Y42874D03*
Y43189D03*
Y43503D03*
Y43818D03*
Y44133D03*
Y44448D03*
Y44763D03*
Y45078D03*
Y45393D03*
X86889Y41929D03*
Y42244D03*
Y42559D03*
Y42874D03*
Y43189D03*
Y43503D03*
Y43818D03*
Y44133D03*
Y44448D03*
Y44763D03*
Y45078D03*
Y45393D03*
X87204Y41929D03*
Y42244D03*
Y42559D03*
Y42874D03*
Y43189D03*
Y43503D03*
Y43818D03*
Y44133D03*
Y44448D03*
Y44763D03*
Y45078D03*
Y45393D03*
X88740Y35433D03*
Y35118D03*
Y34803D03*
Y34488D03*
Y34173D03*
Y33858D03*
Y33543D03*
Y33228D03*
Y32913D03*
Y32598D03*
Y32283D03*
Y31968D03*
X88425Y35433D03*
Y35118D03*
Y34803D03*
Y34488D03*
Y34173D03*
Y33858D03*
Y33543D03*
Y33228D03*
Y32913D03*
Y32598D03*
Y32283D03*
Y31968D03*
X88110Y35433D03*
Y35118D03*
Y34803D03*
Y34488D03*
Y34173D03*
Y33858D03*
Y33543D03*
Y33228D03*
Y32913D03*
Y32598D03*
Y32283D03*
Y31968D03*
X87795Y35433D03*
Y35118D03*
Y34803D03*
Y34488D03*
Y34173D03*
Y33858D03*
Y33543D03*
Y33228D03*
Y32913D03*
Y32598D03*
Y32283D03*
Y31968D03*
X87480Y35433D03*
Y35118D03*
Y34803D03*
Y34488D03*
Y34173D03*
Y33858D03*
Y33543D03*
Y33228D03*
Y32913D03*
Y32598D03*
Y32283D03*
Y31968D03*
X87165Y35433D03*
Y35118D03*
Y34803D03*
Y34488D03*
Y34173D03*
Y33858D03*
Y33543D03*
Y33228D03*
Y32913D03*
Y32598D03*
Y32283D03*
Y31968D03*
X86850Y35433D03*
Y35118D03*
Y34803D03*
Y34488D03*
Y34173D03*
Y33858D03*
Y33543D03*
Y33228D03*
Y32913D03*
Y32598D03*
Y32283D03*
Y31968D03*
X86535Y35433D03*
Y35118D03*
Y34803D03*
Y34488D03*
Y34173D03*
Y33858D03*
Y33543D03*
Y33228D03*
Y32913D03*
Y32598D03*
Y32283D03*
Y31968D03*
X86220Y35433D03*
Y35118D03*
Y34803D03*
Y34488D03*
Y34173D03*
Y33858D03*
Y33543D03*
Y33228D03*
Y32913D03*
Y32598D03*
Y32283D03*
Y31968D03*
X85905Y35433D03*
Y35118D03*
Y34803D03*
Y34488D03*
Y34173D03*
Y33858D03*
Y33543D03*
Y33228D03*
Y32913D03*
Y32598D03*
Y32283D03*
Y31968D03*
X85590Y35433D03*
Y35118D03*
Y34803D03*
Y34488D03*
Y34173D03*
Y33858D03*
Y33543D03*
Y33228D03*
Y32913D03*
Y32598D03*
Y32283D03*
Y31968D03*
X85275Y35433D03*
Y35118D03*
Y34803D03*
Y34488D03*
Y34173D03*
Y33858D03*
Y33543D03*
Y33228D03*
Y32913D03*
Y32598D03*
Y32283D03*
Y31968D03*
X91614Y41929D03*
Y42244D03*
Y42559D03*
Y42874D03*
Y43189D03*
Y43503D03*
Y43818D03*
Y44133D03*
Y44448D03*
Y44763D03*
Y45078D03*
Y45393D03*
X91929Y41929D03*
Y42244D03*
Y42559D03*
Y42874D03*
Y43189D03*
Y43503D03*
Y43818D03*
Y44133D03*
Y44448D03*
Y44763D03*
Y45078D03*
Y45393D03*
X92244Y41929D03*
Y42244D03*
Y42559D03*
Y42874D03*
Y43189D03*
Y43503D03*
Y43818D03*
Y44133D03*
Y44448D03*
Y44763D03*
Y45078D03*
Y45393D03*
X92559Y41929D03*
Y42244D03*
Y42559D03*
Y42874D03*
Y43189D03*
Y43503D03*
Y43818D03*
Y44133D03*
Y44448D03*
Y44763D03*
Y45078D03*
Y45393D03*
X92874Y41929D03*
Y42244D03*
Y42559D03*
Y42874D03*
Y43189D03*
Y43503D03*
Y43818D03*
Y44133D03*
Y44448D03*
Y44763D03*
Y45078D03*
Y45393D03*
X93189Y41929D03*
Y42244D03*
Y42559D03*
Y42874D03*
Y43189D03*
Y43503D03*
Y43818D03*
Y44133D03*
Y44448D03*
Y44763D03*
Y45078D03*
Y45393D03*
X93504Y41929D03*
Y42244D03*
Y42559D03*
Y42874D03*
Y43189D03*
Y43503D03*
Y43818D03*
Y44133D03*
Y44448D03*
Y44763D03*
Y45078D03*
Y45393D03*
X93818Y41929D03*
Y42244D03*
Y42559D03*
Y42874D03*
Y43189D03*
Y43503D03*
Y43818D03*
Y44133D03*
Y44448D03*
Y44763D03*
Y45078D03*
Y45393D03*
X94133Y41929D03*
Y42244D03*
Y42559D03*
Y42874D03*
Y43189D03*
Y43503D03*
Y43818D03*
Y44133D03*
Y44448D03*
Y44763D03*
Y45078D03*
Y45393D03*
X94448Y41929D03*
Y42244D03*
Y42559D03*
Y42874D03*
Y43189D03*
Y43503D03*
Y43818D03*
Y44133D03*
Y44448D03*
Y44763D03*
Y45078D03*
Y45393D03*
X94763Y41929D03*
Y42244D03*
Y42559D03*
Y42874D03*
Y43189D03*
Y43503D03*
Y43818D03*
Y44133D03*
Y44448D03*
Y44763D03*
Y45078D03*
Y45393D03*
X95078Y41929D03*
Y42244D03*
Y42559D03*
Y42874D03*
Y43189D03*
Y43503D03*
Y43818D03*
Y44133D03*
Y44448D03*
Y44763D03*
Y45078D03*
Y45393D03*
X96614Y35433D03*
Y35118D03*
Y34803D03*
Y34488D03*
Y34173D03*
Y33858D03*
Y33543D03*
Y33228D03*
Y32913D03*
Y32598D03*
Y32283D03*
Y31968D03*
X96299Y35433D03*
Y35118D03*
Y34803D03*
Y34488D03*
Y34173D03*
Y33858D03*
Y33543D03*
Y33228D03*
Y32913D03*
Y32598D03*
Y32283D03*
Y31968D03*
X95984Y35433D03*
Y35118D03*
Y34803D03*
Y34488D03*
Y34173D03*
Y33858D03*
Y33543D03*
Y33228D03*
Y32913D03*
Y32598D03*
Y32283D03*
Y31968D03*
X95669Y35433D03*
Y35118D03*
Y34803D03*
Y34488D03*
Y34173D03*
Y33858D03*
Y33543D03*
Y33228D03*
Y32913D03*
Y32598D03*
Y32283D03*
Y31968D03*
X95354Y35433D03*
Y35118D03*
Y34803D03*
Y34488D03*
Y34173D03*
Y33858D03*
Y33543D03*
Y33228D03*
Y32913D03*
Y32598D03*
Y32283D03*
Y31968D03*
X95039Y35433D03*
Y35118D03*
Y34803D03*
Y34488D03*
Y34173D03*
Y33858D03*
Y33543D03*
Y33228D03*
Y32913D03*
Y32598D03*
Y32283D03*
Y31968D03*
X94724Y35433D03*
Y35118D03*
Y34803D03*
Y34488D03*
Y34173D03*
Y33858D03*
Y33543D03*
Y33228D03*
Y32913D03*
Y32598D03*
Y32283D03*
Y31968D03*
X94409Y35433D03*
Y35118D03*
Y34803D03*
Y34488D03*
Y34173D03*
Y33858D03*
Y33543D03*
Y33228D03*
Y32913D03*
Y32598D03*
Y32283D03*
Y31968D03*
X94094Y35433D03*
Y35118D03*
Y34803D03*
Y34488D03*
Y34173D03*
Y33858D03*
Y33543D03*
Y33228D03*
Y32913D03*
Y32598D03*
Y32283D03*
Y31968D03*
X93779Y35433D03*
Y35118D03*
Y34803D03*
Y34488D03*
Y34173D03*
Y33858D03*
Y33543D03*
Y33228D03*
Y32913D03*
Y32598D03*
Y32283D03*
Y31968D03*
X93464Y35433D03*
Y35118D03*
Y34803D03*
Y34488D03*
Y34173D03*
Y33858D03*
Y33543D03*
Y33228D03*
Y32913D03*
Y32598D03*
Y32283D03*
Y31968D03*
X93149Y35433D03*
Y35118D03*
Y34803D03*
Y34488D03*
Y34173D03*
Y33858D03*
Y33543D03*
Y33228D03*
Y32913D03*
Y32598D03*
Y32283D03*
Y31968D03*
X99488Y41929D03*
Y42244D03*
Y42559D03*
Y42874D03*
Y43189D03*
Y43503D03*
Y43818D03*
Y44133D03*
Y44448D03*
Y44763D03*
Y45078D03*
Y45393D03*
X99803Y41929D03*
Y42244D03*
Y42559D03*
Y42874D03*
Y43189D03*
Y43503D03*
Y43818D03*
Y44133D03*
Y44448D03*
Y44763D03*
Y45078D03*
Y45393D03*
X100118Y41929D03*
Y42244D03*
Y42559D03*
Y42874D03*
Y43189D03*
Y43503D03*
Y43818D03*
Y44133D03*
Y44448D03*
Y44763D03*
Y45078D03*
Y45393D03*
X100433Y41929D03*
Y42244D03*
Y42559D03*
Y42874D03*
Y43189D03*
Y43503D03*
Y43818D03*
Y44133D03*
Y44448D03*
Y44763D03*
Y45078D03*
Y45393D03*
X100748Y41929D03*
Y42244D03*
Y42559D03*
Y42874D03*
Y43189D03*
Y43503D03*
Y43818D03*
Y44133D03*
Y44448D03*
Y44763D03*
Y45078D03*
Y45393D03*
X101063Y41929D03*
Y42244D03*
Y42559D03*
Y42874D03*
Y43189D03*
Y43503D03*
Y43818D03*
Y44133D03*
Y44448D03*
Y44763D03*
Y45078D03*
Y45393D03*
X101378Y41929D03*
Y42244D03*
Y42559D03*
Y42874D03*
Y43189D03*
Y43503D03*
Y43818D03*
Y44133D03*
Y44448D03*
Y44763D03*
Y45078D03*
Y45393D03*
X101692Y41929D03*
Y42244D03*
Y42559D03*
Y42874D03*
Y43189D03*
Y43503D03*
Y43818D03*
Y44133D03*
Y44448D03*
Y44763D03*
Y45078D03*
Y45393D03*
X102007Y41929D03*
Y42244D03*
Y42559D03*
Y42874D03*
Y43189D03*
Y43503D03*
Y43818D03*
Y44133D03*
Y44448D03*
Y44763D03*
Y45078D03*
Y45393D03*
X102322Y41929D03*
Y42244D03*
Y42559D03*
Y42874D03*
Y43189D03*
Y43503D03*
Y43818D03*
Y44133D03*
Y44448D03*
Y44763D03*
Y45078D03*
Y45393D03*
X102637Y41929D03*
Y42244D03*
Y42559D03*
Y42874D03*
Y43189D03*
Y43503D03*
Y43818D03*
Y44133D03*
Y44448D03*
Y44763D03*
Y45078D03*
Y45393D03*
X102952Y41929D03*
Y42244D03*
Y42559D03*
Y42874D03*
Y43189D03*
Y43503D03*
Y43818D03*
Y44133D03*
Y44448D03*
Y44763D03*
Y45078D03*
Y45393D03*
X104488Y35433D03*
Y35118D03*
Y34803D03*
Y34488D03*
Y34173D03*
Y33858D03*
Y33543D03*
Y33228D03*
Y32913D03*
Y32598D03*
Y32283D03*
Y31968D03*
X104173Y35433D03*
Y35118D03*
Y34803D03*
Y34488D03*
Y34173D03*
Y33858D03*
Y33543D03*
Y33228D03*
Y32913D03*
Y32598D03*
Y32283D03*
Y31968D03*
X103858Y35433D03*
Y35118D03*
Y34803D03*
Y34488D03*
Y34173D03*
Y33858D03*
Y33543D03*
Y33228D03*
Y32913D03*
Y32598D03*
Y32283D03*
Y31968D03*
X103543Y35433D03*
Y35118D03*
Y34803D03*
Y34488D03*
Y34173D03*
Y33858D03*
Y33543D03*
Y33228D03*
Y32913D03*
Y32598D03*
Y32283D03*
Y31968D03*
X103228Y35433D03*
Y35118D03*
Y34803D03*
Y34488D03*
Y34173D03*
Y33858D03*
Y33543D03*
Y33228D03*
Y32913D03*
Y32598D03*
Y32283D03*
Y31968D03*
X102913Y35433D03*
Y35118D03*
Y34803D03*
Y34488D03*
Y34173D03*
Y33858D03*
Y33543D03*
Y33228D03*
Y32913D03*
Y32598D03*
Y32283D03*
Y31968D03*
X102598Y35433D03*
Y35118D03*
Y34803D03*
Y34488D03*
Y34173D03*
Y33858D03*
Y33543D03*
Y33228D03*
Y32913D03*
Y32598D03*
Y32283D03*
Y31968D03*
X102283Y35433D03*
Y35118D03*
Y34803D03*
Y34488D03*
Y34173D03*
Y33858D03*
Y33543D03*
Y33228D03*
Y32913D03*
Y32598D03*
Y32283D03*
Y31968D03*
X101968Y35433D03*
Y35118D03*
Y34803D03*
Y34488D03*
Y34173D03*
Y33858D03*
Y33543D03*
Y33228D03*
Y32913D03*
Y32598D03*
Y32283D03*
Y31968D03*
X101653Y35433D03*
Y35118D03*
Y34803D03*
Y34488D03*
Y34173D03*
Y33858D03*
Y33543D03*
Y33228D03*
Y32913D03*
Y32598D03*
Y32283D03*
Y31968D03*
X101338Y35433D03*
Y35118D03*
Y34803D03*
Y34488D03*
Y34173D03*
Y33858D03*
Y33543D03*
Y33228D03*
Y32913D03*
Y32598D03*
Y32283D03*
Y31968D03*
X101023Y35433D03*
Y35118D03*
Y34803D03*
Y34488D03*
Y34173D03*
Y33858D03*
Y33543D03*
Y33228D03*
Y32913D03*
Y32598D03*
Y32283D03*
Y31968D03*
X107362Y41929D03*
Y42244D03*
Y42559D03*
Y42874D03*
Y43189D03*
Y43503D03*
Y43818D03*
Y44133D03*
Y44448D03*
Y44763D03*
Y45078D03*
Y45393D03*
X107677Y41929D03*
Y42244D03*
Y42559D03*
Y42874D03*
Y43189D03*
Y43503D03*
Y43818D03*
Y44133D03*
Y44448D03*
Y44763D03*
Y45078D03*
Y45393D03*
X107992Y41929D03*
Y42244D03*
Y42559D03*
Y42874D03*
Y43189D03*
Y43503D03*
Y43818D03*
Y44133D03*
Y44448D03*
Y44763D03*
Y45078D03*
Y45393D03*
X108307Y41929D03*
Y42244D03*
Y42559D03*
Y42874D03*
Y43189D03*
Y43503D03*
Y43818D03*
Y44133D03*
Y44448D03*
Y44763D03*
Y45078D03*
Y45393D03*
X108622Y41929D03*
Y42244D03*
Y42559D03*
Y42874D03*
Y43189D03*
Y43503D03*
Y43818D03*
Y44133D03*
Y44448D03*
Y44763D03*
Y45078D03*
Y45393D03*
X108937Y41929D03*
Y42244D03*
Y42559D03*
Y42874D03*
Y43189D03*
Y43503D03*
Y43818D03*
Y44133D03*
Y44448D03*
Y44763D03*
Y45078D03*
Y45393D03*
X109252Y41929D03*
Y42244D03*
Y42559D03*
Y42874D03*
Y43189D03*
Y43503D03*
Y43818D03*
Y44133D03*
Y44448D03*
Y44763D03*
Y45078D03*
Y45393D03*
X109566Y41929D03*
Y42244D03*
Y42559D03*
Y42874D03*
Y43189D03*
Y43503D03*
Y43818D03*
Y44133D03*
Y44448D03*
Y44763D03*
Y45078D03*
Y45393D03*
X109881Y41929D03*
Y42244D03*
Y42559D03*
Y42874D03*
Y43189D03*
Y43503D03*
Y43818D03*
Y44133D03*
Y44448D03*
Y44763D03*
Y45078D03*
Y45393D03*
X110196Y41929D03*
Y42244D03*
Y42559D03*
Y42874D03*
Y43189D03*
Y43503D03*
Y43818D03*
Y44133D03*
Y44448D03*
Y44763D03*
Y45078D03*
Y45393D03*
X110511Y41929D03*
Y42244D03*
Y42559D03*
Y42874D03*
Y43189D03*
Y43503D03*
Y43818D03*
Y44133D03*
Y44448D03*
Y44763D03*
Y45078D03*
Y45393D03*
X110826Y41929D03*
Y42244D03*
Y42559D03*
Y42874D03*
Y43189D03*
Y43503D03*
Y43818D03*
Y44133D03*
Y44448D03*
Y44763D03*
Y45078D03*
Y45393D03*
X112362Y35433D03*
Y35118D03*
Y34803D03*
Y34488D03*
Y34173D03*
Y33858D03*
Y33543D03*
Y33228D03*
Y32913D03*
Y32598D03*
Y32283D03*
Y31968D03*
X112047Y35433D03*
Y35118D03*
Y34803D03*
Y34488D03*
Y34173D03*
Y33858D03*
Y33543D03*
Y33228D03*
Y32913D03*
Y32598D03*
Y32283D03*
Y31968D03*
X111732Y35433D03*
Y35118D03*
Y34803D03*
Y34488D03*
Y34173D03*
Y33858D03*
Y33543D03*
Y33228D03*
Y32913D03*
Y32598D03*
Y32283D03*
Y31968D03*
X111417Y35433D03*
Y35118D03*
Y34803D03*
Y34488D03*
Y34173D03*
Y33858D03*
Y33543D03*
Y33228D03*
Y32913D03*
Y32598D03*
Y32283D03*
Y31968D03*
X111102Y35433D03*
Y35118D03*
Y34803D03*
Y34488D03*
Y34173D03*
Y33858D03*
Y33543D03*
Y33228D03*
Y32913D03*
Y32598D03*
Y32283D03*
Y31968D03*
X110787Y35433D03*
Y35118D03*
Y34803D03*
Y34488D03*
Y34173D03*
Y33858D03*
Y33543D03*
Y33228D03*
Y32913D03*
Y32598D03*
Y32283D03*
Y31968D03*
X110472Y35433D03*
Y35118D03*
Y34803D03*
Y34488D03*
Y34173D03*
Y33858D03*
Y33543D03*
Y33228D03*
Y32913D03*
Y32598D03*
Y32283D03*
Y31968D03*
X110157Y35433D03*
Y35118D03*
Y34803D03*
Y34488D03*
Y34173D03*
Y33858D03*
Y33543D03*
Y33228D03*
Y32913D03*
Y32598D03*
Y32283D03*
Y31968D03*
X109842Y35433D03*
Y35118D03*
Y34803D03*
Y34488D03*
Y34173D03*
Y33858D03*
Y33543D03*
Y33228D03*
Y32913D03*
Y32598D03*
Y32283D03*
Y31968D03*
X109527Y35433D03*
Y35118D03*
Y34803D03*
Y34488D03*
Y34173D03*
Y33858D03*
Y33543D03*
Y33228D03*
Y32913D03*
Y32598D03*
Y32283D03*
Y31968D03*
X109212Y35433D03*
Y35118D03*
Y34803D03*
Y34488D03*
Y34173D03*
Y33858D03*
Y33543D03*
Y33228D03*
Y32913D03*
Y32598D03*
Y32283D03*
Y31968D03*
X108897Y35433D03*
Y35118D03*
Y34803D03*
Y34488D03*
Y34173D03*
Y33858D03*
Y33543D03*
Y33228D03*
Y32913D03*
Y32598D03*
Y32283D03*
Y31968D03*
X107362Y66653D03*
Y66968D03*
Y67283D03*
Y67598D03*
Y67913D03*
Y68228D03*
Y68543D03*
Y68858D03*
Y69173D03*
Y69488D03*
Y69803D03*
Y70118D03*
X107677Y66653D03*
Y66968D03*
Y67283D03*
Y67598D03*
Y67913D03*
Y68228D03*
Y68543D03*
Y68858D03*
Y69173D03*
Y69488D03*
Y69803D03*
Y70118D03*
X107992Y66653D03*
Y66968D03*
Y67283D03*
Y67598D03*
Y67913D03*
Y68228D03*
Y68543D03*
Y68858D03*
Y69173D03*
Y69488D03*
Y69803D03*
Y70118D03*
X108307Y66653D03*
Y66968D03*
Y67283D03*
Y67598D03*
Y67913D03*
Y68228D03*
Y68543D03*
Y68858D03*
Y69173D03*
Y69488D03*
Y69803D03*
Y70118D03*
X108622Y66653D03*
Y66968D03*
Y67283D03*
Y67598D03*
Y67913D03*
Y68228D03*
Y68543D03*
Y68858D03*
Y69173D03*
Y69488D03*
Y69803D03*
Y70118D03*
X108937Y66653D03*
Y66968D03*
Y67283D03*
Y67598D03*
Y67913D03*
Y68228D03*
Y68543D03*
Y68858D03*
Y69173D03*
Y69488D03*
Y69803D03*
Y70118D03*
X109252Y66653D03*
Y66968D03*
Y67283D03*
Y67598D03*
Y67913D03*
Y68228D03*
Y68543D03*
Y68858D03*
Y69173D03*
Y69488D03*
Y69803D03*
Y70118D03*
X109566Y66653D03*
Y66968D03*
Y67283D03*
Y67598D03*
Y67913D03*
Y68228D03*
Y68543D03*
Y68858D03*
Y69173D03*
Y69488D03*
Y69803D03*
Y70118D03*
X109881Y66653D03*
Y66968D03*
Y67283D03*
Y67598D03*
Y67913D03*
Y68228D03*
Y68543D03*
Y68858D03*
Y69173D03*
Y69488D03*
Y69803D03*
Y70118D03*
X110196Y66653D03*
Y66968D03*
Y67283D03*
Y67598D03*
Y67913D03*
Y68228D03*
Y68543D03*
Y68858D03*
Y69173D03*
Y69488D03*
Y69803D03*
Y70118D03*
X110511Y66653D03*
Y66968D03*
Y67283D03*
Y67598D03*
Y67913D03*
Y68228D03*
Y68543D03*
Y68858D03*
Y69173D03*
Y69488D03*
Y69803D03*
Y70118D03*
X110826Y66653D03*
Y66968D03*
Y67283D03*
Y67598D03*
Y67913D03*
Y68228D03*
Y68543D03*
Y68858D03*
Y69173D03*
Y69488D03*
Y69803D03*
Y70118D03*
X112362Y60157D03*
Y59842D03*
Y59527D03*
Y59212D03*
Y58897D03*
Y58582D03*
Y58267D03*
Y57952D03*
Y57637D03*
Y57322D03*
Y57007D03*
Y56692D03*
X112047Y60157D03*
Y59842D03*
Y59527D03*
Y59212D03*
Y58897D03*
Y58582D03*
Y58267D03*
Y57952D03*
Y57637D03*
Y57322D03*
Y57007D03*
Y56692D03*
X111732Y60157D03*
Y59842D03*
Y59527D03*
Y59212D03*
Y58897D03*
Y58582D03*
Y58267D03*
Y57952D03*
Y57637D03*
Y57322D03*
Y57007D03*
Y56692D03*
X111417Y60157D03*
Y59842D03*
Y59527D03*
Y59212D03*
Y58897D03*
Y58582D03*
Y58267D03*
Y57952D03*
Y57637D03*
Y57322D03*
Y57007D03*
Y56692D03*
X111102Y60157D03*
Y59842D03*
Y59527D03*
Y59212D03*
Y58897D03*
Y58582D03*
Y58267D03*
Y57952D03*
Y57637D03*
Y57322D03*
Y57007D03*
Y56692D03*
X110787Y60157D03*
Y59842D03*
Y59527D03*
Y59212D03*
Y58897D03*
Y58582D03*
Y58267D03*
Y57952D03*
Y57637D03*
Y57322D03*
Y57007D03*
Y56692D03*
X110472Y60157D03*
Y59842D03*
Y59527D03*
Y59212D03*
Y58897D03*
Y58582D03*
Y58267D03*
Y57952D03*
Y57637D03*
Y57322D03*
Y57007D03*
Y56692D03*
X110157Y60157D03*
Y59842D03*
Y59527D03*
Y59212D03*
Y58897D03*
Y58582D03*
Y58267D03*
Y57952D03*
Y57637D03*
Y57322D03*
Y57007D03*
Y56692D03*
X109842Y60157D03*
Y59842D03*
Y59527D03*
Y59212D03*
Y58897D03*
Y58582D03*
Y58267D03*
Y57952D03*
Y57637D03*
Y57322D03*
Y57007D03*
Y56692D03*
X109527Y60157D03*
Y59842D03*
Y59527D03*
Y59212D03*
Y58897D03*
Y58582D03*
Y58267D03*
Y57952D03*
Y57637D03*
Y57322D03*
Y57007D03*
Y56692D03*
X109212Y60157D03*
Y59842D03*
Y59527D03*
Y59212D03*
Y58897D03*
Y58582D03*
Y58267D03*
Y57952D03*
Y57637D03*
Y57322D03*
Y57007D03*
Y56692D03*
X108897Y60157D03*
Y59842D03*
Y59527D03*
Y59212D03*
Y58897D03*
Y58582D03*
Y58267D03*
Y57952D03*
Y57637D03*
Y57322D03*
Y57007D03*
Y56692D03*
X99488Y66653D03*
Y66968D03*
Y67283D03*
Y67598D03*
Y67913D03*
Y68228D03*
Y68543D03*
Y68858D03*
Y69173D03*
Y69488D03*
Y69803D03*
Y70118D03*
X99803Y66653D03*
Y66968D03*
Y67283D03*
Y67598D03*
Y67913D03*
Y68228D03*
Y68543D03*
Y68858D03*
Y69173D03*
Y69488D03*
Y69803D03*
Y70118D03*
X100118Y66653D03*
Y66968D03*
Y67283D03*
Y67598D03*
Y67913D03*
Y68228D03*
Y68543D03*
Y68858D03*
Y69173D03*
Y69488D03*
Y69803D03*
Y70118D03*
X100433Y66653D03*
Y66968D03*
Y67283D03*
Y67598D03*
Y67913D03*
Y68228D03*
Y68543D03*
Y68858D03*
Y69173D03*
Y69488D03*
Y69803D03*
Y70118D03*
X100748Y66653D03*
Y66968D03*
Y67283D03*
Y67598D03*
Y67913D03*
Y68228D03*
Y68543D03*
Y68858D03*
Y69173D03*
Y69488D03*
Y69803D03*
Y70118D03*
X101063Y66653D03*
Y66968D03*
Y67283D03*
Y67598D03*
Y67913D03*
Y68228D03*
Y68543D03*
Y68858D03*
Y69173D03*
Y69488D03*
Y69803D03*
Y70118D03*
X101378Y66653D03*
Y66968D03*
Y67283D03*
Y67598D03*
Y67913D03*
Y68228D03*
Y68543D03*
Y68858D03*
Y69173D03*
Y69488D03*
Y69803D03*
Y70118D03*
X101692Y66653D03*
Y66968D03*
Y67283D03*
Y67598D03*
Y67913D03*
Y68228D03*
Y68543D03*
Y68858D03*
Y69173D03*
Y69488D03*
Y69803D03*
Y70118D03*
X102007Y66653D03*
Y66968D03*
Y67283D03*
Y67598D03*
Y67913D03*
Y68228D03*
Y68543D03*
Y68858D03*
Y69173D03*
Y69488D03*
Y69803D03*
Y70118D03*
X102322Y66653D03*
Y66968D03*
Y67283D03*
Y67598D03*
Y67913D03*
Y68228D03*
Y68543D03*
Y68858D03*
Y69173D03*
Y69488D03*
Y69803D03*
Y70118D03*
X102637Y66653D03*
Y66968D03*
Y67283D03*
Y67598D03*
Y67913D03*
Y68228D03*
Y68543D03*
Y68858D03*
Y69173D03*
Y69488D03*
Y69803D03*
Y70118D03*
X102952Y66653D03*
Y66968D03*
Y67283D03*
Y67598D03*
Y67913D03*
Y68228D03*
Y68543D03*
Y68858D03*
Y69173D03*
Y69488D03*
Y69803D03*
Y70118D03*
X52244Y41929D03*
Y42244D03*
Y42559D03*
Y42874D03*
Y43189D03*
Y43503D03*
Y43818D03*
Y44133D03*
Y44448D03*
Y44763D03*
Y45078D03*
Y45393D03*
X52559Y41929D03*
Y42244D03*
Y42559D03*
Y42874D03*
Y43189D03*
Y43503D03*
Y43818D03*
Y44133D03*
Y44448D03*
Y44763D03*
Y45078D03*
Y45393D03*
X52874Y41929D03*
Y42244D03*
Y42559D03*
Y42874D03*
Y43189D03*
Y43503D03*
Y43818D03*
Y44133D03*
Y44448D03*
Y44763D03*
Y45078D03*
Y45393D03*
X53189Y41929D03*
Y42244D03*
Y42559D03*
Y42874D03*
Y43189D03*
Y43503D03*
Y43818D03*
Y44133D03*
Y44448D03*
Y44763D03*
Y45078D03*
Y45393D03*
X53504Y41929D03*
Y42244D03*
Y42559D03*
Y42874D03*
Y43189D03*
Y43503D03*
Y43818D03*
Y44133D03*
Y44448D03*
Y44763D03*
Y45078D03*
Y45393D03*
X53818Y41929D03*
Y42244D03*
Y42559D03*
Y42874D03*
Y43189D03*
Y43503D03*
Y43818D03*
Y44133D03*
Y44448D03*
Y44763D03*
Y45078D03*
Y45393D03*
X54133Y41929D03*
Y42244D03*
Y42559D03*
Y42874D03*
Y43189D03*
Y43503D03*
Y43818D03*
Y44133D03*
Y44448D03*
Y44763D03*
Y45078D03*
Y45393D03*
X54448Y41929D03*
Y42244D03*
Y42559D03*
Y42874D03*
Y43189D03*
Y43503D03*
Y43818D03*
Y44133D03*
Y44448D03*
Y44763D03*
Y45078D03*
Y45393D03*
X54763Y41929D03*
Y42244D03*
Y42559D03*
Y42874D03*
Y43189D03*
Y43503D03*
Y43818D03*
Y44133D03*
Y44448D03*
Y44763D03*
Y45078D03*
Y45393D03*
X55078Y41929D03*
Y42244D03*
Y42559D03*
Y42874D03*
Y43189D03*
Y43503D03*
Y43818D03*
Y44133D03*
Y44448D03*
Y44763D03*
Y45078D03*
Y45393D03*
X55393Y41929D03*
Y42244D03*
Y42559D03*
Y42874D03*
Y43189D03*
Y43503D03*
Y43818D03*
Y44133D03*
Y44448D03*
Y44763D03*
Y45078D03*
Y45393D03*
X55708Y41929D03*
Y42244D03*
Y42559D03*
Y42874D03*
Y43189D03*
Y43503D03*
Y43818D03*
Y44133D03*
Y44448D03*
Y44763D03*
Y45078D03*
Y45393D03*
X104488Y60157D03*
Y59842D03*
Y59527D03*
Y59212D03*
Y58897D03*
Y58582D03*
Y58267D03*
Y57952D03*
Y57637D03*
Y57322D03*
Y57007D03*
Y56692D03*
X104173Y60157D03*
Y59842D03*
Y59527D03*
Y59212D03*
Y58897D03*
Y58582D03*
Y58267D03*
Y57952D03*
Y57637D03*
Y57322D03*
Y57007D03*
Y56692D03*
X103858Y60157D03*
Y59842D03*
Y59527D03*
Y59212D03*
Y58897D03*
Y58582D03*
Y58267D03*
Y57952D03*
Y57637D03*
Y57322D03*
Y57007D03*
Y56692D03*
X103543Y60157D03*
Y59842D03*
Y59527D03*
Y59212D03*
Y58897D03*
Y58582D03*
Y58267D03*
Y57952D03*
Y57637D03*
Y57322D03*
Y57007D03*
Y56692D03*
X103228Y60157D03*
Y59842D03*
Y59527D03*
Y59212D03*
Y58897D03*
Y58582D03*
Y58267D03*
Y57952D03*
Y57637D03*
Y57322D03*
Y57007D03*
Y56692D03*
X102913Y60157D03*
Y59842D03*
Y59527D03*
Y59212D03*
Y58897D03*
Y58582D03*
Y58267D03*
Y57952D03*
Y57637D03*
Y57322D03*
Y57007D03*
Y56692D03*
X102598Y60157D03*
Y59842D03*
Y59527D03*
Y59212D03*
Y58897D03*
Y58582D03*
Y58267D03*
Y57952D03*
Y57637D03*
Y57322D03*
Y57007D03*
Y56692D03*
X102283Y60157D03*
Y59842D03*
Y59527D03*
Y59212D03*
Y58897D03*
Y58582D03*
Y58267D03*
Y57952D03*
Y57637D03*
Y57322D03*
Y57007D03*
Y56692D03*
X101968Y60157D03*
Y59842D03*
Y59527D03*
Y59212D03*
Y58897D03*
Y58582D03*
Y58267D03*
Y57952D03*
Y57637D03*
Y57322D03*
Y57007D03*
Y56692D03*
X101653Y60157D03*
Y59842D03*
Y59527D03*
Y59212D03*
Y58897D03*
Y58582D03*
Y58267D03*
Y57952D03*
Y57637D03*
Y57322D03*
Y57007D03*
Y56692D03*
X101338Y60157D03*
Y59842D03*
Y59527D03*
Y59212D03*
Y58897D03*
Y58582D03*
Y58267D03*
Y57952D03*
Y57637D03*
Y57322D03*
Y57007D03*
Y56692D03*
X101023Y60157D03*
Y59842D03*
Y59527D03*
Y59212D03*
Y58897D03*
Y58582D03*
Y58267D03*
Y57952D03*
Y57637D03*
Y57322D03*
Y57007D03*
Y56692D03*
X91614Y66653D03*
Y66968D03*
Y67283D03*
Y67598D03*
Y67913D03*
Y68228D03*
Y68543D03*
Y68858D03*
Y69173D03*
Y69488D03*
Y69803D03*
Y70118D03*
X91929Y66653D03*
Y66968D03*
Y67283D03*
Y67598D03*
Y67913D03*
Y68228D03*
Y68543D03*
Y68858D03*
Y69173D03*
Y69488D03*
Y69803D03*
Y70118D03*
X92244Y66653D03*
Y66968D03*
Y67283D03*
Y67598D03*
Y67913D03*
Y68228D03*
Y68543D03*
Y68858D03*
Y69173D03*
Y69488D03*
Y69803D03*
Y70118D03*
X92559Y66653D03*
Y66968D03*
Y67283D03*
Y67598D03*
Y67913D03*
Y68228D03*
Y68543D03*
Y68858D03*
Y69173D03*
Y69488D03*
Y69803D03*
Y70118D03*
X92874Y66653D03*
Y66968D03*
Y67283D03*
Y67598D03*
Y67913D03*
Y68228D03*
Y68543D03*
Y68858D03*
Y69173D03*
Y69488D03*
Y69803D03*
Y70118D03*
X93189Y66653D03*
Y66968D03*
Y67283D03*
Y67598D03*
Y67913D03*
Y68228D03*
Y68543D03*
Y68858D03*
Y69173D03*
Y69488D03*
Y69803D03*
Y70118D03*
X93504Y66653D03*
Y66968D03*
Y67283D03*
Y67598D03*
Y67913D03*
Y68228D03*
Y68543D03*
Y68858D03*
Y69173D03*
Y69488D03*
Y69803D03*
Y70118D03*
X93818Y66653D03*
Y66968D03*
Y67283D03*
Y67598D03*
Y67913D03*
Y68228D03*
Y68543D03*
Y68858D03*
Y69173D03*
Y69488D03*
Y69803D03*
Y70118D03*
X94133Y66653D03*
Y66968D03*
Y67283D03*
Y67598D03*
Y67913D03*
Y68228D03*
Y68543D03*
Y68858D03*
Y69173D03*
Y69488D03*
Y69803D03*
Y70118D03*
X94448Y66653D03*
Y66968D03*
Y67283D03*
Y67598D03*
Y67913D03*
Y68228D03*
Y68543D03*
Y68858D03*
Y69173D03*
Y69488D03*
Y69803D03*
Y70118D03*
X94763Y66653D03*
Y66968D03*
Y67283D03*
Y67598D03*
Y67913D03*
Y68228D03*
Y68543D03*
Y68858D03*
Y69173D03*
Y69488D03*
Y69803D03*
Y70118D03*
X95078Y66653D03*
Y66968D03*
Y67283D03*
Y67598D03*
Y67913D03*
Y68228D03*
Y68543D03*
Y68858D03*
Y69173D03*
Y69488D03*
Y69803D03*
Y70118D03*
X96614Y60157D03*
Y59842D03*
Y59527D03*
Y59212D03*
Y58897D03*
Y58582D03*
Y58267D03*
Y57952D03*
Y57637D03*
Y57322D03*
Y57007D03*
Y56692D03*
X96299Y60157D03*
Y59842D03*
Y59527D03*
Y59212D03*
Y58897D03*
Y58582D03*
Y58267D03*
Y57952D03*
Y57637D03*
Y57322D03*
Y57007D03*
Y56692D03*
X95984Y60157D03*
Y59842D03*
Y59527D03*
Y59212D03*
Y58897D03*
Y58582D03*
Y58267D03*
Y57952D03*
Y57637D03*
Y57322D03*
Y57007D03*
Y56692D03*
X95669Y60157D03*
Y59842D03*
Y59527D03*
Y59212D03*
Y58897D03*
Y58582D03*
Y58267D03*
Y57952D03*
Y57637D03*
Y57322D03*
Y57007D03*
Y56692D03*
X95354Y60157D03*
Y59842D03*
Y59527D03*
Y59212D03*
Y58897D03*
Y58582D03*
Y58267D03*
Y57952D03*
Y57637D03*
Y57322D03*
Y57007D03*
Y56692D03*
X95039Y60157D03*
Y59842D03*
Y59527D03*
Y59212D03*
Y58897D03*
Y58582D03*
Y58267D03*
Y57952D03*
Y57637D03*
Y57322D03*
Y57007D03*
Y56692D03*
X94724Y60157D03*
Y59842D03*
Y59527D03*
Y59212D03*
Y58897D03*
Y58582D03*
Y58267D03*
Y57952D03*
Y57637D03*
Y57322D03*
Y57007D03*
Y56692D03*
X94409Y60157D03*
Y59842D03*
Y59527D03*
Y59212D03*
Y58897D03*
Y58582D03*
Y58267D03*
Y57952D03*
Y57637D03*
Y57322D03*
Y57007D03*
Y56692D03*
X94094Y60157D03*
Y59842D03*
Y59527D03*
Y59212D03*
Y58897D03*
Y58582D03*
Y58267D03*
Y57952D03*
Y57637D03*
Y57322D03*
Y57007D03*
Y56692D03*
X93779Y60157D03*
Y59842D03*
Y59527D03*
Y59212D03*
Y58897D03*
Y58582D03*
Y58267D03*
Y57952D03*
Y57637D03*
Y57322D03*
Y57007D03*
Y56692D03*
X93464Y60157D03*
Y59842D03*
Y59527D03*
Y59212D03*
Y58897D03*
Y58582D03*
Y58267D03*
Y57952D03*
Y57637D03*
Y57322D03*
Y57007D03*
Y56692D03*
X93149Y60157D03*
Y59842D03*
Y59527D03*
Y59212D03*
Y58897D03*
Y58582D03*
Y58267D03*
Y57952D03*
Y57637D03*
Y57322D03*
Y57007D03*
Y56692D03*
X83740Y66653D03*
Y66968D03*
Y67283D03*
Y67598D03*
Y67913D03*
Y68228D03*
Y68543D03*
Y68858D03*
Y69173D03*
Y69488D03*
Y69803D03*
Y70118D03*
X84055Y66653D03*
Y66968D03*
Y67283D03*
Y67598D03*
Y67913D03*
Y68228D03*
Y68543D03*
Y68858D03*
Y69173D03*
Y69488D03*
Y69803D03*
Y70118D03*
X84370Y66653D03*
Y66968D03*
Y67283D03*
Y67598D03*
Y67913D03*
Y68228D03*
Y68543D03*
Y68858D03*
Y69173D03*
Y69488D03*
Y69803D03*
Y70118D03*
X84685Y66653D03*
Y66968D03*
Y67283D03*
Y67598D03*
Y67913D03*
Y68228D03*
Y68543D03*
Y68858D03*
Y69173D03*
Y69488D03*
Y69803D03*
Y70118D03*
X85000Y66653D03*
Y66968D03*
Y67283D03*
Y67598D03*
Y67913D03*
Y68228D03*
Y68543D03*
Y68858D03*
Y69173D03*
Y69488D03*
Y69803D03*
Y70118D03*
X85314Y66653D03*
Y66968D03*
Y67283D03*
Y67598D03*
Y67913D03*
Y68228D03*
Y68543D03*
Y68858D03*
Y69173D03*
Y69488D03*
Y69803D03*
Y70118D03*
X85629Y66653D03*
Y66968D03*
Y67283D03*
Y67598D03*
Y67913D03*
Y68228D03*
Y68543D03*
Y68858D03*
Y69173D03*
Y69488D03*
Y69803D03*
Y70118D03*
X85944Y66653D03*
Y66968D03*
Y67283D03*
Y67598D03*
Y67913D03*
Y68228D03*
Y68543D03*
Y68858D03*
Y69173D03*
Y69488D03*
Y69803D03*
Y70118D03*
X86259Y66653D03*
Y66968D03*
Y67283D03*
Y67598D03*
Y67913D03*
Y68228D03*
Y68543D03*
Y68858D03*
Y69173D03*
Y69488D03*
Y69803D03*
Y70118D03*
X86574Y66653D03*
Y66968D03*
Y67283D03*
Y67598D03*
Y67913D03*
Y68228D03*
Y68543D03*
Y68858D03*
Y69173D03*
Y69488D03*
Y69803D03*
Y70118D03*
X86889Y66653D03*
Y66968D03*
Y67283D03*
Y67598D03*
Y67913D03*
Y68228D03*
Y68543D03*
Y68858D03*
Y69173D03*
Y69488D03*
Y69803D03*
Y70118D03*
X87204Y66653D03*
Y66968D03*
Y67283D03*
Y67598D03*
Y67913D03*
Y68228D03*
Y68543D03*
Y68858D03*
Y69173D03*
Y69488D03*
Y69803D03*
Y70118D03*
X88740Y60157D03*
Y59842D03*
Y59527D03*
Y59212D03*
Y58897D03*
Y58582D03*
Y58267D03*
Y57952D03*
Y57637D03*
Y57322D03*
Y57007D03*
Y56692D03*
X88425Y60157D03*
Y59842D03*
Y59527D03*
Y59212D03*
Y58897D03*
Y58582D03*
Y58267D03*
Y57952D03*
Y57637D03*
Y57322D03*
Y57007D03*
Y56692D03*
X88110Y60157D03*
Y59842D03*
Y59527D03*
Y59212D03*
Y58897D03*
Y58582D03*
Y58267D03*
Y57952D03*
Y57637D03*
Y57322D03*
Y57007D03*
Y56692D03*
X87795Y60157D03*
Y59842D03*
Y59527D03*
Y59212D03*
Y58897D03*
Y58582D03*
Y58267D03*
Y57952D03*
Y57637D03*
Y57322D03*
Y57007D03*
Y56692D03*
X87480Y60157D03*
Y59842D03*
Y59527D03*
Y59212D03*
Y58897D03*
Y58582D03*
Y58267D03*
Y57952D03*
Y57637D03*
Y57322D03*
Y57007D03*
Y56692D03*
X87165Y60157D03*
Y59842D03*
Y59527D03*
Y59212D03*
Y58897D03*
Y58582D03*
Y58267D03*
Y57952D03*
Y57637D03*
Y57322D03*
Y57007D03*
Y56692D03*
X86850Y60157D03*
Y59842D03*
Y59527D03*
Y59212D03*
Y58897D03*
Y58582D03*
Y58267D03*
Y57952D03*
Y57637D03*
Y57322D03*
Y57007D03*
Y56692D03*
X86535Y60157D03*
Y59842D03*
Y59527D03*
Y59212D03*
Y58897D03*
Y58582D03*
Y58267D03*
Y57952D03*
Y57637D03*
Y57322D03*
Y57007D03*
Y56692D03*
X86220Y60157D03*
Y59842D03*
Y59527D03*
Y59212D03*
Y58897D03*
Y58582D03*
Y58267D03*
Y57952D03*
Y57637D03*
Y57322D03*
Y57007D03*
Y56692D03*
X85905Y60157D03*
Y59842D03*
Y59527D03*
Y59212D03*
Y58897D03*
Y58582D03*
Y58267D03*
Y57952D03*
Y57637D03*
Y57322D03*
Y57007D03*
Y56692D03*
X85590Y60157D03*
Y59842D03*
Y59527D03*
Y59212D03*
Y58897D03*
Y58582D03*
Y58267D03*
Y57952D03*
Y57637D03*
Y57322D03*
Y57007D03*
Y56692D03*
X85275Y60157D03*
Y59842D03*
Y59527D03*
Y59212D03*
Y58897D03*
Y58582D03*
Y58267D03*
Y57952D03*
Y57637D03*
Y57322D03*
Y57007D03*
Y56692D03*
X75866Y66653D03*
Y66968D03*
Y67283D03*
Y67598D03*
Y67913D03*
Y68228D03*
Y68543D03*
Y68858D03*
Y69173D03*
Y69488D03*
Y69803D03*
Y70118D03*
X76181Y66653D03*
Y66968D03*
Y67283D03*
Y67598D03*
Y67913D03*
Y68228D03*
Y68543D03*
Y68858D03*
Y69173D03*
Y69488D03*
Y69803D03*
Y70118D03*
X76496Y66653D03*
Y66968D03*
Y67283D03*
Y67598D03*
Y67913D03*
Y68228D03*
Y68543D03*
Y68858D03*
Y69173D03*
Y69488D03*
Y69803D03*
Y70118D03*
X76811Y66653D03*
Y66968D03*
Y67283D03*
Y67598D03*
Y67913D03*
Y68228D03*
Y68543D03*
Y68858D03*
Y69173D03*
Y69488D03*
Y69803D03*
Y70118D03*
X77126Y66653D03*
Y66968D03*
Y67283D03*
Y67598D03*
Y67913D03*
Y68228D03*
Y68543D03*
Y68858D03*
Y69173D03*
Y69488D03*
Y69803D03*
Y70118D03*
X77440Y66653D03*
Y66968D03*
Y67283D03*
Y67598D03*
Y67913D03*
Y68228D03*
Y68543D03*
Y68858D03*
Y69173D03*
Y69488D03*
Y69803D03*
Y70118D03*
X77755Y66653D03*
Y66968D03*
Y67283D03*
Y67598D03*
Y67913D03*
Y68228D03*
Y68543D03*
Y68858D03*
Y69173D03*
Y69488D03*
Y69803D03*
Y70118D03*
X78070Y66653D03*
Y66968D03*
Y67283D03*
Y67598D03*
Y67913D03*
Y68228D03*
Y68543D03*
Y68858D03*
Y69173D03*
Y69488D03*
Y69803D03*
Y70118D03*
X78385Y66653D03*
Y66968D03*
Y67283D03*
Y67598D03*
Y67913D03*
Y68228D03*
Y68543D03*
Y68858D03*
Y69173D03*
Y69488D03*
Y69803D03*
Y70118D03*
X78700Y66653D03*
Y66968D03*
Y67283D03*
Y67598D03*
Y67913D03*
Y68228D03*
Y68543D03*
Y68858D03*
Y69173D03*
Y69488D03*
Y69803D03*
Y70118D03*
X79015Y66653D03*
Y66968D03*
Y67283D03*
Y67598D03*
Y67913D03*
Y68228D03*
Y68543D03*
Y68858D03*
Y69173D03*
Y69488D03*
Y69803D03*
Y70118D03*
X79330Y66653D03*
Y66968D03*
Y67283D03*
Y67598D03*
Y67913D03*
Y68228D03*
Y68543D03*
Y68858D03*
Y69173D03*
Y69488D03*
Y69803D03*
Y70118D03*
X80866Y60157D03*
Y59842D03*
Y59527D03*
Y59212D03*
Y58897D03*
Y58582D03*
Y58267D03*
Y57952D03*
Y57637D03*
Y57322D03*
Y57007D03*
Y56692D03*
X80551Y60157D03*
Y59842D03*
Y59527D03*
Y59212D03*
Y58897D03*
Y58582D03*
Y58267D03*
Y57952D03*
Y57637D03*
Y57322D03*
Y57007D03*
Y56692D03*
X80236Y60157D03*
Y59842D03*
Y59527D03*
Y59212D03*
Y58897D03*
Y58582D03*
Y58267D03*
Y57952D03*
Y57637D03*
Y57322D03*
Y57007D03*
Y56692D03*
X79921Y60157D03*
Y59842D03*
Y59527D03*
Y59212D03*
Y58897D03*
Y58582D03*
Y58267D03*
Y57952D03*
Y57637D03*
Y57322D03*
Y57007D03*
Y56692D03*
X79606Y60157D03*
Y59842D03*
Y59527D03*
Y59212D03*
Y58897D03*
Y58582D03*
Y58267D03*
Y57952D03*
Y57637D03*
Y57322D03*
Y57007D03*
Y56692D03*
X79291Y60157D03*
Y59842D03*
Y59527D03*
Y59212D03*
Y58897D03*
Y58582D03*
Y58267D03*
Y57952D03*
Y57637D03*
Y57322D03*
Y57007D03*
Y56692D03*
X78976Y60157D03*
Y59842D03*
Y59527D03*
Y59212D03*
Y58897D03*
Y58582D03*
Y58267D03*
Y57952D03*
Y57637D03*
Y57322D03*
Y57007D03*
Y56692D03*
X78661Y60157D03*
Y59842D03*
Y59527D03*
Y59212D03*
Y58897D03*
Y58582D03*
Y58267D03*
Y57952D03*
Y57637D03*
Y57322D03*
Y57007D03*
Y56692D03*
X78346Y60157D03*
Y59842D03*
Y59527D03*
Y59212D03*
Y58897D03*
Y58582D03*
Y58267D03*
Y57952D03*
Y57637D03*
Y57322D03*
Y57007D03*
Y56692D03*
X78031Y60157D03*
Y59842D03*
Y59527D03*
Y59212D03*
Y58897D03*
Y58582D03*
Y58267D03*
Y57952D03*
Y57637D03*
Y57322D03*
Y57007D03*
Y56692D03*
X77716Y60157D03*
Y59842D03*
Y59527D03*
Y59212D03*
Y58897D03*
Y58582D03*
Y58267D03*
Y57952D03*
Y57637D03*
Y57322D03*
Y57007D03*
Y56692D03*
X77401Y60157D03*
Y59842D03*
Y59527D03*
Y59212D03*
Y58897D03*
Y58582D03*
Y58267D03*
Y57952D03*
Y57637D03*
Y57322D03*
Y57007D03*
Y56692D03*
X67992Y66653D03*
Y66968D03*
Y67283D03*
Y67598D03*
Y67913D03*
Y68228D03*
Y68543D03*
Y68858D03*
Y69173D03*
Y69488D03*
Y69803D03*
Y70118D03*
X68307Y66653D03*
Y66968D03*
Y67283D03*
Y67598D03*
Y67913D03*
Y68228D03*
Y68543D03*
Y68858D03*
Y69173D03*
Y69488D03*
Y69803D03*
Y70118D03*
X68622Y66653D03*
Y66968D03*
Y67283D03*
Y67598D03*
Y67913D03*
Y68228D03*
Y68543D03*
Y68858D03*
Y69173D03*
Y69488D03*
Y69803D03*
Y70118D03*
X68937Y66653D03*
Y66968D03*
Y67283D03*
Y67598D03*
Y67913D03*
Y68228D03*
Y68543D03*
Y68858D03*
Y69173D03*
Y69488D03*
Y69803D03*
Y70118D03*
X69252Y66653D03*
Y66968D03*
Y67283D03*
Y67598D03*
Y67913D03*
Y68228D03*
Y68543D03*
Y68858D03*
Y69173D03*
Y69488D03*
Y69803D03*
Y70118D03*
X69566Y66653D03*
Y66968D03*
Y67283D03*
Y67598D03*
Y67913D03*
Y68228D03*
Y68543D03*
Y68858D03*
Y69173D03*
Y69488D03*
Y69803D03*
Y70118D03*
X69881Y66653D03*
Y66968D03*
Y67283D03*
Y67598D03*
Y67913D03*
Y68228D03*
Y68543D03*
Y68858D03*
Y69173D03*
Y69488D03*
Y69803D03*
Y70118D03*
X70196Y66653D03*
Y66968D03*
Y67283D03*
Y67598D03*
Y67913D03*
Y68228D03*
Y68543D03*
Y68858D03*
Y69173D03*
Y69488D03*
Y69803D03*
Y70118D03*
X70511Y66653D03*
Y66968D03*
Y67283D03*
Y67598D03*
Y67913D03*
Y68228D03*
Y68543D03*
Y68858D03*
Y69173D03*
Y69488D03*
Y69803D03*
Y70118D03*
X70826Y66653D03*
Y66968D03*
Y67283D03*
Y67598D03*
Y67913D03*
Y68228D03*
Y68543D03*
Y68858D03*
Y69173D03*
Y69488D03*
Y69803D03*
Y70118D03*
X71141Y66653D03*
Y66968D03*
Y67283D03*
Y67598D03*
Y67913D03*
Y68228D03*
Y68543D03*
Y68858D03*
Y69173D03*
Y69488D03*
Y69803D03*
Y70118D03*
X71456Y66653D03*
Y66968D03*
Y67283D03*
Y67598D03*
Y67913D03*
Y68228D03*
Y68543D03*
Y68858D03*
Y69173D03*
Y69488D03*
Y69803D03*
Y70118D03*
X72992Y60157D03*
Y59842D03*
Y59527D03*
Y59212D03*
Y58897D03*
Y58582D03*
Y58267D03*
Y57952D03*
Y57637D03*
Y57322D03*
Y57007D03*
Y56692D03*
X72677Y60157D03*
Y59842D03*
Y59527D03*
Y59212D03*
Y58897D03*
Y58582D03*
Y58267D03*
Y57952D03*
Y57637D03*
Y57322D03*
Y57007D03*
Y56692D03*
X72362Y60157D03*
Y59842D03*
Y59527D03*
Y59212D03*
Y58897D03*
Y58582D03*
Y58267D03*
Y57952D03*
Y57637D03*
Y57322D03*
Y57007D03*
Y56692D03*
X72047Y60157D03*
Y59842D03*
Y59527D03*
Y59212D03*
Y58897D03*
Y58582D03*
Y58267D03*
Y57952D03*
Y57637D03*
Y57322D03*
Y57007D03*
Y56692D03*
X71732Y60157D03*
Y59842D03*
Y59527D03*
Y59212D03*
Y58897D03*
Y58582D03*
Y58267D03*
Y57952D03*
Y57637D03*
Y57322D03*
Y57007D03*
Y56692D03*
X71417Y60157D03*
Y59842D03*
Y59527D03*
Y59212D03*
Y58897D03*
Y58582D03*
Y58267D03*
Y57952D03*
Y57637D03*
Y57322D03*
Y57007D03*
Y56692D03*
X71102Y60157D03*
Y59842D03*
Y59527D03*
Y59212D03*
Y58897D03*
Y58582D03*
Y58267D03*
Y57952D03*
Y57637D03*
Y57322D03*
Y57007D03*
Y56692D03*
X70787Y60157D03*
Y59842D03*
Y59527D03*
Y59212D03*
Y58897D03*
Y58582D03*
Y58267D03*
Y57952D03*
Y57637D03*
Y57322D03*
Y57007D03*
Y56692D03*
X70472Y60157D03*
Y59842D03*
Y59527D03*
Y59212D03*
Y58897D03*
Y58582D03*
Y58267D03*
Y57952D03*
Y57637D03*
Y57322D03*
Y57007D03*
Y56692D03*
X70157Y60157D03*
Y59842D03*
Y59527D03*
Y59212D03*
Y58897D03*
Y58582D03*
Y58267D03*
Y57952D03*
Y57637D03*
Y57322D03*
Y57007D03*
Y56692D03*
X69842Y60157D03*
Y59842D03*
Y59527D03*
Y59212D03*
Y58897D03*
Y58582D03*
Y58267D03*
Y57952D03*
Y57637D03*
Y57322D03*
Y57007D03*
Y56692D03*
X69527Y60157D03*
Y59842D03*
Y59527D03*
Y59212D03*
Y58897D03*
Y58582D03*
Y58267D03*
Y57952D03*
Y57637D03*
Y57322D03*
Y57007D03*
Y56692D03*
X60118Y66653D03*
Y66968D03*
Y67283D03*
Y67598D03*
Y67913D03*
Y68228D03*
Y68543D03*
Y68858D03*
Y69173D03*
Y69488D03*
Y69803D03*
Y70118D03*
X60433Y66653D03*
Y66968D03*
Y67283D03*
Y67598D03*
Y67913D03*
Y68228D03*
Y68543D03*
Y68858D03*
Y69173D03*
Y69488D03*
Y69803D03*
Y70118D03*
X60748Y66653D03*
Y66968D03*
Y67283D03*
Y67598D03*
Y67913D03*
Y68228D03*
Y68543D03*
Y68858D03*
Y69173D03*
Y69488D03*
Y69803D03*
Y70118D03*
X61063Y66653D03*
Y66968D03*
Y67283D03*
Y67598D03*
Y67913D03*
Y68228D03*
Y68543D03*
Y68858D03*
Y69173D03*
Y69488D03*
Y69803D03*
Y70118D03*
X61378Y66653D03*
Y66968D03*
Y67283D03*
Y67598D03*
Y67913D03*
Y68228D03*
Y68543D03*
Y68858D03*
Y69173D03*
Y69488D03*
Y69803D03*
Y70118D03*
X61692Y66653D03*
Y66968D03*
Y67283D03*
Y67598D03*
Y67913D03*
Y68228D03*
Y68543D03*
Y68858D03*
Y69173D03*
Y69488D03*
Y69803D03*
Y70118D03*
X62007Y66653D03*
Y66968D03*
Y67283D03*
Y67598D03*
Y67913D03*
Y68228D03*
Y68543D03*
Y68858D03*
Y69173D03*
Y69488D03*
Y69803D03*
Y70118D03*
X62322Y66653D03*
Y66968D03*
Y67283D03*
Y67598D03*
Y67913D03*
Y68228D03*
Y68543D03*
Y68858D03*
Y69173D03*
Y69488D03*
Y69803D03*
Y70118D03*
X62637Y66653D03*
Y66968D03*
Y67283D03*
Y67598D03*
Y67913D03*
Y68228D03*
Y68543D03*
Y68858D03*
Y69173D03*
Y69488D03*
Y69803D03*
Y70118D03*
X62952Y66653D03*
Y66968D03*
Y67283D03*
Y67598D03*
Y67913D03*
Y68228D03*
Y68543D03*
Y68858D03*
Y69173D03*
Y69488D03*
Y69803D03*
Y70118D03*
X63267Y66653D03*
Y66968D03*
Y67283D03*
Y67598D03*
Y67913D03*
Y68228D03*
Y68543D03*
Y68858D03*
Y69173D03*
Y69488D03*
Y69803D03*
Y70118D03*
X63582Y66653D03*
Y66968D03*
Y67283D03*
Y67598D03*
Y67913D03*
Y68228D03*
Y68543D03*
Y68858D03*
Y69173D03*
Y69488D03*
Y69803D03*
Y70118D03*
X57244Y35433D03*
Y35118D03*
Y34803D03*
Y34488D03*
Y34173D03*
Y33858D03*
Y33543D03*
Y33228D03*
Y32913D03*
Y32598D03*
Y32283D03*
Y31968D03*
X56929Y35433D03*
Y35118D03*
Y34803D03*
Y34488D03*
Y34173D03*
Y33858D03*
Y33543D03*
Y33228D03*
Y32913D03*
Y32598D03*
Y32283D03*
Y31968D03*
X56614Y35433D03*
Y35118D03*
Y34803D03*
Y34488D03*
Y34173D03*
Y33858D03*
Y33543D03*
Y33228D03*
Y32913D03*
Y32598D03*
Y32283D03*
Y31968D03*
X56299Y35433D03*
Y35118D03*
Y34803D03*
Y34488D03*
Y34173D03*
Y33858D03*
Y33543D03*
Y33228D03*
Y32913D03*
Y32598D03*
Y32283D03*
Y31968D03*
X55984Y35433D03*
Y35118D03*
Y34803D03*
Y34488D03*
Y34173D03*
Y33858D03*
Y33543D03*
Y33228D03*
Y32913D03*
Y32598D03*
Y32283D03*
Y31968D03*
X55669Y35433D03*
Y35118D03*
Y34803D03*
Y34488D03*
Y34173D03*
Y33858D03*
Y33543D03*
Y33228D03*
Y32913D03*
Y32598D03*
Y32283D03*
Y31968D03*
X55354Y35433D03*
Y35118D03*
Y34803D03*
Y34488D03*
Y34173D03*
Y33858D03*
Y33543D03*
Y33228D03*
Y32913D03*
Y32598D03*
Y32283D03*
Y31968D03*
X55039Y35433D03*
Y35118D03*
Y34803D03*
Y34488D03*
Y34173D03*
Y33858D03*
Y33543D03*
Y33228D03*
Y32913D03*
Y32598D03*
Y32283D03*
Y31968D03*
X54724Y35433D03*
Y35118D03*
Y34803D03*
Y34488D03*
Y34173D03*
Y33858D03*
Y33543D03*
Y33228D03*
Y32913D03*
Y32598D03*
Y32283D03*
Y31968D03*
X54409Y35433D03*
Y35118D03*
Y34803D03*
Y34488D03*
Y34173D03*
Y33858D03*
Y33543D03*
Y33228D03*
Y32913D03*
Y32598D03*
Y32283D03*
Y31968D03*
X54094Y35433D03*
Y35118D03*
Y34803D03*
Y34488D03*
Y34173D03*
Y33858D03*
Y33543D03*
Y33228D03*
Y32913D03*
Y32598D03*
Y32283D03*
Y31968D03*
X53779Y35433D03*
Y35118D03*
Y34803D03*
Y34488D03*
Y34173D03*
Y33858D03*
Y33543D03*
Y33228D03*
Y32913D03*
Y32598D03*
Y32283D03*
Y31968D03*
X65118Y60157D03*
Y59842D03*
Y59527D03*
Y59212D03*
Y58897D03*
Y58582D03*
Y58267D03*
Y57952D03*
Y57637D03*
Y57322D03*
Y57007D03*
Y56692D03*
X64803Y60157D03*
Y59842D03*
Y59527D03*
Y59212D03*
Y58897D03*
Y58582D03*
Y58267D03*
Y57952D03*
Y57637D03*
Y57322D03*
Y57007D03*
Y56692D03*
X64488Y60157D03*
Y59842D03*
Y59527D03*
Y59212D03*
Y58897D03*
Y58582D03*
Y58267D03*
Y57952D03*
Y57637D03*
Y57322D03*
Y57007D03*
Y56692D03*
X64173Y60157D03*
Y59842D03*
Y59527D03*
Y59212D03*
Y58897D03*
Y58582D03*
Y58267D03*
Y57952D03*
Y57637D03*
Y57322D03*
Y57007D03*
Y56692D03*
X63858Y60157D03*
Y59842D03*
Y59527D03*
Y59212D03*
Y58897D03*
Y58582D03*
Y58267D03*
Y57952D03*
Y57637D03*
Y57322D03*
Y57007D03*
Y56692D03*
X63543Y60157D03*
Y59842D03*
Y59527D03*
Y59212D03*
Y58897D03*
Y58582D03*
Y58267D03*
Y57952D03*
Y57637D03*
Y57322D03*
Y57007D03*
Y56692D03*
X63228Y60157D03*
Y59842D03*
Y59527D03*
Y59212D03*
Y58897D03*
Y58582D03*
Y58267D03*
Y57952D03*
Y57637D03*
Y57322D03*
Y57007D03*
Y56692D03*
X62913Y60157D03*
Y59842D03*
Y59527D03*
Y59212D03*
Y58897D03*
Y58582D03*
Y58267D03*
Y57952D03*
Y57637D03*
Y57322D03*
Y57007D03*
Y56692D03*
X62598Y60157D03*
Y59842D03*
Y59527D03*
Y59212D03*
Y58897D03*
Y58582D03*
Y58267D03*
Y57952D03*
Y57637D03*
Y57322D03*
Y57007D03*
Y56692D03*
X62283Y60157D03*
Y59842D03*
Y59527D03*
Y59212D03*
Y58897D03*
Y58582D03*
Y58267D03*
Y57952D03*
Y57637D03*
Y57322D03*
Y57007D03*
Y56692D03*
X61968Y60157D03*
Y59842D03*
Y59527D03*
Y59212D03*
Y58897D03*
Y58582D03*
Y58267D03*
Y57952D03*
Y57637D03*
Y57322D03*
Y57007D03*
Y56692D03*
X61653Y60157D03*
Y59842D03*
Y59527D03*
Y59212D03*
Y58897D03*
Y58582D03*
Y58267D03*
Y57952D03*
Y57637D03*
Y57322D03*
Y57007D03*
Y56692D03*
X52244Y66653D03*
Y66968D03*
Y67283D03*
Y67598D03*
Y67913D03*
Y68228D03*
Y68543D03*
Y68858D03*
Y69173D03*
Y69488D03*
Y69803D03*
Y70118D03*
X52559Y66653D03*
Y66968D03*
Y67283D03*
Y67598D03*
Y67913D03*
Y68228D03*
Y68543D03*
Y68858D03*
Y69173D03*
Y69488D03*
Y69803D03*
Y70118D03*
X52874Y66653D03*
Y66968D03*
Y67283D03*
Y67598D03*
Y67913D03*
Y68228D03*
Y68543D03*
Y68858D03*
Y69173D03*
Y69488D03*
Y69803D03*
Y70118D03*
X53189Y66653D03*
Y66968D03*
Y67283D03*
Y67598D03*
Y67913D03*
Y68228D03*
Y68543D03*
Y68858D03*
Y69173D03*
Y69488D03*
Y69803D03*
Y70118D03*
X53504Y66653D03*
Y66968D03*
Y67283D03*
Y67598D03*
Y67913D03*
Y68228D03*
Y68543D03*
Y68858D03*
Y69173D03*
Y69488D03*
Y69803D03*
Y70118D03*
X53818Y66653D03*
Y66968D03*
Y67283D03*
Y67598D03*
Y67913D03*
Y68228D03*
Y68543D03*
Y68858D03*
Y69173D03*
Y69488D03*
Y69803D03*
Y70118D03*
X54133Y66653D03*
Y66968D03*
Y67283D03*
Y67598D03*
Y67913D03*
Y68228D03*
Y68543D03*
Y68858D03*
Y69173D03*
Y69488D03*
Y69803D03*
Y70118D03*
X54448Y66653D03*
Y66968D03*
Y67283D03*
Y67598D03*
Y67913D03*
Y68228D03*
Y68543D03*
Y68858D03*
Y69173D03*
Y69488D03*
Y69803D03*
Y70118D03*
X54763Y66653D03*
Y66968D03*
Y67283D03*
Y67598D03*
Y67913D03*
Y68228D03*
Y68543D03*
Y68858D03*
Y69173D03*
Y69488D03*
Y69803D03*
Y70118D03*
X55078Y66653D03*
Y66968D03*
Y67283D03*
Y67598D03*
Y67913D03*
Y68228D03*
Y68543D03*
Y68858D03*
Y69173D03*
Y69488D03*
Y69803D03*
Y70118D03*
X55393Y66653D03*
Y66968D03*
Y67283D03*
Y67598D03*
Y67913D03*
Y68228D03*
Y68543D03*
Y68858D03*
Y69173D03*
Y69488D03*
Y69803D03*
Y70118D03*
X55708Y66653D03*
Y66968D03*
Y67283D03*
Y67598D03*
Y67913D03*
Y68228D03*
Y68543D03*
Y68858D03*
Y69173D03*
Y69488D03*
Y69803D03*
Y70118D03*
X57244Y60157D03*
Y59842D03*
Y59527D03*
Y59212D03*
Y58897D03*
Y58582D03*
Y58267D03*
Y57952D03*
Y57637D03*
Y57322D03*
Y57007D03*
Y56692D03*
X56929Y60157D03*
Y59842D03*
Y59527D03*
Y59212D03*
Y58897D03*
Y58582D03*
Y58267D03*
Y57952D03*
Y57637D03*
Y57322D03*
Y57007D03*
Y56692D03*
X56614Y60157D03*
Y59842D03*
Y59527D03*
Y59212D03*
Y58897D03*
Y58582D03*
Y58267D03*
Y57952D03*
Y57637D03*
Y57322D03*
Y57007D03*
Y56692D03*
X56299Y60157D03*
Y59842D03*
Y59527D03*
Y59212D03*
Y58897D03*
Y58582D03*
Y58267D03*
Y57952D03*
Y57637D03*
Y57322D03*
Y57007D03*
Y56692D03*
X55984Y60157D03*
Y59842D03*
Y59527D03*
Y59212D03*
Y58897D03*
Y58582D03*
Y58267D03*
Y57952D03*
Y57637D03*
Y57322D03*
Y57007D03*
Y56692D03*
X55669Y60157D03*
Y59842D03*
Y59527D03*
Y59212D03*
Y58897D03*
Y58582D03*
Y58267D03*
Y57952D03*
Y57637D03*
Y57322D03*
Y57007D03*
Y56692D03*
X55354Y60157D03*
Y59842D03*
Y59527D03*
Y59212D03*
Y58897D03*
Y58582D03*
Y58267D03*
Y57952D03*
Y57637D03*
Y57322D03*
Y57007D03*
Y56692D03*
X55039Y60157D03*
Y59842D03*
Y59527D03*
Y59212D03*
Y58897D03*
Y58582D03*
Y58267D03*
Y57952D03*
Y57637D03*
Y57322D03*
Y57007D03*
Y56692D03*
X54724Y60157D03*
Y59842D03*
Y59527D03*
Y59212D03*
Y58897D03*
Y58582D03*
Y58267D03*
Y57952D03*
Y57637D03*
Y57322D03*
Y57007D03*
Y56692D03*
X54409Y60157D03*
Y59842D03*
Y59527D03*
Y59212D03*
Y58897D03*
Y58582D03*
Y58267D03*
Y57952D03*
Y57637D03*
Y57322D03*
Y57007D03*
Y56692D03*
X54094Y60157D03*
Y59842D03*
Y59527D03*
Y59212D03*
Y58897D03*
Y58582D03*
Y58267D03*
Y57952D03*
Y57637D03*
Y57322D03*
Y57007D03*
Y56692D03*
X53779Y60157D03*
Y59842D03*
Y59527D03*
Y59212D03*
Y58897D03*
Y58582D03*
Y58267D03*
Y57952D03*
Y57637D03*
Y57322D03*
Y57007D03*
Y56692D03*
X60118Y41929D03*
Y42244D03*
Y42559D03*
Y42874D03*
Y43189D03*
Y43503D03*
Y43818D03*
Y44133D03*
Y44448D03*
Y44763D03*
Y45078D03*
Y45393D03*
X60433Y41929D03*
Y42244D03*
Y42559D03*
Y42874D03*
Y43189D03*
Y43503D03*
Y43818D03*
Y44133D03*
Y44448D03*
Y44763D03*
Y45078D03*
Y45393D03*
X60748Y41929D03*
Y42244D03*
Y42559D03*
Y42874D03*
Y43189D03*
Y43503D03*
Y43818D03*
Y44133D03*
Y44448D03*
Y44763D03*
Y45078D03*
Y45393D03*
X61063Y41929D03*
Y42244D03*
Y42559D03*
Y42874D03*
Y43189D03*
Y43503D03*
Y43818D03*
Y44133D03*
Y44448D03*
Y44763D03*
Y45078D03*
Y45393D03*
X61378Y41929D03*
Y42244D03*
Y42559D03*
Y42874D03*
Y43189D03*
Y43503D03*
Y43818D03*
Y44133D03*
Y44448D03*
Y44763D03*
Y45078D03*
Y45393D03*
X61692Y41929D03*
Y42244D03*
Y42559D03*
Y42874D03*
Y43189D03*
Y43503D03*
Y43818D03*
Y44133D03*
Y44448D03*
Y44763D03*
Y45078D03*
Y45393D03*
X62007Y41929D03*
Y42244D03*
Y42559D03*
Y42874D03*
Y43189D03*
Y43503D03*
Y43818D03*
Y44133D03*
Y44448D03*
Y44763D03*
Y45078D03*
Y45393D03*
X62322Y41929D03*
Y42244D03*
Y42559D03*
Y42874D03*
Y43189D03*
Y43503D03*
Y43818D03*
Y44133D03*
Y44448D03*
Y44763D03*
Y45078D03*
Y45393D03*
X62637Y41929D03*
Y42244D03*
Y42559D03*
Y42874D03*
Y43189D03*
Y43503D03*
Y43818D03*
Y44133D03*
Y44448D03*
Y44763D03*
Y45078D03*
Y45393D03*
X62952Y41929D03*
Y42244D03*
Y42559D03*
Y42874D03*
Y43189D03*
Y43503D03*
Y43818D03*
Y44133D03*
Y44448D03*
Y44763D03*
Y45078D03*
Y45393D03*
X63267Y41929D03*
Y42244D03*
Y42559D03*
Y42874D03*
Y43189D03*
Y43503D03*
Y43818D03*
Y44133D03*
Y44448D03*
Y44763D03*
Y45078D03*
Y45393D03*
X63582Y41929D03*
Y42244D03*
Y42559D03*
Y42874D03*
Y43189D03*
Y43503D03*
Y43818D03*
Y44133D03*
Y44448D03*
Y44763D03*
Y45078D03*
Y45393D03*
X65118Y35433D03*
Y35118D03*
Y34803D03*
Y34488D03*
Y34173D03*
Y33858D03*
Y33543D03*
Y33228D03*
Y32913D03*
Y32598D03*
Y32283D03*
Y31968D03*
X64803Y35433D03*
Y35118D03*
Y34803D03*
Y34488D03*
Y34173D03*
Y33858D03*
Y33543D03*
Y33228D03*
Y32913D03*
Y32598D03*
Y32283D03*
Y31968D03*
X64488Y35433D03*
Y35118D03*
Y34803D03*
Y34488D03*
Y34173D03*
Y33858D03*
Y33543D03*
Y33228D03*
Y32913D03*
Y32598D03*
Y32283D03*
Y31968D03*
X64173Y35433D03*
Y35118D03*
Y34803D03*
Y34488D03*
Y34173D03*
Y33858D03*
Y33543D03*
Y33228D03*
Y32913D03*
Y32598D03*
Y32283D03*
Y31968D03*
X63858Y35433D03*
Y35118D03*
Y34803D03*
Y34488D03*
Y34173D03*
Y33858D03*
Y33543D03*
Y33228D03*
Y32913D03*
Y32598D03*
Y32283D03*
Y31968D03*
X63543Y35433D03*
Y35118D03*
Y34803D03*
Y34488D03*
Y34173D03*
Y33858D03*
Y33543D03*
Y33228D03*
Y32913D03*
Y32598D03*
Y32283D03*
Y31968D03*
X63228Y35433D03*
Y35118D03*
Y34803D03*
Y34488D03*
Y34173D03*
Y33858D03*
Y33543D03*
Y33228D03*
Y32913D03*
Y32598D03*
Y32283D03*
Y31968D03*
X62913Y35433D03*
Y35118D03*
Y34803D03*
Y34488D03*
Y34173D03*
Y33858D03*
Y33543D03*
Y33228D03*
Y32913D03*
Y32598D03*
Y32283D03*
Y31968D03*
X62598Y35433D03*
Y35118D03*
Y34803D03*
Y34488D03*
Y34173D03*
Y33858D03*
Y33543D03*
Y33228D03*
Y32913D03*
Y32598D03*
Y32283D03*
Y31968D03*
X62283Y35433D03*
Y35118D03*
Y34803D03*
Y34488D03*
Y34173D03*
Y33858D03*
Y33543D03*
Y33228D03*
Y32913D03*
Y32598D03*
Y32283D03*
Y31968D03*
X61968Y35433D03*
Y35118D03*
Y34803D03*
Y34488D03*
Y34173D03*
Y33858D03*
Y33543D03*
Y33228D03*
Y32913D03*
Y32598D03*
Y32283D03*
Y31968D03*
X61653Y35433D03*
Y35118D03*
Y34803D03*
Y34488D03*
Y34173D03*
Y33858D03*
Y33543D03*
Y33228D03*
Y32913D03*
Y32598D03*
Y32283D03*
Y31968D03*
X67992Y41929D03*
Y42244D03*
Y42559D03*
Y42874D03*
Y43189D03*
Y43503D03*
Y43818D03*
Y44133D03*
Y44448D03*
Y44763D03*
Y45078D03*
Y45393D03*
X68307Y41929D03*
Y42244D03*
Y42559D03*
Y42874D03*
Y43189D03*
Y43503D03*
Y43818D03*
Y44133D03*
Y44448D03*
Y44763D03*
Y45078D03*
Y45393D03*
X68622Y41929D03*
Y42244D03*
Y42559D03*
Y42874D03*
Y43189D03*
Y43503D03*
Y43818D03*
Y44133D03*
Y44448D03*
Y44763D03*
Y45078D03*
Y45393D03*
X68937Y41929D03*
Y42244D03*
Y42559D03*
Y42874D03*
Y43189D03*
Y43503D03*
Y43818D03*
Y44133D03*
Y44448D03*
Y44763D03*
Y45078D03*
Y45393D03*
X69252Y41929D03*
Y42244D03*
Y42559D03*
Y42874D03*
Y43189D03*
Y43503D03*
Y43818D03*
Y44133D03*
Y44448D03*
Y44763D03*
Y45078D03*
Y45393D03*
X69566Y41929D03*
Y42244D03*
Y42559D03*
Y42874D03*
Y43189D03*
Y43503D03*
Y43818D03*
Y44133D03*
Y44448D03*
Y44763D03*
Y45078D03*
Y45393D03*
X69881Y41929D03*
Y42244D03*
Y42559D03*
Y42874D03*
Y43189D03*
Y43503D03*
Y43818D03*
Y44133D03*
Y44448D03*
Y44763D03*
Y45078D03*
Y45393D03*
X70196Y41929D03*
Y42244D03*
Y42559D03*
Y42874D03*
Y43189D03*
Y43503D03*
Y43818D03*
Y44133D03*
Y44448D03*
Y44763D03*
Y45078D03*
Y45393D03*
X70511Y41929D03*
Y42244D03*
Y42559D03*
Y42874D03*
Y43189D03*
Y43503D03*
Y43818D03*
Y44133D03*
Y44448D03*
Y44763D03*
Y45078D03*
Y45393D03*
X70826Y41929D03*
Y42244D03*
Y42559D03*
Y42874D03*
Y43189D03*
Y43503D03*
Y43818D03*
Y44133D03*
Y44448D03*
Y44763D03*
Y45078D03*
Y45393D03*
X71141Y41929D03*
Y42244D03*
Y42559D03*
Y42874D03*
Y43189D03*
Y43503D03*
Y43818D03*
Y44133D03*
Y44448D03*
Y44763D03*
Y45078D03*
Y45393D03*
X71456Y41929D03*
Y42244D03*
Y42559D03*
Y42874D03*
Y43189D03*
Y43503D03*
Y43818D03*
Y44133D03*
Y44448D03*
Y44763D03*
Y45078D03*
Y45393D03*
X72992Y35433D03*
Y35118D03*
Y34803D03*
Y34488D03*
Y34173D03*
Y33858D03*
Y33543D03*
Y33228D03*
Y32913D03*
Y32598D03*
Y32283D03*
Y31968D03*
X72677Y35433D03*
Y35118D03*
Y34803D03*
Y34488D03*
Y34173D03*
Y33858D03*
Y33543D03*
Y33228D03*
Y32913D03*
Y32598D03*
Y32283D03*
Y31968D03*
X72362Y35433D03*
Y35118D03*
Y34803D03*
Y34488D03*
Y34173D03*
Y33858D03*
Y33543D03*
Y33228D03*
Y32913D03*
Y32598D03*
Y32283D03*
Y31968D03*
X72047Y35433D03*
Y35118D03*
Y34803D03*
Y34488D03*
Y34173D03*
Y33858D03*
Y33543D03*
Y33228D03*
Y32913D03*
Y32598D03*
Y32283D03*
Y31968D03*
X71732Y35433D03*
Y35118D03*
Y34803D03*
Y34488D03*
Y34173D03*
Y33858D03*
Y33543D03*
Y33228D03*
Y32913D03*
Y32598D03*
Y32283D03*
Y31968D03*
X71417Y35433D03*
Y35118D03*
Y34803D03*
Y34488D03*
Y34173D03*
Y33858D03*
Y33543D03*
Y33228D03*
Y32913D03*
Y32598D03*
Y32283D03*
Y31968D03*
X71102Y35433D03*
Y35118D03*
Y34803D03*
Y34488D03*
Y34173D03*
Y33858D03*
Y33543D03*
Y33228D03*
Y32913D03*
Y32598D03*
Y32283D03*
Y31968D03*
X70787Y35433D03*
Y35118D03*
Y34803D03*
Y34488D03*
Y34173D03*
Y33858D03*
Y33543D03*
Y33228D03*
Y32913D03*
Y32598D03*
Y32283D03*
Y31968D03*
X70472Y35433D03*
Y35118D03*
Y34803D03*
Y34488D03*
Y34173D03*
Y33858D03*
Y33543D03*
Y33228D03*
Y32913D03*
Y32598D03*
Y32283D03*
Y31968D03*
X70157Y35433D03*
Y35118D03*
Y34803D03*
Y34488D03*
Y34173D03*
Y33858D03*
Y33543D03*
Y33228D03*
Y32913D03*
Y32598D03*
Y32283D03*
Y31968D03*
X69842Y35433D03*
Y35118D03*
Y34803D03*
Y34488D03*
Y34173D03*
Y33858D03*
Y33543D03*
Y33228D03*
Y32913D03*
Y32598D03*
Y32283D03*
Y31968D03*
X69527Y35433D03*
Y35118D03*
Y34803D03*
Y34488D03*
Y34173D03*
Y33858D03*
Y33543D03*
Y33228D03*
Y32913D03*
Y32598D03*
Y32283D03*
Y31968D03*
X75866Y41929D03*
Y42244D03*
Y42559D03*
Y42874D03*
Y43189D03*
Y43503D03*
Y43818D03*
Y44133D03*
Y44448D03*
Y44763D03*
Y45078D03*
Y45393D03*
X76181Y41929D03*
Y42244D03*
Y42559D03*
Y42874D03*
Y43189D03*
Y43503D03*
Y43818D03*
Y44133D03*
Y44448D03*
Y44763D03*
Y45078D03*
Y45393D03*
X76496Y41929D03*
Y42244D03*
Y42559D03*
Y42874D03*
Y43189D03*
Y43503D03*
Y43818D03*
Y44133D03*
Y44448D03*
Y44763D03*
Y45078D03*
Y45393D03*
X76811Y41929D03*
Y42244D03*
Y42559D03*
Y42874D03*
Y43189D03*
Y43503D03*
Y43818D03*
Y44133D03*
Y44448D03*
Y44763D03*
Y45078D03*
Y45393D03*
X77126Y41929D03*
Y42244D03*
Y42559D03*
Y42874D03*
Y43189D03*
Y43503D03*
Y43818D03*
Y44133D03*
Y44448D03*
Y44763D03*
Y45078D03*
Y45393D03*
X77440Y41929D03*
Y42244D03*
Y42559D03*
Y42874D03*
Y43189D03*
Y43503D03*
Y43818D03*
Y44133D03*
Y44448D03*
Y44763D03*
Y45078D03*
Y45393D03*
X77755Y41929D03*
Y42244D03*
Y42559D03*
Y42874D03*
Y43189D03*
Y43503D03*
Y43818D03*
Y44133D03*
Y44448D03*
Y44763D03*
Y45078D03*
Y45393D03*
X78070Y41929D03*
Y42244D03*
Y42559D03*
Y42874D03*
Y43189D03*
Y43503D03*
Y43818D03*
Y44133D03*
Y44448D03*
Y44763D03*
Y45078D03*
Y45393D03*
X78385Y41929D03*
Y42244D03*
Y42559D03*
Y42874D03*
Y43189D03*
Y43503D03*
Y43818D03*
Y44133D03*
Y44448D03*
Y44763D03*
Y45078D03*
Y45393D03*
X78700Y41929D03*
Y42244D03*
Y42559D03*
Y42874D03*
Y43189D03*
Y43503D03*
Y43818D03*
Y44133D03*
Y44448D03*
Y44763D03*
Y45078D03*
Y45393D03*
X79015Y41929D03*
Y42244D03*
Y42559D03*
Y42874D03*
Y43189D03*
Y43503D03*
Y43818D03*
Y44133D03*
Y44448D03*
Y44763D03*
Y45078D03*
Y45393D03*
X79330Y41929D03*
Y42244D03*
Y42559D03*
Y42874D03*
Y43189D03*
Y43503D03*
Y43818D03*
Y44133D03*
Y44448D03*
Y44763D03*
Y45078D03*
Y45393D03*
X80866Y35433D03*
Y35118D03*
Y34803D03*
Y34488D03*
Y34173D03*
Y33858D03*
Y33543D03*
Y33228D03*
Y32913D03*
Y32598D03*
Y32283D03*
Y31968D03*
X80551Y35433D03*
Y35118D03*
Y34803D03*
Y34488D03*
Y34173D03*
Y33858D03*
Y33543D03*
Y33228D03*
Y32913D03*
Y32598D03*
Y32283D03*
Y31968D03*
X80236Y35433D03*
Y35118D03*
Y34803D03*
Y34488D03*
Y34173D03*
Y33858D03*
Y33543D03*
Y33228D03*
Y32913D03*
Y32598D03*
Y32283D03*
Y31968D03*
X79921Y35433D03*
Y35118D03*
Y34803D03*
Y34488D03*
Y34173D03*
Y33858D03*
Y33543D03*
Y33228D03*
Y32913D03*
Y32598D03*
Y32283D03*
Y31968D03*
X79606Y35433D03*
Y35118D03*
Y34803D03*
Y34488D03*
Y34173D03*
Y33858D03*
Y33543D03*
Y33228D03*
Y32913D03*
Y32598D03*
Y32283D03*
Y31968D03*
X79291Y35433D03*
Y35118D03*
Y34803D03*
Y34488D03*
Y34173D03*
Y33858D03*
Y33543D03*
Y33228D03*
Y32913D03*
Y32598D03*
Y32283D03*
Y31968D03*
X78976Y35433D03*
Y35118D03*
Y34803D03*
Y34488D03*
Y34173D03*
Y33858D03*
Y33543D03*
Y33228D03*
Y32913D03*
Y32598D03*
Y32283D03*
Y31968D03*
X78661Y35433D03*
Y35118D03*
Y34803D03*
Y34488D03*
Y34173D03*
Y33858D03*
Y33543D03*
Y33228D03*
Y32913D03*
Y32598D03*
Y32283D03*
Y31968D03*
X78346Y35433D03*
Y35118D03*
Y34803D03*
Y34488D03*
Y34173D03*
Y33858D03*
Y33543D03*
Y33228D03*
Y32913D03*
Y32598D03*
Y32283D03*
Y31968D03*
X78031Y35433D03*
Y35118D03*
Y34803D03*
Y34488D03*
Y34173D03*
Y33858D03*
Y33543D03*
Y33228D03*
Y32913D03*
Y32598D03*
Y32283D03*
Y31968D03*
X77716Y35433D03*
Y35118D03*
Y34803D03*
Y34488D03*
Y34173D03*
Y33858D03*
Y33543D03*
Y33228D03*
Y32913D03*
Y32598D03*
Y32283D03*
Y31968D03*
X77401Y35433D03*
Y35118D03*
Y34803D03*
Y34488D03*
Y34173D03*
Y33858D03*
Y33543D03*
Y33228D03*
Y32913D03*
Y32598D03*
Y32283D03*
Y31968D03*
G54D286*
X88996Y42287D03*
Y44087D03*
X83496Y35087D03*
Y33287D03*
X96870Y42287D03*
Y44087D03*
X91370Y35087D03*
Y33287D03*
X104744Y42287D03*
Y44087D03*
X99244Y35087D03*
Y33287D03*
X112618Y42287D03*
Y44087D03*
X107118Y35087D03*
Y33287D03*
X112618Y67011D03*
Y68811D03*
X107118Y59811D03*
Y58011D03*
X104744Y67011D03*
Y68811D03*
X57500Y42287D03*
Y44087D03*
X99244Y59811D03*
Y58011D03*
X96870Y67011D03*
Y68811D03*
X91370Y59811D03*
Y58011D03*
X88996Y67011D03*
Y68811D03*
X83496Y59811D03*
Y58011D03*
X81122Y67011D03*
Y68811D03*
X75622Y59811D03*
Y58011D03*
X73248Y67011D03*
Y68811D03*
X67748Y59811D03*
Y58011D03*
X65374Y67011D03*
Y68811D03*
X52000Y35087D03*
Y33287D03*
X59874Y59811D03*
Y58011D03*
X57500Y67011D03*
Y68811D03*
X52000Y59811D03*
Y58011D03*
X65374Y42287D03*
Y44087D03*
X59874Y35087D03*
Y33287D03*
X73248Y42287D03*
Y44087D03*
X67748Y35087D03*
Y33287D03*
X81122Y42287D03*
Y44087D03*
X75622Y35087D03*
Y33287D03*
G54D287*
X89246Y48820D03*
X88246D03*
Y48053D03*
X89246D03*
X83246Y28553D03*
X84246D03*
Y29320D03*
X83246D03*
X97120Y48820D03*
X96120D03*
Y48053D03*
X97120D03*
X91120Y28553D03*
X92120D03*
Y29320D03*
X91120D03*
X104994Y48820D03*
X103994D03*
Y48053D03*
X104994D03*
X98994Y28553D03*
X99994D03*
Y29320D03*
X98994D03*
X112868Y48820D03*
X111868D03*
Y48053D03*
X112868D03*
X106868Y28553D03*
X107868D03*
Y29320D03*
X106868D03*
X112868Y73545D03*
X111868D03*
Y72777D03*
X112868D03*
X106868Y53277D03*
X107868D03*
Y54045D03*
X106868D03*
X104994Y73545D03*
X103994D03*
Y72777D03*
X104994D03*
X57750Y48820D03*
X56750D03*
Y48053D03*
X57750D03*
X98994Y53277D03*
X99994D03*
Y54045D03*
X98994D03*
X97120Y73545D03*
X96120D03*
Y72777D03*
X97120D03*
X91120Y53277D03*
X92120D03*
Y54045D03*
X91120D03*
X89246Y73545D03*
X88246D03*
Y72777D03*
X89246D03*
X83246Y53277D03*
X84246D03*
Y54045D03*
X83246D03*
X81372Y73545D03*
X80372D03*
Y72777D03*
X81372D03*
X75372Y53277D03*
X76372D03*
Y54045D03*
X75372D03*
X73498Y73545D03*
X72498D03*
Y72777D03*
X73498D03*
X67498Y53277D03*
X68498D03*
Y54045D03*
X67498D03*
X65624Y73545D03*
X64624D03*
Y72777D03*
X65624D03*
X51750Y28553D03*
X52750D03*
Y29320D03*
X51750D03*
X59624Y53277D03*
X60624D03*
Y54045D03*
X59624D03*
X57750Y73545D03*
X56750D03*
Y72777D03*
X57750D03*
X51750Y53291D03*
X52750D03*
Y54058D03*
X51750D03*
X65624Y48820D03*
X64624D03*
Y48053D03*
X65624D03*
X59624Y28553D03*
X60624D03*
Y29320D03*
X59624D03*
X73498Y48820D03*
X72498D03*
Y48053D03*
X73498D03*
X67498Y28553D03*
X68498D03*
Y29320D03*
X67498D03*
X81372Y48820D03*
X80372D03*
Y48053D03*
X81372D03*
X75372Y28553D03*
X76372D03*
Y29320D03*
X75372D03*
G54D289*
X89396Y45312D03*
X88596D03*
X83096Y32062D03*
X83896D03*
X97270Y45312D03*
X96470D03*
X90970Y32062D03*
X91770D03*
X105144Y45312D03*
X104344D03*
X98844Y32062D03*
X99644D03*
X113018Y45312D03*
X112218D03*
X106718Y32062D03*
X107518D03*
X113018Y70036D03*
X112218D03*
X106718Y56786D03*
X107518D03*
X105144Y70036D03*
X104344D03*
X57900Y45312D03*
X57100D03*
X98844Y56786D03*
X99644D03*
X97270Y70036D03*
X96470D03*
X90970Y56786D03*
X91770D03*
X89396Y70036D03*
X88596D03*
X83096Y56786D03*
X83896D03*
X81522Y70036D03*
X80722D03*
X75222Y56786D03*
X76022D03*
X73648Y70036D03*
X72848D03*
X67348Y56786D03*
X68148D03*
X65774Y70036D03*
X64974D03*
X51600Y32062D03*
X52400D03*
X59474Y56786D03*
X60274D03*
X57900Y70036D03*
X57100D03*
X51600Y56786D03*
X52400D03*
X65774Y45312D03*
X64974D03*
X59474Y32062D03*
X60274D03*
X73648Y45312D03*
X72848D03*
X67348Y32062D03*
X68148D03*
X81522Y45312D03*
X80722D03*
X75222Y32062D03*
X76022D03*
G54D290*
X84877Y47311D03*
X84621D03*
X84365D03*
Y46563D03*
X84621D03*
X84877D03*
X86430Y47299D03*
X86175D03*
X85919D03*
Y46551D03*
X86175D03*
X86430D03*
X87615Y30063D03*
X87871D03*
X88127D03*
Y30811D03*
X87871D03*
X87615D03*
X86069Y30051D03*
X86325D03*
X86580D03*
Y30799D03*
X86325D03*
X86069D03*
X92751Y47311D03*
X92495D03*
X92239D03*
Y46563D03*
X92495D03*
X92751D03*
X94305Y47299D03*
X94050D03*
X93794D03*
Y46551D03*
X94050D03*
X94305D03*
X95489Y30063D03*
X95745D03*
X96001D03*
Y30811D03*
X95745D03*
X95489D03*
X93944Y30051D03*
X94200D03*
X94455D03*
Y30799D03*
X94200D03*
X93944D03*
X100625Y47311D03*
X100369D03*
X100113D03*
Y46563D03*
X100369D03*
X100625D03*
X102180Y47299D03*
X101925D03*
X101669D03*
Y46551D03*
X101925D03*
X102180D03*
X103363Y30063D03*
X103619D03*
X103875D03*
Y30811D03*
X103619D03*
X103363D03*
X101819Y30051D03*
X102075D03*
X102330D03*
Y30799D03*
X102075D03*
X101819D03*
X108499Y47311D03*
X108243D03*
X107987D03*
Y46563D03*
X108243D03*
X108499D03*
X110055Y47299D03*
X109800D03*
X109544D03*
Y46551D03*
X109800D03*
X110055D03*
X111237Y30063D03*
X111493D03*
X111749D03*
Y30811D03*
X111493D03*
X111237D03*
X109694Y30051D03*
X109950D03*
X110205D03*
Y30799D03*
X109950D03*
X109694D03*
X108499Y72035D03*
X108243D03*
X107987D03*
Y71287D03*
X108243D03*
X108499D03*
X110055Y72024D03*
X109800D03*
X109544D03*
Y71276D03*
X109800D03*
X110055D03*
X111237Y54787D03*
X111493D03*
X111749D03*
Y55535D03*
X111493D03*
X111237D03*
X109694Y54776D03*
X109950D03*
X110205D03*
Y55524D03*
X109950D03*
X109694D03*
X100625Y72035D03*
X100369D03*
X100113D03*
Y71287D03*
X100369D03*
X100625D03*
X102180Y72024D03*
X101925D03*
X101669D03*
Y71276D03*
X101925D03*
X102180D03*
X53380Y47311D03*
X53125D03*
X52869D03*
Y46563D03*
X53125D03*
X53380D03*
X54930Y47299D03*
X54675D03*
X54419D03*
Y46551D03*
X54675D03*
X54930D03*
X103363Y54787D03*
X103619D03*
X103875D03*
Y55535D03*
X103619D03*
X103363D03*
X101819Y54776D03*
X102075D03*
X102330D03*
Y55524D03*
X102075D03*
X101819D03*
X92751Y72035D03*
X92495D03*
X92239D03*
Y71287D03*
X92495D03*
X92751D03*
X94305Y72024D03*
X94050D03*
X93794D03*
Y71276D03*
X94050D03*
X94305D03*
X95489Y54787D03*
X95745D03*
X96001D03*
Y55535D03*
X95745D03*
X95489D03*
X93944Y54776D03*
X94200D03*
X94455D03*
Y55524D03*
X94200D03*
X93944D03*
X84877Y72035D03*
X84621D03*
X84365D03*
Y71287D03*
X84621D03*
X84877D03*
X86405Y72024D03*
X86150D03*
X85894D03*
Y71276D03*
X86150D03*
X86405D03*
X87615Y54787D03*
X87871D03*
X88127D03*
Y55535D03*
X87871D03*
X87615D03*
X86069Y54776D03*
X86325D03*
X86580D03*
Y55524D03*
X86325D03*
X86069D03*
X77002Y72035D03*
X76747D03*
X76491D03*
Y71287D03*
X76747D03*
X77002D03*
X78530Y72024D03*
X78275D03*
X78019D03*
Y71276D03*
X78275D03*
X78530D03*
X79741Y54787D03*
X79997D03*
X80252D03*
Y55535D03*
X79997D03*
X79741D03*
X78194Y54776D03*
X78450D03*
X78705D03*
Y55524D03*
X78450D03*
X78194D03*
X69128Y72035D03*
X68873D03*
X68617D03*
Y71287D03*
X68873D03*
X69128D03*
X70680Y72024D03*
X70425D03*
X70169D03*
Y71276D03*
X70425D03*
X70680D03*
X71867Y54787D03*
X72123D03*
X72378D03*
Y55535D03*
X72123D03*
X71867D03*
X70319Y54776D03*
X70575D03*
X70830D03*
Y55524D03*
X70575D03*
X70319D03*
X61254Y72035D03*
X60999D03*
X60743D03*
Y71287D03*
X60999D03*
X61254D03*
X62780Y72024D03*
X62525D03*
X62269D03*
Y71276D03*
X62525D03*
X62780D03*
X56119Y30063D03*
X56375D03*
X56630D03*
Y30811D03*
X56375D03*
X56119D03*
X54569Y30051D03*
X54825D03*
X55080D03*
Y30799D03*
X54825D03*
X54569D03*
X63993Y54787D03*
X64249D03*
X64504D03*
Y55535D03*
X64249D03*
X63993D03*
X62444Y54776D03*
X62700D03*
X62955D03*
Y55524D03*
X62700D03*
X62444D03*
X53380Y72035D03*
X53125D03*
X52869D03*
Y71287D03*
X53125D03*
X53380D03*
X54880Y71999D03*
X54625D03*
X54369D03*
Y71251D03*
X54625D03*
X54880D03*
X56119Y54787D03*
X56375D03*
X56630D03*
Y55535D03*
X56375D03*
X56119D03*
X54594Y54801D03*
X54850D03*
X55105D03*
Y55549D03*
X54850D03*
X54594D03*
X61254Y47311D03*
X60999D03*
X60743D03*
Y46563D03*
X60999D03*
X61254D03*
X62805Y47299D03*
X62550D03*
X62294D03*
Y46551D03*
X62550D03*
X62805D03*
X63993Y30063D03*
X64249D03*
X64504D03*
Y30811D03*
X64249D03*
X63993D03*
X62444Y30051D03*
X62700D03*
X62955D03*
Y30799D03*
X62700D03*
X62444D03*
X69128Y47311D03*
X68873D03*
X68617D03*
Y46563D03*
X68873D03*
X69128D03*
X70680Y47299D03*
X70425D03*
X70169D03*
Y46551D03*
X70425D03*
X70680D03*
X71867Y30063D03*
X72123D03*
X72378D03*
Y30811D03*
X72123D03*
X71867D03*
X70319Y30051D03*
X70575D03*
X70830D03*
Y30799D03*
X70575D03*
X70319D03*
X77002Y47311D03*
X76747D03*
X76491D03*
Y46563D03*
X76747D03*
X77002D03*
X78555Y47299D03*
X78300D03*
X78044D03*
Y46551D03*
X78300D03*
X78555D03*
X79741Y30063D03*
X79997D03*
X80252D03*
Y30811D03*
X79997D03*
X79741D03*
X78194Y30051D03*
X78450D03*
X78705D03*
Y30799D03*
X78450D03*
X78194D03*
G54D291*
X21866Y37250D03*
Y36250D03*
X22633D03*
Y37250D03*
X21866Y39250D03*
Y38250D03*
X22633D03*
Y39250D03*
G54D293*
X35450Y44750D03*
X35050D03*
X31750Y45050D03*
Y45450D03*
X30925Y25375D03*
X31325D03*
X30925Y26125D03*
X31325D03*
G54D294*
X25760Y25500D03*
X27240D03*
G54D295*
X41050Y73830D03*
X41550D03*
X42050D03*
X42550D03*
Y76070D03*
X42050D03*
X41550D03*
X41050D03*
X31000Y73817D03*
X31500D03*
X32000D03*
X32500D03*
Y76057D03*
X32000D03*
X31500D03*
X31000D03*
G54D296*
X38130Y71687D03*
Y71187D03*
Y70687D03*
Y70187D03*
X40370D03*
Y70687D03*
Y71187D03*
Y71687D03*
X33620Y70187D03*
Y70687D03*
Y71187D03*
Y71687D03*
X31380D03*
Y71187D03*
Y70687D03*
Y70187D03*
G54D297*
X28626Y35255D03*
Y35000D03*
Y34744D03*
X29374D03*
Y35000D03*
Y35255D03*
X43876Y25505D03*
Y25250D03*
Y24994D03*
X44624D03*
Y25250D03*
Y25505D03*
X28626Y40130D03*
Y39875D03*
Y39619D03*
X29374D03*
Y39875D03*
Y40130D03*
X30626D03*
Y39875D03*
Y39619D03*
X31374D03*
Y39875D03*
Y40130D03*
X43876Y27005D03*
Y26750D03*
Y26494D03*
X44624D03*
Y26750D03*
Y27005D03*
X41876D03*
Y26750D03*
Y26494D03*
X42624D03*
Y26750D03*
Y27005D03*
X41876Y25505D03*
Y25250D03*
Y24994D03*
X42624D03*
Y25250D03*
Y25505D03*
X30626Y35255D03*
Y35000D03*
Y34744D03*
X31374D03*
Y35000D03*
Y35255D03*
X32626D03*
Y35000D03*
Y34744D03*
X33374D03*
Y35000D03*
Y35255D03*
X34626D03*
Y35000D03*
Y34744D03*
X35374D03*
Y35000D03*
Y35255D03*
G54D298*
X24690Y38250D03*
Y37750D03*
Y37250D03*
Y36750D03*
Y36250D03*
Y35750D03*
Y35250D03*
Y34750D03*
X26810D03*
Y35250D03*
Y35750D03*
Y36250D03*
Y36750D03*
Y37250D03*
Y37750D03*
Y38250D03*
X24690Y44750D03*
Y44250D03*
Y43750D03*
Y43250D03*
Y42750D03*
Y42250D03*
Y41750D03*
Y41250D03*
X26810D03*
Y41750D03*
Y42250D03*
Y42750D03*
Y43250D03*
Y43750D03*
Y44250D03*
Y44750D03*
G54D299*
X24387Y27195D03*
X24584D03*
X24781D03*
X24978D03*
X25175D03*
X25372D03*
X25568D03*
X25765D03*
X25962D03*
X26159D03*
X26356D03*
X26553D03*
X26750D03*
X26946D03*
X27143D03*
X27340D03*
X27537D03*
X27734D03*
X27931D03*
X28128D03*
X28324D03*
X28521D03*
X28718D03*
X28915D03*
X29112D03*
Y33305D03*
X28915D03*
X28718D03*
X28521D03*
X28324D03*
X28128D03*
X27931D03*
X27734D03*
X27537D03*
X27340D03*
X27143D03*
X26946D03*
X26750D03*
X26553D03*
X26356D03*
X26159D03*
X25962D03*
X25765D03*
X25568D03*
X25372D03*
X25175D03*
X24978D03*
X24781D03*
X24584D03*
X24387D03*
G54D300*
X29805Y27887D03*
Y28084D03*
Y28281D03*
Y28478D03*
Y28675D03*
Y28872D03*
Y29068D03*
Y29265D03*
Y29462D03*
Y29659D03*
Y29856D03*
Y30053D03*
Y30250D03*
Y30446D03*
Y30643D03*
Y30840D03*
Y31037D03*
Y31234D03*
Y31431D03*
Y31628D03*
Y31824D03*
Y32021D03*
Y32218D03*
Y32415D03*
Y32612D03*
X23695D03*
Y32415D03*
Y32218D03*
Y32021D03*
Y31824D03*
Y31628D03*
Y31431D03*
Y31234D03*
Y31037D03*
Y30840D03*
Y30643D03*
Y30446D03*
Y30250D03*
Y30053D03*
Y29856D03*
Y29659D03*
Y29462D03*
Y29265D03*
Y29068D03*
Y28872D03*
Y28675D03*
Y28478D03*
Y28281D03*
Y28084D03*
Y27887D03*
G54D303*
X46350Y26437D03*
X48150D03*
G54D304*
X33366Y31755D03*
Y31500D03*
Y31244D03*
X34133D03*
Y31499D03*
Y31755D03*
X33366Y33505D03*
Y33250D03*
Y32994D03*
X34133D03*
Y33249D03*
Y33505D03*
G54D305*
X33750Y31500D03*
Y33250D03*
G54D306*
X30670Y44954D03*
Y45151D03*
Y45348D03*
Y45545D03*
X29830D03*
Y45348D03*
Y45151D03*
Y44954D03*
G54D307*
X30250Y45250D03*
G54D308*
X30750Y68195D03*
Y64805D03*
X40875Y68195D03*
Y64805D03*
G54D309*
X47285Y92250D03*
X49215D03*
G54D310*
X87275Y46840D03*
Y47010D03*
X85225Y30510D03*
Y30340D03*
X95150Y46840D03*
Y47010D03*
X93100Y30510D03*
Y30340D03*
X103025Y46840D03*
Y47010D03*
X100975Y30510D03*
Y30340D03*
X110900Y46840D03*
Y47010D03*
X108850Y30510D03*
Y30340D03*
X110900Y71565D03*
Y71735D03*
X108850Y55235D03*
Y55065D03*
X103025Y71565D03*
Y71735D03*
X55775Y46840D03*
Y47010D03*
X100975Y55235D03*
Y55065D03*
X95150Y71565D03*
Y71735D03*
X93100Y55235D03*
Y55065D03*
X87275Y71565D03*
Y71735D03*
X85225Y55235D03*
Y55065D03*
X79400Y71565D03*
Y71735D03*
X77350Y55235D03*
Y55065D03*
X71525Y71565D03*
Y71735D03*
X69475Y55235D03*
Y55065D03*
X63625Y71565D03*
Y71735D03*
X53725Y30510D03*
Y30340D03*
X61600Y55235D03*
Y55065D03*
X55750Y71540D03*
Y71710D03*
X53750Y55260D03*
Y55090D03*
X63650Y46840D03*
Y47010D03*
X61600Y30510D03*
Y30340D03*
X71525Y46840D03*
Y47010D03*
X69475Y30510D03*
Y30340D03*
X79400Y46840D03*
Y47010D03*
X77350Y30510D03*
Y30340D03*
G54D351*
X87120Y48907D03*
X86746D03*
X86372D03*
Y47967D03*
X86746D03*
X87120D03*
X85372Y28467D03*
X85746D03*
X86120D03*
Y29407D03*
X85746D03*
X85372D03*
X94994Y48907D03*
X94620D03*
X94246D03*
Y47967D03*
X94620D03*
X94994D03*
X93246Y28467D03*
X93620D03*
X93994D03*
Y29407D03*
X93620D03*
X93246D03*
X102868Y48907D03*
X102494D03*
X102120D03*
Y47967D03*
X102494D03*
X102868D03*
X101120Y28467D03*
X101494D03*
X101868D03*
Y29407D03*
X101494D03*
X101120D03*
X110742Y48907D03*
X110368D03*
X109994D03*
Y47967D03*
X110368D03*
X110742D03*
X108994Y28467D03*
X109368D03*
X109742D03*
Y29407D03*
X109368D03*
X108994D03*
X110742Y73631D03*
X110368D03*
X109994D03*
Y72691D03*
X110368D03*
X110742D03*
X108994Y53191D03*
X109368D03*
X109742D03*
Y54131D03*
X109368D03*
X108994D03*
X102868Y73631D03*
X102494D03*
X102120D03*
Y72691D03*
X102494D03*
X102868D03*
X55624Y48907D03*
X55250D03*
X54876D03*
Y47967D03*
X55250D03*
X55624D03*
X101120Y53191D03*
X101494D03*
X101868D03*
Y54131D03*
X101494D03*
X101120D03*
X94994Y73631D03*
X94620D03*
X94246D03*
Y72691D03*
X94620D03*
X94994D03*
X93246Y53191D03*
X93620D03*
X93994D03*
Y54131D03*
X93620D03*
X93246D03*
X87120Y73631D03*
X86746D03*
X86372D03*
Y72691D03*
X86746D03*
X87120D03*
X85372Y53191D03*
X85746D03*
X86120D03*
Y54131D03*
X85746D03*
X85372D03*
X79246Y73631D03*
X78872D03*
X78498D03*
Y72691D03*
X78872D03*
X79246D03*
X77498Y53191D03*
X77872D03*
X78246D03*
Y54131D03*
X77872D03*
X77498D03*
X71372Y73631D03*
X70998D03*
X70624D03*
Y72691D03*
X70998D03*
X71372D03*
X69624Y53191D03*
X69998D03*
X70372D03*
Y54131D03*
X69998D03*
X69624D03*
X63498Y73631D03*
X63124D03*
X62750D03*
Y72691D03*
X63124D03*
X63498D03*
X53876Y28467D03*
X54250D03*
X54624D03*
Y29407D03*
X54250D03*
X53876D03*
X61750Y53191D03*
X62124D03*
X62498D03*
Y54131D03*
X62124D03*
X61750D03*
X55624Y73631D03*
X55250D03*
X54876D03*
Y72691D03*
X55250D03*
X55624D03*
X53876Y53191D03*
X54250D03*
X54624D03*
Y54131D03*
X54250D03*
X53876D03*
X63498Y48907D03*
X63124D03*
X62750D03*
Y47967D03*
X63124D03*
X63498D03*
X61750Y28467D03*
X62124D03*
X62498D03*
Y29407D03*
X62124D03*
X61750D03*
X71372Y48907D03*
X70998D03*
X70624D03*
Y47967D03*
X70998D03*
X71372D03*
X69624Y28467D03*
X69998D03*
X70372D03*
Y29407D03*
X69998D03*
X69624D03*
X79246Y48907D03*
X78872D03*
X78498D03*
Y47967D03*
X78872D03*
X79246D03*
X77498Y28467D03*
X77872D03*
X78246D03*
Y29407D03*
X77872D03*
X77498D03*
G54D352*
X34220Y29876D03*
Y30250D03*
Y30624D03*
X33280D03*
Y30250D03*
Y29876D03*
X49470Y84626D03*
Y85000D03*
Y85374D03*
X48530D03*
Y85000D03*
Y84626D03*
G74*
X0Y0D02*
M02*
