*
*
G04 PADS VX.2.2 Build Number: 9893964 generated Gerber (RS-274-X) file*
G04 PC Version=2.1*
*
%IN "SIAHashBd742901R0pcb.pc"*%
*
%MOIN*%
*
%FSLAX35Y35*%
*
*
*
*
G04 PC Standard Apertures*
*
*
G04 Thermal Relief Aperture macro.*
%AMTER*
1,1,$1,0,0*
1,0,$1-$2,0,0*
21,0,$3,$4,0,0,45*
21,0,$3,$4,0,0,135*
%
*
*
G04 Annular Aperture macro.*
%AMANN*
1,1,$1,0,0*
1,0,$2,0,0*
%
*
*
G04 Odd Aperture macro.*
%AMODD*
1,1,$1,0,0*
1,0,$1-0.005,0,0*
%
*
*
G04 PC Custom Aperture Macros*
*
*
*
*
*
*
G04 PC Aperture Table*
*
%ADD010C,0.001*%
%ADD012C,0.01*%
%ADD013C,0.008*%
%ADD015C,0.02*%
%ADD017C,0.007*%
%ADD069C,0.03*%
%ADD070C,0.012*%
%ADD071C,0.025*%
%ADD163C,0.01575*%
*
*
*
*
G04 PC Circuitry*
G04 Layer Name SIAHashBd742901R0pcb.pc - circuitry*
%LPD*%
*
*
G04 PC Custom Flashes*
G04 Layer Name SIAHashBd742901R0pcb.pc - flashes*
%LPD*%
*
*
G04 PC Circuitry*
G04 Layer Name SIAHashBd742901R0pcb.pc - circuitry*
%LPD*%
*
G54D10*
G54D12*
G01X1591232Y1314518D02*
Y1307955D01*
X1593960*
X1597823Y1314518D02*
X1596005Y1307955D01*
X1597823Y1314518D02*
X1599641Y1307955D01*
X1596687Y1310143D02*
X1598960D01*
X1601687Y1314518D02*
X1603505Y1311393D01*
Y1307955*
X1605323Y1314518D02*
X1603505Y1311393D01*
X1607369Y1314518D02*
Y1307955D01*
Y1314518D02*
X1610323D01*
X1607369Y1311393D02*
X1609187D01*
X1607369Y1307955D02*
X1610323D01*
X1612369Y1314518D02*
Y1307955D01*
Y1314518D02*
X1614414D01*
X1615096Y1314205*
X1615323Y1313893*
X1615550Y1313268*
Y1312643*
X1615323Y1312018*
X1615096Y1311705*
X1614414Y1311393*
X1612369*
X1613960D02*
X1615550Y1307955D01*
X1623278Y1314518D02*
X1625778D01*
X1624414Y1312018*
X1625096*
X1625550Y1311705*
X1625778Y1311393*
X1626005Y1310455*
Y1309830*
X1625778Y1308893*
X1625323Y1308268*
X1624641Y1307955*
X1623960*
X1623278Y1308268*
X1623050Y1308580*
X1622823Y1309205*
X1628050Y1310768D02*
X1632141D01*
X1642596Y1313580D02*
X1642141Y1314205D01*
X1641460Y1314518*
X1640550*
X1639869Y1314205*
X1639414Y1313580*
Y1312955*
X1639641Y1312330*
X1639869Y1312018*
X1640323Y1311705*
X1641687Y1311080*
X1642141Y1310768*
X1642369Y1310455*
X1642596Y1309830*
Y1308893*
X1642141Y1308268*
X1641460Y1307955*
X1640550*
X1639869Y1308268*
X1639414Y1308893*
X1644641Y1314518D02*
Y1307955D01*
X1650096Y1312955D02*
X1649869Y1313580D01*
X1649414Y1314205*
X1648960Y1314518*
X1648050*
X1647596Y1314205*
X1647141Y1313580*
X1646914Y1312955*
X1646687Y1312018*
Y1310455*
X1646914Y1309518*
X1647141Y1308893*
X1647596Y1308268*
X1648050Y1307955*
X1648960*
X1649414Y1308268*
X1649869Y1308893*
X1650096Y1309518*
Y1310455*
X1648960D02*
X1650096D01*
X1652141Y1314518D02*
Y1307955D01*
Y1314518D02*
X1655323Y1307955D01*
Y1314518D02*
Y1307955D01*
X1659187Y1314518D02*
X1657369Y1307955D01*
X1659187Y1314518D02*
X1661005Y1307955D01*
X1658050Y1310143D02*
X1660323D01*
X1663050Y1314518D02*
Y1307955D01*
X1665778*
X1498752Y1273494D02*
Y1266931D01*
Y1273494D02*
X1500343D01*
X1501025Y1273181*
X1501479Y1272556*
X1501707Y1271931*
X1501934Y1270994*
Y1269431*
X1501707Y1268494*
X1501479Y1267869*
X1501025Y1267244*
X1500343Y1266931*
X1498752*
X1503979Y1273494D02*
Y1266931D01*
Y1273494D02*
X1506934D01*
X1503979Y1270369D02*
X1505797D01*
X1503979Y1266931D02*
X1506934D01*
X1512161Y1272556D02*
X1511707Y1273181D01*
X1511025Y1273494*
X1510116*
X1509434Y1273181*
X1508979Y1272556*
Y1271931*
X1509207Y1271306*
X1509434Y1270994*
X1509888Y1270681*
X1511252Y1270056*
X1511707Y1269744*
X1511934Y1269431*
X1512161Y1268806*
Y1267869*
X1511707Y1267244*
X1511025Y1266931*
X1510116*
X1509434Y1267244*
X1508979Y1267869*
X1514207Y1273494D02*
Y1266931D01*
X1519661Y1271931D02*
X1519434Y1272556D01*
X1518979Y1273181*
X1518525Y1273494*
X1517616*
X1517161Y1273181*
X1516707Y1272556*
X1516479Y1271931*
X1516252Y1270994*
Y1269431*
X1516479Y1268494*
X1516707Y1267869*
X1517161Y1267244*
X1517616Y1266931*
X1518525*
X1518979Y1267244*
X1519434Y1267869*
X1519661Y1268494*
Y1269431*
X1518525D02*
X1519661D01*
X1521707Y1273494D02*
Y1266931D01*
Y1273494D02*
X1524888Y1266931D01*
Y1273494D02*
Y1266931D01*
X1532161Y1273494D02*
Y1266931D01*
X1534207Y1273494D02*
Y1266931D01*
Y1273494D02*
X1537388Y1266931D01*
Y1273494D02*
Y1266931D01*
X1539434Y1273494D02*
Y1266931D01*
Y1273494D02*
X1542388D01*
X1539434Y1270369D02*
X1541252D01*
X1545797Y1273494D02*
X1545343Y1273181D01*
X1544888Y1272556*
X1544661Y1271931*
X1544434Y1270994*
Y1269431*
X1544661Y1268494*
X1544888Y1267869*
X1545343Y1267244*
X1545797Y1266931*
X1546707*
X1547161Y1267244*
X1547616Y1267869*
X1547843Y1268494*
X1548070Y1269431*
Y1270994*
X1547843Y1271931*
X1547616Y1272556*
X1547161Y1273181*
X1546707Y1273494*
X1545797*
X1555343Y1272244D02*
X1555797Y1272556D01*
X1556479Y1273494*
Y1266931*
X1561479Y1271306D02*
X1561252Y1270369D01*
X1560797Y1269744*
X1560116Y1269431*
X1559888*
X1559207Y1269744*
X1558752Y1270369*
X1558525Y1271306*
Y1271619*
X1558752Y1272556*
X1559207Y1273181*
X1559888Y1273494*
X1560116*
X1560797Y1273181*
X1561252Y1272556*
X1561479Y1271306*
Y1269744*
X1561252Y1268181*
X1560797Y1267244*
X1560116Y1266931*
X1559661*
X1558979Y1267244*
X1558752Y1267869*
X1565797Y1273494D02*
Y1268494D01*
X1565570Y1267556*
X1565343Y1267244*
X1564888Y1266931*
X1564434*
X1563979Y1267244*
X1563752Y1267556*
X1563525Y1268494*
Y1269119*
X1567843Y1273494D02*
Y1268806D01*
X1568070Y1267869*
X1568525Y1267244*
X1569207Y1266931*
X1569661*
X1570343Y1267244*
X1570797Y1267869*
X1571025Y1268806*
Y1273494*
X1573070D02*
Y1266931D01*
Y1273494D02*
X1576252Y1266931D01*
Y1273494D02*
Y1266931D01*
X1578525Y1271931D02*
Y1272244D01*
X1578752Y1272869*
X1578979Y1273181*
X1579434Y1273494*
X1580343*
X1580797Y1273181*
X1581025Y1272869*
X1581252Y1272244*
Y1271619*
X1581025Y1270994*
X1580570Y1270056*
X1578297Y1266931*
X1581479*
X1584888Y1273494D02*
X1584207Y1273181D01*
X1583752Y1272244*
X1583525Y1270681*
Y1269744*
X1583752Y1268181*
X1584207Y1267244*
X1584888Y1266931*
X1585343*
X1586025Y1267244*
X1586479Y1268181*
X1586707Y1269744*
Y1270681*
X1586479Y1272244*
X1586025Y1273181*
X1585343Y1273494*
X1584888*
X1588752Y1272244D02*
X1589207Y1272556D01*
X1589888Y1273494*
Y1266931*
X1593070Y1273494D02*
X1592388Y1273181D01*
X1592161Y1272556*
Y1271931*
X1592388Y1271306*
X1592843Y1270994*
X1593752Y1270681*
X1594434Y1270369*
X1594888Y1269744*
X1595116Y1269119*
Y1268181*
X1594888Y1267556*
X1594661Y1267244*
X1593979Y1266931*
X1593070*
X1592388Y1267244*
X1592161Y1267556*
X1591934Y1268181*
Y1269119*
X1592161Y1269744*
X1592616Y1270369*
X1593297Y1270681*
X1594207Y1270994*
X1594661Y1271306*
X1594888Y1271931*
Y1272556*
X1594661Y1273181*
X1593979Y1273494*
X1593070*
X1500343Y1263494D02*
Y1256931D01*
X1498752Y1263494D02*
X1501934D01*
X1503979D02*
Y1256931D01*
Y1263494D02*
X1506934D01*
X1503979Y1260369D02*
X1505797D01*
X1503979Y1256931D02*
X1506934D01*
X1512388Y1261931D02*
X1512161Y1262556D01*
X1511707Y1263181*
X1511252Y1263494*
X1510343*
X1509888Y1263181*
X1509434Y1262556*
X1509207Y1261931*
X1508979Y1260994*
Y1259431*
X1509207Y1258494*
X1509434Y1257869*
X1509888Y1257244*
X1510343Y1256931*
X1511252*
X1511707Y1257244*
X1512161Y1257869*
X1512388Y1258494*
X1514434Y1263494D02*
Y1256931D01*
X1517616Y1263494D02*
Y1256931D01*
X1514434Y1260369D02*
X1517616D01*
X1519661Y1263494D02*
Y1256931D01*
Y1263494D02*
X1522616D01*
X1519661Y1260369D02*
X1521479D01*
X1519661Y1256931D02*
X1522616D01*
X1524661Y1263494D02*
Y1256931D01*
Y1263494D02*
X1527843Y1256931D01*
Y1263494D02*
Y1256931D01*
X1535116Y1263494D02*
Y1256931D01*
X1537161Y1263494D02*
Y1256931D01*
Y1263494D02*
X1540343Y1256931D01*
Y1263494D02*
Y1256931D01*
X1545797Y1261931D02*
X1545570Y1262556D01*
X1545116Y1263181*
X1544661Y1263494*
X1543752*
X1543297Y1263181*
X1542843Y1262556*
X1542616Y1261931*
X1542388Y1260994*
Y1259431*
X1542616Y1258494*
X1542843Y1257869*
X1543297Y1257244*
X1543752Y1256931*
X1544661*
X1545116Y1257244*
X1545570Y1257869*
X1545797Y1258494*
X1556025Y1263494D02*
X1553752D01*
X1553525Y1260681*
X1553752Y1260994*
X1554434Y1261306*
X1555116*
X1555797Y1260994*
X1556252Y1260369*
X1556479Y1259431*
X1556252Y1258806*
X1556025Y1257869*
X1555570Y1257244*
X1554888Y1256931*
X1554207*
X1553525Y1257244*
X1553297Y1257556*
X1553070Y1258181*
X1559888Y1263494D02*
X1559207Y1263181D01*
X1558752Y1262244*
X1558525Y1260681*
Y1259744*
X1558752Y1258181*
X1559207Y1257244*
X1559888Y1256931*
X1560343*
X1561025Y1257244*
X1561479Y1258181*
X1561707Y1259744*
Y1260681*
X1561479Y1262244*
X1561025Y1263181*
X1560343Y1263494*
X1559888*
X1564888D02*
X1564207Y1263181D01*
X1563979Y1262556*
Y1261931*
X1564207Y1261306*
X1564661Y1260994*
X1565570Y1260681*
X1566252Y1260369*
X1566707Y1259744*
X1566934Y1259119*
Y1258181*
X1566707Y1257556*
X1566479Y1257244*
X1565797Y1256931*
X1564888*
X1564207Y1257244*
X1563979Y1257556*
X1563752Y1258181*
Y1259119*
X1563979Y1259744*
X1564434Y1260369*
X1565116Y1260681*
X1566025Y1260994*
X1566479Y1261306*
X1566707Y1261931*
Y1262556*
X1566479Y1263181*
X1565797Y1263494*
X1564888*
X1568979Y1259744D02*
X1573070D01*
X1577388Y1263494D02*
X1575116Y1259119D01*
X1578525*
X1577388Y1263494D02*
Y1256931D01*
X1583752Y1263494D02*
X1581479Y1256931D01*
X1580570Y1263494D02*
X1583752D01*
X1586934D02*
X1586252Y1263181D01*
X1586025Y1262556*
Y1261931*
X1586252Y1261306*
X1586707Y1260994*
X1587616Y1260681*
X1588297Y1260369*
X1588752Y1259744*
X1588979Y1259119*
Y1258181*
X1588752Y1257556*
X1588525Y1257244*
X1587843Y1256931*
X1586934*
X1586252Y1257244*
X1586025Y1257556*
X1585797Y1258181*
Y1259119*
X1586025Y1259744*
X1586479Y1260369*
X1587161Y1260681*
X1588070Y1260994*
X1588525Y1261306*
X1588752Y1261931*
Y1262556*
X1588525Y1263181*
X1587843Y1263494*
X1586934*
X1591025Y1259744D02*
X1595116D01*
X1598525Y1263494D02*
X1597843Y1263181D01*
X1597388Y1262244*
X1597161Y1260681*
Y1259744*
X1597388Y1258181*
X1597843Y1257244*
X1598525Y1256931*
X1598979*
X1599661Y1257244*
X1600116Y1258181*
X1600343Y1259744*
Y1260681*
X1600116Y1262244*
X1599661Y1263181*
X1598979Y1263494*
X1598525*
X1603752D02*
X1603070Y1263181D01*
X1602616Y1262244*
X1602388Y1260681*
Y1259744*
X1602616Y1258181*
X1603070Y1257244*
X1603752Y1256931*
X1604207*
X1604888Y1257244*
X1605343Y1258181*
X1605570Y1259744*
Y1260681*
X1605343Y1262244*
X1604888Y1263181*
X1604207Y1263494*
X1603752*
X1609888D02*
X1607616Y1259119D01*
X1611025*
X1609888Y1263494D02*
Y1256931D01*
X1613297Y1261931D02*
Y1262244D01*
X1613525Y1262869*
X1613752Y1263181*
X1614207Y1263494*
X1615116*
X1615570Y1263181*
X1615797Y1262869*
X1616025Y1262244*
Y1261619*
X1615797Y1260994*
X1615343Y1260056*
X1613070Y1256931*
X1616252*
X1624207Y1263494D02*
Y1258181D01*
X1624434Y1257244*
X1624888Y1256931*
X1625343*
X1623525Y1261306D02*
X1625116D01*
X1627388D02*
Y1254744D01*
Y1260369D02*
X1627843Y1260994D01*
X1628297Y1261306*
X1628979*
X1629434Y1260994*
X1629888Y1260369*
X1630116Y1259431*
Y1258806*
X1629888Y1257869*
X1629434Y1257244*
X1628979Y1256931*
X1628297*
X1627843Y1257244*
X1627388Y1257869*
X1634888Y1263494D02*
Y1256931D01*
Y1260369D02*
X1634434Y1260994D01*
X1633979Y1261306*
X1633297*
X1632843Y1260994*
X1632388Y1260369*
X1632161Y1259431*
Y1258806*
X1632388Y1257869*
X1632843Y1257244*
X1633297Y1256931*
X1633979*
X1634434Y1257244*
X1634888Y1257869*
X1498752Y1238494D02*
Y1231931D01*
Y1238494D02*
X1500570Y1231931D01*
X1502388Y1238494D02*
X1500570Y1231931D01*
X1502388Y1238494D02*
Y1231931D01*
X1506252Y1238494D02*
X1504434Y1231931D01*
X1506252Y1238494D02*
X1508070Y1231931D01*
X1505116Y1234119D02*
X1507388D01*
X1511707Y1238494D02*
Y1231931D01*
X1510116Y1238494D02*
X1513297D01*
X1515343D02*
Y1231931D01*
Y1238494D02*
X1518297D01*
X1515343Y1235369D02*
X1517161D01*
X1515343Y1231931D02*
X1518297D01*
X1520343Y1238494D02*
Y1231931D01*
Y1238494D02*
X1522388D01*
X1523070Y1238181*
X1523297Y1237869*
X1523525Y1237244*
Y1236619*
X1523297Y1235994*
X1523070Y1235681*
X1522388Y1235369*
X1520343*
X1521934D02*
X1523525Y1231931D01*
X1525570Y1238494D02*
Y1231931D01*
X1529434Y1238494D02*
X1527616Y1231931D01*
X1529434Y1238494D02*
X1531252Y1231931D01*
X1528297Y1234119D02*
X1530570D01*
X1533297Y1238494D02*
Y1231931D01*
X1536025*
X1543297Y1238494D02*
Y1231931D01*
Y1238494D02*
X1545343D01*
X1546025Y1238181*
X1546252Y1237869*
X1546479Y1237244*
Y1236306*
X1546252Y1235681*
X1546025Y1235369*
X1545343Y1235056*
X1543297*
X1548525Y1238494D02*
Y1231931D01*
Y1238494D02*
X1551479D01*
X1548525Y1235369D02*
X1550343D01*
X1548525Y1231931D02*
X1551479D01*
X1553525Y1238494D02*
Y1231931D01*
Y1238494D02*
X1555570D01*
X1556252Y1238181*
X1556479Y1237869*
X1556707Y1237244*
Y1236619*
X1556479Y1235994*
X1556252Y1235681*
X1555570Y1235369*
X1553525*
X1555116D02*
X1556707Y1231931D01*
X1563979Y1238494D02*
Y1231931D01*
X1566025Y1238494D02*
Y1231931D01*
Y1238494D02*
X1568070D01*
X1568752Y1238181*
X1568979Y1237869*
X1569207Y1237244*
Y1236306*
X1568979Y1235681*
X1568752Y1235369*
X1568070Y1235056*
X1566025*
X1574661Y1236931D02*
X1574434Y1237556D01*
X1573979Y1238181*
X1573525Y1238494*
X1572616*
X1572161Y1238181*
X1571707Y1237556*
X1571479Y1236931*
X1571252Y1235994*
Y1234431*
X1571479Y1233494*
X1571707Y1232869*
X1572161Y1232244*
X1572616Y1231931*
X1573525*
X1573979Y1232244*
X1574434Y1232869*
X1574661Y1233494*
X1576707Y1234744D02*
X1580797D01*
X1585116Y1238494D02*
X1582843Y1234119D01*
X1586252*
X1585116Y1238494D02*
Y1231931D01*
X1588297Y1237244D02*
X1588752Y1237556D01*
X1589434Y1238494*
Y1231931*
X1592843Y1238494D02*
X1592161Y1238181D01*
X1591707Y1237244*
X1591479Y1235681*
Y1234744*
X1591707Y1233181*
X1592161Y1232244*
X1592843Y1231931*
X1593297*
X1593979Y1232244*
X1594434Y1233181*
X1594661Y1234744*
Y1235681*
X1594434Y1237244*
X1593979Y1238181*
X1593297Y1238494*
X1592843*
X1596707Y1237244D02*
X1597161Y1237556D01*
X1597843Y1238494*
Y1231931*
X1603979Y1239744D02*
X1599888Y1229744D01*
X1606025Y1237244D02*
X1606479Y1237556D01*
X1607161Y1238494*
Y1231931*
X1609434Y1236931D02*
Y1237244D01*
X1609661Y1237869*
X1609888Y1238181*
X1610343Y1238494*
X1611252*
X1611707Y1238181*
X1611934Y1237869*
X1612161Y1237244*
Y1236619*
X1611934Y1235994*
X1611479Y1235056*
X1609207Y1231931*
X1612388*
X1617161Y1237556D02*
X1616934Y1238181D01*
X1616252Y1238494*
X1615797*
X1615116Y1238181*
X1614661Y1237244*
X1614434Y1235681*
Y1234119*
X1614661Y1232869*
X1615116Y1232244*
X1615797Y1231931*
X1616025*
X1616707Y1232244*
X1617161Y1232869*
X1617388Y1233806*
Y1234119*
X1617161Y1235056*
X1616707Y1235681*
X1616025Y1235994*
X1615797*
X1615116Y1235681*
X1614661Y1235056*
X1614434Y1234119*
X1619888Y1232244D02*
X1619661Y1231931D01*
X1619434Y1232244*
X1619661Y1232556*
X1619888Y1232244*
Y1231619*
X1619661Y1230994*
X1619434Y1230681*
X1628297Y1238494D02*
X1627616Y1238181D01*
X1627388Y1237556*
Y1236931*
X1627616Y1236306*
X1628070Y1235994*
X1628979Y1235681*
X1629661Y1235369*
X1630116Y1234744*
X1630343Y1234119*
Y1233181*
X1630116Y1232556*
X1629888Y1232244*
X1629207Y1231931*
X1628297*
X1627616Y1232244*
X1627388Y1232556*
X1627161Y1233181*
Y1234119*
X1627388Y1234744*
X1627843Y1235369*
X1628525Y1235681*
X1629434Y1235994*
X1629888Y1236306*
X1630116Y1236931*
Y1237556*
X1629888Y1238181*
X1629207Y1238494*
X1628297*
X1637616D02*
Y1231931D01*
X1640343*
X1644207Y1238494D02*
X1642388Y1231931D01*
X1644207Y1238494D02*
X1646025Y1231931D01*
X1643070Y1234119D02*
X1645343D01*
X1648070Y1238494D02*
X1649888Y1235369D01*
Y1231931*
X1651707Y1238494D02*
X1649888Y1235369D01*
X1653752Y1238494D02*
Y1231931D01*
Y1238494D02*
X1656707D01*
X1653752Y1235369D02*
X1655570D01*
X1653752Y1231931D02*
X1656707D01*
X1658752Y1238494D02*
Y1231931D01*
Y1238494D02*
X1660797D01*
X1661479Y1238181*
X1661707Y1237869*
X1661934Y1237244*
Y1236619*
X1661707Y1235994*
X1661479Y1235681*
X1660797Y1235369*
X1658752*
X1660343D02*
X1661934Y1231931D01*
X1664434Y1232244D02*
X1664207Y1231931D01*
X1663979Y1232244*
X1664207Y1232556*
X1664434Y1232244*
Y1231619*
X1664207Y1230994*
X1663979Y1230681*
X1674888Y1237556D02*
X1674434Y1238181D01*
X1673752Y1238494*
X1672843*
X1672161Y1238181*
X1671707Y1237556*
Y1236931*
X1671934Y1236306*
X1672161Y1235994*
X1672616Y1235681*
X1673979Y1235056*
X1674434Y1234744*
X1674661Y1234431*
X1674888Y1233806*
Y1232869*
X1674434Y1232244*
X1673752Y1231931*
X1672843*
X1672161Y1232244*
X1671707Y1232869*
X1676934Y1238494D02*
Y1231931D01*
Y1238494D02*
X1678752Y1231931D01*
X1680570Y1238494D02*
X1678752Y1231931D01*
X1680570Y1238494D02*
Y1231931D01*
X1683979Y1238494D02*
X1683525Y1238181D01*
X1683070Y1237556*
X1682843Y1236931*
X1682616Y1235994*
Y1234431*
X1682843Y1233494*
X1683070Y1232869*
X1683525Y1232244*
X1683979Y1231931*
X1684888*
X1685343Y1232244*
X1685797Y1232869*
X1686025Y1233494*
X1686252Y1234431*
Y1235994*
X1686025Y1236931*
X1685797Y1237556*
X1685343Y1238181*
X1684888Y1238494*
X1683979*
X1688297D02*
Y1231931D01*
Y1238494D02*
X1690343D01*
X1691025Y1238181*
X1691252Y1237869*
X1691479Y1237244*
Y1236619*
X1691252Y1235994*
X1691025Y1235681*
X1690343Y1235369*
X1688297D02*
X1690343D01*
X1691025Y1235056*
X1691252Y1234744*
X1691479Y1234119*
Y1233181*
X1691252Y1232556*
X1691025Y1232244*
X1690343Y1231931*
X1688297*
X1696934Y1236931D02*
X1696707Y1237556D01*
X1696252Y1238181*
X1695797Y1238494*
X1694888*
X1694434Y1238181*
X1693979Y1237556*
X1693752Y1236931*
X1693525Y1235994*
Y1234431*
X1693752Y1233494*
X1693979Y1232869*
X1694434Y1232244*
X1694888Y1231931*
X1695797*
X1696252Y1232244*
X1696707Y1232869*
X1696934Y1233494*
X1705797Y1239744D02*
X1705343Y1239119D01*
X1704888Y1238181*
X1704434Y1236931*
X1704207Y1235369*
Y1234119*
X1704434Y1232556*
X1704888Y1231306*
X1705343Y1230369*
X1705797Y1229744*
X1707843Y1238494D02*
Y1231931D01*
X1710570*
X1712616Y1238494D02*
Y1231931D01*
Y1238494D02*
X1714661D01*
X1715343Y1238181*
X1715570Y1237869*
X1715797Y1237244*
Y1236306*
X1715570Y1235681*
X1715343Y1235369*
X1714661Y1235056*
X1712616*
X1717843Y1238494D02*
Y1231931D01*
X1719888Y1239744D02*
X1720343Y1239119D01*
X1720797Y1238181*
X1721252Y1236931*
X1721479Y1235369*
Y1234119*
X1721252Y1232556*
X1720797Y1231306*
X1720343Y1230369*
X1719888Y1229744*
X1732161Y1236931D02*
X1731934Y1237556D01*
X1731479Y1238181*
X1731025Y1238494*
X1730116*
X1729661Y1238181*
X1729207Y1237556*
X1728979Y1236931*
X1728752Y1235994*
Y1234431*
X1728979Y1233494*
X1729207Y1232869*
X1729661Y1232244*
X1730116Y1231931*
X1731025*
X1731479Y1232244*
X1731934Y1232869*
X1732161Y1233494*
X1735570Y1238494D02*
X1735116Y1238181D01*
X1734661Y1237556*
X1734434Y1236931*
X1734207Y1235994*
Y1234431*
X1734434Y1233494*
X1734661Y1232869*
X1735116Y1232244*
X1735570Y1231931*
X1736479*
X1736934Y1232244*
X1737388Y1232869*
X1737616Y1233494*
X1737843Y1234431*
Y1235994*
X1737616Y1236931*
X1737388Y1237556*
X1736934Y1238181*
X1736479Y1238494*
X1735570*
X1739888D02*
Y1231931D01*
X1742616*
X1746025Y1238494D02*
X1745570Y1238181D01*
X1745116Y1237556*
X1744888Y1236931*
X1744661Y1235994*
Y1234431*
X1744888Y1233494*
X1745116Y1232869*
X1745570Y1232244*
X1746025Y1231931*
X1746934*
X1747388Y1232244*
X1747843Y1232869*
X1748070Y1233494*
X1748297Y1234431*
Y1235994*
X1748070Y1236931*
X1747843Y1237556*
X1747388Y1238181*
X1746934Y1238494*
X1746025*
X1750343D02*
Y1231931D01*
Y1238494D02*
X1752388D01*
X1753070Y1238181*
X1753297Y1237869*
X1753525Y1237244*
Y1236619*
X1753297Y1235994*
X1753070Y1235681*
X1752388Y1235369*
X1750343*
X1751934D02*
X1753525Y1231931D01*
X1760797Y1238494D02*
Y1231931D01*
Y1238494D02*
X1762843D01*
X1763525Y1238181*
X1763752Y1237869*
X1763979Y1237244*
Y1236619*
X1763752Y1235994*
X1763525Y1235681*
X1762843Y1235369*
X1760797*
X1762388D02*
X1763979Y1231931D01*
X1766025Y1238494D02*
Y1231931D01*
Y1238494D02*
X1768979D01*
X1766025Y1235369D02*
X1767843D01*
X1766025Y1231931D02*
X1768979D01*
X1771025Y1238494D02*
Y1231931D01*
Y1238494D02*
X1772616D01*
X1773297Y1238181*
X1773752Y1237556*
X1773979Y1236931*
X1774207Y1235994*
Y1234431*
X1773979Y1233494*
X1773752Y1232869*
X1773297Y1232244*
X1772616Y1231931*
X1771025*
X1498752Y1208494D02*
Y1201931D01*
Y1208494D02*
X1500343D01*
X1501025Y1208181*
X1501479Y1207556*
X1501707Y1206931*
X1501934Y1205994*
Y1204431*
X1501707Y1203494*
X1501479Y1202869*
X1501025Y1202244*
X1500343Y1201931*
X1498752*
X1503979Y1208494D02*
Y1201931D01*
X1506025Y1208494D02*
Y1201931D01*
Y1208494D02*
X1508979D01*
X1506025Y1205369D02*
X1507843D01*
X1506025Y1201931D02*
X1508979D01*
X1511025Y1208494D02*
Y1201931D01*
X1513752*
X1515797Y1208494D02*
Y1201931D01*
Y1208494D02*
X1518752D01*
X1515797Y1205369D02*
X1517616D01*
X1515797Y1201931D02*
X1518752D01*
X1524207Y1206931D02*
X1523979Y1207556D01*
X1523525Y1208181*
X1523070Y1208494*
X1522161*
X1521707Y1208181*
X1521252Y1207556*
X1521025Y1206931*
X1520797Y1205994*
Y1204431*
X1521025Y1203494*
X1521252Y1202869*
X1521707Y1202244*
X1522161Y1201931*
X1523070*
X1523525Y1202244*
X1523979Y1202869*
X1524207Y1203494*
X1527843Y1208494D02*
Y1201931D01*
X1526252Y1208494D02*
X1529434D01*
X1531479D02*
Y1201931D01*
Y1208494D02*
X1533525D01*
X1534207Y1208181*
X1534434Y1207869*
X1534661Y1207244*
Y1206619*
X1534434Y1205994*
X1534207Y1205681*
X1533525Y1205369*
X1531479*
X1533070D02*
X1534661Y1201931D01*
X1536707Y1208494D02*
Y1201931D01*
X1542161Y1206931D02*
X1541934Y1207556D01*
X1541479Y1208181*
X1541025Y1208494*
X1540116*
X1539661Y1208181*
X1539207Y1207556*
X1538979Y1206931*
X1538752Y1205994*
Y1204431*
X1538979Y1203494*
X1539207Y1202869*
X1539661Y1202244*
X1540116Y1201931*
X1541025*
X1541479Y1202244*
X1541934Y1202869*
X1542161Y1203494*
X1551025Y1208494D02*
Y1201931D01*
X1549434Y1208494D02*
X1552616D01*
X1554661D02*
Y1201931D01*
X1557843Y1208494D02*
Y1201931D01*
X1554661Y1205369D02*
X1557843D01*
X1559888Y1208494D02*
Y1201931D01*
X1565343Y1206931D02*
X1565116Y1207556D01*
X1564661Y1208181*
X1564207Y1208494*
X1563297*
X1562843Y1208181*
X1562388Y1207556*
X1562161Y1206931*
X1561934Y1205994*
Y1204431*
X1562161Y1203494*
X1562388Y1202869*
X1562843Y1202244*
X1563297Y1201931*
X1564207*
X1564661Y1202244*
X1565116Y1202869*
X1565343Y1203494*
X1567388Y1208494D02*
Y1201931D01*
X1570570Y1208494D02*
X1567388Y1204119D01*
X1568525Y1205681D02*
X1570570Y1201931D01*
X1572616Y1208494D02*
Y1201931D01*
Y1208494D02*
X1575797Y1201931D01*
Y1208494D02*
Y1201931D01*
X1577843Y1208494D02*
Y1201931D01*
Y1208494D02*
X1580797D01*
X1577843Y1205369D02*
X1579661D01*
X1577843Y1201931D02*
X1580797D01*
X1586025Y1207556D02*
X1585570Y1208181D01*
X1584888Y1208494*
X1583979*
X1583297Y1208181*
X1582843Y1207556*
Y1206931*
X1583070Y1206306*
X1583297Y1205994*
X1583752Y1205681*
X1585116Y1205056*
X1585570Y1204744*
X1585797Y1204431*
X1586025Y1203806*
Y1202869*
X1585570Y1202244*
X1584888Y1201931*
X1583979*
X1583297Y1202244*
X1582843Y1202869*
X1591252Y1207556D02*
X1590797Y1208181D01*
X1590116Y1208494*
X1589207*
X1588525Y1208181*
X1588070Y1207556*
Y1206931*
X1588297Y1206306*
X1588525Y1205994*
X1588979Y1205681*
X1590343Y1205056*
X1590797Y1204744*
X1591025Y1204431*
X1591252Y1203806*
Y1202869*
X1590797Y1202244*
X1590116Y1201931*
X1589207*
X1588525Y1202244*
X1588070Y1202869*
X1599888Y1208494D02*
X1599434Y1208181D01*
X1598979Y1207556*
X1598752Y1206931*
X1598525Y1205994*
Y1204431*
X1598752Y1203494*
X1598979Y1202869*
X1599434Y1202244*
X1599888Y1201931*
X1600797*
X1601252Y1202244*
X1601707Y1202869*
X1601934Y1203494*
X1602161Y1204431*
Y1205994*
X1601934Y1206931*
X1601707Y1207556*
X1601252Y1208181*
X1600797Y1208494*
X1599888*
X1604207D02*
Y1203806D01*
X1604434Y1202869*
X1604888Y1202244*
X1605570Y1201931*
X1606025*
X1606707Y1202244*
X1607161Y1202869*
X1607388Y1203806*
Y1208494*
X1611025D02*
Y1201931D01*
X1609434Y1208494D02*
X1612616D01*
X1614661D02*
Y1201931D01*
Y1208494D02*
X1617616D01*
X1614661Y1205369D02*
X1616479D01*
X1614661Y1201931D02*
X1617616D01*
X1619661Y1208494D02*
Y1201931D01*
Y1208494D02*
X1621707D01*
X1622388Y1208181*
X1622616Y1207869*
X1622843Y1207244*
Y1206619*
X1622616Y1205994*
X1622388Y1205681*
X1621707Y1205369*
X1619661*
X1621252D02*
X1622843Y1201931D01*
X1633525Y1206931D02*
X1633297Y1207556D01*
X1632843Y1208181*
X1632388Y1208494*
X1631479*
X1631025Y1208181*
X1630570Y1207556*
X1630343Y1206931*
X1630116Y1205994*
Y1204431*
X1630343Y1203494*
X1630570Y1202869*
X1631025Y1202244*
X1631479Y1201931*
X1632388*
X1632843Y1202244*
X1633297Y1202869*
X1633525Y1203494*
X1636934Y1208494D02*
X1636479Y1208181D01*
X1636025Y1207556*
X1635797Y1206931*
X1635570Y1205994*
Y1204431*
X1635797Y1203494*
X1636025Y1202869*
X1636479Y1202244*
X1636934Y1201931*
X1637843*
X1638297Y1202244*
X1638752Y1202869*
X1638979Y1203494*
X1639207Y1204431*
Y1205994*
X1638979Y1206931*
X1638752Y1207556*
X1638297Y1208181*
X1637843Y1208494*
X1636934*
X1641252D02*
Y1201931D01*
Y1208494D02*
X1643297D01*
X1643979Y1208181*
X1644207Y1207869*
X1644434Y1207244*
Y1206619*
X1644207Y1205994*
X1643979Y1205681*
X1643297Y1205369*
X1641252*
X1642843D02*
X1644434Y1201931D01*
X1646479Y1208494D02*
Y1201931D01*
Y1208494D02*
X1649434D01*
X1646479Y1205369D02*
X1648297D01*
X1646479Y1201931D02*
X1649434D01*
X1654661Y1207556D02*
X1654207Y1208181D01*
X1653525Y1208494*
X1652616*
X1651934Y1208181*
X1651479Y1207556*
Y1206931*
X1651707Y1206306*
X1651934Y1205994*
X1652388Y1205681*
X1653752Y1205056*
X1654207Y1204744*
X1654434Y1204431*
X1654661Y1203806*
Y1202869*
X1654207Y1202244*
X1653525Y1201931*
X1652616*
X1651934Y1202244*
X1651479Y1202869*
X1661934Y1205681D02*
X1666025D01*
X1661934Y1203806D02*
X1666025D01*
X1676479Y1207556D02*
X1676025Y1208181D01*
X1675343Y1208494*
X1674434*
X1673752Y1208181*
X1673297Y1207556*
Y1206931*
X1673525Y1206306*
X1673752Y1205994*
X1674207Y1205681*
X1675570Y1205056*
X1676025Y1204744*
X1676252Y1204431*
X1676479Y1203806*
Y1202869*
X1676025Y1202244*
X1675343Y1201931*
X1674434*
X1673752Y1202244*
X1673297Y1202869*
X1678525Y1208494D02*
Y1201931D01*
Y1208494D02*
X1681479D01*
X1678525Y1205369D02*
X1680343D01*
X1678525Y1201931D02*
X1681479D01*
X1683525Y1208494D02*
Y1201931D01*
Y1208494D02*
X1686479D01*
X1683525Y1205369D02*
X1685343D01*
X1683525Y1201931D02*
X1686479D01*
X1696934Y1207556D02*
X1696479Y1208181D01*
X1695797Y1208494*
X1694888*
X1694207Y1208181*
X1693752Y1207556*
Y1206931*
X1693979Y1206306*
X1694207Y1205994*
X1694661Y1205681*
X1696025Y1205056*
X1696479Y1204744*
X1696707Y1204431*
X1696934Y1203806*
Y1202869*
X1696479Y1202244*
X1695797Y1201931*
X1694888*
X1694207Y1202244*
X1693752Y1202869*
X1700570Y1208494D02*
Y1201931D01*
X1698979Y1208494D02*
X1702161D01*
X1706025D02*
X1704207Y1201931D01*
X1706025Y1208494D02*
X1707843Y1201931D01*
X1704888Y1204119D02*
X1707161D01*
X1713297Y1206931D02*
X1713070Y1207556D01*
X1712616Y1208181*
X1712161Y1208494*
X1711252*
X1710797Y1208181*
X1710343Y1207556*
X1710116Y1206931*
X1709888Y1205994*
Y1204431*
X1710116Y1203494*
X1710343Y1202869*
X1710797Y1202244*
X1711252Y1201931*
X1712161*
X1712616Y1202244*
X1713070Y1202869*
X1713297Y1203494*
X1715343Y1208494D02*
Y1201931D01*
X1718525Y1208494D02*
X1715343Y1204119D01*
X1716479Y1205681D02*
X1718525Y1201931D01*
X1720570Y1208494D02*
Y1203806D01*
X1720797Y1202869*
X1721252Y1202244*
X1721934Y1201931*
X1722388*
X1723070Y1202244*
X1723525Y1202869*
X1723752Y1203806*
Y1208494*
X1725797D02*
Y1201931D01*
Y1208494D02*
X1727843D01*
X1728525Y1208181*
X1728752Y1207869*
X1728979Y1207244*
Y1206306*
X1728752Y1205681*
X1728525Y1205369*
X1727843Y1205056*
X1725797*
X1736252Y1208494D02*
Y1201931D01*
Y1208494D02*
X1737843D01*
X1738525Y1208181*
X1738979Y1207556*
X1739207Y1206931*
X1739434Y1205994*
Y1204431*
X1739207Y1203494*
X1738979Y1202869*
X1738525Y1202244*
X1737843Y1201931*
X1736252*
X1741479Y1208494D02*
Y1201931D01*
Y1208494D02*
X1744434D01*
X1741479Y1205369D02*
X1743297D01*
X1741479Y1201931D02*
X1744434D01*
X1748070Y1208494D02*
Y1201931D01*
X1746479Y1208494D02*
X1749661D01*
X1753525D02*
X1751707Y1201931D01*
X1753525Y1208494D02*
X1755343Y1201931D01*
X1752388Y1204119D02*
X1754661D01*
X1757388Y1208494D02*
Y1201931D01*
X1759434Y1208494D02*
Y1201931D01*
X1762161*
X1498752Y1228494D02*
Y1221931D01*
Y1228494D02*
X1500797D01*
X1501479Y1228181*
X1501707Y1227869*
X1501934Y1227244*
Y1226619*
X1501707Y1225994*
X1501479Y1225681*
X1500797Y1225369*
X1498752D02*
X1500797D01*
X1501479Y1225056*
X1501707Y1224744*
X1501934Y1224119*
Y1223181*
X1501707Y1222556*
X1501479Y1222244*
X1500797Y1221931*
X1498752*
X1505343Y1228494D02*
X1504888Y1228181D01*
X1504434Y1227556*
X1504207Y1226931*
X1503979Y1225994*
Y1224431*
X1504207Y1223494*
X1504434Y1222869*
X1504888Y1222244*
X1505343Y1221931*
X1506252*
X1506707Y1222244*
X1507161Y1222869*
X1507388Y1223494*
X1507616Y1224431*
Y1225994*
X1507388Y1226931*
X1507161Y1227556*
X1506707Y1228181*
X1506252Y1228494*
X1505343*
X1511479D02*
X1509661Y1221931D01*
X1511479Y1228494D02*
X1513297Y1221931D01*
X1510343Y1224119D02*
X1512616D01*
X1515343Y1228494D02*
Y1221931D01*
Y1228494D02*
X1517388D01*
X1518070Y1228181*
X1518297Y1227869*
X1518525Y1227244*
Y1226619*
X1518297Y1225994*
X1518070Y1225681*
X1517388Y1225369*
X1515343*
X1516934D02*
X1518525Y1221931D01*
X1520570Y1228494D02*
Y1221931D01*
Y1228494D02*
X1522161D01*
X1522843Y1228181*
X1523297Y1227556*
X1523525Y1226931*
X1523752Y1225994*
Y1224431*
X1523525Y1223494*
X1523297Y1222869*
X1522843Y1222244*
X1522161Y1221931*
X1520570*
X1532616Y1228494D02*
Y1221931D01*
X1531025Y1228494D02*
X1534207D01*
X1536252D02*
Y1221931D01*
X1539434Y1228494D02*
Y1221931D01*
X1536252Y1225369D02*
X1539434D01*
X1541479Y1228494D02*
Y1221931D01*
X1546934Y1226931D02*
X1546707Y1227556D01*
X1546252Y1228181*
X1545797Y1228494*
X1544888*
X1544434Y1228181*
X1543979Y1227556*
X1543752Y1226931*
X1543525Y1225994*
Y1224431*
X1543752Y1223494*
X1543979Y1222869*
X1544434Y1222244*
X1544888Y1221931*
X1545797*
X1546252Y1222244*
X1546707Y1222869*
X1546934Y1223494*
X1548979Y1228494D02*
Y1221931D01*
X1552161Y1228494D02*
X1548979Y1224119D01*
X1550116Y1225681D02*
X1552161Y1221931D01*
X1554207Y1228494D02*
Y1221931D01*
Y1228494D02*
X1557388Y1221931D01*
Y1228494D02*
Y1221931D01*
X1559434Y1228494D02*
Y1221931D01*
Y1228494D02*
X1562388D01*
X1559434Y1225369D02*
X1561252D01*
X1559434Y1221931D02*
X1562388D01*
X1567616Y1227556D02*
X1567161Y1228181D01*
X1566479Y1228494*
X1565570*
X1564888Y1228181*
X1564434Y1227556*
Y1226931*
X1564661Y1226306*
X1564888Y1225994*
X1565343Y1225681*
X1566707Y1225056*
X1567161Y1224744*
X1567388Y1224431*
X1567616Y1223806*
Y1222869*
X1567161Y1222244*
X1566479Y1221931*
X1565570*
X1564888Y1222244*
X1564434Y1222869*
X1572843Y1227556D02*
X1572388Y1228181D01*
X1571707Y1228494*
X1570797*
X1570116Y1228181*
X1569661Y1227556*
Y1226931*
X1569888Y1226306*
X1570116Y1225994*
X1570570Y1225681*
X1571934Y1225056*
X1572388Y1224744*
X1572616Y1224431*
X1572843Y1223806*
Y1222869*
X1572388Y1222244*
X1571707Y1221931*
X1570797*
X1570116Y1222244*
X1569661Y1222869*
X1580343Y1222556D02*
X1580116Y1222244D01*
X1580343Y1221931*
X1580570Y1222244*
X1580343Y1222556*
X1583979Y1228494D02*
X1583297Y1228181D01*
X1582843Y1227244*
X1582616Y1225681*
Y1224744*
X1582843Y1223181*
X1583297Y1222244*
X1583979Y1221931*
X1584434*
X1585116Y1222244*
X1585570Y1223181*
X1585797Y1224744*
Y1225681*
X1585570Y1227244*
X1585116Y1228181*
X1584434Y1228494*
X1583979*
X1590570Y1227556D02*
X1590343Y1228181D01*
X1589661Y1228494*
X1589207*
X1588525Y1228181*
X1588070Y1227244*
X1587843Y1225681*
Y1224119*
X1588070Y1222869*
X1588525Y1222244*
X1589207Y1221931*
X1589434*
X1590116Y1222244*
X1590570Y1222869*
X1590797Y1223806*
Y1224119*
X1590570Y1225056*
X1590116Y1225681*
X1589434Y1225994*
X1589207*
X1588525Y1225681*
X1588070Y1225056*
X1587843Y1224119*
X1593070Y1226931D02*
Y1227244D01*
X1593297Y1227869*
X1593525Y1228181*
X1593979Y1228494*
X1594888*
X1595343Y1228181*
X1595570Y1227869*
X1595797Y1227244*
Y1226619*
X1595570Y1225994*
X1595116Y1225056*
X1592843Y1221931*
X1596025*
X1598070Y1228494D02*
Y1226306D01*
X1599888Y1228494D02*
Y1226306D01*
X1609207Y1227556D02*
Y1221931D01*
X1607161Y1224744D02*
X1611252D01*
X1617388Y1229744D02*
X1613297Y1219744D01*
X1619434Y1224744D02*
X1623525D01*
X1625797Y1222556D02*
X1625570Y1222244D01*
X1625797Y1221931*
X1626025Y1222244*
X1625797Y1222556*
X1629434Y1228494D02*
X1628752Y1228181D01*
X1628297Y1227244*
X1628070Y1225681*
Y1224744*
X1628297Y1223181*
X1628752Y1222244*
X1629434Y1221931*
X1629888*
X1630570Y1222244*
X1631025Y1223181*
X1631252Y1224744*
Y1225681*
X1631025Y1227244*
X1630570Y1228181*
X1629888Y1228494*
X1629434*
X1634661D02*
X1633979Y1228181D01*
X1633525Y1227244*
X1633297Y1225681*
Y1224744*
X1633525Y1223181*
X1633979Y1222244*
X1634661Y1221931*
X1635116*
X1635797Y1222244*
X1636252Y1223181*
X1636479Y1224744*
Y1225681*
X1636252Y1227244*
X1635797Y1228181*
X1635116Y1228494*
X1634661*
X1641707D02*
X1639434Y1221931D01*
X1638525Y1228494D02*
X1641707D01*
X1643752D02*
Y1226306D01*
X1645570Y1228494D02*
Y1226306D01*
X1648070Y1222244D02*
X1647843Y1221931D01*
X1647616Y1222244*
X1647843Y1222556*
X1648070Y1222244*
Y1221619*
X1647843Y1220994*
X1647616Y1220681*
X1655343Y1227244D02*
X1655797Y1227556D01*
X1656479Y1228494*
Y1221931*
X1658752Y1222556D02*
X1658525Y1222244D01*
X1658752Y1221931*
X1658979Y1222244*
X1658752Y1222556*
X1663979Y1228494D02*
X1661707D01*
X1661479Y1225681*
X1661707Y1225994*
X1662388Y1226306*
X1663070*
X1663752Y1225994*
X1664207Y1225369*
X1664434Y1224431*
X1664207Y1223806*
X1663979Y1222869*
X1663525Y1222244*
X1662843Y1221931*
X1662161*
X1661479Y1222244*
X1661252Y1222556*
X1661025Y1223181*
X1672843Y1226306D02*
X1672388Y1225994D01*
X1671934Y1225369*
X1671707Y1224431*
Y1223806*
X1671934Y1222869*
X1672388Y1222244*
X1672843Y1221931*
X1673525*
X1673979Y1222244*
X1674434Y1222869*
X1674661Y1223806*
Y1224431*
X1674434Y1225369*
X1673979Y1225994*
X1673525Y1226306*
X1672843*
X1679207D02*
X1676707Y1221931D01*
Y1226306D02*
X1679207D01*
X1676707Y1221931D02*
X1679207D01*
X1681479Y1222556D02*
X1681252Y1222244D01*
X1681479Y1221931*
X1681707Y1222244*
X1681479Y1222556*
X1692388Y1226931D02*
X1692161Y1227556D01*
X1691707Y1228181*
X1691252Y1228494*
X1690343*
X1689888Y1228181*
X1689434Y1227556*
X1689207Y1226931*
X1688979Y1225994*
Y1224431*
X1689207Y1223494*
X1689434Y1222869*
X1689888Y1222244*
X1690343Y1221931*
X1691252*
X1691707Y1222244*
X1692161Y1222869*
X1692388Y1223494*
X1694434Y1226306D02*
Y1223181D01*
X1694661Y1222244*
X1695116Y1221931*
X1695797*
X1696252Y1222244*
X1696934Y1223181*
Y1226306D02*
Y1221931D01*
X1705570Y1228494D02*
X1705116Y1228181D01*
X1704661Y1227556*
X1704434Y1226931*
X1704207Y1225994*
Y1224431*
X1704434Y1223494*
X1704661Y1222869*
X1705116Y1222244*
X1705570Y1221931*
X1706479*
X1706934Y1222244*
X1707388Y1222869*
X1707616Y1223494*
X1707843Y1224431*
Y1225994*
X1707616Y1226931*
X1707388Y1227556*
X1706934Y1228181*
X1706479Y1228494*
X1705570*
X1709888D02*
Y1223806D01*
X1710116Y1222869*
X1710570Y1222244*
X1711252Y1221931*
X1711707*
X1712388Y1222244*
X1712843Y1222869*
X1713070Y1223806*
Y1228494*
X1716707D02*
Y1221931D01*
X1715116Y1228494D02*
X1718297D01*
X1720343D02*
Y1221931D01*
Y1228494D02*
X1723297D01*
X1720343Y1225369D02*
X1722161D01*
X1720343Y1221931D02*
X1723297D01*
X1725343Y1228494D02*
Y1221931D01*
Y1228494D02*
X1727388D01*
X1728070Y1228181*
X1728297Y1227869*
X1728525Y1227244*
Y1226619*
X1728297Y1225994*
X1728070Y1225681*
X1727388Y1225369*
X1725343*
X1726934D02*
X1728525Y1221931D01*
X1735797Y1228494D02*
Y1221931D01*
X1738525*
X1742388Y1228494D02*
X1740570Y1221931D01*
X1742388Y1228494D02*
X1744207Y1221931D01*
X1741252Y1224119D02*
X1743525D01*
X1746252Y1228494D02*
X1748070Y1225369D01*
Y1221931*
X1749888Y1228494D02*
X1748070Y1225369D01*
X1751934Y1228494D02*
Y1221931D01*
Y1228494D02*
X1754888D01*
X1751934Y1225369D02*
X1753752D01*
X1751934Y1221931D02*
X1754888D01*
X1756934Y1228494D02*
Y1221931D01*
Y1228494D02*
X1758979D01*
X1759661Y1228181*
X1759888Y1227869*
X1760116Y1227244*
Y1226619*
X1759888Y1225994*
X1759661Y1225681*
X1758979Y1225369*
X1756934*
X1758525D02*
X1760116Y1221931D01*
X1765343Y1227556D02*
X1764888Y1228181D01*
X1764207Y1228494*
X1763297*
X1762616Y1228181*
X1762161Y1227556*
Y1226931*
X1762388Y1226306*
X1762616Y1225994*
X1763070Y1225681*
X1764434Y1225056*
X1764888Y1224744*
X1765116Y1224431*
X1765343Y1223806*
Y1222869*
X1764888Y1222244*
X1764207Y1221931*
X1763297*
X1762616Y1222244*
X1762161Y1222869*
X1767843Y1222244D02*
X1767616Y1221931D01*
X1767388Y1222244*
X1767616Y1222556*
X1767843Y1222244*
Y1221619*
X1767616Y1220994*
X1767388Y1220681*
X1498752Y1198494D02*
Y1191931D01*
Y1198494D02*
X1500343D01*
X1501025Y1198181*
X1501479Y1197556*
X1501707Y1196931*
X1501934Y1195994*
Y1194431*
X1501707Y1193494*
X1501479Y1192869*
X1501025Y1192244*
X1500343Y1191931*
X1498752*
X1503979Y1198494D02*
Y1191931D01*
X1506025Y1198494D02*
Y1191931D01*
Y1198494D02*
X1508979D01*
X1506025Y1195369D02*
X1507843D01*
X1506025Y1191931D02*
X1508979D01*
X1511025Y1198494D02*
Y1191931D01*
X1513752*
X1515797Y1198494D02*
Y1191931D01*
Y1198494D02*
X1518752D01*
X1515797Y1195369D02*
X1517616D01*
X1515797Y1191931D02*
X1518752D01*
X1524207Y1196931D02*
X1523979Y1197556D01*
X1523525Y1198181*
X1523070Y1198494*
X1522161*
X1521707Y1198181*
X1521252Y1197556*
X1521025Y1196931*
X1520797Y1195994*
Y1194431*
X1521025Y1193494*
X1521252Y1192869*
X1521707Y1192244*
X1522161Y1191931*
X1523070*
X1523525Y1192244*
X1523979Y1192869*
X1524207Y1193494*
X1527843Y1198494D02*
Y1191931D01*
X1526252Y1198494D02*
X1529434D01*
X1531479D02*
Y1191931D01*
Y1198494D02*
X1533525D01*
X1534207Y1198181*
X1534434Y1197869*
X1534661Y1197244*
Y1196619*
X1534434Y1195994*
X1534207Y1195681*
X1533525Y1195369*
X1531479*
X1533070D02*
X1534661Y1191931D01*
X1536707Y1198494D02*
Y1191931D01*
X1542161Y1196931D02*
X1541934Y1197556D01*
X1541479Y1198181*
X1541025Y1198494*
X1540116*
X1539661Y1198181*
X1539207Y1197556*
X1538979Y1196931*
X1538752Y1195994*
Y1194431*
X1538979Y1193494*
X1539207Y1192869*
X1539661Y1192244*
X1540116Y1191931*
X1541025*
X1541479Y1192244*
X1541934Y1192869*
X1542161Y1193494*
X1551025Y1198494D02*
Y1191931D01*
X1549434Y1198494D02*
X1552616D01*
X1554661D02*
Y1191931D01*
X1557843Y1198494D02*
Y1191931D01*
X1554661Y1195369D02*
X1557843D01*
X1559888Y1198494D02*
Y1191931D01*
X1565343Y1196931D02*
X1565116Y1197556D01*
X1564661Y1198181*
X1564207Y1198494*
X1563297*
X1562843Y1198181*
X1562388Y1197556*
X1562161Y1196931*
X1561934Y1195994*
Y1194431*
X1562161Y1193494*
X1562388Y1192869*
X1562843Y1192244*
X1563297Y1191931*
X1564207*
X1564661Y1192244*
X1565116Y1192869*
X1565343Y1193494*
X1567388Y1198494D02*
Y1191931D01*
X1570570Y1198494D02*
X1567388Y1194119D01*
X1568525Y1195681D02*
X1570570Y1191931D01*
X1572616Y1198494D02*
Y1191931D01*
Y1198494D02*
X1575797Y1191931D01*
Y1198494D02*
Y1191931D01*
X1577843Y1198494D02*
Y1191931D01*
Y1198494D02*
X1580797D01*
X1577843Y1195369D02*
X1579661D01*
X1577843Y1191931D02*
X1580797D01*
X1586025Y1197556D02*
X1585570Y1198181D01*
X1584888Y1198494*
X1583979*
X1583297Y1198181*
X1582843Y1197556*
Y1196931*
X1583070Y1196306*
X1583297Y1195994*
X1583752Y1195681*
X1585116Y1195056*
X1585570Y1194744*
X1585797Y1194431*
X1586025Y1193806*
Y1192869*
X1585570Y1192244*
X1584888Y1191931*
X1583979*
X1583297Y1192244*
X1582843Y1192869*
X1591252Y1197556D02*
X1590797Y1198181D01*
X1590116Y1198494*
X1589207*
X1588525Y1198181*
X1588070Y1197556*
Y1196931*
X1588297Y1196306*
X1588525Y1195994*
X1588979Y1195681*
X1590343Y1195056*
X1590797Y1194744*
X1591025Y1194431*
X1591252Y1193806*
Y1192869*
X1590797Y1192244*
X1590116Y1191931*
X1589207*
X1588525Y1192244*
X1588070Y1192869*
X1601934Y1196931D02*
X1601707Y1197556D01*
X1601252Y1198181*
X1600797Y1198494*
X1599888*
X1599434Y1198181*
X1598979Y1197556*
X1598752Y1196931*
X1598525Y1195994*
Y1194431*
X1598752Y1193494*
X1598979Y1192869*
X1599434Y1192244*
X1599888Y1191931*
X1600797*
X1601252Y1192244*
X1601707Y1192869*
X1601934Y1193494*
X1603979Y1198494D02*
Y1191931D01*
Y1198494D02*
X1606934D01*
X1603979Y1195369D02*
X1605797D01*
X1603979Y1191931D02*
X1606934D01*
X1608979Y1198494D02*
Y1191931D01*
Y1198494D02*
X1612161Y1191931D01*
Y1198494D02*
Y1191931D01*
X1615797Y1198494D02*
Y1191931D01*
X1614207Y1198494D02*
X1617388D01*
X1619434D02*
Y1191931D01*
Y1198494D02*
X1622388D01*
X1619434Y1195369D02*
X1621252D01*
X1619434Y1191931D02*
X1622388D01*
X1624434Y1198494D02*
Y1191931D01*
Y1198494D02*
X1626479D01*
X1627161Y1198181*
X1627388Y1197869*
X1627616Y1197244*
Y1196619*
X1627388Y1195994*
X1627161Y1195681*
X1626479Y1195369*
X1624434*
X1626025D02*
X1627616Y1191931D01*
X1638297Y1196931D02*
X1638070Y1197556D01*
X1637616Y1198181*
X1637161Y1198494*
X1636252*
X1635797Y1198181*
X1635343Y1197556*
X1635116Y1196931*
X1634888Y1195994*
Y1194431*
X1635116Y1193494*
X1635343Y1192869*
X1635797Y1192244*
X1636252Y1191931*
X1637161*
X1637616Y1192244*
X1638070Y1192869*
X1638297Y1193494*
X1641707Y1198494D02*
X1641252Y1198181D01*
X1640797Y1197556*
X1640570Y1196931*
X1640343Y1195994*
Y1194431*
X1640570Y1193494*
X1640797Y1192869*
X1641252Y1192244*
X1641707Y1191931*
X1642616*
X1643070Y1192244*
X1643525Y1192869*
X1643752Y1193494*
X1643979Y1194431*
Y1195994*
X1643752Y1196931*
X1643525Y1197556*
X1643070Y1198181*
X1642616Y1198494*
X1641707*
X1646025D02*
Y1191931D01*
Y1198494D02*
X1648070D01*
X1648752Y1198181*
X1648979Y1197869*
X1649207Y1197244*
Y1196619*
X1648979Y1195994*
X1648752Y1195681*
X1648070Y1195369*
X1646025*
X1647616D02*
X1649207Y1191931D01*
X1651252Y1198494D02*
Y1191931D01*
Y1198494D02*
X1654207D01*
X1651252Y1195369D02*
X1653070D01*
X1651252Y1191931D02*
X1654207D01*
X1656707Y1192244D02*
X1656479Y1191931D01*
X1656252Y1192244*
X1656479Y1192556*
X1656707Y1192244*
Y1191619*
X1656479Y1190994*
X1656252Y1190681*
X1665797Y1198494D02*
X1663979Y1191931D01*
X1665797Y1198494D02*
X1667616Y1191931D01*
X1664661Y1194119D02*
X1666934D01*
X1669661Y1198494D02*
Y1191931D01*
Y1198494D02*
X1671252D01*
X1671934Y1198181*
X1672388Y1197556*
X1672616Y1196931*
X1672843Y1195994*
Y1194431*
X1672616Y1193494*
X1672388Y1192869*
X1671934Y1192244*
X1671252Y1191931*
X1669661*
X1677161Y1198494D02*
Y1193494D01*
X1676934Y1192556*
X1676707Y1192244*
X1676252Y1191931*
X1675797*
X1675343Y1192244*
X1675116Y1192556*
X1674888Y1193494*
Y1194119*
X1679207Y1198494D02*
Y1193806D01*
X1679434Y1192869*
X1679888Y1192244*
X1680570Y1191931*
X1681025*
X1681707Y1192244*
X1682161Y1192869*
X1682388Y1193806*
Y1198494*
X1687616Y1197556D02*
X1687161Y1198181D01*
X1686479Y1198494*
X1685570*
X1684888Y1198181*
X1684434Y1197556*
Y1196931*
X1684661Y1196306*
X1684888Y1195994*
X1685343Y1195681*
X1686707Y1195056*
X1687161Y1194744*
X1687388Y1194431*
X1687616Y1193806*
Y1192869*
X1687161Y1192244*
X1686479Y1191931*
X1685570*
X1684888Y1192244*
X1684434Y1192869*
X1691252Y1198494D02*
Y1191931D01*
X1689661Y1198494D02*
X1692843D01*
X1700116D02*
Y1191931D01*
Y1198494D02*
X1703070D01*
X1700116Y1195369D02*
X1701934D01*
X1706479Y1198494D02*
X1706025Y1198181D01*
X1705570Y1197556*
X1705343Y1196931*
X1705116Y1195994*
Y1194431*
X1705343Y1193494*
X1705570Y1192869*
X1706025Y1192244*
X1706479Y1191931*
X1707388*
X1707843Y1192244*
X1708297Y1192869*
X1708525Y1193494*
X1708752Y1194431*
Y1195994*
X1708525Y1196931*
X1708297Y1197556*
X1707843Y1198181*
X1707388Y1198494*
X1706479*
X1710797D02*
Y1191931D01*
Y1198494D02*
X1712843D01*
X1713525Y1198181*
X1713752Y1197869*
X1713979Y1197244*
Y1196619*
X1713752Y1195994*
X1713525Y1195681*
X1712843Y1195369*
X1710797*
X1712388D02*
X1713979Y1191931D01*
X1721252Y1198494D02*
Y1191931D01*
Y1198494D02*
X1724207D01*
X1721252Y1195369D02*
X1723070D01*
X1728070Y1198494D02*
X1726252Y1191931D01*
X1728070Y1198494D02*
X1729888Y1191931D01*
X1726934Y1194119D02*
X1729207D01*
X1731934Y1198494D02*
Y1191931D01*
Y1198494D02*
X1733979D01*
X1734661Y1198181*
X1734888Y1197869*
X1735116Y1197244*
Y1196619*
X1734888Y1195994*
X1734661Y1195681*
X1733979Y1195369*
X1731934D02*
X1733979D01*
X1734661Y1195056*
X1734888Y1194744*
X1735116Y1194119*
Y1193181*
X1734888Y1192556*
X1734661Y1192244*
X1733979Y1191931*
X1731934*
X1737161Y1198494D02*
Y1191931D01*
Y1198494D02*
X1739207D01*
X1739888Y1198181*
X1740116Y1197869*
X1740343Y1197244*
Y1196619*
X1740116Y1195994*
X1739888Y1195681*
X1739207Y1195369*
X1737161*
X1738752D02*
X1740343Y1191931D01*
X1742388Y1198494D02*
Y1191931D01*
X1747843Y1196931D02*
X1747616Y1197556D01*
X1747161Y1198181*
X1746707Y1198494*
X1745797*
X1745343Y1198181*
X1744888Y1197556*
X1744661Y1196931*
X1744434Y1195994*
Y1194431*
X1744661Y1193494*
X1744888Y1192869*
X1745343Y1192244*
X1745797Y1191931*
X1746707*
X1747161Y1192244*
X1747616Y1192869*
X1747843Y1193494*
X1751707Y1198494D02*
X1749888Y1191931D01*
X1751707Y1198494D02*
X1753525Y1191931D01*
X1750570Y1194119D02*
X1752843D01*
X1757161Y1198494D02*
Y1191931D01*
X1755570Y1198494D02*
X1758752D01*
X1760797D02*
Y1191931D01*
X1764207Y1198494D02*
X1763752Y1198181D01*
X1763297Y1197556*
X1763070Y1196931*
X1762843Y1195994*
Y1194431*
X1763070Y1193494*
X1763297Y1192869*
X1763752Y1192244*
X1764207Y1191931*
X1765116*
X1765570Y1192244*
X1766025Y1192869*
X1766252Y1193494*
X1766479Y1194431*
Y1195994*
X1766252Y1196931*
X1766025Y1197556*
X1765570Y1198181*
X1765116Y1198494*
X1764207*
X1768525D02*
Y1191931D01*
Y1198494D02*
X1771707Y1191931D01*
Y1198494D02*
Y1191931D01*
X1498752Y1178494D02*
Y1171931D01*
Y1178494D02*
X1501707D01*
X1498752Y1175369D02*
X1500570D01*
X1503752Y1178494D02*
Y1171931D01*
X1505797Y1178494D02*
Y1171931D01*
Y1178494D02*
X1508979Y1171931D01*
Y1178494D02*
Y1171931D01*
X1511025Y1178494D02*
Y1171931D01*
X1516252Y1177556D02*
X1515797Y1178181D01*
X1515116Y1178494*
X1514207*
X1513525Y1178181*
X1513070Y1177556*
Y1176931*
X1513297Y1176306*
X1513525Y1175994*
X1513979Y1175681*
X1515343Y1175056*
X1515797Y1174744*
X1516025Y1174431*
X1516252Y1173806*
Y1172869*
X1515797Y1172244*
X1515116Y1171931*
X1514207*
X1513525Y1172244*
X1513070Y1172869*
X1518297Y1178494D02*
Y1171931D01*
X1521479Y1178494D02*
Y1171931D01*
X1518297Y1175369D02*
X1521479D01*
X1523525Y1174744D02*
X1527616D01*
X1534888Y1178494D02*
Y1171931D01*
X1536934Y1178494D02*
Y1171931D01*
Y1178494D02*
X1538752Y1171931D01*
X1540570Y1178494D02*
X1538752Y1171931D01*
X1540570Y1178494D02*
Y1171931D01*
X1542616Y1178494D02*
Y1171931D01*
Y1178494D02*
X1544434Y1171931D01*
X1546252Y1178494D02*
X1544434Y1171931D01*
X1546252Y1178494D02*
Y1171931D01*
X1548297Y1178494D02*
Y1171931D01*
Y1178494D02*
X1551252D01*
X1548297Y1175369D02*
X1550116D01*
X1548297Y1171931D02*
X1551252D01*
X1553297Y1178494D02*
Y1171931D01*
Y1178494D02*
X1555343D01*
X1556025Y1178181*
X1556252Y1177869*
X1556479Y1177244*
Y1176619*
X1556252Y1175994*
X1556025Y1175681*
X1555343Y1175369*
X1553297*
X1554888D02*
X1556479Y1171931D01*
X1561707Y1177556D02*
X1561252Y1178181D01*
X1560570Y1178494*
X1559661*
X1558979Y1178181*
X1558525Y1177556*
Y1176931*
X1558752Y1176306*
X1558979Y1175994*
X1559434Y1175681*
X1560797Y1175056*
X1561252Y1174744*
X1561479Y1174431*
X1561707Y1173806*
Y1172869*
X1561252Y1172244*
X1560570Y1171931*
X1559661*
X1558979Y1172244*
X1558525Y1172869*
X1563752Y1178494D02*
Y1171931D01*
X1567161Y1178494D02*
X1566707Y1178181D01*
X1566252Y1177556*
X1566025Y1176931*
X1565797Y1175994*
Y1174431*
X1566025Y1173494*
X1566252Y1172869*
X1566707Y1172244*
X1567161Y1171931*
X1568070*
X1568525Y1172244*
X1568979Y1172869*
X1569207Y1173494*
X1569434Y1174431*
Y1175994*
X1569207Y1176931*
X1568979Y1177556*
X1568525Y1178181*
X1568070Y1178494*
X1567161*
X1571479D02*
Y1171931D01*
Y1178494D02*
X1574661Y1171931D01*
Y1178494D02*
Y1171931D01*
X1585343Y1176931D02*
X1585116Y1177556D01*
X1584661Y1178181*
X1584207Y1178494*
X1583297*
X1582843Y1178181*
X1582388Y1177556*
X1582161Y1176931*
X1581934Y1175994*
Y1174431*
X1582161Y1173494*
X1582388Y1172869*
X1582843Y1172244*
X1583297Y1171931*
X1584207*
X1584661Y1172244*
X1585116Y1172869*
X1585343Y1173494*
Y1174431*
X1584207D02*
X1585343D01*
X1588752Y1178494D02*
X1588297Y1178181D01*
X1587843Y1177556*
X1587616Y1176931*
X1587388Y1175994*
Y1174431*
X1587616Y1173494*
X1587843Y1172869*
X1588297Y1172244*
X1588752Y1171931*
X1589661*
X1590116Y1172244*
X1590570Y1172869*
X1590797Y1173494*
X1591025Y1174431*
Y1175994*
X1590797Y1176931*
X1590570Y1177556*
X1590116Y1178181*
X1589661Y1178494*
X1588752*
X1593070D02*
Y1171931D01*
X1595797*
X1597843Y1178494D02*
Y1171931D01*
Y1178494D02*
X1599434D01*
X1600116Y1178181*
X1600570Y1177556*
X1600797Y1176931*
X1601025Y1175994*
Y1174431*
X1600797Y1173494*
X1600570Y1172869*
X1600116Y1172244*
X1599434Y1171931*
X1597843*
X1610116Y1178494D02*
X1608297Y1171931D01*
X1610116Y1178494D02*
X1611934Y1171931D01*
X1608979Y1174119D02*
X1611252D01*
X1613979Y1178494D02*
Y1171931D01*
Y1178494D02*
X1616934D01*
X1613979Y1175369D02*
X1615797D01*
X1620570Y1178494D02*
Y1171931D01*
X1618979Y1178494D02*
X1622161D01*
X1624207D02*
Y1171931D01*
Y1178494D02*
X1627161D01*
X1624207Y1175369D02*
X1626025D01*
X1624207Y1171931D02*
X1627161D01*
X1629207Y1178494D02*
Y1171931D01*
Y1178494D02*
X1631252D01*
X1631934Y1178181*
X1632161Y1177869*
X1632388Y1177244*
Y1176619*
X1632161Y1175994*
X1631934Y1175681*
X1631252Y1175369*
X1629207*
X1630797D02*
X1632388Y1171931D01*
X1642843Y1177556D02*
X1642388Y1178181D01*
X1641707Y1178494*
X1640797*
X1640116Y1178181*
X1639661Y1177556*
Y1176931*
X1639888Y1176306*
X1640116Y1175994*
X1640570Y1175681*
X1641934Y1175056*
X1642388Y1174744*
X1642616Y1174431*
X1642843Y1173806*
Y1172869*
X1642388Y1172244*
X1641707Y1171931*
X1640797*
X1640116Y1172244*
X1639661Y1172869*
X1646252Y1178494D02*
X1645797Y1178181D01*
X1645343Y1177556*
X1645116Y1176931*
X1644888Y1175994*
Y1174431*
X1645116Y1173494*
X1645343Y1172869*
X1645797Y1172244*
X1646252Y1171931*
X1647161*
X1647616Y1172244*
X1648070Y1172869*
X1648297Y1173494*
X1648525Y1174431*
Y1175994*
X1648297Y1176931*
X1648070Y1177556*
X1647616Y1178181*
X1647161Y1178494*
X1646252*
X1650570D02*
Y1171931D01*
X1653297*
X1655343Y1178494D02*
Y1171931D01*
Y1178494D02*
X1656934D01*
X1657616Y1178181*
X1658070Y1177556*
X1658297Y1176931*
X1658525Y1175994*
Y1174431*
X1658297Y1173494*
X1658070Y1172869*
X1657616Y1172244*
X1656934Y1171931*
X1655343*
X1660570Y1178494D02*
Y1171931D01*
Y1178494D02*
X1663525D01*
X1660570Y1175369D02*
X1662388D01*
X1660570Y1171931D02*
X1663525D01*
X1665570Y1178494D02*
Y1171931D01*
Y1178494D02*
X1667616D01*
X1668297Y1178181*
X1668525Y1177869*
X1668752Y1177244*
Y1176619*
X1668525Y1175994*
X1668297Y1175681*
X1667616Y1175369*
X1665570*
X1667161D02*
X1668752Y1171931D01*
X1670797Y1178494D02*
Y1171931D01*
Y1178494D02*
X1672616Y1171931D01*
X1674434Y1178494D02*
X1672616Y1171931D01*
X1674434Y1178494D02*
Y1171931D01*
X1678297Y1178494D02*
X1676479Y1171931D01*
X1678297Y1178494D02*
X1680116Y1171931D01*
X1677161Y1174119D02*
X1679434D01*
X1685343Y1177556D02*
X1684888Y1178181D01*
X1684207Y1178494*
X1683297*
X1682616Y1178181*
X1682161Y1177556*
Y1176931*
X1682388Y1176306*
X1682616Y1175994*
X1683070Y1175681*
X1684434Y1175056*
X1684888Y1174744*
X1685116Y1174431*
X1685343Y1173806*
Y1172869*
X1684888Y1172244*
X1684207Y1171931*
X1683297*
X1682616Y1172244*
X1682161Y1172869*
X1687388Y1178494D02*
Y1171931D01*
X1690570Y1178494D02*
X1687388Y1174119D01*
X1688525Y1175681D02*
X1690570Y1171931D01*
X1693070Y1172244D02*
X1692843Y1171931D01*
X1692616Y1172244*
X1692843Y1172556*
X1693070Y1172244*
Y1171619*
X1692843Y1170994*
X1692616Y1170681*
X1703525Y1177556D02*
X1703070Y1178181D01*
X1702388Y1178494*
X1701479*
X1700797Y1178181*
X1700343Y1177556*
Y1176931*
X1700570Y1176306*
X1700797Y1175994*
X1701252Y1175681*
X1702616Y1175056*
X1703070Y1174744*
X1703297Y1174431*
X1703525Y1173806*
Y1172869*
X1703070Y1172244*
X1702388Y1171931*
X1701479*
X1700797Y1172244*
X1700343Y1172869*
X1705570Y1178494D02*
Y1171931D01*
X1707616Y1178494D02*
Y1171931D01*
X1710343*
X1712388Y1178494D02*
Y1171931D01*
X1715570Y1178494D02*
X1712388Y1174119D01*
X1713525Y1175681D02*
X1715570Y1171931D01*
X1720797Y1177556D02*
X1720343Y1178181D01*
X1719661Y1178494*
X1718752*
X1718070Y1178181*
X1717616Y1177556*
Y1176931*
X1717843Y1176306*
X1718070Y1175994*
X1718525Y1175681*
X1719888Y1175056*
X1720343Y1174744*
X1720570Y1174431*
X1720797Y1173806*
Y1172869*
X1720343Y1172244*
X1719661Y1171931*
X1718752*
X1718070Y1172244*
X1717616Y1172869*
X1726252Y1176931D02*
X1726025Y1177556D01*
X1725570Y1178181*
X1725116Y1178494*
X1724207*
X1723752Y1178181*
X1723297Y1177556*
X1723070Y1176931*
X1722843Y1175994*
Y1174431*
X1723070Y1173494*
X1723297Y1172869*
X1723752Y1172244*
X1724207Y1171931*
X1725116*
X1725570Y1172244*
X1726025Y1172869*
X1726252Y1173494*
X1728297Y1178494D02*
Y1171931D01*
Y1178494D02*
X1730343D01*
X1731025Y1178181*
X1731252Y1177869*
X1731479Y1177244*
Y1176619*
X1731252Y1175994*
X1731025Y1175681*
X1730343Y1175369*
X1728297*
X1729888D02*
X1731479Y1171931D01*
X1733525Y1178494D02*
Y1171931D01*
Y1178494D02*
X1736479D01*
X1733525Y1175369D02*
X1735343D01*
X1733525Y1171931D02*
X1736479D01*
X1738525Y1178494D02*
Y1171931D01*
Y1178494D02*
X1741479D01*
X1738525Y1175369D02*
X1740343D01*
X1738525Y1171931D02*
X1741479D01*
X1743525Y1178494D02*
Y1171931D01*
Y1178494D02*
X1746707Y1171931D01*
Y1178494D02*
Y1171931D01*
X1753979Y1178494D02*
X1755116Y1171931D01*
X1756252Y1178494D02*
X1755116Y1171931D01*
X1756252Y1178494D02*
X1757388Y1171931D01*
X1758525Y1178494D02*
X1757388Y1171931D01*
X1760570Y1178494D02*
Y1171931D01*
X1763752Y1178494D02*
Y1171931D01*
X1760570Y1175369D02*
X1763752D01*
X1765797Y1178494D02*
Y1171931D01*
X1769434Y1178494D02*
Y1171931D01*
X1767843Y1178494D02*
X1771025D01*
X1773070D02*
Y1171931D01*
Y1178494D02*
X1776025D01*
X1773070Y1175369D02*
X1774888D01*
X1773070Y1171931D02*
X1776025D01*
X1783297Y1178494D02*
Y1171931D01*
X1786025*
X1788070Y1178494D02*
Y1171931D01*
Y1178494D02*
X1790116D01*
X1790797Y1178181*
X1791025Y1177869*
X1791252Y1177244*
Y1176306*
X1791025Y1175681*
X1790797Y1175369*
X1790116Y1175056*
X1788070*
X1793297Y1178494D02*
Y1171931D01*
X1500343Y1188494D02*
Y1181931D01*
X1498752Y1188494D02*
X1501934D01*
X1503979D02*
Y1181931D01*
Y1188494D02*
X1506025D01*
X1506707Y1188181*
X1506934Y1187869*
X1507161Y1187244*
Y1186619*
X1506934Y1185994*
X1506707Y1185681*
X1506025Y1185369*
X1503979*
X1505570D02*
X1507161Y1181931D01*
X1511025Y1188494D02*
X1509207Y1181931D01*
X1511025Y1188494D02*
X1512843Y1181931D01*
X1509888Y1184119D02*
X1512161D01*
X1518297Y1186931D02*
X1518070Y1187556D01*
X1517616Y1188181*
X1517161Y1188494*
X1516252*
X1515797Y1188181*
X1515343Y1187556*
X1515116Y1186931*
X1514888Y1185994*
Y1184431*
X1515116Y1183494*
X1515343Y1182869*
X1515797Y1182244*
X1516252Y1181931*
X1517161*
X1517616Y1182244*
X1518070Y1182869*
X1518297Y1183494*
X1520343Y1188494D02*
Y1181931D01*
Y1188494D02*
X1523297D01*
X1520343Y1185369D02*
X1522161D01*
X1520343Y1181931D02*
X1523297D01*
X1530570Y1188494D02*
Y1181931D01*
X1532616Y1188494D02*
Y1181931D01*
Y1188494D02*
X1534434Y1181931D01*
X1536252Y1188494D02*
X1534434Y1181931D01*
X1536252Y1188494D02*
Y1181931D01*
X1538297Y1188494D02*
Y1181931D01*
Y1188494D02*
X1540343D01*
X1541025Y1188181*
X1541252Y1187869*
X1541479Y1187244*
Y1186306*
X1541252Y1185681*
X1541025Y1185369*
X1540343Y1185056*
X1538297*
X1543525Y1188494D02*
Y1181931D01*
Y1188494D02*
X1546479D01*
X1543525Y1185369D02*
X1545343D01*
X1543525Y1181931D02*
X1546479D01*
X1548525Y1188494D02*
Y1181931D01*
Y1188494D02*
X1550116D01*
X1550797Y1188181*
X1551252Y1187556*
X1551479Y1186931*
X1551707Y1185994*
Y1184431*
X1551479Y1183494*
X1551252Y1182869*
X1550797Y1182244*
X1550116Y1181931*
X1548525*
X1555570Y1188494D02*
X1553752Y1181931D01*
X1555570Y1188494D02*
X1557388Y1181931D01*
X1554434Y1184119D02*
X1556707D01*
X1559434Y1188494D02*
Y1181931D01*
Y1188494D02*
X1562616Y1181931D01*
Y1188494D02*
Y1181931D01*
X1568070Y1186931D02*
X1567843Y1187556D01*
X1567388Y1188181*
X1566934Y1188494*
X1566025*
X1565570Y1188181*
X1565116Y1187556*
X1564888Y1186931*
X1564661Y1185994*
Y1184431*
X1564888Y1183494*
X1565116Y1182869*
X1565570Y1182244*
X1566025Y1181931*
X1566934*
X1567388Y1182244*
X1567843Y1182869*
X1568070Y1183494*
X1570116Y1188494D02*
Y1181931D01*
Y1188494D02*
X1573070D01*
X1570116Y1185369D02*
X1571934D01*
X1570116Y1181931D02*
X1573070D01*
X1575116Y1184744D02*
X1579207D01*
X1586479Y1188494D02*
Y1181931D01*
Y1188494D02*
X1589661Y1181931D01*
Y1188494D02*
Y1181931D01*
X1593070Y1188494D02*
X1592616Y1188181D01*
X1592161Y1187556*
X1591934Y1186931*
X1591707Y1185994*
Y1184431*
X1591934Y1183494*
X1592161Y1182869*
X1592616Y1182244*
X1593070Y1181931*
X1593979*
X1594434Y1182244*
X1594888Y1182869*
X1595116Y1183494*
X1595343Y1184431*
Y1185994*
X1595116Y1186931*
X1594888Y1187556*
X1594434Y1188181*
X1593979Y1188494*
X1593070*
X1598979D02*
Y1181931D01*
X1597388Y1188494D02*
X1600570D01*
X1609661D02*
X1607843Y1181931D01*
X1609661Y1188494D02*
X1611479Y1181931D01*
X1608525Y1184119D02*
X1610797D01*
X1613525Y1188494D02*
Y1181931D01*
Y1188494D02*
X1615570D01*
X1616252Y1188181*
X1616479Y1187869*
X1616707Y1187244*
Y1186306*
X1616479Y1185681*
X1616252Y1185369*
X1615570Y1185056*
X1613525*
X1618752Y1188494D02*
Y1181931D01*
Y1188494D02*
X1620797D01*
X1621479Y1188181*
X1621707Y1187869*
X1621934Y1187244*
Y1186306*
X1621707Y1185681*
X1621479Y1185369*
X1620797Y1185056*
X1618752*
X1623979Y1188494D02*
Y1181931D01*
X1626707*
X1628752Y1188494D02*
Y1181931D01*
X1634207Y1186931D02*
X1633979Y1187556D01*
X1633525Y1188181*
X1633070Y1188494*
X1632161*
X1631707Y1188181*
X1631252Y1187556*
X1631025Y1186931*
X1630797Y1185994*
Y1184431*
X1631025Y1183494*
X1631252Y1182869*
X1631707Y1182244*
X1632161Y1181931*
X1633070*
X1633525Y1182244*
X1633979Y1182869*
X1634207Y1183494*
X1638070Y1188494D02*
X1636252Y1181931D01*
X1638070Y1188494D02*
X1639888Y1181931D01*
X1636934Y1184119D02*
X1639207D01*
X1641934Y1188494D02*
Y1181931D01*
Y1188494D02*
X1643979D01*
X1644661Y1188181*
X1644888Y1187869*
X1645116Y1187244*
Y1186619*
X1644888Y1185994*
X1644661Y1185681*
X1643979Y1185369*
X1641934D02*
X1643979D01*
X1644661Y1185056*
X1644888Y1184744*
X1645116Y1184119*
Y1183181*
X1644888Y1182556*
X1644661Y1182244*
X1643979Y1181931*
X1641934*
X1647161Y1188494D02*
Y1181931D01*
X1649888*
X1651934Y1188494D02*
Y1181931D01*
Y1188494D02*
X1654888D01*
X1651934Y1185369D02*
X1653752D01*
X1651934Y1181931D02*
X1654888D01*
X1501934Y1282556D02*
X1501479Y1283181D01*
X1500797Y1283494*
X1499888*
X1499207Y1283181*
X1498752Y1282556*
Y1281931*
X1498979Y1281306*
X1499207Y1280994*
X1499661Y1280681*
X1501025Y1280056*
X1501479Y1279744*
X1501707Y1279431*
X1501934Y1278806*
Y1277869*
X1501479Y1277244*
X1500797Y1276931*
X1499888*
X1499207Y1277244*
X1498752Y1277869*
X1503979Y1283494D02*
Y1276931D01*
X1507843Y1283494D02*
X1506025Y1276931D01*
X1507843Y1283494D02*
X1509661Y1276931D01*
X1506707Y1279119D02*
X1508979D01*
X1516934Y1283494D02*
Y1276931D01*
X1520116Y1283494D02*
Y1276931D01*
X1516934Y1280369D02*
X1520116D01*
X1523979Y1283494D02*
X1522161Y1276931D01*
X1523979Y1283494D02*
X1525797Y1276931D01*
X1522843Y1279119D02*
X1525116D01*
X1531025Y1282556D02*
X1530570Y1283181D01*
X1529888Y1283494*
X1528979*
X1528297Y1283181*
X1527843Y1282556*
Y1281931*
X1528070Y1281306*
X1528297Y1280994*
X1528752Y1280681*
X1530116Y1280056*
X1530570Y1279744*
X1530797Y1279431*
X1531025Y1278806*
Y1277869*
X1530570Y1277244*
X1529888Y1276931*
X1528979*
X1528297Y1277244*
X1527843Y1277869*
X1533070Y1283494D02*
Y1276931D01*
X1536252Y1283494D02*
Y1276931D01*
X1533070Y1280369D02*
X1536252D01*
X1538297Y1283494D02*
Y1276931D01*
X1540343Y1283494D02*
Y1276931D01*
Y1283494D02*
X1543525Y1276931D01*
Y1283494D02*
Y1276931D01*
X1548979Y1281931D02*
X1548752Y1282556D01*
X1548297Y1283181*
X1547843Y1283494*
X1546934*
X1546479Y1283181*
X1546025Y1282556*
X1545797Y1281931*
X1545570Y1280994*
Y1279431*
X1545797Y1278494*
X1546025Y1277869*
X1546479Y1277244*
X1546934Y1276931*
X1547843*
X1548297Y1277244*
X1548752Y1277869*
X1548979Y1278494*
Y1279431*
X1547843D02*
X1548979D01*
X1556252Y1283494D02*
Y1276931D01*
Y1283494D02*
X1558297D01*
X1558979Y1283181*
X1559207Y1282869*
X1559434Y1282244*
Y1281619*
X1559207Y1280994*
X1558979Y1280681*
X1558297Y1280369*
X1556252D02*
X1558297D01*
X1558979Y1280056*
X1559207Y1279744*
X1559434Y1279119*
Y1278181*
X1559207Y1277556*
X1558979Y1277244*
X1558297Y1276931*
X1556252*
X1562843Y1283494D02*
X1562388Y1283181D01*
X1561934Y1282556*
X1561707Y1281931*
X1561479Y1280994*
Y1279431*
X1561707Y1278494*
X1561934Y1277869*
X1562388Y1277244*
X1562843Y1276931*
X1563752*
X1564207Y1277244*
X1564661Y1277869*
X1564888Y1278494*
X1565116Y1279431*
Y1280994*
X1564888Y1281931*
X1564661Y1282556*
X1564207Y1283181*
X1563752Y1283494*
X1562843*
X1568979D02*
X1567161Y1276931D01*
X1568979Y1283494D02*
X1570797Y1276931D01*
X1567843Y1279119D02*
X1570116D01*
X1572843Y1283494D02*
Y1276931D01*
Y1283494D02*
X1574888D01*
X1575570Y1283181*
X1575797Y1282869*
X1576025Y1282244*
Y1281619*
X1575797Y1280994*
X1575570Y1280681*
X1574888Y1280369*
X1572843*
X1574434D02*
X1576025Y1276931D01*
X1578070Y1283494D02*
Y1276931D01*
Y1283494D02*
X1579661D01*
X1580343Y1283181*
X1580797Y1282556*
X1581025Y1281931*
X1581252Y1280994*
Y1279431*
X1581025Y1278494*
X1580797Y1277869*
X1580343Y1277244*
X1579661Y1276931*
X1578070*
X1591707Y1283494D02*
X1589434Y1276931D01*
X1588525Y1283494D02*
X1591707D01*
X1596025D02*
X1593752Y1279119D01*
X1597161*
X1596025Y1283494D02*
Y1276931D01*
X1599434Y1281931D02*
Y1282244D01*
X1599661Y1282869*
X1599888Y1283181*
X1600343Y1283494*
X1601252*
X1601707Y1283181*
X1601934Y1282869*
X1602161Y1282244*
Y1281619*
X1601934Y1280994*
X1601479Y1280056*
X1599207Y1276931*
X1602388*
X1607388Y1281306D02*
X1607161Y1280369D01*
X1606707Y1279744*
X1606025Y1279431*
X1605797*
X1605116Y1279744*
X1604661Y1280369*
X1604434Y1281306*
Y1281619*
X1604661Y1282556*
X1605116Y1283181*
X1605797Y1283494*
X1606025*
X1606707Y1283181*
X1607161Y1282556*
X1607388Y1281306*
Y1279744*
X1607161Y1278181*
X1606707Y1277244*
X1606025Y1276931*
X1605570*
X1604888Y1277244*
X1604661Y1277869*
X1610797Y1283494D02*
X1610116Y1283181D01*
X1609661Y1282244*
X1609434Y1280681*
Y1279744*
X1609661Y1278181*
X1610116Y1277244*
X1610797Y1276931*
X1611252*
X1611934Y1277244*
X1612388Y1278181*
X1612616Y1279744*
Y1280681*
X1612388Y1282244*
X1611934Y1283181*
X1611252Y1283494*
X1610797*
X1614661Y1282244D02*
X1615116Y1282556D01*
X1615797Y1283494*
Y1276931*
X1617843Y1283494D02*
Y1276931D01*
Y1283494D02*
X1619888D01*
X1620570Y1283181*
X1620797Y1282869*
X1621025Y1282244*
Y1281619*
X1620797Y1280994*
X1620570Y1280681*
X1619888Y1280369*
X1617843*
X1619434D02*
X1621025Y1276931D01*
X1623297Y1281931D02*
Y1282244D01*
X1623525Y1282869*
X1623752Y1283181*
X1624207Y1283494*
X1625116*
X1625570Y1283181*
X1625797Y1282869*
X1626025Y1282244*
Y1281619*
X1625797Y1280994*
X1625343Y1280056*
X1623070Y1276931*
X1626252*
X1498752Y1248494D02*
Y1241931D01*
Y1248494D02*
X1501707D01*
X1498752Y1245369D02*
X1500570D01*
X1505570Y1248494D02*
X1503752Y1241931D01*
X1505570Y1248494D02*
X1507388Y1241931D01*
X1504434Y1244119D02*
X1506707D01*
X1509434Y1248494D02*
Y1241931D01*
Y1248494D02*
X1511479D01*
X1512161Y1248181*
X1512388Y1247869*
X1512616Y1247244*
Y1246619*
X1512388Y1245994*
X1512161Y1245681*
X1511479Y1245369*
X1509434D02*
X1511479D01*
X1512161Y1245056*
X1512388Y1244744*
X1512616Y1244119*
Y1243181*
X1512388Y1242556*
X1512161Y1242244*
X1511479Y1241931*
X1509434*
X1514661Y1248494D02*
Y1241931D01*
Y1248494D02*
X1516707D01*
X1517388Y1248181*
X1517616Y1247869*
X1517843Y1247244*
Y1246619*
X1517616Y1245994*
X1517388Y1245681*
X1516707Y1245369*
X1514661*
X1516252D02*
X1517843Y1241931D01*
X1519888Y1248494D02*
Y1241931D01*
X1525343Y1246931D02*
X1525116Y1247556D01*
X1524661Y1248181*
X1524207Y1248494*
X1523297*
X1522843Y1248181*
X1522388Y1247556*
X1522161Y1246931*
X1521934Y1245994*
Y1244431*
X1522161Y1243494*
X1522388Y1242869*
X1522843Y1242244*
X1523297Y1241931*
X1524207*
X1524661Y1242244*
X1525116Y1242869*
X1525343Y1243494*
X1529207Y1248494D02*
X1527388Y1241931D01*
X1529207Y1248494D02*
X1531025Y1241931D01*
X1528070Y1244119D02*
X1530343D01*
X1534661Y1248494D02*
Y1241931D01*
X1533070Y1248494D02*
X1536252D01*
X1538297D02*
Y1241931D01*
Y1248494D02*
X1541252D01*
X1538297Y1245369D02*
X1540116D01*
X1538297Y1241931D02*
X1541252D01*
X1548525Y1248494D02*
Y1241931D01*
Y1248494D02*
X1550570D01*
X1551252Y1248181*
X1551479Y1247869*
X1551707Y1247244*
Y1246306*
X1551479Y1245681*
X1551252Y1245369*
X1550570Y1245056*
X1548525*
X1553752Y1248494D02*
Y1241931D01*
Y1248494D02*
X1556707D01*
X1553752Y1245369D02*
X1555570D01*
X1553752Y1241931D02*
X1556707D01*
X1558752Y1248494D02*
Y1241931D01*
Y1248494D02*
X1560797D01*
X1561479Y1248181*
X1561707Y1247869*
X1561934Y1247244*
Y1246619*
X1561707Y1245994*
X1561479Y1245681*
X1560797Y1245369*
X1558752*
X1560343D02*
X1561934Y1241931D01*
X1569207Y1248494D02*
Y1241931D01*
X1571252Y1248494D02*
Y1241931D01*
Y1248494D02*
X1573297D01*
X1573979Y1248181*
X1574207Y1247869*
X1574434Y1247244*
Y1246306*
X1574207Y1245681*
X1573979Y1245369*
X1573297Y1245056*
X1571252*
X1579888Y1246931D02*
X1579661Y1247556D01*
X1579207Y1248181*
X1578752Y1248494*
X1577843*
X1577388Y1248181*
X1576934Y1247556*
X1576707Y1246931*
X1576479Y1245994*
Y1244431*
X1576707Y1243494*
X1576934Y1242869*
X1577388Y1242244*
X1577843Y1241931*
X1578752*
X1579207Y1242244*
X1579661Y1242869*
X1579888Y1243494*
X1581934Y1244744D02*
X1586025D01*
X1590797Y1247556D02*
X1590570Y1248181D01*
X1589888Y1248494*
X1589434*
X1588752Y1248181*
X1588297Y1247244*
X1588070Y1245681*
Y1244119*
X1588297Y1242869*
X1588752Y1242244*
X1589434Y1241931*
X1589661*
X1590343Y1242244*
X1590797Y1242869*
X1591025Y1243806*
Y1244119*
X1590797Y1245056*
X1590343Y1245681*
X1589661Y1245994*
X1589434*
X1588752Y1245681*
X1588297Y1245056*
X1588070Y1244119*
X1594434Y1248494D02*
X1593752Y1248181D01*
X1593297Y1247244*
X1593070Y1245681*
Y1244744*
X1593297Y1243181*
X1593752Y1242244*
X1594434Y1241931*
X1594888*
X1595570Y1242244*
X1596025Y1243181*
X1596252Y1244744*
Y1245681*
X1596025Y1247244*
X1595570Y1248181*
X1594888Y1248494*
X1594434*
X1598297Y1247244D02*
X1598752Y1247556D01*
X1599434Y1248494*
Y1241931*
X1601707Y1246931D02*
Y1247244D01*
X1601934Y1247869*
X1602161Y1248181*
X1602616Y1248494*
X1603525*
X1603979Y1248181*
X1604207Y1247869*
X1604434Y1247244*
Y1246619*
X1604207Y1245994*
X1603752Y1245056*
X1601479Y1241931*
X1604661*
X1606707Y1248494D02*
Y1241931D01*
Y1248494D02*
X1608297D01*
X1608979Y1248181*
X1609434Y1247556*
X1609661Y1246931*
X1609888Y1245994*
Y1244431*
X1609661Y1243494*
X1609434Y1242869*
X1608979Y1242244*
X1608297Y1241931*
X1606707*
X1620570Y1246931D02*
X1620343Y1247556D01*
X1619888Y1248181*
X1619434Y1248494*
X1618525*
X1618070Y1248181*
X1617616Y1247556*
X1617388Y1246931*
X1617161Y1245994*
Y1244431*
X1617388Y1243494*
X1617616Y1242869*
X1618070Y1242244*
X1618525Y1241931*
X1619434*
X1619888Y1242244*
X1620343Y1242869*
X1620570Y1243494*
X1622616Y1248494D02*
Y1241931D01*
X1625343*
X1629207Y1248494D02*
X1627388Y1241931D01*
X1629207Y1248494D02*
X1631025Y1241931D01*
X1628070Y1244119D02*
X1630343D01*
X1636252Y1247556D02*
X1635797Y1248181D01*
X1635116Y1248494*
X1634207*
X1633525Y1248181*
X1633070Y1247556*
Y1246931*
X1633297Y1246306*
X1633525Y1245994*
X1633979Y1245681*
X1635343Y1245056*
X1635797Y1244744*
X1636025Y1244431*
X1636252Y1243806*
Y1242869*
X1635797Y1242244*
X1635116Y1241931*
X1634207*
X1633525Y1242244*
X1633070Y1242869*
X1641479Y1247556D02*
X1641025Y1248181D01*
X1640343Y1248494*
X1639434*
X1638752Y1248181*
X1638297Y1247556*
Y1246931*
X1638525Y1246306*
X1638752Y1245994*
X1639207Y1245681*
X1640570Y1245056*
X1641025Y1244744*
X1641252Y1244431*
X1641479Y1243806*
Y1242869*
X1641025Y1242244*
X1640343Y1241931*
X1639434*
X1638752Y1242244*
X1638297Y1242869*
X1648752Y1248494D02*
Y1241931D01*
X1650797Y1248494D02*
Y1241931D01*
X1533979Y1216931D02*
Y1217244D01*
X1534207Y1217869*
X1534434Y1218181*
X1534888Y1218494*
X1535797*
X1536252Y1218181*
X1536479Y1217869*
X1536707Y1217244*
Y1216619*
X1536479Y1215994*
X1536025Y1215056*
X1533752Y1211931*
X1536934*
X1539207Y1212556D02*
X1538979Y1212244D01*
X1539207Y1211931*
X1539434Y1212244*
X1539207Y1212556*
X1542843Y1218494D02*
X1542161Y1218181D01*
X1541707Y1217244*
X1541479Y1215681*
Y1214744*
X1541707Y1213181*
X1542161Y1212244*
X1542843Y1211931*
X1543297*
X1543979Y1212244*
X1544434Y1213181*
X1544661Y1214744*
Y1215681*
X1544434Y1217244*
X1543979Y1218181*
X1543297Y1218494*
X1542843*
X1553070Y1216306D02*
X1552616Y1215994D01*
X1552161Y1215369*
X1551934Y1214431*
Y1213806*
X1552161Y1212869*
X1552616Y1212244*
X1553070Y1211931*
X1553752*
X1554207Y1212244*
X1554661Y1212869*
X1554888Y1213806*
Y1214431*
X1554661Y1215369*
X1554207Y1215994*
X1553752Y1216306*
X1553070*
X1559434D02*
X1556934Y1211931D01*
Y1216306D02*
X1559434D01*
X1556934Y1211931D02*
X1559434D01*
X1561707Y1212556D02*
X1561479Y1212244D01*
X1561707Y1211931*
X1561934Y1212244*
X1561707Y1212556*
X1572616Y1216931D02*
X1572388Y1217556D01*
X1571934Y1218181*
X1571479Y1218494*
X1570570*
X1570116Y1218181*
X1569661Y1217556*
X1569434Y1216931*
X1569207Y1215994*
Y1214431*
X1569434Y1213494*
X1569661Y1212869*
X1570116Y1212244*
X1570570Y1211931*
X1571479*
X1571934Y1212244*
X1572388Y1212869*
X1572616Y1213494*
X1574661Y1216306D02*
Y1213181D01*
X1574888Y1212244*
X1575343Y1211931*
X1576025*
X1576479Y1212244*
X1577161Y1213181*
Y1216306D02*
Y1211931D01*
X1584434Y1218494D02*
Y1211931D01*
X1586479Y1218494D02*
Y1211931D01*
Y1218494D02*
X1589661Y1211931D01*
Y1218494D02*
Y1211931D01*
X1591707Y1218494D02*
Y1211931D01*
Y1218494D02*
X1594888Y1211931D01*
Y1218494D02*
Y1211931D01*
X1596934Y1218494D02*
Y1211931D01*
Y1218494D02*
X1599888D01*
X1596934Y1215369D02*
X1598752D01*
X1596934Y1211931D02*
X1599888D01*
X1601934Y1218494D02*
Y1211931D01*
Y1218494D02*
X1603979D01*
X1604661Y1218181*
X1604888Y1217869*
X1605116Y1217244*
Y1216619*
X1604888Y1215994*
X1604661Y1215681*
X1603979Y1215369*
X1601934*
X1603525D02*
X1605116Y1211931D01*
X1612388Y1218494D02*
Y1211931D01*
X1615116*
X1618979Y1218494D02*
X1617161Y1211931D01*
X1618979Y1218494D02*
X1620797Y1211931D01*
X1617843Y1214119D02*
X1620116D01*
X1622843Y1218494D02*
X1624661Y1215369D01*
Y1211931*
X1626479Y1218494D02*
X1624661Y1215369D01*
X1628525Y1218494D02*
Y1211931D01*
Y1218494D02*
X1631479D01*
X1628525Y1215369D02*
X1630343D01*
X1628525Y1211931D02*
X1631479D01*
X1633525Y1218494D02*
Y1211931D01*
Y1218494D02*
X1635570D01*
X1636252Y1218181*
X1636479Y1217869*
X1636707Y1217244*
Y1216619*
X1636479Y1215994*
X1636252Y1215681*
X1635570Y1215369*
X1633525*
X1635116D02*
X1636707Y1211931D01*
X1641934Y1217556D02*
X1641479Y1218181D01*
X1640797Y1218494*
X1639888*
X1639207Y1218181*
X1638752Y1217556*
Y1216931*
X1638979Y1216306*
X1639207Y1215994*
X1639661Y1215681*
X1641025Y1215056*
X1641479Y1214744*
X1641707Y1214431*
X1641934Y1213806*
Y1212869*
X1641479Y1212244*
X1640797Y1211931*
X1639888*
X1639207Y1212244*
X1638752Y1212869*
G54D13*
X1483752Y1346931D02*
X1527059D01*
Y1390239*
X1771154*
Y1346931*
X2499500*
Y1890239*
X1483752*
Y1346931*
X1501813Y1358743D02*
G75*
G03X1501813I-6250J0D01*
G01X2493939D02*
G03X2493939I-6250J0D01*
G01X1509697Y1878428D02*
G03X1509697I-6260J0D01*
G01X2493949D02*
G03X2493949I-6260J0D01*
G01X1879776Y1358743D02*
G03X1879776I-6260J0D01*
G01Y1878428D02*
G03X1879776I-6260J0D01*
G01X2068752Y1358743D02*
G03X2068752I-6260J0D01*
G01X2289224D02*
G03X2289224I-6259J0D01*
G01X2178988Y1878428D02*
G03X2178988I-6260J0D01*
G01X2493949Y1654018D02*
G03X2493949I-6260J0D01*
G01X1879776Y1652050D02*
G03X1879776I-6260J0D01*
G54D15*
G01X2420366Y1515042D03*
X2199894Y1664648D03*
Y1814254D03*
G54D17*
X1373516Y1161892D02*
Y1162892D01*
Y1161892D02*
X1374516D01*
X1373516D02*
Y1160892D01*
Y1161892D02*
X1372516D01*
X1376516D02*
X1386516D01*
X1373516Y1158892D02*
Y1152092D01*
Y1164892D02*
Y1173892D01*
X1361516Y1161892D02*
X1370516D01*
X1379516D02*
G03X1379516I-6000J0D01*
G01X1377516D02*
G03X1377516I-4000J0D01*
G01X1373516Y2035908D02*
Y2036908D01*
Y2035908D02*
X1374516D01*
X1373516D02*
Y2034908D01*
Y2035908D02*
X1372516D01*
X1376516D02*
X1386516D01*
X1373516Y2032908D02*
Y2026108D01*
Y2038908D02*
Y2047908D01*
X1361516Y2035908D02*
X1370516D01*
X1379516D02*
G03X1379516I-6000J0D01*
G01X1377516D02*
G03X1377516I-4000J0D01*
G01X2625484D02*
Y2036908D01*
Y2035908D02*
X2626484D01*
X2625484D02*
Y2034908D01*
Y2035908D02*
X2624484D01*
X2628484D02*
X2638484D01*
X2625484Y2032908D02*
Y2026108D01*
Y2038908D02*
Y2047908D01*
X2613484Y2035908D02*
X2622484D01*
X2631484D02*
G03X2631484I-6000J0D01*
G01X2629484D02*
G03X2629484I-4000J0D01*
G54D69*
G01X1874992Y1413861D03*
X1874500Y1440435D03*
G54D70*
X1834933Y1383939D02*
X1838476D01*
X1852650Y1369766*
X2386902*
X2444382Y1427246*
Y1817010*
X1853831Y1378428D02*
X2376665D01*
X2427059Y1428821*
Y1487089*
X1853831Y1372916D02*
X2385327D01*
X2440445Y1428034*
Y1817010*
X1853831Y1381971D02*
X2293201D01*
X2358949Y1447719*
Y1478034*
X2379028Y1498113*
Y1506774*
X1834933Y1391026D02*
X1843594D01*
X1849894Y1384727*
X2292020*
X2356587Y1449294*
Y1479609*
X2368004Y1491026*
Y1506774*
X1834933Y1394569D02*
X1845563D01*
X1851862Y1388270*
X2229421*
X2296350Y1455199*
Y1478428*
X1834933Y1387483D02*
X1838476D01*
X1850287Y1375672*
X2377059*
X2429815Y1428428*
Y1485908*
X2433358Y1489451*
Y1617798*
X1853831Y1391420D02*
X1856587D01*
X1857374Y1390632*
X2228240*
X2280799Y1443191*
Y1467601*
X2281094Y1467896*
X2284539Y1471341*
Y1479215*
X1825091Y1441813D02*
X1841232Y1426459D01*
X1877059*
X1880996Y1422522*
Y1403231*
X1886902Y1397325*
X2225878*
X2266035Y1437483*
X1543791Y1460613D02*
Y1454215D01*
X1546744Y1451262*
X1629913*
X1643693Y1437483*
X1747531*
X1772335Y1412680*
X1823909*
X1825091Y1413861*
X1874992*
X1721547Y1447325D02*
X1827453D01*
X1844776Y1430002*
X1880209*
X1883358Y1426853*
Y1405199*
X1888870Y1399687*
X2224303*
X2254224Y1429609*
Y1437483*
X1779224Y1456971D02*
X1783358Y1461105D01*
X1823319*
X1843988Y1440435*
X1874500*
X1828634Y1461105D02*
X1906587D01*
X1910130Y1457561*
Y1424491*
X1914461Y1420160*
Y1419766*
X2042413*
X2045563Y1422916*
Y1437483*
X2404215Y1463457D02*
X2407374D01*
X2408949Y1465032*
Y1482365*
X2420366Y1493782*
Y1515042*
X1549697Y1473408D02*
X1567413D01*
X1584146Y1476853D02*
X1623122D01*
X1627846Y1481577*
X1785327*
X1792020Y1474884*
X1836114*
X1848900Y1487670*
X1871154*
X1640051Y1469766D02*
Y1461498D01*
X1660917Y1440632*
X1797531*
X1820760Y1417404*
X1829421*
X1832965Y1420947*
X1872335*
X1763280Y1465042D02*
X1909736D01*
X1912886Y1461892*
Y1426853*
X1917217Y1422522*
X2029815*
X2033949Y1426656*
Y1437483*
X2056193Y1482365D02*
X2059736Y1478821D01*
X2099500*
X2101075Y1480396*
X2136902*
X2163280Y1506774*
X2276665Y1482365D02*
X2303043Y1508743D01*
X2340839*
X2342020Y1509924*
X2380602*
X2383752Y1506774*
X2292413Y1482365D02*
X2296350Y1478428D01*
X2281390Y1482365D02*
X2284539Y1479215D01*
X1635720Y1504018D02*
X1643201D01*
X1649500Y1497719*
X1728683*
X1731833Y1500869*
Y1505593*
X1640248Y1491813D02*
Y1487680D01*
X1643201Y1484727*
X1640248Y1491813D02*
X1643398Y1494963D01*
X1749894*
X1753831Y1498900*
X1829421*
X1834933Y1504412*
X1894677*
X1898614Y1508349*
X1645169Y1490632D02*
X1647138Y1488664D01*
X1834146*
X1843988Y1498506*
X1887295*
X1889264Y1496538*
Y1494176*
X1650091Y1515731D02*
X1654520Y1520160D01*
X1771154*
X1775091Y1524097*
Y1531971*
X1779126Y1536006*
X1782965*
X1726862Y1505199D02*
X1730209Y1508546D01*
X1768004*
X1771350Y1505199*
X1802650*
X1741035Y1512680D02*
X1773122D01*
X1776567Y1509333*
X1893004*
X1895760Y1512089*
X1901862*
X1912492Y1501459*
X1937295*
X1942610Y1506774*
X1942807*
X1835130Y1518979D02*
X1838476D01*
X1841232Y1521735*
X1967217*
X1969972Y1518979*
X2005012*
X2035327Y1488664*
X2057768*
X2060917Y1485514*
Y1482365*
X1835130Y1515435D02*
X1840051D01*
X1843594Y1518979*
X1929815*
X1938083Y1510711*
Y1506774*
X1835130Y1522522D02*
X1843594Y1530987D01*
X1899500*
X1904224Y1535711*
X1963083*
X1966035Y1532758*
X1989067*
X1992020Y1535711*
X2004028*
X2033358Y1506380*
X2097925*
X2100287Y1508743*
X2108696*
X2118145Y1518191*
X2152650*
X2156587Y1514254*
Y1508743*
X2158555Y1506774*
X1845957Y1515435D02*
X1903043D01*
X1907079Y1511400*
X1924598*
X1927059Y1508939*
Y1506774*
X1942807D02*
X1955406D01*
X1960917Y1501262*
X1993988*
X2002256Y1492994*
X2023516*
X2034146Y1482365*
X2056193*
X2163280Y1506774D02*
X2176665D01*
X2185720Y1497719*
X2213280*
X2222728Y1488270*
X2270760*
X2276665Y1482365*
X2383752Y1506774D02*
X2397138D01*
X2402059Y1511695*
Y1520160*
X2402256*
X2418398Y1536302*
Y1621735*
X1625091Y1526065D02*
Y1520554D01*
X1633358Y1512286*
X1696350*
X1699303Y1515239*
X1645248Y1526065D02*
X1651154Y1531971D01*
X1759598*
X1763043Y1528526*
Y1526065*
X1782965Y1525672D02*
X1787689Y1530396D01*
X1848713Y1528034D02*
X2007768D01*
X2032177Y1503624*
X2110917*
X2115642Y1508349*
X2116823Y1509530*
X2143594*
X2144776*
X2147531Y1506774*
X1845957Y1524884D02*
X2003043D01*
X2035327Y1492601*
X2065248*
X2071941Y1485908*
Y1482365*
X1630248Y1557561D02*
X1634972Y1552837D01*
X1640524*
X1645248Y1557561*
X1640248Y1568191D02*
X1643398Y1571341D01*
X1670760*
X1674303Y1567798*
Y1557955*
X1688476Y1543782*
X1781390*
X1787689Y1537483*
Y1530396*
X1716429Y1578034D02*
Y1586498D01*
X1717020Y1587089*
X1716429Y1578034D02*
X1730602Y1563861D01*
X1812098*
X1837689Y1538270*
X1966429*
X1969579Y1535120*
X1987689*
X1990839Y1538270*
X2016035*
X2031783Y1554018*
X2100681*
X2115248Y1539451*
X2190445*
X2192020Y1541026*
X2199106*
X2200681Y1539451*
X2240051*
X2244382Y1543782*
Y1555199*
X2248713Y1559530*
X2302256*
X2317217Y1544569*
X2324303*
X2327453Y1547719*
X2402059*
X2405996Y1551656*
X1668398Y1602050D02*
X1742020D01*
X1712098Y1587089D02*
X1712282Y1587272D01*
Y1591997*
X1716429Y1596144*
X1891626*
X1896744Y1591026*
Y1587089*
X1910524Y1573309*
X1978634*
X1986114Y1565829*
X2086114*
X2092807Y1572522*
X2110524*
X2111705Y1571341*
X2123516*
X2126272Y1568585*
X2267610*
X2283752Y1584727*
X2295957*
X2330602Y1619372*
Y1682365*
X2335720Y1687483*
X2373516*
X2391626Y1705593*
X2397925*
X2402256Y1701262*
X2405996*
X1727354Y1587089D02*
Y1571341D01*
X1732079Y1566617*
X1738083*
X1741626Y1570160*
X1809736*
X1839264Y1540632*
X2012886*
X2028634Y1556380*
X2103831*
X2112492Y1547719*
X2183949*
X2185524Y1549294*
Y1551656*
X1737197Y1587089D02*
Y1575278D01*
X1739559Y1572916*
X1810524*
X1837492Y1545947*
X1962492*
X1965051Y1548506*
Y1551656*
X1795898Y1587089D02*
X1799441Y1590632D01*
X1885327*
X1890445Y1585514*
Y1573703*
X1896744Y1567404*
X1976665*
X1982965Y1561105*
X2192020*
X2194382Y1563467*
X2312098*
X2320169Y1555396*
X2390839*
X2394382Y1551853*
Y1551656*
X1790898Y1587089D02*
Y1591026D01*
X1793654Y1593782*
X1890051*
X1894382Y1589451*
Y1585514*
X1908949Y1570947*
X1977059*
X1980209Y1567798*
X1984539Y1563467*
X2088083*
X2094776Y1570160*
X2106980*
X2111311Y1565829*
X2197138*
X2270760*
X2272728Y1567798*
X2282571Y1577640*
X2298713*
X2332965Y1611892*
Y1679412*
X2339067Y1685514*
X2378634*
X2394382Y1701262*
X1790898Y1601656D02*
X1895169D01*
X1910130Y1586695*
Y1582758*
X1914854Y1578034*
X1999500*
X2000878Y1579412*
X2058358*
X2061311Y1582365*
X2264461*
X2266035Y1583939*
Y1587089*
X1785898Y1598900D02*
X1893988D01*
X1907374Y1585514*
Y1581577*
X1913280Y1575672*
X1982177*
X1989657Y1568191*
X2075091*
X2084146Y1577246*
X2134539*
X2140445Y1571341*
X2266040*
X2281783Y1587084*
X2286902*
X2293594Y1587088*
X2294776*
X2328240Y1620947*
Y1685120*
X2344382Y1701262*
Y1829609*
X2365642Y1850869*
X2394382*
X1815898Y1587089D02*
Y1574884D01*
X1816035*
X1836045Y1554874*
X1836439*
X1836508Y1554806*
X1950287*
X1953437Y1551656*
X1805898Y1587089D02*
Y1581183D01*
X1838575Y1548506*
X1955799*
X1961902Y1554609*
X1995366*
X1999500Y1558743*
X2105799*
X2108949Y1555593*
X2172335*
X2173909Y1554018*
Y1551656*
X1673122Y1607561D02*
X1820760D01*
X1717157Y1615829D02*
X1904618D01*
X1916823Y1628034*
X1969579*
X1987295Y1610317*
X2121547*
X2124697Y1613467*
Y1630987*
X2127846Y1634136*
X2161705*
X2185524Y1657955*
Y1701262*
X1712157Y1604806D02*
X1895957D01*
X1912886Y1587876*
Y1584333*
X1916823Y1580396*
X1998122*
X1999303Y1581577*
X2057177*
X2060327Y1584727*
X2248319*
X2250681Y1587089*
X2254224*
X1732157Y1613073D02*
X1895563D01*
X1918398Y1590239*
Y1588270*
X1921547Y1585120*
X1978634*
X1983358Y1589845*
X1998713*
X2001862Y1586695*
X2034146*
X1795898Y1621735D02*
X1887689D01*
X1890839Y1624884*
X1903043*
X1911705Y1633546*
X1974303*
X1989264Y1618585*
X2116035*
X2118398Y1620947*
Y1639057*
X2121154Y1641813*
X2158161*
X2173909Y1657561*
Y1701262*
X1810898Y1610317D02*
X1893988D01*
X1915642Y1588664*
Y1586302*
X1919185Y1582758*
X1979815*
X1984146Y1587089*
X1997138*
X2000287Y1583939*
X2036902*
X2039657Y1586695*
X2045563*
X2183742Y1613064D02*
X2186902D01*
X2188476Y1614638*
Y1631971*
X2199894Y1643388*
Y1664648*
X1707157Y1634825D02*
Y1622522D01*
X1710701Y1618979*
X1902256*
X1914067Y1630790*
X1971547*
X1989264Y1613073*
X2118398*
X2121941Y1616617*
Y1634727*
X2124303Y1637089*
X2158949*
X2179815Y1657955*
Y1711498*
X2184146Y1715829*
X2237689*
X2247925Y1726065*
Y1730396*
X2254224Y1736695*
X1727157Y1634825D02*
Y1629609D01*
X1729913Y1626853*
X1774303*
X1779028Y1631577*
Y1636302*
X1781390Y1638664*
X1786114*
X1788476Y1636302*
Y1632365*
X1793988Y1626853*
X1880602*
X1888870Y1635120*
X1903831*
X1907768Y1639057*
X1977846*
X1990445Y1626459*
X2020366*
X2023516Y1623309*
X2054224*
X2056980Y1626065*
X2085327*
X2093201Y1633939*
Y1644963*
X1737157Y1634825D02*
Y1646931D01*
X1743457Y1653231*
X1788083*
X1796744Y1661892*
Y1676459*
X1804224Y1683939*
X1942413*
X1946350Y1687876*
Y1701656*
X1949894Y1705199*
X1961114*
X1965051Y1701262*
X1785898Y1634825D02*
Y1630790D01*
X1792197Y1624491*
X1883358*
X1888870Y1630002*
X1903437*
X1909736Y1636302*
X1975878*
X1991232Y1620947*
X2108949*
X2111311Y1623309*
Y1643782*
X2114067Y1646538*
X2134146*
X2137689Y1650081*
X2161705*
X2169185Y1657561*
Y1711302*
X2177059Y1719176*
X2231783*
X2244972Y1732365*
Y1734727*
X2250091Y1739845*
X2263083*
X2266232Y1736695*
X1805898Y1634825D02*
X1811114Y1629609D01*
X1877059*
X1887295Y1639845*
X1903437*
X1905406Y1641813*
X1984539*
X1997531Y1628821*
X2074303*
X2085720Y1640239*
Y1713073*
X2060917Y1631971D02*
Y1640632D01*
X2078240Y1657955*
X2071941Y1631971D02*
Y1643782D01*
X2082177Y1654018*
X2239657Y1624097D02*
Y1644569D01*
X2247531Y1652443*
Y1671351*
X2251469Y1675288*
X2256202*
X2281390Y1631971D02*
Y1641715D01*
X2285819Y1646144*
X2292807*
X2300681Y1654018*
Y1724884*
X2292413Y1631971D02*
Y1639845D01*
X2303043Y1650475*
X1656980Y1654018D02*
X1671941D01*
X1675484Y1650475*
X1721547*
X1726862Y1655790*
Y1678624*
X1736902Y1688664*
X1771154*
X1802256Y1719766*
Y1744569*
X1826469Y1768782*
X1837886*
X1876665Y1807561*
X1895169*
X1907374Y1819766*
X1942413*
X1963673Y1841026*
Y1844176*
X1965642Y1846144*
X1971154*
X1704224Y1654412D02*
X1716035D01*
X1721547Y1659924*
Y1683152*
X1738083Y1699687*
X1774697*
X1798713Y1723703*
Y1757955*
X1814657Y1773900*
X1835524*
X1852256Y1790632*
Y1864254*
X1854618Y1866617*
X1882571*
X1890445Y1874491*
X2019972*
X2022335Y1872128*
X2152256*
X2157768Y1866617*
X2186508*
X2196744Y1876853*
X2288083*
X2293594Y1871341*
X2396154*
X2405996Y1861498*
Y1850869*
X1820858Y1646144D02*
X1823024Y1648309D01*
X1848713*
X1850878Y1646144*
X1815898Y1655790D02*
X1853240D01*
X1876665Y1679215*
X1949894*
X1953437Y1682758*
Y1701262*
X1942807Y1656380D02*
Y1652837D01*
X1947138Y1648506*
X1994776*
X2001862Y1641420*
X2029421*
X2038870Y1631971*
X2056193*
X2368004Y1656380D02*
Y1660317D01*
X2369972Y1662286*
X2388870*
X2433358Y1617798*
X2379028Y1656380D02*
X2381783Y1659136D01*
X2388476*
X2427059Y1620554*
Y1487089*
X2383752Y1656380D02*
X2418398Y1621735D01*
X1881390Y1674294D02*
X1929421D01*
X1934933Y1668782*
Y1662680*
X1938083Y1659530*
Y1656380*
X1873516Y1698703D02*
X1880012Y1705199D01*
X1901469*
X1904618Y1708349*
Y1724884*
X1916823Y1737089*
Y1785120*
X1927059Y1795357*
Y1805987*
X1888870Y1701656D02*
X1902650D01*
X1907768Y1706774*
Y1723113*
X1919972Y1735317*
Y1783546*
X1928240Y1791813*
X1933358*
X1938083Y1796538*
Y1805987*
X1895169Y1688270D02*
X1911705D01*
X1932571Y1709136*
X1968791*
X1972728Y1713073*
X2073122*
X2078240Y1707955*
Y1657955*
X1881390Y1695160D02*
X1905209D01*
X1916823Y1706774*
Y1718388*
X1923319Y1724884*
X1967610*
X1990839Y1748113*
Y1756774*
X1994382Y1760317*
X2068398*
X2071941Y1763861*
X2073516Y1765435*
Y1775672*
X1881390Y1691617D02*
X1911114D01*
X1925484Y1705987*
Y1713073*
X1929421Y1717010*
X2073909*
X2082177Y1708743*
Y1654018*
X1892020Y1698506D02*
X1904224D01*
X1914067Y1708349*
Y1720947*
X1921941Y1729609*
X1967217*
X1988083Y1750475*
Y1757955*
X1993201Y1763073*
X2053043*
X2056193Y1766223*
Y1773703*
X2060917Y1778428*
Y1781577*
X1897138Y1709136D02*
X1895563Y1710711D01*
Y1742601*
X1911311Y1758349*
Y1788270*
X1923122Y1800081*
Y1806774*
X1925878Y1809530*
X1941626*
X1942807Y1808349*
Y1805987*
X2033949Y1736695D02*
Y1740632D01*
X2071941*
X2082965Y1729609*
Y1720554*
X2088083Y1715435*
Y1650081*
X2093201Y1644963*
X2045563Y1736695D02*
X2048713Y1733546D01*
X2065248*
X2085720Y1713073*
X1752453Y1758743D02*
X1755406Y1761695D01*
Y1774884*
X1802650Y1751656D02*
Y1755593D01*
X1818102Y1771046*
X1836409*
X1876862Y1811498*
X1895169*
X1906193Y1822522*
X1941626*
X1960524Y1841420*
Y1848900*
X1962492Y1850869*
X1965051*
X1963280Y1762680D02*
X1968004D01*
X1971941Y1766617*
Y1785908*
X1979421Y1793388*
Y1813861*
X2183742Y1762670D02*
X2186902D01*
X2188476Y1764245*
Y1781577*
X2199894Y1792994*
Y1814254*
X1761311Y1783939D02*
X1749500D01*
Y1780790*
X1755406Y1774884*
X2019185Y1773703D02*
Y1794176D01*
X2027059Y1802050*
Y1820957*
X2030996Y1824894*
X2035730*
X2071941Y1781577D02*
Y1777246D01*
X2073516Y1775672*
X2239657Y1773703D02*
Y1794176D01*
X2247531Y1802050*
Y1820957*
X2251469Y1824894*
X2256202*
X2292413Y1781577D02*
Y1795357D01*
X2302256Y1805199*
X2281390Y1781577D02*
Y1788861D01*
X2298614Y1806085*
X2368004Y1805987D02*
X2374106Y1812089D01*
Y1823900*
X2377453Y1827246*
X2434146*
X2444382Y1817010*
X2379028Y1805987D02*
X2384539Y1811498D01*
Y1820947*
X2388476Y1824884*
X2432571*
X2440445Y1817010*
X1892709Y1842207D02*
Y1829117D01*
X1894776Y1827050*
X1898122*
X1892709Y1842207D02*
X1895858Y1845357D01*
X1910917*
X1912886Y1847325*
Y1860317*
X1915248Y1862680*
X2001862*
X2004224Y1860317*
X2081783*
X2116823Y1825278*
X2145760*
X2153535Y1817502*
Y1814648*
X2158555Y1809628*
Y1805987*
X1896547Y1830593D02*
X1896646D01*
Y1841026*
X1898614Y1842994*
X1918398*
X1920760Y1845357*
Y1855199*
X1923122Y1857561*
X1996350*
X2001075Y1852837*
X2024254*
X2027059Y1855642*
X2079520*
X2125976Y1809185*
Y1677640*
X2129913Y1673703*
X2146744*
X2158555Y1661892*
Y1656380*
X1886114Y1848113D02*
Y1821931D01*
X1888083Y1819963*
X1898122*
X1886114Y1848113D02*
X1888870Y1850869D01*
X1899106*
X1901075Y1852837*
Y1867798*
X1903043Y1869766*
X2016035*
X2018398Y1867404*
X2148319*
X2156980Y1858743*
X2194480*
X2202354Y1866617*
X2285327*
X2298614Y1853329*
Y1806085*
X1889264Y1845750D02*
Y1825869D01*
X1889264D02*
X1891626Y1823506D01*
X1896547*
X1889264Y1845750D02*
X1891626Y1848113D01*
X1907374*
X1908949Y1849687*
Y1862680*
X1911311Y1865042*
X2012492*
X2014854Y1862680*
X2083358*
X2093201Y1852837*
X2155406*
X2180996Y1827246*
X2210917*
X2219972Y1818191*
Y1783939*
X2255012Y1748900*
X2282177*
X2300681Y1730396*
Y1724884*
X1897138Y1854806D02*
Y1869372D01*
X1899894Y1872128*
X2018398*
X2020760Y1869766*
X2149894*
X2155799Y1863861*
X2192020*
X2198713Y1870554*
X2286508*
X1905012Y1854806D02*
Y1864648D01*
X1907768Y1867404*
X2014067*
X2016232Y1865239*
X2085524*
X2095169Y1855593*
X2156587*
X2180996Y1831183*
X2210917*
X2222728Y1819372*
Y1785120*
X2255406Y1752443*
X2284146*
X2303043Y1733546*
Y1650475*
X1916823Y1854806D02*
Y1858349D01*
X1918791Y1860317*
X1999106*
X2001469Y1857955*
X2080602*
X2115642Y1822916*
X2139657*
X2143594Y1818979*
Y1812680*
X2147531Y1808743*
Y1805987*
X1924697Y1854806D02*
X1968791D01*
X1973122Y1850475*
X2027059*
X2029815Y1853231*
X2077846*
X2123516Y1807561*
Y1675278*
X2130602Y1668191*
X2142709*
X2144419Y1666481*
Y1659493*
X2147531Y1656380*
X2286508Y1870554D02*
X2302256Y1854806D01*
Y1805199*
G54D71*
X1965051Y1850869D03*
X1953437Y1701262D03*
X1965051D03*
X2045563Y1586695D03*
X2034146D03*
X2045563Y1736695D03*
X2033949D03*
X2185524Y1701262D03*
X2173909D03*
X2266035Y1587089D03*
X2254224D03*
X2266232Y1736695D03*
X2254224D03*
X2266035Y1437483D03*
X2254224D03*
X2173909Y1551656D03*
X2185524D03*
X2045563Y1437483D03*
X2033949D03*
X1953437Y1551656D03*
X1965051D03*
X1584146Y1476853D03*
X2394382Y1850869D03*
X2405996D03*
X2394382Y1701262D03*
X2405996D03*
X2394382Y1551656D03*
X2405996D03*
X1834933Y1383939D03*
X1853831Y1378428D03*
Y1372916D03*
Y1381971D03*
X1834933Y1391026D03*
Y1394569D03*
Y1387483D03*
X1853831Y1391420D03*
X1872335Y1420947D03*
X1825091Y1441813D03*
X1543791Y1460613D03*
X1721547Y1447325D03*
X1779224Y1456971D03*
X1828634Y1461105D03*
X1549697Y1473408D03*
X1567413D03*
X1640051Y1469766D03*
X1763280Y1465042D03*
X2056193Y1482365D03*
X2060917D03*
X2071941D03*
X2276665D03*
X2292413D03*
X2281390D03*
X1635720Y1504018D03*
X1643201Y1484727D03*
X1645169Y1490632D03*
X1871154Y1487670D03*
X1889264Y1494176D03*
X1650091Y1515731D03*
X1699303Y1515239D03*
X1726862Y1505199D03*
X1731833Y1505593D03*
X1741035Y1512680D03*
X1802650Y1505199D03*
X1835130Y1518979D03*
Y1515435D03*
Y1522522D03*
X1845957Y1515435D03*
X1898614Y1508349D03*
X1927059Y1506774D03*
X1938083D03*
X1942807D03*
X2147531D03*
X2158555D03*
X2163280D03*
X2368004D03*
X2379028D03*
X2383752D03*
X1625091Y1526065D03*
X1645248D03*
X1763043D03*
X1782965Y1525672D03*
Y1536006D03*
X1848713Y1528034D03*
X1845957Y1524884D03*
X1630248Y1557561D03*
X1645248D03*
X1640248Y1568191D03*
X1668398Y1602050D03*
X1712098Y1587089D03*
X1717020D03*
X1727354D03*
X1737197D03*
X1742020Y1602050D03*
X1795898Y1587089D03*
X1790898D03*
Y1601656D03*
X1785898Y1598900D03*
X1815898Y1587089D03*
X1805898D03*
X1673122Y1607561D03*
X1717157Y1615829D03*
X1712157Y1604806D03*
X1732157Y1613073D03*
X1795898Y1621735D03*
X1810898Y1610317D03*
X1820760Y1607561D03*
X1707157Y1634825D03*
X1727157D03*
X1737157D03*
X1785898D03*
X1805898D03*
X2056193Y1631971D03*
X2060917D03*
X2071941D03*
X2239657Y1624097D03*
X2281390Y1631971D03*
X2292413D03*
X1656980Y1654018D03*
X1704224Y1654412D03*
X1820858Y1646144D03*
X1815898Y1655790D03*
X1850878Y1646144D03*
X1938083Y1656380D03*
X1942807D03*
X2158555D03*
X2147531D03*
X2368004D03*
X2379028D03*
X2383752D03*
X1881390Y1674294D03*
X1873516Y1698703D03*
X1888870Y1701656D03*
X1895169Y1688270D03*
X1881390Y1695160D03*
Y1691617D03*
X1892020Y1698506D03*
X1897138Y1709136D03*
X1752453Y1758743D03*
X1802650Y1751656D03*
X1749500Y1783939D03*
X1761311D03*
X2019185Y1773703D03*
X2071941Y1781577D03*
X2060917D03*
X2239657Y1773703D03*
X2292413Y1781577D03*
X2281390D03*
X1898122Y1819963D03*
X1896547Y1823506D03*
X1927059Y1805987D03*
X1938083D03*
X1942807D03*
X1979421Y1813861D03*
X2158555Y1805987D03*
X2147531D03*
X2368004D03*
X2379028D03*
X1896547Y1830593D03*
X1898122Y1827050D03*
X1897138Y1854806D03*
X1905012D03*
X1916823D03*
X1924697D03*
X1971154Y1846144D03*
G54D163*
X2404215Y1463457D03*
X2183742Y1613064D03*
X2256202Y1675288D03*
X1963280Y1762680D03*
X2183742Y1762670D03*
X2035730Y1824894D03*
X2256202D03*
G74*
X0Y0D02*
M02*
