M48
;FILE_FORMAT=2:4
INCH,LZ
FMAT,2
ICI,OFF
;TYPE=PLATED
T1C.008
T2C.012
T3C.014
T4C.016
T5C.04
T6C.07
;TYPE=NON_PLATED
T7C.11024
T8C.118
%
M72
G90
G93X0Y0
T1C.008F0S0
X016634Y009291
X016929Y009547
X016339Y009567
X01626Y010433
X018799Y011024
X019291Y011024
X027441Y040039
X02685Y040039
X026535Y040039
X027165Y040039
X027441Y039764
X02685Y039764
X026535Y039764
X027165Y039764
X026535Y039488
X027441Y039488
X02685Y039488
X027165Y039488
X027165Y033219
X027165Y032923
X045118Y009134
X044803Y009134
X044488Y009134
X045118Y009449
X044488Y009449
X044173Y009449
X044803Y009449
X044803Y009764
X044173Y009764
X044488Y009764
X045118Y009764
X044173Y010079
X044803Y010079
X044488Y010079
X045118Y010079
X044488Y010394
X045118Y010394
X044803Y010394
X044173Y010394
X044488Y010709
X044803Y010709
X044173Y010709
X045118Y010709
X044803Y011339
X044488Y011339
X045118Y011339
X044488Y011654
X045118Y011654
X044803Y011654
X045118Y011969
X044803Y011969
X044488Y011969
X045118Y012283
X044488Y012283
X044803Y012283
X045118Y012598
X044803Y012598
X044488Y012598
X044173Y012598
X045118Y024094
X044803Y024094
X044488Y024094
X045118Y024409
X044803Y024409
X044488Y024409
X044173Y024409
X044488Y024724
X044803Y024724
X044173Y024724
X045118Y024724
X044803Y025039
X044488Y025039
X044173Y025039
X045118Y025039
X044173Y025354
X045118Y025354
X044488Y025354
X044803Y025354
X044803Y025669
X044488Y025669
X045118Y025669
X044173Y025669
X044803Y026299
X044488Y026299
X045118Y026299
X045118Y026614
X044803Y026614
X044488Y026614
X044488Y026929
X045118Y026929
X044803Y026929
X045118Y027244
X044803Y027244
X044488Y027244
X044803Y027559
X044173Y027559
X044488Y027559
X045118Y027559
X045118Y039055
X044803Y039055
X044488Y039055
X044488Y03937
X045118Y03937
X044173Y03937
X044803Y03937
X044173Y039685
X044803Y039685
X045118Y039685
X044488Y039685
X045118Y04
X044803Y04
X044488Y04
X044173Y04
X045118Y040315
X044488Y040315
X044803Y040315
X044173Y040315
X044173Y04063
X044803Y04063
X045118Y04063
X044488Y04063
X045118Y04126
X044803Y04126
X044488Y04126
X044488Y041575
X045118Y041575
X044803Y041575
X044803Y04189
X044488Y04189
X045118Y04189
X044803Y042205
X045118Y042205
X044488Y042205
X045118Y04252
X044803Y04252
X044488Y04252
X044173Y04252
X045433Y04252
X045748Y04252
X046693Y04252
X047638Y04252
X047008Y04252
X047323Y04252
X046378Y04252
X045433Y042205
X046378Y042205
X046693Y042205
X045748Y042205
X047008Y042205
X047323Y042205
X047638Y042205
X045433Y04189
X046693Y04189
X046378Y04189
X045748Y04189
X047008Y04189
X047323Y04189
X047638Y04189
X045433Y041575
X046378Y041575
X045748Y041575
X047323Y041575
X047638Y041575
X047008Y041575
X046693Y041575
X045433Y04126
X046378Y04126
X046693Y04126
X045748Y04126
X047008Y04126
X047638Y04126
X047323Y04126
X045433Y04063
X045748Y04063
X046693Y04063
X047008Y04063
X047323Y04063
X046378Y04063
X047638Y04063
X045433Y040315
X045748Y040315
X047008Y040315
X047323Y040315
X047638Y040315
X046693Y040315
X046378Y040315
X045433Y04
X046378Y04
X046693Y04
X045748Y04
X047008Y04
X047323Y04
X047638Y04
X045433Y039685
X045748Y039685
X046378Y039685
X046693Y039685
X047008Y039685
X047323Y039685
X047638Y039685
X045433Y03937
X045748Y03937
X047008Y03937
X047323Y03937
X047638Y03937
X046378Y03937
X046693Y03937
X045433Y039055
X046693Y039055
X045748Y039055
X047008Y039055
X047323Y039055
X047638Y039055
X046378Y039055
X045433Y027559
X046378Y027559
X046693Y027559
X047008Y027559
X047323Y027559
X047638Y027559
X045748Y027559
X046693Y027244
X047008Y027244
X047323Y027244
X047638Y027244
X045748Y027244
X046378Y027244
X045433Y027244
X047323Y026929
X047638Y026929
X045748Y026929
X047008Y026929
X046378Y026929
X046693Y026929
X045433Y026929
X045748Y026614
X046378Y026614
X047638Y026614
X047323Y026614
X046693Y026614
X047008Y026614
X045433Y026614
X045748Y026299
X046693Y026299
X046378Y026299
X047008Y026299
X047638Y026299
X047323Y026299
X045433Y026299
X045748Y025669
X046693Y025669
X047008Y025669
X047323Y025669
X047638Y025669
X046378Y025669
X045433Y025669
X047323Y025354
X045748Y025354
X047638Y025354
X045433Y025354
X046378Y025354
X047008Y025354
X046693Y025354
X045748Y025039
X047638Y025039
X046378Y025039
X047323Y025039
X047008Y025039
X045433Y025039
X046693Y025039
X047638Y024724
X047323Y024724
X047008Y024724
X045748Y024724
X046693Y024724
X045433Y024724
X046378Y024724
X047638Y024409
X047008Y024409
X045748Y024409
X047323Y024409
X046693Y024409
X045433Y024409
X046378Y024409
X047008Y024094
X047323Y024094
X046693Y024094
X045748Y024094
X045433Y024094
X046378Y024094
X047638Y024094
X045433Y012598
X045748Y012598
X047323Y012598
X046693Y012598
X047638Y012598
X047008Y012598
X046378Y012598
X045433Y012283
X047008Y012283
X046378Y012283
X046693Y012283
X047323Y012283
X047638Y012283
X045748Y012283
X045433Y011969
X046378Y011969
X045748Y011969
X046693Y011969
X047008Y011969
X047323Y011969
X047638Y011969
X045433Y011654
X047638Y011654
X046378Y011654
X046693Y011654
X045748Y011654
X047008Y011654
X047323Y011654
X045748Y011339
X047008Y011339
X047323Y011339
X047638Y011339
X046378Y011339
X046693Y011339
X045433Y011339
X045748Y010709
X046378Y010709
X046693Y010709
X045433Y010709
X047008Y010709
X047323Y010709
X047638Y010709
X047008Y010394
X045748Y010394
X047638Y010394
X046378Y010394
X045433Y010394
X047323Y010394
X046693Y010394
X047638Y010079
X047008Y010079
X047323Y010079
X045433Y010079
X046378Y010079
X046693Y010079
X045748Y010079
X047638Y009764
X046378Y009764
X047323Y009764
X045748Y009764
X046693Y009764
X045433Y009764
X047008Y009764
X047008Y009449
X046378Y009449
X045748Y009449
X045433Y009449
X046693Y009449
X047323Y009449
X047638Y009449
X046693Y009134
X045748Y009134
X047008Y009134
X046378Y009134
X047323Y009134
X045433Y009134
X047638Y009134
X047953Y009449
X047953Y009764
X047953Y010079
X047953Y010394
X047953Y010709
X047953Y011339
X047952Y011653
X047953Y012283
X049567Y016811
X047953Y024409
X047953Y024724
X047953Y025039
X047953Y025354
X047953Y025669
X047953Y026299
X047952Y026613
X047953Y027244
X05Y028976
X049843Y030945
X049291Y030945
X04874Y030955
X049567Y031772
X04877Y03253
X047953Y03937
X047953Y039685
X047953Y04
X047953Y040315
X047953Y04063
X047953Y04126
X047953Y041575
X047953Y04189
X047953Y042205
X04874Y045866
X049291Y045866
X049843Y045866
X055197Y05
X055197Y049685
X055197Y04937
X055197Y049055
X055197Y04874
X055197Y04811
X055198Y047796
X055197Y047165
X053307Y043543
X054409Y043543
X053858Y043543
X05435Y04189
X055197Y035039
X055197Y034724
X055197Y034409
X055197Y034094
X055197Y03378
X055197Y03315
X055197Y032835
X055197Y032205
X055197Y020079
X055197Y019764
X055197Y019449
X055197Y019134
X055197Y018819
X055197Y018189
X055197Y017874
X055197Y017244
X053307Y013583
X054409Y013583
X053858Y013583
X057638Y012677
X056457Y016929
X056772Y016929
X057717Y016929
X055512Y016929
X057402Y016929
X055827Y016929
X056142Y016929
X056772Y017244
X056457Y017244
X057717Y017244
X055512Y017244
X055827Y017244
X056142Y017244
X057402Y017244
X056772Y017559
X057717Y017559
X055827Y017559
X055512Y017559
X056457Y017559
X057402Y017559
X056142Y017559
X056772Y017874
X057402Y017874
X057717Y017874
X055512Y017874
X056142Y017874
X056457Y017874
X055827Y017874
X056142Y018189
X057717Y018189
X056457Y018189
X055512Y018189
X057402Y018189
X055827Y018189
X056772Y018189
X057717Y018819
X056772Y018819
X057402Y018819
X056142Y018819
X055512Y018819
X055827Y018819
X056457Y018819
X055827Y019134
X056457Y019134
X056142Y019134
X056772Y019134
X057402Y019134
X055512Y019134
X057717Y019134
X056457Y019449
X056772Y019449
X057402Y019449
X057717Y019449
X055512Y019449
X056142Y019449
X055827Y019449
X057717Y019764
X055512Y019764
X057402Y019764
X056142Y019764
X056772Y019764
X055827Y019764
X056457Y019764
X057402Y020079
X056772Y020079
X057717Y020079
X055827Y020079
X055512Y020079
X056457Y020079
X056142Y020079
X056142Y020394
X057402Y020394
X055827Y020394
X057717Y020394
X056457Y020394
X056772Y020394
X055512Y020394
X055827Y03189
X056772Y03189
X056457Y03189
X057717Y03189
X057402Y03189
X055512Y03189
X056142Y03189
X057402Y032205
X057717Y032205
X056772Y032205
X055512Y032205
X056142Y032205
X056457Y032205
X055827Y032205
X057717Y03252
X056457Y03252
X055827Y03252
X055512Y03252
X057402Y03252
X056142Y03252
X056772Y03252
X056457Y032835
X056142Y032835
X057402Y032835
X055512Y032835
X055827Y032835
X057717Y032835
X056772Y032835
X056457Y03315
X055512Y03315
X056142Y03315
X055827Y03315
X057717Y03315
X056772Y03315
X057402Y03315
X056142Y03378
X056457Y03378
X057402Y03378
X056772Y03378
X057717Y03378
X055512Y03378
X055827Y03378
X057402Y034094
X055827Y034094
X057717Y034094
X055512Y034094
X056772Y034094
X056142Y034094
X056457Y034094
X056772Y034409
X056457Y034409
X057717Y034409
X056142Y034409
X055827Y034409
X057402Y034409
X055512Y034409
X057717Y034724
X055827Y034724
X056457Y034724
X055512Y034724
X056142Y034724
X056772Y034724
X057402Y034724
X056772Y035039
X055827Y035039
X055512Y035039
X057717Y035039
X057402Y035039
X056142Y035039
X056457Y035039
X056772Y035354
X055827Y035354
X057717Y035354
X056142Y035354
X057402Y035354
X056457Y035354
X055512Y035354
X057598Y042598
X055512Y04685
X056142Y04685
X056457Y04685
X056772Y04685
X057402Y04685
X055827Y04685
X057717Y04685
X056142Y047165
X055512Y047165
X056457Y047165
X055827Y047165
X057402Y047165
X056772Y047165
X057717Y047165
X056142Y04748
X056772Y04748
X056457Y04748
X055827Y04748
X057717Y04748
X055512Y04748
X057402Y04748
X055512Y047795
X055827Y047795
X056142Y047795
X057402Y047795
X056772Y047795
X056457Y047795
X057717Y047795
X055827Y04811
X056457Y04811
X056772Y04811
X055512Y04811
X057402Y04811
X056142Y04811
X057717Y04811
X055512Y04874
X056142Y04874
X056457Y04874
X056772Y04874
X055827Y04874
X057402Y04874
X057717Y04874
X055512Y049055
X056457Y049055
X056772Y049055
X057402Y049055
X055827Y049055
X057717Y049055
X056142Y049055
X055512Y04937
X056142Y04937
X055827Y04937
X057717Y04937
X056772Y04937
X057402Y04937
X056457Y04937
X056772Y049685
X057717Y049685
X055512Y049685
X057402Y049685
X056457Y049685
X056142Y049685
X055827Y049685
X055512Y05
X055827Y05
X056457Y05
X056772Y05
X057402Y05
X056142Y05
X057717Y05
X056142Y050315
X055512Y050315
X056772Y050315
X055827Y050315
X056457Y050315
X057717Y050315
X057402Y050315
X058346Y050315
X058661Y050315
X058031Y050315
X058976Y05
X058661Y05
X058031Y05
X058346Y05
X058346Y049685
X058031Y049685
X058661Y049685
X058976Y049685
X058031Y04937
X058976Y04937
X058661Y04937
X058346Y04937
X058346Y049055
X058976Y049055
X058031Y049055
X058661Y049055
X058976Y04874
X058661Y04874
X058031Y04874
X058346Y04874
X058346Y04811
X058661Y04811
X058031Y04811
X058346Y047795
X058661Y047795
X058031Y047795
X058031Y04748
X058346Y04748
X058661Y04748
X058346Y047165
X058661Y047165
X058031Y047165
X058346Y04685
X058661Y04685
X058976Y04685
X058031Y04685
X058622Y042598
X059646Y042598
X058346Y035354
X058031Y035354
X058661Y035354
X058031Y035039
X058661Y035039
X058346Y035039
X058976Y035039
X058346Y034724
X058031Y034724
X058976Y034724
X058661Y034724
X058346Y034409
X058031Y034409
X058661Y034409
X058976Y034409
X058976Y034094
X058661Y034094
X058031Y034094
X058346Y034094
X058346Y03378
X058661Y03378
X058976Y03378
X058031Y03378
X058031Y03315
X058661Y03315
X058346Y03315
X058031Y032835
X058346Y032835
X058661Y032835
X058031Y03252
X058661Y03252
X058346Y03252
X058031Y032205
X058661Y032205
X058346Y032205
X058976Y03189
X058031Y03189
X058346Y03189
X058661Y03189
X058031Y020394
X058346Y020394
X058661Y020394
X058661Y020079
X058976Y020079
X058346Y020079
X058031Y020079
X058976Y019764
X058031Y019764
X058661Y019764
X058346Y019764
X058346Y019449
X058661Y019449
X058976Y019449
X058031Y019449
X058976Y019134
X058031Y019134
X058661Y019134
X058346Y019134
X058976Y018819
X058346Y018819
X058661Y018819
X058031Y018819
X058346Y018189
X058031Y018189
X058661Y018189
X058661Y017874
X058031Y017874
X058346Y017874
X058346Y017559
X058031Y017559
X058661Y017559
X058661Y017244
X058346Y017244
X058031Y017244
X058661Y016929
X058346Y016929
X058031Y016929
X058976Y016929
X059685Y012677
X058661Y012677
X06685Y009134
X066535Y009134
X067165Y009134
X06748Y009134
X067795Y009134
X06622Y009449
X06685Y009449
X066535Y009449
X067165Y009449
X06748Y009449
X067795Y009449
X067795Y009764
X06685Y009764
X06622Y009764
X066535Y009764
X067165Y009764
X06748Y009764
X067795Y010079
X06685Y010079
X066535Y010079
X06622Y010079
X06748Y010079
X067165Y010079
X067795Y010394
X066535Y010394
X06685Y010394
X06622Y010394
X06748Y010394
X067165Y010394
X06685Y010709
X06622Y010709
X067795Y010709
X067165Y010709
X06748Y010709
X066535Y010709
X06748Y011339
X06685Y011339
X067795Y011339
X066535Y011339
X067165Y011339
X066535Y011654
X067795Y011654
X067165Y011654
X06685Y011654
X06748Y011654
X067165Y011969
X06748Y011969
X06685Y011969
X066535Y011969
X067795Y011969
X066535Y012283
X06685Y012283
X06748Y012283
X067165Y012283
X067795Y012283
X067165Y012598
X06748Y012598
X066535Y012598
X06622Y012598
X06685Y012598
X067795Y012598
X060709Y012677
X06685Y024094
X066535Y024094
X06748Y024094
X067165Y024094
X067795Y024094
X06685Y024409
X066535Y024409
X06622Y024409
X06748Y024409
X067165Y024409
X067795Y024409
X06622Y024724
X06748Y024724
X067165Y024724
X06685Y024724
X066535Y024724
X067795Y024724
X067165Y025039
X06748Y025039
X06622Y025039
X066535Y025039
X06685Y025039
X067795Y025039
X06748Y025354
X067165Y025354
X06622Y025354
X06685Y025354
X066535Y025354
X067795Y025354
X06685Y025669
X06622Y025669
X06748Y025669
X067165Y025669
X066535Y025669
X067795Y025669
X06748Y026299
X06685Y026299
X067795Y026299
X066535Y026299
X067165Y026299
X06748Y026614
X067165Y026614
X067795Y026614
X06685Y026614
X066535Y026614
X067165Y026929
X066535Y026929
X06748Y026929
X067795Y026929
X06685Y026929
X066535Y027244
X06748Y027244
X06685Y027244
X067165Y027244
X067795Y027244
X06622Y027559
X06748Y027559
X067795Y027559
X06685Y027559
X066535Y027559
X067165Y027559
X065551Y031811
X067598Y031811
X064537Y031811
X066575Y031811
X06748Y039055
X067795Y039055
X067165Y039055
X066535Y039055
X06685Y039055
X067795Y03937
X06748Y03937
X06685Y03937
X066535Y03937
X06622Y03937
X067165Y03937
X067165Y039685
X06748Y039685
X06685Y039685
X066535Y039685
X06622Y039685
X067795Y039685
X067795Y04
X066535Y04
X06685Y04
X06622Y04
X06748Y04
X067165Y04
X067165Y040315
X066535Y040315
X06622Y040315
X067795Y040315
X06685Y040315
X06748Y040315
X06622Y04063
X067165Y04063
X066535Y04063
X067795Y04063
X06685Y04063
X06748Y04063
X067795Y04126
X06685Y04126
X066535Y04126
X067165Y04126
X06748Y04126
X06685Y041575
X066535Y041575
X067795Y041575
X06748Y041575
X067165Y041575
X067795Y04189
X066535Y04189
X06748Y04189
X06685Y04189
X067165Y04189
X067165Y042205
X06685Y042205
X06748Y042205
X066535Y042205
X067795Y042205
X06685Y04252
X066535Y04252
X067165Y04252
X067795Y04252
X06622Y04252
X06748Y04252
X060669Y042598
X068425Y04252
X06937Y04252
X06874Y04252
X069685Y04252
X069055Y04252
X06874Y042205
X069055Y042205
X069685Y042205
X06937Y042205
X068425Y042205
X07Y042205
X068425Y04189
X06937Y04189
X069685Y04189
X069055Y04189
X06874Y04189
X069055Y041575
X06937Y041575
X06874Y041575
X068425Y041575
X069685Y041575
X069999Y041574
X068425Y04126
X069685Y04126
X069055Y04126
X06874Y04126
X06937Y04126
X07Y04126
X069055Y04063
X069685Y04063
X068425Y04063
X06874Y04063
X06937Y04063
X07Y04063
X068425Y040315
X06874Y040315
X06937Y040315
X069055Y040315
X069685Y040315
X07Y040315
X069685Y04
X069055Y04
X06937Y04
X06874Y04
X068425Y04
X07Y04
X069055Y039685
X06937Y039685
X069685Y039685
X06874Y039685
X07Y039685
X068425Y039685
X068425Y03937
X06937Y03937
X069685Y03937
X06874Y03937
X07Y03937
X069055Y03937
X069055Y039055
X069685Y039055
X068425Y039055
X06874Y039055
X06937Y039055
X06874Y027559
X069055Y027559
X06937Y027559
X069685Y027559
X068425Y027559
X069685Y027244
X06874Y027244
X06937Y027244
X069055Y027244
X068425Y027244
X07Y027244
X069685Y026929
X06937Y026929
X069055Y026929
X06874Y026929
X068425Y026929
X06937Y026614
X069055Y026614
X06874Y026614
X069685Y026614
X068425Y026614
X069999Y026613
X06874Y026299
X069685Y026299
X069055Y026299
X06937Y026299
X068425Y026299
X07Y026299
X069685Y025669
X069055Y025669
X06937Y025669
X06874Y025669
X068425Y025669
X07Y025669
X069055Y025354
X06937Y025354
X06874Y025354
X068425Y025354
X069685Y025354
X07Y025354
X069055Y025039
X06937Y025039
X068425Y025039
X069685Y025039
X06874Y025039
X07Y025039
X068425Y024724
X069055Y024724
X06874Y024724
X069685Y024724
X06937Y024724
X07Y024724
X068425Y024409
X06937Y024409
X069685Y024409
X069055Y024409
X06874Y024409
X07Y024409
X069055Y024094
X06874Y024094
X06937Y024094
X069685Y024094
X068425Y024094
X069055Y012598
X06874Y012598
X069685Y012598
X06937Y012598
X068425Y012598
X07Y012283
X06874Y012283
X068425Y012283
X06937Y012283
X069055Y012283
X069685Y012283
X069055Y011969
X068425Y011969
X069685Y011969
X06937Y011969
X06874Y011969
X068425Y011654
X069055Y011654
X06937Y011654
X069685Y011654
X06874Y011654
X069999Y011653
X06874Y011339
X069055Y011339
X06937Y011339
X07Y011339
X068425Y011339
X069685Y011339
X07Y010709
X06937Y010709
X068425Y010709
X069685Y010709
X06874Y010709
X069055Y010709
X07Y010394
X06874Y010394
X069685Y010394
X06937Y010394
X068425Y010394
X069055Y010394
X069685Y010079
X07Y010079
X06874Y010079
X069055Y010079
X068425Y010079
X06937Y010079
X069055Y009764
X068425Y009764
X06937Y009764
X06874Y009764
X07Y009764
X069685Y009764
X069055Y009449
X06874Y009449
X068425Y009449
X069685Y009449
X06937Y009449
X07Y009449
X069055Y009134
X06874Y009134
X06937Y009134
X068425Y009134
X069685Y009134
X076378Y011969
X071614Y016811
X077559Y016929
X077559Y017244
X077244Y017244
X077559Y017559
X077559Y017874
X077245Y017875
X077244Y018189
X077559Y018189
X077559Y018819
X077244Y018819
X077244Y019134
X077559Y019134
X077559Y019449
X077244Y019449
X077559Y019764
X077244Y019764
X077559Y020079
X077244Y020079
X077559Y020394
X076378Y026929
X071614Y031772
X077559Y03189
X077559Y032205
X077244Y032205
X077559Y03252
X077559Y032835
X077245Y032836
X077244Y03315
X077559Y03315
X077244Y03378
X077559Y03378
X077244Y034094
X077559Y034094
X077244Y034409
X077559Y034409
X077244Y034724
X077559Y034724
X077559Y035039
X077244Y035039
X077559Y035354
X075906Y043504
X076457Y043504
X075354Y043504
X07189Y045906
X071339Y045906
X070787Y045906
X071614Y046732
X077559Y04685
X077244Y047165
X077559Y047165
X077559Y04748
X077559Y047795
X077245Y047796
X077559Y04811
X077244Y04811
X077559Y04874
X077244Y04874
X077559Y049055
X077244Y049055
X077244Y04937
X077559Y04937
X077559Y049685
X077244Y049685
X077244Y05
X077559Y05
X077559Y050315
X078819Y050315
X078504Y050315
X079449Y050315
X078189Y050315
X077874Y050315
X080079Y050315
X079764Y050315
X078819Y05
X079449Y05
X077874Y05
X078189Y05
X078504Y05
X080079Y05
X079764Y05
X079449Y049685
X078819Y049685
X078504Y049685
X077874Y049685
X078189Y049685
X080079Y049685
X079764Y049685
X079449Y04937
X078504Y04937
X078819Y04937
X078189Y04937
X077874Y04937
X080079Y04937
X079764Y04937
X079449Y049055
X078819Y049055
X078504Y049055
X077874Y049055
X078189Y049055
X079764Y049055
X080079Y049055
X077874Y04874
X078189Y04874
X078504Y04874
X078819Y04874
X079449Y04874
X080079Y04874
X079764Y04874
X078504Y04811
X078819Y04811
X077874Y04811
X078189Y04811
X079449Y04811
X080079Y04811
X079764Y04811
X078819Y047795
X079449Y047795
X077874Y047795
X078189Y047795
X078504Y047795
X080079Y047795
X079764Y047795
X078504Y04748
X079449Y04748
X078819Y04748
X078189Y04748
X077874Y04748
X079764Y04748
X080079Y04748
X079449Y047165
X077874Y047165
X078189Y047165
X078819Y047165
X078504Y047165
X079764Y047165
X080079Y047165
X078189Y04685
X078504Y04685
X079449Y04685
X078819Y04685
X077874Y04685
X079764Y04685
X080079Y04685
X080079Y035354
X079764Y035354
X079449Y035354
X078189Y035354
X077874Y035354
X078504Y035354
X078819Y035354
X079449Y035039
X079764Y035039
X078819Y035039
X080079Y035039
X077874Y035039
X078189Y035039
X078504Y035039
X078819Y034724
X079764Y034724
X078504Y034724
X080079Y034724
X079449Y034724
X078189Y034724
X077874Y034724
X078819Y034409
X080079Y034409
X079764Y034409
X077874Y034409
X078504Y034409
X079449Y034409
X078189Y034409
X078819Y034094
X079449Y034094
X078189Y034094
X080079Y034094
X078504Y034094
X079764Y034094
X077874Y034094
X078819Y03378
X078504Y03378
X079764Y03378
X080079Y03378
X079449Y03378
X077874Y03378
X078189Y03378
X079449Y03315
X078819Y03315
X078189Y03315
X078504Y03315
X079764Y03315
X077874Y03315
X080079Y03315
X078819Y032835
X080079Y032835
X078504Y032835
X079764Y032835
X078189Y032835
X077874Y032835
X079449Y032835
X078504Y03252
X079764Y03252
X077874Y03252
X078819Y03252
X078189Y03252
X080079Y03252
X079449Y03252
X079764Y032205
X077874Y032205
X079449Y032205
X080079Y032205
X078189Y032205
X078504Y032205
X078819Y032205
X078189Y03189
X078819Y03189
X077874Y03189
X080079Y03189
X079764Y03189
X079449Y03189
X078504Y03189
X079685Y027638
X079449Y020394
X080079Y020394
X078189Y020394
X078819Y020394
X077874Y020394
X078504Y020394
X079764Y020394
X079449Y020079
X078504Y020079
X078189Y020079
X077874Y020079
X079764Y020079
X080079Y020079
X078819Y020079
X078189Y019764
X079764Y019764
X080079Y019764
X079449Y019764
X078819Y019764
X077874Y019764
X078504Y019764
X078819Y019449
X078504Y019449
X079764Y019449
X080079Y019449
X079449Y019449
X077874Y019449
X078189Y019449
X079449Y019134
X077874Y019134
X079764Y019134
X078819Y019134
X078504Y019134
X080079Y019134
X078189Y019134
X078819Y018819
X077874Y018819
X079449Y018819
X080079Y018819
X078504Y018819
X079764Y018819
X078189Y018819
X078504Y018189
X079764Y018189
X080079Y018189
X079449Y018189
X078189Y018189
X078819Y018189
X077874Y018189
X079449Y017874
X077874Y017874
X080079Y017874
X078189Y017874
X079764Y017874
X078819Y017874
X078504Y017874
X079764Y017559
X078504Y017559
X077874Y017559
X079449Y017559
X080079Y017559
X078189Y017559
X078819Y017559
X080079Y017244
X078504Y017244
X078819Y017244
X078189Y017244
X077874Y017244
X079449Y017244
X079764Y017244
X078504Y016929
X079764Y016929
X077874Y016929
X078189Y016929
X078819Y016929
X079449Y016929
X080079Y016929
X079685Y012677
X080709Y012677
X082756Y012677
X081732Y012677
X080394Y016929
X080709Y016929
X081024Y016929
X080709Y017244
X080394Y017244
X080394Y017559
X080709Y017559
X080394Y017874
X080709Y017874
X080394Y018189
X080709Y018189
X081024Y018819
X080394Y018819
X080709Y018819
X080394Y019134
X080709Y019134
X081024Y019134
X080394Y019449
X080709Y019449
X081024Y019449
X080394Y019764
X081024Y019764
X080709Y019764
X080709Y020079
X081024Y020079
X080394Y020079
X080394Y020394
X080709Y020394
X080709Y027638
X081732Y027638
X082756Y027638
X080394Y03189
X081024Y03189
X080709Y03189
X080394Y032205
X080709Y032205
X080709Y03252
X080394Y03252
X080394Y032835
X080709Y032835
X080394Y03315
X080709Y03315
X080709Y03378
X081024Y03378
X080394Y03378
X080709Y034094
X080394Y034094
X081024Y034094
X081024Y034409
X080394Y034409
X080709Y034409
X081024Y034724
X080709Y034724
X080394Y034724
X081024Y035039
X080709Y035039
X080394Y035039
X080394Y035354
X080709Y035354
X080709Y04685
X080394Y04685
X081024Y04685
X080709Y047165
X080394Y047165
X080709Y04748
X080394Y04748
X080709Y047795
X080394Y047795
X080394Y04811
X080709Y04811
X080709Y04874
X081024Y04874
X080394Y04874
X081024Y049055
X080709Y049055
X080394Y049055
X081024Y04937
X080709Y04937
X080394Y04937
X080709Y049685
X080394Y049685
X081024Y049685
X080709Y05
X080394Y05
X081024Y05
X080709Y050315
X080394Y050315
X089528Y04252
X089213Y04252
X088898Y04252
X088583Y04252
X088268Y04252
X089843Y04252
X089528Y042205
X089213Y042205
X088898Y042205
X088583Y042205
X089843Y042205
X089528Y04189
X089213Y04189
X088898Y04189
X088583Y04189
X089843Y04189
X089843Y041575
X089528Y041575
X089213Y041575
X088898Y041575
X088583Y041575
X089843Y04126
X089528Y04126
X089213Y04126
X088898Y04126
X088583Y04126
X088583Y04063
X089213Y04063
X089528Y04063
X088898Y04063
X088268Y04063
X089843Y04063
X089528Y040315
X088898Y040315
X089213Y040315
X088583Y040315
X088268Y040315
X089843Y040315
X089528Y04
X089213Y04
X088898Y04
X088583Y04
X088268Y04
X089843Y04
X089528Y039685
X089213Y039685
X088898Y039685
X088583Y039685
X088268Y039685
X089843Y039685
X089213Y03937
X088898Y03937
X088583Y03937
X089528Y03937
X088268Y03937
X089843Y03937
X089528Y039055
X089213Y039055
X088898Y039055
X088583Y039055
X089843Y039055
X088268Y027559
X088898Y027559
X088583Y027559
X089843Y027559
X089213Y027559
X089528Y027559
X088898Y027244
X089843Y027244
X089213Y027244
X088583Y027244
X089528Y027244
X089843Y026929
X088898Y026929
X089528Y026929
X089213Y026929
X088583Y026929
X088583Y026614
X089843Y026614
X089528Y026614
X089213Y026614
X088898Y026614
X088583Y026299
X088898Y026299
X089843Y026299
X089528Y026299
X089213Y026299
X089528Y025669
X089213Y025669
X088583Y025669
X088898Y025669
X089843Y025669
X088268Y025669
X088268Y025354
X089528Y025354
X089843Y025354
X088898Y025354
X089213Y025354
X088583Y025354
X089213Y025039
X089528Y025039
X088268Y025039
X088898Y025039
X088583Y025039
X089843Y025039
X089843Y024724
X089528Y024724
X088268Y024724
X089213Y024724
X088898Y024724
X088583Y024724
X088898Y024409
X088268Y024409
X089843Y024409
X088583Y024409
X089213Y024409
X089528Y024409
X089843Y024094
X088898Y024094
X089528Y024094
X089213Y024094
X088583Y024094
X088583Y012598
X088268Y012598
X089843Y012598
X089213Y012598
X088898Y012598
X089528Y012598
X088898Y012283
X089528Y012283
X089213Y012283
X089843Y012283
X088583Y012283
X089528Y011969
X089843Y011969
X088898Y011969
X088583Y011969
X089213Y011969
X089843Y011654
X089528Y011654
X089213Y011654
X088898Y011654
X088583Y011654
X089843Y011339
X089528Y011339
X088583Y011339
X088898Y011339
X089213Y011339
X089528Y010709
X088268Y010709
X088898Y010709
X089213Y010709
X088583Y010709
X089843Y010709
X089528Y010394
X088268Y010394
X089213Y010394
X088583Y010394
X088898Y010394
X089843Y010394
X089213Y010079
X089843Y010079
X088268Y010079
X088583Y010079
X088898Y010079
X089528Y010079
X088268Y009764
X089528Y009764
X089843Y009764
X089213Y009764
X088898Y009764
X088583Y009764
X088898Y009449
X089213Y009449
X088583Y009449
X088268Y009449
X089528Y009449
X089843Y009449
X088583Y009134
X089213Y009134
X088898Y009134
X089528Y009134
X089843Y009134
X090787Y009134
X090472Y009134
X091102Y009134
X091417Y009134
X091732Y009134
X090787Y009449
X090472Y009449
X091102Y009449
X091417Y009449
X092047Y009449
X091732Y009449
X091417Y009764
X090472Y009764
X090787Y009764
X091732Y009764
X092047Y009764
X091102Y009764
X091102Y010079
X091417Y010079
X090787Y010079
X091732Y010079
X090472Y010079
X092047Y010079
X090472Y010394
X091417Y010394
X091102Y010394
X091732Y010394
X092047Y010394
X090787Y010394
X091417Y010709
X091102Y010709
X090472Y010709
X090787Y010709
X091732Y010709
X092047Y010709
X090787Y011339
X090472Y011339
X092047Y011339
X091732Y011339
X091102Y011339
X091417Y011339
X092046Y011653
X090787Y011654
X090472Y011654
X091732Y011654
X091417Y011654
X091102Y011654
X091417Y011969
X091732Y011969
X090787Y011969
X091102Y011969
X090472Y011969
X092047Y012283
X091732Y012283
X091417Y012283
X090787Y012283
X091102Y012283
X090472Y012283
X091732Y012598
X091102Y012598
X091417Y012598
X090472Y012598
X090787Y012598
X092835Y015945
X090472Y024094
X090787Y024094
X091102Y024094
X091417Y024094
X091732Y024094
X090472Y024409
X090787Y024409
X092047Y024409
X091417Y024409
X091102Y024409
X091732Y024409
X091417Y024724
X090787Y024724
X090472Y024724
X091102Y024724
X092047Y024724
X091732Y024724
X092047Y025039
X091102Y025039
X091417Y025039
X090472Y025039
X090787Y025039
X091732Y025039
X091732Y025354
X091417Y025354
X090787Y025354
X090472Y025354
X092047Y025354
X091102Y025354
X091102Y025669
X090787Y025669
X091417Y025669
X090472Y025669
X092047Y025669
X091732Y025669
X090472Y026299
X091102Y026299
X092047Y026299
X091417Y026299
X091732Y026299
X090787Y026299
X092046Y026613
X091102Y026614
X091732Y026614
X091417Y026614
X090472Y026614
X090787Y026614
X091417Y026929
X090787Y026929
X090472Y026929
X091102Y026929
X091732Y026929
X091417Y027244
X091102Y027244
X090787Y027244
X092047Y027244
X090472Y027244
X091732Y027244
X090787Y027559
X091102Y027559
X091417Y027559
X091732Y027559
X090472Y027559
X092835Y030906
X090472Y039055
X091732Y039055
X091417Y039055
X091102Y039055
X090787Y039055
X091102Y03937
X090787Y03937
X090472Y03937
X091417Y03937
X091732Y03937
X092047Y03937
X092047Y039685
X091417Y039685
X091732Y039685
X090787Y039685
X090472Y039685
X091102Y039685
X091417Y04
X091102Y04
X091732Y04
X090787Y04
X090472Y04
X092047Y04
X092047Y040315
X090787Y040315
X091102Y040315
X091732Y040315
X090472Y040315
X091417Y040315
X091732Y04063
X090472Y04063
X090787Y04063
X092047Y04063
X091417Y04063
X091102Y04063
X090472Y04126
X090787Y04126
X092047Y04126
X091102Y04126
X091417Y04126
X091732Y04126
X092046Y041574
X090787Y041575
X091732Y041575
X091417Y041575
X091102Y041575
X090472Y041575
X091102Y04189
X091732Y04189
X091417Y04189
X090472Y04189
X090787Y04189
X090472Y042205
X092047Y042205
X091417Y042205
X091102Y042205
X090787Y042205
X091732Y042205
X091417Y04252
X091102Y04252
X091732Y04252
X090787Y04252
X090472Y04252
X092835Y045866
X093661Y046732
X093386Y045866
X093937Y045866
X093661Y031772
X093937Y030906
X093386Y030906
X093661Y016811
X093937Y015945
X093386Y015945
T2C.012F0S0
X009724Y008937
X010157Y009409
X010157Y009921
X0094Y01127
X006004Y011368
X007234Y011909
X007598Y011909
X007972Y011909
X006594Y012648
X0094Y012648
X00876Y012648
X008366Y012648
X010039Y012992
X008268Y013091
X008169Y013681
X009803Y03189
X009055Y032283
X009449Y032677
X012697Y032677
X014961Y022933
X014469Y022933
X01465Y021063
X01515Y021063
X013445Y020984
X013445Y019567
X013445Y018976
X01465Y017913
X014134Y017913
X015197Y015709
X014724Y01437
X014961Y01378
X014961Y013189
X014646Y012598
X015394Y008476
X017815Y008809
X016634Y011565
X017009Y011565
X016259Y011565
X016929Y012008
X017618Y012106
X01563Y012283
X017618Y013041
X017274Y01314
X015945Y01378
X017274Y01378
X016535Y01437
X016142Y01437
X017618Y014469
X016142Y015059
X017126Y0156
X017618Y0156
X016634Y0156
X016634Y01688
X01565Y017913
X01715Y017913
X01615Y017913
X01665Y021063
X01615Y021063
X01565Y022126
X017126Y022126
X015945Y022933
X01747Y022933
X016486Y022933
X016978Y022933
X015453Y022933
X016978Y029872
X017323Y030709
X015846Y047539
X01811Y052657
X018455Y029921
X018947Y029921
X017963Y029724
X017967Y028789
X019467Y028789
X018937Y026063
X018465Y025512
X019467Y024016
X019967Y024016
X019114Y023386
X018465Y023386
X017963Y022933
X020157Y02187
X020157Y021319
X018967Y017028
X019715Y017028
X018356Y016781
X02003Y015866
X018356Y015699
X019852Y015453
X018356Y015305
X018356Y013927
X020108Y013189
X019596Y013189
X019291Y012057
X020325Y010974
X018356Y010925
X01811Y01063
X018602Y01063
X019833Y010039
X018996Y009695
X019193Y008809
X018258Y008465
X01875Y008465
X020866Y010581
X021358Y010581
X020866Y011663
X021358Y011663
X021949Y012106
X021161Y012618
X021358Y013189
X021063Y015896
X022047Y015896
X021555Y016831
X020547Y017671
X022547Y017671
X021063Y022106
X022047Y022106
X022343Y022933
X020467Y024016
X020967Y024016
X022343Y024016
X022835Y024016
X022841Y025787
X020467Y028789
X022841Y028789
X022341Y028789
X020472Y029921
X020965Y029921
X022343Y029921
X022047Y030748
X023228Y04252
X023622Y04252
X024016Y04252
X024409Y04252
X023622Y042126
X023228Y042126
X024016Y042126
X024409Y042126
X023622Y041732
X023228Y041732
X024016Y041732
X024409Y041732
X023622Y041339
X023228Y041339
X024016Y041339
X024409Y041339
X023228Y040945
X024803Y040945
X023228Y040551
X023228Y040157
X023228Y039764
X024134Y039764
X023228Y03937
X023228Y038976
X024213Y03878
X023228Y038583
X024803Y038465
X023622Y038189
X023228Y038189
X024409Y038189
X024016Y038189
X025295Y033366
X024341Y028789
X025341Y028789
X024841Y028789
X023841Y028789
X023341Y028789
X023341Y02689
X024841Y026614
X025344Y024016
X02436Y024016
X023327Y024016
X024852Y024016
X023819Y024016
X025335Y022283
X023524Y022106
X023031Y022106
X02498Y021265
X023547Y017913
X023031Y016831
X024808Y015866
X024311Y015827
X024311Y014449
X024311Y01315
X024311Y011732
X02378Y010039
X023543Y008268
X023031Y008268
X02624Y011024
X027313Y011811
X026909Y012087
X025463Y012087
X026742Y01315
X026742Y014409
X026909Y015472
X026378Y015787
X025728Y016575
X025728Y017667
X026929Y017913
X026437Y021457
X027421Y021457
X026929Y022047
X025945Y022047
X025837Y022933
X026983Y023327
X026363Y023327
X027841Y024016
X027341Y024016
X025837Y024016
X025827Y025512
X026341Y028789
X027341Y028789
X025841Y028789
X025837Y029921
X027795Y03189
X025906Y032559
X025906Y032992
X027756Y03376
X026575Y03376
X02622Y034921
X027165Y034921
X027165Y035669
X026693Y035669
X027638Y035669
X02622Y036063
X025906Y038189
X027067Y038346
X026181Y039764
X025827Y039764
X027756Y039764
X026535Y041063
X027402Y041102
X02687Y041181
X025394Y043701
X025984Y043701
X026575Y043701
X027756Y043701
X025394Y044094
X025984Y044094
X026575Y044094
X027756Y044094
X025984Y044488
X025394Y044488
X026575Y044488
X027756Y044488
X026575Y044882
X027756Y044882
X025394Y044882
X025984Y044882
X030315Y05
X030315Y049606
X030315Y049213
X030315Y048819
X028937Y044882
X028346Y044882
X028937Y044488
X028346Y044488
X028937Y044094
X028346Y044094
X028937Y043701
X028346Y043701
X029528Y04252
X029921Y04252
X030315Y04252
X029528Y042126
X029921Y042126
X030315Y042126
X029528Y041732
X029921Y041732
X030315Y041732
X029528Y041339
X030315Y041339
X029921Y041339
X028504Y041102
X029724Y041063
X029134Y040591
X029134Y040079
X02815Y039764
X028543Y039764
X029469Y039469
X029921Y03937
X030315Y03937
X027992Y039094
X030315Y038976
X029921Y038976
X029134Y038976
X029528Y038976
X027992Y038858
X029134Y038583
X030315Y038583
X029528Y038583
X029921Y038583
X028406Y038346
X029528Y038189
X029921Y038189
X030315Y038189
X029134Y038189
X027913Y036339
X027913Y034921
X028691Y034547
X030236Y033583
X030217Y032776
X030217Y032185
X028839Y029961
X030217Y029921
X030215Y028789
X030215Y025197
X028341Y024016
X028841Y024016
X030215Y024016
X030217Y022933
X027913Y022047
X028445Y021457
X029547Y02002
X029921Y018907
X028429Y017913
X027929Y017913
X029921Y017874
X029921Y016604
X030197Y013898
X027953Y011811
X029547Y011004
X029921Y009163
X029921Y00686
X029547Y005846
X029921Y004537
X029921Y003514
X029921Y002234
X032283Y002234
X032283Y004528
X030965Y005846
X032224Y005846
X030965Y010374
X032224Y010374
X030965Y011004
X032224Y011004
X030512Y0125
X03248Y014872
X03189Y015463
X030512Y015463
X03189Y015827
X030965Y02002
X032224Y02002
X031715Y024016
X032215Y024016
X030715Y024016
X031215Y024016
X032715Y024016
X030715Y025472
X032715Y026339
X031215Y02748
X032215Y028789
X032715Y028789
X031715Y028789
X031215Y028789
X030715Y028789
X030709Y038189
X030709Y038583
X030709Y038976
X030709Y03937
X030709Y039764
X030394Y040079
X030709Y040157
X03189Y040472
X030709Y040551
X030709Y040945
X030709Y041339
X030709Y041732
X030709Y042126
X030709Y04252
X030906Y048819
X031496Y048819
X032677Y048819
X031496Y049213
X030906Y049213
X032677Y049213
X031496Y049606
X030906Y049606
X032677Y049606
X030906Y05
X031496Y05
X032677Y05
X033268Y05
X033858Y05
X033268Y049606
X033858Y049606
X033268Y049213
X033858Y049213
X033268Y048819
X033858Y048819
X032874Y045039
X03374Y044724
X033346Y041772
X034764Y041772
X033701Y038868
X033701Y038356
X033346Y03626
X034764Y03626
X03374Y03438
X03374Y033356
X03374Y032844
X033215Y030886
X033711Y029921
X033215Y028789
X035215Y028789
X033715Y028789
X033701Y026063
X033715Y024016
X033215Y024016
X034961Y023425
X034331Y023425
X035197Y022953
X033711Y022933
X033642Y02002
X033219Y018907
X035138Y017559
X035138Y017205
X035138Y01685
X033268Y016604
X033071Y014774
X034488Y011417
X033642Y011004
X034134Y009488
X033661Y00935
X033858Y008907
X034252Y008652
X033858Y008396
X034252Y00814
X033858Y007884
X034252Y007628
X033858Y007372
X033268Y00686
X033642Y005846
X035118Y004764
X035118Y004409
X035118Y004055
X035118Y003701
X033228Y002234
X037008Y002598
X037008Y00315
X037008Y003504
X037008Y004449
X03622Y01685
X03622Y017795
X036496Y01811
X035728Y022047
X036713Y024016
X03622Y024016
X035728Y024016
X036713Y029921
X03622Y029921
X036762Y03253
X037106Y035148
X036024Y03626
X03748Y03689
X036024Y03689
X036417Y038071
X037087Y038356
X037362Y038622
X037697Y038868
X037205Y039134
X037697Y03938
X037205Y039646
X037697Y039892
X037205Y040157
X037697Y040404
X037205Y04065
X03748Y041772
X036063Y041772
X036063Y042402
X03748Y042402
X036772Y042953
X036102Y047411
X036102Y047923
X036122Y048947
X037087Y050827
X037126Y051457
X035709Y051457
X038504Y051457
X039882Y051457
X038504Y050827
X039882Y050827
X041339Y050787
X042126Y050787
X039469Y049715
X042662Y048425
X04128Y048366
X041437Y048012
X04128Y047657
X041437Y047303
X039124Y047096
X042441Y046772
X041093Y044488
X041102Y043996
X041102Y043504
X041102Y043012
X039213Y042953
X041102Y04252
X039213Y04185
X041575Y037165
X042677Y036614
X041575Y036614
X041339Y03622
X040512Y035472
X038976Y035177
X040827Y035157
X039764Y034823
X039764Y034469
X041142Y034134
X039764Y034114
X042662Y033465
X039764Y032736
X042441Y031811
X041093Y029528
X041102Y029035
X041102Y028543
X041102Y028051
X041102Y027559
X041575Y022283
X041575Y021654
X042677Y021654
X041575Y021024
X042662Y018504
X042402Y01685
X041486Y016142
X040551Y014724
X039488Y014724
X041093Y014567
X039488Y014232
X041102Y014075
X03874Y014074
X039469Y013695
X041102Y013583
X041102Y013091
X039782Y012795
X041102Y012598
X038858Y007402
X041575Y007323
X042205Y006693
X041575Y006693
X043307Y006693
X043504Y014862
X044882Y015984
X044331Y015984
X043425Y01685
X044449Y01685
X044709Y018504
X044197Y018504
X045221Y018504
X043685Y018504
X043173Y018504
X045163Y019685
X043813Y019685
X043504Y029872
X044331Y030945
X044882Y030945
X044488Y031811
X043465Y031811
X045221Y033465
X044709Y033465
X043173Y033465
X043685Y033465
X044197Y033465
X044331Y045906
X044882Y045906
X043465Y046772
X044488Y046772
X043685Y048425
X043173Y048425
X044197Y048425
X045221Y048425
X044709Y048425
X043307Y050787
X044094Y050787
X046969Y050394
X047205Y049488
X046244Y048425
X045733Y048425
X045512Y046772
X04722Y046535
X045433Y045906
X045906Y045906
X046969Y035433
X04722Y034512
X046244Y033465
X045733Y033465
X045512Y031811
X04722Y031575
X045906Y030945
X045433Y030945
X047244Y021654
X046969Y020472
X04722Y019567
X046244Y018504
X045733Y018504
X045472Y01685
X04722Y016614
X045906Y015984
X045433Y015984
X047165Y006693
X048268Y006693
X05Y008661
X05Y011024
X049921Y014016
X04874Y015945
X049291Y015945
X049843Y015945
X049055Y016614
X048382Y016614
X04874Y017559
X049055Y019114
X048382Y019567
X04813Y020472
X048346Y021654
X05Y023622
X05Y025984
X048382Y031594
X049051Y031594
X049059Y034055
X048376Y034498
X04813Y035433
X049961Y038583
X049961Y040945
X05Y043937
X048382Y046535
X049051Y046535
X049567Y046693
X04874Y04748
X049059Y049018
X048382Y049486
X04874Y049921
X04813Y050394
X052087Y050787
X052087Y048425
X052362Y046063
X052087Y045433
X051181Y043937
X051102Y040945
X051102Y038583
X052067Y035827
X052047Y033465
X052362Y031102
X052047Y030472
X05126Y028976
X050787Y028346
X051102Y025984
X051102Y023622
X052067Y020866
X052067Y018504
X052362Y016142
X052047Y015512
X051181Y014016
X050787Y013386
X051102Y011024
X051181Y008661
X05502Y009055
X054768Y01
X05409Y010394
X054409Y011969
X053543Y012756
X054099Y012913
X054768Y012913
X053268Y015512
X053268Y018504
X053268Y020866
X054764Y022795
X055039Y023976
X054768Y024961
X05409Y025354
X054409Y02689
X053543Y027717
X054099Y027874
X054768Y027874
X054409Y028543
X053307Y028543
X053858Y028543
X053268Y030472
X053268Y033465
X053268Y035827
X054961Y037795
X05502Y038976
X054768Y039884
X05409Y040352
X053543Y042677
X054768Y042835
X054099Y042835
X053268Y045433
X053268Y048425
X053268Y050787
X054173Y052756
X055276Y052756
X057244Y043465
X057717Y043465
X055929Y042835
X056905Y040945
X057417Y040945
X055929Y039884
X056181Y038976
X056063Y037795
X057244Y028504
X057717Y028504
X055929Y027874
X057638Y027638
X056905Y025984
X057417Y025984
X055929Y024961
X056181Y023976
X055945Y022795
X057244Y013543
X057717Y013543
X055929Y012913
X057417Y011024
X056905Y011024
X055929Y01
X056181Y009055
X058441Y011024
X057929Y011024
X059464Y011024
X059976Y011024
X058953Y011024
X058819Y013543
X058268Y013543
X059587Y014656
X057929Y025984
X059464Y025984
X058953Y025984
X058441Y025984
X059976Y025984
X058661Y027638
X059685Y027638
X058268Y028504
X058819Y028504
X059685Y029616
X058441Y040945
X057929Y040945
X059464Y040945
X058953Y040945
X059976Y040945
X058268Y043465
X058819Y043465
X059685Y044528
X059291Y052756
X060394Y052756
X062106Y04685
X062106Y046358
X062106Y045866
X062106Y045374
X062106Y044882
X060488Y040945
X061575Y037795
X060472Y037795
X061575Y037008
X062126Y03189
X062126Y031398
X062126Y030906
X062126Y030413
X062126Y029921
X060748Y027638
X060488Y025984
X060394Y022835
X061575Y022835
X061575Y022047
X062126Y016929
X062126Y016437
X062126Y015945
X062126Y015453
X062126Y014961
X060488Y011024
X064724Y006693
X063583Y006693
X063583Y007244
X063091Y012598
X063091Y013091
X063091Y013583
X063091Y014075
X063091Y014567
X064488Y01685
X064709Y018504
X065221Y018504
X064764Y021654
X063583Y021654
X063583Y022205
X06313Y027559
X06313Y028051
X06313Y028543
X06313Y029035
X06313Y029528
X065221Y033465
X064709Y033465
X064724Y036614
X063583Y036614
X063583Y037165
X06313Y04252
X06313Y043012
X06313Y043504
X06313Y043996
X06313Y044488
X064488Y046772
X065221Y048425
X064709Y048425
X063386Y051693
X063386Y053037
X066756Y048425
X067268Y048425
X065733Y048425
X066244Y048425
X06778Y048425
X065472Y046772
X067559Y046772
X066535Y046772
X066929Y045906
X06748Y045906
X066378Y045906
X0656Y044774
X065733Y033465
X066756Y033465
X067268Y033465
X066244Y033465
X06778Y033465
X066378Y030945
X066929Y030945
X06748Y030945
X065591Y029843
X066244Y018504
X066756Y018504
X065733Y018504
X06778Y018504
X067268Y018504
X065512Y01685
X06752Y01685
X066535Y01685
X06748Y015984
X066929Y015984
X066378Y015984
X065581Y014882
X069291Y006693
X067953Y015984
X069267Y016614
X068291Y018504
X069267Y019551
X069016Y020472
X070177Y020472
X069291Y021654
X067953Y030945
X069267Y031575
X068291Y033465
X069267Y034488
X070177Y035433
X069016Y035433
X069252Y036614
X067953Y045906
X069267Y046535
X068291Y048425
X069267Y049449
X070177Y050394
X069016Y050394
X070429Y049449
X071107Y049055
X070787Y04748
X070429Y046535
X071098Y046535
X072008Y043937
X072835Y043307
X072008Y040945
X072008Y038583
X070433Y036614
X070429Y034488
X071107Y034094
X070787Y03252
X071098Y031575
X070429Y031575
X070787Y030945
X071339Y030945
X07189Y030945
X072047Y028976
X072835Y028346
X072047Y025984
X072047Y023228
X070394Y021654
X070429Y019551
X071107Y01911
X070787Y017559
X070429Y016614
X071098Y016614
X070787Y015984
X071339Y015984
X07189Y015984
X072008Y014016
X072835Y013386
X072047Y011024
X072047Y008268
X070394Y006693
X07315Y008268
X07315Y011024
X075354Y013543
X073228Y014016
X074094Y015591
X075276Y015591
X074409Y016142
X075276Y018504
X074173Y018504
X075276Y02122
X074173Y02122
X07315Y023228
X07315Y025984
X075354Y028543
X073189Y028976
X075276Y030472
X074134Y030472
X074409Y031102
X074173Y033465
X075276Y033465
X075276Y036181
X074173Y036181
X073189Y038583
X073189Y040945
X073189Y043937
X075276Y045433
X074134Y045433
X074409Y046063
X074173Y048425
X075276Y048425
X075276Y050787
X074173Y050787
X077126Y052756
X076024Y052756
X076796Y042835
X076126Y042835
X075591Y042677
X076417Y04189
X076118Y040315
X076796Y039921
X077047Y038976
X07689Y037756
X075906Y028543
X076796Y027874
X076126Y027874
X075591Y027717
X076118Y025394
X077283Y024921
X076796Y024921
X077047Y024016
X07689Y022835
X075906Y013543
X076457Y013543
X076126Y012913
X076796Y012913
X075591Y012756
X076118Y010433
X076796Y009961
X077047Y009055
X078228Y009055
X077977Y009961
X079976Y011024
X079464Y011024
X078953Y011024
X077977Y012913
X079764Y013543
X080315Y013543
X079291Y013543
X077992Y022835
X078228Y024016
X078504Y024921
X077977Y024921
X079464Y025984
X078953Y025984
X079976Y025984
X077977Y027874
X080315Y028504
X079764Y028504
X079291Y028504
X077992Y037756
X078248Y038976
X077977Y039921
X078953Y040945
X079976Y040945
X079464Y040945
X079685Y042598
X077977Y042835
X079764Y043465
X079291Y043465
X080315Y043465
X081142Y052756
X082244Y052756
X081654Y044528
X080866Y043465
X080748Y042598
X081772Y042598
X082795Y042598
X081512Y040945
X081Y040945
X080488Y040945
X082023Y040945
X082535Y040945
X08252Y037795
X081683Y029616
X080866Y028504
X082535Y025984
X082023Y025984
X081Y025984
X080488Y025984
X081512Y025984
X08252Y022835
X081634Y014606
X080866Y013543
X082023Y011024
X082535Y011024
X081512Y011024
X080488Y011024
X081Y011024
X085177Y012598
X085177Y013091
X085177Y013583
X085177Y014075
X085177Y014567
X084104Y014961
X084104Y015453
X084104Y015945
X084104Y016437
X084104Y016929
X083622Y022047
X083622Y022835
X085177Y027559
X085177Y028051
X085177Y028543
X085177Y029035
X085177Y029528
X084154Y029921
X084154Y030413
X084154Y030906
X084154Y031398
X084154Y03189
X083622Y037008
X083622Y037795
X085177Y04252
X085177Y043012
X085177Y043504
X085177Y043996
X085177Y044488
X084154Y044882
X084154Y045374
X084154Y045866
X084154Y046358
X084154Y04685
X085394Y053031
X085433Y051693
X087268Y048425
X086756Y048425
X08778Y048425
X086535Y046772
X087559Y046772
X087648Y044833
X08563Y037165
X086772Y036614
X08563Y036614
X08778Y033465
X087268Y033465
X086756Y033465
X086535Y031811
X087559Y031811
X087648Y029823
X08563Y022205
X086772Y021654
X08563Y021654
X086756Y018504
X087268Y018504
X08778Y018504
X086535Y01685
X087559Y01685
X087648Y014911
X08563Y007283
X08563Y006693
X086772Y006693
X088425Y015984
X089528Y015984
X088976Y015984
X09Y015984
X089606Y01685
X088583Y01685
X088803Y018504
X088291Y018504
X089827Y018504
X090339Y018504
X089315Y018504
X089528Y030945
X088976Y030945
X09Y030945
X088425Y030945
X088583Y031811
X089606Y031811
X089827Y033465
X088803Y033465
X090339Y033465
X088291Y033465
X089315Y033465
X09Y045906
X089528Y045906
X088976Y045906
X088425Y045906
X088583Y046772
X089606Y046772
X089827Y048425
X089315Y048425
X088291Y048425
X088803Y048425
X090339Y048425
X091063Y050394
X092224Y050394
X091315Y049449
X092476Y049449
X092835Y04748
X091315Y046535
X092476Y046535
X091299Y036614
X09248Y036614
X092224Y035433
X091063Y035433
X091315Y034488
X092476Y034488
X092835Y03252
X092476Y031575
X091315Y031575
X091299Y021654
X09248Y021654
X091063Y020472
X092224Y020472
X091315Y019528
X092476Y019528
X092835Y017559
X092476Y016614
X091315Y016614
X09248Y006693
X091299Y006693
X095236Y008661
X094055Y008661
X094055Y011024
X095236Y011024
X094882Y013386
X094094Y014016
X095236Y014016
X093146Y016614
X093154Y019134
X094055Y023622
X095236Y023622
X094055Y025984
X095236Y025984
X094882Y028346
X094055Y028976
X095236Y028976
X093146Y031575
X093154Y034094
X094055Y038583
X095236Y038583
X095236Y040945
X094055Y040945
X094882Y043307
X094094Y043937
X095236Y043937
X093146Y046535
X093154Y049055
T3C.014F0S0
X043504Y015984
X042992Y015984
X042992Y030945
X043504Y030945
X042874Y045906
X043307Y045906
X059685Y043425
X060197Y043425
X059685Y028504
X060197Y028504
X059587Y013543
X060079Y013543
X065079Y015984
X065591Y015984
X065591Y030945
X065079Y030945
X0656Y045866
X065108Y045866
X081654Y043504
X082283Y043504
X081693Y028543
X082205Y028543
X082126Y013543
X081634Y013524
X087165Y015984
X087648Y015994
X087165Y030945
X087638Y030945
X087648Y045896
X087126Y045906
T4C.016F0S0
X005512Y032283
X006693Y032283
X006693Y033465
X005512Y033465
X005512Y034646
X006693Y034646
X005512Y035827
X006693Y035827
X006693Y037008
X005512Y037008
X005512Y038189
X006693Y038189
X006693Y03937
X005512Y03937
X005512Y040551
X006693Y040551
X005512Y041732
X006693Y041732
X006693Y042913
X005512Y042913
X005512Y044094
X006693Y044094
X006693Y045276
X005512Y045276
X005512Y046457
X006693Y046457
X006693Y047638
X005512Y047638
X005512Y048819
X005364Y049852
X005807Y050295
X005364Y050886
X007431Y050886
X006644Y051181
X005364Y051919
X007431Y051919
X006398Y051919
X005364Y052953
X005364Y053691
X008465Y053691
X008465Y052953
X009498Y051919
X008465Y051919
X008268Y051181
X009941Y051181
X009055Y047638
X007874Y047638
X010236Y047638
X009055Y046457
X007874Y046457
X010236Y046457
X009055Y045276
X007874Y045276
X010236Y045276
X007874Y044094
X010236Y044094
X009596Y043996
X008563Y043996
X009112Y043996
X007972Y043307
X010187Y043307
X009112Y042626
X008563Y042618
X009596Y042618
X009055Y041732
X007874Y041732
X010236Y041732
X009055Y040551
X007874Y040551
X010236Y040551
X007874Y03937
X010236Y03937
X008563Y039272
X009112Y039272
X009596Y039272
X010187Y038583
X007972Y038583
X007874Y038189
X009112Y037901
X009596Y037894
X008563Y037894
X010236Y037008
X007874Y037008
X009055Y037008
X009055Y035827
X007874Y035827
X009547Y035531
X009055Y034646
X007874Y034646
X009547Y033957
X009055Y033465
X007874Y033465
X009892Y032677
X007874Y032283
X011565Y008415
X011299Y014291
X011811Y03189
X01186Y032677
X012057Y033957
X012057Y035531
X011811Y036614
X011993Y037894
X012542Y037901
X011467Y038583
X012542Y039272
X011993Y039272
X011811Y040157
X011811Y041339
X011993Y042618
X012542Y042626
X011467Y043307
X012542Y043996
X011993Y043996
X011811Y044882
X012598Y045669
X011811Y045669
X011811Y046654
X012598Y046654
X012598Y047638
X011417Y047638
X011417Y048819
X010778Y049852
X011565Y049852
X011565Y050886
X012549Y051181
X011565Y051919
X010531Y051919
X012598Y051919
X011565Y052953
X011565Y053691
X013632Y053691
X014665Y053691
X013632Y052953
X014665Y052953
X013632Y051919
X014665Y051919
X014173Y051181
X014961Y047638
X01378Y047638
X01378Y046654
X014961Y046654
X013386Y045669
X014173Y045669
X014961Y045669
X012992Y044882
X014272Y044882
X014862Y044882
X013026Y043996
X013681Y043701
X013681Y042913
X013026Y042618
X013681Y042126
X013681Y041339
X012992Y041339
X013681Y040551
X012992Y040157
X014272Y03937
X014862Y03937
X013026Y039272
X014173Y038976
X015354Y038976
X013681Y038583
X013026Y037894
X014173Y037795
X015354Y037795
X014173Y036614
X012992Y036614
X015354Y036614
X014173Y035433
X015354Y035433
X012992Y035433
X015354Y034252
X012992Y034252
X014173Y034252
X015354Y033071
X014173Y033071
X014173Y03189
X012992Y03189
X015354Y03189
X013533Y008415
X016535Y03189
X017717Y03189
X016535Y033071
X017717Y033071
X017717Y034252
X016535Y034252
X017717Y035433
X016535Y035433
X016535Y036614
X017717Y036614
X016535Y037402
X017323Y037402
X017323Y038189
X016535Y038189
X017323Y03937
X016535Y03937
X015453Y03937
X017323Y040157
X016535Y040157
X016043Y040551
X016535Y040945
X017323Y040945
X016043Y041339
X016535Y041732
X017323Y041732
X016043Y042126
X016535Y04252
X017323Y04252
X016043Y042913
X016535Y043307
X017323Y043307
X016043Y043701
X017323Y044094
X016535Y044094
X015453Y044882
X016535Y044882
X017323Y044882
X015748Y045669
X017323Y045669
X016535Y045669
X016142Y046654
X017323Y046654
X017323Y047638
X017323Y048819
X016732Y049852
X017766Y049852
X017766Y050886
X016732Y050886
X015797Y051181
X015699Y051919
X016732Y051919
X017766Y051919
X016732Y052953
X016732Y053691
X018799Y053691
X019833Y053691
X018799Y052953
X019833Y052953
X019488Y052018
X018799Y051476
X020177Y051476
X018807Y050928
X020177Y050928
X018799Y050443
X020177Y050443
X019488Y049803
X018504Y048819
X019488Y048622
X018799Y048031
X020177Y048031
X018799Y047539
X020177Y047539
X018799Y047047
X020177Y047047
X018504Y046654
X018898Y045669
X019685Y045669
X018898Y044882
X019685Y044882
X018898Y044094
X019685Y044094
X020177Y043701
X019685Y043307
X018898Y043307
X020177Y042913
X018898Y04252
X019685Y04252
X020177Y042126
X019685Y041732
X018898Y041732
X020177Y041339
X018898Y040945
X019685Y040945
X020177Y040551
X019685Y040157
X018898Y040157
X019685Y03937
X018898Y03937
X019685Y038583
X018898Y038583
X019685Y037992
X018898Y037992
X018898Y036614
X020079Y036614
X018898Y035433
X020079Y035433
X018898Y034252
X020079Y034252
X020079Y033071
X018898Y033071
X018898Y03189
X020079Y03189
X02126Y03189
X02126Y033071
X02126Y034252
X02126Y035433
X02101Y036693
X020984Y037185
X022638Y037992
X02126Y037992
X020472Y037992
X022047Y037992
X02126Y038583
X020472Y038583
X022047Y038583
X022638Y03878
X021358Y03937
X020866Y03937
X02185Y03937
X022539Y039567
X022539Y040551
X022539Y041339
X022539Y042126
X022539Y042913
X022539Y043701
X022835Y044882
X021358Y044882
X020866Y044882
X02185Y044882
X022047Y045669
X020472Y045669
X022835Y045669
X02126Y045669
X020866Y046654
X022047Y046654
X020866Y047638
X022047Y047638
X020866Y048819
X022047Y048819
X020866Y049852
X0219Y049852
X020866Y050886
X0219Y050886
X020866Y051919
X0219Y051919
X0219Y052953
X020866Y052953
X020866Y053691
X0219Y053691
X022933Y053691
X023967Y053691
X025Y053691
X022933Y052953
X025Y052953
X023967Y052953
X024016Y051969
X022933Y051919
X025Y051919
X023327Y051435
X024705Y051435
X023327Y050886
X024705Y050886
X023327Y050401
X024705Y050401
X022933Y049852
X024016Y049852
X025Y049852
X023228Y048819
X024016Y04858
X023327Y04799
X024705Y04799
X024705Y047498
X023327Y047498
X023327Y047005
X024705Y047005
X023228Y046654
X025197Y045866
X024409Y045669
X023622Y045669
X024409Y044882
X023622Y044882
X024409Y044094
X023622Y044094
X023622Y043307
X024409Y043307
X023031Y043307
X025234Y04248
X024114Y040453
X024213Y039272
X026427Y03189
X025906Y038858
X025551Y040472
X025906Y040472
X026234Y04248
X027596Y04248
X025734Y04248
X026734Y04248
X025689Y045866
X026772Y045866
X02628Y045866
X027559Y045866
X027165Y04626
X025591Y046654
X027165Y04685
X027559Y047835
X027165Y047835
X026772Y047835
X026378Y047835
X025591Y048819
X026033Y049852
X027165Y050541
X026033Y050886
X027067Y050886
X027067Y051919
X026033Y051919
X027067Y052953
X026033Y052953
X026033Y053691
X027067Y053691
X0281Y053691
X029134Y053691
X030167Y053691
X029134Y052953
X0281Y052953
X030167Y052953
X029134Y051919
X0281Y051919
X030167Y051919
X029134Y050886
X0281Y050886
X030156Y050886
X028839Y050541
X029724Y050394
X028002Y049902
X029724Y049902
X02874Y047835
X028346Y047835
X027953Y047835
X029134Y047835
X030156Y04748
X030315Y04685
X027953Y04685
X029528Y04685
X02874Y04685
X029331Y04626
X028346Y04626
X030315Y046063
X029232Y045866
X028051Y045866
X028642Y045866
X029724Y045276
X030315Y045276
X029724Y044488
X030315Y044488
X030315Y043701
X029724Y043701
X029096Y04248
X028096Y04248
X028596Y04248
X029134Y041929
X031171Y01315
X03189Y043701
X032677Y043701
X031102Y043701
X031102Y044488
X03189Y045276
X031102Y045276
X031102Y046063
X03189Y046063
X032677Y046063
X03189Y04685
X032677Y04685
X031102Y04685
X031156Y04748
X032518Y04748
X031656Y04748
X030656Y04748
X032087Y048819
X032087Y049606
X032087Y050394
X031156Y050886
X03066Y050886
X032518Y050886
X031656Y050886
X031201Y051919
X032234Y051919
X032234Y052953
X031201Y052953
X031201Y053691
X032234Y053691
X033268Y053691
X034301Y053691
X033268Y052953
X034301Y052953
X033268Y051919
X034301Y051919
X033518Y050886
X033022Y050886
X034018Y050886
X034449Y050886
X034449Y050394
X034449Y049606
X034449Y048868
X034018Y04748
X033518Y04748
X033018Y04748
X033465Y04685
X034252Y04685
X034252Y046063
X033465Y046063
X034252Y045276
X033465Y045276
X034252Y044488
X034252Y043701
X033465Y043701
X03312Y01314
X039124Y006693
X041575Y007874
X040354Y00812
X041575Y009291
X040453Y00935
X039075Y00935
X037087Y013228
X042569Y015354
X041093Y015354
X041575Y022823
X041575Y024263
X042569Y030315
X041093Y030315
X041575Y037717
X041575Y039291
X041093Y045276
X042569Y045276
X045208Y036614
X043768Y036614
X047087Y036614
X043228Y035433
X045748Y035433
X045197Y034724
X043813Y034724
X043768Y021654
X045208Y021654
X045748Y020472
X043228Y020472
X043768Y006693
X045208Y006693
X04378Y00622
X045197Y00622
X043228Y005512
X045748Y005512
X04378Y004803
X045197Y004803
X050551Y005984
X050551Y007874
X05252Y013701
X050709Y014488
X05252Y015118
X050709Y015906
X050551Y020984
X050551Y022795
X052126Y022992
X05252Y028661
X050709Y029449
X05252Y030118
X050709Y030866
X050551Y035945
X048346Y036614
X050551Y037756
X052136Y037963
X05252Y043622
X050709Y044409
X05252Y045039
X050709Y045827
X05252Y051575
X05252Y053465
X056366Y052756
X057807Y052756
X057953Y039685
X05937Y039685
X059921Y038976
X057402Y038976
X05937Y038268
X057953Y038268
X054026Y037963
X059382Y037795
X057941Y037795
X057953Y024724
X05937Y024724
X059921Y024016
X057402Y024016
X057953Y023307
X05937Y023307
X054016Y022992
X057941Y022835
X059382Y022835
X065276Y005512
X063622Y007835
X063622Y009331
X060581Y014173
X062057Y014173
X064616Y015354
X06314Y015354
X061575Y020236
X065276Y020472
X061575Y021654
X063622Y022795
X063622Y024252
X062008Y029134
X06063Y029134
X064567Y030315
X063189Y030315
X061575Y035197
X065276Y035433
X061575Y036614
X063622Y037756
X063622Y039252
X062057Y044094
X060581Y044094
X06314Y045276
X064616Y045276
X062726Y050325
X061191Y050325
X061969Y051181
X06126Y051687
X062677Y051687
X062677Y053037
X06126Y053037
X061969Y053543
X065815Y036614
X067256Y036614
X067244Y036142
X065827Y036142
X067795Y035433
X067244Y034724
X065827Y034724
X065815Y021654
X067256Y021654
X065827Y021181
X067244Y021181
X067795Y020472
X067244Y019764
X065827Y019764
X065815Y006693
X067256Y006693
X067244Y00622
X065827Y00622
X067795Y005512
X067244Y004803
X065827Y004803
X072598Y006024
X072598Y007835
X072598Y014477
X072598Y015917
X072598Y020945
X072598Y022835
X072598Y029437
X072598Y030878
X072598Y035945
X072598Y037756
X072598Y044398
X072598Y045838
X074567Y053465
X074567Y051575
X074567Y045039
X074567Y043622
X074173Y037953
X076063Y037953
X074646Y030079
X074646Y028661
X074213Y022992
X076063Y022992
X074646Y015118
X074646Y013701
X082677Y014173
X079989Y022835
X081429Y022835
X08Y023307
X081417Y023307
X079449Y024016
X081969Y024016
X081417Y024724
X082677Y029134
X081429Y037795
X079989Y037795
X081417Y038268
X08Y038268
X081969Y038976
X079449Y038976
X08Y039685
X081417Y039685
X082677Y044094
X079854Y052756
X078414Y052756
X084016Y053543
X083307Y053037
X084724Y053037
X083307Y051687
X084724Y051687
X084016Y051181
X083307Y050315
X08437Y049882
X085187Y045276
X086663Y045276
X084055Y044094
X085669Y039252
X085669Y037756
X083622Y036614
X087863Y036614
X087323Y035433
X083622Y035197
X085187Y030315
X086663Y030315
X084094Y029134
X085669Y024291
X085669Y022795
X087863Y021654
X083622Y021654
X087323Y020472
X083622Y020236
X086663Y015354
X085187Y015354
X084094Y014173
X085669Y009331
X085669Y007835
X087863Y006693
X087323Y005512
X087874Y004803
X089291Y004803
X089843Y005512
X089291Y00622
X087874Y00622
X089303Y006693
X087874Y019764
X089291Y019764
X089843Y020472
X087874Y021181
X089291Y021181
X089303Y021654
X089291Y034724
X087874Y034724
X089843Y035433
X087874Y036142
X089291Y036142
X089303Y036614
X094646Y045838
X094646Y044449
X094646Y037756
X094646Y035945
X094646Y030878
X094646Y029449
X094646Y022795
X094646Y020984
X094646Y015917
X094646Y014477
X094646Y007835
X094646Y006024
T5C.04F0S0
X010035Y006417
X009035Y006417
X012035Y006417
X011035Y006417
X010035Y007417
X012035Y007417
X009035Y007417
X011035Y007417
X015035Y007417
X014035Y007417
X013035Y007417
X017035Y007417
X016035Y007417
X020035Y007417
X019035Y007417
X018035Y007417
X016035Y006417
X013035Y006417
X020035Y006417
X014035Y006417
X019035Y006417
X017035Y006417
X018035Y006417
X015035Y006417
X022035Y006417
X021035Y006417
X024035Y006417
X023035Y006417
X022035Y007417
X024035Y007417
X021035Y007417
X023035Y007417
T6C.07F0S0
X006618Y048637
X008268Y048637
X009918Y048637
X012523Y048637
X006618Y050287
X008268Y050287
X012523Y050287
X009918Y050287
X014173Y050287
X015823Y050287
X014173Y048637
X015823Y048637
T7C.11024F0S0
X007035Y005417
X026035Y005417
T8C.118F0S0
X006618Y053157
X009918Y053157
X012523Y053157
X015823Y053157
M30
