*
*
G04 PADS VX.2.2 Build Number: 9893964 generated Gerber (RS-274-X) file*
G04 PC Version=2.1*
*
%IN "SIAHashBd742901R0pcb.pc"*%
*
%MOIN*%
*
%FSLAX35Y35*%
*
*
*
*
G04 PC Standard Apertures*
*
*
G04 Thermal Relief Aperture macro.*
%AMTER*
1,1,$1,0,0*
1,0,$1-$2,0,0*
21,0,$3,$4,0,0,45*
21,0,$3,$4,0,0,135*
%
*
*
G04 Annular Aperture macro.*
%AMANN*
1,1,$1,0,0*
1,0,$2,0,0*
%
*
*
G04 Odd Aperture macro.*
%AMODD*
1,1,$1,0,0*
1,0,$1-0.005,0,0*
%
*
*
G04 PC Custom Aperture Macros*
*
*
*
*
*
*
G04 PC Aperture Table*
*
%ADD010C,0.001*%
%ADD012C,0.01*%
%ADD013C,0.008*%
%ADD017C,0.007*%
%ADD022R,0.03X0.038*%
%ADD023R,0.038X0.03*%
%ADD040R,0.0142X0.0374*%
%ADD044R,0.01772X0.05709*%
%ADD060R,0.036X0.036*%
%ADD089R,0.0687X0.0807*%
%ADD098R,0.05X0.036*%
%ADD103R,0.02717X0.03937*%
%ADD157R,0.0354X0.03147*%
%ADD158R,0.055X0.06*%
%ADD159R,0.05709X0.01772*%
%ADD163C,0.01575*%
%ADD164R,0.01969X0.01969*%
%ADD165R,0.06X0.1*%
%ADD174R,0.06X0.055*%
%ADD176R,0.0315X0.01181*%
%ADD177R,0.00787X0.00787*%
%ADD178R,0.03147X0.0354*%
%ADD179R,0.02362X0.05906*%
%ADD180R,0.02362X0.07874*%
%ADD181R,0.02362X0.01181*%
%ADD182R,0.05906X0.08858*%
%ADD183R,0.01181X0.02283*%
%ADD185R,0.0248X0.01378*%
%ADD186R,0.00984X0.01969*%
%ADD187R,0.083X0.154*%
%ADD188R,0.1X0.06*%
%ADD189R,0.154X0.083*%
%ADD190R,0.033X0.011*%
%ADD191R,0.011X0.033*%
%ADD192R,0.12X0.081*%
%ADD193R,0.01573X0.04723*%
%ADD194R,0.01654X0.03937*%
%ADD197R,0.03937X0.01772*%
%ADD199R,0.16299X0.48504*%
%ADD200C,0.00472*%
%ADD201C,0.00197*%
%ADD205R,0.135X0.07*%
%ADD206R,0.08X0.15*%
%ADD208C,0.00472*%
%ADD211R,0.024X0.02*%
%ADD212R,0.02X0.024*%
*
*
*
*
G04 PC Circuitry*
G04 Layer Name SIAHashBd742901R0pcb.pc - circuitry*
%LPD*%
*
*
G04 PC Custom Flashes*
G04 Layer Name SIAHashBd742901R0pcb.pc - flashes*
%LPD*%
*
*
G04 PC Circuitry*
G04 Layer Name SIAHashBd742901R0pcb.pc - circuitry*
%LPD*%
*
G54D10*
G54D12*
G01X1779815Y1314518D02*
Y1307955D01*
Y1314518D02*
X1781860D01*
X1782542Y1314205*
X1782770Y1313893*
X1782997Y1313268*
Y1312330*
X1782770Y1311705*
X1782542Y1311393*
X1781860Y1311080*
X1779815*
X1786860Y1314518D02*
X1785042Y1307955D01*
X1786860Y1314518D02*
X1788679Y1307955D01*
X1785724Y1310143D02*
X1787997D01*
X1793906Y1313580D02*
X1793451Y1314205D01*
X1792770Y1314518*
X1791860*
X1791179Y1314205*
X1790724Y1313580*
Y1312955*
X1790951Y1312330*
X1791179Y1312018*
X1791633Y1311705*
X1792997Y1311080*
X1793451Y1310768*
X1793679Y1310455*
X1793906Y1309830*
Y1308893*
X1793451Y1308268*
X1792770Y1307955*
X1791860*
X1791179Y1308268*
X1790724Y1308893*
X1797542Y1314518D02*
Y1307955D01*
X1795951Y1314518D02*
X1799133D01*
X1801179D02*
Y1307955D01*
Y1314518D02*
X1804133D01*
X1801179Y1311393D02*
X1802997D01*
X1801179Y1307955D02*
X1804133D01*
X1811406Y1314518D02*
Y1307955D01*
Y1314518D02*
X1813224Y1307955D01*
X1815042Y1314518D02*
X1813224Y1307955D01*
X1815042Y1314518D02*
Y1307955D01*
X1818906Y1314518D02*
X1817088Y1307955D01*
X1818906Y1314518D02*
X1820724Y1307955D01*
X1817770Y1310143D02*
X1820042D01*
X1825951Y1313580D02*
X1825497Y1314205D01*
X1824815Y1314518*
X1823906*
X1823224Y1314205*
X1822770Y1313580*
Y1312955*
X1822997Y1312330*
X1823224Y1312018*
X1823679Y1311705*
X1825042Y1311080*
X1825497Y1310768*
X1825724Y1310455*
X1825951Y1309830*
Y1308893*
X1825497Y1308268*
X1824815Y1307955*
X1823906*
X1823224Y1308268*
X1822770Y1308893*
X1827997Y1314518D02*
Y1307955D01*
X1831179Y1314518D02*
X1827997Y1310143D01*
X1829133Y1311705D02*
X1831179Y1307955D01*
X1840042Y1314518D02*
Y1307955D01*
X1838451Y1314518D02*
X1841633D01*
X1845042D02*
X1844588Y1314205D01*
X1844133Y1313580*
X1843906Y1312955*
X1843679Y1312018*
Y1310455*
X1843906Y1309518*
X1844133Y1308893*
X1844588Y1308268*
X1845042Y1307955*
X1845951*
X1846406Y1308268*
X1846860Y1308893*
X1847088Y1309518*
X1847315Y1310455*
Y1312018*
X1847088Y1312955*
X1846860Y1313580*
X1846406Y1314205*
X1845951Y1314518*
X1845042*
X1849360D02*
Y1307955D01*
Y1314518D02*
X1851406D01*
X1852088Y1314205*
X1852315Y1313893*
X1852542Y1313268*
Y1312330*
X1852315Y1311705*
X1852088Y1311393*
X1851406Y1311080*
X1849360*
X1498752Y1273494D02*
Y1266931D01*
Y1273494D02*
X1500343D01*
X1501025Y1273181*
X1501479Y1272556*
X1501707Y1271931*
X1501934Y1270994*
Y1269431*
X1501707Y1268494*
X1501479Y1267869*
X1501025Y1267244*
X1500343Y1266931*
X1498752*
X1503979Y1273494D02*
Y1266931D01*
Y1273494D02*
X1506934D01*
X1503979Y1270369D02*
X1505797D01*
X1503979Y1266931D02*
X1506934D01*
X1512161Y1272556D02*
X1511707Y1273181D01*
X1511025Y1273494*
X1510116*
X1509434Y1273181*
X1508979Y1272556*
Y1271931*
X1509207Y1271306*
X1509434Y1270994*
X1509888Y1270681*
X1511252Y1270056*
X1511707Y1269744*
X1511934Y1269431*
X1512161Y1268806*
Y1267869*
X1511707Y1267244*
X1511025Y1266931*
X1510116*
X1509434Y1267244*
X1508979Y1267869*
X1514207Y1273494D02*
Y1266931D01*
X1519661Y1271931D02*
X1519434Y1272556D01*
X1518979Y1273181*
X1518525Y1273494*
X1517616*
X1517161Y1273181*
X1516707Y1272556*
X1516479Y1271931*
X1516252Y1270994*
Y1269431*
X1516479Y1268494*
X1516707Y1267869*
X1517161Y1267244*
X1517616Y1266931*
X1518525*
X1518979Y1267244*
X1519434Y1267869*
X1519661Y1268494*
Y1269431*
X1518525D02*
X1519661D01*
X1521707Y1273494D02*
Y1266931D01*
Y1273494D02*
X1524888Y1266931D01*
Y1273494D02*
Y1266931D01*
X1532161Y1273494D02*
Y1266931D01*
X1534207Y1273494D02*
Y1266931D01*
Y1273494D02*
X1537388Y1266931D01*
Y1273494D02*
Y1266931D01*
X1539434Y1273494D02*
Y1266931D01*
Y1273494D02*
X1542388D01*
X1539434Y1270369D02*
X1541252D01*
X1545797Y1273494D02*
X1545343Y1273181D01*
X1544888Y1272556*
X1544661Y1271931*
X1544434Y1270994*
Y1269431*
X1544661Y1268494*
X1544888Y1267869*
X1545343Y1267244*
X1545797Y1266931*
X1546707*
X1547161Y1267244*
X1547616Y1267869*
X1547843Y1268494*
X1548070Y1269431*
Y1270994*
X1547843Y1271931*
X1547616Y1272556*
X1547161Y1273181*
X1546707Y1273494*
X1545797*
X1555343Y1272244D02*
X1555797Y1272556D01*
X1556479Y1273494*
Y1266931*
X1561479Y1271306D02*
X1561252Y1270369D01*
X1560797Y1269744*
X1560116Y1269431*
X1559888*
X1559207Y1269744*
X1558752Y1270369*
X1558525Y1271306*
Y1271619*
X1558752Y1272556*
X1559207Y1273181*
X1559888Y1273494*
X1560116*
X1560797Y1273181*
X1561252Y1272556*
X1561479Y1271306*
Y1269744*
X1561252Y1268181*
X1560797Y1267244*
X1560116Y1266931*
X1559661*
X1558979Y1267244*
X1558752Y1267869*
X1565797Y1273494D02*
Y1268494D01*
X1565570Y1267556*
X1565343Y1267244*
X1564888Y1266931*
X1564434*
X1563979Y1267244*
X1563752Y1267556*
X1563525Y1268494*
Y1269119*
X1567843Y1273494D02*
Y1268806D01*
X1568070Y1267869*
X1568525Y1267244*
X1569207Y1266931*
X1569661*
X1570343Y1267244*
X1570797Y1267869*
X1571025Y1268806*
Y1273494*
X1573070D02*
Y1266931D01*
Y1273494D02*
X1576252Y1266931D01*
Y1273494D02*
Y1266931D01*
X1578525Y1271931D02*
Y1272244D01*
X1578752Y1272869*
X1578979Y1273181*
X1579434Y1273494*
X1580343*
X1580797Y1273181*
X1581025Y1272869*
X1581252Y1272244*
Y1271619*
X1581025Y1270994*
X1580570Y1270056*
X1578297Y1266931*
X1581479*
X1584888Y1273494D02*
X1584207Y1273181D01*
X1583752Y1272244*
X1583525Y1270681*
Y1269744*
X1583752Y1268181*
X1584207Y1267244*
X1584888Y1266931*
X1585343*
X1586025Y1267244*
X1586479Y1268181*
X1586707Y1269744*
Y1270681*
X1586479Y1272244*
X1586025Y1273181*
X1585343Y1273494*
X1584888*
X1588752Y1272244D02*
X1589207Y1272556D01*
X1589888Y1273494*
Y1266931*
X1593070Y1273494D02*
X1592388Y1273181D01*
X1592161Y1272556*
Y1271931*
X1592388Y1271306*
X1592843Y1270994*
X1593752Y1270681*
X1594434Y1270369*
X1594888Y1269744*
X1595116Y1269119*
Y1268181*
X1594888Y1267556*
X1594661Y1267244*
X1593979Y1266931*
X1593070*
X1592388Y1267244*
X1592161Y1267556*
X1591934Y1268181*
Y1269119*
X1592161Y1269744*
X1592616Y1270369*
X1593297Y1270681*
X1594207Y1270994*
X1594661Y1271306*
X1594888Y1271931*
Y1272556*
X1594661Y1273181*
X1593979Y1273494*
X1593070*
X1500343Y1263494D02*
Y1256931D01*
X1498752Y1263494D02*
X1501934D01*
X1503979D02*
Y1256931D01*
Y1263494D02*
X1506934D01*
X1503979Y1260369D02*
X1505797D01*
X1503979Y1256931D02*
X1506934D01*
X1512388Y1261931D02*
X1512161Y1262556D01*
X1511707Y1263181*
X1511252Y1263494*
X1510343*
X1509888Y1263181*
X1509434Y1262556*
X1509207Y1261931*
X1508979Y1260994*
Y1259431*
X1509207Y1258494*
X1509434Y1257869*
X1509888Y1257244*
X1510343Y1256931*
X1511252*
X1511707Y1257244*
X1512161Y1257869*
X1512388Y1258494*
X1514434Y1263494D02*
Y1256931D01*
X1517616Y1263494D02*
Y1256931D01*
X1514434Y1260369D02*
X1517616D01*
X1519661Y1263494D02*
Y1256931D01*
Y1263494D02*
X1522616D01*
X1519661Y1260369D02*
X1521479D01*
X1519661Y1256931D02*
X1522616D01*
X1524661Y1263494D02*
Y1256931D01*
Y1263494D02*
X1527843Y1256931D01*
Y1263494D02*
Y1256931D01*
X1535116Y1263494D02*
Y1256931D01*
X1537161Y1263494D02*
Y1256931D01*
Y1263494D02*
X1540343Y1256931D01*
Y1263494D02*
Y1256931D01*
X1545797Y1261931D02*
X1545570Y1262556D01*
X1545116Y1263181*
X1544661Y1263494*
X1543752*
X1543297Y1263181*
X1542843Y1262556*
X1542616Y1261931*
X1542388Y1260994*
Y1259431*
X1542616Y1258494*
X1542843Y1257869*
X1543297Y1257244*
X1543752Y1256931*
X1544661*
X1545116Y1257244*
X1545570Y1257869*
X1545797Y1258494*
X1556025Y1263494D02*
X1553752D01*
X1553525Y1260681*
X1553752Y1260994*
X1554434Y1261306*
X1555116*
X1555797Y1260994*
X1556252Y1260369*
X1556479Y1259431*
X1556252Y1258806*
X1556025Y1257869*
X1555570Y1257244*
X1554888Y1256931*
X1554207*
X1553525Y1257244*
X1553297Y1257556*
X1553070Y1258181*
X1559888Y1263494D02*
X1559207Y1263181D01*
X1558752Y1262244*
X1558525Y1260681*
Y1259744*
X1558752Y1258181*
X1559207Y1257244*
X1559888Y1256931*
X1560343*
X1561025Y1257244*
X1561479Y1258181*
X1561707Y1259744*
Y1260681*
X1561479Y1262244*
X1561025Y1263181*
X1560343Y1263494*
X1559888*
X1564888D02*
X1564207Y1263181D01*
X1563979Y1262556*
Y1261931*
X1564207Y1261306*
X1564661Y1260994*
X1565570Y1260681*
X1566252Y1260369*
X1566707Y1259744*
X1566934Y1259119*
Y1258181*
X1566707Y1257556*
X1566479Y1257244*
X1565797Y1256931*
X1564888*
X1564207Y1257244*
X1563979Y1257556*
X1563752Y1258181*
Y1259119*
X1563979Y1259744*
X1564434Y1260369*
X1565116Y1260681*
X1566025Y1260994*
X1566479Y1261306*
X1566707Y1261931*
Y1262556*
X1566479Y1263181*
X1565797Y1263494*
X1564888*
X1568979Y1259744D02*
X1573070D01*
X1577388Y1263494D02*
X1575116Y1259119D01*
X1578525*
X1577388Y1263494D02*
Y1256931D01*
X1583752Y1263494D02*
X1581479Y1256931D01*
X1580570Y1263494D02*
X1583752D01*
X1586934D02*
X1586252Y1263181D01*
X1586025Y1262556*
Y1261931*
X1586252Y1261306*
X1586707Y1260994*
X1587616Y1260681*
X1588297Y1260369*
X1588752Y1259744*
X1588979Y1259119*
Y1258181*
X1588752Y1257556*
X1588525Y1257244*
X1587843Y1256931*
X1586934*
X1586252Y1257244*
X1586025Y1257556*
X1585797Y1258181*
Y1259119*
X1586025Y1259744*
X1586479Y1260369*
X1587161Y1260681*
X1588070Y1260994*
X1588525Y1261306*
X1588752Y1261931*
Y1262556*
X1588525Y1263181*
X1587843Y1263494*
X1586934*
X1591025Y1259744D02*
X1595116D01*
X1598525Y1263494D02*
X1597843Y1263181D01*
X1597388Y1262244*
X1597161Y1260681*
Y1259744*
X1597388Y1258181*
X1597843Y1257244*
X1598525Y1256931*
X1598979*
X1599661Y1257244*
X1600116Y1258181*
X1600343Y1259744*
Y1260681*
X1600116Y1262244*
X1599661Y1263181*
X1598979Y1263494*
X1598525*
X1603752D02*
X1603070Y1263181D01*
X1602616Y1262244*
X1602388Y1260681*
Y1259744*
X1602616Y1258181*
X1603070Y1257244*
X1603752Y1256931*
X1604207*
X1604888Y1257244*
X1605343Y1258181*
X1605570Y1259744*
Y1260681*
X1605343Y1262244*
X1604888Y1263181*
X1604207Y1263494*
X1603752*
X1609888D02*
X1607616Y1259119D01*
X1611025*
X1609888Y1263494D02*
Y1256931D01*
X1613297Y1261931D02*
Y1262244D01*
X1613525Y1262869*
X1613752Y1263181*
X1614207Y1263494*
X1615116*
X1615570Y1263181*
X1615797Y1262869*
X1616025Y1262244*
Y1261619*
X1615797Y1260994*
X1615343Y1260056*
X1613070Y1256931*
X1616252*
X1624207Y1263494D02*
Y1258181D01*
X1624434Y1257244*
X1624888Y1256931*
X1625343*
X1623525Y1261306D02*
X1625116D01*
X1627388D02*
Y1254744D01*
Y1260369D02*
X1627843Y1260994D01*
X1628297Y1261306*
X1628979*
X1629434Y1260994*
X1629888Y1260369*
X1630116Y1259431*
Y1258806*
X1629888Y1257869*
X1629434Y1257244*
X1628979Y1256931*
X1628297*
X1627843Y1257244*
X1627388Y1257869*
X1634888Y1263494D02*
Y1256931D01*
Y1260369D02*
X1634434Y1260994D01*
X1633979Y1261306*
X1633297*
X1632843Y1260994*
X1632388Y1260369*
X1632161Y1259431*
Y1258806*
X1632388Y1257869*
X1632843Y1257244*
X1633297Y1256931*
X1633979*
X1634434Y1257244*
X1634888Y1257869*
X1498752Y1238494D02*
Y1231931D01*
Y1238494D02*
X1500570Y1231931D01*
X1502388Y1238494D02*
X1500570Y1231931D01*
X1502388Y1238494D02*
Y1231931D01*
X1506252Y1238494D02*
X1504434Y1231931D01*
X1506252Y1238494D02*
X1508070Y1231931D01*
X1505116Y1234119D02*
X1507388D01*
X1511707Y1238494D02*
Y1231931D01*
X1510116Y1238494D02*
X1513297D01*
X1515343D02*
Y1231931D01*
Y1238494D02*
X1518297D01*
X1515343Y1235369D02*
X1517161D01*
X1515343Y1231931D02*
X1518297D01*
X1520343Y1238494D02*
Y1231931D01*
Y1238494D02*
X1522388D01*
X1523070Y1238181*
X1523297Y1237869*
X1523525Y1237244*
Y1236619*
X1523297Y1235994*
X1523070Y1235681*
X1522388Y1235369*
X1520343*
X1521934D02*
X1523525Y1231931D01*
X1525570Y1238494D02*
Y1231931D01*
X1529434Y1238494D02*
X1527616Y1231931D01*
X1529434Y1238494D02*
X1531252Y1231931D01*
X1528297Y1234119D02*
X1530570D01*
X1533297Y1238494D02*
Y1231931D01*
X1536025*
X1543297Y1238494D02*
Y1231931D01*
Y1238494D02*
X1545343D01*
X1546025Y1238181*
X1546252Y1237869*
X1546479Y1237244*
Y1236306*
X1546252Y1235681*
X1546025Y1235369*
X1545343Y1235056*
X1543297*
X1548525Y1238494D02*
Y1231931D01*
Y1238494D02*
X1551479D01*
X1548525Y1235369D02*
X1550343D01*
X1548525Y1231931D02*
X1551479D01*
X1553525Y1238494D02*
Y1231931D01*
Y1238494D02*
X1555570D01*
X1556252Y1238181*
X1556479Y1237869*
X1556707Y1237244*
Y1236619*
X1556479Y1235994*
X1556252Y1235681*
X1555570Y1235369*
X1553525*
X1555116D02*
X1556707Y1231931D01*
X1563979Y1238494D02*
Y1231931D01*
X1566025Y1238494D02*
Y1231931D01*
Y1238494D02*
X1568070D01*
X1568752Y1238181*
X1568979Y1237869*
X1569207Y1237244*
Y1236306*
X1568979Y1235681*
X1568752Y1235369*
X1568070Y1235056*
X1566025*
X1574661Y1236931D02*
X1574434Y1237556D01*
X1573979Y1238181*
X1573525Y1238494*
X1572616*
X1572161Y1238181*
X1571707Y1237556*
X1571479Y1236931*
X1571252Y1235994*
Y1234431*
X1571479Y1233494*
X1571707Y1232869*
X1572161Y1232244*
X1572616Y1231931*
X1573525*
X1573979Y1232244*
X1574434Y1232869*
X1574661Y1233494*
X1576707Y1234744D02*
X1580797D01*
X1585116Y1238494D02*
X1582843Y1234119D01*
X1586252*
X1585116Y1238494D02*
Y1231931D01*
X1588297Y1237244D02*
X1588752Y1237556D01*
X1589434Y1238494*
Y1231931*
X1592843Y1238494D02*
X1592161Y1238181D01*
X1591707Y1237244*
X1591479Y1235681*
Y1234744*
X1591707Y1233181*
X1592161Y1232244*
X1592843Y1231931*
X1593297*
X1593979Y1232244*
X1594434Y1233181*
X1594661Y1234744*
Y1235681*
X1594434Y1237244*
X1593979Y1238181*
X1593297Y1238494*
X1592843*
X1596707Y1237244D02*
X1597161Y1237556D01*
X1597843Y1238494*
Y1231931*
X1603979Y1239744D02*
X1599888Y1229744D01*
X1606025Y1237244D02*
X1606479Y1237556D01*
X1607161Y1238494*
Y1231931*
X1609434Y1236931D02*
Y1237244D01*
X1609661Y1237869*
X1609888Y1238181*
X1610343Y1238494*
X1611252*
X1611707Y1238181*
X1611934Y1237869*
X1612161Y1237244*
Y1236619*
X1611934Y1235994*
X1611479Y1235056*
X1609207Y1231931*
X1612388*
X1617161Y1237556D02*
X1616934Y1238181D01*
X1616252Y1238494*
X1615797*
X1615116Y1238181*
X1614661Y1237244*
X1614434Y1235681*
Y1234119*
X1614661Y1232869*
X1615116Y1232244*
X1615797Y1231931*
X1616025*
X1616707Y1232244*
X1617161Y1232869*
X1617388Y1233806*
Y1234119*
X1617161Y1235056*
X1616707Y1235681*
X1616025Y1235994*
X1615797*
X1615116Y1235681*
X1614661Y1235056*
X1614434Y1234119*
X1619888Y1232244D02*
X1619661Y1231931D01*
X1619434Y1232244*
X1619661Y1232556*
X1619888Y1232244*
Y1231619*
X1619661Y1230994*
X1619434Y1230681*
X1628297Y1238494D02*
X1627616Y1238181D01*
X1627388Y1237556*
Y1236931*
X1627616Y1236306*
X1628070Y1235994*
X1628979Y1235681*
X1629661Y1235369*
X1630116Y1234744*
X1630343Y1234119*
Y1233181*
X1630116Y1232556*
X1629888Y1232244*
X1629207Y1231931*
X1628297*
X1627616Y1232244*
X1627388Y1232556*
X1627161Y1233181*
Y1234119*
X1627388Y1234744*
X1627843Y1235369*
X1628525Y1235681*
X1629434Y1235994*
X1629888Y1236306*
X1630116Y1236931*
Y1237556*
X1629888Y1238181*
X1629207Y1238494*
X1628297*
X1637616D02*
Y1231931D01*
X1640343*
X1644207Y1238494D02*
X1642388Y1231931D01*
X1644207Y1238494D02*
X1646025Y1231931D01*
X1643070Y1234119D02*
X1645343D01*
X1648070Y1238494D02*
X1649888Y1235369D01*
Y1231931*
X1651707Y1238494D02*
X1649888Y1235369D01*
X1653752Y1238494D02*
Y1231931D01*
Y1238494D02*
X1656707D01*
X1653752Y1235369D02*
X1655570D01*
X1653752Y1231931D02*
X1656707D01*
X1658752Y1238494D02*
Y1231931D01*
Y1238494D02*
X1660797D01*
X1661479Y1238181*
X1661707Y1237869*
X1661934Y1237244*
Y1236619*
X1661707Y1235994*
X1661479Y1235681*
X1660797Y1235369*
X1658752*
X1660343D02*
X1661934Y1231931D01*
X1664434Y1232244D02*
X1664207Y1231931D01*
X1663979Y1232244*
X1664207Y1232556*
X1664434Y1232244*
Y1231619*
X1664207Y1230994*
X1663979Y1230681*
X1674888Y1237556D02*
X1674434Y1238181D01*
X1673752Y1238494*
X1672843*
X1672161Y1238181*
X1671707Y1237556*
Y1236931*
X1671934Y1236306*
X1672161Y1235994*
X1672616Y1235681*
X1673979Y1235056*
X1674434Y1234744*
X1674661Y1234431*
X1674888Y1233806*
Y1232869*
X1674434Y1232244*
X1673752Y1231931*
X1672843*
X1672161Y1232244*
X1671707Y1232869*
X1676934Y1238494D02*
Y1231931D01*
Y1238494D02*
X1678752Y1231931D01*
X1680570Y1238494D02*
X1678752Y1231931D01*
X1680570Y1238494D02*
Y1231931D01*
X1683979Y1238494D02*
X1683525Y1238181D01*
X1683070Y1237556*
X1682843Y1236931*
X1682616Y1235994*
Y1234431*
X1682843Y1233494*
X1683070Y1232869*
X1683525Y1232244*
X1683979Y1231931*
X1684888*
X1685343Y1232244*
X1685797Y1232869*
X1686025Y1233494*
X1686252Y1234431*
Y1235994*
X1686025Y1236931*
X1685797Y1237556*
X1685343Y1238181*
X1684888Y1238494*
X1683979*
X1688297D02*
Y1231931D01*
Y1238494D02*
X1690343D01*
X1691025Y1238181*
X1691252Y1237869*
X1691479Y1237244*
Y1236619*
X1691252Y1235994*
X1691025Y1235681*
X1690343Y1235369*
X1688297D02*
X1690343D01*
X1691025Y1235056*
X1691252Y1234744*
X1691479Y1234119*
Y1233181*
X1691252Y1232556*
X1691025Y1232244*
X1690343Y1231931*
X1688297*
X1696934Y1236931D02*
X1696707Y1237556D01*
X1696252Y1238181*
X1695797Y1238494*
X1694888*
X1694434Y1238181*
X1693979Y1237556*
X1693752Y1236931*
X1693525Y1235994*
Y1234431*
X1693752Y1233494*
X1693979Y1232869*
X1694434Y1232244*
X1694888Y1231931*
X1695797*
X1696252Y1232244*
X1696707Y1232869*
X1696934Y1233494*
X1705797Y1239744D02*
X1705343Y1239119D01*
X1704888Y1238181*
X1704434Y1236931*
X1704207Y1235369*
Y1234119*
X1704434Y1232556*
X1704888Y1231306*
X1705343Y1230369*
X1705797Y1229744*
X1707843Y1238494D02*
Y1231931D01*
X1710570*
X1712616Y1238494D02*
Y1231931D01*
Y1238494D02*
X1714661D01*
X1715343Y1238181*
X1715570Y1237869*
X1715797Y1237244*
Y1236306*
X1715570Y1235681*
X1715343Y1235369*
X1714661Y1235056*
X1712616*
X1717843Y1238494D02*
Y1231931D01*
X1719888Y1239744D02*
X1720343Y1239119D01*
X1720797Y1238181*
X1721252Y1236931*
X1721479Y1235369*
Y1234119*
X1721252Y1232556*
X1720797Y1231306*
X1720343Y1230369*
X1719888Y1229744*
X1732161Y1236931D02*
X1731934Y1237556D01*
X1731479Y1238181*
X1731025Y1238494*
X1730116*
X1729661Y1238181*
X1729207Y1237556*
X1728979Y1236931*
X1728752Y1235994*
Y1234431*
X1728979Y1233494*
X1729207Y1232869*
X1729661Y1232244*
X1730116Y1231931*
X1731025*
X1731479Y1232244*
X1731934Y1232869*
X1732161Y1233494*
X1735570Y1238494D02*
X1735116Y1238181D01*
X1734661Y1237556*
X1734434Y1236931*
X1734207Y1235994*
Y1234431*
X1734434Y1233494*
X1734661Y1232869*
X1735116Y1232244*
X1735570Y1231931*
X1736479*
X1736934Y1232244*
X1737388Y1232869*
X1737616Y1233494*
X1737843Y1234431*
Y1235994*
X1737616Y1236931*
X1737388Y1237556*
X1736934Y1238181*
X1736479Y1238494*
X1735570*
X1739888D02*
Y1231931D01*
X1742616*
X1746025Y1238494D02*
X1745570Y1238181D01*
X1745116Y1237556*
X1744888Y1236931*
X1744661Y1235994*
Y1234431*
X1744888Y1233494*
X1745116Y1232869*
X1745570Y1232244*
X1746025Y1231931*
X1746934*
X1747388Y1232244*
X1747843Y1232869*
X1748070Y1233494*
X1748297Y1234431*
Y1235994*
X1748070Y1236931*
X1747843Y1237556*
X1747388Y1238181*
X1746934Y1238494*
X1746025*
X1750343D02*
Y1231931D01*
Y1238494D02*
X1752388D01*
X1753070Y1238181*
X1753297Y1237869*
X1753525Y1237244*
Y1236619*
X1753297Y1235994*
X1753070Y1235681*
X1752388Y1235369*
X1750343*
X1751934D02*
X1753525Y1231931D01*
X1760797Y1238494D02*
Y1231931D01*
Y1238494D02*
X1762843D01*
X1763525Y1238181*
X1763752Y1237869*
X1763979Y1237244*
Y1236619*
X1763752Y1235994*
X1763525Y1235681*
X1762843Y1235369*
X1760797*
X1762388D02*
X1763979Y1231931D01*
X1766025Y1238494D02*
Y1231931D01*
Y1238494D02*
X1768979D01*
X1766025Y1235369D02*
X1767843D01*
X1766025Y1231931D02*
X1768979D01*
X1771025Y1238494D02*
Y1231931D01*
Y1238494D02*
X1772616D01*
X1773297Y1238181*
X1773752Y1237556*
X1773979Y1236931*
X1774207Y1235994*
Y1234431*
X1773979Y1233494*
X1773752Y1232869*
X1773297Y1232244*
X1772616Y1231931*
X1771025*
X1498752Y1208494D02*
Y1201931D01*
Y1208494D02*
X1500343D01*
X1501025Y1208181*
X1501479Y1207556*
X1501707Y1206931*
X1501934Y1205994*
Y1204431*
X1501707Y1203494*
X1501479Y1202869*
X1501025Y1202244*
X1500343Y1201931*
X1498752*
X1503979Y1208494D02*
Y1201931D01*
X1506025Y1208494D02*
Y1201931D01*
Y1208494D02*
X1508979D01*
X1506025Y1205369D02*
X1507843D01*
X1506025Y1201931D02*
X1508979D01*
X1511025Y1208494D02*
Y1201931D01*
X1513752*
X1515797Y1208494D02*
Y1201931D01*
Y1208494D02*
X1518752D01*
X1515797Y1205369D02*
X1517616D01*
X1515797Y1201931D02*
X1518752D01*
X1524207Y1206931D02*
X1523979Y1207556D01*
X1523525Y1208181*
X1523070Y1208494*
X1522161*
X1521707Y1208181*
X1521252Y1207556*
X1521025Y1206931*
X1520797Y1205994*
Y1204431*
X1521025Y1203494*
X1521252Y1202869*
X1521707Y1202244*
X1522161Y1201931*
X1523070*
X1523525Y1202244*
X1523979Y1202869*
X1524207Y1203494*
X1527843Y1208494D02*
Y1201931D01*
X1526252Y1208494D02*
X1529434D01*
X1531479D02*
Y1201931D01*
Y1208494D02*
X1533525D01*
X1534207Y1208181*
X1534434Y1207869*
X1534661Y1207244*
Y1206619*
X1534434Y1205994*
X1534207Y1205681*
X1533525Y1205369*
X1531479*
X1533070D02*
X1534661Y1201931D01*
X1536707Y1208494D02*
Y1201931D01*
X1542161Y1206931D02*
X1541934Y1207556D01*
X1541479Y1208181*
X1541025Y1208494*
X1540116*
X1539661Y1208181*
X1539207Y1207556*
X1538979Y1206931*
X1538752Y1205994*
Y1204431*
X1538979Y1203494*
X1539207Y1202869*
X1539661Y1202244*
X1540116Y1201931*
X1541025*
X1541479Y1202244*
X1541934Y1202869*
X1542161Y1203494*
X1551025Y1208494D02*
Y1201931D01*
X1549434Y1208494D02*
X1552616D01*
X1554661D02*
Y1201931D01*
X1557843Y1208494D02*
Y1201931D01*
X1554661Y1205369D02*
X1557843D01*
X1559888Y1208494D02*
Y1201931D01*
X1565343Y1206931D02*
X1565116Y1207556D01*
X1564661Y1208181*
X1564207Y1208494*
X1563297*
X1562843Y1208181*
X1562388Y1207556*
X1562161Y1206931*
X1561934Y1205994*
Y1204431*
X1562161Y1203494*
X1562388Y1202869*
X1562843Y1202244*
X1563297Y1201931*
X1564207*
X1564661Y1202244*
X1565116Y1202869*
X1565343Y1203494*
X1567388Y1208494D02*
Y1201931D01*
X1570570Y1208494D02*
X1567388Y1204119D01*
X1568525Y1205681D02*
X1570570Y1201931D01*
X1572616Y1208494D02*
Y1201931D01*
Y1208494D02*
X1575797Y1201931D01*
Y1208494D02*
Y1201931D01*
X1577843Y1208494D02*
Y1201931D01*
Y1208494D02*
X1580797D01*
X1577843Y1205369D02*
X1579661D01*
X1577843Y1201931D02*
X1580797D01*
X1586025Y1207556D02*
X1585570Y1208181D01*
X1584888Y1208494*
X1583979*
X1583297Y1208181*
X1582843Y1207556*
Y1206931*
X1583070Y1206306*
X1583297Y1205994*
X1583752Y1205681*
X1585116Y1205056*
X1585570Y1204744*
X1585797Y1204431*
X1586025Y1203806*
Y1202869*
X1585570Y1202244*
X1584888Y1201931*
X1583979*
X1583297Y1202244*
X1582843Y1202869*
X1591252Y1207556D02*
X1590797Y1208181D01*
X1590116Y1208494*
X1589207*
X1588525Y1208181*
X1588070Y1207556*
Y1206931*
X1588297Y1206306*
X1588525Y1205994*
X1588979Y1205681*
X1590343Y1205056*
X1590797Y1204744*
X1591025Y1204431*
X1591252Y1203806*
Y1202869*
X1590797Y1202244*
X1590116Y1201931*
X1589207*
X1588525Y1202244*
X1588070Y1202869*
X1599888Y1208494D02*
X1599434Y1208181D01*
X1598979Y1207556*
X1598752Y1206931*
X1598525Y1205994*
Y1204431*
X1598752Y1203494*
X1598979Y1202869*
X1599434Y1202244*
X1599888Y1201931*
X1600797*
X1601252Y1202244*
X1601707Y1202869*
X1601934Y1203494*
X1602161Y1204431*
Y1205994*
X1601934Y1206931*
X1601707Y1207556*
X1601252Y1208181*
X1600797Y1208494*
X1599888*
X1604207D02*
Y1203806D01*
X1604434Y1202869*
X1604888Y1202244*
X1605570Y1201931*
X1606025*
X1606707Y1202244*
X1607161Y1202869*
X1607388Y1203806*
Y1208494*
X1611025D02*
Y1201931D01*
X1609434Y1208494D02*
X1612616D01*
X1614661D02*
Y1201931D01*
Y1208494D02*
X1617616D01*
X1614661Y1205369D02*
X1616479D01*
X1614661Y1201931D02*
X1617616D01*
X1619661Y1208494D02*
Y1201931D01*
Y1208494D02*
X1621707D01*
X1622388Y1208181*
X1622616Y1207869*
X1622843Y1207244*
Y1206619*
X1622616Y1205994*
X1622388Y1205681*
X1621707Y1205369*
X1619661*
X1621252D02*
X1622843Y1201931D01*
X1633525Y1206931D02*
X1633297Y1207556D01*
X1632843Y1208181*
X1632388Y1208494*
X1631479*
X1631025Y1208181*
X1630570Y1207556*
X1630343Y1206931*
X1630116Y1205994*
Y1204431*
X1630343Y1203494*
X1630570Y1202869*
X1631025Y1202244*
X1631479Y1201931*
X1632388*
X1632843Y1202244*
X1633297Y1202869*
X1633525Y1203494*
X1636934Y1208494D02*
X1636479Y1208181D01*
X1636025Y1207556*
X1635797Y1206931*
X1635570Y1205994*
Y1204431*
X1635797Y1203494*
X1636025Y1202869*
X1636479Y1202244*
X1636934Y1201931*
X1637843*
X1638297Y1202244*
X1638752Y1202869*
X1638979Y1203494*
X1639207Y1204431*
Y1205994*
X1638979Y1206931*
X1638752Y1207556*
X1638297Y1208181*
X1637843Y1208494*
X1636934*
X1641252D02*
Y1201931D01*
Y1208494D02*
X1643297D01*
X1643979Y1208181*
X1644207Y1207869*
X1644434Y1207244*
Y1206619*
X1644207Y1205994*
X1643979Y1205681*
X1643297Y1205369*
X1641252*
X1642843D02*
X1644434Y1201931D01*
X1646479Y1208494D02*
Y1201931D01*
Y1208494D02*
X1649434D01*
X1646479Y1205369D02*
X1648297D01*
X1646479Y1201931D02*
X1649434D01*
X1654661Y1207556D02*
X1654207Y1208181D01*
X1653525Y1208494*
X1652616*
X1651934Y1208181*
X1651479Y1207556*
Y1206931*
X1651707Y1206306*
X1651934Y1205994*
X1652388Y1205681*
X1653752Y1205056*
X1654207Y1204744*
X1654434Y1204431*
X1654661Y1203806*
Y1202869*
X1654207Y1202244*
X1653525Y1201931*
X1652616*
X1651934Y1202244*
X1651479Y1202869*
X1661934Y1205681D02*
X1666025D01*
X1661934Y1203806D02*
X1666025D01*
X1676479Y1207556D02*
X1676025Y1208181D01*
X1675343Y1208494*
X1674434*
X1673752Y1208181*
X1673297Y1207556*
Y1206931*
X1673525Y1206306*
X1673752Y1205994*
X1674207Y1205681*
X1675570Y1205056*
X1676025Y1204744*
X1676252Y1204431*
X1676479Y1203806*
Y1202869*
X1676025Y1202244*
X1675343Y1201931*
X1674434*
X1673752Y1202244*
X1673297Y1202869*
X1678525Y1208494D02*
Y1201931D01*
Y1208494D02*
X1681479D01*
X1678525Y1205369D02*
X1680343D01*
X1678525Y1201931D02*
X1681479D01*
X1683525Y1208494D02*
Y1201931D01*
Y1208494D02*
X1686479D01*
X1683525Y1205369D02*
X1685343D01*
X1683525Y1201931D02*
X1686479D01*
X1696934Y1207556D02*
X1696479Y1208181D01*
X1695797Y1208494*
X1694888*
X1694207Y1208181*
X1693752Y1207556*
Y1206931*
X1693979Y1206306*
X1694207Y1205994*
X1694661Y1205681*
X1696025Y1205056*
X1696479Y1204744*
X1696707Y1204431*
X1696934Y1203806*
Y1202869*
X1696479Y1202244*
X1695797Y1201931*
X1694888*
X1694207Y1202244*
X1693752Y1202869*
X1700570Y1208494D02*
Y1201931D01*
X1698979Y1208494D02*
X1702161D01*
X1706025D02*
X1704207Y1201931D01*
X1706025Y1208494D02*
X1707843Y1201931D01*
X1704888Y1204119D02*
X1707161D01*
X1713297Y1206931D02*
X1713070Y1207556D01*
X1712616Y1208181*
X1712161Y1208494*
X1711252*
X1710797Y1208181*
X1710343Y1207556*
X1710116Y1206931*
X1709888Y1205994*
Y1204431*
X1710116Y1203494*
X1710343Y1202869*
X1710797Y1202244*
X1711252Y1201931*
X1712161*
X1712616Y1202244*
X1713070Y1202869*
X1713297Y1203494*
X1715343Y1208494D02*
Y1201931D01*
X1718525Y1208494D02*
X1715343Y1204119D01*
X1716479Y1205681D02*
X1718525Y1201931D01*
X1720570Y1208494D02*
Y1203806D01*
X1720797Y1202869*
X1721252Y1202244*
X1721934Y1201931*
X1722388*
X1723070Y1202244*
X1723525Y1202869*
X1723752Y1203806*
Y1208494*
X1725797D02*
Y1201931D01*
Y1208494D02*
X1727843D01*
X1728525Y1208181*
X1728752Y1207869*
X1728979Y1207244*
Y1206306*
X1728752Y1205681*
X1728525Y1205369*
X1727843Y1205056*
X1725797*
X1736252Y1208494D02*
Y1201931D01*
Y1208494D02*
X1737843D01*
X1738525Y1208181*
X1738979Y1207556*
X1739207Y1206931*
X1739434Y1205994*
Y1204431*
X1739207Y1203494*
X1738979Y1202869*
X1738525Y1202244*
X1737843Y1201931*
X1736252*
X1741479Y1208494D02*
Y1201931D01*
Y1208494D02*
X1744434D01*
X1741479Y1205369D02*
X1743297D01*
X1741479Y1201931D02*
X1744434D01*
X1748070Y1208494D02*
Y1201931D01*
X1746479Y1208494D02*
X1749661D01*
X1753525D02*
X1751707Y1201931D01*
X1753525Y1208494D02*
X1755343Y1201931D01*
X1752388Y1204119D02*
X1754661D01*
X1757388Y1208494D02*
Y1201931D01*
X1759434Y1208494D02*
Y1201931D01*
X1762161*
X1498752Y1228494D02*
Y1221931D01*
Y1228494D02*
X1500797D01*
X1501479Y1228181*
X1501707Y1227869*
X1501934Y1227244*
Y1226619*
X1501707Y1225994*
X1501479Y1225681*
X1500797Y1225369*
X1498752D02*
X1500797D01*
X1501479Y1225056*
X1501707Y1224744*
X1501934Y1224119*
Y1223181*
X1501707Y1222556*
X1501479Y1222244*
X1500797Y1221931*
X1498752*
X1505343Y1228494D02*
X1504888Y1228181D01*
X1504434Y1227556*
X1504207Y1226931*
X1503979Y1225994*
Y1224431*
X1504207Y1223494*
X1504434Y1222869*
X1504888Y1222244*
X1505343Y1221931*
X1506252*
X1506707Y1222244*
X1507161Y1222869*
X1507388Y1223494*
X1507616Y1224431*
Y1225994*
X1507388Y1226931*
X1507161Y1227556*
X1506707Y1228181*
X1506252Y1228494*
X1505343*
X1511479D02*
X1509661Y1221931D01*
X1511479Y1228494D02*
X1513297Y1221931D01*
X1510343Y1224119D02*
X1512616D01*
X1515343Y1228494D02*
Y1221931D01*
Y1228494D02*
X1517388D01*
X1518070Y1228181*
X1518297Y1227869*
X1518525Y1227244*
Y1226619*
X1518297Y1225994*
X1518070Y1225681*
X1517388Y1225369*
X1515343*
X1516934D02*
X1518525Y1221931D01*
X1520570Y1228494D02*
Y1221931D01*
Y1228494D02*
X1522161D01*
X1522843Y1228181*
X1523297Y1227556*
X1523525Y1226931*
X1523752Y1225994*
Y1224431*
X1523525Y1223494*
X1523297Y1222869*
X1522843Y1222244*
X1522161Y1221931*
X1520570*
X1532616Y1228494D02*
Y1221931D01*
X1531025Y1228494D02*
X1534207D01*
X1536252D02*
Y1221931D01*
X1539434Y1228494D02*
Y1221931D01*
X1536252Y1225369D02*
X1539434D01*
X1541479Y1228494D02*
Y1221931D01*
X1546934Y1226931D02*
X1546707Y1227556D01*
X1546252Y1228181*
X1545797Y1228494*
X1544888*
X1544434Y1228181*
X1543979Y1227556*
X1543752Y1226931*
X1543525Y1225994*
Y1224431*
X1543752Y1223494*
X1543979Y1222869*
X1544434Y1222244*
X1544888Y1221931*
X1545797*
X1546252Y1222244*
X1546707Y1222869*
X1546934Y1223494*
X1548979Y1228494D02*
Y1221931D01*
X1552161Y1228494D02*
X1548979Y1224119D01*
X1550116Y1225681D02*
X1552161Y1221931D01*
X1554207Y1228494D02*
Y1221931D01*
Y1228494D02*
X1557388Y1221931D01*
Y1228494D02*
Y1221931D01*
X1559434Y1228494D02*
Y1221931D01*
Y1228494D02*
X1562388D01*
X1559434Y1225369D02*
X1561252D01*
X1559434Y1221931D02*
X1562388D01*
X1567616Y1227556D02*
X1567161Y1228181D01*
X1566479Y1228494*
X1565570*
X1564888Y1228181*
X1564434Y1227556*
Y1226931*
X1564661Y1226306*
X1564888Y1225994*
X1565343Y1225681*
X1566707Y1225056*
X1567161Y1224744*
X1567388Y1224431*
X1567616Y1223806*
Y1222869*
X1567161Y1222244*
X1566479Y1221931*
X1565570*
X1564888Y1222244*
X1564434Y1222869*
X1572843Y1227556D02*
X1572388Y1228181D01*
X1571707Y1228494*
X1570797*
X1570116Y1228181*
X1569661Y1227556*
Y1226931*
X1569888Y1226306*
X1570116Y1225994*
X1570570Y1225681*
X1571934Y1225056*
X1572388Y1224744*
X1572616Y1224431*
X1572843Y1223806*
Y1222869*
X1572388Y1222244*
X1571707Y1221931*
X1570797*
X1570116Y1222244*
X1569661Y1222869*
X1580343Y1222556D02*
X1580116Y1222244D01*
X1580343Y1221931*
X1580570Y1222244*
X1580343Y1222556*
X1583979Y1228494D02*
X1583297Y1228181D01*
X1582843Y1227244*
X1582616Y1225681*
Y1224744*
X1582843Y1223181*
X1583297Y1222244*
X1583979Y1221931*
X1584434*
X1585116Y1222244*
X1585570Y1223181*
X1585797Y1224744*
Y1225681*
X1585570Y1227244*
X1585116Y1228181*
X1584434Y1228494*
X1583979*
X1590570Y1227556D02*
X1590343Y1228181D01*
X1589661Y1228494*
X1589207*
X1588525Y1228181*
X1588070Y1227244*
X1587843Y1225681*
Y1224119*
X1588070Y1222869*
X1588525Y1222244*
X1589207Y1221931*
X1589434*
X1590116Y1222244*
X1590570Y1222869*
X1590797Y1223806*
Y1224119*
X1590570Y1225056*
X1590116Y1225681*
X1589434Y1225994*
X1589207*
X1588525Y1225681*
X1588070Y1225056*
X1587843Y1224119*
X1593070Y1226931D02*
Y1227244D01*
X1593297Y1227869*
X1593525Y1228181*
X1593979Y1228494*
X1594888*
X1595343Y1228181*
X1595570Y1227869*
X1595797Y1227244*
Y1226619*
X1595570Y1225994*
X1595116Y1225056*
X1592843Y1221931*
X1596025*
X1598070Y1228494D02*
Y1226306D01*
X1599888Y1228494D02*
Y1226306D01*
X1609207Y1227556D02*
Y1221931D01*
X1607161Y1224744D02*
X1611252D01*
X1617388Y1229744D02*
X1613297Y1219744D01*
X1619434Y1224744D02*
X1623525D01*
X1625797Y1222556D02*
X1625570Y1222244D01*
X1625797Y1221931*
X1626025Y1222244*
X1625797Y1222556*
X1629434Y1228494D02*
X1628752Y1228181D01*
X1628297Y1227244*
X1628070Y1225681*
Y1224744*
X1628297Y1223181*
X1628752Y1222244*
X1629434Y1221931*
X1629888*
X1630570Y1222244*
X1631025Y1223181*
X1631252Y1224744*
Y1225681*
X1631025Y1227244*
X1630570Y1228181*
X1629888Y1228494*
X1629434*
X1634661D02*
X1633979Y1228181D01*
X1633525Y1227244*
X1633297Y1225681*
Y1224744*
X1633525Y1223181*
X1633979Y1222244*
X1634661Y1221931*
X1635116*
X1635797Y1222244*
X1636252Y1223181*
X1636479Y1224744*
Y1225681*
X1636252Y1227244*
X1635797Y1228181*
X1635116Y1228494*
X1634661*
X1641707D02*
X1639434Y1221931D01*
X1638525Y1228494D02*
X1641707D01*
X1643752D02*
Y1226306D01*
X1645570Y1228494D02*
Y1226306D01*
X1648070Y1222244D02*
X1647843Y1221931D01*
X1647616Y1222244*
X1647843Y1222556*
X1648070Y1222244*
Y1221619*
X1647843Y1220994*
X1647616Y1220681*
X1655343Y1227244D02*
X1655797Y1227556D01*
X1656479Y1228494*
Y1221931*
X1658752Y1222556D02*
X1658525Y1222244D01*
X1658752Y1221931*
X1658979Y1222244*
X1658752Y1222556*
X1663979Y1228494D02*
X1661707D01*
X1661479Y1225681*
X1661707Y1225994*
X1662388Y1226306*
X1663070*
X1663752Y1225994*
X1664207Y1225369*
X1664434Y1224431*
X1664207Y1223806*
X1663979Y1222869*
X1663525Y1222244*
X1662843Y1221931*
X1662161*
X1661479Y1222244*
X1661252Y1222556*
X1661025Y1223181*
X1672843Y1226306D02*
X1672388Y1225994D01*
X1671934Y1225369*
X1671707Y1224431*
Y1223806*
X1671934Y1222869*
X1672388Y1222244*
X1672843Y1221931*
X1673525*
X1673979Y1222244*
X1674434Y1222869*
X1674661Y1223806*
Y1224431*
X1674434Y1225369*
X1673979Y1225994*
X1673525Y1226306*
X1672843*
X1679207D02*
X1676707Y1221931D01*
Y1226306D02*
X1679207D01*
X1676707Y1221931D02*
X1679207D01*
X1681479Y1222556D02*
X1681252Y1222244D01*
X1681479Y1221931*
X1681707Y1222244*
X1681479Y1222556*
X1692388Y1226931D02*
X1692161Y1227556D01*
X1691707Y1228181*
X1691252Y1228494*
X1690343*
X1689888Y1228181*
X1689434Y1227556*
X1689207Y1226931*
X1688979Y1225994*
Y1224431*
X1689207Y1223494*
X1689434Y1222869*
X1689888Y1222244*
X1690343Y1221931*
X1691252*
X1691707Y1222244*
X1692161Y1222869*
X1692388Y1223494*
X1694434Y1226306D02*
Y1223181D01*
X1694661Y1222244*
X1695116Y1221931*
X1695797*
X1696252Y1222244*
X1696934Y1223181*
Y1226306D02*
Y1221931D01*
X1705570Y1228494D02*
X1705116Y1228181D01*
X1704661Y1227556*
X1704434Y1226931*
X1704207Y1225994*
Y1224431*
X1704434Y1223494*
X1704661Y1222869*
X1705116Y1222244*
X1705570Y1221931*
X1706479*
X1706934Y1222244*
X1707388Y1222869*
X1707616Y1223494*
X1707843Y1224431*
Y1225994*
X1707616Y1226931*
X1707388Y1227556*
X1706934Y1228181*
X1706479Y1228494*
X1705570*
X1709888D02*
Y1223806D01*
X1710116Y1222869*
X1710570Y1222244*
X1711252Y1221931*
X1711707*
X1712388Y1222244*
X1712843Y1222869*
X1713070Y1223806*
Y1228494*
X1716707D02*
Y1221931D01*
X1715116Y1228494D02*
X1718297D01*
X1720343D02*
Y1221931D01*
Y1228494D02*
X1723297D01*
X1720343Y1225369D02*
X1722161D01*
X1720343Y1221931D02*
X1723297D01*
X1725343Y1228494D02*
Y1221931D01*
Y1228494D02*
X1727388D01*
X1728070Y1228181*
X1728297Y1227869*
X1728525Y1227244*
Y1226619*
X1728297Y1225994*
X1728070Y1225681*
X1727388Y1225369*
X1725343*
X1726934D02*
X1728525Y1221931D01*
X1735797Y1228494D02*
Y1221931D01*
X1738525*
X1742388Y1228494D02*
X1740570Y1221931D01*
X1742388Y1228494D02*
X1744207Y1221931D01*
X1741252Y1224119D02*
X1743525D01*
X1746252Y1228494D02*
X1748070Y1225369D01*
Y1221931*
X1749888Y1228494D02*
X1748070Y1225369D01*
X1751934Y1228494D02*
Y1221931D01*
Y1228494D02*
X1754888D01*
X1751934Y1225369D02*
X1753752D01*
X1751934Y1221931D02*
X1754888D01*
X1756934Y1228494D02*
Y1221931D01*
Y1228494D02*
X1758979D01*
X1759661Y1228181*
X1759888Y1227869*
X1760116Y1227244*
Y1226619*
X1759888Y1225994*
X1759661Y1225681*
X1758979Y1225369*
X1756934*
X1758525D02*
X1760116Y1221931D01*
X1765343Y1227556D02*
X1764888Y1228181D01*
X1764207Y1228494*
X1763297*
X1762616Y1228181*
X1762161Y1227556*
Y1226931*
X1762388Y1226306*
X1762616Y1225994*
X1763070Y1225681*
X1764434Y1225056*
X1764888Y1224744*
X1765116Y1224431*
X1765343Y1223806*
Y1222869*
X1764888Y1222244*
X1764207Y1221931*
X1763297*
X1762616Y1222244*
X1762161Y1222869*
X1767843Y1222244D02*
X1767616Y1221931D01*
X1767388Y1222244*
X1767616Y1222556*
X1767843Y1222244*
Y1221619*
X1767616Y1220994*
X1767388Y1220681*
X1498752Y1198494D02*
Y1191931D01*
Y1198494D02*
X1500343D01*
X1501025Y1198181*
X1501479Y1197556*
X1501707Y1196931*
X1501934Y1195994*
Y1194431*
X1501707Y1193494*
X1501479Y1192869*
X1501025Y1192244*
X1500343Y1191931*
X1498752*
X1503979Y1198494D02*
Y1191931D01*
X1506025Y1198494D02*
Y1191931D01*
Y1198494D02*
X1508979D01*
X1506025Y1195369D02*
X1507843D01*
X1506025Y1191931D02*
X1508979D01*
X1511025Y1198494D02*
Y1191931D01*
X1513752*
X1515797Y1198494D02*
Y1191931D01*
Y1198494D02*
X1518752D01*
X1515797Y1195369D02*
X1517616D01*
X1515797Y1191931D02*
X1518752D01*
X1524207Y1196931D02*
X1523979Y1197556D01*
X1523525Y1198181*
X1523070Y1198494*
X1522161*
X1521707Y1198181*
X1521252Y1197556*
X1521025Y1196931*
X1520797Y1195994*
Y1194431*
X1521025Y1193494*
X1521252Y1192869*
X1521707Y1192244*
X1522161Y1191931*
X1523070*
X1523525Y1192244*
X1523979Y1192869*
X1524207Y1193494*
X1527843Y1198494D02*
Y1191931D01*
X1526252Y1198494D02*
X1529434D01*
X1531479D02*
Y1191931D01*
Y1198494D02*
X1533525D01*
X1534207Y1198181*
X1534434Y1197869*
X1534661Y1197244*
Y1196619*
X1534434Y1195994*
X1534207Y1195681*
X1533525Y1195369*
X1531479*
X1533070D02*
X1534661Y1191931D01*
X1536707Y1198494D02*
Y1191931D01*
X1542161Y1196931D02*
X1541934Y1197556D01*
X1541479Y1198181*
X1541025Y1198494*
X1540116*
X1539661Y1198181*
X1539207Y1197556*
X1538979Y1196931*
X1538752Y1195994*
Y1194431*
X1538979Y1193494*
X1539207Y1192869*
X1539661Y1192244*
X1540116Y1191931*
X1541025*
X1541479Y1192244*
X1541934Y1192869*
X1542161Y1193494*
X1551025Y1198494D02*
Y1191931D01*
X1549434Y1198494D02*
X1552616D01*
X1554661D02*
Y1191931D01*
X1557843Y1198494D02*
Y1191931D01*
X1554661Y1195369D02*
X1557843D01*
X1559888Y1198494D02*
Y1191931D01*
X1565343Y1196931D02*
X1565116Y1197556D01*
X1564661Y1198181*
X1564207Y1198494*
X1563297*
X1562843Y1198181*
X1562388Y1197556*
X1562161Y1196931*
X1561934Y1195994*
Y1194431*
X1562161Y1193494*
X1562388Y1192869*
X1562843Y1192244*
X1563297Y1191931*
X1564207*
X1564661Y1192244*
X1565116Y1192869*
X1565343Y1193494*
X1567388Y1198494D02*
Y1191931D01*
X1570570Y1198494D02*
X1567388Y1194119D01*
X1568525Y1195681D02*
X1570570Y1191931D01*
X1572616Y1198494D02*
Y1191931D01*
Y1198494D02*
X1575797Y1191931D01*
Y1198494D02*
Y1191931D01*
X1577843Y1198494D02*
Y1191931D01*
Y1198494D02*
X1580797D01*
X1577843Y1195369D02*
X1579661D01*
X1577843Y1191931D02*
X1580797D01*
X1586025Y1197556D02*
X1585570Y1198181D01*
X1584888Y1198494*
X1583979*
X1583297Y1198181*
X1582843Y1197556*
Y1196931*
X1583070Y1196306*
X1583297Y1195994*
X1583752Y1195681*
X1585116Y1195056*
X1585570Y1194744*
X1585797Y1194431*
X1586025Y1193806*
Y1192869*
X1585570Y1192244*
X1584888Y1191931*
X1583979*
X1583297Y1192244*
X1582843Y1192869*
X1591252Y1197556D02*
X1590797Y1198181D01*
X1590116Y1198494*
X1589207*
X1588525Y1198181*
X1588070Y1197556*
Y1196931*
X1588297Y1196306*
X1588525Y1195994*
X1588979Y1195681*
X1590343Y1195056*
X1590797Y1194744*
X1591025Y1194431*
X1591252Y1193806*
Y1192869*
X1590797Y1192244*
X1590116Y1191931*
X1589207*
X1588525Y1192244*
X1588070Y1192869*
X1601934Y1196931D02*
X1601707Y1197556D01*
X1601252Y1198181*
X1600797Y1198494*
X1599888*
X1599434Y1198181*
X1598979Y1197556*
X1598752Y1196931*
X1598525Y1195994*
Y1194431*
X1598752Y1193494*
X1598979Y1192869*
X1599434Y1192244*
X1599888Y1191931*
X1600797*
X1601252Y1192244*
X1601707Y1192869*
X1601934Y1193494*
X1603979Y1198494D02*
Y1191931D01*
Y1198494D02*
X1606934D01*
X1603979Y1195369D02*
X1605797D01*
X1603979Y1191931D02*
X1606934D01*
X1608979Y1198494D02*
Y1191931D01*
Y1198494D02*
X1612161Y1191931D01*
Y1198494D02*
Y1191931D01*
X1615797Y1198494D02*
Y1191931D01*
X1614207Y1198494D02*
X1617388D01*
X1619434D02*
Y1191931D01*
Y1198494D02*
X1622388D01*
X1619434Y1195369D02*
X1621252D01*
X1619434Y1191931D02*
X1622388D01*
X1624434Y1198494D02*
Y1191931D01*
Y1198494D02*
X1626479D01*
X1627161Y1198181*
X1627388Y1197869*
X1627616Y1197244*
Y1196619*
X1627388Y1195994*
X1627161Y1195681*
X1626479Y1195369*
X1624434*
X1626025D02*
X1627616Y1191931D01*
X1638297Y1196931D02*
X1638070Y1197556D01*
X1637616Y1198181*
X1637161Y1198494*
X1636252*
X1635797Y1198181*
X1635343Y1197556*
X1635116Y1196931*
X1634888Y1195994*
Y1194431*
X1635116Y1193494*
X1635343Y1192869*
X1635797Y1192244*
X1636252Y1191931*
X1637161*
X1637616Y1192244*
X1638070Y1192869*
X1638297Y1193494*
X1641707Y1198494D02*
X1641252Y1198181D01*
X1640797Y1197556*
X1640570Y1196931*
X1640343Y1195994*
Y1194431*
X1640570Y1193494*
X1640797Y1192869*
X1641252Y1192244*
X1641707Y1191931*
X1642616*
X1643070Y1192244*
X1643525Y1192869*
X1643752Y1193494*
X1643979Y1194431*
Y1195994*
X1643752Y1196931*
X1643525Y1197556*
X1643070Y1198181*
X1642616Y1198494*
X1641707*
X1646025D02*
Y1191931D01*
Y1198494D02*
X1648070D01*
X1648752Y1198181*
X1648979Y1197869*
X1649207Y1197244*
Y1196619*
X1648979Y1195994*
X1648752Y1195681*
X1648070Y1195369*
X1646025*
X1647616D02*
X1649207Y1191931D01*
X1651252Y1198494D02*
Y1191931D01*
Y1198494D02*
X1654207D01*
X1651252Y1195369D02*
X1653070D01*
X1651252Y1191931D02*
X1654207D01*
X1656707Y1192244D02*
X1656479Y1191931D01*
X1656252Y1192244*
X1656479Y1192556*
X1656707Y1192244*
Y1191619*
X1656479Y1190994*
X1656252Y1190681*
X1665797Y1198494D02*
X1663979Y1191931D01*
X1665797Y1198494D02*
X1667616Y1191931D01*
X1664661Y1194119D02*
X1666934D01*
X1669661Y1198494D02*
Y1191931D01*
Y1198494D02*
X1671252D01*
X1671934Y1198181*
X1672388Y1197556*
X1672616Y1196931*
X1672843Y1195994*
Y1194431*
X1672616Y1193494*
X1672388Y1192869*
X1671934Y1192244*
X1671252Y1191931*
X1669661*
X1677161Y1198494D02*
Y1193494D01*
X1676934Y1192556*
X1676707Y1192244*
X1676252Y1191931*
X1675797*
X1675343Y1192244*
X1675116Y1192556*
X1674888Y1193494*
Y1194119*
X1679207Y1198494D02*
Y1193806D01*
X1679434Y1192869*
X1679888Y1192244*
X1680570Y1191931*
X1681025*
X1681707Y1192244*
X1682161Y1192869*
X1682388Y1193806*
Y1198494*
X1687616Y1197556D02*
X1687161Y1198181D01*
X1686479Y1198494*
X1685570*
X1684888Y1198181*
X1684434Y1197556*
Y1196931*
X1684661Y1196306*
X1684888Y1195994*
X1685343Y1195681*
X1686707Y1195056*
X1687161Y1194744*
X1687388Y1194431*
X1687616Y1193806*
Y1192869*
X1687161Y1192244*
X1686479Y1191931*
X1685570*
X1684888Y1192244*
X1684434Y1192869*
X1691252Y1198494D02*
Y1191931D01*
X1689661Y1198494D02*
X1692843D01*
X1700116D02*
Y1191931D01*
Y1198494D02*
X1703070D01*
X1700116Y1195369D02*
X1701934D01*
X1706479Y1198494D02*
X1706025Y1198181D01*
X1705570Y1197556*
X1705343Y1196931*
X1705116Y1195994*
Y1194431*
X1705343Y1193494*
X1705570Y1192869*
X1706025Y1192244*
X1706479Y1191931*
X1707388*
X1707843Y1192244*
X1708297Y1192869*
X1708525Y1193494*
X1708752Y1194431*
Y1195994*
X1708525Y1196931*
X1708297Y1197556*
X1707843Y1198181*
X1707388Y1198494*
X1706479*
X1710797D02*
Y1191931D01*
Y1198494D02*
X1712843D01*
X1713525Y1198181*
X1713752Y1197869*
X1713979Y1197244*
Y1196619*
X1713752Y1195994*
X1713525Y1195681*
X1712843Y1195369*
X1710797*
X1712388D02*
X1713979Y1191931D01*
X1721252Y1198494D02*
Y1191931D01*
Y1198494D02*
X1724207D01*
X1721252Y1195369D02*
X1723070D01*
X1728070Y1198494D02*
X1726252Y1191931D01*
X1728070Y1198494D02*
X1729888Y1191931D01*
X1726934Y1194119D02*
X1729207D01*
X1731934Y1198494D02*
Y1191931D01*
Y1198494D02*
X1733979D01*
X1734661Y1198181*
X1734888Y1197869*
X1735116Y1197244*
Y1196619*
X1734888Y1195994*
X1734661Y1195681*
X1733979Y1195369*
X1731934D02*
X1733979D01*
X1734661Y1195056*
X1734888Y1194744*
X1735116Y1194119*
Y1193181*
X1734888Y1192556*
X1734661Y1192244*
X1733979Y1191931*
X1731934*
X1737161Y1198494D02*
Y1191931D01*
Y1198494D02*
X1739207D01*
X1739888Y1198181*
X1740116Y1197869*
X1740343Y1197244*
Y1196619*
X1740116Y1195994*
X1739888Y1195681*
X1739207Y1195369*
X1737161*
X1738752D02*
X1740343Y1191931D01*
X1742388Y1198494D02*
Y1191931D01*
X1747843Y1196931D02*
X1747616Y1197556D01*
X1747161Y1198181*
X1746707Y1198494*
X1745797*
X1745343Y1198181*
X1744888Y1197556*
X1744661Y1196931*
X1744434Y1195994*
Y1194431*
X1744661Y1193494*
X1744888Y1192869*
X1745343Y1192244*
X1745797Y1191931*
X1746707*
X1747161Y1192244*
X1747616Y1192869*
X1747843Y1193494*
X1751707Y1198494D02*
X1749888Y1191931D01*
X1751707Y1198494D02*
X1753525Y1191931D01*
X1750570Y1194119D02*
X1752843D01*
X1757161Y1198494D02*
Y1191931D01*
X1755570Y1198494D02*
X1758752D01*
X1760797D02*
Y1191931D01*
X1764207Y1198494D02*
X1763752Y1198181D01*
X1763297Y1197556*
X1763070Y1196931*
X1762843Y1195994*
Y1194431*
X1763070Y1193494*
X1763297Y1192869*
X1763752Y1192244*
X1764207Y1191931*
X1765116*
X1765570Y1192244*
X1766025Y1192869*
X1766252Y1193494*
X1766479Y1194431*
Y1195994*
X1766252Y1196931*
X1766025Y1197556*
X1765570Y1198181*
X1765116Y1198494*
X1764207*
X1768525D02*
Y1191931D01*
Y1198494D02*
X1771707Y1191931D01*
Y1198494D02*
Y1191931D01*
X1498752Y1178494D02*
Y1171931D01*
Y1178494D02*
X1501707D01*
X1498752Y1175369D02*
X1500570D01*
X1503752Y1178494D02*
Y1171931D01*
X1505797Y1178494D02*
Y1171931D01*
Y1178494D02*
X1508979Y1171931D01*
Y1178494D02*
Y1171931D01*
X1511025Y1178494D02*
Y1171931D01*
X1516252Y1177556D02*
X1515797Y1178181D01*
X1515116Y1178494*
X1514207*
X1513525Y1178181*
X1513070Y1177556*
Y1176931*
X1513297Y1176306*
X1513525Y1175994*
X1513979Y1175681*
X1515343Y1175056*
X1515797Y1174744*
X1516025Y1174431*
X1516252Y1173806*
Y1172869*
X1515797Y1172244*
X1515116Y1171931*
X1514207*
X1513525Y1172244*
X1513070Y1172869*
X1518297Y1178494D02*
Y1171931D01*
X1521479Y1178494D02*
Y1171931D01*
X1518297Y1175369D02*
X1521479D01*
X1523525Y1174744D02*
X1527616D01*
X1534888Y1178494D02*
Y1171931D01*
X1536934Y1178494D02*
Y1171931D01*
Y1178494D02*
X1538752Y1171931D01*
X1540570Y1178494D02*
X1538752Y1171931D01*
X1540570Y1178494D02*
Y1171931D01*
X1542616Y1178494D02*
Y1171931D01*
Y1178494D02*
X1544434Y1171931D01*
X1546252Y1178494D02*
X1544434Y1171931D01*
X1546252Y1178494D02*
Y1171931D01*
X1548297Y1178494D02*
Y1171931D01*
Y1178494D02*
X1551252D01*
X1548297Y1175369D02*
X1550116D01*
X1548297Y1171931D02*
X1551252D01*
X1553297Y1178494D02*
Y1171931D01*
Y1178494D02*
X1555343D01*
X1556025Y1178181*
X1556252Y1177869*
X1556479Y1177244*
Y1176619*
X1556252Y1175994*
X1556025Y1175681*
X1555343Y1175369*
X1553297*
X1554888D02*
X1556479Y1171931D01*
X1561707Y1177556D02*
X1561252Y1178181D01*
X1560570Y1178494*
X1559661*
X1558979Y1178181*
X1558525Y1177556*
Y1176931*
X1558752Y1176306*
X1558979Y1175994*
X1559434Y1175681*
X1560797Y1175056*
X1561252Y1174744*
X1561479Y1174431*
X1561707Y1173806*
Y1172869*
X1561252Y1172244*
X1560570Y1171931*
X1559661*
X1558979Y1172244*
X1558525Y1172869*
X1563752Y1178494D02*
Y1171931D01*
X1567161Y1178494D02*
X1566707Y1178181D01*
X1566252Y1177556*
X1566025Y1176931*
X1565797Y1175994*
Y1174431*
X1566025Y1173494*
X1566252Y1172869*
X1566707Y1172244*
X1567161Y1171931*
X1568070*
X1568525Y1172244*
X1568979Y1172869*
X1569207Y1173494*
X1569434Y1174431*
Y1175994*
X1569207Y1176931*
X1568979Y1177556*
X1568525Y1178181*
X1568070Y1178494*
X1567161*
X1571479D02*
Y1171931D01*
Y1178494D02*
X1574661Y1171931D01*
Y1178494D02*
Y1171931D01*
X1585343Y1176931D02*
X1585116Y1177556D01*
X1584661Y1178181*
X1584207Y1178494*
X1583297*
X1582843Y1178181*
X1582388Y1177556*
X1582161Y1176931*
X1581934Y1175994*
Y1174431*
X1582161Y1173494*
X1582388Y1172869*
X1582843Y1172244*
X1583297Y1171931*
X1584207*
X1584661Y1172244*
X1585116Y1172869*
X1585343Y1173494*
Y1174431*
X1584207D02*
X1585343D01*
X1588752Y1178494D02*
X1588297Y1178181D01*
X1587843Y1177556*
X1587616Y1176931*
X1587388Y1175994*
Y1174431*
X1587616Y1173494*
X1587843Y1172869*
X1588297Y1172244*
X1588752Y1171931*
X1589661*
X1590116Y1172244*
X1590570Y1172869*
X1590797Y1173494*
X1591025Y1174431*
Y1175994*
X1590797Y1176931*
X1590570Y1177556*
X1590116Y1178181*
X1589661Y1178494*
X1588752*
X1593070D02*
Y1171931D01*
X1595797*
X1597843Y1178494D02*
Y1171931D01*
Y1178494D02*
X1599434D01*
X1600116Y1178181*
X1600570Y1177556*
X1600797Y1176931*
X1601025Y1175994*
Y1174431*
X1600797Y1173494*
X1600570Y1172869*
X1600116Y1172244*
X1599434Y1171931*
X1597843*
X1610116Y1178494D02*
X1608297Y1171931D01*
X1610116Y1178494D02*
X1611934Y1171931D01*
X1608979Y1174119D02*
X1611252D01*
X1613979Y1178494D02*
Y1171931D01*
Y1178494D02*
X1616934D01*
X1613979Y1175369D02*
X1615797D01*
X1620570Y1178494D02*
Y1171931D01*
X1618979Y1178494D02*
X1622161D01*
X1624207D02*
Y1171931D01*
Y1178494D02*
X1627161D01*
X1624207Y1175369D02*
X1626025D01*
X1624207Y1171931D02*
X1627161D01*
X1629207Y1178494D02*
Y1171931D01*
Y1178494D02*
X1631252D01*
X1631934Y1178181*
X1632161Y1177869*
X1632388Y1177244*
Y1176619*
X1632161Y1175994*
X1631934Y1175681*
X1631252Y1175369*
X1629207*
X1630797D02*
X1632388Y1171931D01*
X1642843Y1177556D02*
X1642388Y1178181D01*
X1641707Y1178494*
X1640797*
X1640116Y1178181*
X1639661Y1177556*
Y1176931*
X1639888Y1176306*
X1640116Y1175994*
X1640570Y1175681*
X1641934Y1175056*
X1642388Y1174744*
X1642616Y1174431*
X1642843Y1173806*
Y1172869*
X1642388Y1172244*
X1641707Y1171931*
X1640797*
X1640116Y1172244*
X1639661Y1172869*
X1646252Y1178494D02*
X1645797Y1178181D01*
X1645343Y1177556*
X1645116Y1176931*
X1644888Y1175994*
Y1174431*
X1645116Y1173494*
X1645343Y1172869*
X1645797Y1172244*
X1646252Y1171931*
X1647161*
X1647616Y1172244*
X1648070Y1172869*
X1648297Y1173494*
X1648525Y1174431*
Y1175994*
X1648297Y1176931*
X1648070Y1177556*
X1647616Y1178181*
X1647161Y1178494*
X1646252*
X1650570D02*
Y1171931D01*
X1653297*
X1655343Y1178494D02*
Y1171931D01*
Y1178494D02*
X1656934D01*
X1657616Y1178181*
X1658070Y1177556*
X1658297Y1176931*
X1658525Y1175994*
Y1174431*
X1658297Y1173494*
X1658070Y1172869*
X1657616Y1172244*
X1656934Y1171931*
X1655343*
X1660570Y1178494D02*
Y1171931D01*
Y1178494D02*
X1663525D01*
X1660570Y1175369D02*
X1662388D01*
X1660570Y1171931D02*
X1663525D01*
X1665570Y1178494D02*
Y1171931D01*
Y1178494D02*
X1667616D01*
X1668297Y1178181*
X1668525Y1177869*
X1668752Y1177244*
Y1176619*
X1668525Y1175994*
X1668297Y1175681*
X1667616Y1175369*
X1665570*
X1667161D02*
X1668752Y1171931D01*
X1670797Y1178494D02*
Y1171931D01*
Y1178494D02*
X1672616Y1171931D01*
X1674434Y1178494D02*
X1672616Y1171931D01*
X1674434Y1178494D02*
Y1171931D01*
X1678297Y1178494D02*
X1676479Y1171931D01*
X1678297Y1178494D02*
X1680116Y1171931D01*
X1677161Y1174119D02*
X1679434D01*
X1685343Y1177556D02*
X1684888Y1178181D01*
X1684207Y1178494*
X1683297*
X1682616Y1178181*
X1682161Y1177556*
Y1176931*
X1682388Y1176306*
X1682616Y1175994*
X1683070Y1175681*
X1684434Y1175056*
X1684888Y1174744*
X1685116Y1174431*
X1685343Y1173806*
Y1172869*
X1684888Y1172244*
X1684207Y1171931*
X1683297*
X1682616Y1172244*
X1682161Y1172869*
X1687388Y1178494D02*
Y1171931D01*
X1690570Y1178494D02*
X1687388Y1174119D01*
X1688525Y1175681D02*
X1690570Y1171931D01*
X1693070Y1172244D02*
X1692843Y1171931D01*
X1692616Y1172244*
X1692843Y1172556*
X1693070Y1172244*
Y1171619*
X1692843Y1170994*
X1692616Y1170681*
X1703525Y1177556D02*
X1703070Y1178181D01*
X1702388Y1178494*
X1701479*
X1700797Y1178181*
X1700343Y1177556*
Y1176931*
X1700570Y1176306*
X1700797Y1175994*
X1701252Y1175681*
X1702616Y1175056*
X1703070Y1174744*
X1703297Y1174431*
X1703525Y1173806*
Y1172869*
X1703070Y1172244*
X1702388Y1171931*
X1701479*
X1700797Y1172244*
X1700343Y1172869*
X1705570Y1178494D02*
Y1171931D01*
X1707616Y1178494D02*
Y1171931D01*
X1710343*
X1712388Y1178494D02*
Y1171931D01*
X1715570Y1178494D02*
X1712388Y1174119D01*
X1713525Y1175681D02*
X1715570Y1171931D01*
X1720797Y1177556D02*
X1720343Y1178181D01*
X1719661Y1178494*
X1718752*
X1718070Y1178181*
X1717616Y1177556*
Y1176931*
X1717843Y1176306*
X1718070Y1175994*
X1718525Y1175681*
X1719888Y1175056*
X1720343Y1174744*
X1720570Y1174431*
X1720797Y1173806*
Y1172869*
X1720343Y1172244*
X1719661Y1171931*
X1718752*
X1718070Y1172244*
X1717616Y1172869*
X1726252Y1176931D02*
X1726025Y1177556D01*
X1725570Y1178181*
X1725116Y1178494*
X1724207*
X1723752Y1178181*
X1723297Y1177556*
X1723070Y1176931*
X1722843Y1175994*
Y1174431*
X1723070Y1173494*
X1723297Y1172869*
X1723752Y1172244*
X1724207Y1171931*
X1725116*
X1725570Y1172244*
X1726025Y1172869*
X1726252Y1173494*
X1728297Y1178494D02*
Y1171931D01*
Y1178494D02*
X1730343D01*
X1731025Y1178181*
X1731252Y1177869*
X1731479Y1177244*
Y1176619*
X1731252Y1175994*
X1731025Y1175681*
X1730343Y1175369*
X1728297*
X1729888D02*
X1731479Y1171931D01*
X1733525Y1178494D02*
Y1171931D01*
Y1178494D02*
X1736479D01*
X1733525Y1175369D02*
X1735343D01*
X1733525Y1171931D02*
X1736479D01*
X1738525Y1178494D02*
Y1171931D01*
Y1178494D02*
X1741479D01*
X1738525Y1175369D02*
X1740343D01*
X1738525Y1171931D02*
X1741479D01*
X1743525Y1178494D02*
Y1171931D01*
Y1178494D02*
X1746707Y1171931D01*
Y1178494D02*
Y1171931D01*
X1753979Y1178494D02*
X1755116Y1171931D01*
X1756252Y1178494D02*
X1755116Y1171931D01*
X1756252Y1178494D02*
X1757388Y1171931D01*
X1758525Y1178494D02*
X1757388Y1171931D01*
X1760570Y1178494D02*
Y1171931D01*
X1763752Y1178494D02*
Y1171931D01*
X1760570Y1175369D02*
X1763752D01*
X1765797Y1178494D02*
Y1171931D01*
X1769434Y1178494D02*
Y1171931D01*
X1767843Y1178494D02*
X1771025D01*
X1773070D02*
Y1171931D01*
Y1178494D02*
X1776025D01*
X1773070Y1175369D02*
X1774888D01*
X1773070Y1171931D02*
X1776025D01*
X1783297Y1178494D02*
Y1171931D01*
X1786025*
X1788070Y1178494D02*
Y1171931D01*
Y1178494D02*
X1790116D01*
X1790797Y1178181*
X1791025Y1177869*
X1791252Y1177244*
Y1176306*
X1791025Y1175681*
X1790797Y1175369*
X1790116Y1175056*
X1788070*
X1793297Y1178494D02*
Y1171931D01*
X1500343Y1188494D02*
Y1181931D01*
X1498752Y1188494D02*
X1501934D01*
X1503979D02*
Y1181931D01*
Y1188494D02*
X1506025D01*
X1506707Y1188181*
X1506934Y1187869*
X1507161Y1187244*
Y1186619*
X1506934Y1185994*
X1506707Y1185681*
X1506025Y1185369*
X1503979*
X1505570D02*
X1507161Y1181931D01*
X1511025Y1188494D02*
X1509207Y1181931D01*
X1511025Y1188494D02*
X1512843Y1181931D01*
X1509888Y1184119D02*
X1512161D01*
X1518297Y1186931D02*
X1518070Y1187556D01*
X1517616Y1188181*
X1517161Y1188494*
X1516252*
X1515797Y1188181*
X1515343Y1187556*
X1515116Y1186931*
X1514888Y1185994*
Y1184431*
X1515116Y1183494*
X1515343Y1182869*
X1515797Y1182244*
X1516252Y1181931*
X1517161*
X1517616Y1182244*
X1518070Y1182869*
X1518297Y1183494*
X1520343Y1188494D02*
Y1181931D01*
Y1188494D02*
X1523297D01*
X1520343Y1185369D02*
X1522161D01*
X1520343Y1181931D02*
X1523297D01*
X1530570Y1188494D02*
Y1181931D01*
X1532616Y1188494D02*
Y1181931D01*
Y1188494D02*
X1534434Y1181931D01*
X1536252Y1188494D02*
X1534434Y1181931D01*
X1536252Y1188494D02*
Y1181931D01*
X1538297Y1188494D02*
Y1181931D01*
Y1188494D02*
X1540343D01*
X1541025Y1188181*
X1541252Y1187869*
X1541479Y1187244*
Y1186306*
X1541252Y1185681*
X1541025Y1185369*
X1540343Y1185056*
X1538297*
X1543525Y1188494D02*
Y1181931D01*
Y1188494D02*
X1546479D01*
X1543525Y1185369D02*
X1545343D01*
X1543525Y1181931D02*
X1546479D01*
X1548525Y1188494D02*
Y1181931D01*
Y1188494D02*
X1550116D01*
X1550797Y1188181*
X1551252Y1187556*
X1551479Y1186931*
X1551707Y1185994*
Y1184431*
X1551479Y1183494*
X1551252Y1182869*
X1550797Y1182244*
X1550116Y1181931*
X1548525*
X1555570Y1188494D02*
X1553752Y1181931D01*
X1555570Y1188494D02*
X1557388Y1181931D01*
X1554434Y1184119D02*
X1556707D01*
X1559434Y1188494D02*
Y1181931D01*
Y1188494D02*
X1562616Y1181931D01*
Y1188494D02*
Y1181931D01*
X1568070Y1186931D02*
X1567843Y1187556D01*
X1567388Y1188181*
X1566934Y1188494*
X1566025*
X1565570Y1188181*
X1565116Y1187556*
X1564888Y1186931*
X1564661Y1185994*
Y1184431*
X1564888Y1183494*
X1565116Y1182869*
X1565570Y1182244*
X1566025Y1181931*
X1566934*
X1567388Y1182244*
X1567843Y1182869*
X1568070Y1183494*
X1570116Y1188494D02*
Y1181931D01*
Y1188494D02*
X1573070D01*
X1570116Y1185369D02*
X1571934D01*
X1570116Y1181931D02*
X1573070D01*
X1575116Y1184744D02*
X1579207D01*
X1586479Y1188494D02*
Y1181931D01*
Y1188494D02*
X1589661Y1181931D01*
Y1188494D02*
Y1181931D01*
X1593070Y1188494D02*
X1592616Y1188181D01*
X1592161Y1187556*
X1591934Y1186931*
X1591707Y1185994*
Y1184431*
X1591934Y1183494*
X1592161Y1182869*
X1592616Y1182244*
X1593070Y1181931*
X1593979*
X1594434Y1182244*
X1594888Y1182869*
X1595116Y1183494*
X1595343Y1184431*
Y1185994*
X1595116Y1186931*
X1594888Y1187556*
X1594434Y1188181*
X1593979Y1188494*
X1593070*
X1598979D02*
Y1181931D01*
X1597388Y1188494D02*
X1600570D01*
X1609661D02*
X1607843Y1181931D01*
X1609661Y1188494D02*
X1611479Y1181931D01*
X1608525Y1184119D02*
X1610797D01*
X1613525Y1188494D02*
Y1181931D01*
Y1188494D02*
X1615570D01*
X1616252Y1188181*
X1616479Y1187869*
X1616707Y1187244*
Y1186306*
X1616479Y1185681*
X1616252Y1185369*
X1615570Y1185056*
X1613525*
X1618752Y1188494D02*
Y1181931D01*
Y1188494D02*
X1620797D01*
X1621479Y1188181*
X1621707Y1187869*
X1621934Y1187244*
Y1186306*
X1621707Y1185681*
X1621479Y1185369*
X1620797Y1185056*
X1618752*
X1623979Y1188494D02*
Y1181931D01*
X1626707*
X1628752Y1188494D02*
Y1181931D01*
X1634207Y1186931D02*
X1633979Y1187556D01*
X1633525Y1188181*
X1633070Y1188494*
X1632161*
X1631707Y1188181*
X1631252Y1187556*
X1631025Y1186931*
X1630797Y1185994*
Y1184431*
X1631025Y1183494*
X1631252Y1182869*
X1631707Y1182244*
X1632161Y1181931*
X1633070*
X1633525Y1182244*
X1633979Y1182869*
X1634207Y1183494*
X1638070Y1188494D02*
X1636252Y1181931D01*
X1638070Y1188494D02*
X1639888Y1181931D01*
X1636934Y1184119D02*
X1639207D01*
X1641934Y1188494D02*
Y1181931D01*
Y1188494D02*
X1643979D01*
X1644661Y1188181*
X1644888Y1187869*
X1645116Y1187244*
Y1186619*
X1644888Y1185994*
X1644661Y1185681*
X1643979Y1185369*
X1641934D02*
X1643979D01*
X1644661Y1185056*
X1644888Y1184744*
X1645116Y1184119*
Y1183181*
X1644888Y1182556*
X1644661Y1182244*
X1643979Y1181931*
X1641934*
X1647161Y1188494D02*
Y1181931D01*
X1649888*
X1651934Y1188494D02*
Y1181931D01*
Y1188494D02*
X1654888D01*
X1651934Y1185369D02*
X1653752D01*
X1651934Y1181931D02*
X1654888D01*
X1501934Y1282556D02*
X1501479Y1283181D01*
X1500797Y1283494*
X1499888*
X1499207Y1283181*
X1498752Y1282556*
Y1281931*
X1498979Y1281306*
X1499207Y1280994*
X1499661Y1280681*
X1501025Y1280056*
X1501479Y1279744*
X1501707Y1279431*
X1501934Y1278806*
Y1277869*
X1501479Y1277244*
X1500797Y1276931*
X1499888*
X1499207Y1277244*
X1498752Y1277869*
X1503979Y1283494D02*
Y1276931D01*
X1507843Y1283494D02*
X1506025Y1276931D01*
X1507843Y1283494D02*
X1509661Y1276931D01*
X1506707Y1279119D02*
X1508979D01*
X1516934Y1283494D02*
Y1276931D01*
X1520116Y1283494D02*
Y1276931D01*
X1516934Y1280369D02*
X1520116D01*
X1523979Y1283494D02*
X1522161Y1276931D01*
X1523979Y1283494D02*
X1525797Y1276931D01*
X1522843Y1279119D02*
X1525116D01*
X1531025Y1282556D02*
X1530570Y1283181D01*
X1529888Y1283494*
X1528979*
X1528297Y1283181*
X1527843Y1282556*
Y1281931*
X1528070Y1281306*
X1528297Y1280994*
X1528752Y1280681*
X1530116Y1280056*
X1530570Y1279744*
X1530797Y1279431*
X1531025Y1278806*
Y1277869*
X1530570Y1277244*
X1529888Y1276931*
X1528979*
X1528297Y1277244*
X1527843Y1277869*
X1533070Y1283494D02*
Y1276931D01*
X1536252Y1283494D02*
Y1276931D01*
X1533070Y1280369D02*
X1536252D01*
X1538297Y1283494D02*
Y1276931D01*
X1540343Y1283494D02*
Y1276931D01*
Y1283494D02*
X1543525Y1276931D01*
Y1283494D02*
Y1276931D01*
X1548979Y1281931D02*
X1548752Y1282556D01*
X1548297Y1283181*
X1547843Y1283494*
X1546934*
X1546479Y1283181*
X1546025Y1282556*
X1545797Y1281931*
X1545570Y1280994*
Y1279431*
X1545797Y1278494*
X1546025Y1277869*
X1546479Y1277244*
X1546934Y1276931*
X1547843*
X1548297Y1277244*
X1548752Y1277869*
X1548979Y1278494*
Y1279431*
X1547843D02*
X1548979D01*
X1556252Y1283494D02*
Y1276931D01*
Y1283494D02*
X1558297D01*
X1558979Y1283181*
X1559207Y1282869*
X1559434Y1282244*
Y1281619*
X1559207Y1280994*
X1558979Y1280681*
X1558297Y1280369*
X1556252D02*
X1558297D01*
X1558979Y1280056*
X1559207Y1279744*
X1559434Y1279119*
Y1278181*
X1559207Y1277556*
X1558979Y1277244*
X1558297Y1276931*
X1556252*
X1562843Y1283494D02*
X1562388Y1283181D01*
X1561934Y1282556*
X1561707Y1281931*
X1561479Y1280994*
Y1279431*
X1561707Y1278494*
X1561934Y1277869*
X1562388Y1277244*
X1562843Y1276931*
X1563752*
X1564207Y1277244*
X1564661Y1277869*
X1564888Y1278494*
X1565116Y1279431*
Y1280994*
X1564888Y1281931*
X1564661Y1282556*
X1564207Y1283181*
X1563752Y1283494*
X1562843*
X1568979D02*
X1567161Y1276931D01*
X1568979Y1283494D02*
X1570797Y1276931D01*
X1567843Y1279119D02*
X1570116D01*
X1572843Y1283494D02*
Y1276931D01*
Y1283494D02*
X1574888D01*
X1575570Y1283181*
X1575797Y1282869*
X1576025Y1282244*
Y1281619*
X1575797Y1280994*
X1575570Y1280681*
X1574888Y1280369*
X1572843*
X1574434D02*
X1576025Y1276931D01*
X1578070Y1283494D02*
Y1276931D01*
Y1283494D02*
X1579661D01*
X1580343Y1283181*
X1580797Y1282556*
X1581025Y1281931*
X1581252Y1280994*
Y1279431*
X1581025Y1278494*
X1580797Y1277869*
X1580343Y1277244*
X1579661Y1276931*
X1578070*
X1591707Y1283494D02*
X1589434Y1276931D01*
X1588525Y1283494D02*
X1591707D01*
X1596025D02*
X1593752Y1279119D01*
X1597161*
X1596025Y1283494D02*
Y1276931D01*
X1599434Y1281931D02*
Y1282244D01*
X1599661Y1282869*
X1599888Y1283181*
X1600343Y1283494*
X1601252*
X1601707Y1283181*
X1601934Y1282869*
X1602161Y1282244*
Y1281619*
X1601934Y1280994*
X1601479Y1280056*
X1599207Y1276931*
X1602388*
X1607388Y1281306D02*
X1607161Y1280369D01*
X1606707Y1279744*
X1606025Y1279431*
X1605797*
X1605116Y1279744*
X1604661Y1280369*
X1604434Y1281306*
Y1281619*
X1604661Y1282556*
X1605116Y1283181*
X1605797Y1283494*
X1606025*
X1606707Y1283181*
X1607161Y1282556*
X1607388Y1281306*
Y1279744*
X1607161Y1278181*
X1606707Y1277244*
X1606025Y1276931*
X1605570*
X1604888Y1277244*
X1604661Y1277869*
X1610797Y1283494D02*
X1610116Y1283181D01*
X1609661Y1282244*
X1609434Y1280681*
Y1279744*
X1609661Y1278181*
X1610116Y1277244*
X1610797Y1276931*
X1611252*
X1611934Y1277244*
X1612388Y1278181*
X1612616Y1279744*
Y1280681*
X1612388Y1282244*
X1611934Y1283181*
X1611252Y1283494*
X1610797*
X1614661Y1282244D02*
X1615116Y1282556D01*
X1615797Y1283494*
Y1276931*
X1617843Y1283494D02*
Y1276931D01*
Y1283494D02*
X1619888D01*
X1620570Y1283181*
X1620797Y1282869*
X1621025Y1282244*
Y1281619*
X1620797Y1280994*
X1620570Y1280681*
X1619888Y1280369*
X1617843*
X1619434D02*
X1621025Y1276931D01*
X1623297Y1281931D02*
Y1282244D01*
X1623525Y1282869*
X1623752Y1283181*
X1624207Y1283494*
X1625116*
X1625570Y1283181*
X1625797Y1282869*
X1626025Y1282244*
Y1281619*
X1625797Y1280994*
X1625343Y1280056*
X1623070Y1276931*
X1626252*
X1498752Y1248494D02*
Y1241931D01*
Y1248494D02*
X1501707D01*
X1498752Y1245369D02*
X1500570D01*
X1505570Y1248494D02*
X1503752Y1241931D01*
X1505570Y1248494D02*
X1507388Y1241931D01*
X1504434Y1244119D02*
X1506707D01*
X1509434Y1248494D02*
Y1241931D01*
Y1248494D02*
X1511479D01*
X1512161Y1248181*
X1512388Y1247869*
X1512616Y1247244*
Y1246619*
X1512388Y1245994*
X1512161Y1245681*
X1511479Y1245369*
X1509434D02*
X1511479D01*
X1512161Y1245056*
X1512388Y1244744*
X1512616Y1244119*
Y1243181*
X1512388Y1242556*
X1512161Y1242244*
X1511479Y1241931*
X1509434*
X1514661Y1248494D02*
Y1241931D01*
Y1248494D02*
X1516707D01*
X1517388Y1248181*
X1517616Y1247869*
X1517843Y1247244*
Y1246619*
X1517616Y1245994*
X1517388Y1245681*
X1516707Y1245369*
X1514661*
X1516252D02*
X1517843Y1241931D01*
X1519888Y1248494D02*
Y1241931D01*
X1525343Y1246931D02*
X1525116Y1247556D01*
X1524661Y1248181*
X1524207Y1248494*
X1523297*
X1522843Y1248181*
X1522388Y1247556*
X1522161Y1246931*
X1521934Y1245994*
Y1244431*
X1522161Y1243494*
X1522388Y1242869*
X1522843Y1242244*
X1523297Y1241931*
X1524207*
X1524661Y1242244*
X1525116Y1242869*
X1525343Y1243494*
X1529207Y1248494D02*
X1527388Y1241931D01*
X1529207Y1248494D02*
X1531025Y1241931D01*
X1528070Y1244119D02*
X1530343D01*
X1534661Y1248494D02*
Y1241931D01*
X1533070Y1248494D02*
X1536252D01*
X1538297D02*
Y1241931D01*
Y1248494D02*
X1541252D01*
X1538297Y1245369D02*
X1540116D01*
X1538297Y1241931D02*
X1541252D01*
X1548525Y1248494D02*
Y1241931D01*
Y1248494D02*
X1550570D01*
X1551252Y1248181*
X1551479Y1247869*
X1551707Y1247244*
Y1246306*
X1551479Y1245681*
X1551252Y1245369*
X1550570Y1245056*
X1548525*
X1553752Y1248494D02*
Y1241931D01*
Y1248494D02*
X1556707D01*
X1553752Y1245369D02*
X1555570D01*
X1553752Y1241931D02*
X1556707D01*
X1558752Y1248494D02*
Y1241931D01*
Y1248494D02*
X1560797D01*
X1561479Y1248181*
X1561707Y1247869*
X1561934Y1247244*
Y1246619*
X1561707Y1245994*
X1561479Y1245681*
X1560797Y1245369*
X1558752*
X1560343D02*
X1561934Y1241931D01*
X1569207Y1248494D02*
Y1241931D01*
X1571252Y1248494D02*
Y1241931D01*
Y1248494D02*
X1573297D01*
X1573979Y1248181*
X1574207Y1247869*
X1574434Y1247244*
Y1246306*
X1574207Y1245681*
X1573979Y1245369*
X1573297Y1245056*
X1571252*
X1579888Y1246931D02*
X1579661Y1247556D01*
X1579207Y1248181*
X1578752Y1248494*
X1577843*
X1577388Y1248181*
X1576934Y1247556*
X1576707Y1246931*
X1576479Y1245994*
Y1244431*
X1576707Y1243494*
X1576934Y1242869*
X1577388Y1242244*
X1577843Y1241931*
X1578752*
X1579207Y1242244*
X1579661Y1242869*
X1579888Y1243494*
X1581934Y1244744D02*
X1586025D01*
X1590797Y1247556D02*
X1590570Y1248181D01*
X1589888Y1248494*
X1589434*
X1588752Y1248181*
X1588297Y1247244*
X1588070Y1245681*
Y1244119*
X1588297Y1242869*
X1588752Y1242244*
X1589434Y1241931*
X1589661*
X1590343Y1242244*
X1590797Y1242869*
X1591025Y1243806*
Y1244119*
X1590797Y1245056*
X1590343Y1245681*
X1589661Y1245994*
X1589434*
X1588752Y1245681*
X1588297Y1245056*
X1588070Y1244119*
X1594434Y1248494D02*
X1593752Y1248181D01*
X1593297Y1247244*
X1593070Y1245681*
Y1244744*
X1593297Y1243181*
X1593752Y1242244*
X1594434Y1241931*
X1594888*
X1595570Y1242244*
X1596025Y1243181*
X1596252Y1244744*
Y1245681*
X1596025Y1247244*
X1595570Y1248181*
X1594888Y1248494*
X1594434*
X1598297Y1247244D02*
X1598752Y1247556D01*
X1599434Y1248494*
Y1241931*
X1601707Y1246931D02*
Y1247244D01*
X1601934Y1247869*
X1602161Y1248181*
X1602616Y1248494*
X1603525*
X1603979Y1248181*
X1604207Y1247869*
X1604434Y1247244*
Y1246619*
X1604207Y1245994*
X1603752Y1245056*
X1601479Y1241931*
X1604661*
X1606707Y1248494D02*
Y1241931D01*
Y1248494D02*
X1608297D01*
X1608979Y1248181*
X1609434Y1247556*
X1609661Y1246931*
X1609888Y1245994*
Y1244431*
X1609661Y1243494*
X1609434Y1242869*
X1608979Y1242244*
X1608297Y1241931*
X1606707*
X1620570Y1246931D02*
X1620343Y1247556D01*
X1619888Y1248181*
X1619434Y1248494*
X1618525*
X1618070Y1248181*
X1617616Y1247556*
X1617388Y1246931*
X1617161Y1245994*
Y1244431*
X1617388Y1243494*
X1617616Y1242869*
X1618070Y1242244*
X1618525Y1241931*
X1619434*
X1619888Y1242244*
X1620343Y1242869*
X1620570Y1243494*
X1622616Y1248494D02*
Y1241931D01*
X1625343*
X1629207Y1248494D02*
X1627388Y1241931D01*
X1629207Y1248494D02*
X1631025Y1241931D01*
X1628070Y1244119D02*
X1630343D01*
X1636252Y1247556D02*
X1635797Y1248181D01*
X1635116Y1248494*
X1634207*
X1633525Y1248181*
X1633070Y1247556*
Y1246931*
X1633297Y1246306*
X1633525Y1245994*
X1633979Y1245681*
X1635343Y1245056*
X1635797Y1244744*
X1636025Y1244431*
X1636252Y1243806*
Y1242869*
X1635797Y1242244*
X1635116Y1241931*
X1634207*
X1633525Y1242244*
X1633070Y1242869*
X1641479Y1247556D02*
X1641025Y1248181D01*
X1640343Y1248494*
X1639434*
X1638752Y1248181*
X1638297Y1247556*
Y1246931*
X1638525Y1246306*
X1638752Y1245994*
X1639207Y1245681*
X1640570Y1245056*
X1641025Y1244744*
X1641252Y1244431*
X1641479Y1243806*
Y1242869*
X1641025Y1242244*
X1640343Y1241931*
X1639434*
X1638752Y1242244*
X1638297Y1242869*
X1648752Y1248494D02*
Y1241931D01*
X1650797Y1248494D02*
Y1241931D01*
X1533979Y1216931D02*
Y1217244D01*
X1534207Y1217869*
X1534434Y1218181*
X1534888Y1218494*
X1535797*
X1536252Y1218181*
X1536479Y1217869*
X1536707Y1217244*
Y1216619*
X1536479Y1215994*
X1536025Y1215056*
X1533752Y1211931*
X1536934*
X1539207Y1212556D02*
X1538979Y1212244D01*
X1539207Y1211931*
X1539434Y1212244*
X1539207Y1212556*
X1542843Y1218494D02*
X1542161Y1218181D01*
X1541707Y1217244*
X1541479Y1215681*
Y1214744*
X1541707Y1213181*
X1542161Y1212244*
X1542843Y1211931*
X1543297*
X1543979Y1212244*
X1544434Y1213181*
X1544661Y1214744*
Y1215681*
X1544434Y1217244*
X1543979Y1218181*
X1543297Y1218494*
X1542843*
X1553070Y1216306D02*
X1552616Y1215994D01*
X1552161Y1215369*
X1551934Y1214431*
Y1213806*
X1552161Y1212869*
X1552616Y1212244*
X1553070Y1211931*
X1553752*
X1554207Y1212244*
X1554661Y1212869*
X1554888Y1213806*
Y1214431*
X1554661Y1215369*
X1554207Y1215994*
X1553752Y1216306*
X1553070*
X1559434D02*
X1556934Y1211931D01*
Y1216306D02*
X1559434D01*
X1556934Y1211931D02*
X1559434D01*
X1561707Y1212556D02*
X1561479Y1212244D01*
X1561707Y1211931*
X1561934Y1212244*
X1561707Y1212556*
X1572616Y1216931D02*
X1572388Y1217556D01*
X1571934Y1218181*
X1571479Y1218494*
X1570570*
X1570116Y1218181*
X1569661Y1217556*
X1569434Y1216931*
X1569207Y1215994*
Y1214431*
X1569434Y1213494*
X1569661Y1212869*
X1570116Y1212244*
X1570570Y1211931*
X1571479*
X1571934Y1212244*
X1572388Y1212869*
X1572616Y1213494*
X1574661Y1216306D02*
Y1213181D01*
X1574888Y1212244*
X1575343Y1211931*
X1576025*
X1576479Y1212244*
X1577161Y1213181*
Y1216306D02*
Y1211931D01*
X1584434Y1218494D02*
Y1211931D01*
X1586479Y1218494D02*
Y1211931D01*
Y1218494D02*
X1589661Y1211931D01*
Y1218494D02*
Y1211931D01*
X1591707Y1218494D02*
Y1211931D01*
Y1218494D02*
X1594888Y1211931D01*
Y1218494D02*
Y1211931D01*
X1596934Y1218494D02*
Y1211931D01*
Y1218494D02*
X1599888D01*
X1596934Y1215369D02*
X1598752D01*
X1596934Y1211931D02*
X1599888D01*
X1601934Y1218494D02*
Y1211931D01*
Y1218494D02*
X1603979D01*
X1604661Y1218181*
X1604888Y1217869*
X1605116Y1217244*
Y1216619*
X1604888Y1215994*
X1604661Y1215681*
X1603979Y1215369*
X1601934*
X1603525D02*
X1605116Y1211931D01*
X1612388Y1218494D02*
Y1211931D01*
X1615116*
X1618979Y1218494D02*
X1617161Y1211931D01*
X1618979Y1218494D02*
X1620797Y1211931D01*
X1617843Y1214119D02*
X1620116D01*
X1622843Y1218494D02*
X1624661Y1215369D01*
Y1211931*
X1626479Y1218494D02*
X1624661Y1215369D01*
X1628525Y1218494D02*
Y1211931D01*
Y1218494D02*
X1631479D01*
X1628525Y1215369D02*
X1630343D01*
X1628525Y1211931D02*
X1631479D01*
X1633525Y1218494D02*
Y1211931D01*
Y1218494D02*
X1635570D01*
X1636252Y1218181*
X1636479Y1217869*
X1636707Y1217244*
Y1216619*
X1636479Y1215994*
X1636252Y1215681*
X1635570Y1215369*
X1633525*
X1635116D02*
X1636707Y1211931D01*
X1641934Y1217556D02*
X1641479Y1218181D01*
X1640797Y1218494*
X1639888*
X1639207Y1218181*
X1638752Y1217556*
Y1216931*
X1638979Y1216306*
X1639207Y1215994*
X1639661Y1215681*
X1641025Y1215056*
X1641479Y1214744*
X1641707Y1214431*
X1641934Y1213806*
Y1212869*
X1641479Y1212244*
X1640797Y1211931*
X1639888*
X1639207Y1212244*
X1638752Y1212869*
G54D13*
X1483752Y1346931D02*
X1527059D01*
Y1390239*
X1771154*
Y1346931*
X2499500*
Y1890239*
X1483752*
Y1346931*
X1501813Y1358743D02*
G75*
G03X1501813I-6250J0D01*
G01X2493939D02*
G03X2493939I-6250J0D01*
G01X1509697Y1878428D02*
G03X1509697I-6260J0D01*
G01X2493949D02*
G03X2493949I-6260J0D01*
G01X1879776Y1358743D02*
G03X1879776I-6260J0D01*
G01Y1878428D02*
G03X1879776I-6260J0D01*
G01X2068752Y1358743D02*
G03X2068752I-6260J0D01*
G01X2289224D02*
G03X2289224I-6259J0D01*
G01X2178988Y1878428D02*
G03X2178988I-6260J0D01*
G01X2493949Y1654018D02*
G03X2493949I-6260J0D01*
G01X1879776Y1652050D02*
G03X1879776I-6260J0D01*
G54D17*
G01X1373516Y1161892D02*
Y1162892D01*
Y1161892D02*
X1374516D01*
X1373516D02*
Y1160892D01*
Y1161892D02*
X1372516D01*
X1376516D02*
X1386516D01*
X1373516Y1158892D02*
Y1152092D01*
Y1164892D02*
Y1173892D01*
X1361516Y1161892D02*
X1370516D01*
X1379516D02*
G03X1379516I-6000J0D01*
G01X1377516D02*
G03X1377516I-4000J0D01*
G01X1373516Y2035908D02*
Y2036908D01*
Y2035908D02*
X1374516D01*
X1373516D02*
Y2034908D01*
Y2035908D02*
X1372516D01*
X1376516D02*
X1386516D01*
X1373516Y2032908D02*
Y2026108D01*
Y2038908D02*
Y2047908D01*
X1361516Y2035908D02*
X1370516D01*
X1379516D02*
G03X1379516I-6000J0D01*
G01X1377516D02*
G03X1377516I-4000J0D01*
G01X2625484D02*
Y2036908D01*
Y2035908D02*
X2626484D01*
X2625484D02*
Y2034908D01*
Y2035908D02*
X2624484D01*
X2628484D02*
X2638484D01*
X2625484Y2032908D02*
Y2026108D01*
Y2038908D02*
Y2047908D01*
X2613484Y2035908D02*
X2622484D01*
X2631484D02*
G03X2631484I-6000J0D01*
G01X2629484D02*
G03X2629484I-4000J0D01*
G54D22*
G01X2394382Y1528378D03*
Y1522178D03*
X2405996Y1528378D03*
Y1522178D03*
X2394382Y1827591D03*
Y1821391D03*
X2405996Y1827591D03*
Y1821391D03*
X2394382Y1677984D03*
Y1671784D03*
X2405996Y1677984D03*
Y1671784D03*
X2254224Y1460761D03*
Y1466961D03*
X2266035Y1460761D03*
Y1466961D03*
Y1610367D03*
Y1616567D03*
X2254224Y1610367D03*
Y1616567D03*
X2185524Y1528378D03*
Y1522178D03*
X2173909Y1528378D03*
Y1522178D03*
Y1677984D03*
Y1671784D03*
X2185524Y1677984D03*
Y1671784D03*
X2173909Y1827591D03*
Y1821391D03*
X2185524Y1827591D03*
Y1821391D03*
X2033949Y1460761D03*
Y1466961D03*
X2045563Y1460761D03*
Y1466961D03*
X2266035Y1759973D03*
Y1766173D03*
X2254224Y1759973D03*
Y1766173D03*
X2033949Y1610367D03*
Y1616567D03*
X2045563Y1610367D03*
Y1616567D03*
X2033949Y1759973D03*
Y1766173D03*
X2045563Y1759973D03*
Y1766173D03*
X1953437Y1827591D03*
Y1821391D03*
X1965051Y1827591D03*
Y1821391D03*
X1953437Y1677984D03*
Y1671784D03*
X1965051Y1677984D03*
Y1671784D03*
X1953437Y1528378D03*
Y1522178D03*
X1965051Y1528378D03*
Y1522178D03*
X1770760Y1668635D03*
Y1674835D03*
Y1682414D03*
Y1688614D03*
X1568890Y1489795D03*
Y1483595D03*
X1726862Y1468241D03*
Y1474441D03*
X1990839Y1795013D03*
Y1801213D03*
X2008949Y1793339D03*
Y1787139D03*
X1990839Y1645406D03*
Y1651606D03*
X2008949Y1643732D03*
Y1637532D03*
X2209736Y1795013D03*
Y1801213D03*
Y1645406D03*
Y1651606D03*
X2230209Y1643732D03*
Y1637532D03*
X2229421Y1793339D03*
Y1787139D03*
X2230209Y1494126D03*
Y1487926D03*
X2209736Y1495800D03*
Y1502000D03*
X2008949Y1494126D03*
Y1487926D03*
X1990839Y1495800D03*
Y1502000D03*
X2430209Y1795013D03*
Y1801213D03*
Y1645406D03*
Y1651606D03*
Y1495800D03*
Y1502000D03*
X1899500Y1579265D03*
Y1585465D03*
Y1728871D03*
Y1735071D03*
X2099500Y1709087D03*
Y1702887D03*
X2119972Y1728871D03*
Y1735071D03*
Y1579265D03*
Y1585465D03*
X2319972Y1709087D03*
Y1702887D03*
Y1559480D03*
Y1553280D03*
X2119972Y1429658D03*
Y1435858D03*
X2099500Y1559480D03*
Y1553280D03*
X1899500Y1429658D03*
Y1435858D03*
X1618201Y1552787D03*
Y1546587D03*
X1737098Y1559580D03*
Y1565780D03*
X1726862Y1501606D03*
Y1495406D03*
X1667209Y1496299D03*
Y1490099D03*
X1688870Y1559383D03*
Y1565583D03*
X1659933Y1481627D03*
Y1487827D03*
X2340445Y1728871D03*
Y1735071D03*
Y1579265D03*
Y1585465D03*
Y1429658D03*
Y1435858D03*
X1788870Y1482020D03*
Y1475820D03*
X1549697Y1469126D03*
Y1462926D03*
X1571173Y1463351D03*
Y1469551D03*
X1577748Y1463418D03*
Y1469618D03*
X1649106Y1473260D03*
Y1467060D03*
G54D23*
X2414707Y1528034D03*
X2420907D03*
X2414707Y1677640D03*
X2420907D03*
X2245513Y1461105D03*
X2239313D03*
X2245513Y1610711D03*
X2239313D03*
X2245513Y1760317D03*
X2239313D03*
X2194235Y1528034D03*
X2200435D03*
X2194235Y1677640D03*
X2200435D03*
X2194235Y1827246D03*
X2200435D03*
X2025238Y1461105D03*
X2019038D03*
X1973762Y1528034D03*
X1979962D03*
X1973762Y1677640D03*
X1979962D03*
X1973762Y1827246D03*
X1979962D03*
X2025238Y1760317D03*
X2019038D03*
X2025435Y1610711D03*
X2019235D03*
X2414707Y1827246D03*
X2420907D03*
X1854569Y1770947D03*
X1848369D03*
X1905159Y1799687D03*
X1898959D03*
Y1650081D03*
X1905159D03*
X2093841Y1787876D03*
X2100041D03*
X2093841Y1638270D03*
X2100041D03*
X2125631Y1799687D03*
X2119431D03*
X2125631Y1650081D03*
X2119431D03*
X2314510Y1638270D03*
X2320710D03*
X2314313Y1787876D03*
X2320513D03*
X2314510Y1488664D03*
X2320710D03*
X2125631Y1500475D03*
X2119431D03*
X2093841Y1488664D03*
X2100041D03*
X1905159Y1500475D03*
X1898959D03*
X2346104Y1799687D03*
X2339904D03*
X2346104Y1650081D03*
X2339904D03*
X2346104Y1500475D03*
X2339904D03*
X1854175Y1715829D03*
X1847975D03*
X1878584Y1861498D03*
X1872384D03*
X1816183Y1456971D03*
X1809983D03*
X1844825Y1861498D03*
X1851025D03*
X1783211Y1456971D03*
X1789411D03*
X1821203Y1764648D03*
X1827403D03*
X1925534Y1563467D03*
X1931734D03*
X1925534Y1713073D03*
X1931734D03*
X2073466Y1724884D03*
X2067266D03*
X2057718Y1874491D03*
X2051518D03*
X2100435Y1850180D03*
X2106635D03*
X2146006Y1713073D03*
X2152206D03*
X2146006Y1563467D03*
X2152206D03*
X2293939Y1724884D03*
X2287739D03*
X2278191Y1874491D03*
X2271991D03*
X2320809Y1850081D03*
X2327009D03*
X2293939Y1575278D03*
X2287739D03*
X2146006Y1413861D03*
X2152206D03*
X2073466Y1575278D03*
X2067266D03*
X1925534Y1413861D03*
X1931734D03*
X1821203Y1709530D03*
X1827403D03*
X1844825Y1855199D03*
X1851025D03*
X1668644Y1584333D03*
X1674844D03*
X1854175Y1709530D03*
X1847975D03*
X1878584Y1855199D03*
X1872384D03*
X1783211Y1547128D03*
X1789411D03*
X1827109Y1584333D03*
X1833309D03*
X1747384D03*
X1753584D03*
X1783211Y1405396D03*
X1789411D03*
X1816183D03*
X1809983D03*
X1816183Y1547128D03*
X1809983D03*
X1816183Y1450672D03*
X1809983D03*
X1854569Y1764648D03*
X1848369D03*
X1783211Y1450672D03*
X1789411D03*
X2366479Y1713073D03*
X2372679D03*
X2366479Y1563467D03*
X2372679D03*
X2366479Y1413861D03*
X2372679D03*
X1734883Y1751656D03*
X1728683D03*
X1556439Y1477837D03*
X1562639D03*
X1758112Y1665829D03*
X1751912D03*
X1641183Y1490632D03*
X1634983D03*
X1640002Y1472916D03*
X1633802D03*
G54D40*
X1752846Y1699884D03*
X1755406D03*
X1757966D03*
Y1707364D03*
X1755406D03*
X1752846D03*
G54D44*
X1733260Y1473113D03*
X1735819D03*
X1738378D03*
X1740937D03*
X1743496D03*
X1746055D03*
X1748614D03*
X1751173D03*
Y1496341D03*
X1748614D03*
X1746055D03*
X1743496D03*
X1740937D03*
X1738378D03*
X1735819D03*
X1733260D03*
X1674598Y1473113D03*
X1677157D03*
X1679717D03*
X1682276D03*
X1684835D03*
X1687394D03*
X1689953D03*
X1692512D03*
Y1496341D03*
X1689953D03*
X1687394D03*
X1684835D03*
X1682276D03*
X1679717D03*
X1677157D03*
X1674598D03*
G54D60*
X1866786Y1487670D03*
Y1495170D03*
G54D89*
X1871154Y1479215D03*
X1858654D03*
G54D98*
X1858786Y1491420D03*
G54D103*
X1563488Y1471321D03*
X1559736D03*
X1555984D03*
Y1461124D03*
X1563488D03*
X1653843Y1458329D03*
X1650091D03*
X1646339D03*
Y1448132D03*
X1653843D03*
G54D157*
X1950837Y1838457D03*
X1955954D03*
X1953437Y1845937D03*
X1962451Y1838457D03*
X1967568D03*
X1965051Y1845937D03*
X1979462Y1840445D03*
X1974346D03*
X1976862Y1832965D03*
X1950837Y1809323D03*
X1955954D03*
X1953437Y1816803D03*
X1962451Y1809323D03*
X1967568D03*
X1965051Y1816803D03*
X1950837Y1688851D03*
X1955954D03*
X1953437Y1696331D03*
X1962451Y1688851D03*
X1967568D03*
X1965051Y1696331D03*
X1979462Y1690839D03*
X1974346D03*
X1976862Y1683359D03*
X1950837Y1659717D03*
X1955954D03*
X1953437Y1667197D03*
X1962451Y1659717D03*
X1967568D03*
X1965051Y1667197D03*
X2048163Y1599500D03*
X2043046D03*
X2045563Y1592020D03*
X2036549Y1599500D03*
X2031432D03*
X2033949Y1592020D03*
X2019538Y1597512D03*
X2024654D03*
X2022138Y1604992D03*
X2048163Y1628634D03*
X2043046D03*
X2045563Y1621154D03*
X2036549Y1628634D03*
X2031432D03*
X2033949Y1621154D03*
X2048163Y1749107D03*
X2043046D03*
X2045563Y1741627D03*
X2036549Y1749107D03*
X2031432D03*
X2033949Y1741627D03*
X2019538Y1747119D03*
X2024654D03*
X2022138Y1754599D03*
X2048163Y1778241D03*
X2043046D03*
X2045563Y1770761D03*
X2036549Y1778241D03*
X2031432D03*
X2033949Y1770761D03*
X2171309Y1838457D03*
X2176426D03*
X2173909Y1845937D03*
X2182924Y1838457D03*
X2188040D03*
X2185524Y1845937D03*
X2199935Y1840445D03*
X2194818D03*
X2197335Y1832965D03*
X2171309Y1809323D03*
X2176426D03*
X2173909Y1816803D03*
X2182924Y1809323D03*
X2188040D03*
X2185524Y1816803D03*
X2171309Y1688851D03*
X2176426D03*
X2173909Y1696331D03*
X2182924Y1688851D03*
X2188040D03*
X2185524Y1696331D03*
X2199935Y1690839D03*
X2194818D03*
X2197335Y1683359D03*
X2171309Y1659717D03*
X2176426D03*
X2173909Y1667197D03*
X2182924Y1659717D03*
X2188040D03*
X2185524Y1667197D03*
X2268635Y1599500D03*
X2263519D03*
X2266035Y1592020D03*
X2256824Y1599500D03*
X2251708D03*
X2254224Y1592020D03*
X2239813Y1597512D03*
X2244930D03*
X2242413Y1604992D03*
X2268635Y1628634D03*
X2263519D03*
X2266035Y1621154D03*
X2256824Y1628634D03*
X2251708D03*
X2254224Y1621154D03*
X2268635Y1749107D03*
X2263519D03*
X2266035Y1741627D03*
X2256824Y1749107D03*
X2251708D03*
X2254224Y1741627D03*
X2239813Y1747119D03*
X2244930D03*
X2242413Y1754599D03*
X2268635Y1778241D03*
X2263519D03*
X2266035Y1770761D03*
X2256824Y1778241D03*
X2251708D03*
X2254224Y1770761D03*
X2268635Y1449894D03*
X2263519D03*
X2266035Y1442414D03*
X2256824Y1449894D03*
X2251708D03*
X2254224Y1442414D03*
X2239813Y1447906D03*
X2244930D03*
X2242413Y1455386D03*
X2268635Y1479028D03*
X2263519D03*
X2266035Y1471548D03*
X2256824Y1479028D03*
X2251708D03*
X2254224Y1471548D03*
X2199935Y1541233D03*
X2194818D03*
X2197335Y1533753D03*
X2182924Y1539244D03*
X2188040D03*
X2185524Y1546724D03*
X2171309Y1510111D03*
X2176426D03*
X2173909Y1517591D03*
X2182924Y1510111D03*
X2188040D03*
X2185524Y1517591D03*
X2048163Y1449894D03*
X2043046D03*
X2045563Y1442414D03*
X2036549Y1449894D03*
X2031432D03*
X2033949Y1442414D03*
X2019538Y1447906D03*
X2024654D03*
X2022138Y1455386D03*
X2048163Y1479028D03*
X2043046D03*
X2045563Y1471548D03*
X2036549Y1479028D03*
X2031432D03*
X2033949Y1471548D03*
X1950837Y1539244D03*
X1955954D03*
X1953437Y1546724D03*
X1962451Y1539244D03*
X1967568D03*
X1965051Y1546724D03*
X1979462Y1541233D03*
X1974346D03*
X1976862Y1533753D03*
X1950837Y1510111D03*
X1955954D03*
X1953437Y1517591D03*
X1962451Y1510111D03*
X1967568D03*
X1965051Y1517591D03*
X1658317Y1647315D03*
X1663434D03*
X1660917Y1654795D03*
X1935958Y1827847D03*
X1930842D03*
X1933358Y1820367D03*
X1915486Y1827847D03*
X1910369D03*
X1912886Y1820367D03*
X1925722Y1827847D03*
X1920605D03*
X1923122Y1820367D03*
X1946194Y1827847D03*
X1941078D03*
X1943594Y1820367D03*
X1974262Y1809323D03*
X1979379D03*
X1976862Y1816803D03*
X1935958Y1678241D03*
X1930842D03*
X1933358Y1670761D03*
X1915486Y1678241D03*
X1910369D03*
X1912886Y1670761D03*
X1925722Y1678241D03*
X1920605D03*
X1923122Y1670761D03*
X1946194Y1678241D03*
X1941078D03*
X1943594Y1670761D03*
X1974262Y1659717D03*
X1979379D03*
X1976862Y1667197D03*
X2063042Y1610111D03*
X2068158D03*
X2065642Y1617591D03*
X2083514Y1610111D03*
X2088631D03*
X2086114Y1617591D03*
X2073278Y1610111D03*
X2078395D03*
X2075878Y1617591D03*
X2052806Y1610111D03*
X2057922D03*
X2055406Y1617591D03*
X2024738Y1628634D03*
X2019621D03*
X2022138Y1621154D03*
X2063042Y1759717D03*
X2068158D03*
X2065642Y1767197D03*
X2083514Y1759717D03*
X2088631D03*
X2086114Y1767197D03*
X2073278Y1759717D03*
X2078395D03*
X2075878Y1767197D03*
X2052806Y1759717D03*
X2057922D03*
X2055406Y1767197D03*
X2024738Y1778241D03*
X2019621D03*
X2022138Y1770761D03*
X2156431Y1827847D03*
X2151314D03*
X2153831Y1820367D03*
X2135958Y1827847D03*
X2130842D03*
X2133358Y1820367D03*
X2146194Y1827847D03*
X2141078D03*
X2143594Y1820367D03*
X2166667Y1827847D03*
X2161550D03*
X2164067Y1820367D03*
X2194735Y1809323D03*
X2199851D03*
X2197335Y1816803D03*
X2156431Y1678241D03*
X2151314D03*
X2153831Y1670761D03*
X2135958Y1678241D03*
X2130842D03*
X2133358Y1670761D03*
X2146194Y1678241D03*
X2141078D03*
X2143594Y1670761D03*
X2166667Y1678241D03*
X2161550D03*
X2164067Y1670761D03*
X2194735Y1659717D03*
X2199851D03*
X2197335Y1667197D03*
X2283514Y1610111D03*
X2288631D03*
X2286114Y1617591D03*
X2303987Y1610111D03*
X2309103D03*
X2306587Y1617591D03*
X2293750Y1610111D03*
X2298867D03*
X2296350Y1617591D03*
X2273278Y1610111D03*
X2278395D03*
X2275878Y1617591D03*
X2245013Y1628556D03*
X2239897D03*
X2242413Y1621076D03*
X2283514Y1759717D03*
X2288631D03*
X2286114Y1767197D03*
X2303987Y1759717D03*
X2309103D03*
X2306587Y1767197D03*
X2293750Y1759717D03*
X2298867D03*
X2296350Y1767197D03*
X2273278Y1759717D03*
X2278395D03*
X2275878Y1767197D03*
X2245013Y1778241D03*
X2239897D03*
X2242413Y1770761D03*
X2283514Y1460504D03*
X2288631D03*
X2286114Y1467984D03*
X2303987Y1460504D03*
X2309103D03*
X2306587Y1467984D03*
X2293750Y1460504D03*
X2298867D03*
X2296350Y1467984D03*
X2273278Y1460504D03*
X2278395D03*
X2275878Y1467984D03*
X2245013Y1478949D03*
X2239897D03*
X2242413Y1471469D03*
X2156431Y1528634D03*
X2151314D03*
X2153831Y1521154D03*
X2135958Y1528634D03*
X2130842D03*
X2133358Y1521154D03*
X2146194Y1528634D03*
X2141078D03*
X2143594Y1521154D03*
X2166667Y1528634D03*
X2161550D03*
X2164067Y1521154D03*
X2194735Y1510111D03*
X2199851D03*
X2197335Y1517591D03*
X2063042Y1460504D03*
X2068158D03*
X2065642Y1467984D03*
X2083514Y1460504D03*
X2088631D03*
X2086114Y1467984D03*
X2073278Y1460504D03*
X2078395D03*
X2075878Y1467984D03*
X2052806Y1460504D03*
X2057922D03*
X2055406Y1467984D03*
X2024738Y1479028D03*
X2019621D03*
X2022138Y1471548D03*
X1935958Y1528634D03*
X1930842D03*
X1933358Y1521154D03*
X1915486Y1528634D03*
X1910369D03*
X1912886Y1521154D03*
X1925722Y1528634D03*
X1920605D03*
X1923122Y1521154D03*
X1946194Y1528634D03*
X1941078D03*
X1943594Y1521154D03*
X1974262Y1510111D03*
X1979379D03*
X1976862Y1517591D03*
X1883891Y1440445D03*
X1878775D03*
X1881291Y1432965D03*
X2171309Y1539244D03*
X2176426D03*
X2173909Y1546724D03*
X2391782Y1838457D03*
X2396899D03*
X2394382Y1845937D03*
X2403396Y1838457D03*
X2408513D03*
X2405996Y1845937D03*
X2420407Y1840445D03*
X2415290D03*
X2417807Y1832965D03*
X2391782Y1809323D03*
X2396899D03*
X2394382Y1816803D03*
X2403396Y1809323D03*
X2408513D03*
X2405996Y1816803D03*
X2376903Y1827847D03*
X2371786D03*
X2374303Y1820367D03*
X2356431Y1827847D03*
X2351314D03*
X2353831Y1820367D03*
X2366667Y1827847D03*
X2361550D03*
X2364067Y1820367D03*
X2387139Y1827847D03*
X2382023D03*
X2384539Y1820367D03*
X2415207Y1809323D03*
X2420324D03*
X2417807Y1816803D03*
X2391782Y1688851D03*
X2396899D03*
X2394382Y1696331D03*
X2403396Y1688851D03*
X2408513D03*
X2405996Y1696331D03*
X2420407Y1690839D03*
X2415290D03*
X2417807Y1683359D03*
X2391782Y1659717D03*
X2396899D03*
X2394382Y1667197D03*
X2403396Y1659717D03*
X2408513D03*
X2405996Y1667197D03*
X2376903Y1678241D03*
X2371786D03*
X2374303Y1670761D03*
X2356431Y1678241D03*
X2351314D03*
X2353831Y1670761D03*
X2366667Y1678241D03*
X2361550D03*
X2364067Y1670761D03*
X2387139Y1678241D03*
X2382023D03*
X2384539Y1670761D03*
X2415207Y1659717D03*
X2420324D03*
X2417807Y1667197D03*
X2391782Y1539244D03*
X2396899D03*
X2394382Y1546724D03*
X2403396Y1539244D03*
X2408513D03*
X2405996Y1546724D03*
X2420407Y1541233D03*
X2415290D03*
X2417807Y1533753D03*
X2391782Y1510111D03*
X2396899D03*
X2394382Y1517591D03*
X2403396Y1510111D03*
X2408513D03*
X2405996Y1517591D03*
X2376903Y1528634D03*
X2371786D03*
X2374303Y1521154D03*
X2356431Y1528634D03*
X2351314D03*
X2353831Y1521154D03*
X2366667Y1528634D03*
X2361550D03*
X2364067Y1521154D03*
X2387139Y1528634D03*
X2382023D03*
X2384539Y1521154D03*
X2415207Y1510111D03*
X2420324D03*
X2417807Y1517591D03*
G54D158*
X1989264Y1711185D03*
Y1719685D03*
Y1561579D03*
Y1570079D03*
X2008949Y1876378D03*
Y1867878D03*
X2209736Y1711185D03*
Y1719685D03*
Y1570079D03*
Y1561579D03*
X2229421Y1876378D03*
Y1867878D03*
X2209736Y1411973D03*
Y1420473D03*
X1989264Y1411973D03*
Y1420473D03*
X2430209Y1711185D03*
Y1719685D03*
Y1561579D03*
Y1570079D03*
Y1411973D03*
Y1420473D03*
G54D159*
X1826469Y1703526D03*
Y1700967D03*
Y1698408D03*
Y1695849D03*
Y1693290D03*
Y1690731D03*
Y1688172D03*
Y1685613D03*
Y1683054D03*
Y1680494D03*
Y1677935D03*
Y1675376D03*
X1849697D03*
Y1677935D03*
Y1680494D03*
Y1683054D03*
Y1685613D03*
Y1688172D03*
Y1690731D03*
Y1693290D03*
Y1695849D03*
Y1698408D03*
Y1700967D03*
Y1703526D03*
X1850091Y1849195D03*
Y1846636D03*
Y1844077D03*
Y1841518D03*
Y1838959D03*
Y1836400D03*
Y1833841D03*
Y1831282D03*
Y1828723D03*
Y1826164D03*
Y1823605D03*
Y1821046D03*
X1873319D03*
Y1823605D03*
Y1826164D03*
Y1828723D03*
Y1831282D03*
Y1833841D03*
Y1836400D03*
Y1838959D03*
Y1841518D03*
Y1844077D03*
Y1846636D03*
Y1849195D03*
X1788083Y1397424D03*
Y1394865D03*
Y1392306D03*
Y1389746D03*
Y1387187D03*
Y1384628D03*
Y1382069D03*
Y1379510D03*
Y1376951D03*
Y1374392D03*
Y1371833D03*
Y1369274D03*
X1811311D03*
Y1371833D03*
Y1374392D03*
Y1376951D03*
Y1379510D03*
Y1382069D03*
Y1384628D03*
Y1387187D03*
Y1389746D03*
Y1392306D03*
Y1394865D03*
Y1397424D03*
X1788083Y1541124D03*
Y1538565D03*
Y1536006D03*
Y1533447D03*
Y1530888D03*
Y1528329D03*
Y1525770D03*
Y1523211D03*
Y1520652D03*
Y1518093D03*
Y1515534D03*
Y1512975D03*
X1811311D03*
Y1515534D03*
Y1518093D03*
Y1520652D03*
Y1523211D03*
Y1525770D03*
Y1528329D03*
Y1530888D03*
Y1533447D03*
Y1536006D03*
Y1538565D03*
Y1541124D03*
X1826469Y1758644D03*
Y1756085D03*
Y1753526D03*
Y1750967D03*
Y1748408D03*
Y1745849D03*
Y1743290D03*
Y1740731D03*
Y1738172D03*
Y1735613D03*
Y1733054D03*
Y1730494D03*
X1849697D03*
Y1733054D03*
Y1735613D03*
Y1738172D03*
Y1740731D03*
Y1743290D03*
Y1745849D03*
Y1748408D03*
Y1750967D03*
Y1753526D03*
Y1756085D03*
Y1758644D03*
X1788083Y1443683D03*
Y1441124D03*
Y1438565D03*
Y1436006D03*
Y1433447D03*
Y1430888D03*
Y1428329D03*
Y1425770D03*
Y1423211D03*
Y1420652D03*
Y1418093D03*
Y1415534D03*
X1811311D03*
Y1418093D03*
Y1420652D03*
Y1423211D03*
Y1425770D03*
Y1428329D03*
Y1430888D03*
Y1433447D03*
Y1436006D03*
Y1438565D03*
Y1441124D03*
Y1443683D03*
G54D163*
X1927059Y1739057D03*
Y1742207D03*
Y1745357D03*
Y1748506D03*
Y1751656D03*
Y1754806D03*
Y1757955D03*
Y1761105D03*
Y1764254D03*
Y1767404D03*
Y1770554D03*
Y1773703D03*
X1930209Y1739057D03*
Y1742207D03*
Y1745357D03*
Y1748506D03*
Y1751656D03*
Y1754806D03*
Y1757955D03*
Y1761105D03*
Y1764254D03*
Y1767404D03*
Y1770554D03*
Y1773703D03*
X1933358Y1739057D03*
Y1742207D03*
Y1745357D03*
Y1748506D03*
Y1751656D03*
Y1754806D03*
Y1757955D03*
Y1761105D03*
Y1764254D03*
Y1767404D03*
Y1770554D03*
Y1773703D03*
X1936508Y1739057D03*
Y1742207D03*
Y1745357D03*
Y1748506D03*
Y1751656D03*
Y1754806D03*
Y1757955D03*
Y1761105D03*
Y1764254D03*
Y1767404D03*
Y1770554D03*
Y1773703D03*
X1939657Y1739057D03*
Y1742207D03*
Y1745357D03*
Y1748506D03*
Y1751656D03*
Y1754806D03*
Y1757955D03*
Y1761105D03*
Y1764254D03*
Y1767404D03*
Y1770554D03*
Y1773703D03*
X1942807Y1739057D03*
Y1742207D03*
Y1745357D03*
Y1748506D03*
Y1751656D03*
Y1754806D03*
Y1757955D03*
Y1761105D03*
Y1764254D03*
Y1767404D03*
Y1770554D03*
Y1773703D03*
X1945957Y1739057D03*
Y1742207D03*
Y1745357D03*
Y1748506D03*
Y1751656D03*
Y1754806D03*
Y1757955D03*
Y1761105D03*
Y1764254D03*
Y1767404D03*
Y1770554D03*
Y1773703D03*
X1949106Y1739057D03*
Y1742207D03*
Y1745357D03*
Y1748506D03*
Y1751656D03*
Y1754806D03*
Y1757955D03*
Y1761105D03*
Y1764254D03*
Y1767404D03*
Y1770554D03*
Y1773703D03*
X1952256Y1739057D03*
Y1742207D03*
Y1745357D03*
Y1748506D03*
Y1751656D03*
Y1754806D03*
Y1757955D03*
Y1761105D03*
Y1764254D03*
Y1767404D03*
Y1770554D03*
Y1773703D03*
X1955406Y1739057D03*
Y1742207D03*
Y1745357D03*
Y1748506D03*
Y1751656D03*
Y1754806D03*
Y1757955D03*
Y1761105D03*
Y1764254D03*
Y1767404D03*
Y1770554D03*
Y1773703D03*
X1958555Y1739057D03*
Y1742207D03*
Y1745357D03*
Y1748506D03*
Y1751656D03*
Y1754806D03*
Y1757955D03*
Y1761105D03*
Y1764254D03*
Y1767404D03*
Y1770554D03*
Y1773703D03*
X1961705Y1739057D03*
Y1742207D03*
Y1745357D03*
Y1748506D03*
Y1751656D03*
Y1754806D03*
Y1757955D03*
Y1761105D03*
Y1764254D03*
Y1767404D03*
Y1770554D03*
Y1773703D03*
X1927059Y1589451D03*
Y1592601D03*
Y1595750D03*
Y1598900D03*
Y1602050D03*
Y1605199D03*
Y1608349D03*
Y1611498D03*
Y1614648D03*
Y1617798D03*
Y1620947D03*
Y1624097D03*
X1930209Y1589451D03*
Y1592601D03*
Y1595750D03*
Y1598900D03*
Y1602050D03*
Y1605199D03*
Y1608349D03*
Y1611498D03*
Y1614648D03*
Y1617798D03*
Y1620947D03*
Y1624097D03*
X1933358Y1589451D03*
Y1592601D03*
Y1595750D03*
Y1598900D03*
Y1602050D03*
Y1605199D03*
Y1608349D03*
Y1611498D03*
Y1614648D03*
Y1617798D03*
Y1620947D03*
Y1624097D03*
X1936508Y1589451D03*
Y1592601D03*
Y1595750D03*
Y1598900D03*
Y1602050D03*
Y1605199D03*
Y1608349D03*
Y1611498D03*
Y1614648D03*
Y1617798D03*
Y1620947D03*
Y1624097D03*
X1939657Y1589451D03*
Y1592601D03*
Y1595750D03*
Y1598900D03*
Y1602050D03*
Y1605199D03*
Y1608349D03*
Y1611498D03*
Y1614648D03*
Y1617798D03*
Y1620947D03*
Y1624097D03*
X1942807Y1589451D03*
Y1592601D03*
Y1595750D03*
Y1598900D03*
Y1602050D03*
Y1605199D03*
Y1608349D03*
Y1611498D03*
Y1614648D03*
Y1617798D03*
Y1620947D03*
Y1624097D03*
X1945957Y1589451D03*
Y1592601D03*
Y1595750D03*
Y1598900D03*
Y1602050D03*
Y1605199D03*
Y1608349D03*
Y1611498D03*
Y1614648D03*
Y1617798D03*
Y1620947D03*
Y1624097D03*
X1949106Y1589451D03*
Y1592601D03*
Y1595750D03*
Y1598900D03*
Y1602050D03*
Y1605199D03*
Y1608349D03*
Y1611498D03*
Y1614648D03*
Y1617798D03*
Y1620947D03*
Y1624097D03*
X1952256Y1589451D03*
Y1592601D03*
Y1595750D03*
Y1598900D03*
Y1602050D03*
Y1605199D03*
Y1608349D03*
Y1611498D03*
Y1614648D03*
Y1617798D03*
Y1620947D03*
Y1624097D03*
X1955406Y1589451D03*
Y1592601D03*
Y1595750D03*
Y1598900D03*
Y1602050D03*
Y1605199D03*
Y1608349D03*
Y1611498D03*
Y1614648D03*
Y1617798D03*
Y1620947D03*
Y1624097D03*
X1958555Y1589451D03*
Y1592601D03*
Y1595750D03*
Y1598900D03*
Y1602050D03*
Y1605199D03*
Y1608349D03*
Y1611498D03*
Y1614648D03*
Y1617798D03*
Y1620947D03*
Y1624097D03*
X1961705Y1589451D03*
Y1592601D03*
Y1595750D03*
Y1598900D03*
Y1602050D03*
Y1605199D03*
Y1608349D03*
Y1611498D03*
Y1614648D03*
Y1617798D03*
Y1620947D03*
Y1624097D03*
X2071941Y1698900D03*
Y1695750D03*
Y1692601D03*
Y1689451D03*
Y1686302D03*
Y1683152D03*
Y1680002D03*
Y1676853D03*
Y1673703D03*
Y1670554D03*
Y1667404D03*
Y1664254D03*
X2068791Y1698900D03*
Y1695750D03*
Y1692601D03*
Y1689451D03*
Y1686302D03*
Y1683152D03*
Y1680002D03*
Y1676853D03*
Y1673703D03*
Y1670554D03*
Y1667404D03*
Y1664254D03*
X2065642Y1698900D03*
Y1695750D03*
Y1692601D03*
Y1689451D03*
Y1686302D03*
Y1683152D03*
Y1680002D03*
Y1676853D03*
Y1673703D03*
Y1670554D03*
Y1667404D03*
Y1664254D03*
X2062492Y1698900D03*
Y1695750D03*
Y1692601D03*
Y1689451D03*
Y1686302D03*
Y1683152D03*
Y1680002D03*
Y1676853D03*
Y1673703D03*
Y1670554D03*
Y1667404D03*
Y1664254D03*
X2059343Y1698900D03*
Y1695750D03*
Y1692601D03*
Y1689451D03*
Y1686302D03*
Y1683152D03*
Y1680002D03*
Y1676853D03*
Y1673703D03*
Y1670554D03*
Y1667404D03*
Y1664254D03*
X2056193Y1698900D03*
Y1695750D03*
Y1692601D03*
Y1689451D03*
Y1686302D03*
Y1683152D03*
Y1680002D03*
Y1676853D03*
Y1673703D03*
Y1670554D03*
Y1667404D03*
Y1664254D03*
X2053043Y1698900D03*
Y1695750D03*
Y1692601D03*
Y1689451D03*
Y1686302D03*
Y1683152D03*
Y1680002D03*
Y1676853D03*
Y1673703D03*
Y1670554D03*
Y1667404D03*
Y1664254D03*
X2049894Y1698900D03*
Y1695750D03*
Y1692601D03*
Y1689451D03*
Y1686302D03*
Y1683152D03*
Y1680002D03*
Y1676853D03*
Y1673703D03*
Y1670554D03*
Y1667404D03*
Y1664254D03*
X2046744Y1698900D03*
Y1695750D03*
Y1692601D03*
Y1689451D03*
Y1686302D03*
Y1683152D03*
Y1680002D03*
Y1676853D03*
Y1673703D03*
Y1670554D03*
Y1667404D03*
Y1664254D03*
X2043594Y1698900D03*
Y1695750D03*
Y1692601D03*
Y1689451D03*
Y1686302D03*
Y1683152D03*
Y1680002D03*
Y1676853D03*
Y1673703D03*
Y1670554D03*
Y1667404D03*
Y1664254D03*
X2040445Y1698900D03*
Y1695750D03*
Y1692601D03*
Y1689451D03*
Y1686302D03*
Y1683152D03*
Y1680002D03*
Y1676853D03*
Y1673703D03*
Y1670554D03*
Y1667404D03*
Y1664254D03*
X2037295Y1698900D03*
Y1695750D03*
Y1692601D03*
Y1689451D03*
Y1686302D03*
Y1683152D03*
Y1680002D03*
Y1676853D03*
Y1673703D03*
Y1670554D03*
Y1667404D03*
Y1664254D03*
X2071941Y1848506D03*
Y1845357D03*
Y1842207D03*
Y1839057D03*
Y1835908D03*
Y1832758D03*
Y1829609D03*
Y1826459D03*
Y1823309D03*
Y1820160D03*
Y1817010D03*
Y1813861D03*
X2068791Y1848506D03*
Y1845357D03*
Y1842207D03*
Y1839057D03*
Y1835908D03*
Y1832758D03*
Y1829609D03*
Y1826459D03*
Y1823309D03*
Y1820160D03*
Y1817010D03*
Y1813861D03*
X2065642Y1848506D03*
Y1845357D03*
Y1842207D03*
Y1839057D03*
Y1835908D03*
Y1832758D03*
Y1829609D03*
Y1826459D03*
Y1823309D03*
Y1820160D03*
Y1817010D03*
Y1813861D03*
X2062492Y1848506D03*
Y1845357D03*
Y1842207D03*
Y1839057D03*
Y1835908D03*
Y1832758D03*
Y1829609D03*
Y1826459D03*
Y1823309D03*
Y1820160D03*
Y1817010D03*
Y1813861D03*
X2059343Y1848506D03*
Y1845357D03*
Y1842207D03*
Y1839057D03*
Y1835908D03*
Y1832758D03*
Y1829609D03*
Y1826459D03*
Y1823309D03*
Y1820160D03*
Y1817010D03*
Y1813861D03*
X2056193Y1848506D03*
Y1845357D03*
Y1842207D03*
Y1839057D03*
Y1835908D03*
Y1832758D03*
Y1829609D03*
Y1826459D03*
Y1823309D03*
Y1820160D03*
Y1817010D03*
Y1813861D03*
X2053043Y1848506D03*
Y1845357D03*
Y1842207D03*
Y1839057D03*
Y1835908D03*
Y1832758D03*
Y1829609D03*
Y1826459D03*
Y1823309D03*
Y1820160D03*
Y1817010D03*
Y1813861D03*
X2049894Y1848506D03*
Y1845357D03*
Y1842207D03*
Y1839057D03*
Y1835908D03*
Y1832758D03*
Y1829609D03*
Y1826459D03*
Y1823309D03*
Y1820160D03*
Y1817010D03*
Y1813861D03*
X2046744Y1848506D03*
Y1845357D03*
Y1842207D03*
Y1839057D03*
Y1835908D03*
Y1832758D03*
Y1829609D03*
Y1826459D03*
Y1823309D03*
Y1820160D03*
Y1817010D03*
Y1813861D03*
X2043594Y1848506D03*
Y1845357D03*
Y1842207D03*
Y1839057D03*
Y1835908D03*
Y1832758D03*
Y1829609D03*
Y1826459D03*
Y1823309D03*
Y1820160D03*
Y1817010D03*
Y1813861D03*
X2040445Y1848506D03*
Y1845357D03*
Y1842207D03*
Y1839057D03*
Y1835908D03*
Y1832758D03*
Y1829609D03*
Y1826459D03*
Y1823309D03*
Y1820160D03*
Y1817010D03*
Y1813861D03*
X2037295Y1848506D03*
Y1845357D03*
Y1842207D03*
Y1839057D03*
Y1835908D03*
Y1832758D03*
Y1829609D03*
Y1826459D03*
Y1823309D03*
Y1820160D03*
Y1817010D03*
Y1813861D03*
X2147531Y1739057D03*
Y1742207D03*
Y1745357D03*
Y1748506D03*
Y1751656D03*
Y1754806D03*
Y1757955D03*
Y1761105D03*
Y1764254D03*
Y1767404D03*
Y1770554D03*
Y1773703D03*
X2150681Y1739057D03*
Y1742207D03*
Y1745357D03*
Y1748506D03*
Y1751656D03*
Y1754806D03*
Y1757955D03*
Y1761105D03*
Y1764254D03*
Y1767404D03*
Y1770554D03*
Y1773703D03*
X2153831Y1739057D03*
Y1742207D03*
Y1745357D03*
Y1748506D03*
Y1751656D03*
Y1754806D03*
Y1757955D03*
Y1761105D03*
Y1764254D03*
Y1767404D03*
Y1770554D03*
Y1773703D03*
X2156980Y1739057D03*
Y1742207D03*
Y1745357D03*
Y1748506D03*
Y1751656D03*
Y1754806D03*
Y1757955D03*
Y1761105D03*
Y1764254D03*
Y1767404D03*
Y1770554D03*
Y1773703D03*
X2160130Y1739057D03*
Y1742207D03*
Y1745357D03*
Y1748506D03*
Y1751656D03*
Y1754806D03*
Y1757955D03*
Y1761105D03*
Y1764254D03*
Y1767404D03*
Y1770554D03*
Y1773703D03*
X2163280Y1739057D03*
Y1742207D03*
Y1745357D03*
Y1748506D03*
Y1751656D03*
Y1754806D03*
Y1757955D03*
Y1761105D03*
Y1764254D03*
Y1767404D03*
Y1770554D03*
Y1773703D03*
X2166429Y1739057D03*
Y1742207D03*
Y1745357D03*
Y1748506D03*
Y1751656D03*
Y1754806D03*
Y1757955D03*
Y1761105D03*
Y1764254D03*
Y1767404D03*
Y1770554D03*
Y1773703D03*
X2169579Y1739057D03*
Y1742207D03*
Y1745357D03*
Y1748506D03*
Y1751656D03*
Y1754806D03*
Y1757955D03*
Y1761105D03*
Y1764254D03*
Y1767404D03*
Y1770554D03*
Y1773703D03*
X2172728Y1739057D03*
Y1742207D03*
Y1745357D03*
Y1748506D03*
Y1751656D03*
Y1754806D03*
Y1757955D03*
Y1761105D03*
Y1764254D03*
Y1767404D03*
Y1770554D03*
Y1773703D03*
X2175878Y1739057D03*
Y1742207D03*
Y1745357D03*
Y1748506D03*
Y1751656D03*
Y1754806D03*
Y1757955D03*
Y1761105D03*
Y1764254D03*
Y1767404D03*
Y1770554D03*
Y1773703D03*
X2179028Y1739057D03*
Y1742207D03*
Y1745357D03*
Y1748506D03*
Y1751656D03*
Y1754806D03*
Y1757955D03*
Y1761105D03*
Y1764254D03*
Y1767404D03*
Y1770554D03*
Y1773703D03*
X2182177Y1739057D03*
Y1742207D03*
Y1745357D03*
Y1748506D03*
Y1751656D03*
Y1754806D03*
Y1757955D03*
Y1761105D03*
Y1764254D03*
Y1767404D03*
Y1770554D03*
Y1773703D03*
X2147531Y1589451D03*
Y1592601D03*
Y1595750D03*
Y1598900D03*
Y1602050D03*
Y1605199D03*
Y1608349D03*
Y1611498D03*
Y1614648D03*
Y1617798D03*
Y1620947D03*
Y1624097D03*
X2150681Y1589451D03*
Y1592601D03*
Y1595750D03*
Y1598900D03*
Y1602050D03*
Y1605199D03*
Y1608349D03*
Y1611498D03*
Y1614648D03*
Y1617798D03*
Y1620947D03*
Y1624097D03*
X2153831Y1589451D03*
Y1592601D03*
Y1595750D03*
Y1598900D03*
Y1602050D03*
Y1605199D03*
Y1608349D03*
Y1611498D03*
Y1614648D03*
Y1617798D03*
Y1620947D03*
Y1624097D03*
X2156980Y1589451D03*
Y1592601D03*
Y1595750D03*
Y1598900D03*
Y1602050D03*
Y1605199D03*
Y1608349D03*
Y1611498D03*
Y1614648D03*
Y1617798D03*
Y1620947D03*
Y1624097D03*
X2160130Y1589451D03*
Y1592601D03*
Y1595750D03*
Y1598900D03*
Y1602050D03*
Y1605199D03*
Y1608349D03*
Y1611498D03*
Y1614648D03*
Y1617798D03*
Y1620947D03*
Y1624097D03*
X2163280Y1589451D03*
Y1592601D03*
Y1595750D03*
Y1598900D03*
Y1602050D03*
Y1605199D03*
Y1608349D03*
Y1611498D03*
Y1614648D03*
Y1617798D03*
Y1620947D03*
Y1624097D03*
X2166429Y1589451D03*
Y1592601D03*
Y1595750D03*
Y1598900D03*
Y1602050D03*
Y1605199D03*
Y1608349D03*
Y1611498D03*
Y1614648D03*
Y1617798D03*
Y1620947D03*
Y1624097D03*
X2169579Y1589451D03*
Y1592601D03*
Y1595750D03*
Y1598900D03*
Y1602050D03*
Y1605199D03*
Y1608349D03*
Y1611498D03*
Y1614648D03*
Y1617798D03*
Y1620947D03*
Y1624097D03*
X2172728Y1589451D03*
Y1592601D03*
Y1595750D03*
Y1598900D03*
Y1602050D03*
Y1605199D03*
Y1608349D03*
Y1611498D03*
Y1614648D03*
Y1617798D03*
Y1620947D03*
Y1624097D03*
X2175878Y1589451D03*
Y1592601D03*
Y1595750D03*
Y1598900D03*
Y1602050D03*
Y1605199D03*
Y1608349D03*
Y1611498D03*
Y1614648D03*
Y1617798D03*
Y1620947D03*
Y1624097D03*
X2179028Y1589451D03*
Y1592601D03*
Y1595750D03*
Y1598900D03*
Y1602050D03*
Y1605199D03*
Y1608349D03*
Y1611498D03*
Y1614648D03*
Y1617798D03*
Y1620947D03*
Y1624097D03*
X2182177Y1589451D03*
Y1592601D03*
Y1595750D03*
Y1598900D03*
Y1602050D03*
Y1605199D03*
Y1608349D03*
Y1611498D03*
Y1614648D03*
Y1617798D03*
Y1620947D03*
Y1624097D03*
X2292413Y1698900D03*
Y1695750D03*
Y1692601D03*
Y1689451D03*
Y1686302D03*
Y1683152D03*
Y1680002D03*
Y1676853D03*
Y1673703D03*
Y1670554D03*
Y1667404D03*
Y1664254D03*
X2289264Y1698900D03*
Y1695750D03*
Y1692601D03*
Y1689451D03*
Y1686302D03*
Y1683152D03*
Y1680002D03*
Y1676853D03*
Y1673703D03*
Y1670554D03*
Y1667404D03*
Y1664254D03*
X2286114Y1698900D03*
Y1695750D03*
Y1692601D03*
Y1689451D03*
Y1686302D03*
Y1683152D03*
Y1680002D03*
Y1676853D03*
Y1673703D03*
Y1670554D03*
Y1667404D03*
Y1664254D03*
X2282965Y1698900D03*
Y1695750D03*
Y1692601D03*
Y1689451D03*
Y1686302D03*
Y1683152D03*
Y1680002D03*
Y1676853D03*
Y1673703D03*
Y1670554D03*
Y1667404D03*
Y1664254D03*
X2279815Y1698900D03*
Y1695750D03*
Y1692601D03*
Y1689451D03*
Y1686302D03*
Y1683152D03*
Y1680002D03*
Y1676853D03*
Y1673703D03*
Y1670554D03*
Y1667404D03*
Y1664254D03*
X2276665Y1698900D03*
Y1695750D03*
Y1692601D03*
Y1689451D03*
Y1686302D03*
Y1683152D03*
Y1680002D03*
Y1676853D03*
Y1673703D03*
Y1670554D03*
Y1667404D03*
Y1664254D03*
X2273516Y1698900D03*
Y1695750D03*
Y1692601D03*
Y1689451D03*
Y1686302D03*
Y1683152D03*
Y1680002D03*
Y1676853D03*
Y1673703D03*
Y1670554D03*
Y1667404D03*
Y1664254D03*
X2270366Y1698900D03*
Y1695750D03*
Y1692601D03*
Y1689451D03*
Y1686302D03*
Y1683152D03*
Y1680002D03*
Y1676853D03*
Y1673703D03*
Y1670554D03*
Y1667404D03*
Y1664254D03*
X2267217Y1698900D03*
Y1695750D03*
Y1692601D03*
Y1689451D03*
Y1686302D03*
Y1683152D03*
Y1680002D03*
Y1676853D03*
Y1673703D03*
Y1670554D03*
Y1667404D03*
Y1664254D03*
X2264067Y1698900D03*
Y1695750D03*
Y1692601D03*
Y1689451D03*
Y1686302D03*
Y1683152D03*
Y1680002D03*
Y1676853D03*
Y1673703D03*
Y1670554D03*
Y1667404D03*
Y1664254D03*
X2260917Y1698900D03*
Y1695750D03*
Y1692601D03*
Y1689451D03*
Y1686302D03*
Y1683152D03*
Y1680002D03*
Y1676853D03*
Y1673703D03*
Y1670554D03*
Y1667404D03*
Y1664254D03*
X2257768Y1698900D03*
Y1695750D03*
Y1692601D03*
Y1689451D03*
Y1686302D03*
Y1683152D03*
Y1680002D03*
Y1676853D03*
Y1673703D03*
Y1670554D03*
Y1667404D03*
Y1664254D03*
X2292413Y1848506D03*
Y1845357D03*
Y1842207D03*
Y1839057D03*
Y1835908D03*
Y1832758D03*
Y1829609D03*
Y1826459D03*
Y1823309D03*
Y1820160D03*
Y1817010D03*
Y1813861D03*
X2289264Y1848506D03*
Y1845357D03*
Y1842207D03*
Y1839057D03*
Y1835908D03*
Y1832758D03*
Y1829609D03*
Y1826459D03*
Y1823309D03*
Y1820160D03*
Y1817010D03*
Y1813861D03*
X2286114Y1848506D03*
Y1845357D03*
Y1842207D03*
Y1839057D03*
Y1835908D03*
Y1832758D03*
Y1829609D03*
Y1826459D03*
Y1823309D03*
Y1820160D03*
Y1817010D03*
Y1813861D03*
X2282965Y1848506D03*
Y1845357D03*
Y1842207D03*
Y1839057D03*
Y1835908D03*
Y1832758D03*
Y1829609D03*
Y1826459D03*
Y1823309D03*
Y1820160D03*
Y1817010D03*
Y1813861D03*
X2279815Y1848506D03*
Y1845357D03*
Y1842207D03*
Y1839057D03*
Y1835908D03*
Y1832758D03*
Y1829609D03*
Y1826459D03*
Y1823309D03*
Y1820160D03*
Y1817010D03*
Y1813861D03*
X2276665Y1848506D03*
Y1845357D03*
Y1842207D03*
Y1839057D03*
Y1835908D03*
Y1832758D03*
Y1829609D03*
Y1826459D03*
Y1823309D03*
Y1820160D03*
Y1817010D03*
Y1813861D03*
X2273516Y1848506D03*
Y1845357D03*
Y1842207D03*
Y1839057D03*
Y1835908D03*
Y1832758D03*
Y1829609D03*
Y1826459D03*
Y1823309D03*
Y1820160D03*
Y1817010D03*
Y1813861D03*
X2270366Y1848506D03*
Y1845357D03*
Y1842207D03*
Y1839057D03*
Y1835908D03*
Y1832758D03*
Y1829609D03*
Y1826459D03*
Y1823309D03*
Y1820160D03*
Y1817010D03*
Y1813861D03*
X2267217Y1848506D03*
Y1845357D03*
Y1842207D03*
Y1839057D03*
Y1835908D03*
Y1832758D03*
Y1829609D03*
Y1826459D03*
Y1823309D03*
Y1820160D03*
Y1817010D03*
Y1813861D03*
X2264067Y1848506D03*
Y1845357D03*
Y1842207D03*
Y1839057D03*
Y1835908D03*
Y1832758D03*
Y1829609D03*
Y1826459D03*
Y1823309D03*
Y1820160D03*
Y1817010D03*
Y1813861D03*
X2260917Y1848506D03*
Y1845357D03*
Y1842207D03*
Y1839057D03*
Y1835908D03*
Y1832758D03*
Y1829609D03*
Y1826459D03*
Y1823309D03*
Y1820160D03*
Y1817010D03*
Y1813861D03*
X2257768Y1848506D03*
Y1845357D03*
Y1842207D03*
Y1839057D03*
Y1835908D03*
Y1832758D03*
Y1829609D03*
Y1826459D03*
Y1823309D03*
Y1820160D03*
Y1817010D03*
Y1813861D03*
X2292413Y1549294D03*
Y1546144D03*
Y1542994D03*
Y1539845D03*
Y1536695D03*
Y1533546D03*
Y1530396D03*
Y1527246D03*
Y1524097D03*
Y1520947D03*
Y1517798D03*
Y1514648D03*
X2289264Y1549294D03*
Y1546144D03*
Y1542994D03*
Y1539845D03*
Y1536695D03*
Y1533546D03*
Y1530396D03*
Y1527246D03*
Y1524097D03*
Y1520947D03*
Y1517798D03*
Y1514648D03*
X2286114Y1549294D03*
Y1546144D03*
Y1542994D03*
Y1539845D03*
Y1536695D03*
Y1533546D03*
Y1530396D03*
Y1527246D03*
Y1524097D03*
Y1520947D03*
Y1517798D03*
Y1514648D03*
X2282965Y1549294D03*
Y1546144D03*
Y1542994D03*
Y1539845D03*
Y1536695D03*
Y1533546D03*
Y1530396D03*
Y1527246D03*
Y1524097D03*
Y1520947D03*
Y1517798D03*
Y1514648D03*
X2279815Y1549294D03*
Y1546144D03*
Y1542994D03*
Y1539845D03*
Y1536695D03*
Y1533546D03*
Y1530396D03*
Y1527246D03*
Y1524097D03*
Y1520947D03*
Y1517798D03*
Y1514648D03*
X2276665Y1549294D03*
Y1546144D03*
Y1542994D03*
Y1539845D03*
Y1536695D03*
Y1533546D03*
Y1530396D03*
Y1527246D03*
Y1524097D03*
Y1520947D03*
Y1517798D03*
Y1514648D03*
X2273516Y1549294D03*
Y1546144D03*
Y1542994D03*
Y1539845D03*
Y1536695D03*
Y1533546D03*
Y1530396D03*
Y1527246D03*
Y1524097D03*
Y1520947D03*
Y1517798D03*
Y1514648D03*
X2270366Y1549294D03*
Y1546144D03*
Y1542994D03*
Y1539845D03*
Y1536695D03*
Y1533546D03*
Y1530396D03*
Y1527246D03*
Y1524097D03*
Y1520947D03*
Y1517798D03*
Y1514648D03*
X2267217Y1549294D03*
Y1546144D03*
Y1542994D03*
Y1539845D03*
Y1536695D03*
Y1533546D03*
Y1530396D03*
Y1527246D03*
Y1524097D03*
Y1520947D03*
Y1517798D03*
Y1514648D03*
X2264067Y1549294D03*
Y1546144D03*
Y1542994D03*
Y1539845D03*
Y1536695D03*
Y1533546D03*
Y1530396D03*
Y1527246D03*
Y1524097D03*
Y1520947D03*
Y1517798D03*
Y1514648D03*
X2260917Y1549294D03*
Y1546144D03*
Y1542994D03*
Y1539845D03*
Y1536695D03*
Y1533546D03*
Y1530396D03*
Y1527246D03*
Y1524097D03*
Y1520947D03*
Y1517798D03*
Y1514648D03*
X2257768Y1549294D03*
Y1546144D03*
Y1542994D03*
Y1539845D03*
Y1536695D03*
Y1533546D03*
Y1530396D03*
Y1527246D03*
Y1524097D03*
Y1520947D03*
Y1517798D03*
Y1514648D03*
X2147531Y1439845D03*
Y1442994D03*
Y1446144D03*
Y1449294D03*
Y1452443D03*
Y1455593D03*
Y1458743D03*
Y1461892D03*
Y1465042D03*
Y1468191D03*
Y1471341D03*
Y1474491D03*
X2150681Y1439845D03*
Y1442994D03*
Y1446144D03*
Y1449294D03*
Y1452443D03*
Y1455593D03*
Y1458743D03*
Y1461892D03*
Y1465042D03*
Y1468191D03*
Y1471341D03*
Y1474491D03*
X2153831Y1439845D03*
Y1442994D03*
Y1446144D03*
Y1449294D03*
Y1452443D03*
Y1455593D03*
Y1458743D03*
Y1461892D03*
Y1465042D03*
Y1468191D03*
Y1471341D03*
Y1474491D03*
X2156980Y1439845D03*
Y1442994D03*
Y1446144D03*
Y1449294D03*
Y1452443D03*
Y1455593D03*
Y1458743D03*
Y1461892D03*
Y1465042D03*
Y1468191D03*
Y1471341D03*
Y1474491D03*
X2160130Y1439845D03*
Y1442994D03*
Y1446144D03*
Y1449294D03*
Y1452443D03*
Y1455593D03*
Y1458743D03*
Y1461892D03*
Y1465042D03*
Y1468191D03*
Y1471341D03*
Y1474491D03*
X2163280Y1439845D03*
Y1442994D03*
Y1446144D03*
Y1449294D03*
Y1452443D03*
Y1455593D03*
Y1458743D03*
Y1461892D03*
Y1465042D03*
Y1468191D03*
Y1471341D03*
Y1474491D03*
X2166429Y1439845D03*
Y1442994D03*
Y1446144D03*
Y1449294D03*
Y1452443D03*
Y1455593D03*
Y1458743D03*
Y1461892D03*
Y1465042D03*
Y1468191D03*
Y1471341D03*
Y1474491D03*
X2169579Y1439845D03*
Y1442994D03*
Y1446144D03*
Y1449294D03*
Y1452443D03*
Y1455593D03*
Y1458743D03*
Y1461892D03*
Y1465042D03*
Y1468191D03*
Y1471341D03*
Y1474491D03*
X2172728Y1439845D03*
Y1442994D03*
Y1446144D03*
Y1449294D03*
Y1452443D03*
Y1455593D03*
Y1458743D03*
Y1461892D03*
Y1465042D03*
Y1468191D03*
Y1471341D03*
Y1474491D03*
X2175878Y1439845D03*
Y1442994D03*
Y1446144D03*
Y1449294D03*
Y1452443D03*
Y1455593D03*
Y1458743D03*
Y1461892D03*
Y1465042D03*
Y1468191D03*
Y1471341D03*
Y1474491D03*
X2179028Y1439845D03*
Y1442994D03*
Y1446144D03*
Y1449294D03*
Y1452443D03*
Y1455593D03*
Y1458743D03*
Y1461892D03*
Y1465042D03*
Y1468191D03*
Y1471341D03*
Y1474491D03*
X2182177Y1439845D03*
Y1442994D03*
Y1446144D03*
Y1449294D03*
Y1452443D03*
Y1455593D03*
Y1458743D03*
Y1461892D03*
Y1465042D03*
Y1468191D03*
Y1471341D03*
Y1474491D03*
X2071941Y1549294D03*
Y1546144D03*
Y1542994D03*
Y1539845D03*
Y1536695D03*
Y1533546D03*
Y1530396D03*
Y1527246D03*
Y1524097D03*
Y1520947D03*
Y1517798D03*
Y1514648D03*
X2068791Y1549294D03*
Y1546144D03*
Y1542994D03*
Y1539845D03*
Y1536695D03*
Y1533546D03*
Y1530396D03*
Y1527246D03*
Y1524097D03*
Y1520947D03*
Y1517798D03*
Y1514648D03*
X2065642Y1549294D03*
Y1546144D03*
Y1542994D03*
Y1539845D03*
Y1536695D03*
Y1533546D03*
Y1530396D03*
Y1527246D03*
Y1524097D03*
Y1520947D03*
Y1517798D03*
Y1514648D03*
X2062492Y1549294D03*
Y1546144D03*
Y1542994D03*
Y1539845D03*
Y1536695D03*
Y1533546D03*
Y1530396D03*
Y1527246D03*
Y1524097D03*
Y1520947D03*
Y1517798D03*
Y1514648D03*
X2059343Y1549294D03*
Y1546144D03*
Y1542994D03*
Y1539845D03*
Y1536695D03*
Y1533546D03*
Y1530396D03*
Y1527246D03*
Y1524097D03*
Y1520947D03*
Y1517798D03*
Y1514648D03*
X2056193Y1549294D03*
Y1546144D03*
Y1542994D03*
Y1539845D03*
Y1536695D03*
Y1533546D03*
Y1530396D03*
Y1527246D03*
Y1524097D03*
Y1520947D03*
Y1517798D03*
Y1514648D03*
X2053043Y1549294D03*
Y1546144D03*
Y1542994D03*
Y1539845D03*
Y1536695D03*
Y1533546D03*
Y1530396D03*
Y1527246D03*
Y1524097D03*
Y1520947D03*
Y1517798D03*
Y1514648D03*
X2049894Y1549294D03*
Y1546144D03*
Y1542994D03*
Y1539845D03*
Y1536695D03*
Y1533546D03*
Y1530396D03*
Y1527246D03*
Y1524097D03*
Y1520947D03*
Y1517798D03*
Y1514648D03*
X2046744Y1549294D03*
Y1546144D03*
Y1542994D03*
Y1539845D03*
Y1536695D03*
Y1533546D03*
Y1530396D03*
Y1527246D03*
Y1524097D03*
Y1520947D03*
Y1517798D03*
Y1514648D03*
X2043594Y1549294D03*
Y1546144D03*
Y1542994D03*
Y1539845D03*
Y1536695D03*
Y1533546D03*
Y1530396D03*
Y1527246D03*
Y1524097D03*
Y1520947D03*
Y1517798D03*
Y1514648D03*
X2040445Y1549294D03*
Y1546144D03*
Y1542994D03*
Y1539845D03*
Y1536695D03*
Y1533546D03*
Y1530396D03*
Y1527246D03*
Y1524097D03*
Y1520947D03*
Y1517798D03*
Y1514648D03*
X2037295Y1549294D03*
Y1546144D03*
Y1542994D03*
Y1539845D03*
Y1536695D03*
Y1533546D03*
Y1530396D03*
Y1527246D03*
Y1524097D03*
Y1520947D03*
Y1517798D03*
Y1514648D03*
X1927059Y1439845D03*
Y1442994D03*
Y1446144D03*
Y1449294D03*
Y1452443D03*
Y1455593D03*
Y1458743D03*
Y1461892D03*
Y1465042D03*
Y1468191D03*
Y1471341D03*
Y1474491D03*
X1930209Y1439845D03*
Y1442994D03*
Y1446144D03*
Y1449294D03*
Y1452443D03*
Y1455593D03*
Y1458743D03*
Y1461892D03*
Y1465042D03*
Y1468191D03*
Y1471341D03*
Y1474491D03*
X1933358Y1439845D03*
Y1442994D03*
Y1446144D03*
Y1449294D03*
Y1452443D03*
Y1455593D03*
Y1458743D03*
Y1461892D03*
Y1465042D03*
Y1468191D03*
Y1471341D03*
Y1474491D03*
X1936508Y1439845D03*
Y1442994D03*
Y1446144D03*
Y1449294D03*
Y1452443D03*
Y1455593D03*
Y1458743D03*
Y1461892D03*
Y1465042D03*
Y1468191D03*
Y1471341D03*
Y1474491D03*
X1939657Y1439845D03*
Y1442994D03*
Y1446144D03*
Y1449294D03*
Y1452443D03*
Y1455593D03*
Y1458743D03*
Y1461892D03*
Y1465042D03*
Y1468191D03*
Y1471341D03*
Y1474491D03*
X1942807Y1439845D03*
Y1442994D03*
Y1446144D03*
Y1449294D03*
Y1452443D03*
Y1455593D03*
Y1458743D03*
Y1461892D03*
Y1465042D03*
Y1468191D03*
Y1471341D03*
Y1474491D03*
X1945957Y1439845D03*
Y1442994D03*
Y1446144D03*
Y1449294D03*
Y1452443D03*
Y1455593D03*
Y1458743D03*
Y1461892D03*
Y1465042D03*
Y1468191D03*
Y1471341D03*
Y1474491D03*
X1949106Y1439845D03*
Y1442994D03*
Y1446144D03*
Y1449294D03*
Y1452443D03*
Y1455593D03*
Y1458743D03*
Y1461892D03*
Y1465042D03*
Y1468191D03*
Y1471341D03*
Y1474491D03*
X1952256Y1439845D03*
Y1442994D03*
Y1446144D03*
Y1449294D03*
Y1452443D03*
Y1455593D03*
Y1458743D03*
Y1461892D03*
Y1465042D03*
Y1468191D03*
Y1471341D03*
Y1474491D03*
X1955406Y1439845D03*
Y1442994D03*
Y1446144D03*
Y1449294D03*
Y1452443D03*
Y1455593D03*
Y1458743D03*
Y1461892D03*
Y1465042D03*
Y1468191D03*
Y1471341D03*
Y1474491D03*
X1958555Y1439845D03*
Y1442994D03*
Y1446144D03*
Y1449294D03*
Y1452443D03*
Y1455593D03*
Y1458743D03*
Y1461892D03*
Y1465042D03*
Y1468191D03*
Y1471341D03*
Y1474491D03*
X1961705Y1439845D03*
Y1442994D03*
Y1446144D03*
Y1449294D03*
Y1452443D03*
Y1455593D03*
Y1458743D03*
Y1461892D03*
Y1465042D03*
Y1468191D03*
Y1471341D03*
Y1474491D03*
X2368004Y1739057D03*
Y1742207D03*
Y1745357D03*
Y1748506D03*
Y1751656D03*
Y1754806D03*
Y1757955D03*
Y1761105D03*
Y1764254D03*
Y1767404D03*
Y1770554D03*
Y1773703D03*
X2371154Y1739057D03*
Y1742207D03*
Y1745357D03*
Y1748506D03*
Y1751656D03*
Y1754806D03*
Y1757955D03*
Y1761105D03*
Y1764254D03*
Y1767404D03*
Y1770554D03*
Y1773703D03*
X2374303Y1739057D03*
Y1742207D03*
Y1745357D03*
Y1748506D03*
Y1751656D03*
Y1754806D03*
Y1757955D03*
Y1761105D03*
Y1764254D03*
Y1767404D03*
Y1770554D03*
Y1773703D03*
X2377453Y1739057D03*
Y1742207D03*
Y1745357D03*
Y1748506D03*
Y1751656D03*
Y1754806D03*
Y1757955D03*
Y1761105D03*
Y1764254D03*
Y1767404D03*
Y1770554D03*
Y1773703D03*
X2380602Y1739057D03*
Y1742207D03*
Y1745357D03*
Y1748506D03*
Y1751656D03*
Y1754806D03*
Y1757955D03*
Y1761105D03*
Y1764254D03*
Y1767404D03*
Y1770554D03*
Y1773703D03*
X2383752Y1739057D03*
Y1742207D03*
Y1745357D03*
Y1748506D03*
Y1751656D03*
Y1754806D03*
Y1757955D03*
Y1761105D03*
Y1764254D03*
Y1767404D03*
Y1770554D03*
Y1773703D03*
X2386902Y1739057D03*
Y1742207D03*
Y1745357D03*
Y1748506D03*
Y1751656D03*
Y1754806D03*
Y1757955D03*
Y1761105D03*
Y1764254D03*
Y1767404D03*
Y1770554D03*
Y1773703D03*
X2390051Y1739057D03*
Y1742207D03*
Y1745357D03*
Y1748506D03*
Y1751656D03*
Y1754806D03*
Y1757955D03*
Y1761105D03*
Y1764254D03*
Y1767404D03*
Y1770554D03*
Y1773703D03*
X2393201Y1739057D03*
Y1742207D03*
Y1745357D03*
Y1748506D03*
Y1751656D03*
Y1754806D03*
Y1757955D03*
Y1761105D03*
Y1764254D03*
Y1767404D03*
Y1770554D03*
Y1773703D03*
X2396350Y1739057D03*
Y1742207D03*
Y1745357D03*
Y1748506D03*
Y1751656D03*
Y1754806D03*
Y1757955D03*
Y1761105D03*
Y1764254D03*
Y1767404D03*
Y1770554D03*
Y1773703D03*
X2399500Y1739057D03*
Y1742207D03*
Y1745357D03*
Y1748506D03*
Y1751656D03*
Y1754806D03*
Y1757955D03*
Y1761105D03*
Y1764254D03*
Y1767404D03*
Y1770554D03*
Y1773703D03*
X2402650Y1739057D03*
Y1742207D03*
Y1745357D03*
Y1748506D03*
Y1751656D03*
Y1754806D03*
Y1757955D03*
Y1761105D03*
Y1764254D03*
Y1767404D03*
Y1770554D03*
Y1773703D03*
X2368004Y1589451D03*
Y1592601D03*
Y1595750D03*
Y1598900D03*
Y1602050D03*
Y1605199D03*
Y1608349D03*
Y1611498D03*
Y1614648D03*
Y1617798D03*
Y1620947D03*
Y1624097D03*
X2371154Y1589451D03*
Y1592601D03*
Y1595750D03*
Y1598900D03*
Y1602050D03*
Y1605199D03*
Y1608349D03*
Y1611498D03*
Y1614648D03*
Y1617798D03*
Y1620947D03*
Y1624097D03*
X2374303Y1589451D03*
Y1592601D03*
Y1595750D03*
Y1598900D03*
Y1602050D03*
Y1605199D03*
Y1608349D03*
Y1611498D03*
Y1614648D03*
Y1617798D03*
Y1620947D03*
Y1624097D03*
X2377453Y1589451D03*
Y1592601D03*
Y1595750D03*
Y1598900D03*
Y1602050D03*
Y1605199D03*
Y1608349D03*
Y1611498D03*
Y1614648D03*
Y1617798D03*
Y1620947D03*
Y1624097D03*
X2380602Y1589451D03*
Y1592601D03*
Y1595750D03*
Y1598900D03*
Y1602050D03*
Y1605199D03*
Y1608349D03*
Y1611498D03*
Y1614648D03*
Y1617798D03*
Y1620947D03*
Y1624097D03*
X2383752Y1589451D03*
Y1592601D03*
Y1595750D03*
Y1598900D03*
Y1602050D03*
Y1605199D03*
Y1608349D03*
Y1611498D03*
Y1614648D03*
Y1617798D03*
Y1620947D03*
Y1624097D03*
X2386902Y1589451D03*
Y1592601D03*
Y1595750D03*
Y1598900D03*
Y1602050D03*
Y1605199D03*
Y1608349D03*
Y1611498D03*
Y1614648D03*
Y1617798D03*
Y1620947D03*
Y1624097D03*
X2390051Y1589451D03*
Y1592601D03*
Y1595750D03*
Y1598900D03*
Y1602050D03*
Y1605199D03*
Y1608349D03*
Y1611498D03*
Y1614648D03*
Y1617798D03*
Y1620947D03*
Y1624097D03*
X2393201Y1589451D03*
Y1592601D03*
Y1595750D03*
Y1598900D03*
Y1602050D03*
Y1605199D03*
Y1608349D03*
Y1611498D03*
Y1614648D03*
Y1617798D03*
Y1620947D03*
Y1624097D03*
X2396350Y1589451D03*
Y1592601D03*
Y1595750D03*
Y1598900D03*
Y1602050D03*
Y1605199D03*
Y1608349D03*
Y1611498D03*
Y1614648D03*
Y1617798D03*
Y1620947D03*
Y1624097D03*
X2399500Y1589451D03*
Y1592601D03*
Y1595750D03*
Y1598900D03*
Y1602050D03*
Y1605199D03*
Y1608349D03*
Y1611498D03*
Y1614648D03*
Y1617798D03*
Y1620947D03*
Y1624097D03*
X2402650Y1589451D03*
Y1592601D03*
Y1595750D03*
Y1598900D03*
Y1602050D03*
Y1605199D03*
Y1608349D03*
Y1611498D03*
Y1614648D03*
Y1617798D03*
Y1620947D03*
Y1624097D03*
X2368004Y1439845D03*
Y1442994D03*
Y1446144D03*
Y1449294D03*
Y1452443D03*
Y1455593D03*
Y1458743D03*
Y1461892D03*
Y1465042D03*
Y1468191D03*
Y1471341D03*
Y1474491D03*
X2371154Y1439845D03*
Y1442994D03*
Y1446144D03*
Y1449294D03*
Y1452443D03*
Y1455593D03*
Y1458743D03*
Y1461892D03*
Y1465042D03*
Y1468191D03*
Y1471341D03*
Y1474491D03*
X2374303Y1439845D03*
Y1442994D03*
Y1446144D03*
Y1449294D03*
Y1452443D03*
Y1455593D03*
Y1458743D03*
Y1461892D03*
Y1465042D03*
Y1468191D03*
Y1471341D03*
Y1474491D03*
X2377453Y1439845D03*
Y1442994D03*
Y1446144D03*
Y1449294D03*
Y1452443D03*
Y1455593D03*
Y1458743D03*
Y1461892D03*
Y1465042D03*
Y1468191D03*
Y1471341D03*
Y1474491D03*
X2380602Y1439845D03*
Y1442994D03*
Y1446144D03*
Y1449294D03*
Y1452443D03*
Y1455593D03*
Y1458743D03*
Y1461892D03*
Y1465042D03*
Y1468191D03*
Y1471341D03*
Y1474491D03*
X2383752Y1439845D03*
Y1442994D03*
Y1446144D03*
Y1449294D03*
Y1452443D03*
Y1455593D03*
Y1458743D03*
Y1461892D03*
Y1465042D03*
Y1468191D03*
Y1471341D03*
Y1474491D03*
X2386902Y1439845D03*
Y1442994D03*
Y1446144D03*
Y1449294D03*
Y1452443D03*
Y1455593D03*
Y1458743D03*
Y1461892D03*
Y1465042D03*
Y1468191D03*
Y1471341D03*
Y1474491D03*
X2390051Y1439845D03*
Y1442994D03*
Y1446144D03*
Y1449294D03*
Y1452443D03*
Y1455593D03*
Y1458743D03*
Y1461892D03*
Y1465042D03*
Y1468191D03*
Y1471341D03*
Y1474491D03*
X2393201Y1439845D03*
Y1442994D03*
Y1446144D03*
Y1449294D03*
Y1452443D03*
Y1455593D03*
Y1458743D03*
Y1461892D03*
Y1465042D03*
Y1468191D03*
Y1471341D03*
Y1474491D03*
X2396350Y1439845D03*
Y1442994D03*
Y1446144D03*
Y1449294D03*
Y1452443D03*
Y1455593D03*
Y1458743D03*
Y1461892D03*
Y1465042D03*
Y1468191D03*
Y1471341D03*
Y1474491D03*
X2399500Y1439845D03*
Y1442994D03*
Y1446144D03*
Y1449294D03*
Y1452443D03*
Y1455593D03*
Y1458743D03*
Y1461892D03*
Y1465042D03*
Y1468191D03*
Y1471341D03*
Y1474491D03*
X2402650Y1439845D03*
Y1442994D03*
Y1446144D03*
Y1449294D03*
Y1452443D03*
Y1455593D03*
Y1458743D03*
Y1461892D03*
Y1465042D03*
Y1468191D03*
Y1471341D03*
Y1474491D03*
G54D164*
X1584835Y1665829D03*
X1588969D03*
X1643594Y1638565D03*
Y1642699D03*
G54D165*
X1598770Y1686498D03*
X1585270D03*
X1598770Y1702246D03*
X1585270D03*
X1935384Y1701262D03*
X1921884D03*
X1935384Y1551656D03*
X1921884D03*
X2063616Y1736695D03*
X2077116D03*
X2155856Y1701262D03*
X2142356D03*
X2155856Y1551656D03*
X2142356D03*
X2297589Y1736695D03*
X2284089D03*
Y1587089D03*
X2297589D03*
X2155856Y1402050D03*
X2142356D03*
X2063616Y1587089D03*
X2077116D03*
X1935384Y1402050D03*
X1921884D03*
X2376329Y1701262D03*
X2362829D03*
X2376329Y1551656D03*
X2362829D03*
X2376329Y1402050D03*
X2362829D03*
G54D174*
X2010211Y1726459D03*
X2018711D03*
X2239183D03*
X2230683D03*
X2239183Y1576853D03*
X2230683D03*
X2010211D03*
X2018711D03*
X1613494Y1431085D03*
X1604994D03*
X1809360Y1478428D03*
X1800860D03*
X1596270Y1673703D03*
X1587770D03*
X1735407Y1766223D03*
X1743907D03*
X1760998D03*
X1769498D03*
G54D176*
X1761311Y1673703D03*
Y1675672D03*
Y1677640D03*
Y1679609D03*
Y1681577D03*
X1749500D03*
Y1679609D03*
Y1677640D03*
Y1675672D03*
Y1673703D03*
G54D177*
X1755406Y1677640D03*
G54D178*
X1870770Y1768347D03*
Y1773464D03*
X1863290Y1770947D03*
X1807384Y1789213D03*
Y1794330D03*
X1799904Y1791813D03*
X1881577Y1483882D03*
Y1478765D03*
X1889057Y1481282D03*
X1581596Y1441182D03*
Y1446299D03*
X1574116Y1443782D03*
G54D179*
X1625248Y1531183D03*
X1630248D03*
X1635248D03*
X1640248D03*
X1645248D03*
X1650248D03*
X1655248D03*
Y1552443D03*
X1650248D03*
X1645248D03*
X1640248D03*
X1635248D03*
X1630248D03*
X1625248D03*
X1689224Y1531183D03*
X1694224D03*
X1699224D03*
X1704224D03*
X1709224D03*
X1714224D03*
X1719224D03*
Y1552443D03*
X1714224D03*
X1709224D03*
X1704224D03*
X1699224D03*
X1694224D03*
X1689224D03*
X1738043Y1531183D03*
X1743043D03*
X1748043D03*
X1753043D03*
X1758043D03*
X1763043D03*
X1768043D03*
Y1552443D03*
X1763043D03*
X1758043D03*
X1753043D03*
X1748043D03*
X1743043D03*
X1738043D03*
G54D180*
X1628417Y1592935D03*
X1633417D03*
X1638417D03*
X1643417D03*
X1648417D03*
X1653417D03*
X1658417D03*
X1663417D03*
X1668417D03*
X1673417D03*
X1678417D03*
X1683417D03*
X1688417D03*
X1693417D03*
Y1628487D03*
X1688417D03*
X1683417D03*
X1678417D03*
X1673417D03*
X1668417D03*
X1663417D03*
X1658417D03*
X1653417D03*
X1648417D03*
X1643417D03*
X1638417D03*
X1633417D03*
X1628417D03*
X1785898Y1592935D03*
X1790898D03*
X1795898D03*
X1800898D03*
X1805898D03*
X1810898D03*
X1815898D03*
X1820898D03*
X1825898D03*
X1830898D03*
X1835898D03*
X1840898D03*
X1845898D03*
X1850898D03*
Y1628487D03*
X1845898D03*
X1840898D03*
X1835898D03*
X1830898D03*
X1825898D03*
X1820898D03*
X1815898D03*
X1810898D03*
X1805898D03*
X1800898D03*
X1795898D03*
X1790898D03*
X1785898D03*
X1707157Y1592935D03*
X1712157D03*
X1717157D03*
X1722157D03*
X1727157D03*
X1732157D03*
X1737157D03*
X1742157D03*
X1747157D03*
X1752157D03*
X1757157D03*
X1762157D03*
X1767157D03*
X1772157D03*
Y1628487D03*
X1767157D03*
X1762157D03*
X1757157D03*
X1752157D03*
X1747157D03*
X1742157D03*
X1737157D03*
X1732157D03*
X1727157D03*
X1722157D03*
X1717157D03*
X1712157D03*
X1707157D03*
G54D181*
X1805307Y1485908D03*
Y1488467D03*
Y1491026D03*
Y1493585D03*
X1794087D03*
Y1491026D03*
Y1488467D03*
Y1485908D03*
G54D182*
X1799697Y1489746D03*
G54D183*
X1653043Y1487227D03*
X1651075D03*
X1649106D03*
X1647138D03*
Y1482227D03*
X1649106D03*
X1651075D03*
X1653043D03*
G54D185*
X1646705Y1484766D03*
X1653476Y1484727D03*
G54D186*
X1671744Y1439845D03*
X1669776D03*
X1667807D03*
X1665839D03*
X1671744Y1435120D03*
X1669776D03*
X1667807D03*
X1665839D03*
X1691823Y1439845D03*
X1689854D03*
X1687886D03*
X1685917D03*
X1691823Y1435120D03*
X1689854D03*
X1687886D03*
X1685917D03*
X1652059Y1435908D03*
X1650091D03*
X1648122D03*
X1646154D03*
X1652059Y1431183D03*
X1650091D03*
X1648122D03*
X1646154D03*
G54D187*
X1723909Y1856207D03*
Y1821907D03*
X1678634Y1856207D03*
Y1821907D03*
G54D188*
X1755406Y1845807D03*
Y1832307D03*
X1772138Y1845807D03*
Y1832307D03*
X2103437Y1877304D03*
Y1863804D03*
X2323909Y1877304D03*
Y1863804D03*
G54D189*
X1609170Y1732758D03*
X1574870D03*
X1609170Y1780002D03*
X1574870D03*
G54D190*
X1744677Y1741616D03*
X1762197D03*
Y1747522D03*
X1744677D03*
G54D191*
X1746547Y1737778D03*
X1748516D03*
X1750484D03*
X1752453D03*
X1754421D03*
X1756390D03*
X1758358D03*
X1760327D03*
Y1751361D03*
X1758358D03*
X1756390D03*
X1754421D03*
X1752453D03*
X1750484D03*
X1748516D03*
X1746547D03*
G54D192*
X1753437Y1744569D03*
G54D193*
X1785307Y1827247D03*
X1790307D03*
X1795307D03*
X1800307D03*
Y1850867D03*
X1795307D03*
X1790347D03*
X1785307D03*
X1808929Y1827247D03*
X1813929D03*
X1818929D03*
X1823929D03*
Y1850867D03*
X1818929D03*
X1813969D03*
X1808929D03*
X1759717Y1776066D03*
X1764717D03*
X1769717D03*
X1774717D03*
Y1799686D03*
X1769717D03*
X1764757D03*
X1759717D03*
X1736094Y1776066D03*
X1741094D03*
X1746094D03*
X1751094D03*
Y1799686D03*
X1746094D03*
X1741134D03*
X1736094D03*
G54D194*
X1673417Y1505593D03*
X1677157D03*
X1680898D03*
Y1513073D03*
X1673417D03*
G54D197*
X1862295Y1698703D03*
Y1695160D03*
Y1691617D03*
Y1688073D03*
X1868988D03*
Y1691617D03*
Y1695160D03*
Y1698703D03*
X1862295Y1684924D03*
Y1681380D03*
Y1677837D03*
Y1674294D03*
X1868988D03*
Y1677837D03*
Y1681380D03*
Y1684924D03*
X1885917Y1844372D03*
Y1840829D03*
Y1837286D03*
Y1833743D03*
X1892610D03*
Y1837286D03*
Y1840829D03*
Y1844372D03*
X1885917Y1830593D03*
Y1827050D03*
Y1823506D03*
Y1819963D03*
X1892610D03*
Y1823506D03*
Y1827050D03*
Y1830593D03*
X1823909Y1394569D03*
Y1391026D03*
Y1387483D03*
Y1383939D03*
X1830602D03*
Y1387483D03*
Y1391026D03*
Y1394569D03*
X1823909Y1380790D03*
Y1377246D03*
Y1373703D03*
Y1370160D03*
X1830602D03*
Y1373703D03*
Y1377246D03*
Y1380790D03*
X1823909Y1536302D03*
Y1532758D03*
Y1529215D03*
Y1525672D03*
X1830602D03*
Y1529215D03*
Y1532758D03*
Y1536302D03*
X1823909Y1522522D03*
Y1518979D03*
Y1515435D03*
Y1511892D03*
X1830602D03*
Y1515435D03*
Y1518979D03*
Y1522522D03*
G54D199*
X1697453Y1768191D03*
X1632256D03*
G54D200*
X1753870Y1675317D02*
X1756292D01*
X1756941Y1675966*
Y1679963*
X1753870*
Y1675317*
X1753988D02*
Y1679963D01*
X1754224Y1675317D02*
Y1679963D01*
X1754461Y1675317D02*
Y1679963D01*
X1754697Y1675317D02*
Y1679963D01*
X1754933Y1675317D02*
Y1679963D01*
X1755169Y1675317D02*
Y1679963D01*
X1755406Y1675317D02*
Y1679963D01*
X1755642Y1675317D02*
Y1679963D01*
X1755878Y1675317D02*
Y1679963D01*
X1756114Y1675317D02*
Y1679963D01*
X1756350Y1675376D02*
Y1679963D01*
X1756587Y1675612D02*
Y1679963D01*
X1756823Y1675848D02*
Y1679963D01*
G54D201*
X1783850Y1832856D02*
X1801764D01*
Y1848997*
X1801058*
X1801029Y1849007*
X1801004Y1849025*
X1800985Y1849050*
X1800976Y1849079*
X1800938Y1853131*
X1799597*
Y1849080*
X1799587Y1849051*
X1799569Y1849025*
X1799544Y1849007*
X1799514Y1848997*
X1796137*
X1796107Y1849007*
X1796082Y1849025*
X1796063Y1849051*
X1796054Y1849080*
Y1853131*
X1794675*
Y1849080*
X1794666Y1849051*
X1794647Y1849025*
X1794622Y1849007*
X1794593Y1848997*
X1791022*
X1790992Y1849007*
X1790967Y1849025*
X1790948Y1849051*
X1790939Y1849080*
Y1853131*
X1789757*
Y1849080*
X1789747Y1849051*
X1789729Y1849025*
X1789704Y1849007*
X1789674Y1848997*
X1786100*
X1786070Y1849007*
X1786045Y1849025*
X1786027Y1849051*
X1786017Y1849080*
Y1853131*
X1784639*
Y1849080*
X1784629Y1849051*
X1784611Y1849025*
X1784586Y1849007*
X1784556Y1848997*
X1783850*
Y1832856*
X1783859D02*
Y1848997D01*
X1783957Y1832856D02*
Y1848997D01*
X1784055Y1832856D02*
Y1848997D01*
X1784154Y1832856D02*
Y1848997D01*
X1784252Y1832856D02*
Y1848997D01*
X1784350Y1832856D02*
Y1848997D01*
X1784449Y1832856D02*
Y1848997D01*
X1784547Y1832856D02*
Y1848997D01*
X1784645Y1832856D02*
Y1853131D01*
X1784744Y1832856D02*
Y1853131D01*
X1784842Y1832856D02*
Y1853131D01*
X1784940Y1832856D02*
Y1853131D01*
X1785039Y1832856D02*
Y1853131D01*
X1785137Y1832856D02*
Y1853131D01*
X1785235Y1832856D02*
Y1853131D01*
X1785334Y1832856D02*
Y1853131D01*
X1785432Y1832856D02*
Y1853131D01*
X1785530Y1832856D02*
Y1853131D01*
X1785629Y1832856D02*
Y1853131D01*
X1785727Y1832856D02*
Y1853131D01*
X1785825Y1832856D02*
Y1853131D01*
X1785924Y1832856D02*
Y1853131D01*
X1786022Y1832856D02*
Y1849065D01*
X1786120Y1832856D02*
Y1848997D01*
X1786219Y1832856D02*
Y1848997D01*
X1786317Y1832856D02*
Y1848997D01*
X1786415Y1832856D02*
Y1848997D01*
X1786514Y1832856D02*
Y1848997D01*
X1786612Y1832856D02*
Y1848997D01*
X1786710Y1832856D02*
Y1848997D01*
X1786809Y1832856D02*
Y1848997D01*
X1786907Y1832856D02*
Y1848997D01*
X1787005Y1832856D02*
Y1848997D01*
X1787104Y1832856D02*
Y1848997D01*
X1787202Y1832856D02*
Y1848997D01*
X1787300Y1832856D02*
Y1848997D01*
X1787399Y1832856D02*
Y1848997D01*
X1787497Y1832856D02*
Y1848997D01*
X1787595Y1832856D02*
Y1848997D01*
X1787694Y1832856D02*
Y1848997D01*
X1787792Y1832856D02*
Y1848997D01*
X1787890Y1832856D02*
Y1848997D01*
X1787989Y1832856D02*
Y1848997D01*
X1788087Y1832856D02*
Y1848997D01*
X1788185Y1832856D02*
Y1848997D01*
X1788284Y1832856D02*
Y1848997D01*
X1788382Y1832856D02*
Y1848997D01*
X1788480Y1832856D02*
Y1848997D01*
X1788579Y1832856D02*
Y1848997D01*
X1788677Y1832856D02*
Y1848997D01*
X1788775Y1832856D02*
Y1848997D01*
X1788874Y1832856D02*
Y1848997D01*
X1788972Y1832856D02*
Y1848997D01*
X1789070Y1832856D02*
Y1848997D01*
X1789169Y1832856D02*
Y1848997D01*
X1789267Y1832856D02*
Y1848997D01*
X1789365Y1832856D02*
Y1848997D01*
X1789464Y1832856D02*
Y1848997D01*
X1789562Y1832856D02*
Y1848997D01*
X1789660Y1832856D02*
Y1848997D01*
X1789759Y1832856D02*
Y1853131D01*
X1789857Y1832856D02*
Y1853131D01*
X1789955Y1832856D02*
Y1853131D01*
X1790054Y1832856D02*
Y1853131D01*
X1790152Y1832856D02*
Y1853131D01*
X1790250Y1832856D02*
Y1853131D01*
X1790349Y1832856D02*
Y1853131D01*
X1790447Y1832856D02*
Y1853131D01*
X1790545Y1832856D02*
Y1853131D01*
X1790644Y1832856D02*
Y1853131D01*
X1790742Y1832856D02*
Y1853131D01*
X1790840Y1832856D02*
Y1853131D01*
X1790939Y1832856D02*
Y1849080D01*
X1791037Y1832856D02*
Y1848997D01*
X1791135Y1832856D02*
Y1848997D01*
X1791234Y1832856D02*
Y1848997D01*
X1791332Y1832856D02*
Y1848997D01*
X1791430Y1832856D02*
Y1848997D01*
X1791529Y1832856D02*
Y1848997D01*
X1791627Y1832856D02*
Y1848997D01*
X1791725Y1832856D02*
Y1848997D01*
X1791824Y1832856D02*
Y1848997D01*
X1791922Y1832856D02*
Y1848997D01*
X1792020Y1832856D02*
Y1848997D01*
X1792119Y1832856D02*
Y1848997D01*
X1792217Y1832856D02*
Y1848997D01*
X1792315Y1832856D02*
Y1848997D01*
X1792414Y1832856D02*
Y1848997D01*
X1792512Y1832856D02*
Y1848997D01*
X1792610Y1832856D02*
Y1848997D01*
X1792709Y1832856D02*
Y1848997D01*
X1792807Y1832856D02*
Y1848997D01*
X1792905Y1832856D02*
Y1848997D01*
X1793004Y1832856D02*
Y1848997D01*
X1793102Y1832856D02*
Y1848997D01*
X1793200Y1832856D02*
Y1848997D01*
X1793299Y1832856D02*
Y1848997D01*
X1793397Y1832856D02*
Y1848997D01*
X1793495Y1832856D02*
Y1848997D01*
X1793594Y1832856D02*
Y1848997D01*
X1793692Y1832856D02*
Y1848997D01*
X1793790Y1832856D02*
Y1848997D01*
X1793889Y1832856D02*
Y1848997D01*
X1793987Y1832856D02*
Y1848997D01*
X1794085Y1832856D02*
Y1848997D01*
X1794184Y1832856D02*
Y1848997D01*
X1794282Y1832856D02*
Y1848997D01*
X1794380Y1832856D02*
Y1848997D01*
X1794479Y1832856D02*
Y1848997D01*
X1794577Y1832856D02*
Y1848997D01*
X1794675Y1832856D02*
Y1853131D01*
X1794774Y1832856D02*
Y1853131D01*
X1794872Y1832856D02*
Y1853131D01*
X1794970Y1832856D02*
Y1853131D01*
X1795069Y1832856D02*
Y1853131D01*
X1795167Y1832856D02*
Y1853131D01*
X1795265Y1832856D02*
Y1853131D01*
X1795364Y1832856D02*
Y1853131D01*
X1795462Y1832856D02*
Y1853131D01*
X1795560Y1832856D02*
Y1853131D01*
X1795659Y1832856D02*
Y1853131D01*
X1795757Y1832856D02*
Y1853131D01*
X1795855Y1832856D02*
Y1853131D01*
X1795954Y1832856D02*
Y1853131D01*
X1796052Y1832856D02*
Y1853131D01*
X1796150Y1832856D02*
Y1848997D01*
X1796249Y1832856D02*
Y1848997D01*
X1796347Y1832856D02*
Y1848997D01*
X1796445Y1832856D02*
Y1848997D01*
X1796544Y1832856D02*
Y1848997D01*
X1796642Y1832856D02*
Y1848997D01*
X1796740Y1832856D02*
Y1848997D01*
X1796839Y1832856D02*
Y1848997D01*
X1796937Y1832856D02*
Y1848997D01*
X1797035Y1832856D02*
Y1848997D01*
X1797134Y1832856D02*
Y1848997D01*
X1797232Y1832856D02*
Y1848997D01*
X1797330Y1832856D02*
Y1848997D01*
X1797429Y1832856D02*
Y1848997D01*
X1797527Y1832856D02*
Y1848997D01*
X1797625Y1832856D02*
Y1848997D01*
X1797724Y1832856D02*
Y1848997D01*
X1797822Y1832856D02*
Y1848997D01*
X1797920Y1832856D02*
Y1848997D01*
X1798019Y1832856D02*
Y1848997D01*
X1798117Y1832856D02*
Y1848997D01*
X1798215Y1832856D02*
Y1848997D01*
X1798314Y1832856D02*
Y1848997D01*
X1798412Y1832856D02*
Y1848997D01*
X1798510Y1832856D02*
Y1848997D01*
X1798609Y1832856D02*
Y1848997D01*
X1798707Y1832856D02*
Y1848997D01*
X1798805Y1832856D02*
Y1848997D01*
X1798904Y1832856D02*
Y1848997D01*
X1799002Y1832856D02*
Y1848997D01*
X1799100Y1832856D02*
Y1848997D01*
X1799199Y1832856D02*
Y1848997D01*
X1799297Y1832856D02*
Y1848997D01*
X1799395Y1832856D02*
Y1848997D01*
X1799494Y1832856D02*
Y1848997D01*
X1799592Y1832856D02*
Y1849065D01*
X1799690Y1832856D02*
Y1853131D01*
X1799789Y1832856D02*
Y1853131D01*
X1799887Y1832856D02*
Y1853131D01*
X1799985Y1832856D02*
Y1853131D01*
X1800084Y1832856D02*
Y1853131D01*
X1800182Y1832856D02*
Y1853131D01*
X1800280Y1832856D02*
Y1853131D01*
X1800379Y1832856D02*
Y1853131D01*
X1800477Y1832856D02*
Y1853131D01*
X1800575Y1832856D02*
Y1853131D01*
X1800674Y1832856D02*
Y1853131D01*
X1800772Y1832856D02*
Y1853131D01*
X1800870Y1832856D02*
Y1853131D01*
X1800969Y1832856D02*
Y1849814D01*
X1801067Y1832856D02*
Y1848997D01*
X1801165Y1832856D02*
Y1848997D01*
X1801264Y1832856D02*
Y1848997D01*
X1801362Y1832856D02*
Y1848997D01*
X1801460Y1832856D02*
Y1848997D01*
X1801559Y1832856D02*
Y1848997D01*
X1801657Y1832856D02*
Y1848997D01*
X1801755Y1832856D02*
Y1848997D01*
X1807472Y1832856D02*
X1825386D01*
Y1848997*
X1824680*
X1824651Y1849007*
X1824626Y1849025*
X1824607Y1849050*
X1824598Y1849079*
X1824560Y1853131*
X1823219*
Y1849080*
X1823210Y1849051*
X1823191Y1849025*
X1823166Y1849007*
X1823136Y1848997*
X1819759*
X1819729Y1849007*
X1819704Y1849025*
X1819685Y1849051*
X1819676Y1849080*
Y1853131*
X1818297*
Y1849080*
X1818288Y1849051*
X1818270Y1849025*
X1818244Y1849007*
X1818215Y1848997*
X1814644*
X1814614Y1849007*
X1814589Y1849025*
X1814570Y1849051*
X1814561Y1849080*
Y1853131*
X1813379*
Y1849080*
X1813370Y1849051*
X1813351Y1849025*
X1813326Y1849007*
X1813296Y1848997*
X1809722*
X1809692Y1849007*
X1809667Y1849025*
X1809649Y1849051*
X1809639Y1849080*
Y1853131*
X1808261*
Y1849080*
X1808251Y1849051*
X1808233Y1849025*
X1808208Y1849007*
X1808178Y1848997*
X1807472*
Y1832856*
X1807481D02*
Y1848997D01*
X1807579Y1832856D02*
Y1848997D01*
X1807677Y1832856D02*
Y1848997D01*
X1807776Y1832856D02*
Y1848997D01*
X1807874Y1832856D02*
Y1848997D01*
X1807972Y1832856D02*
Y1848997D01*
X1808071Y1832856D02*
Y1848997D01*
X1808169Y1832856D02*
Y1848997D01*
X1808267Y1832856D02*
Y1853131D01*
X1808366Y1832856D02*
Y1853131D01*
X1808464Y1832856D02*
Y1853131D01*
X1808562Y1832856D02*
Y1853131D01*
X1808661Y1832856D02*
Y1853131D01*
X1808759Y1832856D02*
Y1853131D01*
X1808857Y1832856D02*
Y1853131D01*
X1808956Y1832856D02*
Y1853131D01*
X1809054Y1832856D02*
Y1853131D01*
X1809152Y1832856D02*
Y1853131D01*
X1809251Y1832856D02*
Y1853131D01*
X1809349Y1832856D02*
Y1853131D01*
X1809447Y1832856D02*
Y1853131D01*
X1809546Y1832856D02*
Y1853131D01*
X1809644Y1832856D02*
Y1849065D01*
X1809742Y1832856D02*
Y1848997D01*
X1809841Y1832856D02*
Y1848997D01*
X1809939Y1832856D02*
Y1848997D01*
X1810037Y1832856D02*
Y1848997D01*
X1810136Y1832856D02*
Y1848997D01*
X1810234Y1832856D02*
Y1848997D01*
X1810332Y1832856D02*
Y1848997D01*
X1810431Y1832856D02*
Y1848997D01*
X1810529Y1832856D02*
Y1848997D01*
X1810627Y1832856D02*
Y1848997D01*
X1810726Y1832856D02*
Y1848997D01*
X1810824Y1832856D02*
Y1848997D01*
X1810922Y1832856D02*
Y1848997D01*
X1811021Y1832856D02*
Y1848997D01*
X1811119Y1832856D02*
Y1848997D01*
X1811217Y1832856D02*
Y1848997D01*
X1811316Y1832856D02*
Y1848997D01*
X1811414Y1832856D02*
Y1848997D01*
X1811512Y1832856D02*
Y1848997D01*
X1811611Y1832856D02*
Y1848997D01*
X1811709Y1832856D02*
Y1848997D01*
X1811807Y1832856D02*
Y1848997D01*
X1811906Y1832856D02*
Y1848997D01*
X1812004Y1832856D02*
Y1848997D01*
X1812102Y1832856D02*
Y1848997D01*
X1812201Y1832856D02*
Y1848997D01*
X1812299Y1832856D02*
Y1848997D01*
X1812397Y1832856D02*
Y1848997D01*
X1812496Y1832856D02*
Y1848997D01*
X1812594Y1832856D02*
Y1848997D01*
X1812692Y1832856D02*
Y1848997D01*
X1812791Y1832856D02*
Y1848997D01*
X1812889Y1832856D02*
Y1848997D01*
X1812987Y1832856D02*
Y1848997D01*
X1813086Y1832856D02*
Y1848997D01*
X1813184Y1832856D02*
Y1848997D01*
X1813282Y1832856D02*
Y1848997D01*
X1813381Y1832856D02*
Y1853131D01*
X1813479Y1832856D02*
Y1853131D01*
X1813577Y1832856D02*
Y1853131D01*
X1813676Y1832856D02*
Y1853131D01*
X1813774Y1832856D02*
Y1853131D01*
X1813872Y1832856D02*
Y1853131D01*
X1813971Y1832856D02*
Y1853131D01*
X1814069Y1832856D02*
Y1853131D01*
X1814167Y1832856D02*
Y1853131D01*
X1814266Y1832856D02*
Y1853131D01*
X1814364Y1832856D02*
Y1853131D01*
X1814462Y1832856D02*
Y1853131D01*
X1814561Y1832856D02*
Y1849080D01*
X1814659Y1832856D02*
Y1848997D01*
X1814757Y1832856D02*
Y1848997D01*
X1814856Y1832856D02*
Y1848997D01*
X1814954Y1832856D02*
Y1848997D01*
X1815052Y1832856D02*
Y1848997D01*
X1815151Y1832856D02*
Y1848997D01*
X1815249Y1832856D02*
Y1848997D01*
X1815347Y1832856D02*
Y1848997D01*
X1815446Y1832856D02*
Y1848997D01*
X1815544Y1832856D02*
Y1848997D01*
X1815642Y1832856D02*
Y1848997D01*
X1815741Y1832856D02*
Y1848997D01*
X1815839Y1832856D02*
Y1848997D01*
X1815937Y1832856D02*
Y1848997D01*
X1816036Y1832856D02*
Y1848997D01*
X1816134Y1832856D02*
Y1848997D01*
X1816232Y1832856D02*
Y1848997D01*
X1816331Y1832856D02*
Y1848997D01*
X1816429Y1832856D02*
Y1848997D01*
X1816527Y1832856D02*
Y1848997D01*
X1816626Y1832856D02*
Y1848997D01*
X1816724Y1832856D02*
Y1848997D01*
X1816822Y1832856D02*
Y1848997D01*
X1816921Y1832856D02*
Y1848997D01*
X1817019Y1832856D02*
Y1848997D01*
X1817117Y1832856D02*
Y1848997D01*
X1817216Y1832856D02*
Y1848997D01*
X1817314Y1832856D02*
Y1848997D01*
X1817412Y1832856D02*
Y1848997D01*
X1817511Y1832856D02*
Y1848997D01*
X1817609Y1832856D02*
Y1848997D01*
X1817707Y1832856D02*
Y1848997D01*
X1817806Y1832856D02*
Y1848997D01*
X1817904Y1832856D02*
Y1848997D01*
X1818002Y1832856D02*
Y1848997D01*
X1818101Y1832856D02*
Y1848997D01*
X1818199Y1832856D02*
Y1848997D01*
X1818297Y1832856D02*
Y1853131D01*
X1818396Y1832856D02*
Y1853131D01*
X1818494Y1832856D02*
Y1853131D01*
X1818592Y1832856D02*
Y1853131D01*
X1818691Y1832856D02*
Y1853131D01*
X1818789Y1832856D02*
Y1853131D01*
X1818887Y1832856D02*
Y1853131D01*
X1818986Y1832856D02*
Y1853131D01*
X1819084Y1832856D02*
Y1853131D01*
X1819182Y1832856D02*
Y1853131D01*
X1819281Y1832856D02*
Y1853131D01*
X1819379Y1832856D02*
Y1853131D01*
X1819477Y1832856D02*
Y1853131D01*
X1819576Y1832856D02*
Y1853131D01*
X1819674Y1832856D02*
Y1853131D01*
X1819772Y1832856D02*
Y1848997D01*
X1819871Y1832856D02*
Y1848997D01*
X1819969Y1832856D02*
Y1848997D01*
X1820067Y1832856D02*
Y1848997D01*
X1820166Y1832856D02*
Y1848997D01*
X1820264Y1832856D02*
Y1848997D01*
X1820362Y1832856D02*
Y1848997D01*
X1820461Y1832856D02*
Y1848997D01*
X1820559Y1832856D02*
Y1848997D01*
X1820657Y1832856D02*
Y1848997D01*
X1820756Y1832856D02*
Y1848997D01*
X1820854Y1832856D02*
Y1848997D01*
X1820952Y1832856D02*
Y1848997D01*
X1821051Y1832856D02*
Y1848997D01*
X1821149Y1832856D02*
Y1848997D01*
X1821247Y1832856D02*
Y1848997D01*
X1821346Y1832856D02*
Y1848997D01*
X1821444Y1832856D02*
Y1848997D01*
X1821542Y1832856D02*
Y1848997D01*
X1821641Y1832856D02*
Y1848997D01*
X1821739Y1832856D02*
Y1848997D01*
X1821837Y1832856D02*
Y1848997D01*
X1821936Y1832856D02*
Y1848997D01*
X1822034Y1832856D02*
Y1848997D01*
X1822132Y1832856D02*
Y1848997D01*
X1822231Y1832856D02*
Y1848997D01*
X1822329Y1832856D02*
Y1848997D01*
X1822427Y1832856D02*
Y1848997D01*
X1822526Y1832856D02*
Y1848997D01*
X1822624Y1832856D02*
Y1848997D01*
X1822722Y1832856D02*
Y1848997D01*
X1822821Y1832856D02*
Y1848997D01*
X1822919Y1832856D02*
Y1848997D01*
X1823017Y1832856D02*
Y1848997D01*
X1823116Y1832856D02*
Y1848997D01*
X1823214Y1832856D02*
Y1849065D01*
X1823312Y1832856D02*
Y1853131D01*
X1823411Y1832856D02*
Y1853131D01*
X1823509Y1832856D02*
Y1853131D01*
X1823607Y1832856D02*
Y1853131D01*
X1823706Y1832856D02*
Y1853131D01*
X1823804Y1832856D02*
Y1853131D01*
X1823902Y1832856D02*
Y1853131D01*
X1824001Y1832856D02*
Y1853131D01*
X1824099Y1832856D02*
Y1853131D01*
X1824197Y1832856D02*
Y1853131D01*
X1824296Y1832856D02*
Y1853131D01*
X1824394Y1832856D02*
Y1853131D01*
X1824492Y1832856D02*
Y1853131D01*
X1824591Y1832856D02*
Y1849814D01*
X1824689Y1832856D02*
Y1848997D01*
X1824787Y1832856D02*
Y1848997D01*
X1824886Y1832856D02*
Y1848997D01*
X1824984Y1832856D02*
Y1848997D01*
X1825082Y1832856D02*
Y1848997D01*
X1825181Y1832856D02*
Y1848997D01*
X1825279Y1832856D02*
Y1848997D01*
X1825377Y1832856D02*
Y1848997D01*
X1758260Y1781675D02*
X1776173D01*
Y1797816*
X1775468*
X1775438Y1797826*
X1775413Y1797844*
X1775395Y1797869*
X1775385Y1797898*
X1775347Y1801950*
X1774007*
Y1797899*
X1773997Y1797870*
X1773979Y1797844*
X1773953Y1797826*
X1773924Y1797816*
X1770546*
X1770516Y1797826*
X1770491Y1797844*
X1770473Y1797870*
X1770463Y1797899*
Y1801950*
X1769085*
Y1797899*
X1769075Y1797870*
X1769057Y1797844*
X1769032Y1797826*
X1769002Y1797816*
X1765431*
X1765401Y1797826*
X1765376Y1797844*
X1765358Y1797870*
X1765348Y1797899*
Y1801950*
X1764167*
Y1797899*
X1764157Y1797870*
X1764139Y1797844*
X1764113Y1797826*
X1764084Y1797816*
X1760509*
X1760480Y1797826*
X1760454Y1797844*
X1760436Y1797870*
X1760427Y1797899*
Y1801950*
X1759048*
Y1797899*
X1759039Y1797870*
X1759020Y1797844*
X1758995Y1797826*
X1758965Y1797816*
X1758260*
Y1781675*
X1758268D02*
Y1797816D01*
X1758367Y1781675D02*
Y1797816D01*
X1758465Y1781675D02*
Y1797816D01*
X1758563Y1781675D02*
Y1797816D01*
X1758662Y1781675D02*
Y1797816D01*
X1758760Y1781675D02*
Y1797816D01*
X1758858Y1781675D02*
Y1797816D01*
X1758957Y1781675D02*
Y1797816D01*
X1759055Y1781675D02*
Y1801950D01*
X1759153Y1781675D02*
Y1801950D01*
X1759252Y1781675D02*
Y1801950D01*
X1759350Y1781675D02*
Y1801950D01*
X1759448Y1781675D02*
Y1801950D01*
X1759547Y1781675D02*
Y1801950D01*
X1759645Y1781675D02*
Y1801950D01*
X1759743Y1781675D02*
Y1801950D01*
X1759842Y1781675D02*
Y1801950D01*
X1759940Y1781675D02*
Y1801950D01*
X1760038Y1781675D02*
Y1801950D01*
X1760137Y1781675D02*
Y1801950D01*
X1760235Y1781675D02*
Y1801950D01*
X1760333Y1781675D02*
Y1801950D01*
X1760432Y1781675D02*
Y1797884D01*
X1760530Y1781675D02*
Y1797816D01*
X1760628Y1781675D02*
Y1797816D01*
X1760727Y1781675D02*
Y1797816D01*
X1760825Y1781675D02*
Y1797816D01*
X1760923Y1781675D02*
Y1797816D01*
X1761022Y1781675D02*
Y1797816D01*
X1761120Y1781675D02*
Y1797816D01*
X1761218Y1781675D02*
Y1797816D01*
X1761317Y1781675D02*
Y1797816D01*
X1761415Y1781675D02*
Y1797816D01*
X1761513Y1781675D02*
Y1797816D01*
X1761612Y1781675D02*
Y1797816D01*
X1761710Y1781675D02*
Y1797816D01*
X1761808Y1781675D02*
Y1797816D01*
X1761907Y1781675D02*
Y1797816D01*
X1762005Y1781675D02*
Y1797816D01*
X1762103Y1781675D02*
Y1797816D01*
X1762202Y1781675D02*
Y1797816D01*
X1762300Y1781675D02*
Y1797816D01*
X1762398Y1781675D02*
Y1797816D01*
X1762497Y1781675D02*
Y1797816D01*
X1762595Y1781675D02*
Y1797816D01*
X1762693Y1781675D02*
Y1797816D01*
X1762792Y1781675D02*
Y1797816D01*
X1762890Y1781675D02*
Y1797816D01*
X1762988Y1781675D02*
Y1797816D01*
X1763087Y1781675D02*
Y1797816D01*
X1763185Y1781675D02*
Y1797816D01*
X1763283Y1781675D02*
Y1797816D01*
X1763382Y1781675D02*
Y1797816D01*
X1763480Y1781675D02*
Y1797816D01*
X1763578Y1781675D02*
Y1797816D01*
X1763677Y1781675D02*
Y1797816D01*
X1763775Y1781675D02*
Y1797816D01*
X1763873Y1781675D02*
Y1797816D01*
X1763972Y1781675D02*
Y1797816D01*
X1764070Y1781675D02*
Y1797816D01*
X1764168Y1781675D02*
Y1801950D01*
X1764267Y1781675D02*
Y1801950D01*
X1764365Y1781675D02*
Y1801950D01*
X1764463Y1781675D02*
Y1801950D01*
X1764562Y1781675D02*
Y1801950D01*
X1764660Y1781675D02*
Y1801950D01*
X1764758Y1781675D02*
Y1801950D01*
X1764857Y1781675D02*
Y1801950D01*
X1764955Y1781675D02*
Y1801950D01*
X1765053Y1781675D02*
Y1801950D01*
X1765152Y1781675D02*
Y1801950D01*
X1765250Y1781675D02*
Y1801950D01*
X1765348Y1781675D02*
Y1797899D01*
X1765447Y1781675D02*
Y1797816D01*
X1765545Y1781675D02*
Y1797816D01*
X1765643Y1781675D02*
Y1797816D01*
X1765742Y1781675D02*
Y1797816D01*
X1765840Y1781675D02*
Y1797816D01*
X1765938Y1781675D02*
Y1797816D01*
X1766037Y1781675D02*
Y1797816D01*
X1766135Y1781675D02*
Y1797816D01*
X1766233Y1781675D02*
Y1797816D01*
X1766332Y1781675D02*
Y1797816D01*
X1766430Y1781675D02*
Y1797816D01*
X1766528Y1781675D02*
Y1797816D01*
X1766627Y1781675D02*
Y1797816D01*
X1766725Y1781675D02*
Y1797816D01*
X1766823Y1781675D02*
Y1797816D01*
X1766922Y1781675D02*
Y1797816D01*
X1767020Y1781675D02*
Y1797816D01*
X1767118Y1781675D02*
Y1797816D01*
X1767217Y1781675D02*
Y1797816D01*
X1767315Y1781675D02*
Y1797816D01*
X1767413Y1781675D02*
Y1797816D01*
X1767512Y1781675D02*
Y1797816D01*
X1767610Y1781675D02*
Y1797816D01*
X1767708Y1781675D02*
Y1797816D01*
X1767807Y1781675D02*
Y1797816D01*
X1767905Y1781675D02*
Y1797816D01*
X1768003Y1781675D02*
Y1797816D01*
X1768102Y1781675D02*
Y1797816D01*
X1768200Y1781675D02*
Y1797816D01*
X1768298Y1781675D02*
Y1797816D01*
X1768397Y1781675D02*
Y1797816D01*
X1768495Y1781675D02*
Y1797816D01*
X1768593Y1781675D02*
Y1797816D01*
X1768692Y1781675D02*
Y1797816D01*
X1768790Y1781675D02*
Y1797816D01*
X1768888Y1781675D02*
Y1797816D01*
X1768987Y1781675D02*
Y1797816D01*
X1769085Y1781675D02*
Y1801950D01*
X1769183Y1781675D02*
Y1801950D01*
X1769282Y1781675D02*
Y1801950D01*
X1769380Y1781675D02*
Y1801950D01*
X1769478Y1781675D02*
Y1801950D01*
X1769577Y1781675D02*
Y1801950D01*
X1769675Y1781675D02*
Y1801950D01*
X1769773Y1781675D02*
Y1801950D01*
X1769872Y1781675D02*
Y1801950D01*
X1769970Y1781675D02*
Y1801950D01*
X1770068Y1781675D02*
Y1801950D01*
X1770167Y1781675D02*
Y1801950D01*
X1770265Y1781675D02*
Y1801950D01*
X1770363Y1781675D02*
Y1801950D01*
X1770462Y1781675D02*
Y1801950D01*
X1770560Y1781675D02*
Y1797816D01*
X1770658Y1781675D02*
Y1797816D01*
X1770757Y1781675D02*
Y1797816D01*
X1770855Y1781675D02*
Y1797816D01*
X1770953Y1781675D02*
Y1797816D01*
X1771052Y1781675D02*
Y1797816D01*
X1771150Y1781675D02*
Y1797816D01*
X1771248Y1781675D02*
Y1797816D01*
X1771347Y1781675D02*
Y1797816D01*
X1771445Y1781675D02*
Y1797816D01*
X1771543Y1781675D02*
Y1797816D01*
X1771642Y1781675D02*
Y1797816D01*
X1771740Y1781675D02*
Y1797816D01*
X1771838Y1781675D02*
Y1797816D01*
X1771937Y1781675D02*
Y1797816D01*
X1772035Y1781675D02*
Y1797816D01*
X1772133Y1781675D02*
Y1797816D01*
X1772232Y1781675D02*
Y1797816D01*
X1772330Y1781675D02*
Y1797816D01*
X1772428Y1781675D02*
Y1797816D01*
X1772527Y1781675D02*
Y1797816D01*
X1772625Y1781675D02*
Y1797816D01*
X1772723Y1781675D02*
Y1797816D01*
X1772822Y1781675D02*
Y1797816D01*
X1772920Y1781675D02*
Y1797816D01*
X1773018Y1781675D02*
Y1797816D01*
X1773117Y1781675D02*
Y1797816D01*
X1773215Y1781675D02*
Y1797816D01*
X1773313Y1781675D02*
Y1797816D01*
X1773412Y1781675D02*
Y1797816D01*
X1773510Y1781675D02*
Y1797816D01*
X1773608Y1781675D02*
Y1797816D01*
X1773707Y1781675D02*
Y1797816D01*
X1773805Y1781675D02*
Y1797816D01*
X1773903Y1781675D02*
Y1797816D01*
X1774002Y1781675D02*
Y1797884D01*
X1774100Y1781675D02*
Y1801950D01*
X1774198Y1781675D02*
Y1801950D01*
X1774297Y1781675D02*
Y1801950D01*
X1774395Y1781675D02*
Y1801950D01*
X1774493Y1781675D02*
Y1801950D01*
X1774592Y1781675D02*
Y1801950D01*
X1774690Y1781675D02*
Y1801950D01*
X1774788Y1781675D02*
Y1801950D01*
X1774887Y1781675D02*
Y1801950D01*
X1774985Y1781675D02*
Y1801950D01*
X1775083Y1781675D02*
Y1801950D01*
X1775182Y1781675D02*
Y1801950D01*
X1775280Y1781675D02*
Y1801950D01*
X1775378Y1781675D02*
Y1798633D01*
X1775477Y1781675D02*
Y1797816D01*
X1775575Y1781675D02*
Y1797816D01*
X1775673Y1781675D02*
Y1797816D01*
X1775772Y1781675D02*
Y1797816D01*
X1775870Y1781675D02*
Y1797816D01*
X1775968Y1781675D02*
Y1797816D01*
X1776067Y1781675D02*
Y1797816D01*
X1776165Y1781675D02*
Y1797816D01*
X1734638Y1781675D02*
X1752551D01*
Y1797816*
X1751846*
X1751816Y1797826*
X1751791Y1797844*
X1751773Y1797869*
X1751763Y1797898*
X1751725Y1801950*
X1750384*
Y1797899*
X1750375Y1797870*
X1750357Y1797844*
X1750331Y1797826*
X1750302Y1797816*
X1746924*
X1746894Y1797826*
X1746869Y1797844*
X1746851Y1797870*
X1746841Y1797899*
Y1801950*
X1745463*
Y1797899*
X1745453Y1797870*
X1745435Y1797844*
X1745410Y1797826*
X1745380Y1797816*
X1741809*
X1741779Y1797826*
X1741754Y1797844*
X1741736Y1797870*
X1741726Y1797899*
Y1801950*
X1740544*
Y1797899*
X1740535Y1797870*
X1740517Y1797844*
X1740491Y1797826*
X1740462Y1797816*
X1736887*
X1736858Y1797826*
X1736832Y1797844*
X1736814Y1797870*
X1736804Y1797899*
Y1801950*
X1735426*
Y1797899*
X1735417Y1797870*
X1735398Y1797844*
X1735373Y1797826*
X1735343Y1797816*
X1734638*
Y1781675*
X1734646D02*
Y1797816D01*
X1734744Y1781675D02*
Y1797816D01*
X1734843Y1781675D02*
Y1797816D01*
X1734941Y1781675D02*
Y1797816D01*
X1735039Y1781675D02*
Y1797816D01*
X1735138Y1781675D02*
Y1797816D01*
X1735236Y1781675D02*
Y1797816D01*
X1735334Y1781675D02*
Y1797816D01*
X1735433Y1781675D02*
Y1801950D01*
X1735531Y1781675D02*
Y1801950D01*
X1735629Y1781675D02*
Y1801950D01*
X1735728Y1781675D02*
Y1801950D01*
X1735826Y1781675D02*
Y1801950D01*
X1735924Y1781675D02*
Y1801950D01*
X1736023Y1781675D02*
Y1801950D01*
X1736121Y1781675D02*
Y1801950D01*
X1736219Y1781675D02*
Y1801950D01*
X1736318Y1781675D02*
Y1801950D01*
X1736416Y1781675D02*
Y1801950D01*
X1736514Y1781675D02*
Y1801950D01*
X1736613Y1781675D02*
Y1801950D01*
X1736711Y1781675D02*
Y1801950D01*
X1736809Y1781675D02*
Y1797884D01*
X1736908Y1781675D02*
Y1797816D01*
X1737006Y1781675D02*
Y1797816D01*
X1737104Y1781675D02*
Y1797816D01*
X1737203Y1781675D02*
Y1797816D01*
X1737301Y1781675D02*
Y1797816D01*
X1737399Y1781675D02*
Y1797816D01*
X1737498Y1781675D02*
Y1797816D01*
X1737596Y1781675D02*
Y1797816D01*
X1737694Y1781675D02*
Y1797816D01*
X1737793Y1781675D02*
Y1797816D01*
X1737891Y1781675D02*
Y1797816D01*
X1737989Y1781675D02*
Y1797816D01*
X1738088Y1781675D02*
Y1797816D01*
X1738186Y1781675D02*
Y1797816D01*
X1738284Y1781675D02*
Y1797816D01*
X1738383Y1781675D02*
Y1797816D01*
X1738481Y1781675D02*
Y1797816D01*
X1738579Y1781675D02*
Y1797816D01*
X1738678Y1781675D02*
Y1797816D01*
X1738776Y1781675D02*
Y1797816D01*
X1738874Y1781675D02*
Y1797816D01*
X1738973Y1781675D02*
Y1797816D01*
X1739071Y1781675D02*
Y1797816D01*
X1739169Y1781675D02*
Y1797816D01*
X1739268Y1781675D02*
Y1797816D01*
X1739366Y1781675D02*
Y1797816D01*
X1739464Y1781675D02*
Y1797816D01*
X1739563Y1781675D02*
Y1797816D01*
X1739661Y1781675D02*
Y1797816D01*
X1739759Y1781675D02*
Y1797816D01*
X1739858Y1781675D02*
Y1797816D01*
X1739956Y1781675D02*
Y1797816D01*
X1740054Y1781675D02*
Y1797816D01*
X1740153Y1781675D02*
Y1797816D01*
X1740251Y1781675D02*
Y1797816D01*
X1740349Y1781675D02*
Y1797816D01*
X1740448Y1781675D02*
Y1797816D01*
X1740546Y1781675D02*
Y1801950D01*
X1740644Y1781675D02*
Y1801950D01*
X1740743Y1781675D02*
Y1801950D01*
X1740841Y1781675D02*
Y1801950D01*
X1740939Y1781675D02*
Y1801950D01*
X1741038Y1781675D02*
Y1801950D01*
X1741136Y1781675D02*
Y1801950D01*
X1741234Y1781675D02*
Y1801950D01*
X1741333Y1781675D02*
Y1801950D01*
X1741431Y1781675D02*
Y1801950D01*
X1741529Y1781675D02*
Y1801950D01*
X1741628Y1781675D02*
Y1801950D01*
X1741726Y1781675D02*
Y1797899D01*
X1741824Y1781675D02*
Y1797816D01*
X1741923Y1781675D02*
Y1797816D01*
X1742021Y1781675D02*
Y1797816D01*
X1742119Y1781675D02*
Y1797816D01*
X1742218Y1781675D02*
Y1797816D01*
X1742316Y1781675D02*
Y1797816D01*
X1742414Y1781675D02*
Y1797816D01*
X1742513Y1781675D02*
Y1797816D01*
X1742611Y1781675D02*
Y1797816D01*
X1742709Y1781675D02*
Y1797816D01*
X1742808Y1781675D02*
Y1797816D01*
X1742906Y1781675D02*
Y1797816D01*
X1743004Y1781675D02*
Y1797816D01*
X1743103Y1781675D02*
Y1797816D01*
X1743201Y1781675D02*
Y1797816D01*
X1743299Y1781675D02*
Y1797816D01*
X1743398Y1781675D02*
Y1797816D01*
X1743496Y1781675D02*
Y1797816D01*
X1743594Y1781675D02*
Y1797816D01*
X1743693Y1781675D02*
Y1797816D01*
X1743791Y1781675D02*
Y1797816D01*
X1743889Y1781675D02*
Y1797816D01*
X1743988Y1781675D02*
Y1797816D01*
X1744086Y1781675D02*
Y1797816D01*
X1744184Y1781675D02*
Y1797816D01*
X1744283Y1781675D02*
Y1797816D01*
X1744381Y1781675D02*
Y1797816D01*
X1744479Y1781675D02*
Y1797816D01*
X1744578Y1781675D02*
Y1797816D01*
X1744676Y1781675D02*
Y1797816D01*
X1744774Y1781675D02*
Y1797816D01*
X1744873Y1781675D02*
Y1797816D01*
X1744971Y1781675D02*
Y1797816D01*
X1745069Y1781675D02*
Y1797816D01*
X1745168Y1781675D02*
Y1797816D01*
X1745266Y1781675D02*
Y1797816D01*
X1745364Y1781675D02*
Y1797816D01*
X1745463Y1781675D02*
Y1801950D01*
X1745561Y1781675D02*
Y1801950D01*
X1745659Y1781675D02*
Y1801950D01*
X1745758Y1781675D02*
Y1801950D01*
X1745856Y1781675D02*
Y1801950D01*
X1745954Y1781675D02*
Y1801950D01*
X1746053Y1781675D02*
Y1801950D01*
X1746151Y1781675D02*
Y1801950D01*
X1746249Y1781675D02*
Y1801950D01*
X1746348Y1781675D02*
Y1801950D01*
X1746446Y1781675D02*
Y1801950D01*
X1746544Y1781675D02*
Y1801950D01*
X1746643Y1781675D02*
Y1801950D01*
X1746741Y1781675D02*
Y1801950D01*
X1746839Y1781675D02*
Y1801950D01*
X1746938Y1781675D02*
Y1797816D01*
X1747036Y1781675D02*
Y1797816D01*
X1747134Y1781675D02*
Y1797816D01*
X1747233Y1781675D02*
Y1797816D01*
X1747331Y1781675D02*
Y1797816D01*
X1747429Y1781675D02*
Y1797816D01*
X1747528Y1781675D02*
Y1797816D01*
X1747626Y1781675D02*
Y1797816D01*
X1747724Y1781675D02*
Y1797816D01*
X1747823Y1781675D02*
Y1797816D01*
X1747921Y1781675D02*
Y1797816D01*
X1748019Y1781675D02*
Y1797816D01*
X1748118Y1781675D02*
Y1797816D01*
X1748216Y1781675D02*
Y1797816D01*
X1748314Y1781675D02*
Y1797816D01*
X1748413Y1781675D02*
Y1797816D01*
X1748511Y1781675D02*
Y1797816D01*
X1748609Y1781675D02*
Y1797816D01*
X1748708Y1781675D02*
Y1797816D01*
X1748806Y1781675D02*
Y1797816D01*
X1748904Y1781675D02*
Y1797816D01*
X1749003Y1781675D02*
Y1797816D01*
X1749101Y1781675D02*
Y1797816D01*
X1749199Y1781675D02*
Y1797816D01*
X1749298Y1781675D02*
Y1797816D01*
X1749396Y1781675D02*
Y1797816D01*
X1749494Y1781675D02*
Y1797816D01*
X1749593Y1781675D02*
Y1797816D01*
X1749691Y1781675D02*
Y1797816D01*
X1749789Y1781675D02*
Y1797816D01*
X1749888Y1781675D02*
Y1797816D01*
X1749986Y1781675D02*
Y1797816D01*
X1750084Y1781675D02*
Y1797816D01*
X1750183Y1781675D02*
Y1797816D01*
X1750281Y1781675D02*
Y1797816D01*
X1750379Y1781675D02*
Y1797884D01*
X1750478Y1781675D02*
Y1801950D01*
X1750576Y1781675D02*
Y1801950D01*
X1750674Y1781675D02*
Y1801950D01*
X1750773Y1781675D02*
Y1801950D01*
X1750871Y1781675D02*
Y1801950D01*
X1750969Y1781675D02*
Y1801950D01*
X1751068Y1781675D02*
Y1801950D01*
X1751166Y1781675D02*
Y1801950D01*
X1751264Y1781675D02*
Y1801950D01*
X1751363Y1781675D02*
Y1801950D01*
X1751461Y1781675D02*
Y1801950D01*
X1751559Y1781675D02*
Y1801950D01*
X1751658Y1781675D02*
Y1801950D01*
X1751756Y1781675D02*
Y1798633D01*
X1751854Y1781675D02*
Y1797816D01*
X1751953Y1781675D02*
Y1797816D01*
X1752051Y1781675D02*
Y1797816D01*
X1752149Y1781675D02*
Y1797816D01*
X1752248Y1781675D02*
Y1797816D01*
X1752346Y1781675D02*
Y1797816D01*
X1752444Y1781675D02*
Y1797816D01*
X1752543Y1781675D02*
Y1797816D01*
G54D205*
X2224697Y1440632D03*
X2004224D03*
Y1473703D03*
X2224697D03*
X1994776Y1515435D03*
Y1548506D03*
X2215248Y1515435D03*
Y1548506D03*
X2224697Y1590239D03*
Y1623309D03*
X2004224Y1590239D03*
Y1623309D03*
X1994776Y1665042D03*
Y1698113D03*
X2004224Y1772916D03*
Y1739845D03*
X2215248Y1665042D03*
Y1698113D03*
X2224697Y1739845D03*
Y1772916D03*
X1994776Y1847719D03*
Y1814648D03*
X2215248Y1847719D03*
Y1814648D03*
X2445169Y1440632D03*
Y1473703D03*
Y1590239D03*
Y1623309D03*
Y1739845D03*
Y1772916D03*
G54D206*
X1889264Y1756380D03*
Y1606774D03*
Y1457168D03*
X2109736D03*
Y1531971D03*
Y1606774D03*
Y1681577D03*
Y1756380D03*
Y1831183D03*
X2330209D03*
Y1756380D03*
Y1681577D03*
Y1606774D03*
Y1531971D03*
Y1457168D03*
G54D208*
X1785761Y1852877D02*
Y1848782D01*
X1790013*
Y1852877*
X1790683*
Y1848782*
X1794931*
Y1852877*
X1795800*
Y1848782*
X1799853*
Y1852877*
X1800681*
Y1848782*
X1801508*
Y1833113*
X1784068*
Y1848742*
X1784895*
Y1852877*
X1785761*
X1809383D02*
Y1848782D01*
X1813635*
Y1852877*
X1814305*
Y1848782*
X1818553*
Y1852877*
X1819422*
Y1848782*
X1823475*
Y1852877*
X1824303*
Y1848782*
X1825130*
Y1833113*
X1807690*
Y1848742*
X1808517*
Y1852877*
X1809383*
X1760171Y1801696D02*
Y1797601D01*
X1764422*
Y1801696*
X1765092*
Y1797601*
X1769341*
Y1801696*
X1770209*
Y1797601*
X1774262*
Y1801696*
X1775091*
Y1797601*
X1775917*
Y1781932*
X1758477*
Y1797561*
X1759304*
Y1801696*
X1760171*
X1736549D02*
Y1797601D01*
X1740800*
Y1801696*
X1741470*
Y1797601*
X1745719*
Y1801696*
X1746587*
Y1797601*
X1750640*
Y1801696*
X1751469*
Y1797601*
X1752295*
Y1781932*
X1734855*
Y1797561*
X1735682*
Y1801696*
X1736549*
X1784068Y1848612D02*
X1801508D01*
X1784068Y1848112D02*
X1801508D01*
X1784068Y1847612D02*
X1801508D01*
X1784068Y1847112D02*
X1801508D01*
X1784068Y1846612D02*
X1801508D01*
X1784068Y1846112D02*
X1801508D01*
X1784068Y1845612D02*
X1801508D01*
X1784068Y1845112D02*
X1801508D01*
X1784068Y1844612D02*
X1801508D01*
X1784068Y1844112D02*
X1801508D01*
X1784068Y1843612D02*
X1801508D01*
X1784068Y1843112D02*
X1801508D01*
X1784068Y1842612D02*
X1801508D01*
X1784068Y1842112D02*
X1801508D01*
X1784068Y1841612D02*
X1801508D01*
X1784068Y1841112D02*
X1801508D01*
X1784068Y1840612D02*
X1801508D01*
X1784068Y1840112D02*
X1801508D01*
X1784068Y1839612D02*
X1801508D01*
X1784068Y1839112D02*
X1801508D01*
X1784068Y1838612D02*
X1801508D01*
X1784068Y1838112D02*
X1801508D01*
X1784068Y1837612D02*
X1801508D01*
X1784068Y1837112D02*
X1801508D01*
X1784068Y1836612D02*
X1801508D01*
X1784068Y1836112D02*
X1801508D01*
X1784068Y1835612D02*
X1801508D01*
X1784068Y1835112D02*
X1801508D01*
X1784068Y1834612D02*
X1801508D01*
X1784068Y1834112D02*
X1801508D01*
X1784068Y1833612D02*
X1801508D01*
X1799853Y1852612D02*
X1800681D01*
X1799853Y1852112D02*
X1800681D01*
X1799853Y1851612D02*
X1800681D01*
X1799853Y1851112D02*
X1800681D01*
X1799853Y1850612D02*
X1800681D01*
X1799853Y1850112D02*
X1800681D01*
X1799853Y1849612D02*
X1800681D01*
X1799853Y1849112D02*
X1800681D01*
X1794931Y1852612D02*
X1795800D01*
X1794931Y1852112D02*
X1795800D01*
X1794931Y1851612D02*
X1795800D01*
X1794931Y1851112D02*
X1795800D01*
X1794931Y1850612D02*
X1795800D01*
X1794931Y1850112D02*
X1795800D01*
X1794931Y1849612D02*
X1795800D01*
X1794931Y1849112D02*
X1795800D01*
X1790013Y1852612D02*
X1790683D01*
X1790013Y1852112D02*
X1790683D01*
X1790013Y1851612D02*
X1790683D01*
X1790013Y1851112D02*
X1790683D01*
X1790013Y1850612D02*
X1790683D01*
X1790013Y1850112D02*
X1790683D01*
X1790013Y1849612D02*
X1790683D01*
X1790013Y1849112D02*
X1790683D01*
X1784895Y1852612D02*
X1785761D01*
X1784895Y1852112D02*
X1785761D01*
X1784895Y1851612D02*
X1785761D01*
X1784895Y1851112D02*
X1785761D01*
X1784895Y1850612D02*
X1785761D01*
X1784895Y1850112D02*
X1785761D01*
X1784895Y1849612D02*
X1785761D01*
X1784895Y1849112D02*
X1785761D01*
X1807690Y1848612D02*
X1825130D01*
X1807690Y1848112D02*
X1825130D01*
X1807690Y1847612D02*
X1825130D01*
X1807690Y1847112D02*
X1825130D01*
X1807690Y1846612D02*
X1825130D01*
X1807690Y1846112D02*
X1825130D01*
X1807690Y1845612D02*
X1825130D01*
X1807690Y1845112D02*
X1825130D01*
X1807690Y1844612D02*
X1825130D01*
X1807690Y1844112D02*
X1825130D01*
X1807690Y1843612D02*
X1825130D01*
X1807690Y1843112D02*
X1825130D01*
X1807690Y1842612D02*
X1825130D01*
X1807690Y1842112D02*
X1825130D01*
X1807690Y1841612D02*
X1825130D01*
X1807690Y1841112D02*
X1825130D01*
X1807690Y1840612D02*
X1825130D01*
X1807690Y1840112D02*
X1825130D01*
X1807690Y1839612D02*
X1825130D01*
X1807690Y1839112D02*
X1825130D01*
X1807690Y1838612D02*
X1825130D01*
X1807690Y1838112D02*
X1825130D01*
X1807690Y1837612D02*
X1825130D01*
X1807690Y1837112D02*
X1825130D01*
X1807690Y1836612D02*
X1825130D01*
X1807690Y1836112D02*
X1825130D01*
X1807690Y1835612D02*
X1825130D01*
X1807690Y1835112D02*
X1825130D01*
X1807690Y1834612D02*
X1825130D01*
X1807690Y1834112D02*
X1825130D01*
X1807690Y1833612D02*
X1825130D01*
X1823475Y1852612D02*
X1824303D01*
X1823475Y1852112D02*
X1824303D01*
X1823475Y1851612D02*
X1824303D01*
X1823475Y1851112D02*
X1824303D01*
X1823475Y1850612D02*
X1824303D01*
X1823475Y1850112D02*
X1824303D01*
X1823475Y1849612D02*
X1824303D01*
X1823475Y1849112D02*
X1824303D01*
X1818553Y1852612D02*
X1819422D01*
X1818553Y1852112D02*
X1819422D01*
X1818553Y1851612D02*
X1819422D01*
X1818553Y1851112D02*
X1819422D01*
X1818553Y1850612D02*
X1819422D01*
X1818553Y1850112D02*
X1819422D01*
X1818553Y1849612D02*
X1819422D01*
X1818553Y1849112D02*
X1819422D01*
X1813635Y1852612D02*
X1814305D01*
X1813635Y1852112D02*
X1814305D01*
X1813635Y1851612D02*
X1814305D01*
X1813635Y1851112D02*
X1814305D01*
X1813635Y1850612D02*
X1814305D01*
X1813635Y1850112D02*
X1814305D01*
X1813635Y1849612D02*
X1814305D01*
X1813635Y1849112D02*
X1814305D01*
X1808517Y1852612D02*
X1809383D01*
X1808517Y1852112D02*
X1809383D01*
X1808517Y1851612D02*
X1809383D01*
X1808517Y1851112D02*
X1809383D01*
X1808517Y1850612D02*
X1809383D01*
X1808517Y1850112D02*
X1809383D01*
X1808517Y1849612D02*
X1809383D01*
X1808517Y1849112D02*
X1809383D01*
X1758477Y1797431D02*
X1775917D01*
X1758477Y1796931D02*
X1775917D01*
X1758477Y1796431D02*
X1775917D01*
X1758477Y1795931D02*
X1775917D01*
X1758477Y1795431D02*
X1775917D01*
X1758477Y1794931D02*
X1775917D01*
X1758477Y1794431D02*
X1775917D01*
X1758477Y1793931D02*
X1775917D01*
X1758477Y1793431D02*
X1775917D01*
X1758477Y1792931D02*
X1775917D01*
X1758477Y1792431D02*
X1775917D01*
X1758477Y1791931D02*
X1775917D01*
X1758477Y1791431D02*
X1775917D01*
X1758477Y1790931D02*
X1775917D01*
X1758477Y1790431D02*
X1775917D01*
X1758477Y1789931D02*
X1775917D01*
X1758477Y1789431D02*
X1775917D01*
X1758477Y1788931D02*
X1775917D01*
X1758477Y1788431D02*
X1775917D01*
X1758477Y1787931D02*
X1775917D01*
X1758477Y1787431D02*
X1775917D01*
X1758477Y1786931D02*
X1775917D01*
X1758477Y1786431D02*
X1775917D01*
X1758477Y1785931D02*
X1775917D01*
X1758477Y1785431D02*
X1775917D01*
X1758477Y1784931D02*
X1775917D01*
X1758477Y1784431D02*
X1775917D01*
X1758477Y1783931D02*
X1775917D01*
X1758477Y1783431D02*
X1775917D01*
X1758477Y1782931D02*
X1775917D01*
X1758477Y1782431D02*
X1775917D01*
X1774262Y1801431D02*
X1775091D01*
X1774262Y1800931D02*
X1775091D01*
X1774262Y1800431D02*
X1775091D01*
X1774262Y1799931D02*
X1775091D01*
X1774262Y1799431D02*
X1775091D01*
X1774262Y1798931D02*
X1775091D01*
X1774262Y1798431D02*
X1775091D01*
X1774262Y1797931D02*
X1775091D01*
X1769341Y1801431D02*
X1770209D01*
X1769341Y1800931D02*
X1770209D01*
X1769341Y1800431D02*
X1770209D01*
X1769341Y1799931D02*
X1770209D01*
X1769341Y1799431D02*
X1770209D01*
X1769341Y1798931D02*
X1770209D01*
X1769341Y1798431D02*
X1770209D01*
X1769341Y1797931D02*
X1770209D01*
X1764422Y1801431D02*
X1765092D01*
X1764422Y1800931D02*
X1765092D01*
X1764422Y1800431D02*
X1765092D01*
X1764422Y1799931D02*
X1765092D01*
X1764422Y1799431D02*
X1765092D01*
X1764422Y1798931D02*
X1765092D01*
X1764422Y1798431D02*
X1765092D01*
X1764422Y1797931D02*
X1765092D01*
X1759304Y1801431D02*
X1760171D01*
X1759304Y1800931D02*
X1760171D01*
X1759304Y1800431D02*
X1760171D01*
X1759304Y1799931D02*
X1760171D01*
X1759304Y1799431D02*
X1760171D01*
X1759304Y1798931D02*
X1760171D01*
X1759304Y1798431D02*
X1760171D01*
X1759304Y1797931D02*
X1760171D01*
X1734855Y1797431D02*
X1752295D01*
X1734855Y1796931D02*
X1752295D01*
X1734855Y1796431D02*
X1752295D01*
X1734855Y1795931D02*
X1752295D01*
X1734855Y1795431D02*
X1752295D01*
X1734855Y1794931D02*
X1752295D01*
X1734855Y1794431D02*
X1752295D01*
X1734855Y1793931D02*
X1752295D01*
X1734855Y1793431D02*
X1752295D01*
X1734855Y1792931D02*
X1752295D01*
X1734855Y1792431D02*
X1752295D01*
X1734855Y1791931D02*
X1752295D01*
X1734855Y1791431D02*
X1752295D01*
X1734855Y1790931D02*
X1752295D01*
X1734855Y1790431D02*
X1752295D01*
X1734855Y1789931D02*
X1752295D01*
X1734855Y1789431D02*
X1752295D01*
X1734855Y1788931D02*
X1752295D01*
X1734855Y1788431D02*
X1752295D01*
X1734855Y1787931D02*
X1752295D01*
X1734855Y1787431D02*
X1752295D01*
X1734855Y1786931D02*
X1752295D01*
X1734855Y1786431D02*
X1752295D01*
X1734855Y1785931D02*
X1752295D01*
X1734855Y1785431D02*
X1752295D01*
X1734855Y1784931D02*
X1752295D01*
X1734855Y1784431D02*
X1752295D01*
X1734855Y1783931D02*
X1752295D01*
X1734855Y1783431D02*
X1752295D01*
X1734855Y1782931D02*
X1752295D01*
X1734855Y1782431D02*
X1752295D01*
X1750640Y1801431D02*
X1751469D01*
X1750640Y1800931D02*
X1751469D01*
X1750640Y1800431D02*
X1751469D01*
X1750640Y1799931D02*
X1751469D01*
X1750640Y1799431D02*
X1751469D01*
X1750640Y1798931D02*
X1751469D01*
X1750640Y1798431D02*
X1751469D01*
X1750640Y1797931D02*
X1751469D01*
X1745719Y1801431D02*
X1746587D01*
X1745719Y1800931D02*
X1746587D01*
X1745719Y1800431D02*
X1746587D01*
X1745719Y1799931D02*
X1746587D01*
X1745719Y1799431D02*
X1746587D01*
X1745719Y1798931D02*
X1746587D01*
X1745719Y1798431D02*
X1746587D01*
X1745719Y1797931D02*
X1746587D01*
X1740800Y1801431D02*
X1741470D01*
X1740800Y1800931D02*
X1741470D01*
X1740800Y1800431D02*
X1741470D01*
X1740800Y1799931D02*
X1741470D01*
X1740800Y1799431D02*
X1741470D01*
X1740800Y1798931D02*
X1741470D01*
X1740800Y1798431D02*
X1741470D01*
X1740800Y1797931D02*
X1741470D01*
X1735682Y1801431D02*
X1736549D01*
X1735682Y1800931D02*
X1736549D01*
X1735682Y1800431D02*
X1736549D01*
X1735682Y1799931D02*
X1736549D01*
X1735682Y1799431D02*
X1736549D01*
X1735682Y1798931D02*
X1736549D01*
X1735682Y1798431D02*
X1736549D01*
X1735682Y1797931D02*
X1736549D01*
X1801068Y1833113D02*
Y1848782D01*
X1800568Y1833113D02*
Y1852877D01*
X1800068Y1833113D02*
Y1852877D01*
X1799568Y1833113D02*
Y1848782D01*
X1799068Y1833113D02*
Y1848782D01*
X1798568Y1833113D02*
Y1848782D01*
X1798068Y1833113D02*
Y1848782D01*
X1797568Y1833113D02*
Y1848782D01*
X1797068Y1833113D02*
Y1848782D01*
X1796568Y1833113D02*
Y1848782D01*
X1796068Y1833113D02*
Y1848782D01*
X1795568Y1833113D02*
Y1852877D01*
X1795068Y1833113D02*
Y1852877D01*
X1794568Y1833113D02*
Y1848782D01*
X1794068Y1833113D02*
Y1848782D01*
X1793568Y1833113D02*
Y1848782D01*
X1793068Y1833113D02*
Y1848782D01*
X1792568Y1833113D02*
Y1848782D01*
X1792068Y1833113D02*
Y1848782D01*
X1791568Y1833113D02*
Y1848782D01*
X1791068Y1833113D02*
Y1848782D01*
X1790568Y1833113D02*
Y1852877D01*
X1790068Y1833113D02*
Y1852877D01*
X1789568Y1833113D02*
Y1848782D01*
X1789068Y1833113D02*
Y1848782D01*
X1788568Y1833113D02*
Y1848782D01*
X1788068Y1833113D02*
Y1848782D01*
X1787568Y1833113D02*
Y1848782D01*
X1787068Y1833113D02*
Y1848782D01*
X1786568Y1833113D02*
Y1848782D01*
X1786068Y1833113D02*
Y1848782D01*
X1785568Y1833113D02*
Y1852877D01*
X1785068Y1833113D02*
Y1852877D01*
X1784568Y1833113D02*
Y1848742D01*
X1824690Y1833113D02*
Y1848782D01*
X1824190Y1833113D02*
Y1852877D01*
X1823690Y1833113D02*
Y1852877D01*
X1823190Y1833113D02*
Y1848782D01*
X1822690Y1833113D02*
Y1848782D01*
X1822190Y1833113D02*
Y1848782D01*
X1821690Y1833113D02*
Y1848782D01*
X1821190Y1833113D02*
Y1848782D01*
X1820690Y1833113D02*
Y1848782D01*
X1820190Y1833113D02*
Y1848782D01*
X1819690Y1833113D02*
Y1848782D01*
X1819190Y1833113D02*
Y1852877D01*
X1818690Y1833113D02*
Y1852877D01*
X1818190Y1833113D02*
Y1848782D01*
X1817690Y1833113D02*
Y1848782D01*
X1817190Y1833113D02*
Y1848782D01*
X1816690Y1833113D02*
Y1848782D01*
X1816190Y1833113D02*
Y1848782D01*
X1815690Y1833113D02*
Y1848782D01*
X1815190Y1833113D02*
Y1848782D01*
X1814690Y1833113D02*
Y1848782D01*
X1814190Y1833113D02*
Y1852877D01*
X1813690Y1833113D02*
Y1852877D01*
X1813190Y1833113D02*
Y1848782D01*
X1812690Y1833113D02*
Y1848782D01*
X1812190Y1833113D02*
Y1848782D01*
X1811690Y1833113D02*
Y1848782D01*
X1811190Y1833113D02*
Y1848782D01*
X1810690Y1833113D02*
Y1848782D01*
X1810190Y1833113D02*
Y1848782D01*
X1809690Y1833113D02*
Y1848782D01*
X1809190Y1833113D02*
Y1852877D01*
X1808690Y1833113D02*
Y1852877D01*
X1808190Y1833113D02*
Y1848742D01*
X1775477Y1781932D02*
Y1797601D01*
X1774977Y1781932D02*
Y1801696D01*
X1774477Y1781932D02*
Y1801696D01*
X1773977Y1781932D02*
Y1797601D01*
X1773477Y1781932D02*
Y1797601D01*
X1772977Y1781932D02*
Y1797601D01*
X1772477Y1781932D02*
Y1797601D01*
X1771977Y1781932D02*
Y1797601D01*
X1771477Y1781932D02*
Y1797601D01*
X1770977Y1781932D02*
Y1797601D01*
X1770477Y1781932D02*
Y1797601D01*
X1769977Y1781932D02*
Y1801696D01*
X1769477Y1781932D02*
Y1801696D01*
X1768977Y1781932D02*
Y1797601D01*
X1768477Y1781932D02*
Y1797601D01*
X1767977Y1781932D02*
Y1797601D01*
X1767477Y1781932D02*
Y1797601D01*
X1766977Y1781932D02*
Y1797601D01*
X1766477Y1781932D02*
Y1797601D01*
X1765977Y1781932D02*
Y1797601D01*
X1765477Y1781932D02*
Y1797601D01*
X1764977Y1781932D02*
Y1801696D01*
X1764477Y1781932D02*
Y1801696D01*
X1763977Y1781932D02*
Y1797601D01*
X1763477Y1781932D02*
Y1797601D01*
X1762977Y1781932D02*
Y1797601D01*
X1762477Y1781932D02*
Y1797601D01*
X1761977Y1781932D02*
Y1797601D01*
X1761477Y1781932D02*
Y1797601D01*
X1760977Y1781932D02*
Y1797601D01*
X1760477Y1781932D02*
Y1797601D01*
X1759977Y1781932D02*
Y1801696D01*
X1759477Y1781932D02*
Y1801696D01*
X1758977Y1781932D02*
Y1797561D01*
X1751855Y1781932D02*
Y1797601D01*
X1751355Y1781932D02*
Y1801696D01*
X1750855Y1781932D02*
Y1801696D01*
X1750355Y1781932D02*
Y1797601D01*
X1749855Y1781932D02*
Y1797601D01*
X1749355Y1781932D02*
Y1797601D01*
X1748855Y1781932D02*
Y1797601D01*
X1748355Y1781932D02*
Y1797601D01*
X1747855Y1781932D02*
Y1797601D01*
X1747355Y1781932D02*
Y1797601D01*
X1746855Y1781932D02*
Y1797601D01*
X1746355Y1781932D02*
Y1801696D01*
X1745855Y1781932D02*
Y1801696D01*
X1745355Y1781932D02*
Y1797601D01*
X1744855Y1781932D02*
Y1797601D01*
X1744355Y1781932D02*
Y1797601D01*
X1743855Y1781932D02*
Y1797601D01*
X1743355Y1781932D02*
Y1797601D01*
X1742855Y1781932D02*
Y1797601D01*
X1742355Y1781932D02*
Y1797601D01*
X1741855Y1781932D02*
Y1797601D01*
X1741355Y1781932D02*
Y1801696D01*
X1740855Y1781932D02*
Y1801696D01*
X1740355Y1781932D02*
Y1797601D01*
X1739855Y1781932D02*
Y1797601D01*
X1739355Y1781932D02*
Y1797601D01*
X1738855Y1781932D02*
Y1797601D01*
X1738355Y1781932D02*
Y1797601D01*
X1737855Y1781932D02*
Y1797601D01*
X1737355Y1781932D02*
Y1797601D01*
X1736855Y1781932D02*
Y1797601D01*
X1736355Y1781932D02*
Y1801696D01*
X1735855Y1781932D02*
Y1801696D01*
X1735355Y1781932D02*
Y1797561D01*
G54D211*
X1914736Y1814648D03*
X1911036D03*
X2145444Y1665042D03*
X2141744D03*
X2135208D03*
X2131508D03*
X2155681D03*
X2151981D03*
X2294500Y1623309D03*
X2298200D03*
X2304737D03*
X2308437D03*
X2284264D03*
X2287964D03*
X1924972Y1814648D03*
X1921272D03*
X2145444D03*
X2141744D03*
X2135208D03*
X2131508D03*
X2155681D03*
X2151981D03*
X1935208D03*
X1931508D03*
X1924972Y1665042D03*
X1921272D03*
X1914736D03*
X1911036D03*
X1935208D03*
X1931508D03*
X2074028Y1623309D03*
X2077728D03*
X2084264D03*
X2087964D03*
X2063792D03*
X2067492D03*
X2074028Y1772916D03*
X2077728D03*
X2084264D03*
X2087964D03*
X2063792D03*
X2067492D03*
X2294500D03*
X2298200D03*
X2304737D03*
X2308437D03*
X2284264D03*
X2287964D03*
X2294500Y1473703D03*
X2298200D03*
X2304737D03*
X2308437D03*
X2284264D03*
X2287964D03*
X2145444Y1515435D03*
X2141744D03*
X2135208D03*
X2131508D03*
X2155681D03*
X2151981D03*
X2074028Y1473703D03*
X2077728D03*
X2084264D03*
X2087964D03*
X2063792D03*
X2067492D03*
X1924972Y1515435D03*
X1921272D03*
X1914736D03*
X1911036D03*
X1935208D03*
X1931508D03*
X1557689Y1483743D03*
X1561389D03*
X2365917Y1814648D03*
X2362217D03*
X2355681D03*
X2351981D03*
X2376153D03*
X2372453D03*
X2365917Y1665042D03*
X2362217D03*
X2355681D03*
X2351981D03*
X2376153D03*
X2372453D03*
X2365917Y1515435D03*
X2362217D03*
X2355681D03*
X2351981D03*
X2376153D03*
X2372453D03*
X1901941Y1772128D03*
X1898241D03*
X2165917Y1665042D03*
X2162217D03*
X2122413Y1622522D03*
X2118713D03*
X2175563Y1683546D03*
X2171863D03*
X2185996Y1654018D03*
X2182296D03*
X2187374Y1683939D03*
X2183674D03*
X2274028Y1623309D03*
X2277728D03*
X2317532Y1665829D03*
X2321232D03*
X2264185Y1634333D03*
X2267885D03*
X2264185Y1604806D03*
X2267885D03*
X2253949Y1634333D03*
X2257649D03*
X2252374Y1604806D03*
X2256074D03*
X2097059Y1815435D03*
X2100759D03*
X2043713Y1783939D03*
X2047413D03*
X2043713Y1754412D03*
X2047413D03*
X2033477Y1783939D03*
X2037177D03*
X2032099Y1754018D03*
X2035799D03*
X2053556Y1772916D03*
X2057256D03*
X2122413Y1772128D03*
X2118713D03*
X2175759Y1803624D03*
X2172059D03*
X2175759Y1833152D03*
X2172059D03*
X2185996Y1803624D03*
X2182296D03*
X2187374Y1833546D03*
X2183674D03*
X2165917Y1814648D03*
X2162217D03*
X1955287Y1803624D03*
X1951587D03*
X1955287Y1833152D03*
X1951587D03*
X1965523Y1803624D03*
X1961823D03*
X1966901Y1833546D03*
X1963201D03*
X1945444Y1814648D03*
X1941744D03*
X1901941Y1622522D03*
X1898241D03*
X1955287Y1654018D03*
X1951587D03*
X1955287Y1683546D03*
X1951587D03*
X1965523Y1654018D03*
X1961823D03*
X1966901Y1683939D03*
X1963201D03*
X1945444Y1665042D03*
X1941744D03*
X2097552Y1665829D03*
X2101252D03*
X2043713Y1634333D03*
X2047413D03*
X2043713Y1604806D03*
X2047413D03*
X2032099Y1634333D03*
X2035799D03*
X2032099Y1604412D03*
X2035799D03*
X2053556Y1623309D03*
X2057256D03*
X2175759Y1654018D03*
X2172059D03*
X2317532Y1815435D03*
X2321232D03*
X2264185Y1783939D03*
X2267885D03*
X2264185Y1754412D03*
X2267885D03*
X2253949Y1783939D03*
X2257649D03*
X2252374Y1754018D03*
X2256074D03*
X2274028Y1772916D03*
X2277728D03*
X2317532Y1511302D03*
X2321232D03*
X2264185Y1484727D03*
X2267885D03*
X2264185Y1455199D03*
X2267885D03*
X2253949Y1484727D03*
X2257649D03*
X2274028Y1473703D03*
X2277728D03*
X2252374Y1454806D03*
X2256074D03*
X2122413Y1472916D03*
X2118713D03*
X2175759Y1504412D03*
X2172059D03*
X2175759Y1533939D03*
X2172059D03*
X2185996Y1504412D03*
X2182296D03*
X2187374Y1534333D03*
X2183674D03*
X2165917Y1515435D03*
X2162217D03*
X2053556Y1473703D03*
X2057256D03*
X2043713Y1485120D03*
X2047413D03*
X2043713Y1454806D03*
X2047413D03*
X2032099Y1485120D03*
X2035799D03*
X2032099Y1454806D03*
X2035799D03*
X2097552Y1511302D03*
X2101252D03*
X1901941Y1472916D03*
X1898241D03*
X1955287Y1533939D03*
X1951587D03*
X1966901Y1534333D03*
X1963201D03*
X1945444Y1515435D03*
X1941744D03*
X1955287Y1504412D03*
X1951587D03*
X1965523D03*
X1961823D03*
X1771035Y1747719D03*
X1767335D03*
X2342885Y1772128D03*
X2339185D03*
X2396232Y1803624D03*
X2392532D03*
X2396232Y1833152D03*
X2392532D03*
X2406468Y1803624D03*
X2402768D03*
X2407846Y1833546D03*
X2404146D03*
X2386389Y1814648D03*
X2382689D03*
X2396232Y1654018D03*
X2392532D03*
X2396232Y1683546D03*
X2392532D03*
X2406468Y1654018D03*
X2402768D03*
X2407846Y1683939D03*
X2404146D03*
X2386389Y1665042D03*
X2382689D03*
X2342885Y1622522D03*
X2339185D03*
X2396232Y1504412D03*
X2392532D03*
X2396232Y1533939D03*
X2392532D03*
X2406468Y1504412D03*
X2402768D03*
X2407846Y1534333D03*
X2404146D03*
X2386389Y1515435D03*
X2382689D03*
X2342885Y1472916D03*
X2339185D03*
X2195485Y1672128D03*
X2199185D03*
X2172059Y1648506D03*
X2175759D03*
X2182296D03*
X2185996D03*
X2244263Y1616223D03*
X2240563D03*
X2267885Y1639845D03*
X2264185D03*
X2257649D03*
X2253949D03*
X2047413Y1789451D03*
X2043713D03*
X2037177D03*
X2033477D03*
X2172059Y1798113D03*
X2175759D03*
X2182296D03*
X2185996D03*
X1951587D03*
X1955287D03*
X1961823D03*
X1965523D03*
X1951587Y1648506D03*
X1955287D03*
X1961823D03*
X1965523D03*
X2047413Y1639845D03*
X2043713D03*
X2035799D03*
X2032099D03*
X2195485Y1821735D03*
X2199185D03*
X1975012D03*
X1978712D03*
X1975012Y1672227D03*
X1978712D03*
X2023988Y1616223D03*
X2020288D03*
X2023988Y1765829D03*
X2020288D03*
X2244263D03*
X2240563D03*
X2267885Y1789451D03*
X2264185D03*
X2257649D03*
X2253949D03*
X2244263Y1466617D03*
X2240563D03*
X2267885Y1490239D03*
X2264185D03*
X2257649D03*
X2253949D03*
X2195485Y1522522D03*
X2199185D03*
X2172059Y1498900D03*
X2175759D03*
X2182296D03*
X2185996D03*
X2047413Y1490239D03*
X2043713D03*
X2035799D03*
X2032099D03*
X2023988Y1466617D03*
X2020288D03*
X1951587Y1498900D03*
X1955287D03*
X1961823D03*
X1965523D03*
X1975012Y1522522D03*
X1978712D03*
X1561389Y1489156D03*
X1557689D03*
X1883240Y1413861D03*
X1879540D03*
X1882689Y1494176D03*
X1886389D03*
X1883141Y1428034D03*
X1879441D03*
X1577728Y1431183D03*
X1574028D03*
X1886389Y1489254D03*
X1882689D03*
X1640130Y1478821D03*
X1636430D03*
X1574028Y1436302D03*
X1577728D03*
X1695485Y1467994D03*
X1699185D03*
X1766704Y1707561D03*
X1763004D03*
X1766704Y1699687D03*
X1763004D03*
X1733299Y1734727D03*
X1729599D03*
X1776153Y1757955D03*
X1772453D03*
X1729599Y1739687D03*
X1733299D03*
Y1744609D03*
X1729599D03*
X1810405Y1501557D03*
X1806705D03*
X1779540Y1747719D03*
X1783240D03*
X2317532Y1496538D03*
X2321232D03*
X2122413Y1492601D03*
X2118713D03*
X2097552Y1496538D03*
X2101252D03*
X1901941Y1492601D03*
X1898241D03*
X1701350Y1713861D03*
X1697650D03*
X1701094Y1718782D03*
X1697394D03*
X1744460Y1680593D03*
X1740760D03*
X1794894Y1501557D03*
X1798594D03*
X1782452Y1668782D03*
X1778752D03*
X1782452Y1674687D03*
X1778752D03*
X1782452Y1682561D03*
X1778752D03*
X2392532Y1798113D03*
X2396232D03*
X2402768D03*
X2406468D03*
X2415957Y1821735D03*
X2419657D03*
X2342885Y1791813D03*
X2339185D03*
X2392532Y1648506D03*
X2396232D03*
X2402768D03*
X2406468D03*
X2415957Y1672128D03*
X2419657D03*
X2342885Y1642207D03*
X2339185D03*
X2392532Y1498900D03*
X2396232D03*
X2402768D03*
X2406468D03*
X2415957Y1522522D03*
X2419657D03*
X2342885Y1492601D03*
X2339185D03*
X1739145Y1728821D03*
X1735445D03*
X1598200Y1665829D03*
X1594500D03*
X1901941Y1791813D03*
X1898241D03*
X2122413Y1632365D03*
X2118713D03*
X2211586Y1636695D03*
X2207886D03*
X2122413Y1642207D03*
X2118713D03*
X2122413Y1637286D03*
X2118713D03*
X2195485Y1696538D03*
X2199185D03*
X2317532Y1655987D03*
X2321232D03*
X2229146Y1651656D03*
X2232846D03*
X2317532Y1646144D03*
X2321232D03*
X2317532Y1651065D03*
X2321232D03*
X2244263Y1591813D03*
X2240563D03*
X2122413Y1791813D03*
X2118713D03*
X2122413Y1786892D03*
X2118713D03*
X2122413Y1781971D03*
X2118713D03*
X2211586Y1786302D03*
X2207886D03*
X2195485Y1846144D03*
X2199185D03*
X1901941Y1786892D03*
X1898241D03*
X1901941Y1781971D03*
X1898241D03*
X1991114Y1786302D03*
X1987414D03*
X1975012Y1846144D03*
X1978712D03*
X1901941Y1642207D03*
X1898241D03*
X1901941Y1637286D03*
X1898241D03*
X1901941Y1632365D03*
X1898241D03*
X1991114Y1636695D03*
X1987414D03*
X1975012Y1695849D03*
X1978712D03*
X2097552Y1646144D03*
X2101252D03*
X2097552Y1651065D03*
X2101252D03*
X2097552Y1655987D03*
X2101252D03*
X2008674Y1651656D03*
X2012374D03*
X2023988Y1591813D03*
X2020288D03*
X2097059Y1795750D03*
X2100759D03*
X2097059Y1800672D03*
X2100759D03*
X2097059Y1805593D03*
X2100759D03*
X2008674Y1801262D03*
X2012374D03*
X2023988Y1741420D03*
X2020288D03*
X2317532Y1795750D03*
X2321232D03*
X2317532Y1800672D03*
X2321232D03*
X2317532Y1805593D03*
X2321232D03*
X2229146Y1801262D03*
X2232846D03*
X2244263Y1741420D03*
X2240563D03*
X2317532Y1506380D03*
X2321232D03*
X2229146Y1502837D03*
X2232846D03*
X2317532Y1501459D03*
X2321232D03*
X2244263Y1442207D03*
X2240563D03*
X2122413Y1482758D03*
X2118713D03*
X2122413Y1487680D03*
X2118713D03*
X2195485Y1546931D03*
X2199185D03*
X2211586Y1487089D03*
X2207886D03*
X2097552Y1501459D03*
X2101252D03*
X2097552Y1506380D03*
X2101252D03*
X2008674Y1502050D03*
X2012374D03*
X2023988Y1442207D03*
X2020288D03*
X1901941Y1487680D03*
X1898241D03*
X1901941Y1482758D03*
X1898241D03*
X1991114Y1487089D03*
X1987414D03*
X1975012Y1546931D03*
X1978712D03*
X2097059Y1810514D03*
X2100759D03*
X2122413Y1777050D03*
X2118713D03*
X2122413Y1627443D03*
X2118713D03*
X2317532Y1660908D03*
X2321232D03*
X2317532Y1810514D03*
X2321232D03*
X2317532Y1516223D03*
X2321232D03*
X2122413Y1477837D03*
X2118713D03*
X2097552Y1516223D03*
X2101252D03*
X1901941Y1477837D03*
X1898241D03*
X1901941Y1777050D03*
X1898241D03*
X1901941Y1627443D03*
X1898241D03*
X2097552Y1660908D03*
X2101252D03*
X2342885Y1786892D03*
X2339185D03*
X2342885Y1781971D03*
X2339185D03*
X2415957Y1846144D03*
X2419657D03*
X2342885Y1777050D03*
X2339185D03*
X2432059Y1786302D03*
X2428359D03*
X2415957Y1696538D03*
X2419657D03*
X2432059Y1636695D03*
X2428359D03*
X2342885Y1637286D03*
X2339185D03*
X2342885Y1632365D03*
X2339185D03*
X2342885Y1627443D03*
X2339185D03*
X2432059Y1487089D03*
X2428359D03*
X2342885Y1487680D03*
X2339185D03*
X2342885Y1482758D03*
X2339185D03*
X2342885Y1477837D03*
X2339185D03*
X2415957Y1546931D03*
X2419657D03*
X1903162Y1713073D03*
X1906862D03*
X1962767D03*
X1959067D03*
X1959855Y1563467D03*
X1963555D03*
X1991114Y1583152D03*
X1987414D03*
X1903162Y1563467D03*
X1906862D03*
X1991114Y1606774D03*
X1987414D03*
X1991114Y1756380D03*
X1987414D03*
X1991114Y1732758D03*
X1987414D03*
X2008674Y1681577D03*
X2012374D03*
X2008674Y1705199D03*
X2012374D03*
X2095838Y1724884D03*
X2092138D03*
X2037020D03*
X2040720D03*
X2008674Y1831183D03*
X2012374D03*
X2008674Y1854806D03*
X2012374D03*
X2080327Y1874491D03*
X2084027D03*
X2029146D03*
X2032846D03*
X2184027Y1713073D03*
X2180327D03*
X2211586Y1756380D03*
X2207886D03*
X2211586Y1732758D03*
X2207886D03*
X2123634Y1563467D03*
X2127334D03*
X2180327D03*
X2184027D03*
X2211586Y1606774D03*
X2207886D03*
Y1579215D03*
X2211586D03*
X2316311Y1724884D03*
X2312611D03*
X2260011Y1724491D03*
X2256311D03*
X2232846Y1681577D03*
X2229146D03*
X2232846Y1708743D03*
X2229146D03*
X2298831Y1874491D03*
X2302531D03*
X2247650D03*
X2251350D03*
X2232846Y1831183D03*
X2229146D03*
Y1854806D03*
X2232846D03*
X2316311Y1575278D03*
X2312611D03*
X2260011D03*
X2256311D03*
X2232846Y1531971D03*
X2229146D03*
X2232846Y1559136D03*
X2229146D03*
X2127334Y1413861D03*
X2123634D03*
X2180327D03*
X2184027D03*
X2211586Y1457168D03*
X2207886D03*
X2211586Y1429609D03*
X2207886D03*
X2008674Y1531971D03*
X2012374D03*
X2008674Y1555593D03*
X2012374D03*
X2095051Y1575278D03*
X2091351D03*
X2039145Y1574884D03*
X2035445D03*
X1991114Y1433546D03*
X1987414D03*
X1991114Y1457168D03*
X1987414D03*
X1962767Y1413861D03*
X1959067D03*
X1909461D03*
X1913161D03*
X1761430Y1757955D03*
X1765130D03*
X1746469Y1728821D03*
X1750169D03*
X1758674D03*
X1762374D03*
X1640130Y1484727D03*
X1636430D03*
X1767335Y1752837D03*
X1771035D03*
X2123634Y1713073D03*
X2127334D03*
X2344107D03*
X2347807D03*
X2404500D03*
X2400800D03*
X2432059Y1756380D03*
X2428359D03*
X2432059Y1732758D03*
X2428359D03*
X2404500Y1563467D03*
X2400800D03*
X2432059Y1606774D03*
X2428359D03*
X2432059Y1583152D03*
X2428359D03*
X2344107Y1563467D03*
X2347807D03*
X2404500Y1413861D03*
X2400800D03*
X2432059Y1457168D03*
X2428359D03*
X2432059Y1433546D03*
X2428359D03*
X2344107Y1413861D03*
X2347807D03*
X1771272Y1741617D03*
X1774972D03*
X1575898Y1476853D03*
X1579598D03*
G54D212*
X1643594Y1645869D03*
Y1649569D03*
X1756882Y1471066D03*
Y1474766D03*
X1717020Y1642581D03*
Y1638881D03*
X1795760Y1642581D03*
Y1638881D03*
X1790839Y1642581D03*
Y1638881D03*
X1712098Y1642581D03*
Y1638881D03*
X1800681Y1642581D03*
Y1638881D03*
X1721941Y1642581D03*
Y1638881D03*
X1820858Y1642581D03*
Y1638881D03*
X1742118Y1642581D03*
Y1638881D03*
X1815937Y1642581D03*
Y1638881D03*
X1737197Y1642581D03*
Y1638881D03*
X1811016Y1642581D03*
Y1638881D03*
X1732276Y1642581D03*
Y1638881D03*
X1806094Y1642581D03*
Y1638881D03*
X1727354Y1642581D03*
Y1638881D03*
X1785917Y1642581D03*
Y1638881D03*
X1707177Y1642581D03*
Y1638881D03*
X1785917Y1579826D03*
Y1583526D03*
X1707177Y1579826D03*
Y1583526D03*
X1790839Y1579826D03*
Y1583526D03*
X1712098Y1579826D03*
Y1583526D03*
X1795760Y1579826D03*
Y1583526D03*
X1717020Y1579826D03*
Y1583526D03*
X1800681Y1579826D03*
Y1583526D03*
X1721941Y1579826D03*
Y1583526D03*
X1806094Y1579826D03*
Y1583526D03*
X1727354Y1579826D03*
Y1583526D03*
X1811016Y1579826D03*
Y1583526D03*
X1732276Y1579826D03*
Y1583526D03*
X1815937Y1579826D03*
Y1583526D03*
X1737197Y1579826D03*
Y1583526D03*
X1543791Y1467876D03*
Y1464176D03*
X1756882Y1505318D03*
Y1509018D03*
X1659933Y1499372D03*
Y1495672D03*
X1669776Y1445475D03*
Y1449175D03*
X1676665D03*
Y1445475D03*
X1692413D03*
Y1449175D03*
X1697335Y1445475D03*
Y1449175D03*
X1687000D03*
Y1445475D03*
X1699303Y1522994D03*
Y1519294D03*
X1714067Y1522994D03*
Y1519294D03*
X1718988Y1560633D03*
Y1564333D03*
X1704224Y1560633D03*
Y1564333D03*
Y1519294D03*
Y1522994D03*
X1694382D03*
Y1519294D03*
X1741035Y1505318D03*
Y1509018D03*
X1692413Y1460002D03*
Y1456302D03*
X1697335D03*
Y1460002D03*
X1653535Y1638389D03*
Y1642089D03*
X1658457Y1638389D03*
Y1642089D03*
X1687000Y1463939D03*
Y1460239D03*
X1746154Y1461223D03*
Y1464923D03*
X1741035Y1516341D03*
Y1520041D03*
X1682079Y1463939D03*
Y1460239D03*
X1771350Y1737364D03*
Y1733664D03*
X1762886Y1563348D03*
Y1559648D03*
X1753043Y1563348D03*
Y1559648D03*
X1743201Y1563348D03*
Y1559648D03*
X1688476Y1638881D03*
Y1642581D03*
X1820858Y1579826D03*
Y1583526D03*
X1742118Y1579826D03*
Y1583526D03*
X1850878Y1638881D03*
Y1642581D03*
X2202650Y1798625D03*
Y1802325D03*
X2191626Y1649019D03*
Y1652719D03*
X2202650Y1649019D03*
Y1652719D03*
X2242807Y1639333D03*
Y1635633D03*
X2237295Y1639333D03*
Y1635633D03*
X2248319Y1788939D03*
Y1785239D03*
X2242807Y1788939D03*
Y1785239D03*
X2237295Y1788939D03*
Y1785239D03*
X2248319Y1489726D03*
Y1486026D03*
X2242807Y1489726D03*
Y1486026D03*
X2202650Y1499412D03*
Y1503112D03*
X2016823Y1489726D03*
Y1486026D03*
X1971154Y1649019D03*
Y1652719D03*
X1976665Y1499412D03*
Y1503112D03*
X1982177Y1499412D03*
Y1503112D03*
X2022335Y1639333D03*
Y1635633D03*
X2027846Y1788939D03*
Y1785239D03*
X2022335Y1788939D03*
Y1785239D03*
X1758555Y1723978D03*
Y1720278D03*
X1752453Y1766104D03*
Y1762404D03*
X1899500Y1553506D03*
Y1549806D03*
X1667315Y1507483D03*
Y1511183D03*
X1668299Y1638389D03*
Y1642089D03*
X1673220Y1638389D03*
Y1642089D03*
X1714067Y1564333D03*
Y1560633D03*
X1694382Y1564333D03*
Y1560633D03*
X1841035Y1583526D03*
Y1579826D03*
X1814461Y1486912D03*
Y1490612D03*
X1788870Y1492581D03*
Y1488881D03*
X1650091Y1499372D03*
Y1495672D03*
X1817610Y1789963D03*
Y1793663D03*
X1640740Y1431696D03*
Y1435396D03*
X1664854Y1449175D03*
Y1445475D03*
X2412098Y1649019D03*
Y1652719D03*
X2417610Y1499412D03*
Y1503112D03*
X1618201Y1529333D03*
Y1533033D03*
X1650091Y1522994D03*
Y1519294D03*
X1655012Y1560633D03*
Y1564333D03*
X1640248Y1560633D03*
Y1564333D03*
X1676665Y1463939D03*
Y1460239D03*
X1671744Y1463939D03*
Y1460239D03*
X2027846Y1489726D03*
Y1486026D03*
X1750287Y1716892D03*
Y1713192D03*
X1755406Y1716892D03*
Y1713192D03*
X1653535Y1649215D03*
Y1652915D03*
X1938083Y1802325D03*
Y1798625D03*
X1927059Y1802325D03*
Y1798625D03*
X1932571Y1802325D03*
Y1798625D03*
X1942807Y1802325D03*
Y1798625D03*
X1938083Y1652719D03*
Y1649019D03*
X1927059Y1652719D03*
Y1649019D03*
X1932571Y1652719D03*
Y1649019D03*
X1942807Y1652719D03*
Y1649019D03*
X2060917Y1635633D03*
Y1639333D03*
X2071941Y1635633D03*
Y1639333D03*
X2066429Y1635633D03*
Y1639333D03*
X2056193Y1635633D03*
Y1639333D03*
X2060917Y1785239D03*
Y1788939D03*
X2071941Y1785239D03*
Y1788939D03*
X2066429Y1785239D03*
Y1788939D03*
X2056193Y1785239D03*
Y1788939D03*
X2158555Y1802325D03*
Y1798625D03*
X2147531Y1802325D03*
Y1798625D03*
X2153043Y1802325D03*
Y1798625D03*
X2163280Y1802325D03*
Y1798625D03*
X2158555Y1652719D03*
Y1649019D03*
X2147531Y1652719D03*
Y1649019D03*
X2153043Y1652719D03*
Y1649019D03*
X2163280Y1652719D03*
Y1649019D03*
X2281390Y1635633D03*
Y1639333D03*
X2292413Y1635633D03*
Y1639333D03*
X2286902Y1635633D03*
Y1639333D03*
X2276665Y1635633D03*
Y1639333D03*
X2281390Y1785239D03*
Y1788939D03*
X2292413Y1785239D03*
Y1788939D03*
X2286902Y1785239D03*
Y1788939D03*
X2276665Y1785239D03*
Y1788939D03*
X2379028Y1802325D03*
Y1798625D03*
X2368004Y1802325D03*
Y1798625D03*
X2373516Y1802325D03*
Y1798625D03*
X2383752Y1802325D03*
Y1798625D03*
X2379028Y1652719D03*
Y1649019D03*
X2368004Y1652719D03*
Y1649019D03*
X2373516Y1652719D03*
Y1649019D03*
X2383752Y1652719D03*
Y1649019D03*
X2379028Y1503112D03*
Y1499412D03*
X2368004Y1503112D03*
Y1499412D03*
X2373516Y1503112D03*
Y1499412D03*
X2383752Y1503112D03*
Y1499412D03*
X2281390Y1486026D03*
Y1489726D03*
X2292413Y1486026D03*
Y1489726D03*
X2286902Y1486026D03*
Y1489726D03*
X2276665Y1486026D03*
Y1489726D03*
X2158555Y1503112D03*
Y1499412D03*
X2147531Y1503112D03*
Y1499412D03*
X2153043Y1503112D03*
Y1499412D03*
X2163280Y1503112D03*
Y1499412D03*
X2060917Y1486026D03*
Y1489726D03*
X2071941Y1486026D03*
Y1489726D03*
X2066429Y1486026D03*
Y1489726D03*
X2056193Y1486026D03*
Y1489726D03*
X1938083Y1503112D03*
Y1499412D03*
X1927059Y1503112D03*
Y1499412D03*
X1932571Y1503112D03*
Y1499412D03*
X1942807Y1503112D03*
Y1499412D03*
X2197138Y1649019D03*
Y1652719D03*
X2248319Y1639333D03*
Y1635633D03*
X2191626Y1798625D03*
Y1802325D03*
X2197138Y1798625D03*
Y1802325D03*
X1971154Y1798625D03*
Y1802325D03*
X1976665Y1798625D03*
Y1802325D03*
X1982177Y1798625D03*
Y1802325D03*
X1976665Y1649019D03*
Y1652719D03*
X1982177Y1649019D03*
Y1652719D03*
X2027846Y1639333D03*
Y1635633D03*
X2016823Y1639333D03*
Y1635633D03*
Y1788939D03*
Y1785239D03*
X2237295Y1489726D03*
Y1486026D03*
X2191626Y1499412D03*
Y1503112D03*
X2197138Y1499412D03*
Y1503112D03*
X1693398Y1638881D03*
Y1642581D03*
X1845957Y1638881D03*
Y1642581D03*
X1772138Y1638881D03*
Y1642581D03*
X2412098Y1798625D03*
Y1802325D03*
X2417610Y1798625D03*
Y1802325D03*
X2423122Y1798625D03*
Y1802325D03*
X2417610Y1649019D03*
Y1652719D03*
X2423122Y1649019D03*
Y1652719D03*
Y1499412D03*
Y1503112D03*
X2412098Y1499412D03*
Y1503112D03*
X1663378Y1579826D03*
Y1583526D03*
X1658457Y1579826D03*
Y1583526D03*
X1653535Y1579826D03*
Y1583526D03*
X1648614Y1579826D03*
Y1583526D03*
X1875878Y1772797D03*
Y1769097D03*
X1812492Y1793663D03*
Y1789963D03*
X1809539Y1486912D03*
Y1490612D03*
X1682079Y1455081D03*
Y1451381D03*
X1704224Y1509944D03*
Y1513644D03*
X1694382D03*
Y1509944D03*
X1841035Y1574667D03*
Y1570967D03*
X1745957Y1700200D03*
Y1703900D03*
X1707374Y1718073D03*
Y1714373D03*
X1763673Y1720278D03*
Y1723978D03*
X1918791Y1649215D03*
Y1652915D03*
X2080602Y1639431D03*
Y1635731D03*
Y1788545D03*
Y1784845D03*
X2139756Y1798330D03*
Y1802030D03*
Y1648822D03*
Y1652522D03*
X2300583Y1639431D03*
Y1635731D03*
X2300287Y1788939D03*
Y1785239D03*
X2300091Y1489333D03*
Y1485633D03*
X2139559Y1499412D03*
Y1503112D03*
X2079618Y1489825D03*
Y1486125D03*
X1918791Y1499609D03*
Y1503309D03*
X2360228Y1798822D03*
Y1802522D03*
Y1649215D03*
Y1652915D03*
Y1499609D03*
Y1503309D03*
X2022335Y1489726D03*
Y1486026D03*
X1971154Y1499412D03*
Y1503112D03*
X1655012Y1499372D03*
Y1495672D03*
X1628437Y1579826D03*
Y1583526D03*
X1633358Y1579826D03*
Y1583526D03*
X1638280Y1579826D03*
Y1583526D03*
X1643201Y1579826D03*
Y1583526D03*
X1916823Y1798625D03*
Y1802325D03*
X1913673Y1649019D03*
Y1652719D03*
X2085720Y1639333D03*
Y1635633D03*
Y1788939D03*
Y1785239D03*
X2134835Y1798330D03*
Y1802030D03*
X2134539Y1649019D03*
Y1652719D03*
X2305799Y1639333D03*
Y1635633D03*
X2306587Y1788939D03*
Y1785239D03*
X2355012Y1799019D03*
Y1802719D03*
X2355406Y1649412D03*
Y1653112D03*
Y1499412D03*
Y1503112D03*
X2305012Y1489333D03*
Y1485633D03*
X2134539Y1499412D03*
Y1503112D03*
X2084539Y1489726D03*
Y1486026D03*
X1913673Y1499412D03*
Y1503112D03*
X1750287Y1723978D03*
Y1720278D03*
G74*
X0Y0D02*
M02*
